/* XPM */
static const char * PasteDisabled[] = {
"26 24 14 1",
" 	c None",
".	c #757575",
"+	c #B7B76B",
"@	c #A5A578",
"#	c #AAA9A7",
"$	c #A4A46B",
"%	c #6B6B6B",
"&	c #919191",
"*	c #6B6BA4",
"=	c #6D6DA4",
"-	c #B7B7B7",
";	c #ABABAB",
">	c #7575A4",
",	c #A8A8A8",
"                          ",
"                          ",
"                          ",
"                          ",
"          ....            ",
"      .....++.....        ",
"     .@#$%+%%+%$#@.       ",
"     .#&%######%&#.       ",
"     .$&%%%%%%%%&#.       ",
"     .#$#$#$#$#$#$.       ",
"     .$#$#$*******=       ",
"     .#$#$#*------==      ",
"     .$#$#$*------*;=     ",
"     .#$#$#*----&-**=>    ",
"     .$#$#$*--&-&---->    ",
"     .,$#$#*&-&-&-&&&>    ",
"      .....*-&-&-&--->    ",
"           >---&-&--->    ",
"           >-----&--->    ",
"           >--------->    ",
"           >>>======>>    ",
"                          ",
"                          ",
"                          "};
