/* XPM */
static const char * PasteAlpha[] = {
"26 24 3 1",
" 	c None",
".	c #000000",
"+	c #FFFFFF",
"..........................",
"..........................",
"..........................",
"..........................",
"..........++++............",
"......++++++++++++........",
".....++++++++++++++.......",
".....++++++++++++++.......",
".....++++++++++++++.......",
".....++++++++++++++.......",
".....++++++++++++++.......",
".....+++++++++++++++......",
".....++++++++++++++++.....",
".....+++++++++++++++++....",
".....+++++++++++++++++....",
".....+++++++++++++++++....",
"......++++++++++++++++....",
"...........+++++++++++....",
"...........+++++++++++....",
"...........+++++++++++....",
"...........+++++++++++....",
"..........................",
"..........................",
".........................."};
