/* XPM */
static const char  * Trim[] = {
"26 24 3 1",
" 	c None",
".	c #000000",
"+	c #3232C8",
"                          ",
"                          ",
"                          ",
"                          ",
"                          ",
"        .         .       ",
"        . +   +   .       ",
"        .+++ +++ +.       ",
"        .+ + + + +.       ",
"        .+ + + + +.       ",
"        .+ + + + +.       ",
"        .+ + + + +.       ",
"   +++++.+ + + + +.++++   ",
"        .+ + + + +.       ",
"        .+ + + + +.       ",
"        .+ + + + +.       ",
"        .+ +++ +++.       ",
"        .   +   + .       ",
"        .         .       ",
"                          ",
"                          ",
"                          ",
"                          ",
"                          "};
