/* XPM */
static const char  * Undo[] = {
"26 24 4 1",
" 	c None",
".	c #222222",
"+	c #686868",
"@	c #000000",
"                          ",
"                          ",
"                          ",
"                          ",
"                          ",
"                          ",
"                          ",
"                          ",
"            ...+          ",
"          ..+  ..+        ",
"      .  .+      .+       ",
"      ...+        .       ",
"      .@.         .       ",
"      ....        .       ",
"                  .       ",
"                 .+       ",
"               ..+        ",
"                          ",
"                          ",
"                          ",
"                          ",
"                          ",
"                          ",
"                          "};
