<svg width="64" height="48" viewBox="0 0 64 48" fill="none" xmlns="http://www.w3.org/2000/svg">
<path d="M3 26C3 26.6667 2.66667 27 2 27C1.33333 27 1 26.6667 1 26V22C1 21.3333 1.33333 21 2 21C2.66667 21 3 21.3333 3 22V26ZM0.5625 20.625C0.979167 20.2083 1.45833 20 2 20C2.54167 20 3 20.2083 3.375 20.625C3.79167 21 4 21.4583 4 22V26C4 26.5417 3.79167 27.0208 3.375 27.4375C3 27.8125 2.54167 28 2 28C1.45833 28 0.979167 27.8125 0.5625 27.4375C0.1875 27.0208 0 26.5417 0 26V22C0 21.4583 0.1875 21 0.5625 20.625ZM15 34C15 34.6667 14.6667 35 14 35C13.3333 35 13 34.6667 13 34V14C13 13.3333 13.3333 13 14 13C14.6667 13 15 13.3333 15 14V34ZM12.5625 12.625C12.9792 12.2083 13.4583 12 14 12C14.5417 12 15 12.2083 15.375 12.625C15.7917 13 16 13.4583 16 14V34C16 34.5417 15.7917 35.0208 15.375 35.4375C15 35.8125 14.5417 36 14 36C13.4583 36 12.9792 35.8125 12.5625 35.4375C12.1875 35.0208 12 34.5417 12 34V14C12 13.4583 12.1875 13 12.5625 12.625ZM27 30C27 30.6667 26.6667 31 26 31C25.3333 31 25 30.6667 25 30V18C25 17.3333 25.3333 17 26 17C26.6667 17 27 17.3333 27 18V30ZM24.5625 16.625C24.9792 16.2083 25.4583 16 26 16C26.5417 16 27 16.2083 27.375 16.625C27.7917 17 28 17.4583 28 18V30C28 30.5417 27.7917 31.0208 27.375 31.4375C27 31.8125 26.5417 32 26 32C25.4583 32 24.9792 31.8125 24.5625 31.4375C24.1875 31.0208 24 30.5417 24 30V18C24 17.4583 24.1875 17 24.5625 16.625ZM39 46C39 46.6667 38.6667 47 38 47C37.3333 47 37 46.6667 37 46V2C37 1.33333 37.3333 1 38 1C38.6667 1 39 1.33333 39 2V46ZM36.5625 0.625C36.9792 0.208333 37.4583 0 38 0C38.5417 0 39 0.208333 39.375 0.625C39.7917 1 40 1.45833 40 2V46C40 46.5417 39.7917 47.0208 39.375 47.4375C39 47.8125 38.5417 48 38 48C37.4583 48 36.9792 47.8125 36.5625 47.4375C36.1875 47.0208 36 46.5417 36 46V2C36 1.45833 36.1875 1 36.5625 0.625ZM51 38C51 38.6667 50.6667 39 50 39C49.3333 39 49 38.6667 49 38V10C49 9.33333 49.3333 9 50 9C50.6667 9 51 9.33333 51 10V38ZM48.5625 8.625C48.9792 8.20833 49.4583 8 50 8C50.5417 8 51 8.20833 51.375 8.625C51.7917 9 52 9.45833 52 10V38C52 38.5417 51.7917 39.0208 51.375 39.4375C51 39.8125 50.5417 40 50 40C49.4583 40 48.9792 39.8125 48.5625 39.4375C48.1875 39.0208 48 38.5417 48 38V10C48 9.45833 48.1875 9 48.5625 8.625ZM63 30C63 30.6667 62.6667 31 62 31C61.3333 31 61 30.6667 61 30V18C61 17.3333 61.3333 17 62 17C62.6667 17 63 17.3333 63 18V30ZM60.5625 16.625C60.9792 16.2083 61.4583 16 62 16C62.5417 16 63 16.2083 63.375 16.625C63.7917 17 64 17.4583 64 18V30C64 30.5417 63.7917 31.0208 63.375 31.4375C63 31.8125 62.5417 32 62 32C61.4583 32 60.9792 31.8125 60.5625 31.4375C60.1875 31.0208 60 30.5417 60 30V18C60 17.4583 60.1875 17 60.5625 16.625Z" fill="#C0C5CE"/>
</svg>
