<svg width="512" height="512" viewBox="0 0 512 512" fill="none" xmlns="http://www.w3.org/2000/svg">
<path d="M439.987 501.861H72.1807V10.1385H337.613L340.603 13.2313L437.139 113.114L439.987 116.061V501.861Z" fill="#0F004D" stroke="#FF3254" stroke-width="20.2772"/>
<path d="M207.672 390.165C173.1 390.165 145.074 362.139 145.074 327.568C145.074 292.996 173.1 264.97 207.672 264.97V390.165ZM253.863 139.776C313.414 139.776 352.028 180.56 352.754 232.528C353.095 248.984 350.504 266.081 345.607 280.436C358.725 291.91 367.011 308.771 367.011 327.568C367.011 362.139 338.985 390.165 304.413 390.165C269.842 390.165 241.815 362.139 241.815 327.568C241.815 294.03 268.19 266.653 301.329 265.045C305.813 256.002 308.354 245.148 308.354 233.979C308.354 193.921 279.122 165.048 237.619 165.048C196.117 165.048 166.884 197.163 166.884 237.228C166.884 247.302 167.956 258.447 170.824 267.816H170.064C163.608 258.42 159.301 242.956 159.301 229.285C159.301 179.122 194.312 139.776 253.863 139.776Z" fill="#FF3254"/>
</svg>
