/* XPM */
static const char * FFwdAlpha[] = {
"16 16 13 1",
" 	c None",
".	c #000000",
"+	c #151515",
"@	c #808080",
"#	c #6A6A6A",
"$	c #FFFFFF",
"%	c #636363",
"&	c #F8F8F8",
"*	c #464646",
"=	c #EAEAEA",
"-	c #AAAAAA",
";	c #2A2A2A",
">	c #F1F1F1",
"................",
"..+....+......@.",
"..@#...@#.....$.",
"..@$%..@$#....$.",
"..@$&*.@$$#...$.",
"..@$$&*@$$$#..$.",
"..@$$$=-$$$$#.$.",
"..@$$$$$$$$$$#$.",
"..@$$$$$$$$$$$$.",
"..@$$$$$$$$$$#$.",
"..@$$$=-$$$&#.$.",
"..@$$=;@$$&*..$.",
"..@$=;.@$>*...$.",
"..@=;..@=;....$.",
"..#;...#;.....$.",
"................"};
