/* XPM */
static const char  * LoopDisabled[] = {
"16 16 3 1",
" 	c None",
".	c #1B1B1B",
"+	c #8EAA8C",
"......+...+.....",
"....+++...+++...",
"...+++++.+++++..",
"..++++++..+++++.",
".+++++++...++++.",
".+++++++....++++",
"++++++++.....+++",
"+++..........+++",
"+++..........+++",
"+++.....++++++++",
"++++....+++++++.",
".++++...+++++++.",
".+++++..++++++..",
"..+++++.+++++...",
"...+++...+++....",
".....+...+......"};
