/* XPM */
static const char * RecordDisabled[] = {
"16 16 50 1",
" 	c None",
".	c #6B6B6B",
"+	c #6E6D6D",
"@	c #807979",
"#	c #8B8080",
"$	c #8C8181",
"%	c #857C7C",
"&	c #757272",
"*	c #918585",
"=	c #AE9999",
"-	c #AF9999",
";	c #AC9898",
">	c #AB9696",
",	c #AA9696",
"'	c #A99595",
")	c #998A8A",
"!	c #787474",
"~	c #737070",
"{	c #B09A9A",
"]	c #A79494",
"^	c #A59393",
"/	c #A59292",
"(	c #A39191",
"_	c #837B7B",
":	c #A49292",
"<	c #A49191",
"[	c #9F8E8E",
"}	c #7D7777",
"|	c #A19090",
"1	c #968888",
"2	c #A29090",
"3	c #9B8C8C",
"4	c #7F7878",
"5	c #A79393",
"6	c #9E8D8D",
"7	c #8A8080",
"8	c #AD9898",
"9	c #908484",
"0	c #9E8E8E",
"a	c #8F8484",
"b	c #847C7C",
"c	c #9C8C8C",
"d	c #897F7F",
"e	c #978989",
"f	c #8F8383",
"g	c #9F8F8F",
"h	c #948787",
"i	c #A29191",
"j	c #6D6C6C",
"k	c #978888",
".....+@#$%&.....",
"...+*=-;>,')!...",
"..~'{,]^//^^(_..",
".+'-]::<<<<:([}.",
".*{]:<<<<<<((|1+",
"+=,:<<<<<<<((234",
"@-5:<<<<<<<<((67",
"#8^<<<<<<<<<<([9",
"$>:<<<<<<<<<<(0a",
"b,/<<<<<<<<<((cd",
"&'^<<<<<<<<<(2e@",
".)^:((<<<<<((6f~",
".!(((((<<(((gh@.",
".._[|i((((26h%j.",
"...}kc6[0cef@j..",
"....+479ad@~...."};
