/* XPM */
static const char * Rewind[] = {
"16 16 82 1",
" 	c None",
".	c #000000",
"+	c #624D77",
"@	c #0F0C13",
"#	c #B48DDC",
"$	c #59466A",
"%	c #544267",
"&	c #A884CF",
"*	c #604C6A",
"=	c #C89EEE",
"-	c #3B2E48",
";	c #5A4763",
">	c #A884CE",
",	c #DBADFE",
"'	c #A380C9",
")	c #31263C",
"!	c #403246",
"~	c #D7AAF8",
"{	c #A481CA",
"]	c #2F253A",
"^	c #A884D0",
"/	c #DCAEFE",
"(	c #BC94E8",
"_	c #9878BC",
":	c #3B2E49",
"<	c #3E3146",
"[	c #D9ABF8",
"}	c #C198EC",
"|	c #9374B5",
"1	c #2D2337",
"2	c #B48EDE",
"3	c #BD95E9",
"4	c #AE89D6",
"5	c #A482CB",
"6	c #6F5788",
"7	c #C39AEA",
"8	c #C299EE",
"9	c #AF8AD7",
"0	c #9072B2",
"a	c #CBA0F7",
"b	c #574469",
"c	c #D9ABFE",
"d	c #AC88D4",
"e	c #B28CDC",
"f	c #BA92E4",
"g	c #B08BD9",
"h	c #C89DF4",
"i	c #B58EDF",
"j	c #B790E2",
"k	c #AE88D6",
"l	c #AB87D3",
"m	c #AD88D5",
"n	c #AF8AD8",
"o	c #3A2D47",
"p	c #9E7DC3",
"q	c #AA86D2",
"r	c #A784CE",
"s	c #9D7CC2",
"t	c #3C2F4A",
"u	c #9877BB",
"v	c #9978BC",
"w	c #503E62",
"x	c #876BA7",
"y	c #A985D0",
"z	c #282032",
"A	c #9978BD",
"B	c #9272B3",
"C	c #17121D",
"D	c #9070B1",
"E	c #282031",
"F	c #9172B2",
"G	c #8F70B0",
"H	c #2D2438",
"I	c #18131E",
"J	c #9071B1",
"K	c #18121D",
"L	c #7D639B",
"M	c #30263B",
"N	c #7E639C",
"O	c #8D6FAE",
"P	c #15101A",
"Q	c #2E2438",
"................",
"..+......@....@.",
"..#.....$%...$%.",
"..&....*=-..;=-.",
"..>...*,').!~{].",
"..^..*/(_:<[}|1.",
"..2.*/345678901.",
"..abc39ddefgd01.",
"..hij4klddm4l01.",
"..nopqdlrsrdq01.",
"..&.tuqdvwxyd01.",
"..>..zA&B]CD^01.",
"..>...EFGH.IJJH.",
"..{....KLM..INM.",
"..O.....PQ...PQ.",
"................"};
