/* XPM */
static const char * RewindAlpha[] = {
"16 16 13 1",
" 	c None",
".	c #000000",
"+	c #808080",
"@	c #151515",
"#	c #FFFFFF",
"$	c #6A6A6A",
"%	c #636363",
"&	c #464646",
"*	c #F8F8F8",
"=	c #AAAAAA",
"-	c #EAEAEA",
";	c #2A2A2A",
">	c #F1F1F1",
"................",
"..+......@....@.",
"..#.....$+...$+.",
"..#....$#+..%#+.",
"..#...$##+.&*#+.",
"..#..$###+&*##+.",
"..#.$####=-###+.",
"..#$##########+.",
"..############+.",
"..#$##########+.",
"..#.$*###=-###+.",
"..#..&*##+;-##+.",
"..#...&>#+.;-#+.",
"..#....;-+..;-+.",
"..#.....;$...;$.",
"................"};
