/* XPM */
static const char * RewindDisabled[] = {
"16 16 63 1",
" 	c None",
".	c #6B6B6B",
"+	c #88828E",
"@	c #6F6E71",
"#	c #A195AC",
"$	c #85808A",
"%	c #847F8A",
"&	c #9D92A9",
"*	c #88828A",
"=	c #A79AB2",
"-	c #7C7980",
";	c #868088",
">	c #9D92A8",
",	c #AC9EB7",
"'	c #9B91A7",
")	c #7A767D",
"!	c #7E7A80",
"~	c #AB9EB5",
"{	c #9C91A7",
"]	c #79767C",
"^	c #AC9FB7",
"/	c #A397B0",
"(	c #988FA3",
"_	c #7C7981",
":	c #7D7A80",
"<	c #AC9EB5",
"[	c #A498B1",
"}	c #978DA1",
"|	c #78757B",
"1	c #A195AD",
"2	c #9F94AB",
"3	c #9C92A7",
"4	c #8C8593",
"5	c #A599B1",
"6	c #A599B2",
"7	c #968DA0",
"8	c #A79BB5",
"9	c #857F8A",
"0	c #9E93AA",
"a	c #A095AC",
"b	c #A296AF",
"c	c #9F94AC",
"d	c #A79AB4",
"e	c #A196AE",
"f	c #9F93AB",
"g	c #7C7880",
"h	c #9A90A5",
"i	c #9E93A9",
"j	c #7D7981",
"k	c #988EA3",
"l	c #998FA3",
"m	c #837D88",
"n	c #938B9D",
"o	c #9D93A9",
"p	c #77747A",
"q	c #727074",
"r	c #968CA0",
"s	c #968C9F",
"t	c #78767C",
"u	c #727174",
"v	c #908899",
"w	c #958C9F",
"x	c #717073",
"................",
"..+......@....@.",
"..#.....$%...$%.",
"..&....*=-..;=-.",
"..>...*,').!~{].",
"..&..*^/(_:<[}|.",
"..1.*^/2345627|.",
"..89,/200abc07|.",
"..d1e2f0000207|.",
"..2ghi00>h>0i7|.",
"..&.jki0lmno07|.",
"..>..pl&7]qr&7|.",
"..>...p7st.u77t.",
"..{....qv]..uv].",
"..w.....x]...x].",
"................"};
