/* XPM */
static const char * StopAlpha[] = {
"16 16 5 1",
" 	c None",
".	c #000000",
"+	c #FFFFFF",
"@	c #808080",
"#	c #404040",
"................",
"................",
"..++++++++++++@.",
"..++++++++++++@.",
"..++++++++++++@.",
"..++++++++++++@.",
"..++++++++++++@.",
"..++++++++++++@.",
"..++++++++++++@.",
"..++++++++++++@.",
"..++++++++++++@.",
"..++++++++++++@.",
"..++++++++++++@.",
"..++++++++++++@.",
"..@@@@@@@@@@@@#.",
"................"};
