/* XPM */
static const char * TimeShift[] = {
"27 27 4 1",
" 	c None",
".	c #FFFFFF",
"+	c #000000",
"@	c #7F7F7F",
"...........................",
"...........................",
"...........................",
"...........................",
"...........................",
"...........................",
"...........................",
"...........................",
"...........................",
"...........................",
"........+@.......+@........",
".......++@.......++@.......",
"......+++@.......+++@......",
".....++++++++++++++++@.....",
"......+++@.......+++@......",
".......++@.......++@.......",
"........+@.......+@........",
"...........................",
"...........................",
"...........................",
"...........................",
"...........................",
"...........................",
"...........................",
"...........................",
"...........................",
"..........................."};
