/* XPM */
static const char * UpButton[] = {
"48 48 108 2",
"  	c None",
". 	c #CCCCCC",
"+ 	c #CBCBCB",
"@ 	c #CECECE",
"# 	c #D0D0D0",
"$ 	c #D4D4D4",
"% 	c #D5D5D5",
"& 	c #D7D7D7",
"* 	c #D8D8D8",
"= 	c #DADADA",
"- 	c #D9D9D9",
"; 	c #D6D6D6",
"> 	c #D3D3D3",
", 	c #D1D1D1",
"' 	c #CFCFCF",
") 	c #CDCDCD",
"! 	c #DEDEDE",
"~ 	c #E0E0E0",
"{ 	c #E3E3E3",
"] 	c #E4E4E4",
"^ 	c #E2E2E2",
"/ 	c #E1E1E1",
"( 	c #DFDFDF",
"_ 	c #DCDCDC",
": 	c #DBDBDB",
"< 	c #DDDDDD",
"[ 	c #E6E6E6",
"} 	c #E9E9E9",
"| 	c #EBEBEB",
"1 	c #ECECEC",
"2 	c #E5E5E5",
"3 	c #D2D2D2",
"4 	c #CACACA",
"5 	c #E8E8E8",
"6 	c #EDEDED",
"7 	c #EFEFEF",
"8 	c #F0F0F0",
"9 	c #F1F1F1",
"0 	c #EEEEEE",
"a 	c #E7E7E7",
"b 	c #F2F2F2",
"c 	c #F3F3F3",
"d 	c #F4F4F4",
"e 	c #F6F6F6",
"f 	c #F5F5F5",
"g 	c #EAEAEA",
"h 	c #F7F7F7",
"i 	c #C9C9C9",
"j 	c #C8C8C8",
"k 	c #C7C7C7",
"l 	c #C6C6C6",
"m 	c #F8F8F8",
"n 	c #C5C5C5",
"o 	c #C3C3C3",
"p 	c #C4C4C4",
"q 	c #C2C2C2",
"r 	c #C1C1C1",
"s 	c #C0C0C0",
"t 	c #BEBEBE",
"u 	c #BCBCBC",
"v 	c #BDBDBD",
"w 	c #BFBFBF",
"x 	c #BBBBBB",
"y 	c #BABABA",
"z 	c #B6B6B6",
"A 	c #B2B2B2",
"B 	c #B7B7B7",
"C 	c #B1B1B1",
"D 	c #B0B0B0",
"E 	c #AEAEAE",
"F 	c #ACACAC",
"G 	c #ADADAD",
"H 	c #B4B4B4",
"I 	c #AAAAAA",
"J 	c #A9A9A9",
"K 	c #ABABAB",
"L 	c #A6A6A6",
"M 	c #A3A3A3",
"N 	c #A7A7A7",
"O 	c #B3B3B3",
"P 	c #A2A2A2",
"Q 	c #A5A5A5",
"R 	c #A1A1A1",
"S 	c #9F9F9F",
"T 	c #9E9E9E",
"U 	c #9D9D9D",
"V 	c #9B9B9B",
"W 	c #A8A8A8",
"X 	c #9A9A9A",
"Y 	c #B9B9B9",
"Z 	c #979797",
"` 	c #AFAFAF",
" .	c #969696",
"..	c #999999",
"+.	c #949494",
"@.	c #9C9C9C",
"#.	c #929292",
"$.	c #959595",
"%.	c #A4A4A4",
"&.	c #919191",
"*.	c #B8B8B8",
"=.	c #939393",
"-.	c #A0A0A0",
";.	c #8F8F8F",
">.	c #8E8E8E",
",.	c #909090",
"'.	c #8D8D8D",
").	c #B5B5B5",
". . . . . . . . . + + . . @ @ # $ % & * = - - - - * ; > $ , ' @ ) + + + + . . . . . . . . . . . ",
". . . . . . . . . + . @ # > & = ! ~ { ] ] ] ] { ^ / ( _ : & ; > , ' ) . . . . . . . . . . . . . ",
". . . . . . . . . ) # > * < / [ } | 1 1 1 | } } [ 2 { ~ ! _ = & $ 3 # ) . . . 4 + . . . . . . . ",
". . . . . . + . @ 3 ; _ ^ 5 6 7 8 9 9 0 1 1 } 5 [ 2 ^ / ( _ = & ; > 3 # @ . + 4 4 + + . . . . . ",
". . . . + + . # > - ~ a 6 b c d c 8 0 | 5 [ { ^ ~ ~ ! ! < : - & ; > , # @ . . . + 4 + + . . . . ",
". . . + + . # $ : { | 9 d e f b 0 g 2 / ! : - & & & & & & & ; ; $ , # @ . . . + 4 4 4 + . . . . ",
". . . + . # $ _ ] 6 d e h d 8 g { ! * % 3 # @ @ @ @ @ @ ' 3 3 > 3 , ' . 4 i j j 4 4 4 4 + . . . ",
". . . . @ > _ 2 0 f h e c 1 ] _ ; 3 ) 4 j k l l l k i j + . . @ ' ' @ + j l l k j j i 4 4 . . . ",
". . . @ $ : 2 7 e m e b } ~ * , . j l n o p n n n n l l k k i 4 . . . + i l q o p l j i 4 . . . ",
"+ + . 3 - { 6 f h e 8 a ! $ ) j n o q q q q q q q q l l l k j j 4 + . . i l r s s q n j j . . . ",
"+ . # & ~ g d h h 8 a _ , 4 n p q r r r q q q q q p l l k k k j j i 4 4 i k o t u v s p k + . . ",
"+ ) > < a 9 e e 9 a _ , i p q q s s r r q q q q q l n l l l k j j j i i 4 j n w x y x s l j . . ",
". # * ^ 1 d h c g < , j o q r r r r r r r r q q p l p l k k j j j j 4 4 4 i k q y z z x r l + . ",
") $ < 5 9 e c 1 ~ 3 4 p q r r r s s r r r q q q p p l l k k j j j i 4 4 4 4 j p v z A z u o j 4 ",
"' ; / 1 d d 8 2 * . k q r r r r s r s r r r q q q l n l k j j j i 4 4 . 4 + 4 l s B C A z t n i ",
", = [ 7 d b g < # i o r r r r r r r r r r r q q p l l k k j j i 4 4 + + . . + j q y D E D y q j ",
"$ < } 8 b 0 { ; 4 n r r r r r r r r s s r q q q n p l k k j j 4 4 + . . . . . i p u A F G H t l ",
"$ / | 8 8 g < 3 j q q r s r r r r r r r r r q q o l k k j i 4 + + + . . . . . + k s H I J D y p ",
"* { 1 8 0 2 * ) l q r r r r r r s r r r r r q q l l k k j 4 4 + . . . . . ) ) . i q z K L I z o ",
"* ] 1 0 | / % i n r r r s s r s r r r r r r r q p l k j i 4 4 + . . . . ) ) ) . 4 p B K M N O r ",
"- ] | 1 5 ! , j p q q r r r r r r r r r r q q q l l j i 4 + . . ) ) ) @ @ @ @ @ . n y F P Q E t ",
"= ] g 1 2 : @ k n q q r q q r r r r r r r r q n l k j 4 + . ) ) ) @ @ @ ' @ ' @ + k y F P R K t ",
"* ] g } { * @ k p q q q q q q q q r r r q q p n k j 4 . . ) ) @ @ ' # # # # # # . l x F S T J y ",
"* ^ a a / * @ l n q q q q q r q q q q q q p n l j 4 . . ' ' ' ' # # ' , , # , # ) l v K S T J y ",
"* ^ [ 2 / * @ l n q q p o q q n q o p p p n l i + . ) # # , # , # # , , # , , # @ l x I U V L y ",
"* / ] ] ( ; @ l n q o l p o p n o p n l l k j 4 . ' # , , , , , , , , , , , , # @ l y W V V N y ",
"% ! { ^ ( ; @ j l p l p p l n l l l k k j j 4 . @ # , 3 3 3 3 3 3 3 3 3 , 3 3 , @ p B L X V L Y ",
"$ ! / ~ < ; @ i l n n n l l l l k k k j i 4 . ) # # 3 > 3 > > > 3 3 3 3 3 3 , # . o H P Z X N y ",
"> = ! ! _ ; ' 4 k l l l l k l k k j j i 4 . . # # 3 3 3 > > > > > > 3 3 > 3 3 # 4 s ` T  .X I x ",
"# * _ _ = & # . j k l k k k k j j i 4 4 . . ) # , , > > $ $ $ > > $ > > 3 3 3 @ j u J ..+.@.F u ",
"' ; * - - ; 3 . j j k j k j j j i 4 4 + . ) @ , , 3 > > > $ $ $ $ $ $ > $ > 3 . p z P  .+.S D w ",
"@ > ; * & ; > ) 4 i k j k j j i i + 4 . . ) ' # , , 3 > > $ $ $ $ > > $ > 3 # 4 w E V #.$.M H r ",
". , $ ; ; $ 3 ' . j j j j i 4 4 4 + . . ) @ @ , , 3 3 > $ $ $ $ $ $ $ $ 3 3 ) p z %. .&...J *.p ",
"+ # 3 > > 3 , ' . i i j j i 4 4 4 . . . ) @ # # , , 3 > > > > $ $ $ $ > , # j v G @.&.=.S D t l ",
"+ ) @ , # ' ) ) . + 4 4 j 4 4 4 + . . ) @ @ # # , 3 3 3 > > > > $ $ $ 3 # + r O -.=.;.Z L z s k ",
"+ . ) # # @ . + + 4 4 4 i 4 + . . . ) ) @ ' ' , , 3 3 3 > $ > $ $ $ 3 # . o B Q  .>.#.S ` v n 4 ",
"+ . . ) @ . 4 i i 4 4 4 4 + . . . . ) ) @ @ , # # , , 3 > > > $ 3 , # . p *.J ..;.;.X W B s k 4 ",
"+ 4 . . ) . i k l l k j i 4 4 4 . . ) @ @ # # # , 3 3 3 3 > > 3 , ' + p Y K V &.>. .M A t p 4 + ",
"+ + + . + + i l o q p n k j 4 + . . ) @ @ # ' , , 3 3 3 , 3 3 # . j r B W V ,.'.#.-.E y o j + + ",
"+ + + . + 4 4 k o s w s q n k i 4 . . . ) @ # # # # # , # ' ) 4 l v O L X &.>.#.S F *.q k 4 + + ",
"+ + + 4 + + 4 j p s v x u t s o n k i 4 + . . . . . . ) 4 j p w z K P  .;.;.=.S F *.r k i 4 j j ",
". . + + 4 4 4 j k o t Y z z *.x t s q o p l l l l l l p s u z G Q V +.>.,. .-.F *.s n j j j i i ",
". . . + + 4 4 4 j l q u z H A A O ).z Y x u v v v x *.H D I M U  .#.,.#.X M E Y s n i j j 4 . + ",
". . . . . + 4 4 i j n s x ).A E G F F G G E G G F I N M T X $.=.&.#.Z S W A y r l i j j i . . . ",
". . . . . . + 4 4 4 j l q t Y A E I L Q %.P -.S U @...Z  .$.+. ...-.N ` *.t p k j j j j 4 . . . ",
". . . . . . . . . + i j l q t y ).C F W L M -.T U @.X V V T S %.I D z u q p k j j j 4 + . . . . ",
". . . . . . . . . . 4 4 j k l q w x z O E F I W W N W W I F D z Y t r n k j j j i + . . . . . . ",
". . . . . . . . . . + 4 4 4 i j k n o q s t u y y y y x u v w r p l k j j j j j 4 . . . . . . . "};
