/* XPM */
static const char * Envelope[] = {
"27 27 5 1",
" 	c None",
".	c #FFFFFF",
"+	c #6A6DDE",
"@	c #FFFFFF",
"#	c #1C1C1C",
"...........................",
"...........................",
"...........................",
"........#########..........",
"........#@@@@@@@#..........",
".........#@@@@@#...........",
"..........#@@@#............",
"...........#@#.............",
"............#...........+..",
".....................++++..",
"............++....+++++++..",
"...........+..+++++++++....",
".+++++++++++..+++++++......",
".+++++++++++++++++.........",
".+++++++++++++++...........",
"...........................",
"...........................",
"............#..............",
"...........#@#.............",
"..........#@@@#............",
".........#@@@@@#...........",
"........#@@@@@@@#..........",
"........#########..........",
"...........................",
"...........................",
"...........................",
"..........................."};





















