/* XPM */
static const char *power_on_16x16_xpm[] = {
"16 16 4 1",
" 	c None",
"a c #00FF00",
"b	c #000000",
"c c #707070",
"    aa  a   a   ",
"   a  a aa  a   ",
"   a  a a a a   ",
"   a  a a  aa   ",
"    aa  a   a   ",
"                ",
"                ",
"          bb    ",
"      cccbbb    ",
"     cccbbb     ",
"     ccbbbc     ",
"     cbbbcc     ",
"     bbbccc     ",
"    bbbccc      ",
"    bb          ",
"                "};
