/* XPM */
static const char *power_off_16x16_xpm[] = {
"16 16 4 1",
" 	c None",
"a c #FF0000",
"b	c #000000",
"c c #707070",
"  aa  aaaa aaaa ",
" a  a a    a    ",
" a  a aaa  aaa  ",
" a  a a    a    ",
"  aa  a    a    ",
"                ",
"                ",
"    bb          ",
"    bbbccc      ",
"     bbbccc     ",
"     cbbbcc     ",
"     ccbbbc     ",
"     cccbbb     ",
"      cccbbb    ",
"          bb    ",
"                "};
