/* XPM */
static const char *settings_up_16x16_xpm[] = {
"16 16 3 1",
" 	c None",
".	c #020202",
"+	c #010101",
"          .+.   ",
"          +++   ",
"          +++   ",
"......... +++ ..",
"          +++   ",
"   .+.    .+.   ",
"   +++          ",
".. +++ .........",
".. +++ .........",
"   +++          ",
"   .+.    .+.   ",
"          +++   ",
"          +++   ",
"......... +++ ..",
"          +++   ",
"          .+.   "};
