/* XPM */
static const char *document_save_as_large[] = {
/* columns rows colors chars-per-pixel */
"32 32 83 1",
"  c black",
". c #535353",
"X c #5B5B5B",
"o c #4D5766",
"O c #656565",
"+ c DimGray",
"@ c #7D7D7D",
"# c #1F4A87",
"$ c #1F4C8A",
"% c #284E83",
"& c #214C89",
"* c #2C558E",
"= c #325A92",
"- c #395E94",
"; c #3C6093",
": c #3B6298",
"> c #3364A4",
", c #3969A7",
"< c #3D6CA9",
"1 c #42679A",
"2 c #426A9E",
"3 c #486A9B",
"4 c #58769F",
"5 c #466DA1",
"6 c #416FAA",
"7 c #4C71A4",
"8 c #4370AB",
"9 c #4A76AE",
"0 c #5377A7",
"q c #5A78A3",
"w c #557AAC",
"e c #5A7CAB",
"r c #4E79B0",
"t c #5B80AF",
"y c #5B82B5",
"u c #5F85B8",
"i c #6C87AC",
"p c #6F89AD",
"a c #6284B2",
"s c #6A8BB6",
"d c #6187B8",
"f c #6489BA",
"g c #6A8EBD",
"h c #6E91BF",
"j c #7E93B1",
"k c #7293BF",
"l c #7596C2",
"z c #7C9BC3",
"x c #818181",
"c c gray58",
"v c #9E9E9E",
"b c #869BB9",
"n c #A7A7A7",
"m c #ACACAC",
"M c #A2ABB8",
"N c #AEB4BD",
"B c #B1B1B1",
"V c #B0B5BB",
"C c #BCBCBC",
"Z c #809FC6",
"A c #84A1C7",
"S c #84A2C8",
"D c #8AA6CB",
"F c #8DA9CC",
"G c #9CADC3",
"H c #92ACCE",
"J c #96AFD0",
"K c #97B0D0",
"L c #99B2D1",
"P c #A2B0C2",
"I c #AFBCCE",
"U c #BABFC6",
"Y c #BBC3CE",
"T c #C4C4C5",
"R c #CCCCCC",
"E c #CBCED2",
"W c #D4D4D4",
"Q c #DBDCDC",
"! c #E4E4E4",
"~ c #EAEAEA",
"^ c #F2F2F2",
"/ c #FDFDFD",
"( c None",
/* pixels */
"((((((((((((((((((((((((((((((((",
"(((((((((&&&&&((((((((((((((((((",
"(((((((&*tkDAs-$((((((((((((((((",
"((((((#0DFHHJLKs&(((((((((((((((",
"(((((#ee15aFJFDJz&((((((((((((((",
"(((((=*&(($=AFAAFs&(((((((((((((",
"((((&&((((((=FzzzH=(((((((((((((",
"((((#((((((($gAllAy&((((((((((((",
"((((((.XXXXXo1Dkklz%XXXXX.((((((",
"(((((.B/////^=DgggD*^^^^^c((((((",
"(((((.^I####&&DfddK&&&&#iQ.(((((",
"(((((c/!G-zASDFuyyHLLLa3Q~x(((((",
"((((.!~!!b:zfyyyyr8,hs=EW!T.((((",
"((((O/!!!!i2zy96>>>yk*YQQQ~X((((",
"(((.C~!!!!Qq,g,>>>rZ*PQQQW!v((((",
"(((.^!!!!!QQ35k,>6Z:jQWQQQQQ.(((",
"(((c^Q~QQQQWE-wk<z74RWWWWQW!@(((",
"((.Q~Q!!WWWWWU*tDe-TRRRWWQWWC.((",
"((+^QQWQQQWWRRN*7*VTTRRQQRWW!O((",
"((B~QQQWQ!QWRRRM&MTRWWQWRWWWQv((",
"(.~Bx@@x@@@@@@@@@@x@@@@@@@@xmW.(",
"(.^@WQQQQQQQQ!QQQQQQQQQQQQQW@~.(",
"(.^@!nnnnnnnnnn! !!!~!!!~!!!@W.(",
"(.~@^mmmmmmmnmm^ ^^^^^^^^^^^@C.(",
"(.~@/BBmmBBmBBB/ ///////////@C.(",
"(.~@/BBBBBBBBBm/ ///////////@B.(",
"(.~@^//////////////////////^xB.(",
"(.!vx@@@@@@@@@@@@@@@@@@@@@@xcm.(",
"(.T!QQQQQWWWWRRRRTTTCCCCCBBBmc.(",
"((............................((",
"((((((((((((((((((((((((((((((((",
"(((((((((((((((((((((((((((((((("
};
