/* XPM */
static const char *edit_cut_large[] = {
/* columns rows colors chars-per-pixel */
"32 32 220 2",
"   c #930202",
".  c #950202",
"X  c #900404",
"o  c #930404",
"O  c #9A0C00",
"+  c #9B0C02",
"@  c #9D0C01",
"#  c #9D0D01",
"$  c #9E0E02",
"%  c #9E0E03",
"&  c #9F0F03",
"*  c #9D1207",
"=  c #9D160A",
"-  c #9A1910",
";  c #A50101",
":  c #A60101",
">  c #A50201",
",  c #A50202",
"<  c #A60202",
"1  c #A70202",
"2  c #A70302",
"3  c #A60303",
"4  c #A70303",
"5  c #A60404",
"6  c #A60505",
"7  c #A70505",
"8  c #A70704",
"9  c #A70606",
"0  c #A80303",
"q  c #A80404",
"w  c #A90404",
"e  c #A90505",
"r  c #AA0505",
"t  c #AB0505",
"y  c #A90705",
"u  c #A90606",
"i  c #AA0606",
"p  c #AB0606",
"a  c #AB0707",
"s  c #AC0707",
"d  c #A00B02",
"f  c #A10C03",
"g  c #AE0808",
"h  c #B00A0A",
"j  c #B20C0C",
"k  c #B30D0D",
"l  c #B40D0D",
"z  c #B50D0D",
"x  c #B50E0E",
"c  c #B50F0F",
"v  c #AC150C",
"b  c #AD170F",
"n  c #B3160E",
"m  c #B91111",
"M  c #BA1212",
"N  c #BB1212",
"B  c #BB1313",
"V  c #BC1313",
"C  c #BD1313",
"Z  c #BB1414",
"A  c #B51910",
"S  c #BE1B15",
"D  c #BF1C17",
"F  c #A4251B",
"G  c #C01818",
"H  c #C11818",
"J  c #C21919",
"K  c #C31919",
"L  c #C11D18",
"P  c #CC1D1D",
"I  c #C8221E",
"U  c #CD2121",
"Y  c #CF2323",
"T  c #CE2522",
"R  c #CF2523",
"E  c #D12020",
"W  c #D22424",
"Q  c #D22525",
"!  c #D52626",
"~  c #D72727",
"^  c #D82727",
"/  c #D52828",
"(  c #D62828",
")  c #D72828",
"_  c #D72929",
"`  c #D32D29",
"'  c #DA2828",
"]  c #DA2A28",
"[  c #D92B2B",
"{  c #DB2C2C",
"}  c #DC2D2D",
"|  c #DD2D2D",
" . c #DC2E2E",
".. c #DD2F2F",
"X. c #DE2E2E",
"o. c #DE3030",
"O. c #DF3030",
"+. c #E02F2F",
"@. c #E03030",
"#. c #E03131",
"$. c #E13131",
"%. c #E13232",
"&. c #E23333",
"*. c #E33333",
"=. c #E43333",
"-. c #E53333",
";. c #E33434",
":. c #E53535",
">. c #E53636",
",. c #E93838",
"<. c #EC3B3B",
"1. c #EC3C3C",
"2. c #ED3C3C",
"3. c #ED3D3D",
"4. c #F13F3F",
"5. c #AD4F46",
"6. c #B25F5D",
"7. c #92655E",
"8. c #916963",
"9. c #D34343",
"0. c #F24141",
"q. c #F34141",
"w. c #F44242",
"e. c #F44343",
"r. c #888A85",
"t. c #8B8C88",
"y. c #8B8D88",
"u. c #8B8D89",
"i. c #8B8E89",
"p. c #8C8D89",
"a. c #8C8E88",
"s. c #8C8E89",
"d. c #8D8F89",
"f. c #8C8E8A",
"g. c #8D8F8A",
"h. c #8D8F8B",
"j. c #8E8F8B",
"k. c #958681",
"l. c #8D908A",
"z. c #8E908B",
"x. c #8E918B",
"c. c #8F918B",
"v. c #8E908C",
"b. c #8F908C",
"n. c #8E918C",
"m. c #8F918C",
"M. c #90928D",
"N. c #91938E",
"B. c #939590",
"V. c #949591",
"C. c #949691",
"Z. c #949692",
"A. c #959893",
"S. c #969994",
"D. c #9A9C98",
"F. c #9B9C98",
"G. c #9B9D99",
"H. c #9D9F9A",
"J. c #9D9F9B",
"K. c #9FA09C",
"L. c #A1A39F",
"P. c #A8A49F",
"I. c #A4A6A1",
"U. c #A9AAA7",
"Y. c #AAACA7",
"T. c #AEAFAC",
"R. c #B7ADAA",
"E. c #B1B0AD",
"W. c #B0B1AD",
"Q. c #B5B7B4",
"!. c #B6B7B4",
"~. c #B7B8B5",
"^. c #B8B9B7",
"/. c #B9BAB7",
"(. c #C0C0BE",
"). c #C1C2BF",
"_. c #C2C3C0",
"`. c #C3C4C2",
"'. c #C5C6C2",
"]. c #C6C6C3",
"[. c #C7C8C6",
"{. c #CACAC9",
"}. c #CACBC9",
"|. c #CBCBC9",
" X c #CFCFCE",
".X c #D2D2D0",
"XX c #D3D4D1",
"oX c #D7D7D5",
"OX c #D8D8D8",
"+X c #DBDBD8",
"@X c #DADADA",
"#X c #DBDBDA",
"$X c gray86",
"%X c gainsboro",
"&X c #DDDDDC",
"*X c #DDDDDD",
"=X c #DDDEDC",
"-X c #DEDEDD",
";X c gray87",
":X c #DFDFDE",
">X c #DFDFDF",
",X c #E0E0DF",
"<X c gray88",
"1X c #E1E1E1",
"2X c #E1E2E1",
"3X c #E2E2E0",
"4X c #E2E2E2",
"5X c #E3E3E2",
"6X c gray89",
"7X c #E3E4E2",
"8X c #E4E4E2",
"9X c #E4E4E3",
"0X c #E5E5E3",
"qX c #E4E4E4",
"wX c #E5E5E4",
"eX c gray90",
"rX c #E6E6E5",
"tX c #E6E6E6",
"yX c #E7E7E6",
"uX c None",
/* pixels */
"uXuXuXuXuXuXuXv.r.uXuXuXuXuXuXuXuXuXuXuXuXuXj.r.uXuXuXuXuXuXuXuX",
"uXuXuXuXuXuXuXi.K.j.uXuXuXuXuXuXuXuXuXuXuXuXj.H.uXuXuXuXuXuXuXuX",
"uXuXuXuXuXuXj._.9Xj.uXuXuXuXuXuXuXuXuXuXuXj.[.2Xv.uXuXuXuXuXuXuX",
"uXuXuXuXuXuXB.yXqX].v.uXuXuXuXuXuXuXuXuXuXF.yX2X'.v.uXuXuXuXuXuX",
"uXuXuXuXuXuXT.9X2XyXS.uXuXuXuXuXuXuXuXuXj.%X<X<X%Xj.uXuXuXuXuXuX",
"uXuXuXuXuXuXi.7X2X<X+Xp.uXuXuXuXuXuXuXv.!.2X<X2XU.j.uXuXuXuXuXuX",
"uXuXuXuXuXuXi.U.yX>X2XW.j.uXuXuXuXuXuXM.9X>X>XoXj.uXuXuXuXuXuXuX",
"uXuXuXuXuXuXuXj.oX2X,XyXl.uXuXuXuXuXj..X:X>X9XV.uXuXuXuXuXuXuXuX",
"uXuXuXuXuXuXuXuXV.yX>X>X|.l.uXuXuXuXI.2X>X:X).l.uXuXuXuXuXuXuXuX",
"uXuXuXuXuXuXuXuXj.).>X>X9XF.uXuXuXj.2X@X@X2Xi.uXuXuXuXuXuXuXuXuX",
"uXuXuXuXuXuXuXuXuXj.9X>X>X%Xj.uXM._.>X@X6XI.uXuXuXuXuXuXuXuXuXuX",
"uXuXuXuXuXuXuXuXuXa.U.2X@X>XQ.j.V.6X@X>XXXj.uXuXuXuXuXuXuXuXuXuX",
"uXuXuXuXuXuXuXuXuXuXl.oX%X#XyXl.|.@X@XyXN.uXuXuXuXuXuXuXuXuXuXuX",
"uXuXuXuXuXuXuXuXuXuXuXV.yX@X@X XH.OX>X^.l.uXuXuXuXuXuXuXuXuXuXuX",
"uXuXuXuXuXuXuXuXuXuXuXv._.>XQ.>XI.^.2Xi.uXuXuXuXuXuXuXuXuXuXuXuX",
"uXuXuXuXuXuXuXuXuXuXuXuXj.yXD.[.>XM.H.uXuXuXuXuXuXuXuXuXuXuXuXuX",
"uXuXuXuXuXuXuXuXuXuXuXuX7.I.6X@X@XR.8.uXuXuXuXuXuXuXuXuXuXuXuXuX",
"uXuXuXuXuXuXuXuXuXuXuXuX= k.W.5.F * O - uXuXuXuXuXuXuXuXuXuXuXuX",
"uXuXuXuXuXuXuXuXuXuXuX@ W 9.6.O S ] ] @ uXuXuXuXuXuXuXuXuXuXuXuX",
"uXuXuXuXuXuXuXuXr , , e ~ +.b O @ E ~ D f , r r uXuXuXuXuXuXuXuX",
"uXuXuXuXuXuX, C ) -.-.U r n @ uX@ A P ^ v 0.0.*.H , uXuXuXuXuXuX",
"uXuXuXuXuXr / Q x , r X.Q r uXuXuX& L P T s r C X.*.r uXuXuXuXuX",
"uXuXuXuX0  .M , uXuXuXk ,., uXuXuXuXd I g uXuXuX, H :.r uXuXuXuX",
"uXuXuX, ] M 0 uXuXuXuXr 2., uXuXuXuX, ` 0 uXuXuXuX0 G *.0 uXuXuX",
"uXuXuXM ] , uXuXuXuXuXM O.r uXuXuXuXr O.x uXuXuXuXuX0 *.H uXuXuX",
"uXuX0 ~ Z uXuXuXuXuX0 O.H uXuXuXuXuXuXH ~ 0 uXuXuXuXuXH *.r uXuX",
"uXuX, *.h uXuXuXuXr H :.5 uXuXuXuXuXuX3 ] M 3 uXuXuXuXx 0., uXuX",
"uXuX0 -.C uXuXuX3 H 3.g uXuXuXuXuXuXuXuXr O.Z , uXuXuXH e.0 uXuX",
"uXuXr Y *.r 3 c O.:.u o uXuXuXuXuXuXuXuXX r X./ k 3 u 3.X.r uXuX",
"uXuXuX0 Y <.4.;.H 3 uXuXuXuXuXuXuXuXuXuXuXuX, H *.0.e.] r uXuXuX",
"uXuXuXuX5 3 3 5 . uXuXuXuXuXuXuXuXuXuXuXuXuXuX  5 5 r 5 uXuXuXuX",
"uXuXuXuXuXuXuXuXuXuXuXuXuXuXuXuXuXuXuXuXuXuXuXuXuXuXuXuXuXuXuXuX"
};
