/* XPM */
static const char * Zoom[] = {
"27 27 6 1",
" 	c None",
".	c #FFFFFF",
"+	c #1C1C1C",
"@	c #AEAEAE",
"#	c #F7F7F7",
"$	c #CFCECC",
"...........................",
"...........................",
"...........................",
"...........................",
"...........................",
"...........................",
"..............++++.........",
"............@+#..$+@.......",
"............+..@@..+@......",
"...........+#.@....#+......",
"...........+.@......+@.....",
"...........+........+@.....",
"...........+#......#+@.....",
"............+......+@@.....",
"...........+++#..#+@@......",
"..........+++@++++@@.......",
".........+++@@.@@@@........",
"........+++@@..............",
".......+++@@...............",
"......+++@@................",
"......@+@@.................",
".......@@..................",
"...........................",
"...........................",
"...........................",
"...........................",
"..........................."};
