/* XPM */
static char * audacity16_xpm[] = {
"16 16 115 2",
"  	c None",
". 	c #0000A3",
"+ 	c #00007B",
"@ 	c #000068",
"# 	c #000075",
"$ 	c #000090",
"% 	c #00009F",
"& 	c #171769",
"* 	c #000091",
"= 	c #57579C",
"- 	c #00009D",
"; 	c #0E0E9E",
"> 	c #00005F",
", 	c #000063",
"' 	c #00007D",
") 	c #000039",
"! 	c #F4D715",
"~ 	c #F5D514",
"{ 	c #F3E217",
"] 	c #F4DE17",
"^ 	c #1313B2",
"/ 	c #2F2FC9",
"( 	c #00001F",
"_ 	c #0000A0",
": 	c #F3DE16",
"< 	c #F7C10F",
"[ 	c #F6C911",
"} 	c #F6CE12",
"| 	c #F5D313",
"1 	c #F4D213",
"2 	c #0202A5",
"3 	c #0606C7",
"4 	c #0606A5",
"5 	c #1212CE",
"6 	c #2626C7",
"7 	c #00001E",
"8 	c #0E0D9B",
"9 	c #F4D113",
"0 	c #F5D213",
"a 	c #FAA80B",
"b 	c #F8BA0E",
"c 	c #F9AF0C",
"d 	c #F7BB0E",
"e 	c #F6C711",
"f 	c #F5D414",
"g 	c #222092",
"h 	c #0000C9",
"i 	c #0000BF",
"j 	c #0606CD",
"k 	c #0000BD",
"l 	c #01011F",
"m 	c #4D487A",
"n 	c #F7BF0F",
"o 	c #F7BC0F",
"p 	c #FC6906",
"q 	c #F9A20C",
"r 	c #FB7109",
"s 	c #FB6D09",
"t 	c #FA8B0A",
"u 	c #F8AF0D",
"v 	c #49457B",
"w 	c #0000C8",
"x 	c #0000C2",
"y 	c #000048",
"z 	c #0000CB",
"A 	c #0000BE",
"B 	c #010125",
"C 	c #524077",
"D 	c #FC5406",
"E 	c #FC3506",
"F 	c #FE1603",
"G 	c #FD3606",
"H 	c #FE1003",
"I 	c #FF0A02",
"J 	c #FF0D02",
"K 	c #FE1C04",
"L 	c #514276",
"M 	c #00002A",
"N 	c #0000C3",
"O 	c #0000BB",
"P 	c #01012B",
"Q 	c #513F78",
"R 	c #FE1E03",
"S 	c #FC4F06",
"T 	c #FC6A08",
"U 	c #FE2904",
"V 	c #FE2E03",
"W 	c #FD3705",
"X 	c #FD5D06",
"Y 	c #FC5806",
"Z 	c #524575",
"` 	c #0000C5",
" .	c #0000A1",
"..	c #000089",
"+.	c #494579",
"@.	c #F9AB0C",
"#.	c #F7C210",
"$.	c #F7C00F",
"%.	c #FB800A",
"&.	c #FAA20B",
"*.	c #F8B60E",
"=.	c #F9AA0C",
"-.	c #45407A",
";.	c #0000A9",
">.	c #00003F",
",.	c #01010E",
"'.	c #F4DF17",
").	c #F3E116",
"!.	c #F4DE16",
"~.	c #F6D112",
"{.	c #F4E216",
"].	c #F3E717",
"^.	c #000027",
"/.	c #F4E518",
"(.	c #F5E718",
"                                ",
"          . + @ # $ %           ",
"        &             *         ",
"      =                 -       ",
"    ;                     >     ",
"    ,                     '     ",
"    )       ! ~ { ]       ^     ",
"  / ( _   : < [ } | 1   2 3 4   ",
"5 6 7 8 9 0 a b c d e f g h i   ",
"j k l m n o p q r s t u v w x y ",
"z A B C D E F G H I J K L w k M ",
"N O P Q R S T U V W X Y Z `  .  ",
"  ..P +.@.#.$.%.&.*.=.~ -.;.>.  ",
"    ,.  '.).!.< ~.{.e ].  ^.    ",
"              /.(.              ",
"                                "};
