<svg width="2513" height="1200" viewBox="0 0 2513 1200" fill="none" xmlns="http://www.w3.org/2000/svg">
<path d="M1081.27 538.282C1063.82 538.282 1049.83 532.685 1039.29 521.491C1029.09 509.968 1023.98 493.013 1023.98 470.626V433.094C1023.98 411.694 1029.75 395.562 1041.27 384.697C1052.79 373.833 1067.44 368.401 1085.22 368.401H1087.2C1096.74 368.401 1105.3 370.211 1112.88 373.833C1120.78 377.454 1126.54 382.393 1130.16 388.648V336.301C1130.16 316.547 1122.59 306.671 1107.44 306.671H1105.47C1097.9 306.671 1092.13 309.304 1088.18 314.572C1084.56 319.84 1082.75 327.083 1082.75 336.301V348.153H1026.95V327.906C1026.95 307.494 1033.53 291.032 1046.7 278.522C1060.2 265.682 1079.29 259.262 1103.99 259.262H1108.92C1135.59 259.262 1155.18 265.353 1167.69 277.534C1180.2 289.386 1186.46 307.329 1186.46 331.363V535.812H1133.12V511.12C1120.94 529.228 1104.64 538.282 1084.23 538.282H1081.27ZM1078.31 464.206C1078.31 473.095 1080.45 480.338 1084.73 485.935C1089.01 491.202 1095.1 493.836 1103 493.836H1105.47C1113.37 493.836 1119.46 491.202 1123.74 485.935C1128.02 480.338 1130.16 473.095 1130.16 464.206V439.514C1130.16 430.624 1128.02 423.546 1123.74 418.278C1119.46 412.682 1113.37 409.883 1105.47 409.883H1103C1094.77 409.883 1088.51 412.517 1084.23 417.785C1080.28 423.052 1078.31 430.295 1078.31 439.514V464.206Z" fill="#FF3254"/>
<path d="M1287.29 540.751C1259.64 540.751 1239.23 533.837 1226.06 520.01C1212.89 506.182 1206.3 485.276 1206.3 457.292V264.2H1262.6V459.267C1262.6 469.144 1264.74 477.045 1269.02 482.972C1273.3 488.568 1279.56 491.367 1287.79 491.367H1290.75C1298.98 491.367 1305.24 488.568 1309.52 482.972C1313.8 477.045 1315.94 469.144 1315.94 459.267V264.2H1372.23V457.292C1372.23 485.276 1365.65 506.182 1352.48 520.01C1339.31 533.837 1318.9 540.751 1291.24 540.751H1287.29Z" fill="#FF3254"/>
<path d="M1453.21 540.751C1434.45 540.751 1419.3 534.66 1407.78 522.479C1396.59 509.968 1390.99 491.367 1390.99 466.675V333.338C1390.99 308.646 1396.59 290.209 1407.78 278.028C1419.3 265.517 1434.45 259.262 1453.21 259.262H1455.68C1465.89 259.262 1474.94 261.896 1482.84 267.163C1490.74 272.102 1496.67 278.686 1500.62 286.917V200.001H1556.92V535.812H1501.61V515.071C1496.34 522.973 1489.76 529.228 1481.86 533.837C1474.28 538.446 1465.56 540.751 1455.68 540.751H1453.21ZM1447.29 459.267C1447.29 469.144 1449.43 477.045 1453.71 482.972C1457.99 488.568 1464.24 491.367 1472.47 491.367H1474.94C1483.17 491.367 1489.43 488.568 1493.71 482.972C1497.99 477.045 1500.13 469.144 1500.13 459.267V340.746C1500.13 330.869 1497.99 323.132 1493.71 317.535C1489.43 311.609 1483.17 308.646 1474.94 308.646H1472.47C1464.24 308.646 1457.99 311.609 1453.71 317.535C1449.43 323.132 1447.29 330.869 1447.29 340.746V459.267Z" fill="#FF3254"/>
<path d="M1633.95 538.282C1616.5 538.282 1602.51 532.685 1591.97 521.491C1581.76 509.968 1576.66 493.013 1576.66 470.626V433.094C1576.66 411.694 1582.42 395.562 1593.95 384.697C1605.47 373.833 1620.12 368.401 1637.9 368.401H1639.87C1649.42 368.401 1657.98 370.211 1665.55 373.833C1673.45 377.454 1679.21 382.393 1682.84 388.648V336.301C1682.84 316.547 1675.26 306.671 1660.12 306.671H1658.14C1650.57 306.671 1644.81 309.304 1640.86 314.572C1637.24 319.84 1635.43 327.083 1635.43 336.301V348.153H1579.62V327.906C1579.62 307.494 1586.21 291.032 1599.38 278.522C1612.88 265.682 1631.97 259.262 1656.66 259.262H1661.6C1688.27 259.262 1707.86 265.353 1720.37 277.534C1732.88 289.386 1739.13 307.329 1739.13 331.363V535.812H1685.8V511.12C1673.62 529.228 1657.32 538.282 1636.91 538.282H1633.95ZM1630.98 464.206C1630.98 473.095 1633.12 480.338 1637.4 485.935C1641.68 491.202 1647.77 493.836 1655.68 493.836H1658.14C1666.05 493.836 1672.14 491.202 1676.42 485.935C1680.7 480.338 1682.84 473.095 1682.84 464.206V439.514C1682.84 430.624 1680.7 423.546 1676.42 418.278C1672.14 412.682 1666.05 409.883 1658.14 409.883H1655.68C1647.44 409.883 1641.19 412.517 1636.91 417.785C1632.96 423.052 1630.98 430.295 1630.98 439.514V464.206Z" fill="#FF3254"/>
<path d="M1839.97 540.751C1812.97 540.751 1792.56 533.672 1778.73 519.516C1764.91 505.359 1757.99 485.112 1757.99 458.773V341.239C1757.99 314.901 1764.91 294.654 1778.73 280.497C1792.56 266.34 1812.97 259.262 1839.97 259.262H1843.43C1895.12 259.262 1920.96 286.588 1920.96 341.239V352.598H1866.14V340.746C1866.14 330.54 1864 322.638 1859.72 317.041C1855.77 311.444 1849.68 308.646 1841.45 308.646H1839.48C1831.25 308.646 1824.99 311.609 1820.71 317.535C1816.43 323.132 1814.29 330.869 1814.29 340.746V459.267C1814.29 469.144 1816.43 477.045 1820.71 482.972C1824.99 488.568 1831.25 491.367 1839.48 491.367H1841.45C1849.68 491.367 1855.77 488.568 1859.72 482.972C1864 477.045 1866.14 469.144 1866.14 459.267V447.909H1920.96V458.773C1920.96 513.425 1895.12 540.751 1843.43 540.751H1839.97Z" fill="#FF3254"/>
<path d="M1941.81 264.2H1998.1V535.812H1941.81V264.2ZM1937.36 221.73C1937.36 212.183 1940.32 204.446 1946.25 198.52C1952.51 192.264 1960.41 189.137 1969.95 189.137C1979.5 189.137 1987.24 192.264 1993.16 198.52C1999.42 204.446 2002.55 212.183 2002.55 221.73C2002.55 231.278 1999.42 239.179 1993.16 245.434C1987.24 251.361 1979.5 254.324 1969.95 254.324C1960.41 254.324 1952.51 251.361 1946.25 245.434C1940.32 239.179 1937.36 231.278 1937.36 221.73Z" fill="#FF3254"/>
<path d="M2108.28 535.812C2084.25 535.812 2066.64 530.545 2055.44 520.01C2044.58 509.145 2039.15 490.708 2039.15 464.699V311.609H2014.45V264.2H2039.15V215.804H2095.44V264.2H2132.48V311.609H2095.44V461.243C2095.44 470.79 2097.09 477.539 2100.38 481.49C2103.67 485.111 2109.44 486.922 2117.67 486.922H2132.48V535.812H2108.28Z" fill="#FF3254"/>
<path d="M2228.71 600.999C2204.35 600.999 2185.58 596.225 2172.41 586.678C2159.57 577.13 2152.33 563.961 2150.68 547.171L2150.19 541.738H2204.02L2204.51 544.702C2206.49 556.554 2214.55 562.48 2228.71 562.48H2230.19C2247.31 562.48 2255.87 551.944 2255.87 530.874V503.713C2246.32 518.199 2232.17 525.442 2213.4 525.442H2210.44C2190.36 525.442 2174.72 519.68 2163.52 508.157C2152.33 496.634 2146.73 479.35 2146.73 456.304V264.2H2203.03V450.872C2203.03 460.749 2205.17 468.486 2209.45 474.082C2214.06 479.679 2220.32 482.478 2228.22 482.478H2230.69C2238.59 482.478 2244.68 479.679 2248.96 474.082C2253.57 468.486 2255.87 460.749 2255.87 450.872V264.2H2312.17V520.01C2312.17 547.006 2305.09 567.254 2290.93 580.752C2277.11 594.25 2257.35 600.999 2231.67 600.999H2228.71Z" fill="#FF3254"/>
<path d="M943.242 778.034C943.242 867.393 869.407 939.833 778.326 939.833C687.246 939.833 613.411 867.393 613.411 778.034C613.411 688.674 687.246 616.234 778.326 616.234C869.407 616.234 943.242 688.674 943.242 778.034Z" fill="#FF3254"/>
<path d="M582.852 227.16C433.441 227.16 312.32 349.909 312.32 501.326C312.32 523.546 314.932 552.8 319.856 573.488H331.446C329.339 560.697 328.233 539.856 328.233 526.378C328.234 407.625 413.732 311.356 519.198 311.356C624.664 311.356 710.161 407.625 710.162 526.378C710.162 537.664 709.388 560.224 707.9 571.04H847.266C851.272 552.271 853.385 521.309 853.385 501.326C853.385 349.909 732.263 227.16 582.852 227.16Z" fill="#FF3254"/>
<path d="M218.945 778.034C218.945 868.572 291.175 941.968 380.276 941.968V614.099C291.175 614.099 218.945 687.495 218.945 778.034Z" fill="#FF3254"/>
<path d="M526.939 583.881L583.302 778.034L526.939 971.24L473.897 778.034L526.939 583.881Z" fill="#FF3254"/>
<path d="M447.193 674.024L477.125 778.034L447.193 883.452L410.8 778.034L447.193 674.024Z" fill="#FF3254"/>
</svg>
