/* XPM */
static const char  * acoustic_piano_pno_xpm[] = {
"48 48 750 2",
"  	c None",
". 	c #969696",
"+ 	c #5A6060",
"@ 	c #777A7A",
"# 	c #4F5455",
"$ 	c #535248",
"% 	c #565952",
"& 	c #393D38",
"* 	c #31332E",
"= 	c #3C3A36",
"- 	c #302C27",
"; 	c #353434",
"> 	c #4E5254",
", 	c #7A7A6F",
"' 	c #807259",
") 	c #41371F",
"! 	c #3A3522",
"~ 	c #2C2A1B",
"{ 	c #232114",
"] 	c #211E14",
"^ 	c #010000",
"/ 	c #2F3130",
"( 	c #6F6E65",
"_ 	c #8A7350",
": 	c #452F16",
"< 	c #32200A",
"[ 	c #271A09",
"} 	c #393224",
"| 	c #49453B",
"1 	c #252119",
"2 	c #282823",
"3 	c #77776B",
"4 	c #705A48",
"5 	c #2A0D03",
"6 	c #2F160A",
"7 	c #341D11",
"8 	c #332018",
"9 	c #2B1C18",
"0 	c #392F2F",
"a 	c #3F3C3D",
"b 	c #4F5757",
"c 	c #716F60",
"d 	c #564529",
"e 	c #220E08",
"f 	c #251115",
"g 	c #2D1A1B",
"h 	c #3A2624",
"i 	c #382420",
"j 	c #24110D",
"k 	c #291C1A",
"l 	c #2F2829",
"m 	c #404142",
"n 	c #4E5555",
"o 	c #515857",
"p 	c #958969",
"q 	c #5F4525",
"r 	c #230F07",
"s 	c #221913",
"t 	c #1D1614",
"u 	c #251A1A",
"v 	c #32221D",
"w 	c #372419",
"x 	c #271408",
"y 	c #2D1F13",
"z 	c #150D06",
"A 	c #0D0602",
"B 	c #343534",
"C 	c #757676",
"D 	c #4D5151",
"E 	c #5D615E",
"F 	c #A39674",
"G 	c #624A1F",
"H 	c #321804",
"I 	c #2D1818",
"J 	c #241715",
"K 	c #1C1310",
"L 	c #221717",
"M 	c #342723",
"N 	c #281A12",
"O 	c #20120A",
"P 	c #291E15",
"Q 	c #0C0401",
"R 	c #110B06",
"S 	c #2E2C2C",
"T 	c #333132",
"U 	c #2F2E2F",
"V 	c #3F4041",
"W 	c #828475",
"X 	c #B3A27D",
"Y 	c #564325",
"Z 	c #2A1705",
"` 	c #2F1E13",
" .	c #2C1B18",
"..	c #2B181B",
"+.	c #251517",
"@.	c #211616",
"#.	c #291E1E",
"$.	c #1E1313",
"%.	c #120A0A",
"&.	c #0E0706",
"*.	c #070100",
"=.	c #231E1C",
"-.	c #353233",
";.	c #312F31",
">.	c #333232",
",.	c #303030",
"'.	c #505656",
").	c #606660",
"!.	c #928974",
"~.	c #3E311D",
"{.	c #170A00",
"].	c #201507",
"^.	c #1F140B",
"/.	c #1C110F",
"(.	c #1B1112",
"_.	c #1A0F10",
":.	c #201313",
"<.	c #1F1313",
"[.	c #130808",
"}.	c #090201",
"|.	c #0B0503",
"1.	c #120D0A",
"2.	c #302B28",
"3.	c #333031",
"4.	c #323031",
"5.	c #868888",
"6.	c #585D5A",
"7.	c #837857",
"8.	c #312A21",
"9.	c #090200",
"0.	c #0B0504",
"a.	c #0A0603",
"b.	c #0C0905",
"c.	c #0D0A0A",
"d.	c #141212",
"e.	c #140D0D",
"f.	c #160A0A",
"g.	c #190F0F",
"h.	c #0C0403",
"i.	c #0E0806",
"j.	c #100C08",
"k.	c #292421",
"l.	c #383330",
"m.	c #2F2C2D",
"n.	c #363536",
"o.	c #424444",
"p.	c #696D6D",
"q.	c #656B66",
"r.	c #979580",
"s.	c #80745C",
"t.	c #2C190C",
"u.	c #0F0A0D",
"v.	c #0D0B0F",
"w.	c #080609",
"x.	c #050507",
"y.	c #010302",
"z.	c #000100",
"A.	c #000200",
"B.	c #050301",
"C.	c #080100",
"D.	c #1F1715",
"E.	c #1E1815",
"F.	c #15110E",
"G.	c #292522",
"H.	c #35312E",
"I.	c #302B29",
"J.	c #403E3F",
"K.	c #5A5F5F",
"L.	c #B0AD8B",
"M.	c #918759",
"N.	c #271A0B",
"O.	c #110306",
"P.	c #0A0307",
"Q.	c #070206",
"R.	c #060203",
"S.	c #050304",
"T.	c #080707",
"U.	c #0A0A08",
"V.	c #080806",
"W.	c #0A0604",
"X.	c #0E0604",
"Y.	c #251E1C",
"Z.	c #211C19",
"`.	c #27221F",
" +	c #302C29",
".+	c #312F2B",
"++	c #565755",
"@+	c #6B6C66",
"#+	c #7A6E59",
"$+	c #170D04",
"%+	c #0D0501",
"&+	c #0D0707",
"*+	c #150B0A",
"=+	c #180E0D",
"-+	c #180F0E",
";+	c #16110F",
">+	c #120E0B",
",+	c #0A0704",
"'+	c #0E0705",
")+	c #140D0A",
"!+	c #25211E",
"~+	c #433F3C",
"{+	c #3D3E3B",
"]+	c #3F443B",
"^+	c #2B2920",
"/+	c #362D2D",
"(+	c #201518",
"_+	c #201619",
":+	c #1E1916",
"<+	c #1B1C11",
"[+	c #190F08",
"}+	c #160B07",
"|+	c #110804",
"1+	c #0F0702",
"2+	c #0D0702",
"3+	c #090401",
"4+	c #0B0502",
"5+	c #0C0805",
"6+	c #1A1714",
"7+	c #3E3A34",
"8+	c #5F5F5C",
"9+	c #777A79",
"0+	c #25261C",
"a+	c #1D1B11",
"b+	c #1D1B12",
"c+	c #222018",
"d+	c #232219",
"e+	c #25241B",
"f+	c #2A291F",
"g+	c #2A2524",
"h+	c #282221",
"i+	c #332E26",
"j+	c #2F2921",
"k+	c #3D3227",
"l+	c #4E3C35",
"m+	c #58403C",
"n+	c #675757",
"o+	c #91807A",
"p+	c #C3A98C",
"q+	c #635E56",
"r+	c #505053",
"s+	c #514D4D",
"t+	c #525150",
"u+	c #777979",
"v+	c #565B59",
"w+	c #454038",
"x+	c #231D15",
"y+	c #252019",
"z+	c #262119",
"A+	c #27221A",
"B+	c #29241C",
"C+	c #2B261E",
"D+	c #342E28",
"E+	c #493646",
"F+	c #715561",
"G+	c #A98282",
"H+	c #733F36",
"I+	c #6D2E21",
"J+	c #89423B",
"K+	c #8D4542",
"L+	c #8A4649",
"M+	c #954C42",
"N+	c #9E5138",
"O+	c #774949",
"P+	c #71444E",
"Q+	c #803D37",
"R+	c #7F3928",
"S+	c #693529",
"T+	c #68302E",
"U+	c #6C403E",
"V+	c #5F4340",
"W+	c #584D4A",
"X+	c #505455",
"Y+	c #383836",
"Z+	c #36332E",
"`+	c #5F514A",
" @	c #876860",
".@	c #96756B",
"+@	c #7D6150",
"@@	c #2C1D0A",
"#@	c #261E17",
"$@	c #261E19",
"%@	c #271F19",
"&@	c #2A211C",
"*@	c #2D2520",
"=@	c #312923",
"-@	c #38312D",
";@	c #454653",
">@	c #8E8186",
",@	c #9F796D",
"'@	c #804429",
")@	c #8D3F1E",
"!@	c #89361C",
"~@	c #823020",
"{@	c #7F2E1F",
"]@	c #9D4121",
"^@	c #A65029",
"/@	c #704137",
"(@	c #774C4A",
"_@	c #984F39",
":@	c #9D491F",
"<@	c #7F3913",
"[@	c #79251C",
"}@	c #7B2E28",
"|@	c #793B35",
"1@	c #754841",
"2@	c #5F4941",
"3@	c #4E5354",
"4@	c #1D1D1C",
"5@	c #16110C",
"6@	c #270E0C",
"7@	c #3F140F",
"8@	c #5C3029",
"9@	c #3D2518",
"0@	c #201806",
"a@	c #271D18",
"b@	c #2A201D",
"c@	c #2B221E",
"d@	c #2B211E",
"e@	c #2F2522",
"f@	c #322724",
"g@	c #3E3633",
"h@	c #485E5E",
"i@	c #97A095",
"j@	c #7F674A",
"k@	c #7C481B",
"l@	c #8D4611",
"m@	c #893D0D",
"n@	c #813811",
"o@	c #883E19",
"p@	c #A34A16",
"q@	c #A4561C",
"r@	c #805E42",
"s@	c #6C4D3A",
"t@	c #9E6137",
"u@	c #C07737",
"v@	c #C18548",
"w@	c #B27B6E",
"x@	c #996861",
"y@	c #68413B",
"z@	c #311A17",
"A@	c #6C5A56",
"B@	c #767575",
"C@	c #242C33",
"D@	c #212629",
"E@	c #2C2222",
"F@	c #321616",
"G@	c #280C0D",
"H@	c #1D100E",
"I@	c #11140C",
"J@	c #150D0B",
"K@	c #1C1211",
"L@	c #29201E",
"M@	c #2D2321",
"N@	c #312726",
"O@	c #423A38",
"P@	c #666E69",
"Q@	c #A39D8F",
"R@	c #745338",
"S@	c #985D36",
"T@	c #A25525",
"U@	c #A14E1F",
"V@	c #A05024",
"W@	c #A25029",
"X@	c #AD4F1D",
"Y@	c #AE581C",
"Z@	c #7C5032",
"`@	c #754B3B",
" #	c #AF6B43",
".#	c #B96A31",
"+#	c #B27743",
"@#	c #90857A",
"##	c #1B1411",
"$#	c #050000",
"%#	c #000000",
"&#	c #5F5B5E",
"*#	c #7F8284",
"=#	c #4F5558",
"-#	c #252630",
";#	c #1D262A",
">#	c #222726",
",#	c #2D2322",
"'#	c #2E1F21",
")#	c #302929",
"!#	c #303431",
"~#	c #2E2926",
"{#	c #201917",
"]#	c #1A1411",
"^#	c #100A08",
"/#	c #140E0B",
"(#	c #18120F",
"_#	c #26201D",
":#	c #564E4B",
"<#	c #7A6762",
"[#	c #3B1A11",
"}#	c #7F4D40",
"|#	c #844530",
"1#	c #8D462A",
"2#	c #A35939",
"3#	c #985038",
"4#	c #984A2C",
"5#	c #9C4D20",
"6#	c #895C4A",
"7#	c #784D4C",
"8#	c #B77866",
"9#	c #A76448",
"0#	c #7F5641",
"a#	c #7A807C",
"b#	c #0B100F",
"c#	c #000303",
"d#	c #5E5F61",
"e#	c #808586",
"f#	c #363236",
"g#	c #0E070A",
"h#	c #141B18",
"i#	c #17241C",
"j#	c #22241E",
"k#	c #292422",
"l#	c #292324",
"m#	c #232221",
"n#	c #2A2825",
"o#	c #35332F",
"p#	c #33312D",
"q#	c #34322E",
"r#	c #33322E",
"s#	c #2A2824",
"t#	c #1A1E1C",
"u#	c #090C0F",
"v#	c #28292F",
"w#	c #18141B",
"x#	c #170C0F",
"y#	c #2A120C",
"z#	c #432518",
"A#	c #36201C",
"B#	c #331913",
"C#	c #3A180D",
"D#	c #302622",
"E#	c #221A22",
"F#	c #251211",
"G#	c #403130",
"H#	c #ABB2BA",
"I#	c #89858A",
"J#	c #0F0C0E",
"K#	c #020101",
"L#	c #5C5E5A",
"M#	c #727878",
"N#	c #323435",
"O#	c #121313",
"P#	c #020200",
"Q#	c #030402",
"R#	c #0F0E0C",
"S#	c #2C2B28",
"T#	c #252321",
"U#	c #232220",
"V#	c #292921",
"W#	c #27281F",
"X#	c #2D2C26",
"Y#	c #3F3E3A",
"Z#	c #565552",
"`#	c #82827F",
" $	c #8D8E8E",
".$	c #6A6C6C",
"+$	c #737576",
"@$	c #1D1F20",
"#$	c #2F3132",
"$$	c #C8CBCD",
"%$	c #898889",
"&$	c #0E0D0D",
"*$	c #595959",
"=$	c #636969",
"-$	c #393D41",
";$	c #363636",
">$	c #808080",
",$	c #5D5C5C",
"'$	c #1F1E1D",
")$	c #0C0C0B",
"!$	c #2B2A29",
"~$	c #373635",
"{$	c #353432",
"]$	c #404037",
"^$	c #393931",
"/$	c #272621",
"($	c #302F2B",
"_$	c #53524F",
":$	c #8B8A88",
"<$	c #BEBEBE",
"[$	c #E1E1E1",
"}$	c #989898",
"|$	c #141313",
"1$	c #010101",
"2$	c #010100",
"3$	c #313131",
"4$	c #C9C8C8",
"5$	c #888888",
"6$	c #0F0F0F",
"7$	c #555656",
"8$	c #626969",
"9$	c #4E5255",
"0$	c #3A3A3A",
"a$	c #9B9B9B",
"b$	c #C5C4C3",
"c$	c #D5D4D2",
"d$	c #AAA9A7",
"e$	c #5F5E5C",
"f$	c #12110F",
"g$	c #10100E",
"h$	c #2B2A25",
"i$	c #3C3B35",
"j$	c #3A3934",
"k$	c #3E3D3A",
"l$	c #51504E",
"m$	c #898787",
"n$	c #B4B4B4",
"o$	c #D0D0D0",
"p$	c #B1B1B1",
"q$	c #252525",
"r$	c #CACACA",
"s$	c #8A8A8A",
"t$	c #0C0B0B",
"u$	c #0E0E0E",
"v$	c #3D4040",
"w$	c #606366",
"x$	c #262525",
"y$	c #1A191A",
"z$	c #4D4C49",
"A$	c #C5C4C2",
"B$	c #CDCCCA",
"C$	c #999896",
"D$	c #575655",
"E$	c #1D1C1A",
"F$	c #0F0E0A",
"G$	c #262522",
"H$	c #3A3937",
"I$	c #545252",
"J$	c #828081",
"K$	c #B2B2B2",
"L$	c #D7D7D7",
"M$	c #828282",
"N$	c #0C0C0C",
"O$	c #CFCFCF",
"P$	c #7C7B7B",
"Q$	c #262727",
"R$	c #414343",
"S$	c #4E5353",
"T$	c #858686",
"U$	c #36393A",
"V$	c #373737",
"W$	c #2B2A28",
"X$	c #201E1C",
"Y$	c #282624",
"Z$	c #636260",
"`$	c #91908E",
" %	c #ABAAA8",
".%	c #A8A7A5",
"+%	c #8A8985",
"@%	c #686764",
"#%	c #42413E",
"$%	c #1A1918",
"%%	c #060505",
"&%	c #060406",
"*%	c #363436",
"=%	c #646464",
"-%	c #848484",
";%	c #2F2F2F",
">%	c #030303",
",%	c #020202",
"'%	c #D8D8D8",
")%	c #3D3F3D",
"!%	c #292826",
"~%	c #2F2E2C",
"{%	c #343230",
"]%	c #373633",
"^%	c #555451",
"/%	c #949390",
"(%	c #BDBCBA",
"_%	c #DBDADA",
":%	c #C0BEC0",
"<%	c #5F5D60",
"[%	c #18171A",
"}%	c #131313",
"|%	c #0B0B0B",
"1%	c #2D2D2D",
"2%	c #7E7E7E",
"3%	c #3D4343",
"4%	c #21201E",
"5%	c #2C2A28",
"6%	c #3E3E3B",
"7%	c #454442",
"8%	c #4F4D4B",
"9%	c #5C5A5B",
"0%	c #696769",
"a%	c #9B989C",
"b%	c #A7A5A9",
"c%	c #242328",
"d%	c #151515",
"e%	c #050404",
"f%	c #2F3232",
"g%	c #343B3A",
"h%	c #0F0F0E",
"i%	c #191918",
"j%	c #555A59",
"k%	c #5A5E5E",
"l%	c #696A69",
"m%	c #605F5F",
"n%	c #767576",
"o%	c #898788",
"p%	c #7C7B7D",
"q%	c #878688",
"r%	c #2B2A2D",
"s%	c #040404",
"t%	c #060606",
"u%	c #050505",
"v%	c #090909",
"w%	c #0F1010",
"x%	c #1B1B1B",
"y%	c #2E3131",
"z%	c #373E40",
"A%	c #131414",
"B%	c #848686",
"C%	c #4E5454",
"D%	c #5E5F5F",
"E%	c #979797",
"F%	c #1C1C1C",
"G%	c #030202",
"H%	c #040303",
"I%	c #111111",
"J%	c #4D5454",
"K%	c #282C2C",
"L%	c #5F6366",
"M%	c #141414",
"N%	c #181818",
"O%	c #343737",
"P%	c #404040",
"Q%	c #515151",
"R%	c #525151",
"S%	c #444646",
"T%	c #272A2A",
"U%	c #242626",
"V%	c #1A1B1B",
"W%	c #2C2F2F",
"X%	c #232727",
"Y%	c #171718",
"Z%	c #2D3030",
"`%	c #434242",
" &	c #383838",
".&	c #9C9C9C",
"+&	c #6D7474",
"@&	c #202121",
"#&	c #0A0A0A",
"$&	c #3E4242",
"%&	c #353939",
"&&	c #242828",
"*&	c #1A1B1C",
"=&	c #0D0E0E",
"-&	c #4C4B4B",
";&	c #494949",
">&	c #575A5A",
",&	c #3B3D3D",
"'&	c #080909",
")&	c #3A3E3F",
"!&	c #080808",
"~&	c #2C3030",
"{&	c #1C1E20",
"]&	c #0D0E0F",
"^&	c #292C2C",
"/&	c #4E4E4E",
"(&	c #464646",
"_&	c #373C3C",
":&	c #3E4040",
"<&	c #727476",
"[&	c #100F10",
"}&	c #323737",
"|&	c #1C1F22",
"1&	c #272B2B",
"2&	c #535353",
"3&	c #4D4D4D",
"4&	c #343939",
"5&	c #3C3F3F",
"6&	c #0E0F11",
"7&	c #353A3A",
"8&	c #1A1C20",
"9&	c #0E0F10",
"0&	c #737676",
"a&	c #252929",
"b&	c #575656",
"c&	c #2E3535",
"d&	c #383B3B",
"e&	c #0E0F0F",
"f&	c #161514",
"g&	c #383D3C",
"h&	c #211F14",
"i&	c #252727",
"j&	c #605C5C",
"k&	c #565656",
"l&	c #313737",
"m&	c #4D5555",
"n&	c #323636",
"o&	c #151616",
"p&	c #73664C",
"q&	c #696C6A",
"r&	c #585C58",
"s&	c #747561",
"t&	c #282A29",
"u&	c #565252",
"v&	c #3F3F3F",
"w&	c #626666",
"x&	c #2E3232",
"y&	c #1D1E1F",
"z&	c #6B6960",
"A&	c #868889",
"B&	c #727565",
"C&	c #2C2C2C",
"D&	c #3B3637",
"E&	c #4B4A4A",
"F&	c #626767",
"G&	c #2F3333",
"H&	c #232424",
"I&	c #363838",
"J&	c #0F0808",
"K&	c #1C1717",
"L&	c #292727",
"M&	c #696B6B",
"N&	c #303434",
"O&	c #272929",
"P&	c #545858",
"Q&	c #413E3E",
"R&	c #1C1213",
"S&	c #0C0506",
"T&	c #020000",
"U&	c #181919",
"V&	c #333737",
"W&	c #2A2C2C",
"X&	c #535555",
"Y&	c #474444",
"Z&	c #322E2F",
"`&	c #222021",
" *	c #1E1F1F",
".*	c #383D3D",
"+*	c #3A3F3F",
"@*	c #313333",
"#*	c #42433E",
"$*	c #170705",
"%*	c #433B37",
"&*	c #51544F",
"**	c #81715B",
"=*	c #63635B",
"-*	c #868787",
";*	c #7D745D",
">*	c #5E615B",
",*	c #545A57",
". . . . . . . . . . . . . . . . . . . . . . . . . . . . . . . . . . . . + @ . . . . . . . . . . ",
". . . . . . . . . . . . . . . . . . . . . . . . . . . . . . # $ % & * = - ; > . . . . . . . . . ",
". . . . . . . . . . . . . . . . . . . . . . . . . . . . . , ' ) ! ~ { ] ^ / . . . . . . . . . . ",
". . . . . . . . . . . . . . . . . . . . . . . . . . . . ( _ : < [ } | 1 2 . . . . . . . . . . . ",
". . . . . . . . . . . . . . . . . . . . . . . . . . . 3 4 5 6 7 8 9 0 a b . . . . . . . . . . . ",
". . . . . . . . . . . . . . . . . . . . . . . . . . c d e f g h i j k l m n @ . . . . . . . . . ",
". . . . . . . . . . . . . . . . . . . . . . . . o p q r s t u v w x y z A B C D . . . . . . . . ",
". . . . . . . . . . . . . . . . . . . . . . . E F G H I J K L M N O P Q R S T U V . . . . . . . ",
". . . . . . . . . . . . . . . . . . . . . . W X Y Z `  ...+.@.#.$.%.&.*.=.-.;.>.,.'.. . . . . . ",
". . . . . . . . . . . . . . . . . . . . . ).!.~.{.].^./.(._.:.<.[.}.|.1.2.3.4.S . 5.. . . . . . ",
". . . . . . . . . . . . . . . . . . . . 6.7.8.9.0.a.b.c.d.e.f.g.h.i.j.k.l.m.n.o.p.. . . . . . . ",
". . . . . . . . . . . . . . . . . . q.r.s.t.u.v.w.x.y.z.A.B.C.D.E.F.G.H.I.J.K.. . . . . . . . . ",
". . . . . . . . . . . . . . . . . 5.L.M.N.O.P.Q.R.S.T.U.V.W.X.Y.Z.`. +.+++p.. . . . . . . . . . ",
". . . . . . . . . . . . . . . . . @+#+$+%+&+*+=+-+-+;+>+,+'+)+!+~+H.{+. . . . . . . . . . . . . ",
". . . . . . . . . . . . . . . ]+^+/+(+_+:+<+[+}+|+1+2+3+4+5+6+7+8+9+. . . . . . . . . . . . . . ",
". . . . . . . . . . . . . . . 0+a+b+c+d+e+f+g+h+i+j+k+l+m+n+o+p+q+r+s+t+u+. . . . . . . . . . . ",
". . . . . . . . . . . . . v+w+x+y+z+A+B+C+D+E+F+G+H+I+J+K+L+M+N+O+P+Q+R+S+T+U+V+W+X+. . . . . . ",
". . . . . . . . Y+Z+`+ @.@+@@@#@$@%@&@*@=@-@;@>@,@'@)@!@~@{@]@^@/@(@_@:@<@[@}@|@1@2@3@. . . . . ",
". . . . . . . . 4@5@6@7@8@9@0@a@b@c@d@e@f@g@h@i@j@k@l@m@n@o@p@q@r@s@t@u@v@w@x@y@z@A@B@. . . . . ",
". . . . . . . . C@D@E@F@G@H@I@J@K@L@L@M@N@O@P@Q@R@S@T@U@V@W@X@Y@Z@`@ #.#+#@###$#%#&#*#. . . . . ",
". . . . . . . =#-#;#>#,#'#)#!#~#{#]#^#/#(#_#:#<#[#}#|#1#2#3#4#5#6#7#8#9#0#a#b#c#%#d#e#. . . . . ",
". . . . . . 5.f#g#h#i#j#k#l#m#n#.+o#p#q#r#s#t#u#v#w#x#y#z#A#B#C#D#E#F#G#H#I#J#K#%#L#M#. . . . . ",
". . . . . N#O#%#%#P#Q#R#S#T#U#V#W#X#r#Y#Z#`# $.$+$@$%#%#%#%#%#%#%#%#%##$$$%$&$%#%#*$=$. . . . . ",
". . . . -$;$>$,$'$%#%#)$!$~${$]$^$/$($Y#_$:$<$[$}$|$%#1$1$1$1$1$1$2$%#3$4$5$6$%#%#7$8$. . . . . ",
". . . . 9$0$a$b$c$d$e$f$%#%#g$h$i$j$j$k$l$m$n$o$p$q$%#1$1$1$1$1$1$%#%#,.r$s$t$%#u$v$5.. . . . . ",
". . . . w$x$y$!$z$:$A$B$C$D$E$%#%#F$G$H$I$J$K$L$M$N$%#1$1$1$1$1$1$1$%#,.O$P$Q$R$S$@ . . . . . . ",
". . . . . T$U$V$W$X$Y$Z$`$ %.%+%@%#%$%%%&%*%=%-%;%>%1$1$1$,%,%1$1$,%%#;%'%7$. . . . . . . . . . ",
". . . . . . . . 5.. )%!%~%{%]%^%/%(%_%:%<%[%}%|%1$1$1$1$1$1$,%1$,%,%%#1%2%T$. . . . . . . . . . ",
". . . . . . . . . . 3%4%5%6%7%8%D$9%0%a%b%c%%#%#1$>%1$%#1$1$,%>%,%>%1$d%e%f%p.. . . . . . . . . ",
". . . . . . . . . . g%h%i%j%k%l%m%n%o%p%q%r%1$,%>%s%,%t%u%u%t%u%v%6$w%x%%#y%. . . . . . . . . . ",
". . . . . . . . . . z%A%x%n B%. p.C%D%-%E%F%%#>%G%u%s%s%s%t%H%I%. J%@ y%^ K%. . . . . . . . . . ",
". . . . . . . . . . L%M%N%C%. . B%5.O%P%Q%R%S%T%U%V%t%u%%#N$W%T$. . . K%H%X%. . . . . . . . . . ",
". . . . . . . . . . . Y%M%5.. . . @ Z%`% &.&+&. J%5.@&%##&$&. . . . . %&H%&&. . . . . . . . . . ",
". . . . . . . . . . . *&=&. . . . @ W%-&;&>&. . . . ,&%#'&5.. . . . . )&!&~&. . . . . . . . . . ",
". . . . . . . . . . . {&]&. . . . 5.^&/&(&_&. 5.. . :&K#!&. . . . . . <&[&}&. . . . . . . . . . ",
". . . . . . . . . . . |&6$B%. . . 5.1&2&3&4&. 5.. . 5&s%N$. . . . . . . 6&7&. . . . . . . . . . ",
". . . . . . . . . . . 8&9&0&. . . . a&b&Q%c&5.. . . d&H%e&. . . . . . . f&g&. . . . . . . . . . ",
". . . . . . . . . . . G$h&. . . . . i&j&k&l&m&. . . n&K#o&. . . . . . . p&q&. . . . . . . . . . ",
". . . . . . . . . . . r&s&. . . . . t&u&v&w&p.. . . x&1$y&. . . . . . . z&. . . . . . . . . . . ",
". . . . . . . . . . . A&B&. . . . 5.C&D&E&F&. . . . G&^ H&. . . . . . . . . . . . . . . . . . . ",
". . . . . . . . . . . . . . . . . I&J&K&L&M&. . . . N&K#O&. . . . . . . . . . . . . . . . . . . ",
". . . . . . . . . . . . . . . . P&Q&R&S&T&U&. . . . V&K#W&. . . . . . . . . . . . . . . . . . . ",
". . . . . . . . . . . . . . . . K.X&Y&Z&`& *. . . . .*K#y%. . . . . . . . . . . . . . . . . . . ",
". . . . . . . . . . . . . . . . . . . . . . . . . . +*%#@*. . . . . . . . . . . . . . . . . . . ",
". . . . . . . . . . . . . . . . . . . . . . . . . . #*$*%*. . . . . . . . . . . . . . . . . . . ",
". . . . . . . . . . . . . . . . . . . . . . . . . . &***=*. . . . . . . . . . . . . . . . . . . ",
". . . . . . . . . . . . . . . . . . . . . . . . . . -*;*>*. . . . . . . . . . . . . . . . . . . ",
". . . . . . . . . . . . . . . . . . . . . . . . . . . ,*. . . . . . . . . . . . . . . . . . . . "};
