/* XPM */
static const char  * acoustic_guitar_gtr_xpm[] = {
"48 48 935 2",
"  	c None",
". 	c #969696",
"+ 	c #5F5F4F",
"@ 	c #84774B",
"# 	c #B49F49",
"$ 	c #B9A748",
"% 	c #978A49",
"& 	c #635E4C",
"* 	c #57554F",
"= 	c #69604E",
"- 	c #85794A",
"; 	c #F1D946",
"> 	c #FEEF63",
", 	c #FEF769",
"' 	c #FEF96B",
") 	c #FEF96E",
"! 	c #FEF261",
"~ 	c #AE9C47",
"{ 	c #878787",
"] 	c #5A544E",
"^ 	c #8B6D49",
"/ 	c #B98746",
"( 	c #AC7C46",
"_ 	c #5B534A",
": 	c #9B8947",
"< 	c #FCEB5C",
"[ 	c #FCEF62",
"} 	c #FCEA61",
"| 	c #FCEA62",
"1 	c #FCEA63",
"2 	c #FCEE62",
"3 	c #FCF76A",
"4 	c #FCFA73",
"5 	c #D4BE43",
"6 	c #767676",
"7 	c #5D5B4F",
"8 	c #886E48",
"9 	c #A37345",
"0 	c #B98344",
"a 	c #A47344",
"b 	c #AF7B44",
"c 	c #715943",
"d 	c #838486",
"e 	c #7E7148",
"f 	c #FBE75B",
"g 	c #FBEA63",
"h 	c #FBE661",
"i 	c #FBE75F",
"j 	c #FBE860",
"k 	c #FBEB62",
"l 	c #FBEC61",
"m 	c #FBED63",
"n 	c #FBF268",
"o 	c #BAA042",
"p 	c #636566",
"q 	c #4F514E",
"r 	c #816D48",
"s 	c #AF8344",
"t 	c #BA8443",
"u 	c #B47C43",
"v 	c #9D6E43",
"w 	c #936943",
"x 	c #936A43",
"y 	c #755B3F",
"z 	c #34383F",
"A 	c #8E7E46",
"B 	c #F9E055",
"C 	c #F9E65F",
"D 	c #F9E55A",
"E 	c #F9E55D",
"F 	c #F9E65D",
"G 	c #F9E75E",
"H 	c #F9E75D",
"I 	c #F9E556",
"J 	c #F9E658",
"K 	c #F9EB5F",
"L 	c #F9E45E",
"M 	c #8E793F",
"N 	c #665843",
"O 	c #A77C42",
"P 	c #B78041",
"Q 	c #BA8541",
"R 	c #AB7441",
"S 	c #A06F41",
"T 	c #946941",
"U 	c #7E5F3B",
"V 	c #473A2D",
"W 	c #23262A",
"X 	c #2A3038",
"Y 	c #6F7276",
"Z 	c #5B5C5C",
"` 	c #6A6148",
" .	c #8E7E44",
"..	c #B39B41",
"+.	c #C5A740",
"@.	c #C0A440",
"#.	c #AF9941",
"$.	c #9F8B42",
"%.	c #8E7E43",
"&.	c #7E7345",
"*.	c #776D45",
"=.	c #907E43",
"-.	c #D2B340",
";.	c #F7E05A",
">.	c #F7E361",
",.	c #F7E258",
"'.	c #F7E456",
").	c #F7E25C",
"!.	c #F7E25B",
"~.	c #F7E256",
"{.	c #F7E251",
"].	c #F7E255",
"^.	c #F7DF55",
"/.	c #F7D747",
"(.	c #DFB63F",
"_.	c #BF8E3F",
":.	c #B97D3F",
"<.	c #B27B3F",
"[.	c #B07A3F",
"}.	c #A4733F",
"|.	c #986C3F",
"1.	c #83613B",
"2.	c #59462E",
"3.	c #202120",
"4.	c #191D22",
"5.	c #21262C",
"6.	c #2B3239",
"7.	c #6F7376",
"8.	c #54514B",
"9.	c #927C42",
"0.	c #E0BD3D",
"a.	c #F5D244",
"b.	c #F5D64C",
"c.	c #F5D94D",
"d.	c #F5DA50",
"e.	c #F5DB52",
"f.	c #F5DB50",
"g.	c #F5DC4E",
"h.	c #F5DC50",
"i.	c #F5DC54",
"j.	c #F5E158",
"k.	c #F5E05A",
"l.	c #F5E054",
"m.	c #F5E056",
"n.	c #F5DE4D",
"o.	c #F5D749",
"p.	c #F5D74D",
"q.	c #F5D74A",
"r.	c #F5DA4B",
"s.	c #F5DB4C",
"t.	c #F5D33E",
"u.	c #DBB53D",
"v.	c #BD8D3D",
"w.	c #A46A3D",
"x.	c #B0753D",
"y.	c #B0793D",
"z.	c #9F713D",
"A.	c #996A3D",
"B.	c #8C643B",
"C.	c #5C4630",
"D.	c #2B2823",
"E.	c #171B1F",
"F.	c #1B2025",
"G.	c #22282E",
"H.	c #2A3138",
"I.	c #323A43",
"J.	c #786843",
"K.	c #D9B43C",
"L.	c #F3D044",
"M.	c #F3D143",
"N.	c #F3D03D",
"O.	c #F3D23E",
"P.	c #F3D241",
"Q.	c #F3D441",
"R.	c #F3D541",
"S.	c #F3D643",
"T.	c #F3D742",
"U.	c #F3D741",
"V.	c #F3D947",
"W.	c #F3DA4B",
"X.	c #F3DC48",
"Y.	c #F3DB4C",
"Z.	c #F3DC4D",
"`.	c #F3D546",
" +	c #E9C23B",
".+	c #D1AC3B",
"++	c #CAA33B",
"@+	c #D6AB3B",
"#+	c #DFB43B",
"$+	c #CDA63B",
"%+	c #B8883B",
"&+	c #B2793B",
"*+	c #B77B3B",
"=+	c #B97E3B",
"-+	c #A16F3B",
";+	c #96693B",
">+	c #8F653B",
",+	c #634B33",
"'+	c #342C25",
")+	c #161A1E",
"!+	c #1A1E23",
"~+	c #20252B",
"{+	c #272D34",
"]+	c #2E363E",
"^+	c #5B6166",
"/+	c #836F40",
"(+	c #EBC639",
"_+	c #F1CE40",
":+	c #EFCB39",
"<+	c #ECC939",
"[+	c #EECC39",
"}+	c #F1CF3B",
"|+	c #F1D03F",
"1+	c #F1D13F",
"2+	c #F1D33E",
"3+	c #F1D440",
"4+	c #F1D443",
"5+	c #F1D543",
"6+	c #F1D746",
"7+	c #F1D748",
"8+	c #F1D944",
"9+	c #F1D439",
"0+	c #DAB239",
"a+	c #987C39",
"b+	c #605539",
"c+	c #614C39",
"d+	c #7D5F39",
"e+	c #826139",
"f+	c #A36A39",
"g+	c #C27C39",
"h+	c #C28639",
"i+	c #B87F39",
"j+	c #A56E39",
"k+	c #8F6239",
"l+	c #8A6039",
"m+	c #6D4733",
"n+	c #191A1D",
"o+	c #181C20",
"p+	c #1E2328",
"q+	c #252B32",
"r+	c #2C343C",
"s+	c #333B44",
"t+	c #705F40",
"u+	c #ECC136",
"v+	c #EEC837",
"w+	c #E9C636",
"x+	c #EBC736",
"y+	c #E9C736",
"z+	c #E8C836",
"A+	c #EECC36",
"B+	c #EECE3B",
"C+	c #EECF3E",
"D+	c #EED13D",
"E+	c #EED340",
"F+	c #EED345",
"G+	c #EED244",
"H+	c #EED23E",
"I+	c #EED43D",
"J+	c #EED13E",
"K+	c #EED240",
"L+	c #EED441",
"M+	c #E6BD36",
"N+	c #8A7336",
"O+	c #3D3B3B",
"P+	c #4B3D38",
"Q+	c #574436",
"R+	c #594336",
"S+	c #564136",
"T+	c #835D36",
"U+	c #BD8236",
"V+	c #B07636",
"W+	c #A76F36",
"X+	c #B07A36",
"Y+	c #986436",
"Z+	c #904D36",
"`+	c #56342C",
" @	c #313942",
".@	c #878686",
"+@	c #D4AC34",
"@@	c #ECC336",
"#@	c #E4BF34",
"$@	c #E5C234",
"%@	c #E7C434",
"&@	c #E7C534",
"*@	c #E5C534",
"=@	c #EAC834",
"-@	c #ECCB38",
";@	c #ECCF3A",
">@	c #ECD043",
",@	c #ECD045",
"'@	c #ECCE3C",
")@	c #ECCC36",
"!@	c #ECCF38",
"~@	c #ECCF3D",
"{@	c #ECD341",
"]@	c #ECCB40",
"^@	c #C7A034",
"/@	c #5D4B34",
"(@	c #503F34",
"_@	c #5D4934",
":@	c #5B4534",
"<@	c #594234",
"[@	c #513F34",
"}@	c #634934",
"|@	c #976834",
"1@	c #C08834",
"2@	c #ECC034",
"3@	c #B99234",
"4@	c #774534",
"5@	c #5D352C",
"6@	c #232022",
"7@	c #1F242A",
"8@	c #2A3139",
"9@	c #484E55",
"0@	c #867138",
"a@	c #E9BD33",
"b@	c #E3B831",
"c@	c #E3BD31",
"d@	c #E2BF31",
"e@	c #E5C131",
"f@	c #E6C331",
"g@	c #E5C331",
"h@	c #E8C631",
"i@	c #E9C835",
"j@	c #E9CA38",
"k@	c #E7C331",
"l@	c #AD9031",
"m@	c #BCA131",
"n@	c #E9CB3D",
"o@	c #E9CB3B",
"p@	c #E9CD37",
"q@	c #E9CF3E",
"r@	c #E9D243",
"s@	c #E9CB41",
"t@	c #B49131",
"u@	c #584131",
"v@	c #564031",
"w@	c #594031",
"x@	c #534031",
"y@	c #4F3E31",
"z@	c #553D31",
"A@	c #9D7331",
"B@	c #E9CC46",
"C@	c #E9DB4F",
"D@	c #775A2E",
"E@	c #342224",
"F@	c #18191D",
"G@	c #1C2126",
"H@	c #767576",
"I@	c #CDA52E",
"J@	c #E6BD30",
"K@	c #DFB82E",
"L@	c #DFBA2E",
"M@	c #E3BE2E",
"N@	c #E2BF2E",
"O@	c #E5C12E",
"P@	c #E6C22E",
"Q@	c #E4C32E",
"R@	c #E6C531",
"S@	c #E6C132",
"T@	c #D6AE2E",
"U@	c #56422E",
"V@	c #453F2E",
"W@	c #D5B72E",
"X@	c #E6CD41",
"Y@	c #E6CA39",
"Z@	c #E6CD3D",
"`@	c #E6CF45",
" #	c #E6CA44",
".#	c #BE9B2E",
"+#	c #55402E",
"@#	c #50392E",
"##	c #4F3A2E",
"$#	c #473A2E",
"%#	c #473C2E",
"&#	c #40332E",
"*#	c #43382E",
"=#	c #CAA62E",
"-#	c #E6DA55",
";#	c #E6D94C",
">#	c #4D3E24",
",#	c #15191C",
"'#	c #1C2025",
")#	c #2F373F",
"!#	c #5B523C",
"~#	c #DFB42C",
"{#	c #DFBA2C",
"]#	c #DDB82C",
"^#	c #DEB92C",
"/#	c #E1BC2C",
"(#	c #E2BD2C",
"_#	c #E0BD2C",
":#	c #DFBD2C",
"<#	c #DFBF2C",
"[#	c #E4C42C",
"}#	c #E4C030",
"|#	c #D4AA2C",
"1#	c #6A582C",
"2#	c #2C2C2F",
"3#	c #957F2C",
"4#	c #E4CB42",
"5#	c #E4CA3E",
"6#	c #E4CA3C",
"7#	c #E4CE45",
"8#	c #E4CA43",
"9#	c #DFB82C",
"0#	c #775F2C",
"a#	c #332C35",
"b#	c #3E2D2D",
"c#	c #41312C",
"d#	c #342D2F",
"e#	c #2C2C2E",
"f#	c #7A642C",
"g#	c #C7A32C",
"h#	c #E4D54E",
"i#	c #E4DC59",
"j#	c #A78D28",
"k#	c #2D2B26",
"l#	c #252B31",
"m#	c #2F363F",
"n#	c #766532",
"o#	c #DDB629",
"p#	c #DAB429",
"q#	c #DDB729",
"r#	c #DAB629",
"s#	c #DBB629",
"t#	c #DFBA29",
"u#	c #DFBC29",
"v#	c #DDBB29",
"w#	c #DFBF29",
"x#	c #E0BF29",
"y#	c #E1C22D",
"z#	c #D1A929",
"A#	c #5E4829",
"B#	c #292A2F",
"C#	c #88632F",
"D#	c #E1C22A",
"E#	c #E1CA3F",
"F#	c #E1C83C",
"G#	c #E1C93C",
"H#	c #E1CC41",
"I#	c #D9B329",
"J#	c #AE8729",
"K#	c #775D29",
"L#	c #4E3A29",
"M#	c #342F2B",
"N#	c #413C29",
"O#	c #7E6629",
"P#	c #937529",
"Q#	c #796729",
"R#	c #E1D04C",
"S#	c #E1D756",
"T#	c #E1D858",
"U#	c #CEBB2E",
"V#	c #796B2E",
"W#	c #3E403F",
"X#	c #8C702B",
"Y#	c #DBB126",
"Z#	c #D4AF26",
"`#	c #D8B326",
" $	c #DBB526",
".$	c #D9B626",
"+$	c #DCB926",
"@$	c #DDBB26",
"#$	c #DBBC26",
"$$	c #DDBD26",
"%$	c #DEBD28",
"&$	c #DEBE2A",
"*$	c #D4B126",
"=$	c #644C26",
"-$	c #26262A",
";$	c #513E33",
">$	c #C19A26",
",$	c #DEC63C",
"'$	c #DEC435",
")$	c #DEC339",
"!$	c #C6A826",
"~$	c #5C4E26",
"{$	c #564626",
"]$	c #8F6F26",
"^$	c #9B7926",
"/$	c #967A26",
"($	c #917426",
"_$	c #796326",
":$	c #383226",
"<$	c #6B5D26",
"[$	c #DECE4D",
"}$	c #DED050",
"|$	c #DED556",
"1$	c #DEDC5F",
"2$	c #DED963",
"3$	c #AE992B",
"4$	c #717476",
"5$	c #927529",
"6$	c #D9B224",
"7$	c #D2AE24",
"8$	c #D9B124",
"9$	c #D9B424",
"0$	c #D9B624",
"a$	c #DCB824",
"b$	c #D9B824",
"c$	c #DCBA24",
"d$	c #DCBD25",
"e$	c #DCBC27",
"f$	c #977624",
"g$	c #2F2428",
"h$	c #24272D",
"i$	c #77542C",
"j$	c #DCB931",
"k$	c #DCC536",
"l$	c #CCAF24",
"m$	c #494124",
"n$	c #242427",
"o$	c #242627",
"p$	c #2B2929",
"q$	c #3D3424",
"r$	c #3E3524",
"s$	c #393324",
"t$	c #252A2A",
"u$	c #242424",
"v$	c #988424",
"w$	c #DCD248",
"x$	c #DCCD4B",
"y$	c #DCD053",
"z$	c #DCD35B",
"A$	c #DCD968",
"B$	c #D6C642",
"C$	c #383937",
"D$	c #8B7026",
"E$	c #D8AF21",
"F$	c #D0AC21",
"G$	c #D5B121",
"H$	c #D7B421",
"I$	c #D6B321",
"J$	c #D9B521",
"K$	c #D7B521",
"L$	c #D5B421",
"M$	c #D5B521",
"N$	c #D9B922",
"O$	c #D9BC2B",
"P$	c #CEA821",
"Q$	c #5B4321",
"R$	c #212123",
"S$	c #332C31",
"T$	c #BE9121",
"U$	c #D9C439",
"V$	c #998421",
"W$	c #212124",
"X$	c #212627",
"Y$	c #232828",
"Z$	c #252727",
"`$	c #232325",
" %	c #232328",
".%	c #353321",
"+%	c #D6C321",
"@%	c #D9D249",
"#%	c #D9D34D",
"$%	c #D9D654",
"%%	c #D9D758",
"&%	c #D9D25B",
"*%	c #A58722",
"=%	c #282D31",
"-%	c #705B28",
";%	c #D6AE1E",
">%	c #CFAB1E",
",%	c #D2AD1E",
"'%	c #D3B01E",
")%	c #D5B11E",
"!%	c #D4B11E",
"~%	c #D2B31E",
"{%	c #D5B61E",
"]%	c #D6B61F",
"^%	c #D6B71E",
"/%	c #D6B220",
"(%	c #AB821E",
"_%	c #3F2F1E",
":%	c #1E1E25",
"<%	c #513F1E",
"[%	c #C4A11E",
"}%	c #96821E",
"|%	c #1E1E20",
"1%	c #1E2527",
"2%	c #222522",
"3%	c #212623",
"4%	c #202520",
"5%	c #252222",
"6%	c #29251E",
"7%	c #AE9D1E",
"8%	c #D6D24C",
"9%	c #D6C643",
"0%	c #D6C535",
"a%	c #D6C029",
"b%	c #C9A91E",
"c%	c #9D6B1E",
"d%	c #422B1E",
"e%	c #21272D",
"f%	c #4D462D",
"g%	c #CEA91B",
"h%	c #D0AA1B",
"i%	c #D2AC1B",
"j%	c #D2AE1B",
"k%	c #D1AE1B",
"l%	c #D3B11B",
"m%	c #D3B21D",
"n%	c #D1B11B",
"o%	c #CDAD1B",
"p%	c #CBAB1B",
"q%	c #CFAD1B",
"r%	c #D3A91B",
"s%	c #A2791B",
"t%	c #47341B",
"u%	c #1B1B1D",
"v%	c #594C1B",
"w%	c #B49A1B",
"x%	c #322D1B",
"y%	c #1B1B1F",
"z%	c #1B2323",
"A%	c #1B1E21",
"B%	c #1B1B1B",
"C%	c #2C2C1B",
"D%	c #9F8A1B",
"E%	c #CCAC1B",
"F%	c #97761B",
"G%	c #77521B",
"H%	c #5F3F1B",
"I%	c #4F2F1B",
"J%	c #48231B",
"K%	c #3F201A",
"L%	c #211D1E",
"M%	c #303740",
"N%	c #3C3C36",
"O%	c #BF9819",
"P%	c #D1AA1A",
"Q%	c #CEA819",
"R%	c #CEA919",
"S%	c #CEAB19",
"T%	c #D1AD1A",
"U%	c #D1AC19",
"V%	c #CFAC19",
"W%	c #CDAA19",
"X%	c #CBA719",
"Y%	c #CBA819",
"Z%	c #CAAA19",
"`%	c #CAA819",
" &	c #CBAB19",
".&	c #CEA719",
"+&	c #BA9219",
"@&	c #594519",
"#&	c #19191D",
"$&	c #997E19",
"%&	c #A58D19",
"&&	c #352E19",
"*&	c #19191E",
"=&	c #251E1A",
"-&	c #615519",
";&	c #AF9B19",
">&	c #A27919",
",&	c #4E2819",
"'&	c #2D1919",
")&	c #27181B",
"!&	c #221719",
"~&	c #201718",
"{&	c #201A19",
"]&	c #1B1A1D",
"^&	c #1D2227",
"/&	c #272E35",
"(&	c #363B40",
"_&	c #8E6F1B",
":&	c #CEA81C",
"<&	c #CAA316",
"[&	c #CBA716",
"}&	c #CEAA16",
"|&	c #CEA917",
"1&	c #CAA716",
"2&	c #C8A416",
"3&	c #C9A616",
"4&	c #C9A316",
"5&	c #C7A316",
"6&	c #C8A516",
"7&	c #CBA616",
"8&	c #C9A916",
"9&	c #CEB021",
"0&	c #C5A116",
"a&	c #7E6516",
"b&	c #BB9E16",
"c&	c #CEB92A",
"d&	c #C2A916",
"e&	c #A08916",
"f&	c #A18A16",
"g&	c #BDA416",
"h&	c #CEBE2C",
"i&	c #A88816",
"j&	c #472016",
"k&	c #291716",
"l&	c #1A1718",
"m&	c #16171B",
"n&	c #171A1E",
"o&	c #191D21",
"p&	c #1B2024",
"q&	c #262D33",
"r&	c #707376",
"s&	c #534624",
"t&	c #CBA317",
"u&	c #CAA813",
"v&	c #C8A613",
"w&	c #C5A313",
"x&	c #C39F13",
"y&	c #C8A313",
"z&	c #C5A213",
"A&	c #C3A113",
"B&	c #C49F13",
"C&	c #C4A013",
"D&	c #C7A113",
"E&	c #C8A513",
"F&	c #C7A613",
"G&	c #CBAB14",
"H&	c #CBAD1F",
"I&	c #CBAE20",
"J&	c #CBAE1D",
"K&	c #CBB01A",
"L&	c #CBB322",
"M&	c #CBB426",
"N&	c #CBB425",
"O&	c #CBBC27",
"P&	c #CBAE18",
"Q&	c #543713",
"R&	c #211415",
"S&	c #15171B",
"T&	c #181C21",
"U&	c #282F36",
"V&	c #2C333B",
"W&	c #323A42",
"X&	c #353533",
"Y&	c #AC8A12",
"Z&	c #C9A614",
"`&	c #BF9B11",
" *	c #C09B11",
".*	c #C09D11",
"+*	c #C29E11",
"@*	c #C29D11",
"#*	c #BF9A11",
"$*	c #C29B11",
"%*	c #C39D11",
"&*	c #C3A111",
"**	c #C4A211",
"=*	c #C8A711",
"-*	c #C9A813",
";*	c #C9A914",
">*	c #C9AB14",
",*	c #C9AD17",
"'*	c #C9AE1C",
")*	c #C9AF1D",
"!*	c #C9B01E",
"~*	c #C9B225",
"{*	c #8D6B11",
"]*	c #201213",
"^*	c #17181B",
"/*	c #23292F",
"(*	c #2F363E",
"_*	c #5C6166",
":*	c #333941",
"<*	c #56451A",
"[*	c #C69D11",
"}*	c #C19B0E",
"|*	c #BC980E",
"1*	c #BE9A0E",
"2*	c #BD980E",
"3*	c #C0980E",
"4*	c #BF9A0E",
"5*	c #BF9C0E",
"6*	c #C19F0E",
"7*	c #C0A00E",
"8*	c #C6A40E",
"9*	c #C6A50F",
"0*	c #C6A50E",
"a*	c #C6A710",
"b*	c #C6A914",
"c*	c #C6AB16",
"d*	c #C6AB17",
"e*	c #C6AD1B",
"f*	c #C6AF25",
"g*	c #C1A30E",
"h*	c #3A2510",
"i*	c #312E2F",
"j*	c #97740E",
"k*	c #C49D0D",
"l*	c #BA930C",
"m*	c #BA950C",
"n*	c #BC980C",
"o*	c #BE9A0C",
"p*	c #BE9B0C",
"q*	c #BF9D0C",
"r*	c #BD9C0C",
"s*	c #BC9C0C",
"t*	c #BD9D0C",
"u*	c #C0A00C",
"v*	c #C4A50C",
"w*	c #C4A511",
"x*	c #C4A615",
"y*	c #C4A714",
"z*	c #C4A912",
"A*	c #C4A811",
"B*	c #C4A917",
"C*	c #C4AD25",
"D*	c #80620C",
"E*	c #181215",
"F*	c #242A31",
"G*	c #3E331D",
"H*	c #B48A0A",
"I*	c #BD940A",
"J*	c #B8920A",
"K*	c #BB960A",
"L*	c #BE980A",
"M*	c #BE9A0A",
"N*	c #BD990A",
"O*	c #BD9A0A",
"P*	c #BB990A",
"Q*	c #B8980A",
"R*	c #B9990A",
"S*	c #BE9F0A",
"T*	c #C2A50C",
"U*	c #C2A411",
"V*	c #C2A410",
"W*	c #C2A614",
"X*	c #C2A413",
"Y*	c #C2A711",
"Z*	c #C2A91B",
"`*	c #B8940A",
" =	c #3B1E0B",
".=	c #19181C",
"+=	c #2D343C",
"@=	c #2C3137",
"#=	c #5D4711",
"$=	c #BB9008",
"%=	c #B89308",
"&=	c #B89208",
"*=	c #BB9508",
"==	c #BB9708",
"-=	c #B99508",
";=	c #B99608",
">=	c #B89708",
",=	c #B79608",
"'=	c #B69708",
")=	c #BA9C08",
"!=	c #C0A209",
"~=	c #C0A30E",
"{=	c #C0A409",
"]=	c #C0A40F",
"^=	c #C0A413",
"/=	c #C0A819",
"(=	c #C0A416",
"_=	c #714908",
":=	c #210E0F",
"<=	c #1B1F24",
"[=	c #282A2D",
"}=	c #5F480E",
"|=	c #B68B06",
"1=	c #B68E06",
"2=	c #B58F06",
"3=	c #B79306",
"4=	c #B89406",
"5=	c #B69306",
"6=	c #B79606",
"7=	c #B69506",
"8=	c #B79806",
"9=	c #BA9B06",
"0=	c #BD9F06",
"a=	c #BEA00C",
"b=	c #BEA20D",
"c=	c #BEA20F",
"d=	c #BEA71E",
"e=	c #BEA51B",
"f=	c #795506",
"g=	c #351108",
"h=	c #19171A",
"i=	c #2D353D",
"j=	c #25282B",
"k=	c #513C0D",
"l=	c #AB7E04",
"m=	c #B98D04",
"n=	c #B28D04",
"o=	c #AD8B04",
"p=	c #B39104",
"q=	c #B89504",
"r=	c #B99804",
"s=	c #B79A04",
"t=	c #B89804",
"u=	c #BC9C04",
"v=	c #BCA00B",
"w=	c #BCA212",
"x=	c #BCA41F",
"y=	c #BCA012",
"z=	c #6F5204",
"A=	c #250C06",
"B=	c #181414",
"C=	c #2E353D",
"D=	c #23272D",
"E=	c #352712",
"F=	c #7E5C05",
"G=	c #AD8303",
"H=	c #B58E03",
"I=	c #B99403",
"J=	c #B89403",
"K=	c #B89603",
"L=	c #B69603",
"M=	c #BB9D0A",
"N=	c #BBA213",
"O=	c #BBA012",
"P=	c #997E05",
"Q=	c #3D2D0A",
"R=	c #170B0D",
"S=	c #181315",
"T=	c #23282E",
"U=	c #2E353E",
"V=	c #838586",
"W=	c #22201D",
"X=	c #382A0E",
"Y=	c #6E5005",
"Z=	c #A27D01",
"`=	c #AD8801",
" -	c #B48B01",
".-	c #B68E01",
"+-	c #B08C01",
"@-	c #A28101",
"#-	c #715A04",
"$-	c #3F310A",
"%-	c #1D1B14",
"&-	c #15181C",
"*-	c #23282F",
"=-	c #16191D",
"--	c #1B1F23",
";-	c #1E2329",
">-	c #20262B",
",-	c #2C333A",
"'-	c #303841",
". . . . . . . . . . . . . . . . . . . . . . . . . . . . . . . . . . . . . . . . . . . . . . . . ",
". . . . . . . . . . . . . . . . . . . . . . . . . . . . . . . . . . . . . . . . . . . . . . . . ",
". . . . . . . . . . . . . . . . . . . . . . . . . . . . . . . . . . . . . . . . . . . . . . . . ",
". . . . . . . . . . . . . . . . . . . . . . . . . . . . . . . . . . . . . . . . . . . . . . . . ",
". . . . . . . . . . . . . . . . . . . . . . . . . . . . . . . . . . . . . . . . . . . . . . . . ",
". . . . . . . . . . . . . . . . . . . . . . . . . . . . . . . . . . . . . . . . . . . . . . . . ",
". . . . . . . . . . . . . . . . . . . . . . . . . . . . . . . . . . . . . . . . . . . . . . . . ",
". . . . . . . . . . . . . . . . . . . . . . . . . . . . . . . . . . . . . . . . . . . . . . . . ",
". . . . . . . . . . . . . . . . . . . . . . . . . . . . . . . . . . . . . . . . . . . . . . . . ",
". . . . . . . . . . . . . . . . . . . . . . . . . . + @ # $ % & . . . . . . . . . . . * = . . . ",
". . . . . . . . . . . . . . . . . . . . . . . . . - ; > , ' ) ! ~ { . . . . . . . ] ^ / ( _ . . ",
". . . . . . . . . . . . . . . . . . . . . . . . : < [ } | 1 2 3 4 5 6 . . . . 7 8 9 0 a b c d . ",
". . . . . . . . . . . . . . . . . . . . . . . e f g h i j k g l m n o p . q r s t u v w x y z . ",
". . . . . . . . . . . . . . . . . . . . . . A B C D E F G H D I J K L M N O P Q R S T U V W X Y ",
". . . . . . . . . Z `  ...+.@.#.$.%.&.*.=.-.;.>.,.'.).!.~.{.{.].^./.(._.:.<.[.}.|.1.2.3.4.5.6.7.",
". . . . . . . 8.9.0.a.b.c.d.d.e.f.g.h.i.j.k.l.m.j.n.o.p.q.r.s.t.u.v.w.x.y.z.A.B.C.D.E.F.G.H.I.. ",
". . . . . . J.K.L.M.N.O.P.Q.R.S.T.U.V.W.X.Y.Z.Z.`. +.+++@+#+$+%+&+*+=+-+;+>+,+'+)+!+~+{+]+^+. . ",
". . . . . /+(+_+:+<+[+}+|+1+2+3+4+5+6+7+5+5+8+9+0+a+b+c+d+e+f+g+h+i+j+k+l+m+n+o+p+q+r+s+. . . . ",
". . . . t+u+v+w+x+y+z+A+B+C+D+E+F+G+H+I+J+K+L+M+N+O+P+Q+R+S+T+U+V+W+X+Y+Z+`+o+5.X  @. . . . . . ",
". . . .@+@@@#@$@%@&@*@=@-@;@;@>@,@'@)@!@~@{@]@^@/@(@_@:@<@[@}@|@1@2@3@4@5@6@7@8@9@. . . . . . . ",
". . . 0@a@b@c@d@e@f@g@h@i@j@k@l@m@n@o@p@q@r@s@t@u@v@w@x@y@y@z@A@B@C@D@E@F@G@{+I.. . . . . . . . ",
". . H@I@J@K@L@M@N@O@P@Q@R@S@T@U@V@W@X@Y@Z@`@ #.#+#@###$#%#&#*#=#-#;#>#,#'#q+)#. . . . . . . . . ",
". . !#~#{#]#^#/#(#_#:#<#[#}#|#1#2#3#4#5#6#7#8#9#0#a#b#c#d#e#f#g#h#i#j#k#l#m#. . . . . . . . . . ",
". . n#o#p#q#r#s#t#u#v#w#x#y#z#A#B#C#D#E#F#G#H#I#J#K#L#M#N#O#P#Q#R#S#T#U#V#W#. . . . . . . . . . ",
". . X#Y#Z#`# $.$+$@$#$$$%$&$*$=$-$;$>$,$'$)$!$~${$]$^$/$($_$:$<$[$}$|$1$2$3$4$. . . . . . . . . ",
". . 5$6$7$8$9$0$0$a$b$c$c$d$e$f$g$h$i$j$k$l$m$n$o$p$q$r$s$t$u$v$w$x$y$z$A$B$C$. . . . . . . . . ",
". . D$E$F$G$H$I$H$J$K$L$M$N$O$P$Q$R$S$T$U$V$W$X$Y$Z$`$`$ %W$.%+%@%#%$%%%&%*%=%I.. . . . . . . . ",
". . -%;%>%,%'%'%'%)%!%~%{%]%^%/%(%_%:%<%[%}%|%1%2%3%4%5%|%6%7%8%9%0%a%b%c%d%e%m#. . . . . . . . ",
". . f%g%h%i%j%j%k%j%l%m%n%o%p%q%r%s%t%u%v%w%x%y%z%z%A%B%C%D%E%F%G%H%I%J%K%L%G.M%. . . . . . . . ",
". . N%O%P%Q%R%S%T%U%V%W%X%Y%Z%`% &.&+&@&#&$&%&&&*&*&=&-&;&>&,&'&)&!&~&{&]&^&/&s+. . . . . . . . ",
". . (&_&:&<&[&}&|&1&2&3&4&5&6&7&1&8&9&0&a&b&c&d&e&f&g&h&i&j&k&l&m&n&o&p&7@q&)#. . . . . . . . . ",
". . r&s&t&u&v&w&x&y&z&A&B&C&D&E&v&F&G&H&I&J&K&L&M&N&O&P&Q&R&S&T&^&5.l#U&V&W&. . . . . . . . . . ",
". . . X&Y&Z&`& *.*+*@*#*$*%*&***=*-*-*;*>*>*,*'*)*!*~*{*]*^*p&/*H.(*I._*. . . . . . . . . . . . ",
". . . :*<*[*}*|*1*2*3*3*4*5*6*7*8*9*0*a*b*b*c*d*e*f*g*h*m&'#q+]+7.. . . . . . . . . . . . . . . ",
". . . . i*j*k*l*m*n*o*o*p*q*r*s*t*u*v*w*x*y*z*A*B*C*D*E*!+F*)#. . . . . . . . . . . . . . . . . ",
". . . .  @G*H*I*J*K*L*M*N*O*P*Q*R*S*T*U*V*W*X*Y*Z*`* =.=5.+=. . . . . . . . . . . . . . . . . . ",
". . . . . @=#=$=%=&=*===-=;=>=,='=)=!=~={=]=^=/=(=_=:=<={+s+. . . . . . . . . . . . . . . . . . ",
". . . . . s+[=}=|=1=2=3=4=5=6=7=8=9=0=a=b=c=d=e=f=g=h=~+i=. . . . . . . . . . . . . . . . . . . ",
". . . . . . M%j=k=l=m=n=o=p=q=r=s=t=u=v=w=x=y=z=A=B=<=q&s+. . . . . . . . . . . . . . . . . . . ",
". . . . . . . C=D=E=F=G=H=I=J=K=K=L=M=N=O=P=Q=R=S=4.T=U=. . . . . . . . . . . . . . . . . . . . ",
". . . . . . . V=C=F*W=X=Y=Z=`= -.-+-@-#-$-%-&-o+G@*-V&7.. . . . . . . . . . . . . . . . . . . . ",
". . . . . . . . . )#/&~+<=E.=-&-&-&-&-=-E.--;-/*U&]+7.. . . . . . . . . . . . . . . . . . . . . ",
". . . . . . . . . . s+r+{+*->-7@7@7@7@>-*-{+,-'-^+. . . . . . . . . . . . . . . . . . . . . . . ",
". . . . . . . . . . . . 9@ @)#(*]+]+(*)# @9@. . . . . . . . . . . . . . . . . . . . . . . . . . ",
". . . . . . . . . . . . . . . . . . . . . . . . . . . . . . . . . . . . . . . . . . . . . . . . ",
". . . . . . . . . . . . . . . . . . . . . . . . . . . . . . . . . . . . . . . . . . . . . . . . ",
". . . . . . . . . . . . . . . . . . . . . . . . . . . . . . . . . . . . . . . . . . . . . . . . ",
". . . . . . . . . . . . . . . . . . . . . . . . . . . . . . . . . . . . . . . . . . . . . . . . "};
