/* XPM */
static const char  * electric_bass_guitar_bs_gtr_xpm[] = {
"48 48 866 2",
"  	c None",
". 	c #969696",
"+ 	c #5E5761",
"@ 	c #63656B",
"# 	c #5B6066",
"$ 	c #50565D",
"% 	c #87888A",
"& 	c #7B6F68",
"* 	c #B88B6E",
"= 	c #916D48",
"- 	c #3A373C",
"; 	c #B19E8D",
"> 	c #EACEB3",
", 	c #F4CFAE",
"' 	c #E5BD9B",
") 	c #EDC097",
"! 	c #E6B081",
"~ 	c #B99C80",
"{ 	c #79726B",
"] 	c #CD9F81",
"^ 	c #B8805D",
"/ 	c #8A5B2B",
"( 	c #623E28",
"_ 	c #373C44",
": 	c #B09C8A",
"< 	c #EBCAAE",
"[ 	c #F6CEA9",
"} 	c #E3B48B",
"| 	c #EBB786",
"1 	c #E6A467",
"2 	c #B8987A",
"3 	c #545658",
"4 	c #BB9279",
"5 	c #CF9672",
"6 	c #AE6D45",
"7 	c #8A4319",
"8 	c #553E26",
"9 	c #2F343C",
"0 	c #AF9A87",
"a 	c #E7BE9E",
"b 	c #F2C49A",
"c 	c #DDA172",
"d 	c #E4AA79",
"e 	c #DEA26E",
"f 	c #AD8D70",
"g 	c #393B3F",
"h 	c #838486",
"i 	c #6C635A",
"j 	c #CB9370",
"k 	c #C1825B",
"l 	c #AD6031",
"m 	c #8E4718",
"n 	c #4E351C",
"o 	c #292D34",
"p 	c #AF9884",
"q 	c #E7B997",
"r 	c #F1C095",
"s 	c #E3A36D",
"t 	c #ECB27E",
"u 	c #E2A777",
"v 	c #A5876C",
"w 	c #323336",
"x 	c #333B44",
"y 	c #826656",
"z 	c #C98A5F",
"A 	c #B47147",
"B 	c #AE5C28",
"C 	c #974B1B",
"D 	c #5E3D19",
"E 	c #27272E",
"F 	c #323A43",
"G 	c #AE9782",
"H 	c #E8BA91",
"I 	c #EEBE92",
"J 	c #C38F63",
"K 	c #E6B17C",
"L 	c #E9B079",
"M 	c #A68970",
"N 	c #2F3135",
"O 	c #313841",
"P 	c #82604D",
"Q 	c #BE7546",
"R 	c #B2693C",
"S 	c #B05C25",
"T 	c #A45420",
"U 	c #793C17",
"V 	c #2A252A",
"W 	c #303841",
"X 	c #B49E8A",
"Y 	c #E1B38E",
"Z 	c #E3B589",
"` 	c #AC7A52",
" .	c #D6A376",
"..	c #DEA773",
"+.	c #A5896C",
"@.	c #303234",
"#.	c #303840",
"$.	c #6E5243",
"%.	c #C26F3A",
"&.	c #B46737",
"*.	c #AE5B27",
"=.	c #AC5723",
"-.	c #984B1B",
";.	c #523A1E",
">.	c #2F353D",
",.	c #AF9887",
"'.	c #F3CBA6",
").	c #EDBE93",
"!.	c #E3A96E",
"~.	c #E4AD7B",
"{.	c #D9A477",
"].	c #AC9071",
"^.	c #333434",
"/.	c #5A4C3D",
"(.	c #AF5C28",
"_.	c #B36231",
":.	c #B15A23",
"<.	c #AB5722",
"[.	c #8D461D",
"}.	c #44373D",
"|.	c #717376",
"1.	c #C09A7E",
"2.	c #F0CDA9",
"3.	c #EABF94",
"4.	c #DBA16D",
"5.	c #E0AD7C",
"6.	c #D2A06F",
"7.	c #AD8F71",
"8.	c #333435",
"9.	c #303740",
"0.	c #413F3D",
"a.	c #9C5021",
"b.	c #AA521A",
"c.	c #A95924",
"d.	c #AF5A26",
"e.	c #B8612B",
"f.	c #B56532",
"g.	c #A46841",
"h.	c #866652",
"i.	c #6D645D",
"j.	c #947B6D",
"k.	c #E4B28D",
"l.	c #FAD4AB",
"m.	c #E4B98C",
"n.	c #AB7652",
"o.	c #D8A879",
"p.	c #E7AF75",
"q.	c #B39271",
"r.	c #353536",
"s.	c #2F373F",
"t.	c #4A5055",
"u.	c #7C4929",
"v.	c #BC591A",
"w.	c #A85621",
"x.	c #A95824",
"y.	c #BA652D",
"z.	c #AF5C27",
"A.	c #C27748",
"B.	c #C3835A",
"C.	c #BB8765",
"D.	c #CA9270",
"E.	c #E7AD84",
"F.	c #EACFA1",
"G.	c #EABC8C",
"H.	c #DBA067",
"I.	c #E6B47E",
"J.	c #DBA974",
"K.	c #B19171",
"L.	c #353535",
"M.	c #746660",
"N.	c #685F55",
"O.	c #44392D",
"P.	c #A34B15",
"Q.	c #AD5823",
"R.	c #A6531F",
"S.	c #A8521A",
"T.	c #B35C25",
"U.	c #B4612F",
"V.	c #BC6F3E",
"W.	c #BF7C52",
"X.	c #BD7548",
"Y.	c #E4A779",
"Z.	c #E6C996",
"`.	c #EAB584",
" +	c #E3A16B",
".+	c #E7B17F",
"++	c #D9A474",
"@+	c #B99675",
"#+	c #393737",
"$+	c #6F6B66",
"%+	c #C19071",
"&+	c #AA704A",
"*+	c #5B4937",
"=+	c #34393E",
"-+	c #7C4623",
";+	c #B35B24",
">+	c #A2531F",
",+	c #B45D25",
"'+	c #B1581E",
")+	c #B35C24",
"!+	c #B9612B",
"~+	c #B15F2C",
"{+	c #BD6830",
"]+	c #E19B6B",
"^+	c #E8C48D",
"/+	c #DDA97C",
"(+	c #A77250",
"_+	c #D6A575",
":+	c #E8AD79",
"<+	c #C09A77",
"[+	c #3D3B3A",
"}+	c #A88A7A",
"|+	c #C08966",
"1+	c #AC6335",
"2+	c #7F421E",
"3+	c #3A3938",
"4+	c #5C6166",
"5+	c #4B3C2C",
"6+	c #AE5924",
"7+	c #A75621",
"8+	c #AE5823",
"9+	c #B0541A",
"0+	c #B4561C",
"a+	c #B6591F",
"b+	c #B1571E",
"c+	c #BB5C21",
"d+	c #DF9561",
"e+	c #DFBD86",
"f+	c #E5AF7C",
"g+	c #C98D55",
"h+	c #E0A974",
"i+	c #EDAE75",
"j+	c #B68E6F",
"k+	c #2D2C2A",
"l+	c #676664",
"m+	c #BA8D73",
"n+	c #B2714A",
"o+	c #A44C14",
"p+	c #813C10",
"q+	c #41362B",
"r+	c #484E55",
"s+	c #37393B",
"t+	c #81441B",
"u+	c #A84D14",
"v+	c #B15B24",
"w+	c #AF5419",
"x+	c #B4551A",
"y+	c #B9581B",
"z+	c #BC5A1B",
"A+	c #DD925D",
"B+	c #D9B47D",
"C+	c #E3AC75",
"D+	c #CD894C",
"E+	c #E4AA6F",
"F+	c #F3B272",
"G+	c #C5956F",
"H+	c #443729",
"I+	c #34373E",
"J+	c #55585C",
"K+	c #736F6B",
"L+	c #B3937E",
"M+	c #B7805D",
"N+	c #A25728",
"O+	c #9B4712",
"P+	c #7F3A10",
"Q+	c #453025",
"R+	c #373E44",
"S+	c #5E3C28",
"T+	c #B45F29",
"U+	c #AB511A",
"V+	c #B5551B",
"W+	c #B6581A",
"X+	c #B15318",
"Y+	c #BE5A1C",
"Z+	c #DC8D57",
"`+	c #D9B178",
" @	c #D7A06C",
".@	c #976333",
"+@	c #D4A06B",
"@@	c #F6BD79",
"#@	c #D4A27A",
"$@	c #846039",
"%@	c #866C50",
"&@	c #A1886C",
"*@	c #B58F79",
"=@	c #C09478",
"-@	c #BA8564",
";@	c #A8653A",
">@	c #9C4713",
",@	c #984613",
"'@	c #79380F",
")@	c #3A2E23",
"!@	c #2C333B",
"~@	c #413C37",
"{@	c #A26034",
"]@	c #AF5A25",
"^@	c #AA561F",
"/@	c #B5571D",
"(@	c #B35318",
"_@	c #DE9360",
":@	c #DCBC8C",
"<@	c #E7B380",
"[@	c #DBA168",
"}@	c #EDBE88",
"|@	c #F7CD90",
"1@	c #DBA984",
"2@	c #9F613B",
"3@	c #AB724D",
"4@	c #BA7E59",
"5@	c #B87F5C",
"6@	c #B57B57",
"7@	c #AC6940",
"8@	c #A14C16",
"9@	c #994612",
"0@	c #914312",
"a@	c #5D2F12",
"b@	c #252526",
"c@	c #2B323A",
"d@	c #3E4043",
"e@	c #955D3B",
"f@	c #B66432",
"g@	c #BA6936",
"h@	c #B15920",
"i@	c #BC5A1C",
"j@	c #B65719",
"k@	c #DB8951",
"l@	c #D1743C",
"m@	c #DD8F5A",
"n@	c #E09663",
"o@	c #D58049",
"p@	c #D78B53",
"q@	c #9E5526",
"r@	c #A55E31",
"s@	c #B1693B",
"t@	c #B26A3D",
"u@	c #AE6333",
"v@	c #A4501B",
"w@	c #9C4812",
"x@	c #934411",
"y@	c #853C0F",
"z@	c #4A3219",
"A@	c #1F242A",
"B@	c #2C343C",
"C@	c #878687",
"D@	c #9A6648",
"E@	c #BD7343",
"F@	c #BD703F",
"G@	c #B05822",
"H@	c #BA5A1E",
"I@	c #B9571A",
"J@	c #D8864B",
"K@	c #C65E1D",
"L@	c #D3814A",
"M@	c #D3824B",
"N@	c #BA591D",
"O@	c #CB7F4B",
"P@	c #AE551E",
"Q@	c #AB5822",
"R@	c #B05924",
"S@	c #AC5119",
"T@	c #A54B14",
"U@	c #9A4713",
"V@	c #924412",
"W@	c #6D310B",
"X@	c #271F18",
"Y@	c #23282E",
"Z@	c #9B6F56",
"`@	c #BF784D",
" #	c #BF7444",
".#	c #DA8850",
"+#	c #CB6624",
"@#	c #D4834B",
"##	c #C8611E",
"$#	c #D5854B",
"%#	c #CF8149",
"&#	c #B4541A",
"*#	c #B4551B",
"=#	c #B35419",
"-#	c #AD5218",
";#	c #A24B14",
">#	c #944412",
",#	c #883E11",
"'#	c #432C15",
")#	c #1B1F24",
"!#	c #272D34",
"~#	c #68625D",
"{#	c #BA8665",
"]#	c #CA885D",
"^#	c #BF7445",
"/#	c #B45E26",
"(#	c #BB5819",
"_#	c #D9874D",
":#	c #CB6425",
"<#	c #D7844B",
"[#	c #C9621F",
"}#	c #C25C1D",
"|#	c #D08149",
"1#	c #B25318",
"2#	c #AC5218",
"3#	c #924311",
"4#	c #76360D",
"5#	c #24201C",
"6#	c #4F5358",
"7#	c #AF8D76",
"8#	c #CC916B",
"9#	c #C68459",
"0#	c #B36432",
"a#	c #B85D25",
"b#	c #BD5B1D",
"c#	c #D9874C",
"d#	c #B45419",
"e#	c #B55719",
"f#	c #AE5218",
"g#	c #9F4B13",
"h#	c #9A4813",
"i#	c #733915",
"j#	c #232120",
"k#	c #252B31",
"l#	c #313942",
"m#	c #7C746A",
"n#	c #CB9978",
"o#	c #C38760",
"p#	c #B87143",
"q#	c #B7642F",
"r#	c #B65920",
"s#	c #C15A1C",
"t#	c #DB8B53",
"u#	c #CC692A",
"v#	c #C96221",
"w#	c #BA5819",
"x#	c #AF5218",
"y#	c #A14C13",
"z#	c #9C4913",
"A#	c #753A17",
"B#	c #262524",
"C#	c #2A3138",
"D#	c #6F7376",
"E#	c #5B5C5E",
"F#	c #C99E83",
"G#	c #CB916D",
"H#	c #C9885D",
"I#	c #BA6B39",
"J#	c #BA6127",
"K#	c #B75A1D",
"L#	c #DB8C55",
"M#	c #CC6829",
"N#	c #DA894F",
"O#	c #C45F1E",
"P#	c #823B0F",
"Q#	c #2E2A25",
"R#	c #A78978",
"S#	c #D39B79",
"T#	c #CD9068",
"U#	c #BA6F40",
"V#	c #BF652E",
"W#	c #BB5C20",
"X#	c #BB591A",
"Y#	c #AF5318",
"Z#	c #763307",
"`#	c #A96A3E",
" $	c #893D0D",
".$	c #A7693D",
"+$	c #7A3408",
"@$	c #9E643A",
"#$	c #783307",
"$$	c #A2673C",
"%$	c #642701",
"&$	c #96430F",
"*$	c #B05318",
"=$	c #AA4D15",
"-$	c #9E4913",
";$	c #6F471D",
">$	c #2C282F",
",$	c #786C67",
"'$	c #D29E7D",
")$	c #D09772",
"!$	c #BB774A",
"~$	c #BC6834",
"{$	c #BF6125",
"]$	c #291825",
"^$	c #786D69",
"/$	c #534845",
"($	c #826D66",
"_$	c #483E41",
":$	c #7A695E",
"<$	c #423A3C",
"[$	c #7F7065",
"}$	c #000718",
"|$	c #410000",
"1$	c #AD5217",
"2$	c #A54D14",
"3$	c #A44D14",
"4$	c #9B4713",
"5$	c #593C1F",
"6$	c #363C42",
"7$	c #525459",
"8$	c #BE947B",
"9$	c #D19773",
"0$	c #C98961",
"a$	c #BE6F3D",
"b$	c #BE632A",
"c$	c #BD5C1E",
"d$	c #C15B1D",
"e$	c #251117",
"f$	c #73635A",
"g$	c #48342D",
"h$	c #7A6057",
"i$	c #3C2D2D",
"j$	c #745F51",
"k$	c #392528",
"l$	c #766055",
"m$	c #0A0E19",
"n$	c #5A1504",
"o$	c #A74D14",
"p$	c #863E10",
"q$	c #4B3D2E",
"r$	c #917B6F",
"s$	c #E1A782",
"t$	c #BB7245",
"u$	c #C06831",
"v$	c #BF6023",
"w$	c #BF5B1E",
"x$	c #883C0C",
"y$	c #42221F",
"z$	c #816B64",
"A$	c #593F39",
"B$	c #826A5A",
"C$	c #4F3F3C",
"D$	c #877060",
"E$	c #4D3835",
"F$	c #816B60",
"G$	c #0A070E",
"H$	c #570800",
"I$	c #AE5217",
"J$	c #7B3E18",
"K$	c #3D3A37",
"L$	c #545659",
"M$	c #D19B7A",
"N$	c #CE916B",
"O$	c #C7855B",
"P$	c #BD6B38",
"Q$	c #BF6227",
"R$	c #C25D1E",
"S$	c #B67241",
"T$	c #94420E",
"U$	c #B37040",
"V$	c #93430F",
"W$	c #B06E40",
"X$	c #AA6C3E",
"Y$	c #793307",
"Z$	c #A64E14",
"`$	c #A34B14",
" %	c #A04B14",
".%	c #643B22",
"+%	c #32343B",
"@%	c #937F6C",
"#%	c #DE9F78",
"$%	c #C08158",
"%%	c #B96E3F",
"&%	c #BA632D",
"*%	c #BE5E20",
"=%	c #BE5B1D",
"-%	c #CC6627",
";%	c #BB5D5D",
">%	c #A04913",
",%	c #91410E",
"'%	c #873D0E",
")%	c #523D25",
"!%	c #AB8065",
"~%	c #D59066",
"{%	c #C17A4D",
"]%	c #BA6834",
"^%	c #BD6026",
"/%	c #BF5C1F",
"(%	c #9F663A",
"_%	c #622701",
":%	c #AB5621",
"<%	c #B16C68",
"[%	c #A74C14",
"}%	c #8D3F0E",
"|%	c #783B14",
"1%	c #535352",
"2%	c #AF7B5A",
"3%	c #D08556",
"4%	c #C06F3E",
"5%	c #BA622C",
"6%	c #BD5D1F",
"7%	c #28171E",
"8%	c #746362",
"9%	c #412D33",
"0%	c #745F59",
"a%	c #392C35",
"b%	c #78605A",
"c%	c #372931",
"d%	c #6D5C58",
"e%	c #000013",
"f%	c #4E0C00",
"g%	c #A04B13",
"h%	c #974512",
"i%	c #863D0E",
"j%	c #292F37",
"k%	c #6F7276",
"l%	c #6A5946",
"m%	c #C58157",
"n%	c #CA7845",
"o%	c #C36B33",
"p%	c #BE6125",
"q%	c #BC5B1D",
"r%	c #6E2D03",
"s%	c #22181E",
"t%	c #746564",
"u%	c #452E32",
"v%	c #786258",
"w%	c #3C2E38",
"x%	c #76615B",
"y%	c #37292F",
"z%	c #705D55",
"A%	c #00041A",
"B%	c #490F01",
"C%	c #B6561A",
"D%	c #A44B14",
"E%	c #8B3E0E",
"F%	c #853B0D",
"G%	c #232930",
"H%	c #323A42",
"I%	c #5B4834",
"J%	c #B46B3E",
"K%	c #C06730",
"L%	c #C06327",
"M%	c #311919",
"N%	c #74645E",
"O%	c #472E2C",
"P%	c #7A6056",
"Q%	c #3E3133",
"R%	c #7A6259",
"S%	c #3C2A2D",
"T%	c #766159",
"U%	c #050215",
"V%	c #560D00",
"W%	c #AB756D",
"X%	c #A74F17",
"Y%	c #7C370B",
"Z%	c #79360C",
"`%	c #21262C",
" &	c #403E3C",
".&	c #8E4D23",
"+&	c #B0561C",
"@&	c #BC591B",
"#&	c #8A3D0C",
"$&	c #B87343",
"%&	c #AE6E3F",
"&&	c #A14A13",
"*&	c #C6601E",
"=&	c #B45755",
"-&	c #A44D16",
";&	c #7B360B",
">&	c #7F3C15",
",&	c #2F363F",
"'&	c #494F55",
")&	c #573B1E",
"!&	c #B35D25",
"~&	c #B35319",
"{&	c #B05218",
"]&	c #A74F16",
"^&	c #994812",
"/&	c #883D0F",
"(&	c #793B14",
"_&	c #2E363E",
":&	c #363535",
"<&	c #994E1E",
"[&	c #A54C15",
"}&	c #AF5118",
"|&	c #B15218",
"1&	c #B25218",
"2&	c #D1814A",
"3&	c #C87C47",
"4&	c #AB4E15",
"5&	c #C15C1D",
"6&	c #A64C14",
"7&	c #914211",
"8&	c #803B0F",
"9&	c #562F17",
"0&	c #20252B",
"a&	c #323941",
"b&	c #5F3E1A",
"c&	c #AE5117",
"d&	c #B9937E",
"e&	c #B9A08A",
"f&	c #9E8271",
"g&	c #BC9D88",
"h&	c #A17F71",
"i&	c #C29C84",
"j&	c #A67A6C",
"k&	c #BF9C80",
"l&	c #A98D7C",
"m&	c #C86423",
"n&	c #C66326",
"o&	c #A84E17",
"p&	c #81390D",
"q&	c #833A0D",
"r&	c #6A310C",
"s&	c #392A1A",
"t&	c #21272D",
"u&	c #313335",
"v&	c #75401E",
"w&	c #AC5923",
"x&	c #A64E16",
"y&	c #A84F16",
"z&	c #AB5117",
"A&	c #A94D15",
"B&	c #C05B1D",
"C&	c #DC8B6E",
"D&	c #AAA7A2",
"E&	c #A8886F",
"F&	c #AA836F",
"G&	c #B18877",
"H&	c #AC8872",
"I&	c #A6846C",
"J&	c #A38069",
"K&	c #B29175",
"L&	c #9E9383",
"M&	c #A17C78",
"N&	c #B25519",
"O&	c #BD5A1C",
"P&	c #A0887F",
"Q&	c #A74E17",
"R&	c #76340A",
"S&	c #7C3D14",
"T&	c #402B13",
"U&	c #1F2020",
"V&	c #252B32",
"W&	c #322B24",
"X&	c #783C16",
"Y&	c #984712",
"Z&	c #A95822",
"`&	c #AA5723",
" *	c #9D4A13",
".*	c #9E4A13",
"+*	c #AA5622",
"@*	c #D09690",
"#*	c #ABA89D",
"$*	c #AE8B74",
"%*	c #A9907C",
"&*	c #A38676",
"**	c #A18A76",
"=*	c #9E8A78",
"-*	c #A38774",
";*	c #A08471",
">*	c #AD9E8B",
",*	c #B49D93",
"'*	c #AE5118",
")*	c #8E3F0D",
"!*	c #9F4913",
"~*	c #9B4913",
"{*	c #823A0D",
"]*	c #7A370D",
"^*	c #472E15",
"/*	c #181619",
"(*	c #1F2429",
"_*	c #2B3239",
":*	c #2E353D",
"<*	c #2C2926",
"[*	c #5C3D1B",
"}*	c #964E20",
"|*	c #9D501F",
"1*	c #9A4E1E",
"2*	c #9C4E1E",
"3*	c #964C1D",
"4*	c #B67979",
"5*	c #989E8B",
"6*	c #A28166",
"7*	c #A28066",
"8*	c #9E7D64",
"9*	c #9E7D63",
"0*	c #9E8164",
"a*	c #A98C6C",
"b*	c #A7896C",
"c*	c #B0A28F",
"d*	c #9C8885",
"e*	c #8F4010",
"f*	c #864216",
"g*	c #893E0F",
"h*	c #873D0F",
"i*	c #80390D",
"j*	c #71330C",
"k*	c #3F2211",
"l*	c #16191C",
"m*	c #1C2126",
"n*	c #262D33",
"o*	c #2C333A",
"p*	c #22272D",
"q*	c #392921",
"r*	c #703B1A",
"s*	c #8F471B",
"t*	c #894419",
"u*	c #90481A",
"v*	c #926562",
"w*	c #8B716A",
"x*	c #89716E",
"y*	c #8B7B75",
"z*	c #92857C",
"A*	c #928179",
"B*	c #8C776D",
"C*	c #8A766D",
"D*	c #887970",
"E*	c #7F4445",
"F*	c #7D3D15",
"G*	c #7B3C15",
"H*	c #74330B",
"I*	c #74340B",
"J*	c #5A3814",
"K*	c #302317",
"L*	c #16191D",
"M*	c #1D2126",
"N*	c #262C32",
"O*	c #2D343C",
"P*	c #212328",
"Q*	c #36261D",
"R*	c #493119",
"S*	c #573018",
"T*	c #683718",
"U*	c #723814",
"V*	c #7D3F19",
"W*	c #82421A",
"X*	c #84431B",
"Y*	c #8A471C",
"Z*	c #914A1E",
"`*	c #944C1E",
" =	c #8B471D",
".=	c #81421A",
"+=	c #783D18",
"@=	c #684118",
"#=	c #633D14",
"$=	c #5A3816",
"%=	c #462F15",
"&=	c #392816",
"*=	c #1C1919",
"==	c #191D21",
"-=	c #272E35",
";=	c #313941",
">=	c #2A3139",
",=	c #1E2329",
"'=	c #26231F",
")=	c #322619",
"!=	c #392419",
"~=	c #382319",
"{=	c #3B2518",
"]=	c #5C3015",
"^=	c #583816",
"/=	c #3A2416",
"(=	c #332117",
"_=	c #332619",
":=	c #342719",
"<=	c #312417",
"[=	c #251F1A",
"}=	c #171A1E",
"|=	c #1B2025",
"1=	c #242A30",
"2=	c #1D2227",
"3=	c #1A1E23",
"4=	c #1E2328",
"5=	c #292F36",
"6=	c #293037",
"7=	c #282E35",
"8=	c #262C33",
"9=	c #2E353E",
". . . . . . . . . . . . . . . . . . . . . . . . . . . . . . . . . . . . . . . . . . . . . . . . ",
". . . . . . . . . . . . . + @ . . . . . . # $ % . . . . . . . . . . . . . . . . . . . . . . . . ",
". . . . . . . . . . . . & * = - . . . . . ; > , ' ) ! ~ . . . . . . . . . . . . . . . . . . . . ",
". . . . . . . . . . . { ] ^ / ( _ . . . . : < [ } | 1 2 . . . . . . . . . . . . . . . . . . . . ",
". . . . . . . . . . 3 4 5 6 7 8 9 . . . . 0 a b c d e f g h . . . . . . . . . . . . . . . . . . ",
". . . . . . . . . . i j k l m n o # . . . p q r s t u v w x . . . . . . . . . . . . . . . . . . ",
". . . . . . . . . . y z A B C D E F . . . G H I J K L M N O . . . . . . . . . . . . . . . . . . ",
". . . . . . . . . . P Q R S T U V W . . . X Y Z `  ...+.@.#.. . . . . . . . . . . . . . . . . . ",
". . . . . . . . . . $.%.&.*.=.-.;.>.. . . ,.'.).!.~.{.].^.#.. . . . . . . . . . . . . . . . . . ",
". . . . . . . . . . /.(._.B :.<.[.}.|.. . 1.2.3.4.5.6.7.8.9.. . . . . . . . . . . . . . . . . . ",
". . . . . . . . . . 0.a.b.c.d.e.f.g.h.i.j.k.l.m.n.o.p.q.r.s.. . . . . . . . . . . . . . . . . . ",
". . . . . . . . . . t.u.v.w.x.y.z.A.B.C.D.E.F.G.H.I.J.K.L.s.. . . . . M.N.. . . . . . . . . . . ",
". . . . . . . . . . . O.P.Q.R.S.T.U.V.W.X.Y.Z.`. +.+++@+#+s.. . . . $+%+&+*+. . . . . . . . . . ",
". . . . . . . . . . . =+-+;+>+,+'+)+!+~+{+]+^+/+(+_+:+<+[+s.. . . . }+|+1+2+3+. . . . . . . . . ",
". . . . . . . . . . . 4+5+6+7+8+9+0+a+b+c+d+e+f+g+h+i+j+k+s.. . . l+m+n+o+p+q+r+. . . . . . . . ",
". . . . . . . . . . . . s+t+u+v+w+x+y+w+z+A+B+C+D+E+F+G+H+I+. J+K+L+M+N+O+P+Q+s.. . . . . . . . ",
". . . . . . . . . . . . R+S+T+e.U+V+W+X+Y+Z+`+ @.@+@@@#@$@%@&@*@=@-@;@>@,@'@)@!@. . . . . . . . ",
". . . . . . . . . . . . . ~@{@]@^@/@y+(@Y+_@:@<@[@}@|@1@2@3@4@5@6@7@8@9@0@a@b@c@. . . . . . . . ",
". . . . . . . . . . . . . d@e@f@g@h@i@j@Y+k@l@m@l@n@o@p@q@r@s@t@u@v@w@x@y@z@A@B@. . . . . . . . ",
". . . . . . . . . . . . . C@D@E@F@G@H@I@v.J@K@L@K@M@N@O@P@Q@6+R@S@T@U@V@W@X@Y@9.. . . . . . . . ",
". . . . . . . . . . . . . . Z@`@ #R@H@j@v..#+#@###$#v.%#&#*#0+=#-#;#>#,#'#)#!#x . . . . . . . . ",
". . . . . . . . . . . . . ~#{#]#^#/#H@j@(#_#:#<#[#<#}#|#(@(@I@1#2#;#3#4#5#A@!@. . . . . . . . . ",
". . . . . . . . . . . . 6#7#8#9#0#a#b#v.v._#+#c#[#@#Y+|#d#j@(#e#f#g#h#i#j#k#l#. . . . . . . . . ",
". . . . . . . . . . . . m#n#o#p#q#r#z+I@s#t#u#_#v#L@Y+@#j@d#(#w#x#y#z#A#B#C#D#. . . . . . . . . ",
". . . . . . . . . . . E#F#G#H#I#J#K#z+Y+v#L#M#N#v#J@v#_#O#Y+I@j@f#T@O+P#Q#B@. . . . . . . . . . ",
". . . . . . . . . . . R#S#T#U#V#W#X#O#Y#Z#`# $.$+$@$#$$$%$&$v.I@*$=$-$w@;$>$. . . . . . . . . . ",
". . . . . . . . . . ,$'$)$!$~${$b#s#:#+$]$^$/$($_$:$<$[$}$|$(#Y+j@1$2$3$4$5$6$. . . . . . . . . ",
". . . . . . . . . 7$8$9$0$a$b$c$d$}#+##$e$f$g$h$i$j$k$l$m$n$v.}#v.(@Y#o$3$p$q$. . . . . . . . . ",
". . . . . . . . . r$s$8#t$u$v$w$}#}#v#x$y$z$A$B$C$D$E$F$G$H$v.}#Y+j@X+I$2$3$J$K$. . . . . . . . ",
". . . . . . . . L$M$N$O$P$Q$c$R$}#Y+O#v.I$S$T$U$V$W$ $X$Y$Z$}#}#s#}#(@Y#*$`$ %.%+%. . . . . . . ",
". . . . . . . . @%#%$%%%&%*%=%s#}#Y+s#K@-%Z+-%.#v#c#v#c#+#v#O#Y+##I@Y#}#;%>%,%'%)%h . . . . . . ",
". . . . . . . . !%~%{%]%^%/%}#s#Y+}#v#Y#Z#X$+$(%Y$$$Z#@$_%:%O#K@}#v.(@+#<%[%}%U@|%9.. . . . . . ",
". . . . . . . 1%2%3%4%5%6%=%s#}#Y+}#:##$7%8%9%0%a%b%c%d%e%f%s#v#s#Y+v.I@I@-#g%h%i%j%k%. . . . . ",
". . . . . . . l%m%n%o%p%q%v.s#s#v.s#v#r%s%t%u%v%w%x%y%z%A%B%Y++#s#Y+v#O#=#C%D%E%F%G%H%. . . . . ",
". . . . . . . I%J%K%L%*%x+(#s#}#v.Y+v#Y$M%N%O%P%Q%R%S%T%U%V%}#v#}#s#I@s#w#W%X%Y%Z%`%9.. . . . . ",
". . . . . . .  &.&+&@&z+(@j@v.v.(#v.s#Y##&$&V$%&#&W$#&%&Y$&&}#O#}#Y+I@(@*&=&-&;&>&A@,&. . . . . ",
". . . . . . . '&)&!&~&w#1#(@I@v.(#(#(#d#}#t#+#J@}#@#}#L@}#}#}#}#}#K@(#1#{&]&^&/&(&A@_&. . . . . ",
". . . . . . . . :&<&[&}&|&1&e#j@I@v.(#(#v#@#v.2&X+3&(@3&4&I@I@(#Y+}#5&6&o+z#7&8&9&0&s.. . . . . ",
". . . . . . . . a&b&Q.`$c&}&|&1&e#e#d#[#d&e&f&g&h&i&j&k&l&(#u+e#X#~&m&n&o&p&q&r&s&t&#.. . . . . ",
". . . . . . . . . u&v&w&-&x&y&z&f#A&B&C&D&E&F&G&H&I&J&K&L&M&1&A&N&o+O&P&Q&R&S&T&U&V&x . . . . . ",
". . . . . . . . . l#W&X&Y&Z&`& *.*+*n&@*#*$*%*&***=*-*;*>*,*'*)*!*~*Y&V@{*]*^*/*(*_*h . . . . . ",
". . . . . . . . . . :*<*[*}*|*1*2*3*I$4*5*6*7*8*9*0*a*b*c*d*e*f*g*h*q&i*j*k*l*m*n*l#. . . . . . ",
". . . . . . . . . . k%o*p*q*r*s*s*t*u*X%v*w*x*y*z*A*B*C*D*E*F*G*H*I*W@J*K*L*M*N*s.. . . . . . . ",
". . . . . . . . . . . 4+O*k#P*Q*R*S*T*U*V*W*X*Y*Z*`* =.=+=@=#=$=%=&=*=l*==A@-=W . . . . . . . . ",
". . . . . . . . . . . . . ;=>=G%,=)#'=)=!=~=)={=]=^=/=(=_=:=<=[=}===|=A@1=_*F . . . . . . . . . ",
". . . . . . . . . . . . . . h W o*-=1=t&(*2=M*m*)#3=3=)#m*M*2=4=`%k#5=O*l#h . . . . . . . . . . ",
". . . . . . . . . . . . . . . . . # l#_&!@>=C#6=7=8=8=7=6=C#C#o*9=l#k%. . . . . . . . . . . . . ",
"                                                                                                "};
