/* XPM */
static const char  * string_violin_cello_xpm[] = {
"48 48 599 2",
"  	c None",
". 	c #969696",
"+ 	c #959595",
"@ 	c #939293",
"# 	c #8B8587",
"$ 	c #908D8D",
"% 	c #909191",
"& 	c #8B8C8E",
"* 	c #8C8D8E",
"= 	c #919192",
"- 	c #838082",
"; 	c #766E72",
"> 	c #7E7B7D",
", 	c #949494",
"' 	c #7B7F82",
") 	c #75797D",
"! 	c #808183",
"~ 	c #69676B",
"{ 	c #625F65",
"] 	c #6F6F74",
"^ 	c #858688",
"/ 	c #939494",
"( 	c #797D80",
"_ 	c #5A6167",
": 	c #5A5F63",
"< 	c #595E63",
"[ 	c #5F646A",
"} 	c #7C7E81",
"| 	c #929293",
"1 	c #929393",
"2 	c #7C7F82",
"3 	c #5F656A",
"4 	c #575C62",
"5 	c #585D63",
"6 	c #7E8082",
"7 	c #7C8084",
"8 	c #646B72",
"9 	c #586068",
"0 	c #5C6369",
"a 	c #596067",
"b 	c #6D7176",
"c 	c #87888A",
"d 	c #7D8084",
"e 	c #666B74",
"f 	c #5A616B",
"g 	c #626870",
"h 	c #7A7D81",
"i 	c #868889",
"j 	c #909192",
"k 	c #7F8185",
"l 	c #646A73",
"m 	c #636971",
"n 	c #959494",
"o 	c #929292",
"p 	c #929090",
"q 	c #929190",
"r 	c #929191",
"s 	c #919191",
"t 	c #808387",
"u 	c #60666F",
"v 	c #585F6A",
"w 	c #626971",
"x 	c #7B7E82",
"y 	c #918D8C",
"z 	c #868180",
"A 	c #857C78",
"B 	c #887C77",
"C 	c #867F7C",
"D 	c #7F7E7F",
"E 	c #919090",
"F 	c #919293",
"G 	c #5E666F",
"H 	c #545C66",
"I 	c #5F666E",
"J 	c #7E8084",
"K 	c #959493",
"L 	c #938C89",
"M 	c #896B5E",
"N 	c #885941",
"O 	c #8B5234",
"P 	c #8E502F",
"Q 	c #885134",
"R 	c #745E55",
"S 	c #827874",
"T 	c #8C8A8A",
"U 	c #7C8085",
"V 	c #606872",
"W 	c #555D68",
"X 	c #5D646C",
"Y 	c #808285",
"Z 	c #949393",
"` 	c #908885",
" .	c #87695E",
"..	c #915134",
"+.	c #9D471A",
"@.	c #A54512",
"#.	c #A34212",
"$.	c #963C15",
"%.	c #823F26",
"&.	c #705246",
"*.	c #696466",
"=.	c #5F6771",
"-.	c #59636E",
";.	c #626972",
">.	c #909091",
",.	c #939394",
"'.	c #8B8889",
").	c #81706C",
"!.	c #864B38",
"~.	c #9A3F1A",
"{.	c #A6400E",
"].	c #A9410C",
"^.	c #A23C0F",
"/.	c #933514",
"(.	c #7F341C",
"_.	c #644640",
":.	c #565259",
"<.	c #555B67",
"[.	c #636972",
"}.	c #7D8185",
"|.	c #8A8B8C",
"1.	c #7B7273",
"2.	c #75504B",
"3.	c #8A331D",
"4.	c #9C3510",
"5.	c #A0390F",
"6.	c #9A3A11",
"7.	c #8F3816",
"8.	c #813822",
"9.	c #6C3F39",
"0.	c #5D4E55",
"a.	c #5B525A",
"b.	c #625758",
"c.	c #746966",
"d.	c #8E8B89",
"e.	c #7F8082",
"f.	c #6D595B",
"g.	c #73332A",
"h.	c #8B220C",
"i.	c #952E11",
"j.	c #912F11",
"k.	c #873014",
"l.	c #7B3521",
"m.	c #6C423A",
"n.	c #595563",
"o.	c #5F5967",
"p.	c #725451",
"q.	c #80503B",
"r.	c #855C42",
"s.	c #887B72",
"t.	c #878182",
"u.	c #775654",
"v.	c #76281C",
"w.	c #892510",
"x.	c #8B2811",
"y.	c #822A16",
"z.	c #763021",
"A.	c #673F3B",
"B.	c #5A5563",
"C.	c #5F5F73",
"D.	c #6F5A62",
"E.	c #8E4931",
"F.	c #A54613",
"G.	c #9E5320",
"H.	c #7C6553",
"I.	c #7F7E7E",
"J.	c #898080",
"K.	c #775652",
"L.	c #712B1F",
"M.	c #88240F",
"N.	c #842917",
"O.	c #773125",
"P.	c #664143",
"Q.	c #5B5362",
"R.	c #615E71",
"S.	c #705E68",
"T.	c #854835",
"U.	c #9D461D",
"V.	c #AF4F11",
"W.	c #AE5813",
"X.	c #966130",
"Y.	c #87807B",
"Z.	c #8C8C8E",
"`.	c #88898B",
" +	c #838687",
".+	c #898485",
"++	c #7F6766",
"@+	c #75413A",
"#+	c #792A1B",
"$+	c #7F2B19",
"%+	c #753328",
"&+	c #644347",
"*+	c #5B5262",
"=+	c #5F5C6E",
"-+	c #6F5B62",
";+	c #844A38",
">+	c #96411D",
",+	c #A84815",
"'+	c #B65710",
")+	c #B46112",
"!+	c #9D632E",
"~+	c #8C8075",
"{+	c #93918F",
"]+	c #8E8C8C",
"^+	c #7A767A",
"/+	c #726D72",
"(+	c #7D797A",
"_+	c #868182",
":+	c #6D6669",
"<+	c #725C5B",
"[+	c #72433F",
"}+	c #752C22",
"|+	c #7D2717",
"1+	c #793122",
"2+	c #634242",
"3+	c #585261",
"4+	c #5D5A6E",
"5+	c #6D5860",
"6+	c #834C3D",
"7+	c #953F1A",
"8+	c #A34311",
"9+	c #AE5010",
"0+	c #B85C0D",
"a+	c #9A6434",
"b+	c #897F76",
"c+	c #919292",
"d+	c #868688",
"e+	c #868081",
"f+	c #7D6F6F",
"g+	c #6B5153",
"h+	c #634346",
"i+	c #694F4F",
"j+	c #705857",
"k+	c #623D3D",
"l+	c #61312C",
"m+	c #69281F",
"n+	c #762215",
"o+	c #7F2514",
"p+	c #793527",
"q+	c #5F4C50",
"r+	c #5D5967",
"s+	c #6B5862",
"t+	c #814D43",
"u+	c #96411B",
"v+	c #A24010",
"w+	c #AB4B0D",
"x+	c #B4580B",
"y+	c #B75D0B",
"z+	c #AD5D19",
"A+	c #956641",
"B+	c #89837F",
"C+	c #939291",
"D+	c #939292",
"E+	c #868384",
"F+	c #696266",
"G+	c #694E4D",
"H+	c #6A433F",
"I+	c #672722",
"J+	c #631914",
"K+	c #5E241E",
"L+	c #5C2A23",
"M+	c #641711",
"N+	c #641E14",
"O+	c #6D2315",
"P+	c #7A2513",
"Q+	c #832A16",
"R+	c #833924",
"S+	c #754841",
"T+	c #735455",
"U+	c #814F46",
"V+	c #954326",
"W+	c #A44211",
"X+	c #AB490B",
"Y+	c #B0550C",
"Z+	c #B65B0B",
"`+	c #B25D16",
" @	c #A46331",
".@	c #94715B",
"+@	c #928E8B",
"@@	c #939393",
"#@	c #888383",
"$@	c #74605F",
"%@	c #6F4039",
"&@	c #73281A",
"*@	c #702113",
"=@	c #701B11",
"-@	c #6B1911",
";@	c #5E1B13",
">@	c #541B13",
",@	c #5A1B14",
"'@	c #6D281A",
")@	c #84341D",
"!@	c #91371B",
"~@	c #913314",
"{@	c #953513",
"]@	c #8C3B26",
"^@	c #8E3F27",
"/@	c #99401F",
"(@	c #A54312",
"_@	c #AD4B09",
":@	c #B15B0A",
"<@	c #B1570A",
"[@	c #A85C1C",
"}@	c #9B6539",
"|@	c #94755E",
"1@	c #958E89",
"2@	c #8F8F90",
"3@	c #686D73",
"4@	c #716C6E",
"5@	c #795F5A",
"6@	c #733A31",
"7@	c #79200F",
"8@	c #7B2310",
"9@	c #7D2212",
"0@	c #7F2115",
"a@	c #7F2019",
"b@	c #78201B",
"c@	c #691F15",
"d@	c #6A2015",
"e@	c #782B1C",
"f@	c #8C3E29",
"g@	c #97482C",
"h@	c #954020",
"i@	c #953413",
"j@	c #8D2D15",
"k@	c #933714",
"l@	c #9A4114",
"m@	c #9B4819",
"n@	c #954E1E",
"o@	c #97531E",
"p@	c #8D552B",
"q@	c #82634C",
"r@	c #88786D",
"s@	c #938B86",
"t@	c #969493",
"u@	c #969595",
"v@	c #949595",
"w@	c #717175",
"x@	c #77625F",
"y@	c #7B453B",
"z@	c #732114",
"A@	c #7A1D0C",
"B@	c #7D2211",
"C@	c #7F2313",
"D@	c #7F2413",
"E@	c #802414",
"F@	c #802215",
"G@	c #7C1F11",
"H@	c #771E10",
"I@	c #7A2519",
"J@	c #843627",
"K@	c #8F4830",
"L@	c #954D2D",
"M@	c #963C19",
"N@	c #882E10",
"O@	c #8A3813",
"P@	c #8E4621",
"Q@	c #8D5739",
"R@	c #896753",
"S@	c #856957",
"T@	c #74645B",
"U@	c #7D7773",
"V@	c #8C8A89",
"W@	c #898A8B",
"X@	c #736E6F",
"Y@	c #76514B",
"Z@	c #793125",
"`@	c #771B0D",
" #	c #792013",
".#	c #7B2215",
"+#	c #7A2212",
"@#	c #792311",
"##	c #7A2211",
"$#	c #7D2111",
"%#	c #811F0F",
"&#	c #7D1F10",
"*#	c #7A2115",
"=#	c #7F2C1F",
"-#	c #8B3D28",
";#	c #944A2B",
">#	c #8F3F1D",
",#	c #7F3012",
"'#	c #7F391C",
")#	c #85553D",
"!#	c #8C7265",
"~#	c #8D8480",
"{#	c #898484",
"]#	c #7E7F82",
"^#	c #8A8A8C",
"/#	c #808284",
"(#	c #6A6465",
"_#	c #6A3F38",
":#	c #732518",
"<#	c #7A1D0F",
"[#	c #792116",
"}#	c #772116",
"|#	c #712010",
"1#	c #701F10",
"2#	c #701F12",
"3#	c #711F12",
"4#	c #742010",
"5#	c #782514",
"6#	c #7B2415",
"7#	c #832816",
"8#	c #8D321A",
"9#	c #923B1E",
"0#	c #82381B",
"a#	c #792B14",
"b#	c #743B2A",
"c#	c #7D6259",
"d#	c #8D8784",
"e#	c #8C8C8D",
"f#	c #6C6A6B",
"g#	c #663E39",
"h#	c #702316",
"i#	c #7A1E0F",
"j#	c #782315",
"k#	c #712115",
"l#	c #6A1E12",
"m#	c #641B12",
"n#	c #5E1B14",
"o#	c #5B1D16",
"p#	c #5C2215",
"q#	c #692818",
"r#	c #7A2D16",
"s#	c #892D10",
"t#	c #922E10",
"u#	c #8D3017",
"v#	c #772B17",
"w#	c #772417",
"x#	c #6D423E",
"y#	c #726769",
"z#	c #848688",
"A#	c #6C6A6C",
"B#	c #623F39",
"C#	c #6C2417",
"D#	c #791E0F",
"E#	c #702015",
"F#	c #651D14",
"G#	c #581B16",
"H#	c #4A1B17",
"I#	c #3F1C17",
"J#	c #401E19",
"K#	c #58251B",
"L#	c #762B17",
"M#	c #8B2E11",
"N#	c #933012",
"O#	c #883117",
"P#	c #692D17",
"Q#	c #6C3522",
"R#	c #785C55",
"S#	c #898180",
"T#	c #7B7A7B",
"U#	c #685453",
"V#	c #6A312A",
"W#	c #761E11",
"X#	c #772112",
"Y#	c #6D2014",
"Z#	c #611C15",
"`#	c #511B17",
" $	c #461C18",
".$	c #441D19",
"+$	c #471F1B",
"@$	c #64261B",
"#$	c #802B16",
"$$	c #932F13",
"%$	c #9A3215",
"&$	c #943219",
"*$	c #7D2C11",
"=$	c #77301A",
"-$	c #775249",
";$	c #837977",
">$	c #8D8C8D",
",$	c #766F70",
"'$	c #674846",
")$	c #682920",
"!$	c #732113",
"~$	c #691E13",
"{$	c #571D16",
"]$	c #4C1D18",
"^$	c #4D1D18",
"/$	c #571E18",
"($	c #612219",
"_$	c #742815",
":$	c #8A2E11",
"<$	c #973310",
"[$	c #9D3613",
"}$	c #9D3615",
"|$	c #923110",
"1$	c #822B12",
"2$	c #744A41",
"3$	c #7A7070",
"4$	c #8B8B8C",
"5$	c #888788",
"6$	c #746767",
"7$	c #643F3C",
"8$	c #63241D",
"9$	c #5D1D17",
"0$	c #4F1E18",
"a$	c #4E1F18",
"b$	c #5A1F17",
"c$	c #6C2017",
"d$	c #752415",
"e$	c #802A11",
"f$	c #8E310F",
"g$	c #98370F",
"h$	c #9D3A10",
"i$	c #9F3A11",
"j$	c #9A3711",
"k$	c #83361E",
"l$	c #79564F",
"m$	c #807878",
"n$	c #8E8E8F",
"o$	c #8A8585",
"p$	c #716262",
"q$	c #56383A",
"r$	c #4B2324",
"s$	c #4C201A",
"t$	c #572016",
"u$	c #692016",
"v$	c #7A2217",
"w$	c #7D2714",
"x$	c #862D11",
"y$	c #8F3410",
"z$	c #97390F",
"A$	c #9C3C0F",
"B$	c #9E3C0F",
"C$	c #963911",
"D$	c #7C4A38",
"E$	c #84716B",
"F$	c #908C8B",
"G$	c #8B8A8B",
"H$	c #676569",
"I$	c #423A3F",
"J$	c #4E2723",
"K$	c #662117",
"L$	c #782115",
"M$	c #7E2516",
"N$	c #822B14",
"O$	c #8A3113",
"P$	c #913613",
"Q$	c #973911",
"R$	c #9C3A0F",
"S$	c #9D3A0E",
"T$	c #913713",
"U$	c #7A564A",
"V$	c #8B8280",
"W$	c #8E8E8E",
"X$	c #646365",
"Y$	c #543E3F",
"Z$	c #68291E",
"`$	c #7E220F",
" %	c #852712",
".%	c #8C2F14",
"+%	c #8C3010",
"@%	c #913311",
"#%	c #953411",
"$%	c #9A340D",
"%%	c #993610",
"&%	c #854932",
"*%	c #756764",
"=%	c #898888",
"-%	c #959495",
";%	c #8A8A8A",
">%	c #746665",
",%	c #6F443C",
"'%	c #782D1A",
")%	c #842309",
"!%	c #8A2A0F",
"~%	c #8C2C10",
"{%	c #8E2B0D",
"]%	c #8D3115",
"^%	c #864530",
"/%	c #7F6259",
"(%	c #8A8483",
"_%	c #8C8786",
":%	c #806C68",
"<%	c #784F45",
"[%	c #783827",
"}%	c #7C2B15",
"|%	c #7E2B17",
"1%	c #7E2C19",
"2%	c #7E3120",
"3%	c #7D4134",
"4%	c #7E5F58",
"5%	c #8E8A89",
"6%	c #7F7472",
"7%	c #6E5853",
"8%	c #683D34",
"9%	c #6D4844",
"0%	c #755E5D",
"a%	c #877E7E",
"b%	c #959594",
"c%	c #77777A",
"d%	c #656266",
"e%	c #666569",
"f%	c #6C676A",
"g%	c #6F6D70",
"h%	c #7D7E80",
". . . . . . . . . . . . . . . . . . . . . . . . + + + + . + + + + + . . . . . . . . . . . . . . ",
". . . . . . . . . . . . . . . . . . . . . . . . . + + + + + . + + + . + + + + . . . . . . . . . ",
". . . . . . . . . . . . . . . . . . + + . . . . . . . . + + . + + + . + + + + . . . . . . . . . ",
". . . . . . . . . . . . . . . . . . + + + + + . . . . . . . . . . . . . . + + + . . . . . . . . ",
". . . . . . . . . . . . . . . . . + + + + + + + . . . . . . . . . . . . . + + + . . . . . . . . ",
". . . . . . . . . . . . . . . . + . + + + + + . . . . . . . . . . . . . . + + + . + . . . . . . ",
". . . . . . . . . . . . . . . . . . . . . . . . . . . . . . . . . . . . . + @ # $ + + . . . . . ",
". . . . . . . . . . . . . + + + . . . . . . . . . . . . . . . . . . % & * = - ; > * , + + . . . ",
". . . . . . . . . . . . + + + + . . . . . . . . . . . . . . . . . . & ' ) ! ~ { ] ^ + + + + . . ",
". . . . . . . . . . . . + + . . . . . . . . . . . . . . . . . . . . / ( _ : < [ } | . + + + . . ",
". . . . . . . . . . . + + . . . . . . . . . . . . . . . . . . . . . 1 2 3 4 5 [ 6 , . + + + . . ",
". . . . . . . . . . . . . . . . . . . . . . . . . . . . . . . . . 1 7 8 9 0 a b c + . . . . . . ",
". . . . . . . . + + + . . . . . . . . . . . . . . . . . . . . + 1 d e f g h h i = . . . . . . . ",
". . . . . . . . + + + . . . . . . . . . . . . . . . . . . . + j k l f m h | , + . . . . . . . . ",
". . . . . . . . + . . . . . . . . . . . + n o p q r s + . + j t u v w x | . . . . . . . . . . . ",
". . . . . + + . . . . . . . . . . . . + + y z A B C D E + F t G H I J | . . . . . . . . . . + . ",
". . . . . + + . . . . . . . . . . . . K L M N O P Q R S T U V W X Y j + . . . . . . . . . . . . ",
". . . . . + + . . . . . . . . . . . Z `  ...+.@.#.$.%.&.*.=.-.;.Y >.+ . . . . . . . . . . + . + ",
". . . . + + . . . . . . . . . . . ,.'.).!.~.{.].^./.(._.:.<.[.}.o + . . . . . . . . . . . . . . ",
". . . . + + . . . . . . . . . . + |.1.2.3.4.5.6.7.8.9.0.a.b.c.d.+ . . . . . . . . . . . . . . . ",
". . . . . . . . . . . . . . . . + e.f.g.h.i.j.k.l.m.n.o.p.q.r.s.E + . . . . . . . . . . . . . + ",
". . . . + . . . . . . . . . . . . t.u.v.w.x.y.z.A.B.C.D.E.F.G.H.I.% . . . . . . . . . . + . . . ",
". . . . . . . . . . . . . . . . . J.K.L.M.N.O.P.Q.R.S.T.U.V.W.X.Y.r . . . . . . . . . . + + . . ",
". . . . . . . . . . . Z.`.>.+  +.+++@+#+$+%+&+*+=+-+;+>+,+'+)+!+~+{+. . . . . . . . . + + + + . ",
"+ + . . . . . + + + ]+^+/+(+_+:+<+[+}+|+1+2+3+4+5+6+7+8+9+0+)+a+b+{+. . . . . . . . + + + + + . ",
"+ + . . . . + c+d+e+f+g+h+i+j+k+l+m+n+o+p+q+r+s+t+u+v+w+x+y+z+A+B+C+. . . . . . . . + + + + + . ",
". . . . + + D+E+F+G+H+I+J+K+L+M+N+O+P+Q+R+S+T+U+V+W+X+Y+Z+`+ @.@+@n . . . . . . . + + . . . . . ",
". . . . c+@@#@$@%@&@*@=@-@;@>@,@'@)@!@~@{@]@^@/@(@_@:@<@[@}@|@1@+ + . . . . . . . + + . . . . . ",
". . + 2@3@4@5@6@7@8@9@0@a@b@c@d@e@f@g@h@i@j@k@l@m@n@o@p@q@r@s@t@u@. . . . . . . . + + . . . . . ",
". + v@o w@x@y@z@A@B@C@D@E@F@G@H@I@J@K@L@M@N@O@P@Q@R@S@T@U@V@K . . . . . . . . . . . . . + . . . ",
"+ + @@W@X@Y@Z@`@ #.#+#@###$#%#&#*#=#-#;#>#,#'#)#!#~#{#]#^#,.. . . . . . . . . . . . . . . . . . ",
"+ + 1 /#(#_#:#<#[#}#|#1#2#3#4#5#6#7#8#9#0#a#b#c#d#. . + + . . . . . . . . . . + + . . . . . . . ",
". . , e#f#g#h#i#j#k#l#m#n#o#p#q#r#s#t#u#v#w#x#y#z#. . . . . . . . . . . . + + + + . . . . . . . ",
". . + s A#B#C#D#*#E#F#G#H#I#J#K#L#M#N#O#P#Q#R#S#+ . . . . . . . . . . . . + + + + . . . . . . . ",
". . + v@T#U#V#W#X#Y#Z#`# $.$+$@$#$$$%$&$*$=$-$;$s . . . . . . . . . . . . + + + + . . . . . . . ",
"+ + + + >$,$'$)$!$~${$]$^$/$($_$:$<$[$}$|$1$2$3$4$. . . . . . . . . . . . . + . . . . . . . . . ",
". + + + . 5$6$7$8$9$0$a$b$c$d$e$f$g$h$i$j$k$l$m$n$. . . . . . . . . + + . . . . . . . . . . . . ",
". + . + . . o$p$q$r$s$t$u$v$w$x$y$z$A$B$C$D$E$F$. . . . . . . . . . + + . . . . . . . . . . . . ",
". . + + + . . G$H$I$J$K$L$M$N$O$P$Q$R$S$T$U$V$+ . . . . . . . . . . + + . . . . . . . . . . . . ",
". . + + + . . + W$X$Y$Z$`$ %.%+%@%#%$%%%&%*%=%+ . . . . . . . . . . . + . . . . . . . . . . . . ",
". . + + + . . . -%;%>%,%'%)%!%!%~%{%]%^%/%(%o + . . . . . . . . . . . . . . . . . . . . . . . . ",
". . . . . . . . . . _%:%<%[%}%|%1%2%3%4%V$D++ . . . . . . . . . . . . . . . . . . . . . . . . . ",
". . . . . . + . . . . 5%6%7%8%_#9.9%0%a%b%+ . . . . . + + . . . . . . . . . . . . . . . . . . . ",
". . . . . . . . + + + + e#c%d%e%f%g%h%+ . . . . + + + + . . . . . . . . . . . . . . . . . . . . ",
". . . . . . . + + + + . + , >.2@, + + + . . + + + . . . . . . . . . . . . . . . . . . . . . . . ",
". . . . . . . + + + + . + + + + + + + + . . . . . . . . . . . . . . . . . . . . . . . . . . . . ",
". . . . . . . + + + . + + + . . . . + + . . . . . . . . . . . . . . . . . . . . . . . . . . . . ",
". . . . . . . . . . . . . . + . . . . . . . + . . . . . . . . . . . . . . . . . . . . . . . . . "};
