<svg width="200" height="200" viewBox="0 0 200 200" fill="none" xmlns="http://www.w3.org/2000/svg">
<rect width="200" height="200" rx="45" fill="url(#paint0_radial_17_38)"/>
<g clip-path="url(#clip0_17_38)">
<g opacity="0.9">
<path d="M117.36 70.1352C119.236 70.1352 121.238 68.7524 121.238 65.6933C121.238 56.4324 128.035 46.8362 139.377 46.8362C150.72 46.8362 157.517 56.4324 157.517 65.6933C157.517 68.7524 159.519 70.1352 161.395 70.1352C163.272 70.1352 165.274 68.7524 165.274 65.6933C165.274 50.7333 153.889 39 139.377 39C124.866 39 113.481 50.7333 113.481 65.6933C113.481 67.0762 113.898 68.2495 114.732 69.0457C115.441 69.7162 116.4 70.1352 117.36 70.1352V70.1352Z" fill="#EFEFEF"/>
<path d="M139.377 71.9371C141.796 71.9371 143.756 69.9672 143.756 67.5371C143.756 65.1071 141.796 63.1371 139.377 63.1371C136.959 63.1371 134.999 65.1071 134.999 67.5371C134.999 69.9672 136.959 71.9371 139.377 71.9371Z" fill="#EFEFEF"/>
<path d="M161.729 83.1257C159.852 83.1257 157.851 84.341 157.851 87.0229V121.133C157.851 137.057 146.341 141.248 140.253 141.248C138.335 141.248 133.456 140.87 129.244 137.56C124.574 133.83 122.197 127.712 122.197 119.373L121.905 107.095C121.905 88.2381 109.895 79.7733 98.0104 79.7733C90.8379 79.7733 82.5812 84.0476 78.3695 89.8724L77.9524 90.459L77.5354 89.8724C73.5739 84.341 65.484 80.4857 57.8945 80.4857C50.7219 80.4857 34 83.2933 34 109.232V145.145C34 147.282 35.7514 149.042 37.8782 149.042C40.0049 149.042 41.7563 147.282 41.7563 145.145V109.232C41.7563 101.648 43.4243 96.0743 46.7604 92.5543C49.4709 89.7048 53.1823 88.28 57.8945 88.28C67.986 88.28 74.0326 97.4571 74.0326 106.341V145.145C74.0326 147.282 75.784 149.042 77.9107 149.042C80.0375 149.042 81.8306 147.282 81.8306 145.145V106.341C81.8306 97.4571 87.8772 88.28 97.9687 88.28C101.764 88.28 114.107 89.579 114.107 106.341L114.399 119.331C114.399 133.034 121.154 149 140.211 149C148.843 149 165.274 143.175 165.607 121.091V87.0229C165.607 84.341 163.606 83.1257 161.729 83.1257V83.1257Z" fill="#EFEFEF"/>
</g>
</g>
<defs>
<radialGradient id="paint0_radial_17_38" cx="0" cy="0" r="1" gradientUnits="userSpaceOnUse" gradientTransform="translate(75 3.97294e-06) rotate(59.7916) scale(214.649 691.13)">
<stop stop-color="#5529E5"/>
<stop offset="1" stop-color="#110241"/>
</radialGradient>
<clipPath id="clip0_17_38">
<rect width="131.607" height="110" fill="white" transform="translate(34 39)"/>
</clipPath>
</defs>
</svg>
