/* XPM */
static const char *document_open_large[] = {
/* columns rows colors chars-per-pixel */
"32 32 248 2",
"   c gray29",
".  c #4B4B4B",
"X  c gray30",
"o  c #4E4E4E",
"O  c gray31",
"+  c #505050",
"@  c #515151",
"#  c gray32",
"$  c #535353",
"%  c #555555",
"&  c #585858",
"*  c #5A5A5A",
"=  c #5B5B5B",
"-  c gray36",
";  c #5D5D5D",
":  c gray37",
">  c #5F5F5F",
",  c #5C6571",
"<  c #606060",
"1  c gray38",
"2  c #626262",
"3  c #646464",
"4  c gray40",
"5  c #676767",
"6  c #686868",
"7  c DimGray",
"8  c #6A6A6A",
"9  c #6C6C6C",
"0  c gray43",
"q  c #6F6F6F",
"w  c #717171",
"e  c #727272",
"r  c #747474",
"t  c #767676",
"y  c #777777",
"u  c #797979",
"i  c gray49",
"p  c #7E7E7E",
"a  c #7F7F7F",
"s  c #3F6089",
"d  c #326098",
"f  c #3665A2",
"g  c #3665A3",
"h  c #3465A4",
"j  c #3565A4",
"k  c #3566A4",
"l  c #3666A5",
"z  c #3667A5",
"x  c #3766A6",
"c  c #3769A6",
"v  c #3769A7",
"b  c #376AA7",
"n  c #3D6AA2",
"m  c #3A69A5",
"M  c #3969A6",
"N  c #3868A7",
"B  c #3969A7",
"V  c #3B6CA8",
"C  c #3D6DAA",
"Z  c #3C6EAA",
"A  c #4D6686",
"S  c #436692",
"D  c #406EA6",
"F  c #4C75AA",
"G  c #4E7AB1",
"H  c #537DB0",
"J  c #5782B8",
"K  c #5483BA",
"L  c #5986BC",
"P  c #6082AD",
"I  c #768EAE",
"U  c #638CBD",
"Y  c #648DBE",
"T  c #5C8DC3",
"R  c #6D92C0",
"E  c #6093CA",
"W  c #6194C9",
"Q  c #6094CA",
"!  c #6194CA",
"~  c #6195CA",
"^  c #6295CA",
"/  c #6697CB",
"(  c #6698CB",
")  c #6798CB",
"_  c #6798CC",
"`  c #6898CC",
"'  c #6B9ACD",
"]  c #6A9BCD",
"[  c #6B9BCD",
"{  c #6C9ACD",
"}  c #6C9BCD",
"|  c #6D9BCD",
" . c #6D9CCD",
".. c #739BC9",
"X. c #779DCA",
"o. c #709ECE",
"O. c #719ECE",
"+. c #729FCF",
"@. c #739FCF",
"#. c #73A0CF",
"$. c #77A0CD",
"%. c #74A1CF",
"&. c #7FA1CA",
"*. c #7DA3CF",
"=. c #74A0D0",
"-. c #74A1D0",
";. c #75A1D0",
":. c #75A1D1",
">. c #76A2D0",
",. c #77A2D1",
"<. c #77A3D1",
"1. c #78A3D1",
"2. c #79A4D1",
"3. c #7AA4D2",
"4. c #7AA5D2",
"5. c #7BA5D2",
"6. c #7BA6D2",
"7. c #7CA6D2",
"8. c #7DA6D3",
"9. c #7DA7D3",
"0. c #7EA7D3",
"q. c #7FA8D3",
"w. c #7FA8D4",
"e. c #818181",
"r. c gray52",
"t. c #868686",
"y. c #898989",
"u. c gray54",
"i. c #8B8B8B",
"p. c #8D8D8D",
"a. c gray56",
"s. c #909090",
"d. c #929292",
"f. c #939393",
"g. c gray58",
"h. c #9B9B9B",
"j. c #8898AD",
"k. c #98A1AD",
"l. c #8FA3BC",
"z. c #A0A0A0",
"x. c gray63",
"c. c #A2A2A2",
"v. c gray64",
"b. c #A4A4A4",
"n. c gray65",
"m. c #A7A7A7",
"M. c gray66",
"N. c #A9A9A9",
"B. c gray67",
"V. c #ACACAC",
"C. c gray68",
"Z. c #AEAEAE",
"A. c #AFAFAF",
"S. c gray69",
"D. c #B1B1B1",
"F. c gray70",
"G. c #B3B5B7",
"H. c #B4B4B4",
"J. c #B6B6B6",
"K. c #B7B7B7",
"L. c gray72",
"P. c #B9B9B9",
"I. c gray73",
"U. c #BBBBBB",
"Y. c #BCBCBC",
"T. c gray74",
"R. c gray",
"E. c gray75",
"W. c #80A8D4",
"Q. c #80A9D4",
"!. c #81A9D4",
"~. c #81AAD4",
"^. c #82AAD4",
"/. c #83AAD5",
"(. c #82ABD5",
"). c #83ABD5",
"_. c #84ABD5",
"`. c #86ACD6",
"'. c #8AAAD1",
"]. c #88AED6",
"[. c #8FAFD4",
"{. c #8BB1D7",
"}. c #8EB2D9",
"|. c #8FB2D9",
" X c #90B3D9",
".X c #96B6D9",
"XX c #96B7DC",
"oX c #9BB9DA",
"OX c #9BBBDD",
"+X c #9DBCDE",
"@X c #AEB7C2",
"#X c #A1BFDF",
"$X c #A5C1DF",
"%X c #A3C0E0",
"&X c #A9C5E2",
"*X c #B1CAE4",
"=X c #BBCFE6",
"-X c #C0C0C0",
";X c #C1C1C1",
":X c gray76",
">X c #C3C3C3",
",X c #C3C3C4",
"<X c gray77",
"1X c #C5C5C5",
"2X c gray78",
"3X c #C8C8C8",
"4X c gray79",
"5X c #CACACA",
"6X c gray80",
"7X c #CECECE",
"8X c gray81",
"9X c gray82",
"0X c #D2D2D2",
"qX c LightGray",
"wX c gray83",
"eX c #D5D5D5",
"rX c gray84",
"tX c #D7D7D7",
"yX c #D8D8D8",
"uX c gray85",
"iX c #DADADA",
"pX c #DDDDDD",
"aX c gray87",
"sX c #C2D6EA",
"dX c #C3D6EA",
"fX c #C4D6EB",
"gX c #C4D7EB",
"hX c gray88",
"jX c #E1E1E1",
"kX c #E2E2E2",
"lX c #E6E6E6",
"zX c #E7E7E7",
"xX c gray91",
"cX c #E9E9E9",
"vX c #EAEAEA",
"bX c gray92",
"nX c #ECECEC",
"mX c gray94",
"MX c #F3F3F3",
"NX c #F4F4F4",
"BX c gray96",
"VX c #F6F6F6",
"CX c gray97",
"ZX c #F8F8F8",
"AX c #F9F9F9",
"SX c gray98",
"DX c #FDFDFD",
"FX c None",
/* pixels */
"FXFXFXFXFXFXFXFXFXFXFXFXFXFXFXFXFXFXFXFXFXFXFXFXFXFXFXFXFXFXFXFX",
"FXFXFXFXFXFXFXFX  @ # O O # $ % * * < < 5 7 7 7 q q e t t u FXFX",
"FXFXFXFXFXFXFXFX% DXAXAXZXBXBXBXBXBXBXMXMXMXBXAXAXAXAXAXAXt FXFX",
"FX< * * * * * * @ DXAXAXAXAXAXAXAXAXAXAXAXAXAXAXAXAXAXAXBXt FXFX",
"FX* yX3X3X3X3X3X# DXlXz.c.z.c.z.c.c.c.c.c.c.c.c.c.c.3XAXxXt FXFX",
"FX: L.g.g.g.g.p.t AXlXlXlXzXzXxXxXlXxXxXxXxXbXxXnXxXnXxX9Xt FXFX",
"FX< 2Xm.m.m.m.t.M.mXyXz.z.c.z.c.c.c.c.c.c.c.c.c.jXjXjXlXF.e FXFX",
"FX< K.g.g.g.g.5 aXhXqXqXqXqXwXwXeXeXqXeXeXeXeXyXyXyXyXyXp.FXFXFX",
"FX: Y.M.m.m.c.* BX3XA.c.z.c.z.c.c.c.z.c.c.c.c.z.c.c.3X9Xq FXFXFX",
"FX: M.h.d.d.t c.aXY.Y.;X-X-X-X;X-X;X;X;X;X>X;X2X;X2X;XF.5 FXFXFX",
"FXFXc.F.m.m.: jXL.A.c.c.z.c.z.z.c.z.z.c.c.m.L.U.L.L.Y.t.FXFXFXFX",
"FXFXp.c.d.t.e aXA.M.M.A.V.V.A.A.A.A.A.A.A.A.S.S.F.F.A.: FXFXFXFX",
"FXFXe.L.c.e ;XG.h h h h h h h h h h h h h h h h h h h h h h h h ",
"FXFXe m.i.# yXk.H fXfXfXgXgXgXgXdXdXgXgXgXgXgXfXdXdXdXdXdXdX=Xc ",
"FXFX5 Y.i.u 7Xj.Y *X^.`.`.^.`.^.(.(.W._.W.(.(.W.W.W.W.W.W.OX'.c ",
"FXFX* M.7 K.L.I '.#X^.^.^.`.^.^.^.^.^.^.W.q.^.W.w.W.q.w.8.#XU FX",
"FXFX: H.5 ;XU.P [.OX_.W.(.(.W.W.^.w.W.W.W.W.w.q.9.9.8.9.#.&XC FX",
"FXFX< z.% 2X-XF oX{.W.W.^.W.W.W.q.q.q.q.8.8.w.9.9.9.1.@.9..Xh FX",
"FXFX< b.O 9X>Xm $XW.W.w.q.q.W.q.9.9.9.9.8.8.6.6.6.:.o.@.].X.b FX",
"FXFX< d.  wX@XG +Xq.q.9.9.q.8.8.9.9.6.9.6.6.<.:.o.@.@.@. XJ FXFX",
"FXFX= a.O 6Xl.U  Xq.q.9.8.9.1.1.$.:.:.:.$.@.@.o.o.@.o.@. Xb FXFX",
"FXFXFXa   O s .._.6.:.:.@.@.o.@.@.@.@.@.@.@.@.@.:.o.:.1.$.v FXFX",
"FXFXFXt i.e n 5.1.o.#.o.@.o.o.o.o.o.o.o. .@. .@.o.o.o.6.L x FXFX",
"FXFXFX7 i , D 1. . . . .} } } } } } } } ] ]  .] ' } } :.C FXFXFX",
"FXFXFX: i S K ' / ` ` _ _ _ / _ ) / ) ) / / / / / / ' T h FXFXFX",
"FXFXFX# A m ^ ^ ^ / ^ ^ ^ ^ / ^ ^ ^ ^ / ^ ^ E ^ E E ^ C FXFXFXFX",
"FXFXFX  h h h h f f f h h h f f h h x f h d h h h h h d FXFXFXFX",
"FXFXFXFXFXFXFXFXFXFXFXFXFXFXFXFXFXFXFXFXFXFXFXFXFXFXFXFXFXFXFXFX",
"FXFXFXFXFXFXFXFXFXFXFXFXFXFXFXFXFXFXFXFXFXFXFXFXFXFXFXFXFXFXFXFX",
"FXFXFXFXFXFXFXFXFXFXFXFXFXFXFXFXFXFXFXFXFXFXFXFXFXFXFXFXFXFXFXFX",
"FXFXFXFXFXFXFXFXFXFXFXFXFXFXFXFXFXFXFXFXFXFXFXFXFXFXFXFXFXFXFXFX",
"FXFXFXFXFXFXFXFXFXFXFXFXFXFXFXFXFXFXFXFXFXFXFXFXFXFXFXFXFXFXFXFX"
};
