/* XPM */
static const char *media_playback_stop_large[] = {
/* columns rows colors chars-per-pixel */
"32 32 78 1",
"  c #545753",
". c #585B57",
"X c #595C58",
"o c #626561",
"O c #6B6E6A",
"+ c #747772",
"@ c #7D807B",
"# c #868984",
"$ c #8F928D",
"% c #989B95",
"& c #D5D8D3",
"* c #D6D8D2",
"= c #D9DBD5",
"- c #DADCD7",
"; c #DBDDD8",
": c #DBDED9",
"> c #DCDDD8",
", c #DCDED9",
"< c #DDDFDA",
"1 c #DEE0DB",
"2 c #DFE1DC",
"3 c #E0E1DD",
"4 c #E1E1DE",
"5 c #E0E2DE",
"6 c #E1E3DF",
"7 c #E2E3DF",
"8 c #E2E4E0",
"9 c #E3E4E0",
"0 c #E3E4E1",
"q c #E3E5E1",
"w c #E4E5E1",
"e c #E4E5E2",
"r c #E5E6E2",
"t c #E5E6E3",
"y c #E5E7E3",
"u c #E6E7E3",
"i c #E5E7E4",
"p c #E6E7E4",
"a c #E7E8E5",
"s c #E7E8E6",
"d c #E8E9E6",
"f c #E9EAE7",
"g c #E9EAE8",
"h c #EAEBE8",
"j c #EAEBE9",
"k c #EBECEA",
"l c #ECEDEB",
"z c #EDEDEC",
"x c #EEEEED",
"c c #EFEFEE",
"v c #F1F1F0",
"b c #F2F3F1",
"n c #F3F3F2",
"m c #F3F4F2",
"M c #F4F4F3",
"N c #F4F5F4",
"B c #F5F5F4",
"V c gray96",
"C c #F5F6F4",
"Z c #F5F6F5",
"A c #F6F6F5",
"S c #F6F7F6",
"D c #F7F7F6",
"F c #F7F8F6",
"G c #F7F8F7",
"H c #F8F8F7",
"J c #F8F8F8",
"K c #F8F9F8",
"L c #F9F9F8",
"P c #F9F9F9",
"I c #F9FAF9",
"U c #FAFBFA",
"Y c #FBFBFB",
"T c #FCFCFB",
"R c gray99",
"E c #FDFDFD",
"W c #FEFEFE",
"Q c None",
/* pixels */
"QQQQQQQQQQQQQQQQQQQQQQQQQQQQQQQQ",
"QQQQQQQQQQQQQQQQQQQQQQQQQQQQQQQQ",
"QQQQQQQQQQQQQQQQQQQQQQQQQQQQQQQQ",
"QQQQQQQQQQQQQQQQQQQQQQQQQQQQQQQQ",
"QQQQQQQQQQQQQQQQQQQQQQQQQQQQQQQQ",
"QQQQQQQQQQQQQQQQQQQQQQQQQQQQQQQQ",
"QQQQQQQQQQQQQQQQQQQQQQQQQQQQQQQQ",
"QQQQQQQQQQQQQQQQQQQQQQQQQQQQQQQQ",
"QQQQQQQQQQQQQQQQQQQQQQQQQQQQQQQQ",
"QQQQQQQQQ ............. QQQQQQQQ",
"QQQQQQQQQ EYYGYHYYYHYYE QQQQQQQQ",
"QQQQQQQQQ Etqq7tq6qqq6E QQQQQQQQ",
"QQQQQQQQQ Gq6677666766T QQQQQQQQ",
"QQQQQQQQQ Yq6677667766T QQQQQQQQ",
"QQQQQQQQQ Gttt777t77q6Y QQQQQQQQ",
"QQQQQQQQQ Dattaattttt2D QQQQQQQQ",
"QQQQQQQQQ.Dkffat73:=&&D.QQQQQQQQ",
"QQQQQQQQQoDt66111<<>:-DoQQQQQQQQ",
"QQQQQQQQQODttqqq666121DOQQQQQQQQ",
"QQQQQQQQQ+Dfffaatttq76M+QQQQQQQQ",
"QQQQQQQQQ@YzzzkkffppttM@QQQQQQQQ",
"QQQQQQQQQ#HvzzkkhffpttM#QQQQQQQQ",
"QQQQQQQQQ$HGDDDDMDnMmnn$QQQQQQQQ",
"QQQQQQQQQ%%%%%%%%%%%%%%%QQQQQQQQ",
"QQQQQQQQQQQQQQQQQQQQQQQQQQQQQQQQ",
"QQQQQQQQQQQQQQQQQQQQQQQQQQQQQQQQ",
"QQQQQQQQQQQQQQQQQQQQQQQQQQQQQQQQ",
"QQQQQQQQQQQQQQQQQQQQQQQQQQQQQQQQ",
"QQQQQQQQQQQQQQQQQQQQQQQQQQQQQQQQ",
"QQQQQQQQQQQQQQQQQQQQQQQQQQQQQQQQ",
"QQQQQQQQQQQQQQQQQQQQQQQQQQQQQQQQ",
"QQQQQQQQQQQQQQQQQQQQQQQQQQQQQQQQ"
};
