/* XPM */
static const char *ClipStretchRightXpm[] = {
/* columns rows colors chars-per-pixel */
"32 32 10 1 ",
"  c black",
". c #101010",
"X c #3F3F3F",
"o c gray25",
"O c gray50",
"+ c red",
"@ c #808080",
"# c #9F9F9F",
"$ c gray75",
"% c white",
/* pixels */
"++++++++++++++++++++++++++++++++",
"++++++++++++++++++++++++++++++++",
"++++++++++++++++++++++++++++++++",
"++++++++++++++++++++++++++++++++",
"++++++++++++++++++++++++++++++++",
"++++++++++%%%%%%%%++++++++++++++",
"++++++++++%      %++++++++++++++",
"++++++++++%%%%%  %++++++++++++++",
"++++++++++++++%  %++++++++++++++",
"++++++++++++++%  %++++++++++++++",
"+++++++++++++%%%%%%+++++++++++++",
"++++++++++++%$X. X#%++++++++++++",
"++++++%%+++%O      O%+++%%++++++",
"+++++% %++%#    %   $%++% %+++++",
"++++%  %++%X    %   o%++%  %++++",
"+++%   %++%     %   .%++%   %+++",
"++%    %++%. %%%%    %++%    %++",
"+++%   %++%o        o%++%   %+++",
"++++%  %++%$        #%++%  %++++",
"+++++% %+++%@      @%+++% %+++++",
"++++++%%++++%#o .o$%++++%%++++++",
"+++++++++++++%%%%%%+++++++++++++",
"++++++++++++++%  %++++++++++++++",
"++++++++++++++%  %++++++++++++++",
"++++++++++%%%%%  %++++++++++++++",
"++++++++++%      %++++++++++++++",
"++++++++++%%%%%%%%++++++++++++++",
"++++++++++++++++++++++++++++++++",
"++++++++++++++++++++++++++++++++",
"++++++++++++++++++++++++++++++++",
"++++++++++++++++++++++++++++++++",
"++++++++++++++++++++++++++++++++"
};
