/* XPM */
static const char *ClipTrimLeftXpm[] = {
/* columns rows colors chars-per-pixel */
"32 32 3 1 ",
"  c black",
". c red",
"X c white",
/* pixels */
"................................",
"................................",
"................................",
"................................",
"................................",
".............XXXXXXXX...........",
".............X      X...........",
".............X  XXXXX...........",
".............X  X...............",
".............X  X...............",
".............X  X...............",
".............X  X...............",
"......XX.....X  X.......XX......",
".....X X.....X  X.......X X.....",
"....X  X.....X  X.......X  X....",
"...X   X.....X  X.......X   X...",
"..X    X.....X  X.......X    X..",
"...X   X.....X  X.......X   X...",
"....X  X.....X  X.......X  X....",
".....X X.....X  X.......X X.....",
"......XX.....X  X.......XX......",
".............X  X...............",
".............X  X...............",
".............X  X...............",
".............X  XXXXX...........",
".............X      X...........",
".............XXXXXXXX...........",
"................................",
"................................",
"................................",
"................................",
"................................"
};
