/* XPM */
static const char * const CrosshairCursorXpm[] = {
"32 32 3 1",
".	c #FF0000", // mask color = RGB:255,0,0
"#	c #000000",
"+	c #FFFFFF",
"................................",
"................................",
"................................",
"................................",
"................................",
"................................",
"................................",
"................................",
"................................",
"................................",
"................................",
"..............++++..............",
"..............+##+..............",
"..............+##+..............",
"...........++++##++++...........",
"...........+########+...........",
"...........++++##++++...........",
"..............+##+..............",
"..............+##+..............",
"..............++++..............",
"................................",
"................................",
"................................",
"................................",
"................................",
"................................",
"................................",
"................................",
"................................",
"................................",
"................................",
"................................"};
