/* XPM */
//Image of a pencil.
static const char * DrawCursor_xpm[] = {
"32 32 3 1",
".	c #FF0000", // mask color = RGB:255,0,0
"#	c #000000",
"+	c #FFFFFF",
"................................",
"................................",
"................................",
"................................",
"................................",
"................................",
"................................",
".................+++............",
"................+###+...........",
"...............+#+###+..........",
"..............+#+####+..........",
"..............+#####+...........",
".............+#++###+...........",
".............+#+###+............",
"............+#++###+............",
"............+#+###+.............",
"...........+#++###+.............",
"...........+#+###+..............",
"...........+#####+..............",
"...........+####+...............",
"...........+###+................",
"...........+##+.................",
"...........+#+..................",
"............+...................",
"................................",
"................................",
"................................",
"................................",
"................................",
"................................",
"................................",
"................................"};

