/* XPM */
static const char *IBeamCursorXpm[] = {
/* columns rows colors chars-per-pixel */
"32 32 6 1 ",
"  c black",
". c gray50",
"X c red",
"o c #808080",
"O c gray75",
"+ c white",
/* pixels */
"XXXXXXXXXXXXXXXXXXXXXXXXXXXXXXXX",
"XXXXXXXXXXXXXXXXXXXXXXXXXXXXXXXX",
"XXXXXXXXXXXXXXXXXXXXXXXXXXXXXXXX",
"XXXXXXXXXXXXXXXXXXXXXXXXXXXXXXXX",
"XXXXXXXXXXXXXXXXXXXXXXXXXXXXXXXX",
"XXXXXXXXXXXX+O+XXXX+O+XXXXXXXXXX",
"XXXXXXXXXXXXO .+XX+. OXXXXXXXXXX",
"XXXXXXXXXXXX+o .++. o+XXXXXXXXXX",
"XXXXXXXXXXXXX+o .. o+XXXXXXXXXXX",
"XXXXXXXXXXXXXX+o  o+XXXXXXXXXXXX",
"XXXXXXXXXXXXXXX+  +XXXXXXXXXXXXX",
"XXXXXXXXXXXXXXX+  +XXXXXXXXXXXXX",
"XXXXXXXXXXXXXXX+  +XXXXXXXXXXXXX",
"XXXXXXXXXXXXXXX+  +XXXXXXXXXXXXX",
"XXXXXXXXXXXXXXX+  +XXXXXXXXXXXXX",
"XXXXXXXXXXXXXXX+  +XXXXXXXXXXXXX",
"XXXXXXXXXXXXXXX+  +XXXXXXXXXXXXX",
"XXXXXXXXXXXXXXX+  +XXXXXXXXXXXXX",
"XXXXXXXXXXXXXXX+  +XXXXXXXXXXXXX",
"XXXXXXXXXXXXXXX+  +XXXXXXXXXXXXX",
"XXXXXXXXXXXXXXX+  +XXXXXXXXXXXXX",
"XXXXXXXXXXXXXXX+  +XXXXXXXXXXXXX",
"XXXXXXXXXXXXXX+.  .+XXXXXXXXXXXX",
"XXXXXXXXXXXXX+. oo .+XXXXXXXXXXX",
"XXXXXXXXXXXX+. o++o .+XXXXXXXXXX",
"XXXXXXXXXXXXO o+XX+o OXXXXXXXXXX",
"XXXXXXXXXXXX+O+XXXX+O+XXXXXXXXXX",
"XXXXXXXXXXXXXXXXXXXXXXXXXXXXXXXX",
"XXXXXXXXXXXXXXXXXXXXXXXXXXXXXXXX",
"XXXXXXXXXXXXXXXXXXXXXXXXXXXXXXXX",
"XXXXXXXXXXXXXXXXXXXXXXXXXXXXXXXX",
"XXXXXXXXXXXXXXXXXXXXXXXXXXXXXXXX"
};
