/* XPM */
static const char * const SelectionRightXpm[] = {
/* columns rows colors chars-per-pixel */
"32 32 3 1 ",
"  c black",
". c red",
"X c white",
/* pixels */
"................................",
"................................",
"................................",
"................................",
"................................",
"................................",
"............  X.................",
"............  X.................",
"............  X.................",
"............  X.................",
"....XX......  X.................",
"....X X.....  X.................",
"....X  X....  X.................",
"....X   X...  X.................",
"....X    X..  X.................",
"....X     X.  X.................",
"....X    X..  X.................",
"....X   X...  X.................",
"....X  X....  X.................",
"....X X.....  X.................",
"....XX......  X.................",
"............  X.................",
"............  X.................",
"............  X.................",
"............  X.................",
"............  X.................",
"................................",
"................................",
"................................",
"................................",
"................................",
"................................"
};
