/* XPM */
static const char *document_open_small[] = {
/* columns rows colors chars-per-pixel */
"16 16 69 1",
"  c #555753",
". c #595B57",
"X c #5D5F5B",
"o c #61635F",
"O c #455D79",
"+ c #636561",
"@ c #676965",
"# c #6A6C68",
"$ c #6D6F6B",
"% c #3F6086",
"& c #3E6089",
"* c #3465A4",
"= c #436B9D",
"- c #537196",
"; c #58769B",
": c #617A9A",
"> c #6395CC",
", c #6496CC",
"< c #6597CC",
"1 c #6598CD",
"2 c #6698CC",
"3 c #6898CD",
"4 c #6899CD",
"5 c #6999CD",
"6 c #6A9ACD",
"7 c #6B9ACD",
"8 c #6B9BCD",
"9 c #6A9ACE",
"0 c #6C9BCE",
"q c #6D9CCE",
"w c #6E9CCE",
"e c #6E9DCE",
"r c #709DCF",
"t c #709ECE",
"y c #729FCF",
"u c #76A2D0",
"i c #7CA6D2",
"p c #969795",
"a c #969992",
"s c #9A9C98",
"d c gray65",
"f c #A7A9A4",
"g c #A9ABA9",
"h c #C0C0BF",
"j c #81A9D4",
"k c #85ACD5",
"l c #88AED6",
"z c #89AED6",
"x c #89AFD7",
"c c #8AAFD7",
"v c #8BB0D7",
"b c #8CB1D8",
"n c #94B6DB",
"m c #9BBBDD",
"M c #9ABADE",
"N c #9CBBDD",
"B c #A6C2E0",
"V c #ADC7E3",
"C c #AEC7E3",
"Z c #BED2E8",
"A c #C6C6C5",
"S c gray79",
"D c #CCCCCA",
"F c #CECECE",
"G c #D8D8D7",
"H c #C6D8EB",
"J c #F5F5F4",
"K c gray100",
"L c None",
/* pixels */
"L$$$$$@@LLLLLLLL",
"$FFFFFFA+LLLLLLL",
"#hppsfffffffffaL",
"@SddfKKKKKKKKKfL",
"ohppfKJJJJJJJKfL",
"XSddfKJDDDDDJKfL",
"XhppfKJJJJJJJKfL",
".SddfKJDDDGJJKfL",
" h:************=",
" S*HZZZHZZZZZZH*",
" h*CllbbbbbbblB*",
" S*CbbbllkjiuyN*",
" h;Nyqqqq0q555n*",
" gv50555211>>M-O",
"&*************%L",
"LLLLLLLLLLLLLLLL"
};
