/* XPM */
static const char *edit_undo_large[] = {
/* columns rows colors chars-per-pixel */
"32 32 183 2",
"   c #BE9A00",
".  c #BE9D00",
"X  c #C2A100",
"o  c #C4A000",
"O  c #C5A000",
"+  c #C6A100",
"@  c #C5A200",
"#  c #C6A200",
"$  c #C6A300",
"%  c #C7A300",
"&  c #C6A201",
"*  c #C6A301",
"=  c #C5A102",
"-  c #C5A203",
";  c #C5A303",
":  c #C6A202",
">  c #C6A302",
",  c #C2A400",
"<  c #C6A400",
"1  c #C7A400",
"2  c #C4A600",
"3  c #C4A502",
"4  c #C5A304",
"5  c #C5A305",
"6  c #C6A304",
"7  c #C6A406",
"8  c #C6A407",
"9  c #C8A305",
"0  c #C8A506",
"q  c #C7A50B",
"w  c #C8A60D",
"e  c #C8A70E",
"r  c #C9A80C",
"t  c #CFAF0C",
"y  c #CDB200",
"u  c #D0B202",
"i  c #D1B005",
"p  c #D2B108",
"a  c #D6B90A",
"s  c #CBAA10",
"d  c #CBAA11",
"f  c #C9A812",
"g  c #D3B511",
"h  c #D5B713",
"j  c #D6B910",
"k  c #D6B911",
"l  c #D2B41B",
"z  c #D4B71F",
"x  c #DABE1A",
"c  c #D9BD1D",
"v  c #CCAE20",
"b  c #CDAE20",
"n  c #CDAF23",
"m  c #CEAF24",
"M  c #D2B420",
"N  c #D2B629",
"B  c #D9BF31",
"V  c #DAC208",
"C  c #EDD400",
"Z  c #EDD401",
"A  c #EDD402",
"S  c #EDD403",
"D  c #EDD506",
"F  c #EDD509",
"G  c #EDD50A",
"H  c #EDD60E",
"J  c #E5CB16",
"K  c #EED610",
"L  c #EED611",
"P  c #EED713",
"I  c #EAD314",
"U  c #EED715",
"Y  c #EED71B",
"T  c #EAD31F",
"R  c #EED81A",
"E  c #EED81C",
"W  c #EFD81D",
"Q  c #DCC331",
"!  c #DDC436",
"~  c #E4CB20",
"^  c #E4CD2E",
"/  c #EFD920",
"(  c #EFD921",
")  c #EFD922",
"_  c #EFDA26",
"`  c #EFDA29",
"'  c #F0DB2D",
"]  c #E2CA31",
"[  c #E2CB3C",
"{  c #EFDC33",
"}  c #ECD835",
"|  c #F0DC32",
" . c #F0DC34",
".. c #F0DC35",
"X. c #D7BD43",
"o. c #D8BD42",
"O. c #DDC543",
"+. c #E2CB49",
"@. c #E7D240",
"#. c #EBD740",
"$. c #EAD649",
"%. c #EDDA4A",
"&. c #F1DE40",
"*. c #F1DF44",
"=. c #F2DF47",
"-. c #E2CD58",
";. c #E0CA5C",
":. c #EBD857",
">. c #EBDA5D",
",. c #F1DF5D",
"<. c #F2E04B",
"1. c #F2E04C",
"2. c #F2E04D",
"3. c #F2E150",
"4. c #F3E255",
"5. c #F3E256",
"6. c #F3E25A",
"7. c #F3E35A",
"8. c #F3E35B",
"9. c #F3E35C",
"0. c #F3E35E",
"q. c #F3E45F",
"w. c #EBD962",
"e. c #EFDE62",
"r. c #E4D26C",
"t. c #E9D76D",
"y. c #ECDD7B",
"u. c #F3E460",
"i. c #F3E461",
"p. c #F3E462",
"a. c #F3E463",
"s. c #F4E464",
"d. c #F4E565",
"f. c #F4E566",
"g. c #F4E568",
"h. c #F4E56A",
"j. c #F4E66B",
"k. c #F4E66C",
"l. c #F4E66D",
"z. c #F4E66E",
"x. c #F4E66F",
"c. c #F2E572",
"v. c #F4E670",
"b. c #F4E771",
"n. c #F1E277",
"m. c #F3E574",
"M. c #F4E775",
"N. c #F5E775",
"B. c #F5E776",
"V. c #F4E777",
"C. c #F1E47A",
"Z. c #F4E778",
"A. c #F5E779",
"S. c #F5E878",
"D. c #F5E87B",
"F. c #F5E87C",
"G. c #F5E87D",
"H. c #F5E97D",
"J. c #F5E97F",
"K. c #EFE287",
"L. c #F6EA87",
"P. c #F6EB8B",
"I. c #F5EA8D",
"U. c #F6EB8D",
"Y. c #EFE191",
"T. c #F2E897",
"R. c #F7EC95",
"E. c #F3E99A",
"W. c #F7EE9C",
"Q. c #F8EE9D",
"!. c #F4EAA6",
"~. c #F8EFA3",
"^. c #F8EFA5",
"/. c #F8EFA6",
"(. c #F6EEA9",
"). c #F7EEAC",
"_. c #F8F0A8",
"`. c #F8F0A9",
"'. c #F8F0AA",
"]. c #F8F0AB",
"[. c #F8F1AE",
"{. c #F8F0AF",
"}. c None",
/* pixels */
"}.}.}.}.}.}.}.}.}.}.}.}.}.}.}.}.}.}.}.}.}.}.}.}.}.}.}.}.}.}.}.}.",
"}.}.}.}.}.}.}.}.}.}.}.}.}.}.}.o }.}.}.}.}.}.}.}.}.}.}.}.}.}.}.}.",
"}.}.}.}.}.}.}.}.}.}.}.}.}.}.> # }.}.}.}.}.}.}.}.}.}.}.}.}.}.}.}.",
"}.}.}.}.}.}.}.}.}.}.}.}.}.# -.7 }.}.}.}.}.}.}.}.}.}.}.}.}.}.}.}.",
"}.}.}.}.}.}.}.}.}.}.}.}.q y.^.7 }.}.}.}.}.}.}.}.}.}.}.}.}.}.}.}.",
"}.}.}.}.}.}.}.}.}.}.}.b T.P.^.# }.}.}.}.}.}.}.}.}.}.}.}.}.}.}.}.",
"}.}.}.}.}.}.}.}.}.# X.(.F.8._.6 }.}.}.}.}.}.}.}.}.}.}.}.}.}.}.}.",
"}.}.}.}.}.}.}.}.# r.[.F.a.q._.7 }.}.}.}.}.}.}.}.}.}.}.}.}.}.}.}.",
"}.}.}.}.}.}.}.e Y.[.F.k.j.q.].7 # > > }.}.}.}.}.}.}.}.}.}.}.}.}.",
"}.}.}.}.}.}.m !.~.F.V.v.f.q.].W.I.C.:.! 0 # }.}.}.}.}.}.}.}.}.}.",
"}.}.}.}.# X.).U.V.V.v.k.s.q.8.<.{ _ | 8.D.+.f }.}.}.}.}.}.}.}.}.",
"}.}.}.# ;.].V.k.k.k.j.f.s.4.P A A A A A H =.n.N > }.}.}.}.}.}.}.",
"}.}.}.}.b E.U.a.s.s.s.q.2.H A A A A A A S S U V.Q # }.}.}.}.}.}.",
"}.}.}.}.}.e K.R.s.8.7.2.G A A A A A A A S S A P c.n }.}.}.}.}.}.",
"}.}.}.}.}.}.# t.W.9...G A A D.D.v.f.4.` S S S S ` w.# }.}.}.}.}.",
"}.}.}.}.}.}.}.# O.V._ A A A F.r f l Q >.k.{ S S S a.z }.}.}.}.}.",
"}.}.}.}.}.}.}.}.1 M m.| A A D.6 }.}.}.> g ,.&.S S ' [ # }.}.}.}.",
"}.}.}.}.}.}.}.}.}.# f e.&.A z.6 }.}.}.}.o q %.' A Y @.# }.}.}.}.",
"}.}.}.}.}.}.}.}.}.}.}.0 $.2.a.X }.}.}.}.}.}.p 2.S H } # }.}.}.}.",
"}.}.}.}.}.}.}.}.}.}.}.}.> ] 8.6 }.}.}.}.}.}.# ^ R P } 6 }.}.}.}.",
"}.}.}.}.}.}.}.}.}.}.}.}.}.# c # }.}.}.}.}.}.}.x ) R ~ # }.}.}.}.",
"}.}.}.}.}.}.}.}.}.}.}.}.}.}.# # }.}.}.}.}.}.}.k ) ) k }.}.}.}.}.",
"}.}.}.}.}.}.}.}.}.}.}.}.}.}.}.. }.}.}.}.}.}.}.k W T 6 }.}.}.}.}.",
"}.}.}.}.}.}.}.}.}.}.}.}.}.}.}.}.}.}.}.}.}.}.> J W i }.}.}.}.}.}.",
"}.}.}.}.}.}.}.}.}.}.}.}.}.}.}.}.}.}.}.}.}.}.i I a X }.}.}.}.}.}.",
"}.}.}.}.}.}.}.}.}.}.}.}.}.}.}.}.}.}.}.}.}.> V u . }.}.}.}.}.}.}.",
"}.}.}.}.}.}.}.}.}.}.}.}.}.}.}.}.}.}.}.}.2 y > }.}.}.}.}.}.}.}.}.",
"}.}.}.}.}.}.}.}.}.}.}.}.}.}.}.}.}.}.}.}.}.}.}.}.}.}.}.}.}.}.}.}.",
"}.}.}.}.}.}.}.}.}.}.}.}.}.}.}.}.}.}.}.}.}.}.}.}.}.}.}.}.}.}.}.}.",
"}.}.}.}.}.}.}.}.}.}.}.}.}.}.}.}.}.}.}.}.}.}.}.}.}.}.}.}.}.}.}.}.",
"}.}.}.}.}.}.}.}.}.}.}.}.}.}.}.}.}.}.}.}.}.}.}.}.}.}.}.}.}.}.}.}.",
"}.}.}.}.}.}.}.}.}.}.}.}.}.}.}.}.}.}.}.}.}.}.}.}.}.}.}.}.}.}.}.}."
};
