/* XPM */
static const char *edit_delete_large[] = {
/* columns rows colors chars-per-pixel */
"32 32 100 2",
"   c #253A55",
".  c #273E5A",
"X  c #283F5C",
"o  c #29415F",
"O  c #2B4463",
"+  c #2D4768",
"@  c #2E496A",
"#  c #304B6D",
"$  c #3C5074",
"%  c #454744",
"&  c #484946",
"*  c #5F5F5D",
"=  c #704D72",
"-  c #6B5178",
";  c #646763",
":  c #6A6B67",
">  c #6C6D6A",
",  c #737573",
"<  c #787A76",
"1  c #7D7E7B",
"2  c #AB1214",
"3  c #89425D",
"4  c #BB4D52",
"5  c #884B67",
"6  c #E17E7E",
"7  c #204A87",
"8  c #224D8A",
"9  c #29528D",
"0  c #395983",
"q  c #3B5D88",
"w  c #2B5793",
"e  c #2F5892",
"r  c #325F9C",
"t  c #3965A2",
"y  c #406492",
"u  c #5477AE",
"i  c #587BAB",
"p  c #4977B3",
"a  c #4878B5",
"s  c #4C7DBC",
"d  c #5179B1",
"f  c #667AB0",
"g  c #7D8181",
"h  c #5581BA",
"j  c #5F81BC",
"k  c #6A8CB7",
"l  c #6D8FBA",
"z  c #758BBC",
"x  c #7393BC",
"c  c #7897BE",
"v  c #7998BF",
"b  c #5485C5",
"n  c #5C86C2",
"m  c #598BCB",
"M  c #668DC1",
"N  c #6291CD",
"B  c #7C9AC2",
"V  c #7499C8",
"C  c #759ED3",
"Z  c #838581",
"A  c #888A85",
"S  c #868A88",
"D  c #8C8D89",
"F  c #8F918B",
"G  c #91938F",
"H  c #949692",
"J  c #979995",
"K  c #999A95",
"L  c #9E9E9D",
"P  c #9FA09C",
"I  c #A1A29E",
"U  c #A4A5A3",
"Y  c #A7A9A3",
"T  c #AAABA7",
"R  c #ACADAA",
"E  c #AEB0AB",
"W  c #B1B3AE",
"Q  c #B4B5B3",
"!  c #B9BAB6",
"~  c #BCBDBB",
"^  c #E18080",
"/  c #BFC0BD",
"(  c #C1C2BE",
")  c #819EC3",
"_  c #C4C4C3",
"`  c #C7C8C5",
"'  c #C9C9C6",
"]  c #CBCCCB",
"[  c #D1D1CF",
"{  c #D3D4D2",
"}  c #D7D8D4",
"|  c #D9D9D6",
" . c #DDDDDC",
".. c #E0E0DF",
"X. c #E3E3E3",
"o. c #E8E8E6",
"O. c #EBEBEA",
"+. c #F5F5F5",
"@. c #F8F8F8",
"#. c None",
/* pixels */
"#.#.#.#.#.#.#.#.#.#.#.#.#.#.#.#.#.#.#.#.#.#.#.#.#.#.#.#.#.#.#.#.",
"#.#.#.#.#.#.D A S S S A A A A A A A A A S S S S S D #.#.#.#.#.#.",
"#.#.#.#.#.#.D +.@.+.@.+.@.+.@.+.+.+.+.@.+.+.+.+.@.A #.#.#.#.#.#.",
"#.#.#.#.#.#.A +.o.X.X.X.X.X.X.X.X.X.X.X.X. .X.X.+.A #.#.#.#.#.#.",
"#.#.#.#.7 8 S +.X.] _ _ _ ~ _ _ _ ( _ _ / _ ]  .+.A 8 8 #.#.#.#.",
"#.#.#.8 b m g  .[ ] ] ] ] ] ] ] ] ] ] ] ] ] ] ] ..1 m s 8 #.#.#.",
"#.#.#.t N m , ' ~ U L P L L L L U ! Q Q Q Q Q Q ' , m m r #.#.#.",
"#.#.8 n m y ; > : : : - > > : : : : > > > : > > > : 0 m s 8 #.#.",
"#.#.w C m q         . X X X o o O O O O + + + + # # $ b m e #.#.",
"#.8 d C m m m m m m m m m m m m m m m m m m m m k 3 2 2 5 u 8 #.",
"#.8 V N m m m m m m m m m m m m m m m m m m m m f 4 6 6 4 z 8 #.",
"#.8 B h a a a a p a a a a a a a a a a a a a a a a p = - a M e #.",
"#.8 i ) ) ) ) ) ) ) ) ) B B B B c c c c V z x x x x l l l k 9 #.",
"#.#.7 7 7 7 7 7 7 7 7 7 7 7 7 7 7 7 7 7 7 7 7 7 7 7 7 7 7 7 7 #.",
"#.#.#.S ! D Z ` ~ ~ Q _ W ] R R _ ] W R ~ ] ! R Q < L ~ ` #.#.#.",
"#.#.#.g ! A Z ( ~ ~ Q ( / ] U Q ] _ W W _ ] Q R ! 1 T ' ~ #.#.#.",
"#.#.#., ~ D S _ ~ / Q _ ~ { U Q _ ] Q W _ [ Q Q ~ S ! { ~ #.#.#.",
"#.#.#.: ` H D ] _ _ ~ _ / { W ! ] { ~ Q ` { _ Q ~ D ~ | Q #.#.#.",
"#.#.#.#.' K G |  .] _ ] _ | ~ _ {  ._ _ ] ..{ Q _ J `  .R #.#.#.",
"#.#.#.#.] L H o.] | { X.L X.[ ' {  .] [ [ X.X.Q ] L ] ..I #.#.#.",
"#.#.#.#.] U R @.U o.X.O.G  ...}  . .{  .{ o.+.T X.I [ X.G #.#.#.",
"#.#.#.#.' T ..@.H O.O.{ E _ O.| X.{ ] o.| O.O.L O.W [ O.Z #.#.#.",
"#.#.#.#.` ! U ..J ..{ R Q I o.{  .~ R { { X.X.L I ! } O.< #.#.#.",
"#.#.#.#./ ~ U L W L J W #.Q H K L L R L J J J U W ' } O.#.#.#.#.",
"#.#.#.#.~ ( #.#.#.#.#.#.#.#.#.#.! #.#.#.#.#.#.#.#.] | O.#.#.#.#.",
"#.#.#.#.Q ( #.#.#.#.#.#.#.#.#.#.#.#.#.#.#.#.#.#.#.] | o.#.#.#.#.",
"#.#.#.#.T ` Q W E E E E E E E E E E E E E E E E W ( | ..#.#.#.#.",
"#.#.#.#.K _ W E R E W W E W W W W W Q W W Q W Q Q / } | #.#.#.#.",
"#.#.#.#.> } ] ' ` ` ` _ ` ` ` ` ` ` _ ` ` _ ` ` ( `  ./ #.#.#.#.",
"#.#.#.#.& W  . . ... . . . . ..... . . ..... . ... .( * #.#.#.#.",
"#.#.#.#.#.% % % % % % % % % % % % % % % % % % % % % % #.#.#.#.#.",
"#.#.#.#.#.#.#.#.#.#.#.#.#.#.#.#.#.#.#.#.#.#.#.#.#.#.#.#.#.#.#.#."
};
