/* XPM */
static const char *go_top_large[] = {
/* columns rows colors chars-per-pixel */
"32 32 237 2",
"   c #3A7403",
".  c #3A7304",
"X  c #3B7404",
"o  c #3A7504",
"O  c #3B7504",
"+  c #3B7405",
"@  c #3A7604",
"#  c #3B7604",
"$  c #3B7605",
"%  c #3D7706",
"&  c #3D7508",
"*  c #3E7609",
"=  c #3F770B",
"-  c #3F7809",
";  c #40770C",
":  c #40780B",
">  c #41780C",
",  c #41790C",
"<  c #41780D",
"1  c #427A0E",
"2  c #467D13",
"3  c #467D14",
"4  c #477E14",
"5  c #497F15",
"6  c #487D16",
"7  c #4F9B05",
"8  c #529D07",
"9  c #519E06",
"0  c #539C0D",
"q  c #559D0F",
"w  c #4E831C",
"e  c #599F15",
"r  c #53A107",
"t  c #54A308",
"y  c #56A508",
"u  c #57A609",
"i  c #58A909",
"p  c #59AA0A",
"a  c #5AAC0A",
"s  c #5BAC0A",
"d  c #5CAE0B",
"f  c #5DAE0F",
"g  c #5DB00B",
"h  c #5EB20C",
"j  c #5FB20C",
"k  c #5FB30C",
"l  c #5BA414",
"z  c #5FAA14",
"x  c #5EA41B",
"c  c #5FA31D",
"v  c #60B40D",
"b  c #61B50D",
"n  c #61B60D",
"m  c #62B70D",
"M  c #62B80D",
"N  c #63B80E",
"B  c #63B90E",
"V  c #64BA0E",
"C  c #64BB0E",
"Z  c #65BB0E",
"A  c #66BD0F",
"S  c #66BE0F",
"D  c #67BE0F",
"F  c #67BF0F",
"G  c #67BF10",
"H  c #66B319",
"J  c #67B519",
"K  c #538720",
"L  c #578D28",
"P  c #598C28",
"I  c #5A8C29",
"U  c #619233",
"Y  c #629530",
"T  c #61A420",
"R  c #64A523",
"E  c #69AF22",
"W  c #68AC27",
"Q  c #68A829",
"!  c #69A92B",
"~  c #6AAA2D",
"^  c #6BAB2D",
"/  c #6BAA2E",
"(  c #6EAF2E",
")  c #6EAE2F",
"_  c #69B221",
"`  c #70B62B",
"'  c #70B42C",
"]  c #70B42E",
"[  c #6EAB32",
"{  c #6EAC31",
"}  c #6FAC34",
"|  c #70AD34",
" . c #70AE34",
".. c #72AF35",
"X. c #71AD36",
"o. c #71AD37",
"O. c #71AE36",
"+. c #72AE38",
"@. c #73AE39",
"#. c #73AF3A",
"$. c #74AF3A",
"%. c #74AF3B",
"&. c #75AF3C",
"*. c #6FB030",
"=. c #70B031",
"-. c #70B230",
";. c #71B330",
":. c #71B133",
">. c #73B532",
",. c #72B134",
"<. c #76B03E",
"1. c #77B13F",
"2. c #69C210",
"3. c #69C311",
"4. c #6AC411",
"5. c #6BC411",
"6. c #6CC712",
"7. c #6DC912",
"8. c #6EC912",
"9. c #6ECA13",
"0. c #71CE14",
"q. c #71A043",
"w. c #76A647",
"e. c #73A048",
"r. c #7AA64F",
"t. c #78B140",
"y. c #78B141",
"u. c #7AB243",
"i. c #7AB344",
"p. c #7BB345",
"a. c #7CB346",
"s. c #7DB447",
"d. c #7DB448",
"f. c #7EB549",
"g. c #80B64C",
"h. c #81B64D",
"j. c #81B74D",
"k. c #82B74E",
"l. c #83B851",
"z. c #84B851",
"x. c #86B953",
"c. c #85BA54",
"v. c #87BA56",
"b. c #8AB65D",
"n. c #89BB58",
"m. c #8ABB59",
"M. c #8ABB5A",
"N. c #8CBD5D",
"B. c #8DBD5E",
"V. c #89B461",
"C. c #8EB667",
"Z. c #8FBE60",
"A. c #8FBF61",
"S. c #90BF62",
"D. c #91B96B",
"F. c #91C064",
"G. c #92C065",
"H. c #97C26C",
"J. c #98C46E",
"K. c #9AC572",
"L. c #9FC47B",
"P. c #A1C67C",
"I. c #A1C97A",
"U. c #A2C87D",
"Y. c #A4CC7E",
"T. c #A5CE7F",
"R. c #A7CF7F",
"E. c #A6D27B",
"W. c #A7D47A",
"Q. c #A8D67B",
"!. c #A8D17F",
"~. c #A9D87B",
"^. c #AAD97C",
"/. c #ABD97C",
"(. c #A6CB82",
"). c #A7CC82",
"_. c #A6CC83",
"`. c #A6C885",
"'. c #A6C886",
"]. c #A7CC84",
"[. c #A8CD84",
"{. c #A8CD85",
"}. c #A9CE87",
"|. c #AACE87",
" X c #ABCD89",
".X c #ABCE88",
"XX c #ABCF89",
"oX c #ACCE8B",
"OX c #ACCF8B",
"+X c #ACD781",
"@X c #ADD881",
"#X c #ADD982",
"$X c #AED883",
"%X c #AEDA82",
"&X c #AFDC82",
"*X c #ACD088",
"=X c #ADD28A",
"-X c #ADD08D",
";X c #AFD18E",
":X c #AFD18F",
">X c #B0DE83",
",X c #B1DF83",
"<X c #B1D989",
"1X c #B2D88D",
"2X c #B3D88F",
"3X c #AFCF90",
"4X c #B0D190",
"5X c #B1D290",
"6X c #B2D393",
"7X c #B3D691",
"8X c #B3D394",
"9X c #B4D496",
"0X c #B5D497",
"qX c #B5D299",
"wX c #B6D498",
"eX c #B7D599",
"rX c #B7D69A",
"tX c #B8D69B",
"yX c #BAD79E",
"uX c #B2E084",
"iX c #BBD8A0",
"pX c #BCD8A1",
"aX c #BCD9A1",
"sX c #BEDAA4",
"dX c #BFDAA5",
"fX c #C0DBA6",
"gX c #C0DBA7",
"hX c #C2DCA9",
"jX c #C3DCAB",
"kX c #C3DDAC",
"lX c #C4DDAC",
"zX c #C5DEAE",
"xX c #C6DEAF",
"cX c #C7DFB1",
"vX c #C8DFB2",
"bX c #C9E0B3",
"nX c None",
/* pixels */
"nXnXnXnXnXnXnXnXnXnXnXnXnXnXnXnXnXnXnXnXnXnXnXnXnXnXnXnXnXnXnXnX",
"nXnXnXnX. . . . . . . . . . . O . . . . . . . . . . . nXnXnXnXnX",
"nXnXnXnX. sXgXhXhXxXxXkXhXhXdXdXsXyXtX0X5X5X:XXX|.).. nXnXnXnXnX",
"nXnXnXnX. gXm.B.S.F.S.F.S.B.n.x.g.p.u.@.[ ! R c e ).. nXnXnXnXnX",
"nXnXnXnX. hXlXxXcXvXbXvXxXxXxXhXsXsXyXwX0X6X:XOXXX].. nXnXnXnXnX",
"nXnXnXnX. . . . . . . . . . P yX2 . . . . O . . . . . nXnXnXnXnX",
"nXnXnXnXnXnXnXnXnXnXnXnXnX3 qXyX`.; nXnXnXnXnXnXnXnXnXnXnXnXnXnX",
"nXnXnXnXnXnXnXnXnXnXnXnX% `.).z.|.D.O nXnXnXnXnXnXnXnXnXnXnXnXnX",
"nXnXnXnXnXnXnXnXnXnXnXO C.5Xc.h.h.3Xr.O nXnXnXnXnXnXnXnXnXnXnXnX",
"nXnXnXnXnXnXnXnXnXnX  e.wXc.f.f.i.h.5XU O nXnXnXnXnXnXnXnXnXnXnX",
"nXnXnXnXnXnXnXnXnXnXI wXm.f.p.u.y.<.k.XXw nXnXnXnXnXnXnXnXnXnXnX",
"nXnXnXnXnXnXnXnXnX6 OXF.u.u.u.1.<.} } x.P.1 nXnXnXnXnXnXnXnXnXnX",
"nXnXnXnXnXnXnXnX- L.J.1.1.1.<.O.} } ~ Q Z.b.O nXnXnXnXnXnXnXnXnX",
"nXnXnXnXnXnXnXO V.I.O.<.@.O.O. .} ! Q T 0 B.w.O nXnXnXnXnXnXnXnX",
"nXnXnXnXnXnXO q.|.@.} } O.,.,.} ( W l 9 7 q H.Y O nXnXnXnXnXnXnX",
"nXnXnXnXnXnXL |.@.^ ( *.] ;.] E z u y t r 9 x K.K nXnXnXnXnXnXnX",
"nXnXnXnXnX6 OX;XOX=X7X>.] H z i s s i i +XT.T.T.P.2 nXnXnXnXnXnX",
"nXnXnXnX. % ; 1 : ; 2X` H j k j j j j s E.* . .   . . nXnXnXnXnX",
"nXnXnXnXnXnXnXnXnX. 1XJ v n n C M n n k W.= nXnXnXnXnXnXnXnXnXnX",
"nXnXnXnXnXnXnXnXnX. <Xv n C S G S S C M Q.= nXnXnXnXnXnXnXnXnXnX",
"nXnXnXnXnXnXnXnXnX. #XN C G 2.5.5.5.G M ~.= nXnXnXnXnXnXnXnXnXnX",
"nXnXnXnXnXnXnXnXnX. +XC G 2.6.7.9.5.3.S ~.= nXnXnXnXnXnXnXnXnXnX",
"nXnXnXnXnXnXnXnXnX. +XC S 5.7.0.0.7.5.G ~.= nXnXnXnXnXnXnXnXnXnX",
"nXnXnXnXnXnXnXnXnX. +XC G 2.7.7.9.7.5.G ~.1 nXnXnXnXnXnXnXnXnXnX",
"nXnXnXnXnXnXnXnXnX. +X#X>X>X>XuX>X>X>X>X#X1 nXnXnXnXnXnXnXnXnXnX",
"nXnXnXnXnXnXnXnXnX. . . . . . . % . . . . . nXnXnXnXnXnXnXnXnXnX",
"nXnXnXnXnXnXnXnXnXnXnXnXnXnXnXnXnXnXnXnXnXnXnXnXnXnXnXnXnXnXnXnX",
"nXnXnXnXnXnXnXnXnXnXnXnXnXnXnXnXnXnXnXnXnXnXnXnXnXnXnXnXnXnXnXnX",
"nXnXnXnXnXnXnXnXnXnXnXnXnXnXnXnXnXnXnXnXnXnXnXnXnXnXnXnXnXnXnXnX",
"nXnXnXnXnXnXnXnXnXnXnXnXnXnXnXnXnXnXnXnXnXnXnXnXnXnXnXnXnXnXnXnX",
"nXnXnXnXnXnXnXnXnXnXnXnXnXnXnXnXnXnXnXnXnXnXnXnXnXnXnXnXnXnXnXnX",
"nXnXnXnXnXnXnXnXnXnXnXnXnXnXnXnXnXnXnXnXnXnXnXnXnXnXnXnXnXnXnXnX"
};
