/* XPM */
static const char *go_up_large[] = {
/* columns rows colors chars-per-pixel */
"32 32 195 2",
"   c #3A7403",
".  c #3B7503",
"X  c #3B7603",
"o  c #3A7304",
"O  c #3B7304",
"+  c #3A7404",
"@  c #3B7404",
"#  c #3A7504",
"$  c #3B7504",
"%  c #3B7604",
"&  c #3B7605",
"*  c #3C7404",
"=  c #3C7504",
"-  c #3E7609",
";  c #3F760A",
":  c #3E7809",
">  c #40770C",
",  c #40780A",
"<  c #41790B",
"1  c #41780C",
"2  c #417B0D",
"3  c #467D12",
"4  c #467D13",
"5  c #4E9905",
"6  c #4F9B05",
"7  c #4F9906",
"8  c #509C05",
"9  c #519E06",
"0  c #509A08",
"q  c #519B0A",
"w  c #539E0A",
"e  c #539C0C",
"r  c #4A8017",
"t  c #4B8117",
"y  c #50851E",
"u  c #579E12",
"i  c #53A007",
"p  c #54A207",
"a  c #55A309",
"s  c #56A608",
"d  c #57A709",
"f  c #58A909",
"g  c #59A909",
"h  c #5AAB0A",
"j  c #5BAD0A",
"k  c #5CAE0B",
"l  c #5CAF0B",
"z  c #5BAA0C",
"x  c #5DB00B",
"c  c #5FB20C",
"v  c #5AA017",
"b  c #5EA915",
"n  c #5CA119",
"m  c #5DA418",
"M  c #60B40C",
"N  c #60B50D",
"B  c #62B70D",
"V  c #62B80D",
"C  c #63B90E",
"Z  c #64BB0E",
"A  c #65BC0F",
"S  c #66BE0F",
"D  c #67BE0F",
"F  c #67BF0F",
"G  c #61A41F",
"H  c #67BB15",
"J  c #67BC14",
"K  c #68BC15",
"L  c #67B31C",
"P  c #68B61C",
"I  c #538821",
"U  c #578A26",
"Y  c #578B28",
"T  c #5C8F29",
"R  c #659733",
"E  c #649336",
"W  c #61A420",
"Q  c #63A522",
"!  c #64A624",
"~  c #64A625",
"^  c #65A625",
"/  c #66A726",
"(  c #66A727",
")  c #63A820",
"_  c #68AB27",
"`  c #6AAF26",
"'  c #69A92B",
"]  c #6AA92C",
"[  c #6AA92D",
"{  c #6BAA2E",
"}  c #6CAA2F",
"|  c #6EAD2F",
" . c #69B222",
".. c #6DB823",
"X. c #71AD36",
"o. c #71AD37",
"O. c #72AF36",
"+. c #73AF39",
"@. c #6FB230",
"#. c #74B436",
"$. c #76B736",
"%. c #76B13C",
"&. c #76B03D",
"*. c #78B43C",
"=. c #7BBC3B",
"-. c #7AB93C",
";. c #68C010",
":. c #69C210",
">. c #6AC311",
",. c #6AC411",
"<. c #6CC611",
"1. c #6CC612",
"2. c #6DC812",
"3. c #6DC912",
"4. c #6EC912",
"5. c #6FCB13",
"6. c #71CE14",
"7. c #6E9D42",
"8. c #6FA041",
"9. c #78A84A",
"0. c #7BB643",
"q. c #7AB344",
"w. c #7BB345",
"e. c #7EB943",
"r. c #7FBF40",
"t. c #7FBC42",
"y. c #7DB448",
"u. c #7EB548",
"i. c #7FB54B",
"p. c #7BA650",
"a. c #80B74A",
"s. c #80B64C",
"d. c #83B850",
"f. c #85B953",
"g. c #84B159",
"h. c #88B55C",
"j. c #8BBC5C",
"k. c #8CBD5C",
"l. c #8CBD5D",
"z. c #8DBE5E",
"x. c #89B160",
"c. c #8FB769",
"v. c #95BF6C",
"b. c #96BE6E",
"n. c #92C166",
"m. c #97C36C",
"M. c #9AC571",
"N. c #9BC572",
"B. c #9CC674",
"V. c #9DC775",
"C. c #9EC677",
"Z. c #9EC37A",
"A. c #9FC37C",
"S. c #9FC879",
"D. c #A0C878",
"F. c #A2C87D",
"G. c #A4CB7E",
"H. c #A5CD7E",
"J. c #A6CE7F",
"K. c #A7CF7F",
"L. c #A8D67B",
"P. c #A8D77B",
"I. c #A9D77C",
"U. c #A6C983",
"Y. c #A9CE85",
"T. c #ABCC8B",
"R. c #ACCF89",
"E. c #ADCD8F",
"W. c #A9D280",
"Q. c #AAD580",
"!. c #ACD781",
"~. c #ADD982",
"^. c #ADDA82",
"/. c #AEDA82",
"(. c #AEDB82",
"). c #AFDB82",
"_. c #AFDC82",
"`. c #AFD986",
"'. c #B0DE83",
"]. c #B1DF83",
"[. c #B3D295",
"{. c #B4D395",
"}. c #B5D496",
"|. c #B9DD96",
" X c #BBD99E",
".X c #BEDE9E",
"XX c #BEDE9F",
"oX c #B2E084",
"OX c #BDD9A1",
"+X c #BEDBA1",
"@X c #BDD9A2",
"#X c #BEDCA0",
"$X c #C2DBA9",
"%X c #C2DCAA",
"&X c None",
/* pixels */
"&X&X&X&X&X&X&X&X&X&X&X&X&X&X&X&X&X&X&X&X&X&X&X&X&X&X&X&X&X&X&X&X",
"&X&X&X&X&X&X&X&X&X&X&X&X&X&X&X&X&X&X&X&X&X&X&X&X&X&X&X&X&X&X&X&X",
"&X&X&X&X&X&X&X&X&X&X&X&X&X&X&X&X&X&X&X&X&X&X&X&X&X&X&X&X&X&X&X&X",
"&X&X&X&X&X&X&X&X&X&X&X&X&X&X% > &X&X&X&X&X&X&X&X&X&X&X&X&X&X&X&X",
"&X&X&X&X&X&X&X&X&X&X&X&X&X&XY T.3 &X&X&X&X&X&X&X&X&X&X&X&X&X&X&X",
"&X&X&X&X&X&X&X&X&X&X&X&X&X4 U.D.b.: &X&X&X&X&X&X&X&X&X&X&X&X&X&X",
"&X&X&X&X&X&X&X&X&X&X&X&X< D.z.Q n.g.% &X&X&X&X&X&X&X&X&X&X&X&X&X",
"&X&X&X&X&X&X&X&X&X&X&X+ c.C.' ( Q M.8.% &X&X&X&X&X&X&X&X&X&X&X&X",
"&X&X&X&X&X&X&X&X&X&X+ p.Y.%.] ( Q ~ C.T + &X&X&X&X&X&X&X&X&X&X&X",
"&X&X&X&X&X&X&X&X&X&XE }.i.X.] ( n n ] C.t &X&X&X&X&X&X&X&X&X&X&X",
"&X&X&X&X&X&X&X&X&Xy [.j.&.X.} ( Q n u X.m.< &X&X&X&X&X&X&X&X&X&X",
"&X&X&X&X&X&X&X&X2 E.M.w.&.X.} ( Q n u q y.h.% &X&X&X&X&X&X&X&X&X",
"&X&X&X&X&X&X&X  A.Y.s.q.&.X.} ( Q n v 5 5 z.9.  &X&X&X&X&X&X&X&X",
"&X&X&X&X&X&X+ x.}.f.i.q.&.X.} _ G m w 6 5 w m.R % &X&X&X&X&X&X&X",
"&X&X&X&X&X+ 7.@Xz.d.a.0.*.$.@.` b p i i i 6 u C.I * &X&X&X&X&X&X",
"&X&X&X&X&XU $X%X@X X#Xe.=.$. .z f f f s K.K.U.G.F.3 &X&X&X&X&X&X",
"&X&X&X&Xo - > > < < .Xa.=.L k k x x x h W.o o % % o o &X&X&X&X&X",
"&X&X&X&X&X&X&X&X&X  .Xr.P M M M c c c x Q.* &X&X&X&X&X&X&X&X&X&X",
"&X&X&X&X&X&X&X&X&X+ .X..M M A V Z V V c ^.  &X&X&X&X&X&X&X&X&X&X",
"&X&X&X&X&X&X&X&X&X+ |.M V J F F ;.;.J V ^.% &X&X&X&X&X&X&X&X&X&X",
"&X&X&X&X&X&X&X&X&Xo `.V A F 1.1.<.,.;.Z ^.  &X&X&X&X&X&X&X&X&X&X",
"&X&X&X&X&X&X&X&X&X+ I.J F >.1.6.5.3.:.S _.  &X&X&X&X&X&X&X&X&X&X",
"&X&X&X&X&X&X&X&X&Xo P.K F ,.3.6.6.3.,.;._.+ &X&X&X&X&X&X&X&X&X&X",
"&X&X&X&X&X&X&X&X&Xo P.H S >.1.3.3.3.;.;._.  &X&X&X&X&X&X&X&X&X&X",
"&X&X&X&X&X&X&X&X&Xo !.^.'.'.'.oX'.'.'.'.^.% &X&X&X&X&X&X&X&X&X&X",
"&X&X&X&X&X&X&X&X&Xo o o o o o o % o o o o o &X&X&X&X&X&X&X&X&X&X",
"&X&X&X&X&X&X&X&X&X&X&X&X&X&X&X&X&X&X&X&X&X&X&X&X&X&X&X&X&X&X&X&X",
"&X&X&X&X&X&X&X&X&X&X&X&X&X&X&X&X&X&X&X&X&X&X&X&X&X&X&X&X&X&X&X&X",
"&X&X&X&X&X&X&X&X&X&X&X&X&X&X&X&X&X&X&X&X&X&X&X&X&X&X&X&X&X&X&X&X",
"&X&X&X&X&X&X&X&X&X&X&X&X&X&X&X&X&X&X&X&X&X&X&X&X&X&X&X&X&X&X&X&X",
"&X&X&X&X&X&X&X&X&X&X&X&X&X&X&X&X&X&X&X&X&X&X&X&X&X&X&X&X&X&X&X&X",
"&X&X&X&X&X&X&X&X&X&X&X&X&X&X&X&X&X&X&X&X&X&X&X&X&X&X&X&X&X&X&X&X"
};
