/* XPM */
static const char *media_playback_start_large[] = {
/* columns rows colors chars-per-pixel */
"32 32 105 2",
"   c #41433F",
".  c #464743",
"X  c #494B45",
"o  c #4A4B47",
"O  c #4A4C47",
"+  c #494B48",
"@  c #4B4C49",
"#  c #4F4F4B",
"$  c #4F514D",
"%  c #50514D",
"&  c #52524D",
"*  c #51514F",
"=  c #51524E",
"-  c #525350",
";  c #535450",
":  c #545652",
">  c #555652",
",  c #5B5C57",
"<  c #5F5F5C",
"1  c #5E605B",
"2  c #60615C",
"3  c #62625F",
"4  c #636360",
"5  c #656761",
"6  c #656662",
"7  c #666762",
"8  c #696B66",
"9  c #6B6C67",
"0  c #6F706C",
"q  c #70726C",
"w  c #767771",
"e  c #777972",
"r  c #787A77",
"t  c #797B77",
"y  c #7B7C78",
"u  c #7C7D78",
"i  c #7C7E79",
"p  c #7E807C",
"a  c #898986",
"s  c #959692",
"d  c #959693",
"f  c #9C9E9A",
"g  c #AAABA9",
"h  c #B7B7B6",
"j  c #B8B9B6",
"k  c #BABBB8",
"l  c #C1C2C1",
"z  c #CCCCCB",
"x  c #D0D1CF",
"c  c #D2D3D1",
"v  c #D7D8D6",
"b  c #E1E1DF",
"n  c #E2E5E0",
"m  c #E3E6E1",
"M  c #E4E6E4",
"N  c #E6E8E5",
"B  c #E6E9E5",
"V  c #E7E9E5",
"C  c #E7EAE6",
"Z  c #E8EAE6",
"A  c #E9EBE7",
"S  c #EAEBEA",
"D  c #E9ECE8",
"F  c #EAECE8",
"G  c #EAEDE9",
"H  c #EBEDE9",
"J  c #EBEDEA",
"K  c #EBEDEB",
"L  c #EBEEEA",
"P  c #ECEEEA",
"I  c #ECEEEB",
"U  c #EDEFEB",
"Y  c #EDEFEC",
"T  c #EDEEED",
"R  c #EEEFEC",
"E  c #EEEFED",
"W  c #EDF0EC",
"Q  c #EEF0ED",
"!  c #EEF0EE",
"~  c #EFF1EE",
"^  c #EFF1EF",
"/  c #F0F1EF",
"(  c #F0F2EF",
")  c #F1F1F0",
"_  c #F1F2F0",
"`  c #F1F3F0",
"'  c #F2F4F1",
"]  c #F3F4F2",
"[  c #F4F5F3",
"{  c #F4F4F4",
"}  c #F4F5F4",
"|  c #F4F6F4",
" . c #F5F6F4",
".. c #F5F6F5",
"X. c #F6F7F5",
"o. c #F6F7F6",
"O. c #F7F8F6",
"+. c #F7F8F7",
"@. c #F8F8F8",
"#. c #F8F9F8",
"$. c #F9F9F8",
"%. c #F9FAF9",
"&. c #FAFBFA",
"*. c #FDFEFD",
"=. c None",
/* pixels */
"=.=.=.=.=.=.=.=.=.=.=.=.=.=.=.=.=.=.=.=.=.=.=.=.=.=.=.=.=.=.=.=.",
"=.=.=.=.=.=.=.=.=.=.=.=.=.=.=.=.=.=.=.=.=.=.=.=.=.=.=.=.=.=.=.=.",
"=.=.=.=.=.=.=.=.=.=.=.=.=.=.=.=.=.=.=.=.=.=.=.=.=.=.=.=.=.=.=.=.",
"=.=.=.=.=.=.=.=.=.=.=.=.=.=.=.=.=.=.=.=.=.=.=.=.=.=.=.=.=.=.=.=.",
"=.=.=.=.=.=.=.=.=.=.=.=.=.=.=.=.=.=.=.=.=.=.=.=.=.=.=.=.=.=.=.=.",
"=.=.=.=.=.=.=.=.=.=.=.=.=.=.=.=.=.=.=.=.=.=.=.=.=.=.=.=.=.=.=.=.",
"=.=.=.=.=.=.=.=.X =.=.=.=.=.=.=.=.=.=.=.=.=.=.=.=.=.=.=.=.=.=.=.",
"=.=.=.=.=.=.=.=.. 4 @ =.=.=.=.=.=.=.=.=.=.=.=.=.=.=.=.=.=.=.=.=.",
"=.=.=.=.=.=.=.=.. &.l - . =.=.=.=.=.=.=.=.=.=.=.=.=.=.=.=.=.=.=.",
"=.=.=.=.=.=.=.=.. [ L I f $ =.=.=.=.=.=.=.=.=.=.=.=.=.=.=.=.=.=.",
"=.=.=.=.=.=.=.=.. [ A A R M r # =.=.=.=.=.=.=.=.=.=.=.=.=.=.=.=.",
"=.=.=.=.=.=.=.=.. [ A A F F R c < @ =.=.=.=.=.=.=.=.=.=.=.=.=.=.",
"=.=.=.=.=.=.=.=.. [ A A A A F F Q k * =.=.=.=.=.=.=.=.=.=.=.=.=.",
"=.=.=.=.=.=.=.=.. | L I F L L L L I I d * =.=.=.=.=.=.=.=.=.=.=.",
"=.=.=.=.=.=.=.=.. | Q Q R Q Q Q Q R Q _ M 0 * =.=.=.=.=.=.=.=.=.",
"=.=.=.=.=.=.=.=.. +.( _ _ ( Q Q L L V m n R x ; : =.=.=.=.=.=.=.",
"=.=.=.=.=.=.=.=.. | A A A F F F D A A V L _ h X =.=.=.=.=.=.=.=.",
"=.=.=.=.=.=.=.=.@ | L R R / ( ( Q ( Q ] v 6 < =.=.=.=.=.=.=.=.=.",
"=.=.=.=.=.=.=.=.* &.R _ ] | | o.o.&.L i 4 =.=.=.=.=.=.=.=.=.=.=.",
"=.=.=.=.=.=.=.=.: @.( ] | o.&.*.{ g 7 =.=.=.=.=.=.=.=.=.=.=.=.=.",
"=.=.=.=.=.=.=.=., @.( ( [ | &.z 8 r =.=.=.=.=.=.=.=.=.=.=.=.=.=.",
"=.=.=.=.=.=.=.=.2 o.I R | b i y =.=.=.=.=.=.=.=.=.=.=.=.=.=.=.=.",
"=.=.=.=.=.=.=.=.6 [ ( I d w =.=.=.=.=.=.=.=.=.=.=.=.=.=.=.=.=.=.",
"=.=.=.=.=.=.=.=.9 &.j e =.=.=.=.=.=.=.=.=.=.=.=.=.=.=.=.=.=.=.=.",
"=.=.=.=.=.=.=.=.q i a =.=.=.=.=.=.=.=.=.=.=.=.=.=.=.=.=.=.=.=.=.",
"=.=.=.=.=.=.=.=.=.=.=.=.=.=.=.=.=.=.=.=.=.=.=.=.=.=.=.=.=.=.=.=.",
"=.=.=.=.=.=.=.=.=.=.=.=.=.=.=.=.=.=.=.=.=.=.=.=.=.=.=.=.=.=.=.=.",
"=.=.=.=.=.=.=.=.=.=.=.=.=.=.=.=.=.=.=.=.=.=.=.=.=.=.=.=.=.=.=.=.",
"=.=.=.=.=.=.=.=.=.=.=.=.=.=.=.=.=.=.=.=.=.=.=.=.=.=.=.=.=.=.=.=.",
"=.=.=.=.=.=.=.=.=.=.=.=.=.=.=.=.=.=.=.=.=.=.=.=.=.=.=.=.=.=.=.=.",
"=.=.=.=.=.=.=.=.=.=.=.=.=.=.=.=.=.=.=.=.=.=.=.=.=.=.=.=.=.=.=.=.",
"=.=.=.=.=.=.=.=.=.=.=.=.=.=.=.=.=.=.=.=.=.=.=.=.=.=.=.=.=.=.=.=."
};
