/* XPM */ 
static const char * DownButton[] = {
"36 36 69 1",
" 	c None",
"!	c #E6E6E6",
"#	c #CDCDCD",
"$	c #828282",
"%	c #7E7E7E",
"&	c #868686",
"'	c #8B8B8B",
"(	c #8E8E8E",
")	c #909090",
"*	c #919191",
"+	c #D0D0D0",
",	c #7D7D7D",
"-	c #9E9E9E",
".	c #B0B0B0",
"0	c #B7B7B7",
"1	c #B8B8B8",
"2	c #B9B9B9",
"3	c #B6B6B6",
"4	c #9D9D9D",
"5	c #949494",
"6	c #848484",
"7	c #B1B1B1",
"8	c #BABABA",
"9	c #BBBBBB",
":	c #969696",
";	c #BCBCBC",
"<	c #787878",
"=	c #A0A0A0",
">	c #ABABAB",
"?	c #AEAEAE",
"@	c #B2B2B2",
"A	c #B3B3B3",
"B	c #A7A7A7",
"C	c #A3A3A3",
"D	c #A9A9A9",
"E	c #ACACAC",
"F	c #A6A6A6",
"G	c #A4A4A4",
"H	c #AAAAAA",
"I	c #ADADAD",
"J	c #AFAFAF",
"K	c #B4B4B4",
"L	c #B3B3B4",
"M	c #A8A8A8",
"N	c #B5B5B5",
"O	c #BDBDBD",
"P	c #BCBCBA",
"Q	c #BEBEBE",
"R	c #C1C1C1",
"S	c #C0C0C0",
"T	c #9A9A9A",
"U	c #999999",
"V	c #878787",
"W	c #7A7A7A",
"X	c #8F8F8F",
"Y	c #676767",
"Z	c #737373",
"[	c #A5A5A5",
"]	c #D7D7D7",
"^	c #656565",
"_	c #4B4B4B",
"`	c #3E3E3E",
"a	c #393939",
"b	c #383838",
"c	c #F7F7F7",
"d	c #E7E7E7",
"e	c #D2D2D2",
"f	c #888888",
"g	c #858585",
"!#$%&'())***))*******))******('&%$#!",
"+,-.0011222212222222212222222113.4,+",
"567228889899898899999898899998222765",
"*:128999;9;99;9;9;;;99;9;9;;999821:*",
"<4302222822228222822228222822222034<",
"<=>?.7@AAAAAAAAAAAAAAAAAAAAAA@7.?>=<",
"<B>?.77..777..7777777..77777777.?>B<",
"<B>?.77777777777777777777777777.?>B<",
"<B>?.77@@@@@@@@@@@@@@@@@@@@@@77.?>B<",
"<CDE?..@@@@@@@@@@@@@@@@@@@@@@77.?>F<",
"<GHIJ.7@@@@@@@@@@@@@@@@@7777777.?>B<",
"<FHI..7@@@@@@@@@@@@@@@@@7777777.?>B<",
"<F>?..7@@@@@@@@@@@@@@@@@@@@@@77.?>B<",
"<F>?.77@@@@@@@@@@@@@@@@@@@@@@..?EHC<",
"<B>?.77..77@@@@@@@@@@@@@@@@@@7.JIHG<",
"<B>?.777777@@@@@@@@@@@@@@@@@@7..IHF<",
"<B>?.77@@@@@@@@@@@@@@@@@@@@@@7..?>F<",
"<CDE?..@@@@@@@@@@@@@@@@@@@@@@77.?>F<",
"<GHIJ.7@@@@@@@@@@@@@@@@@7777777.?>B<",
"<FHI..7@@@@@@@@@@@@@@@@@7777777.?>B<",
"<F>?..7@@@@@@@@@@@@@@@@@@@@@@77.?>B<",
"<F>?.77@@@@@@@@@@@@@@@@@@@@@@..?EHC<",
"<B>?.77..7777777..777777@@@@@7.JIHG<",
"<B>?.7777777777777777777@@@@@7..IHF<",
"<B>?.77@@@@@@@@@@@@@@@@@@@@@@7..?>F<",
"<B>?.@7AA@AA@@AAAA@A@@AA@@@@@77.?>F<",
"<BEJ.@AKAAAAAKALKAAAAKALAAKALA@7JEM<",
"<BI.@AKNNKNNNNNNNNKNNNNNNNNNNKKA.IB<",
"<M?AKN3100001000100010000100003K@?M<",
"<D.A1898;;;;O;9P8;;;O;9P;O;9P982K.H<",
"<HA8QRRRRRSSRRSRRRRSRRSRSRRSRRRQ9AH<",
"<T1RRRRRRRRRRRRRRRRRRRRRRRRRRRRRS0U<",
"VW2RRRRRRRRRRRRRRRRRRRRRRRRRRRRRR2WV",
"XYZ[RRRRRRRRRRRRRRRRRRRRRRRRRRRR[ZYX",
"]V^_`abbbbbbbbbbbbbbbbbbbbbbbba`_^V]",
"cde*fg666666666666666666666666gf*edc"};