/* XPM */
static const char * Down[] = {
"27 27 81 1",
" 	c None",
".	c #949494",
"+	c #BCBCBC",
"@	c #BABABA",
"#	c #BDBDBD",
"$	c #BBBBBB",
"%	c #BBBBBA",
"&	c #979797",
"*	c #898989",
"=	c #ABABAB",
"-	c #ADADAD",
";	c #ACACAC",
">	c #AEAEAE",
",	c #B0B0B0",
"'	c #AFAFAF",
")	c #AEAEAB",
"!	c #8F8F8F",
"~	c #777777",
"{	c #8D8D8D",
"]	c #8E8E8E",
"^	c #8B8B8B",
"/	c #8C8C8C",
"(	c #8A8A8A",
"_	c #8A8A8E",
":	c #767676",
"<	c #7C7C7C",
"[	c #919191",
"}	c #909090",
"|	c #929292",
"1	c #808080",
"2	c #838383",
"3	c #959595",
"4	c #969696",
"5	c #939393",
"6	c #878787",
"7	c #989898",
"8	c #999999",
"9	c #9A9A9A",
"0	c #9B9B9B",
"a	c #9C9C9C",
"b	c #9F9F9F",
"c	c #9E9E9E",
"d	c #9D9D9D",
"e	c #A0A0A0",
"f	c #A1A1A1",
"g	c #A2A2A2",
"h	c #A3A3A3",
"i	c #A4A4A4",
"j	c #A6A6A6",
"k	c #A5A5A5",
"l	c #A7A7A7",
"m	c #A8A8A8",
"n	c #A9A9A9",
"o	c #AAAAAA",
"p	c #B1B1B1",
"q	c #B2B2B2",
"r	c #B5B5B5",
"s	c #B4B4B4",
"t	c #B3B3B3",
"u	c #B6B6B6",
"v	c #B7B7B7",
"w	c #B8B8B8",
"x	c #BEBEBE",
"y	c #BFBFBF",
"z	c #C0C0C0",
"A	c #C1C1C1",
"B	c #C2C2C2",
"C	c #C7C7C7",
"D	c #C6C6C6",
"E	c #C5C5C5",
"F	c #C8C8C8",
"G	c #C6C6C7",
"H	c #CBCBCB",
"I	c #CDCDCD",
"J	c #CCCCCC",
"K	c #CACACA",
"L	c #D2D2D2",
"M	c #D1D1D1",
"N	c #D3D3D3",
"O	c #CECECE",
"P	c #D0D0D0",
".+@#$++$$@+@$@$$@$$#$%@#$$&",
"*==---=;>>--;,;;=-;;')=--;!",
"~{]^]^//^/*{/]{//](]{_]^]/:",
"<[}[[}[}}}}}[[[[}}]|}[}[[!1",
"2.....3..4..3..3..53.....52",
"67788888789999998098877707(",
"^0000000900000aa0a0aa000a9/",
"]bcddddadddddddcdddcdcccdd]",
"[beebbeeebbbbeeeefgebeeeee|",
"5efffffffeeegffgghiegggfgf.",
"3hhiiihhghhhhhhiiiihhhhiig4",
"&hhjkkkiikkikkikjkikkkkkkh&",
"7iiljjjjjllkkkkjjkkjkjljjk7",
"8lmmnnommmmljjmnllnllmmmnn9",
"amnnooonnnnmmmnonnomnnnnood",
"cnoo=oooo==oooo=ooo=ooo=ooe",
"e>>>'-;>'->;---'>>>-;->;>=g",
"g'''''-,,>'->>'''''>->'-'-i",
"jp,ppppppq,,pp,pp,qpppp,ppm",
"=rrrstsrrtrrsrurusstttsrrs;",
">vvvrruvvrvvuvvwwuururrvvu>",
"p$$$$$@$$$@@@@@@@@$@@@@@@$p",
"s###xxx#x###x###x#######+#s",
"vyzzzAzzByzzzzyzAzyyzzzyxzv",
"yCCCDEDDDCFDCDEEDDDFCGCCDCz",
"CHIHHIJHHHKHJJHHKHJJJJIHHHD",
"ILMLLLLMNLOPMMPPMMLMMPMLLMI"};
