/* XPM */ 
static const char * UpButton[] = {
"36 36 75 1",
" 	c None",
"!	c white",
"#	c #CDCDCD",
"$	c #ACACAC",
"%	c #A6A6A6",
"&	c #B1B1B1",
"'	c #B7B7B7",
"(	c #BBBBBB",
")	c #BEBEBE",
"*	c #BFBFBF",
"+	c #D0D0D0",
",	c #A5A5A5",
"-	c #D1D1D1",
".	c #E8E8E8",
"0	c #F2F2F2",
"1	c #F3F3F3",
"2	c #F4F4F4",
"3	c #F1F1F1",
"4	c #C4C4C4",
"5	c #AEAEAE",
"6	c #EAEAEA",
"7	c #F5F5F5",
"8	c #F6F6F6",
"9	c #F7F7F7",
":	c #C6C6C6",
";	c #F8F8F8",
"<	c #A8A8A8",
"=	c #CFCFCF",
">	c #F0F0F0",
"?	c #9E9E9E",
"@	c #D4D4D4",
"A	c #E2E2E2",
"B	c #E6E6E6",
"C	c #E9E9E9",
"D	c #EBEBEB",
"E	c #ECECEC",
"F	c #DCDCDC",
"G	c #D7D7D7",
"H	c #DFDFDF",
"I	c #E3E3E3",
"J	c #DBDBDB",
"K	c #D9D9D9",
"L	c #E0E0E0",
"M	c #E5E5E5",
"N	c #E7E7E7",
"O	c #E1E1E1",
"P	c #DDDDDD",
"Q	c #EEEEEE",
"R	c #EDEDED",
"S	c #EEEDED",
"T	c #DEDEDE",
"U	c #E4E4E4",
"V	c #EFEFEF",
"W	c #F9F9F9",
"X	c #FAFAFA",
"Y	c #F6F8F8",
"Z	c #FBFBFB",
"[	c #FEFEFE",
"]	c #CBCBCB",
"^	c #CACACA",
"_	c #B2B2B2",
"`	c #A1A1A1",
"a	c #BDBDBD",
"b	c #888888",
"c	c #989898",
"d	c #DADADA",
"e	c #858585",
"f	c #636363",
"g	c #525252",
"h	c #4B4B4B",
"i	c #4A4A4A",
"j	c #D2D2D2",
"k	c #B4B4B4",
"l	c #B0B0B0",
"m	c #AFAFAF",
"!#$%&'())***))*******))******('&%$#!",
"+,-.0011222212222222212222222113.+,+",
"456278889899898899999898899998772654",
"*:178999;9;99;9;9;;;99;9;9;;999871:*",
"<=>027778777787778777787778777220>=?",
"?@ABC6DEEEEEEEEEEEEEEEEEEEEEED6CBA@?",
"?FAB.66CC666CC6666666CC66666666.BAF?",
"?FAB.66666666666666666666666666.BAF?",
"?FAB.66DDDDDDDDDDDDDDDDDDDDDD66.BAF?",
"?GHIB.CDDDDDDDDDDDDDDDDDDDDDD66.BAJ?",
"?KLMNC6DDDDDDDDDDDDDDDDD6666666.BAF?",
"?JOM.C6DDDDDDDDDDDDDDDDD6666666.BAF?",
"?JAB.C6DDDDDDDDDDDDDDDDDDDDDD66.BAF?",
"?JAB.66DDDDDDDDDDDDDDDDDDDDDDC.BILG?",
"?FAB.66CC66DDDDDDDDDDDDDDDDDD6CNMLK?",
"?FAB.666666DDDDDDDDDDDDDDDDDD6C.MOJ?",
"?FAB.66DDDDDDDDDDDDDDDDDDDDDD6C.BAJ?",
"?GHIB.CDDDDDDDDDDDDDDDDDDDDDD66.BAJ?",
"?KLMNC6DDDDDDDDDDDDDDDDD6666666.BAF?",
"?JOM.C6DDDDDDDDDDDDDDDDD6666666.BAF?",
"?JAB.C6DDDDDDDDDDDDDDDDDDDDDD66.BAF?",
"?JAB.66DDDDDDDDDDDDDDDDDDDDDDC.BILG?",
"?FAB.66CC6666666CC666666DDDDD6CNMLK?",
"?FAB.6666666666666666666DDDDD6C.MOJ?",
"?FAB.66DDDDDDDDDDDDDDDDDDDDDD6C.BAJ?",
"?PABCD6EEDEEDDEEEEDEDDEEDDDDD66.BAJ?",
"?PINCDEQRREEEQESQRREEQESEEQESED6NIT?",
"?PUCDEQVVQVVVVVVVVQVVVVVVVVVVQQECUP?",
"?TBEQV3100001000100010000100003QDBT?",
"?H.R1898;;WWX;9Y8;;WX;9YWX;9Y982Q.L?",
"?OE8Z!!!!![[!![!!!![!![![!![!!!Z9EO?",
"?]1!!!!!!!!!!!!!!!!!!!!!!!!!!!!![0^?",
"_`2!!!!!!!!!!!!!!!!!!!!!!!!!!!!!!2`_",
"abcd!!!!!!!!!!!!!!!!!!!!!!!!!!!!dcba",
"G_efghiiiiiiiiiiiiiiiiiiiiiiiihgfe_G",
"!Nj*klmmmmmmmmmmmmmmmmmmmmmmmmlk*jN!"};