/* XPM */
static const char * const _default_instrument_xpm[] = {
"48 48 555 2",
"  	c #969696",
". 	c #939395",
"+ 	c #868691",
"@ 	c #7A7A8E",
"# 	c #6C6C8B",
"$ 	c #7B7B8F",
"% 	c #7A7A8F",
"& 	c #383888",
"* 	c #1414AD",
"= 	c #0000CC",
"- 	c #0000CE",
"; 	c #1515AC",
"> 	c #959595",
", 	c #555584",
"' 	c #1111B1",
") 	c #0000EB",
"! 	c #0000FF",
"~ 	c #0000D0",
"{ 	c #565685",
"] 	c #818190",
"^ 	c #1313AE",
"/ 	c #0000DD",
"( 	c #0101FF",
"_ 	c #1919ED",
": 	c #3E3EBA",
"< 	c #6A6AA4",
"[ 	c #7B7B9F",
"} 	c #86869B",
"| 	c #3E3EBB",
"1 	c #454581",
"2 	c #0000D3",
"3 	c #0D0DF6",
"4 	c #4A4AA8",
"5 	c #929297",
"6 	c #4848A9",
"7 	c #0C0CF6",
"8 	c #0000D4",
"9 	c #3B3B86",
"0 	c #0000ED",
"a 	c #0101FE",
"b 	c #3C3CB4",
"c 	c #959596",
"d 	c #4646A6",
"e 	c #0202FE",
"f 	c #4A4A81",
"g 	c #0000F7",
"h 	c #0B0BF7",
"i 	c #878798",
"j 	c #0B0BF8",
"k 	c #4B4B81",
"l 	c #878791",
"m 	c #0202C9",
"n 	c #0E0EF5",
"o 	c #8E8E97",
"p 	c #0E0EF6",
"q 	c #0202C8",
"r 	c #888892",
"s 	c #1818A9",
"t 	c #828296",
"u 	c #818196",
"v 	c #1919A7",
"w 	c #0000F4",
"x 	c #3D3D9B",
"y 	c #3C3C9D",
"z 	c #0000FA",
"A 	c #7C7C8F",
"B 	c #34348C",
"C 	c #0000D8",
"D 	c #0101FA",
"E 	c #8F8F96",
"F 	c #9E9D8A",
"G 	c #979794",
"H 	c #8E8E95",
"I 	c #35358A",
"J 	c #1010B4",
"K 	c #0000E6",
"L 	c #1D1DBA",
"M 	c #989894",
"N 	c #999991",
"O 	c #999892",
"P 	c #A8A27C",
"Q 	c #A19E86",
"R 	c #989892",
"S 	c #9C9B8C",
"T 	c #1C1CBC",
"U 	c #1212B2",
"V 	c #0000E8",
"W 	c #333396",
"X 	c #969695",
"Y 	c #A5A280",
"Z 	c #A7A47F",
"` 	c #A3A184",
" .	c #BAA363",
"..	c #AFA872",
"+.	c #9D9C8C",
"@.	c #9F9E88",
"#.	c #A2A085",
"$.	c #333397",
"%.	c #949495",
"&.	c #424286",
"*.	c #A2A086",
"=.	c #B0AA72",
"-.	c #BDA65D",
";.	c #9F9E8A",
">.	c #B5B06B",
",.	c #CBA14B",
"'.	c #BAAE65",
").	c #B1AD71",
"!.	c #ABA87B",
"~.	c #B1A271",
"{.	c #9A998F",
"].	c #909094",
"^.	c #444484",
"/.	c #6F6FA5",
"(.	c #6464A8",
"_.	c #9E9D8B",
":.	c #B3AF6E",
"<.	c #BDAD5E",
"[.	c #D0A243",
"}.	c #BEB85E",
"|.	c #C0BA5B",
"1.	c #DBA036",
"2.	c #C5B554",
"3.	c #B3AF6D",
"4.	c #ACA879",
"5.	c #B5B06C",
"6.	c #C89B4E",
"7.	c #9F9E89",
"8.	c #6363A9",
"9.	c #0909BE",
"0.	c #444483",
"a.	c #4F4FAF",
"b.	c #7D7D9F",
"c.	c #B7AF68",
"d.	c #BCB662",
"e.	c #CBAF4B",
"f.	c #DF9E2E",
"g.	c #C8C050",
"h.	c #CBC34E",
"i.	c #E69C25",
"j.	c #D0BB46",
"k.	c #C8BA4E",
"l.	c #C2BB59",
"m.	c #BEB55C",
"n.	c #DB9634",
"o.	c #A7A480",
"p.	c #0909BC",
"q.	c #0000D1",
"r.	c #7C7C9F",
"s.	c #9C9C8E",
"t.	c #B6B16A",
"u.	c #C5AD52",
"v.	c #C4BD56",
"w.	c #D7AF3A",
"x.	c #EB991E",
"y.	c #D2C943",
"z.	c #D4CA40",
"A.	c #F19416",
"B.	c #D9C138",
"C.	c #D3C943",
"D.	c #E0AA2E",
"E.	c #CCC44D",
"F.	c #CFB447",
"G.	c #E59425",
"H.	c #B7B26A",
"I.	c #979792",
"J.	c #7D7D8F",
"K.	c #0808BF",
"L.	c #444482",
"M.	c #979795",
"N.	c #B3AD6D",
"O.	c #BDB75E",
"P.	c #D4AB3E",
"Q.	c #CCC44B",
"R.	c #E1AE2C",
"S.	c #F58F10",
"T.	c #DBD038",
"U.	c #DCD234",
"V.	c #F88C0B",
"W.	c #E1C52C",
"X.	c #DDCA33",
"Y.	c #F19A18",
"Z.	c #D4CB40",
"`.	c #DCB134",
" +	c #EF911A",
".+	c #C4BD57",
"++	c #BCB760",
"@+	c #9D9C8B",
"#+	c #3A3A88",
"$+	c #0000D9",
"%+	c #0000D5",
"&+	c #A5A281",
"*+	c #C7AD51",
"=+	c #C4BD55",
"-+	c #DFA92F",
";+	c #D5C83F",
">+	c #E9AB20",
",+	c #FB8306",
"'+	c #E2D62D",
")+	c #E4D92B",
"!+	c #FE8004",
"~+	c #E9C823",
"{+	c #EAC021",
"]+	c #F78F0C",
"^+	c #DCD235",
"/+	c #E7AD25",
"(+	c #F68A0F",
"_+	c #CCC34C",
":+	c #C4BC55",
"<+	c #B4B06C",
"[+	c #808099",
"}+	c #949496",
"|+	c #0404C5",
"1+	c #0000CF",
"2+	c #0000DF",
"3+	c #0000DE",
"4+	c #0000D7",
"5+	c #7D7D9E",
"6+	c #B8B367",
"7+	c #D8A63A",
"8+	c #E6A826",
"9+	c #DFC632",
"0+	c #EFA718",
"a+	c #FF7A01",
"b+	c #E8D824",
"c+	c #ECD821",
"d+	c #FF7901",
"e+	c #EEC91B",
"f+	c #F2B216",
"g+	c #FD8305",
"h+	c #E3D82C",
"i+	c #EEA819",
"j+	c #FB8307",
"k+	c #D4CA42",
"l+	c #D6B43D",
"m+	c #D7A83C",
"n+	c #BDB560",
"o+	c #939081",
"p+	c #686889",
"q+	c #0000DB",
"r+	c #0000E4",
"s+	c #0000E0",
"t+	c #5050AE",
"u+	c #8D8A87",
"v+	c #C0BA5C",
"w+	c #E49C28",
"x+	c #D3C641",
"y+	c #EAAA20",
"z+	c #E7C427",
"A+	c #F59810",
"B+	c #EECD1A",
"C+	c #F2CD18",
"D+	c #F1CA16",
"E+	c #F8A20C",
"F+	c #EAD622",
"G+	c #F59E11",
"H+	c #FF7A02",
"I+	c #DBCD38",
"J+	c #E7A524",
"K+	c #DFA630",
"L+	c #CDB049",
"M+	c #999577",
"N+	c #0000CD",
"O+	c #6A6A8A",
"P+	c #32328D",
"Q+	c #5050AD",
"R+	c #9C9773",
"S+	c #C4BE55",
"T+	c #EC971E",
"U+	c #DBC435",
"V+	c #EEA719",
"W+	c #ECBE1E",
"X+	c #FB4A07",
"Y+	c #F5C112",
"Z+	c #F5C011",
"`+	c #FF7801",
" @	c #F5A810",
".@	c #FC8006",
"+@	c #FF7201",
"@@	c #F3AC15",
"#@	c #FA8308",
"$@	c #E3C92C",
"%@	c #F49012",
"&@	c #E6A427",
"*@	c #DDA432",
"=@	c #9C9870",
"-@	c #33338B",
";@	c #0000E5",
">@	c #0000E9",
",@	c #5151AE",
"'@	c #A1996D",
")@	c #D2B641",
"!@	c #F38612",
"~@	c #E89D24",
"{@	c #F3A616",
"]@	c #F0B718",
"^@	c #FE2604",
"/@	c #FF6701",
"(@	c #FA7909",
"_@	c #F9A80C",
":@	c #FF6201",
"<@	c #F9910D",
"[@	c #FF3702",
"}@	c #FF3E01",
"|@	c #F9770B",
"1@	c #FE3B02",
"2@	c #FF5501",
"3@	c #ED9A1A",
"4@	c #FE7304",
"5@	c #EC991C",
"6@	c #EE811B",
"7@	c #A1996B",
"8@	c #0000D2",
"9@	c #0000EA",
"0@	c #5151AD",
"a@	c #B27C53",
"b@	c #F08F17",
"c@	c #FB5106",
"d@	c #ED8419",
"e@	c #F96E0A",
"f@	c #FA5608",
"g@	c #FE1802",
"h@	c #FF3701",
"i@	c #FD4305",
"j@	c #FC5306",
"k@	c #FF3D00",
"l@	c #FD5706",
"m@	c #FF0A01",
"n@	c #FF0901",
"o@	c #FE2D03",
"p@	c #FF1401",
"q@	c #FF1501",
"r@	c #FC3D07",
"s@	c #FF1802",
"t@	c #FD1C04",
"u@	c #B18053",
"v@	c #0909BF",
"w@	c #5151AC",
"x@	c #C93E34",
"y@	c #FA5207",
"z@	c #FF1F01",
"A@	c #F7570C",
"B@	c #FF0301",
"C@	c #FF0601",
"D@	c #FF0701",
"E@	c #FE2803",
"F@	c #FE2E03",
"G@	c #FF0401",
"H@	c #FF1402",
"I@	c #FF0101",
"J@	c #FF0201",
"K@	c #CE262B",
"L@	c #5252AD",
"M@	c #0202E1",
"N@	c #0A0ABB",
"O@	c #0000F2",
"P@	c #D11828",
"Q@	c #FD1602",
"R@	c #FF0B01",
"S@	c #FF1001",
"T@	c #FF1101",
"U@	c #D30224",
"V@	c #5251AD",
"W@	c #0000FE",
"X@	c #0B0BF5",
"Y@	c #1616AB",
"Z@	c #0000F8",
"`@	c #0000F0",
" #	c #FF0D02",
".#	c #FF0F01",
"+#	c #FF3F01",
"@#	c #FD4005",
"##	c #FF0801",
"$#	c #FF0501",
"%#	c #FF0D01",
"&#	c #FE1F03",
"*#	c #D30124",
"=#	c #1616EF",
"-#	c #31318D",
";#	c #0000F3",
">#	c #FE1C04",
",#	c #FD2E04",
"'#	c #F8610C",
")#	c #FC8206",
"!#	c #FC6905",
"~#	c #F7A30E",
"{#	c #FF5F01",
"]#	c #FE3004",
"^#	c #FE3305",
"/#	c #FF6101",
"(#	c #FD4206",
"_#	c #FF1F03",
":#	c #FF4A01",
"<#	c #F08E16",
"[#	c #FF7101",
"}#	c #F57111",
"|#	c #FC2D05",
"1#	c #C35D38",
"2#	c #3333C5",
"3#	c #5F5F87",
"4#	c #C35B3A",
"5#	c #F8600A",
"6#	c #FC3506",
"7#	c #EEA51B",
"8#	c #F38A15",
"9#	c #F89A0E",
"0#	c #F89F0D",
"a#	c #EED41B",
"b#	c #F8750B",
"c#	c #FE2302",
"d#	c #FF6B01",
"e#	c #F6990F",
"f#	c #F5AF13",
"g#	c #F8730A",
"h#	c #FC8105",
"i#	c #E1D42F",
"j#	c #E5A827",
"k#	c #E69C26",
"l#	c #A29568",
"m#	c #6060A1",
"n#	c #0000E3",
"o#	c #5150AD",
"p#	c #A88D62",
"q#	c #EC901B",
"r#	c #EF9019",
"s#	c #E2B82C",
"t#	c #ECAB1C",
"u#	c #F1A816",
"v#	c #F2A814",
"w#	c #E8DB25",
"x#	c #FB8806",
"y#	c #F3A815",
"z#	c #FB6506",
"A#	c #FD8003",
"B#	c #ECD520",
"C#	c #EBC81F",
"D#	c #EEB41A",
"E#	c #FA8809",
"F#	c #DBD037",
"G#	c #FE7B04",
"H#	c #D6B63D",
"I#	c #CBB44A",
"J#	c #9B9674",
"K#	c #0202FD",
"L#	c #939396",
"M#	c #3030C6",
"N#	c #9A9575",
"O#	c #DF9C2E",
"P#	c #E2A12B",
"Q#	c #D3C440",
"R#	c #E8AA23",
"S#	c #E7B524",
"T#	c #EBB31F",
"U#	c #F49F14",
"V#	c #EBBA1E",
"W#	c #F6980E",
"X#	c #F7980E",
"Y#	c #E3D62C",
"Z#	c #FD8004",
"`#	c #E2C22A",
" $	c #F78C0E",
".$	c #F9830A",
"+$	c #C8BF53",
"@$	c #96917B",
"#$	c #0000EC",
"$$	c #3131B8",
"%$	c #919197",
"&$	c #0505FC",
"*$	c #0000E2",
"=$	c #95927D",
"-$	c #C3AE56",
";$	c #D3AC42",
">$	c #C9C14F",
",$	c #D9C037",
"'$	c #E1B82D",
")$	c #DACF38",
"!$	c #E7B324",
"~$	c #E6B826",
"{$	c #F19E17",
"]$	c #ECAA1D",
"^$	c #DBD136",
"/$	c #F19A16",
"($	c #D8CF3A",
"_$	c #D5CB3E",
":$	c #F09218",
"<$	c #E89421",
"[$	c #BFB95D",
"}$	c #858494",
"|$	c #0404FC",
"1$	c #909096",
"2$	c #6D6D9A",
"3$	c #444488",
"4$	c #BFB25C",
"5$	c #C1BA5A",
"6$	c #C9BA4E",
"7$	c #CCC24D",
"8$	c #D2C042",
"9$	c #D0C845",
"0$	c #D6C33D",
"a$	c #DFB431",
"b$	c #EAA121",
"c$	c #DDB934",
"d$	c #DFB030",
"e$	c #CFC647",
"f$	c #DFA22F",
"g$	c #D4A23F",
"h$	c #6E6E9A",
"i$	c #65659D",
"j$	c #0404FD",
"k$	c #444491",
"l$	c #A09F88",
"m$	c #B3AE6D",
"n$	c #B9B365",
"o$	c #BDB75F",
"p$	c #C6BF53",
"q$	c #C8C051",
"r$	c #CCBB49",
"s$	c #DEA630",
"t$	c #CAC04E",
"u$	c #C8BE51",
"v$	c #C3BC59",
"w$	c #C9AF4F",
"x$	c #BAB464",
"y$	c #BAAD61",
"z$	c #ADAA76",
"A$	c #68689D",
"B$	c #8D8D99",
"C$	c #3636CF",
"D$	c #0C0CF7",
"E$	c #44449F",
"F$	c #5151AF",
"G$	c #2828BE",
"H$	c #919198",
"I$	c #9C9B8D",
"J$	c #ADA977",
"K$	c #B8B267",
"L$	c #A8A57B",
"M$	c #BBB563",
"N$	c #BEB95E",
"O$	c #C5B355",
"P$	c #ABA779",
"Q$	c #A5A381",
"R$	c #B2AE6F",
"S$	c #AEAA75",
"T$	c #A09E89",
"U$	c #2727BD",
"V$	c #3737CF",
"W$	c #8D8D98",
"X$	c #959597",
"Y$	c #989891",
"Z$	c #B4AF6C",
"`$	c #A9A67A",
" %	c #9A9990",
".%	c #999990",
"+%	c #9C9B8F",
"                                                                                                ",
"                                                                                                ",
"                                                                                                ",
"                                                                                                ",
"                                        . + @ # # $ + .                                         ",
"                                  % & * = = = - - = = = ; & %                                   ",
"                            > , ' = - ) ! ! ! ! ! ! ! ! ) ~ = ' { >                             ",
"                          ] ^ = / ! ( _ : < [ } } [ < | _ ( ! / = ^ ]                           ",
"                        1 = 2 ! 3 4 5                     5 6 7 ! 8 = 1                         ",
"                      9 = 0 a b c                             > d e ) = 9                       ",
"                    f = g h i                                     i j g = k                     ",
"                  l m ) n o                                         o p ) q r                   ",
"                  s 2 ( t                                             u ( 8 v                   ",
"                % = w x                                                 y z = A                 ",
"                B C D E                       F G         G             H z C I                 ",
"                J K L                 M N   O P Q       R S               T K U                 ",
"                ~ V W               X Y Z   `  ...+.    @.#.X             $.V ~                 ",
"              %.= / &.              *.=.-.;.>.,.'.).G   !.~.{.            &./ = %.              ",
"              ].= 8 ^./.(.c       _.:.<.[.}.|.1.2.}.3.4.5.6.7.      c 8./.^.8 = ].              ",
"            @ 9.= ~ 0.a.= b.    7.c.d.e.f.g.h.i.j.g.k.l.m.n.o.      b.= a.0.~ = p.$             ",
"          A m = = q.0.a.= r.  s.t.u.v.w.x.y.z.A.B.C.D.E.F.G.H.S I.  r.= a.0.q.= = m J.          ",
"        . K.= = ~ 2 L.a.= r.M.N.O.P.Q.R.S.T.U.V.W.X.Y.Z.`. +.+++5.@+r.= a.L.2 ~ = = p..         ",
"        #+= = q.$+%+0.a.= r.&+*+=+-+;+>+,+'+)+!+~+{+]+^+/+(+_+:+*+<+[+= a.0.%+$+q.= = #+        ",
"      }+|+= 1+2+3+4+0.a.= 5+6+7+_+8+9+0+a+b+c+d+e+f+g+h+i+j+k+l+m+n+o+= a.0.4+3+2+1+= |+}+      ",
"      p+= - q+r+s+4+0.t+= u+v+w+x+y+z+A+d+B+C+d+D+E+d+F+G+H+I+J+K+L+M+= a.0.4+s+r+q+N+= O+      ",
"      P+= %+r+V s+4+0.Q+= R+S+T+U+V+W+X+d+Y+Z+`+ @.@+@@@#@d+$@%@&@*@=@= t+0.4+s+V r+%+= -@      ",
"      s - 2+;@>@s+4+0.,@= '@)@!@~@{@]@^@/@(@_@:@<@[@}@|@1@2@3@4@5@6@7@= Q+0.4+s+>@;@2+8@v       ",
"      K.4+r+9@>@s+4+0.0@= a@b@c@d@e@f@g@h@i@j@k@l@m@n@o@p@q@r@h@s@t@u@= 0@0.4+s+>@9@r+/ v@      ",
"      q ) ) 9@>@s+4+0.w@= x@y@z@A@B@C@D@n@E@F@G@H@I@I@J@I@I@B@I@I@I@K@= L@0.4+s+>@9@) ) M@      ",
"      N@! O@) >@s+4+0.L@= P@Q@I@R@I@J@I@S@T@s@I@I@I@I@I@I@I@I@I@I@I@U@= V@0.4+s+>@) O@W@X@      ",
"      Y@! Z@`@>@s+4+0.w@= U@ #C@I@.#+#T@@#G@##B@I@$#%#S@G@m@&#####I@*#= w@0.4+s+>@`@Z@! =#      ",
"      -#! ! ;#) s+4+0.L@= *#I@>#,#'#)#!#~#{#]#%#S@^#/#(#_#:#<#[#}#|#1#= 0@0.4+s+) ;#! ! 2#      ",
"      3#! ! g `@s+4+0.V@= 4#5#6#7#8#9#0#a#`+b#c#d#e#d+f#g#h#i#d+j#k#l#= ,@0.4+s+`@g ! ! m#      ",
"      . e ! ! g n#4+0.o#= p#q#r#s#t#u#v#w#x#y#z#A#B#d+C#D#E#F#G#H#I#J#= 0@0.4+n#Z@! ! K#L#      ",
"        M#! ! ! ) $+0.a.= N#O#P#Q#R#S#T#'+U#V#W#X#Y#Z#i#`# $z..$+$}.@$= a.0.$+#$! ! ! $$        ",
"        %$&$! ! ! *$^.a.= =$-$;$>$`.,$'$)$!$~${$]$^$/$($_$:$Q.<$[$H.}$= a.^.*$! ! ! |$1$        ",
"          2$! ! ! ! 3$a.= }$>.4$5$6$7$8$9$0$a$b$c$C.d$e$Q.f$.+g$6+_.r.= a.3$! ! ! ( h$          ",
"            i$j$! ! k$a.= r.l$m$n$o$5$v.p$q$r$s$t$g.u$S+v$w$x$y$z$  r.= a.k$! ! |$A$            ",
"              B$C$D$E$F$G$H$  I$J$5.6+K$L$M$N$O$[$}.o$P$Q$<+R$S$T$  H$U$F$E$D$V$W$              ",
"                      X$          Y$I$O   +.>.t.Z$Y `$X   X  %.%        X$                      ",
"                                            +%` N                                               ",
"                                                                                                ",
"                                                                                                ",
"                                                                                                ",
"                                                                                                ",
"                                                                                                ",
"                                                                                                ",
"                                                                                                "};
