/* XPM */
static const char * _default_instrument_xpm[] = {
"48 48 288 2",
"  	c #969696",
". 	c #0101C8",
"+ 	c #0000CC",
"@ 	c #0101CA",
"# 	c #2323A7",
"$ 	c #0000CD",
"% 	c #0000F2",
"& 	c #0000FF",
"* 	c #2020A9",
"= 	c #3434A8",
"- 	c #0000D4",
"; 	c #0000D5",
"> 	c #3535A8",
", 	c #0000DD",
"' 	c #909097",
") 	c #939396",
"! 	c #0000F5",
"~ 	c #0000EB",
"{ 	c #979791",
"] 	c #0000EC",
"^ 	c #0000F0",
"/ 	c #0B0BD5",
"( 	c #9B9A8D",
"_ 	c #9B9A8E",
": 	c #979793",
"< 	c #0B0BD4",
"[ 	c #0000EF",
"} 	c #2828BB",
"| 	c #0000CF",
"1 	c #9D9C8A",
"2 	c #A09E86",
"3 	c #A09E85",
"4 	c #99988F",
"5 	c #0000CE",
"6 	c #2828BC",
"7 	c #0404C5",
"8 	c #0000D7",
"9 	c #0000D3",
"0 	c #A19F84",
"a 	c #A4A180",
"b 	c #A6A47E",
"c 	c #A9A67A",
"d 	c #A9A679",
"e 	c #A8A57B",
"f 	c #A6A47D",
"g 	c #9C9B8C",
"h 	c #0404C4",
"i 	c #0000D0",
"j 	c #989792",
"k 	c #B7A264",
"l 	c #B0AC70",
"m 	c #B2AD6D",
"n 	c #B3AF6C",
"o 	c #B3AE6D",
"p 	c #B1AD6F",
"q 	c #A8A57C",
"r 	c #A7A47C",
"s 	c #A4A181",
"t 	c #9D9C8B",
"u 	c #ACA975",
"v 	c #B2AD6E",
"w 	c #DE902D",
"x 	c #BBB561",
"y 	c #BDB85D",
"z 	c #BFB95B",
"A 	c #EB8B1C",
"B 	c #BEB85D",
"C 	c #BCB65F",
"D 	c #B9B363",
"E 	c #B5B069",
"F 	c #B0AC6F",
"G 	c #D4913D",
"H 	c #A7A47D",
"I 	c #7F7F97",
"J 	c #0000E7",
"K 	c #9F9D88",
"L 	c #AEAA73",
"M 	c #B5B068",
"N 	c #FF7901",
"O 	c #C7BF51",
"P 	c #CAC24C",
"Q 	c #CBC44A",
"R 	c #CBC34B",
"S 	c #C9C14E",
"T 	c #FB7A03",
"U 	c #C0B959",
"V 	c #BBB660",
"W 	c #FD7902",
"X 	c #0000EA",
"Y 	c #B6B167",
"Z 	c #D2C941",
"` 	c #D6CC3C",
" .	c #D8CD3A",
"..	c #D6CD3B",
"+.	c #D4CB3E",
"@.	c #CCC449",
"#.	c #BAB463",
"$.	c #B3AE6C",
"%.	c #D1C843",
"&.	c #E6B823",
"*.	c #E0D42F",
"=.	c #E2D62C",
"-.	c #E1D52E",
";.	c #DED331",
">.	c #D7CD3B",
",.	c #D2C942",
"'.	c #C4BD54",
").	c #BCB65E",
"!.	c #B4AF6A",
"~.	c #ADAA74",
"{.	c #989891",
"].	c #0707C1",
"^.	c #0000E9",
"/.	c #9E9D8A",
"(.	c #B3AF6B",
"_.	c #BDB75D",
":.	c #C8C04F",
"<.	c #DDB331",
"[.	c #DACF37",
"}.	c #E7DA25",
"|.	c #E9DC23",
"1.	c #E8DB24",
"2.	c #E6DB26",
"3.	c #DBD134",
"4.	c #CFC546",
"5.	c #ADA974",
"6.	c #0707C2",
"7.	c #0000D6",
"8.	c #BBB661",
"9.	c #C5BE53",
"0.	c #D0C745",
"a.	c #F98106",
"b.	c #E1D52D",
"c.	c #ECDF1E",
"d.	c #EDE01C",
"e.	c #ECDF1D",
"f.	c #EBDE1E",
"g.	c #E3D72A",
"h.	c #DDC332",
"i.	c #D0C744",
"j.	c #CDB747",
"k.	c #BEB85C",
"l.	c #B7B365",
"m.	c #C3BC57",
"n.	c #CDC548",
"o.	c #D7CD3A",
"p.	c #E6DA27",
"q.	c #F0E11A",
"r.	c #F1E218",
"s.	c #F0E219",
"t.	c #F1D116",
"u.	c #EADD22",
"v.	c #FE7A01",
"w.	c #DACF38",
"x.	c #B4AF6B",
"y.	c #C9C24D",
"z.	c #D4CA3F",
"A.	c #DDD232",
"B.	c #EADE21",
"C.	c #FF5501",
"D.	c #F1E417",
"E.	c #F2E417",
"F.	c #FF7801",
"G.	c #F7740D",
"H.	c #CEC647",
"I.	c #E19929",
"J.	c #B8B364",
"K.	c #0000D9",
"L.	c #B9B364",
"M.	c #F09016",
"N.	c #DDBE32",
"O.	c #FF0101",
"P.	c #F2E416",
"Q.	c #FD8803",
"R.	c #F3E517",
"S.	c #F85609",
"T.	c #FF0301",
"U.	c #E5D828",
"V.	c #BDB75E",
"W.	c #0000E5",
"X.	c #F93807",
"Y.	c #FF7701",
"Z.	c #EFE01B",
"`.	c #FF0B01",
" +	c #FF6D01",
".+	c #FA3B06",
"++	c #C1BA59",
"@+	c #C7B051",
"#+	c #F6A510",
"$+	c #F3E417",
"%+	c #C6B650",
"&+	c #0000FE",
"*+	c #0000ED",
"=+	c #FF0801",
"-+	c #FF7301",
";+	c #F69C0D",
">+	c #FF0601",
",+	c #FF6C01",
"'+	c #FB3104",
")+	c #0000FD",
"!+	c #0000F6",
"~+	c #E4C927",
"{+	c #F1E318",
"]+	c #FE7901",
"^+	c #F5A710",
"/+	c #FF6401",
"(+	c #F8830B",
"_+	c #FF0701",
":+	c #FF3801",
"<+	c #FF3701",
"[+	c #C0B95A",
"}+	c #0000FC",
"|+	c #CBAD4B",
"1+	c #DFD430",
"2+	c #EFE11B",
"3+	c #ECE01D",
"4+	c #EAD121",
"5+	c #E1D62C",
"6+	c #FE7902",
"7+	c #0000F1",
"8+	c #BBB562",
"9+	c #E5D927",
"0+	c #EBDE20",
"a+	c #FF4D01",
"b+	c #EBDE1F",
"c+	c #F1BA16",
"d+	c #E9DB23",
"e+	c #E2D52B",
"f+	c #DBD135",
"g+	c #CBC24C",
"h+	c #0808E5",
"i+	c #0000EE",
"j+	c #DDA32F",
"k+	c #D2C842",
"l+	c #E3D829",
"m+	c #E6D926",
"n+	c #E2D52D",
"o+	c #D3CA40",
"p+	c #AFAB71",
"q+	c #0707E5",
"r+	c #AEAB72",
"s+	c #ED8519",
"t+	c #C8C04E",
"u+	c #E99B20",
"v+	c #DAD036",
"w+	c #DCD134",
"x+	c #FB8004",
"y+	c #DED332",
"z+	c #F39611",
"A+	c #EB9C1C",
"B+	c #CFC645",
"C+	c #CAC24D",
"D+	c #DC9E33",
"E+	c #999990",
"F+	c #A5A27F",
"G+	c #B7B266",
"H+	c #C4BC54",
"I+	c #CAC14D",
"J+	c #DAAF35",
"K+	c #D2C843",
"L+	c #FC7B03",
"M+	c #CFC646",
"N+	c #BFB85C",
"O+	c #B1AD6E",
"P+	c #89899A",
"Q+	c #0000F9",
"R+	c #B4B06B",
"S+	c #C3BC56",
"T+	c #C4BE53",
"U+	c #C6BF52",
"V+	c #DEA12E",
"W+	c #D6A83A",
"X+	c #C2BB57",
"Y+	c #B4B06A",
"Z+	c #AFAB72",
"`+	c #A19F86",
" @	c #AAA778",
".@	c #B8B365",
"+@	c #BAB462",
"@@	c #A19F85",
"#@	c #5050AE",
"$@	c #A2A083",
"%@	c #A9A779",
"&@	c #AEAA72",
"*@	c #ACA974",
"=@	c #A3A181",
"-@	c #A3A183",
";@	c #A5A37F",
"                                                                                                ",
"                                                                                                ",
"                                                                                                ",
"                                                                                                ",
"                                                                                                ",
"                                    . + + + + + + + + + + @                                     ",
"                              # + + + $ % & & & & & & % $ + + + *                               ",
"                          = + + - & & & & & & & & & & & & & & ; + + >                           ",
"                        + + , & & & '                     ) & & & , + +                         ",
"                      + + & & &                                 & & & + +                       ",
"                    + + & &                                         & & + +                     ",
"                  + + & &                                             & & + +                   ",
"                + + & &                                                 & & + +                 ",
"                + & &                                                     & & +                 ",
"              + + &                                                         & + +               ",
"              + ! ~                           {                             ] ! +               ",
"              + ^ /                           ( _         :                 < [ +               ",
"            } | ,                     1     2 3 2         4 :                 , 5 6             ",
"            7 8 9                   0 a b   c d e f       1 g                 9 8 h             ",
"            + 8 i                 j c k l m n n o p q   r s 3                 i 8 +             ",
"            + 8 i   + +         t u v w x y z A B C D E F G H           + +   i 8 +             ",
"        I + + J i   + +       K L M C N O P Q N R S T U V W l           + +   i J + + I         ",
"        + 5 X ~ i   + +       L Y z O N Z `  .N ..+.N @.O N #.$.K       + +   i ~ X 5 +         ",
"      + + X ~ ~ i   + +     u M z S %.N &.*.=.N -.;.N >.,.N '.).!.~.{.  + +   i ~ ~ X + +       ",
"    ].+ ^.~ ~ ~ i   + +   /.(._.:.<.[.N N }.|.N 1.2.N -.3.N 4.O B M 5.  + +   i ~ ~ ~ ^.+ 6.    ",
"    + 7.~ ~ ~ ~ i   + +   p 8.9.0.a.b.N N c.d.N e.f.N }.g.N h.i.j.k.E u + +   i ~ ~ ~ ~ 7.+     ",
"    + ^.~ ~ ~ ~ i   + +   l.m.n.o.N p.N N q.r.N s.t.N c.u.N v.w.N O C o + +   i ~ ~ ~ ~ ^.+     ",
"  + + ~ ~ ~ ~ ~ i   + + x.B y.z.A.N B.C.N D.E.N E.F.N G.d.N N -.N H.I.J.+ +   i ~ ~ ~ ~ ~ + +   ",
"  + K.~ ~ ~ ~ ~ i   + + L.'.M.N.=.N e.O.N P.Q.N R.O.N O.S.N T.U.N z.N V.+ +   i ~ ~ ~ ~ ~ K.+   ",
"  + W.~ ~ ~ ~ ~ i   + + _.N N X.p.Y.Z.O.`.R.O. +R.O.O.O.O.N O..+N O.O.+++ +   i ~ ~ ~ ~ ~ W.+   ",
"  7.^.~ ~ ~ ~ ~ i   + + @+N F.O.O.O.s.O.O.#+O.O.$+O.O.O.O.O.O.O.O.O.O.%++ +   i ~ ~ ~ ~ ~ ^.7.  ",
"  &+*+~ ~ ~ ~ ~ i   + + O.O.O.O.O.O.O.O.O.O.O.O.O.O.O.O.O.O.O.O.O.O.O.O.+ +   i ~ ~ ~ ~ ~ *+&+  ",
"  & [ ~ ~ ~ ~ ~ i   + + O.O.O.O.O.O.O.=+O.O.O.O.O.O.O.O.O.O.O.O.O.O.O.O.+ +   i ~ ~ ~ ~ ~ [ &   ",
"  & ! ~ ~ ~ ~ ~ i   + + O.O.O.O.O.O.-+;+O.>+O.O.O.O.,+O.'+O.O.u.O.O.O.O.+ +   i ~ ~ ~ ~ ~ ! &   ",
"  )+!+~ ~ ~ ~ ~ i   + + O.O.O.~+O.d.N {+]+N ^+O./+(+N _+q.:+O.2.N ..<+[++ +   i ~ ~ ~ ~ ~ !+}+  ",
"    ^ *+~ ~ ~ ~ i   + + |+N O.1+N B.N Z.2+N q.O.N q.N N 3+N 4+5+N %.6+x + +   i ~ ~ ~ ~ *+7+    ",
"    ^ &+~ ~ ~ ~ i   + + 8+N N w.N 9+N B.0+N f.a+N b+N c+d+N e+f+N g+[+M + +   i ~ ~ ~ ~ &+^     ",
"    h+& i+~ ~ ~ i   + + E N j+k+N ;.N l+9+N 2.N N m+N g.n+N [.o+N m.L.p++ +   i ~ ~ ~ i+& q+    ",
"      & & ~ ~ ~ i   + + r+s+U t+u++.N v+w+x+y+N z+A.N [. .A+B+C+D+#.v E++ +   i ~ ~ ~ & &       ",
"        & & ] ~ i   + + F+p+G+B H+I+J+B+K+Z o+L+o+Z N M+Q S H+N+J.O+    + +   i ~ ] & &         ",
"        P+& & Q+i   + +   e L R+D V.U S+T+U+O V+O U+W+X+[+).L.Y+Z+c     + +   i Q+& & P+        ",
"            & & &   + +     `+ @L v Y+Y .@#.+@8++@#..@Y   O+L  @f @@    + +   & & &             ",
"                )   #@          $@q %@    L &@Z+&@L *@:     =@-@2         #@  )                 ",
"                                            F+;@;@                                              ",
"                                                                                                ",
"                                                                                                ",
"                                                                                                ",
"                                                                                                "};
