/* XPM */
static const char  * drums_dr_xpm[] = {
"48 48 828 2",
"  	c #969696",
". 	c #707477",
"+ 	c #989386",
"@ 	c #ABA58C",
"# 	c #B2A88D",
"$ 	c #C3B192",
"% 	c #BBAA8B",
"& 	c #A28D77",
"* 	c #A79888",
"= 	c #A29A8A",
"- 	c #8E8B82",
"; 	c #6F7270",
"> 	c #555C63",
", 	c #A99B8A",
"' 	c #D6BC7E",
") 	c #D4B678",
"! 	c #D1B177",
"~ 	c #D3B377",
"{ 	c #D0AC6F",
"] 	c #B79645",
"^ 	c #A27F27",
"/ 	c #BF9849",
"( 	c #D2B175",
"_ 	c #D2B275",
": 	c #CEB575",
"< 	c #C1AC7C",
"[ 	c #968F85",
"} 	c #4D565F",
"| 	c #B4A58A",
"1 	c #D0B675",
"2 	c #D2B573",
"3 	c #D1B275",
"4 	c #CFB578",
"5 	c #C79E5C",
"6 	c #AD802F",
"7 	c #A67B22",
"8 	c #AE8631",
"9 	c #BC9653",
"0 	c #CEAB68",
"a 	c #CDAA64",
"b 	c #CCA863",
"c 	c #C5A461",
"d 	c #8A8880",
"e 	c #8A887A",
"f 	c #C6B579",
"g 	c #CCB36B",
"h 	c #D1AC66",
"i 	c #CBA661",
"j 	c #C89C56",
"k 	c #C59548",
"l 	c #C7A051",
"m 	c #C3A458",
"n 	c #C4A25A",
"o 	c #C5A25A",
"p 	c #C7A65E",
"q 	c #B19E6C",
"r 	c #616564",
"s 	c #707376",
"t 	c #4A5055",
"u 	c #32363D",
"v 	c #424545",
"w 	c #5F5B54",
"x 	c #726951",
"y 	c #81765B",
"z 	c #96845F",
"A 	c #82795A",
"B 	c #827D5F",
"C 	c #747054",
"D 	c #6F6A5D",
"E 	c #575551",
"F 	c #33373A",
"G 	c #2A3036",
"H 	c #313941",
"I 	c #555E66",
"J 	c #676E74",
"K 	c #7B7C7E",
"L 	c #868584",
"M 	c #787A78",
"N 	c #606364",
"O 	c #434549",
"P 	c #2B2F34",
"Q 	c #2B2F33",
"R 	c #636261",
"S 	c #25282C",
"T 	c #1F2327",
"U 	c #1E2227",
"V 	c #1F2328",
"W 	c #1F2429",
"X 	c #22272D",
"Y 	c #282F36",
"Z 	c #323A42",
"` 	c #5D646B",
" .	c #818387",
"..	c #ABA7A4",
"+.	c #D8D2C8",
"@.	c #EAE5D9",
"#.	c #EAE1CF",
"$.	c #F0E6D4",
"%.	c #EEE7D5",
"&.	c #F1EBDB",
"*.	c #E1DAD1",
"=.	c #BAB8AF",
"-.	c #787978",
";.	c #706D6C",
">.	c #2C3136",
",.	c #232930",
"'.	c #272D33",
").	c #2A3037",
"!.	c #2E353C",
"~.	c #333B43",
"{.	c #5B626A",
"].	c #545C66",
"^.	c #505760",
"/.	c #8D847D",
"(.	c #B2A69D",
"_.	c #FEF3E9",
":.	c #FFFFF3",
"<.	c #FFFFF7",
"[.	c #FFFDEE",
"}.	c #FFFDEF",
"|.	c #FEF8EC",
"1.	c #F9F1E9",
"2.	c #EFE9DB",
"3.	c #B7B0A2",
"4.	c #747267",
"5.	c #343B42",
"6.	c #313840",
"7.	c #3B434C",
"8.	c #535860",
"9.	c #77797D",
"0.	c #938F8D",
"a.	c #B2ACA9",
"b.	c #C4C0B7",
"c.	c #BBB7A9",
"d.	c #B3B0A1",
"e.	c #C2BDAE",
"f.	c #A2A093",
"g.	c #9F9F99",
"h.	c #84888B",
"i.	c #60676D",
"j.	c #87888A",
"k.	c #696F74",
"l.	c #4D555E",
"m.	c #737172",
"n.	c #5C554F",
"o.	c #697186",
"p.	c #94929B",
"q.	c #9E9899",
"r.	c #ACA5A4",
"s.	c #A09A98",
"t.	c #9C9A92",
"u.	c #979592",
"v.	c #7C7D8D",
"w.	c #545C73",
"x.	c #7F786F",
"y.	c #68655E",
"z.	c #333A41",
"A.	c #3A424B",
"B.	c #878482",
"C.	c #B4ABA2",
"D.	c #DFD4CA",
"E.	c #E7DCD3",
"F.	c #EFE5DB",
"G.	c #F8EEE5",
"H.	c #F3E8DF",
"I.	c #F3E8DC",
"J.	c #F6ECD9",
"K.	c #EEE5D2",
"L.	c #F0E7DB",
"M.	c #ECE4DA",
"N.	c #D3CDBC",
"O.	c #B1ADA1",
"P.	c #7D7F83",
"Q.	c #656970",
"R.	c #757574",
"S.	c #6C6B6A",
"T.	c #6A6E71",
"U.	c #696C71",
"V.	c #60666B",
"W.	c #545D65",
"X.	c #5B6067",
"Y.	c #3C4047",
"Z.	c #181D29",
"`.	c #293145",
" +	c #2C364B",
".+	c #3D4966",
"++	c #2A3247",
"@+	c #222939",
"#+	c #2A3246",
"$+	c #232A3B",
"%+	c #0E1118",
"&+	c #464449",
"*+	c #696760",
"=+	c #32383E",
"-+	c #40464E",
";+	c #929390",
">+	c #9D9992",
",+	c #8390AF",
"'+	c #DBD8D7",
")+	c #E8E4E0",
"!+	c #E6E5E8",
"~+	c #E9E7E9",
"{+	c #EFEAE8",
"]+	c #F0EBE7",
"^+	c #EEE9E7",
"/+	c #EFEAE4",
"(+	c #EFEAE3",
"_+	c #EAE5E3",
":+	c #C8CAD3",
"<+	c #635C58",
"[+	c #2C2C2C",
"}+	c #212121",
"|+	c #202020",
"1+	c #2B2C2C",
"2+	c #57575A",
"3+	c #5C626A",
"4+	c #4E5660",
"5+	c #6A6F72",
"6+	c #333941",
"7+	c #000000",
"8+	c #030406",
"9+	c #0B0D12",
"0+	c #252730",
"a+	c #7A7666",
"b+	c #494E52",
"c+	c #545A5F",
"d+	c #797B7D",
"e+	c #414758",
"f+	c #516187",
"g+	c #5A6C97",
"h+	c #5D709C",
"i+	c #7D8EB5",
"j+	c #8797BB",
"k+	c #8C9ABD",
"l+	c #99A6C3",
"m+	c #A0ABC7",
"n+	c #8897BB",
"o+	c #5D6C8F",
"p+	c #39352F",
"q+	c #2B2B2B",
"r+	c #262626",
"s+	c #1E1E1E",
"t+	c #1B1B1B",
"u+	c #2C2D2C",
"v+	c #525A61",
"w+	c #565F66",
"x+	c #576274",
"y+	c #313846",
"z+	c #000001",
"A+	c #141822",
"B+	c #010102",
"C+	c #050609",
"D+	c #0D1016",
"E+	c #38393F",
"F+	c #7D7968",
"G+	c #555A5C",
"H+	c #52575D",
"I+	c #5F6366",
"J+	c #2F3546",
"K+	c #1E2533",
"L+	c #212737",
"M+	c #202532",
"N+	c #38435D",
"O+	c #3A4562",
"P+	c #4C5B7F",
"Q+	c #363F57",
"R+	c #3B3D49",
"S+	c #262A32",
"T+	c #1A1D25",
"U+	c #272727",
"V+	c #161616",
"W+	c #151515",
"X+	c #0E0E0E",
"Y+	c #070707",
"Z+	c #6D757F",
"`+	c #394255",
" @	c #1B212E",
".@	c #283043",
"+@	c #171A22",
"@@	c #4D514E",
"#@	c #676159",
"$@	c #777263",
"%@	c #4E5356",
"&@	c #454B50",
"*@	c #787877",
"=@	c #686A70",
"-@	c #363E52",
";@	c #131721",
">@	c #151822",
",@	c #242A37",
"'@	c #0B0D13",
")@	c #07090E",
"!@	c #090C10",
"~@	c #0B0B0B",
"{@	c #020202",
"]@	c #131313",
"^@	c #6E7278",
"/@	c #424E66",
"(@	c #10131B",
"_@	c #202636",
":@	c #020304",
"<@	c #0E1117",
"[@	c #64605C",
"}@	c #787166",
"|@	c #7A7977",
"1@	c #696B6C",
"2@	c #9C9591",
"3@	c #565B6A",
"4@	c #141823",
"5@	c #1D2026",
"6@	c #242529",
"7@	c #07080D",
"8@	c #4D4E4F",
"9@	c #010101",
"0@	c #3E3F40",
"a@	c #31353A",
"b@	c #2E363E",
"c@	c #5A6068",
"d@	c #404B64",
"e@	c #0C0E14",
"f@	c #191E2B",
"g@	c #32333F",
"h@	c #766F63",
"i@	c #807A6D",
"j@	c #606161",
"k@	c #706E70",
"l@	c #262D40",
"m@	c #161A26",
"n@	c #525250",
"o@	c #2E2D2D",
"p@	c #141416",
"q@	c #131414",
"r@	c #141515",
"s@	c #1C1D1D",
"t@	c #2C2D2D",
"u@	c #38393A",
"v@	c #393A3D",
"w@	c #212529",
"x@	c #24292F",
"y@	c #646C7B",
"z@	c #333E56",
"A@	c #040507",
"B@	c #11141C",
"C@	c #010203",
"D@	c #31353D",
"E@	c #625D4E",
"F@	c #646052",
"G@	c #3F4347",
"H@	c #2F353B",
"I@	c #6B6D6E",
"J@	c #515457",
"K@	c #3A3B45",
"L@	c #262931",
"M@	c #11151D",
"N@	c #272F42",
"O@	c #252C3E",
"P@	c #20232A",
"Q@	c #1A1D27",
"R@	c #323641",
"S@	c #4B4D56",
"T@	c #4F4E52",
"U@	c #63615E",
"V@	c #282B2E",
"W@	c #25272B",
"X@	c #606261",
"Y@	c #6D6C67",
"Z@	c #2C2F32",
"`@	c #1E2226",
" #	c #293037",
".#	c #333B44",
"+#	c #545B63",
"@#	c #505C78",
"##	c #3C3D43",
"$#	c #23252D",
"%#	c #31394B",
"&#	c #191B25",
"*#	c #282A32",
"=#	c #3C3E42",
"-#	c #78776F",
";#	c #68665E",
">#	c #959187",
",#	c #3D4045",
"'#	c #2B3136",
")#	c #2D3237",
"!#	c #414245",
"~#	c #676761",
"{#	c #6D6B67",
"]#	c #545962",
"^#	c #50535D",
"/#	c #807866",
"(#	c #5D5851",
"_#	c #6D6B6A",
":#	c #5E5D5E",
"<#	c #1D2125",
"[#	c #1D2226",
"}#	c #23282E",
"|#	c #777876",
"1#	c #6E6C64",
"2#	c #2B3034",
"3#	c #1F242A",
"4#	c #23292F",
"5#	c #282E35",
"6#	c #2D343C",
"7#	c #5D6166",
"8#	c #5D5E5C",
"9#	c #6D6A67",
"0#	c #726A5F",
"a#	c #645B47",
"b#	c #48423A",
"c#	c #606058",
"d#	c #5B5A57",
"e#	c #494A4A",
"f#	c #474849",
"g#	c #6C6A5F",
"h#	c #B1AA9F",
"i#	c #747374",
"j#	c #5C5F63",
"k#	c #41474D",
"l#	c #31363D",
"m#	c #282D34",
"n#	c #23282D",
"o#	c #22272B",
"p#	c #292C31",
"q#	c #2C2F31",
"r#	c #23272B",
"s#	c #202428",
"t#	c #1F2326",
"u#	c #22282E",
"v#	c #31383F",
"w#	c #7D7F7E",
"x#	c #777978",
"y#	c #2F343A",
"z#	c #2A3139",
"A#	c #303740",
"B#	c #5B6166",
"C#	c #2C3239",
"D#	c #262C31",
"E#	c #23272C",
"F#	c #272B2D",
"G#	c #323537",
"H#	c #3D4149",
"I#	c #5B5A56",
"J#	c #4F4B3C",
"K#	c #736E5B",
"L#	c #9C9586",
"M#	c #4E5467",
"N#	c #2E374C",
"O#	c #58606E",
"P#	c #888884",
"Q#	c #555A5E",
"R#	c #30373E",
"S#	c #262C32",
"T#	c #242A31",
"U#	c #252B32",
"V#	c #2B3239",
"W#	c #2F373F",
"X#	c #484E55",
"Y#	c #7C7F81",
"Z#	c #313942",
"`#	c #323A43",
" $	c #2C333B",
".$	c #262C33",
"+$	c #292E35",
"@$	c #474B52",
"#$	c #72809B",
"$$	c #5B6D93",
"%$	c #53607B",
"&$	c #3A4561",
"*$	c #60564E",
"=$	c #565A66",
"-$	c #3C4457",
";$	c #81807B",
">$	c #7E7F7D",
",$	c #3F464E",
"'$	c #363E46",
")$	c #313841",
"!$	c #7C7D7F",
"~$	c #7F8184",
"{$	c #494F55",
"]$	c #6F7376",
"^$	c #6F7784",
"/$	c #7C8BAD",
"($	c #7F8FB6",
"_$	c #6477A5",
":$	c #37415B",
"<$	c #222837",
"[$	c #37425C",
"}$	c #5E6371",
"|$	c #1C2330",
"1$	c #1A202D",
"2$	c #2B3246",
"3$	c #8A8681",
"4$	c #797D7D",
"5$	c #7B7B7D",
"6$	c #848688",
"7$	c #838486",
"8$	c #727D90",
"9$	c #9BA8C6",
"0$	c #A7B1CC",
"a$	c #6F81AC",
"b$	c #323D55",
"c$	c #495779",
"d$	c #151924",
"e$	c #2E374B",
"f$	c #1A202C",
"g$	c #171C28",
"h$	c #2D374D",
"i$	c #808081",
"j$	c #686A6C",
"k$	c #838586",
"l$	c #6B7588",
"m$	c #5D6C91",
"n$	c #7888B1",
"o$	c #B7C0D3",
"p$	c #DCDEE4",
"q$	c #D7D4D4",
"r$	c #C3BBB2",
"s$	c #A8A092",
"t$	c #5B6680",
"u$	c #444C5E",
"v$	c #1D2431",
"w$	c #0F1219",
"x$	c #687087",
"y$	c #686C6D",
"z$	c #8A8A8D",
"A$	c #747577",
"B$	c #7C8081",
"C$	c #999385",
"D$	c #BAC2D4",
"E$	c #EAEBEE",
"F$	c #EEEFF0",
"G$	c #EBEBEB",
"H$	c #E8E9E9",
"I$	c #E6E6E7",
"J$	c #DBDBDB",
"K$	c #CFCDC8",
"L$	c #C9C4C0",
"M$	c #868687",
"N$	c #242B3C",
"O$	c #48546E",
"P$	c #374059",
"Q$	c #040508",
"R$	c #686C72",
"S$	c #5A6168",
"T$	c #928F8E",
"U$	c #878685",
"V$	c #787B80",
"W$	c #A9A9A2",
"X$	c #E7E6E3",
"Y$	c #F6F6F6",
"Z$	c #F0F0F0",
"`$	c #E7E7E7",
" %	c #E4E4E4",
".%	c #E0E0E0",
"+%	c #DCDDDD",
"@%	c #DCDCDC",
"#%	c #D6D6D7",
"$%	c #CBCAC4",
"%%	c #AA9984",
"&%	c #494F64",
"*%	c #1D2432",
"=%	c #222937",
"-%	c #656A69",
";%	c #939597",
">%	c #969694",
",%	c #837A75",
"'%	c #837C75",
")%	c #5E6164",
"!%	c #7C8182",
"~%	c #E4E3E1",
"{%	c #F4F5F6",
"]%	c #EFEFEF",
"^%	c #ECECEC",
"/%	c #E8E8E8",
"(%	c #E5E5E5",
"_%	c #E1E1E1",
":%	c #DDDDDD",
"<%	c #D9D9D9",
"[%	c #D5D5D5",
"}%	c #D1D1D1",
"|%	c #D0D0D1",
"1%	c #C4C1BF",
"2%	c #968F83",
"3%	c #373D4F",
"4%	c #12161E",
"5%	c #6A6C6B",
"6%	c #979794",
"7%	c #5B6168",
"8%	c #797877",
"9%	c #858483",
"0%	c #67696C",
"a%	c #6A6D72",
"b%	c #B3B5B4",
"c%	c #F4F4F4",
"d%	c #F1F1F1",
"e%	c #EDEDED",
"f%	c #E9E9E9",
"g%	c #E6E6E6",
"h%	c #E2E2E2",
"i%	c #DEDEDE",
"j%	c #DADADA",
"k%	c #D6D6D6",
"l%	c #D2D2D2",
"m%	c #CECECE",
"n%	c #C9C9C9",
"o%	c #C7C7C7",
"p%	c #BDBAB9",
"q%	c #909092",
"r%	c #676869",
"s%	c #596169",
"t%	c #878887",
"u%	c #888684",
"v%	c #53585E",
"w%	c #474D53",
"x%	c #908C88",
"y%	c #828385",
"z%	c #393F45",
"A%	c #64686D",
"B%	c #7A7D80",
"C%	c #525B63",
"D%	c #D6D6D5",
"E%	c #F5F5F5",
"F%	c #EEEEEE",
"G%	c #EAEAEA",
"H%	c #E3E3E3",
"I%	c #D7D7D7",
"J%	c #D3D3D3",
"K%	c #CFCFCF",
"L%	c #CBCBCB",
"M%	c #C6C6C6",
"N%	c #C3C3C3",
"O%	c #C6C7C8",
"P%	c #B3B0AB",
"Q%	c #2D3344",
"R%	c #6E7072",
"S%	c #71757B",
"T%	c #7F8383",
"U%	c #7C7F7E",
"V%	c #7B7E80",
"W%	c #6C6F71",
"X%	c #64676A",
"Y%	c #7A797B",
"Z%	c #818180",
"`%	c #6F7172",
" &	c #767779",
".&	c #9A9692",
"+&	c #878684",
"@&	c #676D71",
"#&	c #E3E2E1",
"$&	c #D4D4D4",
"%&	c #D0D0D0",
"&&	c #CCCCCC",
"*&	c #C8C8C8",
"=&	c #BFBFBF",
"-&	c #BEBEBE",
";&	c #B6B6B3",
">&	c #515663",
",&	c #2E384E",
"'&	c #2D374C",
")&	c #6F6E69",
"!&	c #43484D",
"~&	c #848687",
"{&	c #75787D",
"]&	c #323941",
"^&	c #32393F",
"/&	c #30373D",
"(&	c #373E44",
"_&	c #41484F",
":&	c #4A4F57",
"<&	c #5F646A",
"[&	c #6F7375",
"}&	c #676B70",
"|&	c #E1E1DE",
"1&	c #EEEEEF",
"2&	c #CDCDCD",
"3&	c #C5C5C5",
"4&	c #C0C0C0",
"5&	c #BCBCBC",
"6&	c #B9B9B9",
"7&	c #B8B8B9",
"8&	c #737E93",
"9&	c #404E6C",
"0&	c #525B6E",
"a&	c #717373",
"b&	c #61666A",
"c&	c #474E55",
"d&	c #303840",
"e&	c #323942",
"f&	c #5C6166",
"g&	c #4D535A",
"h&	c #73777B",
"i&	c #515961",
"j&	c #535B62",
"k&	c #D6D6D4",
"l&	c #DFDFDF",
"m&	c #CACACA",
"n&	c #C2C2C2",
"o&	c #BDBDBD",
"p&	c #BABABA",
"q&	c #B6B6B6",
"r&	c #ABA9A2",
"s&	c #44516F",
"t&	c #4F5A73",
"u&	c #293042",
"v&	c #515357",
"w&	c #30373F",
"x&	c #707479",
"y&	c #5D6268",
"z&	c #5B6269",
"A&	c #C3C4C0",
"B&	c #D8D8D8",
"C&	c #BBBBBB",
"D&	c #B7B7B7",
"E&	c #B3B3B3",
"F&	c #B3B3B4",
"G&	c #AFAEAC",
"H&	c #42506F",
"I&	c #313C53",
"J&	c #4D5978",
"K&	c #5E5D5B",
"L&	c #303336",
"M&	c #262B31",
"N&	c #787A7E",
"O&	c #585E64",
"P&	c #A1A39F",
"Q&	c #E2E2E1",
"R&	c #E2E2E3",
"S&	c #C4C4C4",
"T&	c #B8B8B8",
"U&	c #B4B4B4",
"V&	c #B0B0B0",
"W&	c #AFAFAF",
"X&	c #A9A8A7",
"Y&	c #686F84",
"Z&	c #4B5775",
"`&	c #545D76",
" *	c #2B2E30",
".*	c #1E2328",
"+*	c #545C65",
"@*	c #5A626B",
"#*	c #596068",
"$*	c #797D7F",
"%*	c #D6D5D4",
"&*	c #E0E0E1",
"**	c #C1C1C1",
"=*	c #B5B5B5",
"-*	c #B1B1B1",
";*	c #AEAEAE",
">*	c #ADADAD",
",*	c #A8A7A6",
"'*	c #A69C8F",
")*	c #92877F",
"!*	c #6F6E6D",
"~*	c #21252A",
"{*	c #242A30",
"]*	c #666C72",
"^*	c #A0A1A1",
"/*	c #B2B2B2",
"(*	c #ACACAC",
"_*	c #ABABAB",
":*	c #A9A7A5",
"<*	c #948A7C",
"[*	c #958C80",
"}*	c #4F5154",
"|*	c #878889",
"1*	c #C0C1BB",
"2*	c #AAAAAA",
"3*	c #B1ACA6",
"4*	c #837E78",
"5*	c #6A6865",
"6*	c #626161",
"7*	c #636869",
"8*	c #AFAFAD",
"9*	c #CBCBCC",
"0*	c #ABACAC",
"a*	c #8A8582",
"b*	c #434446",
"c*	c #393D41",
"d*	c #6E6F70",
"e*	c #686B6D",
"f*	c #30363B",
"g*	c #898A8A",
"h*	c #A9AAAA",
"i*	c #AAA8A6",
"j*	c #938D87",
"k*	c #303235",
"l*	c #1D2124",
"m*	c #21262C",
"n*	c #2B3138",
"o*	c #707374",
"p*	c #7E817D",
"q*	c #515A61",
"r*	c #343C44",
"s*	c #2F363E",
"t*	c #2B3137",
"u*	c #646869",
"v*	c #A9A9A8",
"w*	c #B6B6B5",
"x*	c #ABABAA",
"y*	c #ACACAA",
"z*	c #9F9D9C",
"A*	c #85827F",
"B*	c #454647",
"C*	c #2B323A",
"D*	c #535B60",
"E*	c #707577",
"F*	c #696D72",
"G*	c #5A6167",
"H*	c #272C32",
"I*	c #303337",
"J*	c #4B4D4F",
"K*	c #5C5E5F",
"L*	c #666667",
"M*	c #4C4D4F",
"N*	c #202429",
"O*	c #252B31",
"P*	c #6F7276",
"Q*	c #60656B",
"R*	c #6B6D6F",
"S*	c #5B6268",
"T*	c #2C343C",
"U*	c #272E34",
"V*	c #20252A",
"W*	c #292F36",
"X*	c #585D64",
"Y*	c #525559",
"Z*	c #2D353D",
"`*	c #2C333A",
"                                                                                                ",
"                                                                                                ",
"                                                                                                ",
"                                                                                                ",
"                    . + @ # $ % & * = - ; >                                                     ",
"                  , ' ) ! ~ { ] ^ / ( _ : < [ }                                                 ",
"                  | 1 2 3 4 5 6 7 8 9 0 a b c d                                                 ",
"                    e f g h i j k l m n o p q r s                                               ",
"                    t u v w x y z A B C D E F G H                                               ",
"              I J K L M N O P Q R S T U V W X Y Z                                               ",
"        `  ...+.@.#.$.%.&.*.=.-.;.>.,.'.).!.~.      {.].                                        ",
"      ^./.(._.:.<.[.}.:.|.1.2.3.4.5.6.7.8.9.0.a.b.c.d.e.f.g.h.i.j.    k.l.                      ",
"        m.n.o.p.q.r.s.t.u.v.w.x.y.z.A.B.C.D.E.F.G.H.I.J.K.L.M.N.O.P.Q.R.S.T.U.V.W.              ",
"        X.Y.Z.`. +.+++@+#+$+%+&+*+=+-+;+>+,+'+)+!+~+{+]+^+/+(+_+:+<+[+}+}+[+[+|+1+2+3+          ",
"      4+5+6+7+7+7+8+9+7+7+7+7+0+a+b+c+d+e+@+f+g+h+i+j+k+l+m+n+i+o+p+q+q+r+|+|+s+s+t+u+v+        ",
"      w+x+y+z+7+7+9+A+7+B+C+D+E+F+G+H+I+J+A+K+L+M+N+O+ +P+f+Q+R+S+T+U+t+t+V+W+W+s+X+Y+          ",
"      w+Z+`+7+7+7+ @.@7+7++@@@#@$@%@&@*@=@-@;@7+7+>@,@B+8+B+'@)@7+!@X+~@~@Y+{@]@s+7+7+  ~.      ",
"        ^@/@7+z+7+(@_@7+7+:@<@[@}@|@1@2@3@4@)@7+7+5@6@7+7+7+7@C+)@8@Y+7+{@9@7+7+7+9@0@a@b@      ",
"        c@d@7+7+7+e@f@7+7+7+7+g@h@i@j@k@l@:@B+7+7+Z.m@7+7+7+7+7+e@n@o@p@q@r@s@t@u@v@w@x@b@      ",
"        y@z@z+7+7+A@B@7+7+7+C@D@E@F@G@H@I@J@K@L@M@N@O@M@P@Q@R@S@T@U@V@W@X@Y@Z@T `@T X  #.#      ",
"        +#@#.+##$#Z.%#D+&#*#=#-#;#>#,#G '#)#!#E ~#{#]#^#/#(#_#:#Z@<#[#}#|#1#2#3#4#5#6#.#        ",
"          7#J@8#9#0#a#b#c#d#e#f#g#h#i#j#k#l#m#n#o#p#q#r#s#s#T t#W u#5#v#w#x#y#z#A#B#            ",
"          .#C#D#E#F#G#S P H#I#J#K#L#M#N#O#P#Q#R#).S#T#u#}#,.U#5#V#W#X#  w#Y#6+Z#                ",
"            `# $5#.$+$@$#$$$%$&$*$=$-$M@4@$+;$>$,$'$~.)$)$Z#.#B#        !$~${$]$                ",
"                s   ^$/$($_$:$<$[$}$|$ @L+1$1$2$3$4$                    5$6${$7$                ",
"                  8$9$($0$a$:$b$c$L+d$e$f$g$m@4@h$w#                    i$j$7#k$                ",
"                l$m$n$o$p$q$r$s$t$u$v$ @f$w$l@x$d$$+y$                  z$A$s                   ",
"              B$C$D$E$F$G$H$I$J$K$L$M$#+N$K+O$P$Q$Q$R$                S$T$U$                    ",
"            V$W$X$Y$Z$G$`$ %.%+%@%#%$%%%&%P$*%M@d$%+=%-%            ;%>%,%'%)%                  ",
"            !%~%{%]%^%/%(%_%:%<%[%}%|%1%2%3%%+;@4%B@9+5%7#        6%>%7%8%9%0%a%                ",
"            b%c%d%e%f%g%h%i%j%k%l%m%n%o%p%q%g$%+A+%+A@r%6+    s%t%u%v%w%x%y%z%A%B%              ",
"          C%D%E%F%G%`$H%.%J$I%J%K%L%M%N%O%P%Q%(@K+m@1$R%R#  S%T%U%V%W%X%Y%Z%`% &.&+&j.          ",
"          @&#&d%G$/% %_%:%<%$&%&&&*&N%=&-&;&>&B@4@,&'&)&!&~&{&    {$Z ]&^&/&(&_&:&<&[&7%        ",
"          }&|&1&f%(%h%i%j%k%l%2&n%3&4&5&6&7&8&M@`.9&9&0&a&b&  k$c&Z Z#Z Z#d&d&e&~.f&g&h&i&      ",
"          j&k&e%`$H%l&J$I%J%m%m&M%n&o&p&q&5&r&`.,&s&t&u&v&w&X#]$k$                ]$    x&y&z&  ",
"            A&G% %.%@%B&$&K%L%o%N%=&C&D&E&F&G&H&I&J&K&L&M&6#c&                          N&  O&  ",
"            P&Q&R&:%<%[%}%2&*&S&4&5&T&U&V&W&X&Y&Z&`& *.*.$d&                                    ",
"      +*@*#*$*%*&*j%k%l%m%m&3&**o&6&=*-*;*>*,*'*)*!*~*{*b@                                  7$  ",
"    7#]*      ^*<%<%J%K%L%o%N%-&p&q&/*W&(*_*:*<*[*}*x@ $7$                                      ",
"            s |*1*J%l%&&*&S&=&C&T&U&V&>*2*2*3*4*5*6*  s                                         ",
"                7*8*9*m&3&**o&6&=*-*;*2*0*:*a*b*s#c*d*e*                                        ",
"                ]&f*g*N%N%=&p&D&E&W&>*h*i*j*k*l*m*n*s o*p*q*  r*                                ",
"                k$s*t*u*v*6&w*/*>*x*y*z*A*B*U u#C*`#    D*E*F*G*                                ",
"                    H n*H*I*J*K*L*M* *T U N*O*6#P*          Q*R*S*                              ",
"                      .#T*U*{*X V*W V*m*{*W*W#k$              X*Y*                              ",
"                          c&d&Z* $`*6#W#Z P*                                                    ",
"                                                                                                ",
"                                                                                                "};
