/* XPM */
static const char  * kick_xpm[] = {
"48 48 256 2",
"  	c #FFFFFF",
". 	c #636363",
"+ 	c #8C8C8C",
"@ 	c #A5A5A5",
"# 	c #ADADAD",
"$ 	c #B5B5B5",
"% 	c #BDBDBD",
"& 	c #C6C6C6",
"* 	c #D6D6D6",
"= 	c #DEDEDE",
"- 	c #E7E7E7",
"; 	c #ADA5A5",
"> 	c #C6BDBD",
", 	c #524A4A",
"' 	c #A58C8C",
") 	c #6B4A42",
"! 	c #CEBDB5",
"~ 	c #A5948C",
"{ 	c #5A4A42",
"] 	c #634231",
"^ 	c #6B4229",
"/ 	c #C66321",
"( 	c #E79452",
"_ 	c #C6BDB5",
": 	c #A59C94",
"< 	c #EF7B10",
"[ 	c #FFEFDE",
"} 	c #524A42",
"| 	c #393129",
"1 	c #D6B594",
"2 	c #EF8C29",
"3 	c #CEC6BD",
"4 	c #ADA59C",
"5 	c #AD9C84",
"6 	c #F7DEBD",
"7 	c #CEB594",
"8 	c #C6AD8C",
"9 	c #DEB57B",
"0 	c #DEAD6B",
"a 	c #4A3921",
"b 	c #C69452",
"c 	c #5A4221",
"d 	c #6B4208",
"e 	c #D6C6AD",
"f 	c #BDAD94",
"g 	c #CEB58C",
"h 	c #C6AD84",
"i 	c #5A4A31",
"j 	c #FFAD21",
"k 	c #4A3108",
"l 	c #847B6B",
"m 	c #635A4A",
"n 	c #CE8C18",
"o 	c #BDB5A5",
"p 	c #CEBD9C",
"q 	c #C6B594",
"r 	c #CEB584",
"s 	c #847352",
"t 	c #FFC652",
"u 	c #C69431",
"v 	c #ADA594",
"w 	c #736B5A",
"x 	c #312918",
"y 	c #947B42",
"z 	c #DECEA5",
"A 	c #D6C69C",
"B 	c #CEBD94",
"C 	c #EFC663",
"D 	c #9C7B29",
"E 	c #9C7310",
"F 	c #5A4208",
"G 	c #FFBD10",
"H 	c #FFB500",
"I 	c #CEB56B",
"J 	c #C6AD63",
"K 	c #CEC6AD",
"L 	c #BDB59C",
"M 	c #ADA58C",
"N 	c #9C947B",
"O 	c #948C73",
"P 	c #736B52",
"Q 	c #D6C694",
"R 	c #BDAD7B",
"S 	c #9C8439",
"T 	c #292108",
"U 	c #C6BD9C",
"V 	c #9C8C52",
"W 	c #E7CE73",
"X 	c #736329",
"Y 	c #FFD64A",
"Z 	c #524208",
"` 	c #CEA510",
" .	c #CEC6A5",
"..	c #ADA584",
"+.	c #C6BD94",
"@.	c #C6B56B",
"#.	c #948442",
"$.	c #C6AD4A",
"%.	c #B59C31",
"&.	c #312908",
"*.	c #FFD629",
"=.	c #9C8418",
"-.	c #D6CEA5",
";.	c #CEC69C",
">.	c #EFDE84",
",.	c #CEBD6B",
"'.	c #9C8C42",
").	c #F7DE63",
"!.	c #AD9C42",
"~.	c #393108",
"{.	c #736310",
"].	c #8C8452",
"^.	c #F7E78C",
"/.	c #F7E784",
"(.	c #847B42",
"_.	c #736B39",
":.	c #EFDE73",
"<.	c #9C8C31",
"[.	c #423908",
"}.	c #FFF7BD",
"|.	c #9C945A",
"1.	c #948C52",
"2.	c #CEBD42",
"3.	c #FFE74A",
"4.	c #FFE731",
"5.	c #EFE79C",
"6.	c #FFF7A5",
"7.	c #F7EF9C",
"8.	c #D6CE84",
"9.	c #C6BD73",
"0.	c #B5AD63",
"a.	c #9C9452",
"b.	c #ADA552",
"c.	c #9C9442",
"d.	c #8C8431",
"e.	c #B5A518",
"f.	c #F7EF94",
"g.	c #EFE78C",
"h.	c #C6BD5A",
"i.	c #9C9431",
"j.	c #DECE08",
"k.	c #F7EF73",
"l.	c #FFF763",
"m.	c #D6CE42",
"n.	c #9C9410",
"o.	c #ADADA5",
"p.	c #B5B5AD",
"q.	c #94948C",
"r.	c #9C9C94",
"s.	c #A5A59C",
"t.	c #6B6B63",
"u.	c #BDBDAD",
"v.	c #C6C6B5",
"w.	c #B5B5A5",
"x.	c #63635A",
"y.	c #FFFFE7",
"z.	c #8C8C7B",
"A.	c #848473",
"B.	c #C6C6AD",
"C.	c #424239",
"D.	c #737363",
"E.	c #DEDEBD",
"F.	c #CECEAD",
"G.	c #C6C6A5",
"H.	c #FFFFC6",
"I.	c #212118",
"J.	c #393929",
"K.	c #737352",
"L.	c #525239",
"M.	c #D6D694",
"N.	c #ADAD73",
"O.	c #4A4A31",
"P.	c #5A5A39",
"Q.	c #EFEF94",
"R.	c #393921",
"S.	c #636339",
"T.	c #525229",
"U.	c #8C8C42",
"V.	c #4A4A21",
"W.	c #5A5A21",
"X.	c #181808",
"Y.	c #848421",
"Z.	c #212108",
"`.	c #FFFF18",
" +	c #101000",
".+	c #4A5210",
"++	c #C6DE42",
"@+	c #737B52",
"#+	c #6B7352",
"$+	c #C6CEB5",
"%+	c #4A5239",
"&+	c #BDC6AD",
"*+	c #6B7B5A",
"=+	c #B5BDAD",
"-+	c #525A4A",
";+	c #6B8C52",
">+	c #EFF7EF",
",+	c #A5ADA5",
"'+	c #737B73",
")+	c #4A524A",
"!+	c #B5CEB5",
"~+	c #6B7B6B",
"{+	c #527B5A",
"]+	c #ADEFBD",
"^+	c #638C73",
"/+	c #9CD6B5",
"(+	c #73847B",
"_+	c #9CADA5",
":+	c #A5BDB5",
"<+	c #8CC6B5",
"[+	c #94EFD6",
"}+	c #5A847B",
"|+	c #5ABDAD",
"1+	c #D6EFEF",
"2+	c #526363",
"3+	c #7BADAD",
"4+	c #638C8C",
"5+	c #ADD6DE",
"6+	c #9CC6CE",
"7+	c #6B949C",
"8+	c #3984A5",
"9+	c #849CAD",
"0+	c #52A5DE",
"a+	c #B5D6EF",
"b+	c #BDC6CE",
"c+	c #39526B",
"d+	c #637394",
"e+	c #B5BDCE",
"f+	c #8C9CCE",
"g+	c #B5B5BD",
"h+	c #ADADB5",
"i+	c #94949C",
"j+	c #84848C",
"k+	c #73738C",
"l+	c #9494B5",
"m+	c #BDBDE7",
"n+	c #ADADEF",
"o+	c #524A6B",
"p+	c #CEBDF7",
"q+	c #BDA5EF",
"r+	c #6B5A8C",
"s+	c #948C9C",
"t+	c #C6BDCE",
"u+	c #945AC6",
"v+	c #BDADC6",
"w+	c #B594C6",
"x+	c #EF94FF",
"y+	c #B5A5B5",
"z+	c #EFA5CE",
"A+	c #FFEFF7",
"B+	c #B5A5AD",
"C+	c #EFBDD6",
"D+	c #A58C94",
"E+	c #634A52",
"F+	c #000000",
"G+	c #C0C0C0",
"i+i+i+i+i+i+i+i+i+i+i+i+i+i+i+i+i+i+i+i+i+i+[.F+F+F+ +&.T T ~.i+i+i+i+i+i+i+i+i+i+i+i+i+i+i+i+i+",
"i+i+i+i+i+i+i+i+i+i+i+i+i+i+i+i+i+i+i+i+i+i+R   [ [ C+[ 6 ! D i+i+i+i+i+i+i+i+i+i+i+i+i+i+i+i+i+",
"i+i+i+i+i+i+i+i+i+i+i+i+i+i+i+i+i+i+i+]+R 1 M.M.8.8.>.g.>.Q.6.:.{.}.g.i+i+i+i+i+i+i+i+i+i+i+i+i+",
"i+i+i+i+i+i+i+i+i+i+i+i+i+i+i+i+N i+r.M.M.g.Q >.M.M.>.>.>.>.k./.d.^.>+:.  i+i+i+i+i+i+i+i+i+i+i+",
"i+i+i+i+i+i+i+i+i+i+i+i+i+i+i+i+N (.g 8.M.>.z :.Q.Q.g.Q.f.^.5.>.k.        |.+.i+i+i+i+i+i+i+i+i+",
"i+i+i+i+i+i+i+i+i+i+i+i+i+i+i+F /.R 8.8.>.g.b.>.Q.Q.^././.f.k.6.        y.}.}.h.i+i+i+i+i+i+i+i+",
"i+i+i+i+i+i+i+i+i+i+i+i+i+y <.#+|.8.b.S.T.i W.].Q Q 6.f.7.6.f.          6.H.}./.N.i+i+i+i+i+i+i+",
"i+i+i+i+i+i+i+i+i+i+i+8+i+'.|.F X T x &.&.&.&.X.Z.Z.[.h.+.M.M.        y.6.H.6.k.).* i+i+i+i+i+i+",
"i+i+i+i+i+i+i+i+i+i+i+y _.T  +q+u.o.; L v 4 4 f 4 4 |.b.h+&.m+      y.y.y.6./.:.g.).N.i+i+i+i+i+",
"i+i+i+i+i+i+i+i+i+i+i+i+{.v v w.o w.L L 4 L w.w.w.w.4 4 4 e E R.$+7.6.}.}.^.>.Q.g.>.E.o i+i+i+i+",
"i+i+i+i+i+i+i+i+i+i+N.4 4 w.L w.L G.G.B.K B.K K B.B.G.o o w.4 B+,.[..+8.6.^.Q.g.:.>.g.Y.i+i+i+i+",
"i+i+i+i+i+i+i+F+i+: L L L G.G.G.u.G.K e B.K K K B.B.-.B.G.&+ .o f B+Z J.{+7.k.f.>.:.).d.|.i+i+i+",
"i+i+i+i+i+i+i+i+: 4 w.o B.B.B.! F.B.K ! K K K K K K $+v.! ! -.G.o L 4 4 J.&.^.Q.Q.5.5.b.h M i+i+",
"i+i+i+i+i+i+N : f L 7 B.G. . .e K K -.e -.F.F.e e e -.-.-.e -.K p B.o L 4 %+&.:.g.g.$+9.J ..i+i+",
"i+i+i+i+i+i+v v v L o G.G.K A  . . .$+$+e ! v.K K K A K K K A B. .G.L L s.o T i.g.B v.@.@.,.i+i+",
"i+i+i+i+F+v s.4 L o U G.B.K F.K K v.$+F.F.F.B. .e e e K F.K K -.B.G.B.B.o 4 B+Z.%+T.N.9.0.@.i+u ",
"i+i+i+F+_.f f L U G.o  . .&+B.B.-.K F.K F.e v.-.e e e -.-.e  . .B.G.G.G.&+o s.s A.N.l 9.0.N.(.F ",
"i+i+i+i+L f L o U o G.G. .o B.v. .B.-.A B. .K  .K K  .K K  . .B.B.G.G.u.U U w.s.D.c+X h.0.h.h F+",
"i+i+F+i+f f q +.U U U U U  .o G. .G.B. . . .B.K  . .p K B.K B.&+ . .p  .U U o L : 9+V N...&.N.F ",
"i+i+F+M 8 L q q B G.o p G.G.B. .B.G. . . .&+-.B.K K -.!+-.G. . . .;. .p G.U U L L D+J.T.b..+a.X ",
"i+i+i+M L 8 8 U G.q U  .B.G. .B. . . . .B.v.B. .B.B. .F. . .G. .G.G.F.B.u.U G.+.G.M 7 X.N.U.S _.",
"# i+F+8 8 q f 7 q G.U o o G.o  . .v. .u. .B.B.G. . . .B.K  . .p G.G. .G.&+L G.U U q 5 T @.|.U._.",
"t.X.P 4 f f +.q U U o U G.B.B.G. .B.B.G. .K B.B.K K G. .K ;.G.p  .u. .G.G.o G.U U U 8 m .+S |.i+",
"z.F+N.f f 8 q o U o +.p G.G.U G.G.G.u.G.;.p G.G.B.B.p B.B.;.Q G. .p p o G.U o B U +.q q x |.m.i+",
"x  +5 f 8 q q L q U q U o o G.B.B.G.B.G. .B.B.G.B.B. .B.&+ .B.G.;.G.B.o U B o U U U q 8 T e.3 i+",
"i+i+8 M f f U q U U U o p o u.G. .B. .K  . .G.B.K K p  .B.K K  .G.;.p G. .G.U U B U +.8 ~.i+i+i+",
"i+i+5 8 8 f q +.q U U U +.U G.p  .B.B.u.B. .B.G.B.B.G.o G. .p G. .G.G.G.p U U +.+.U L +.' i+i+i+",
"i+i+E+M 8 f f f q U p U U o o G.U o p o &+ .o B.u.u.G.G.G.U ;. .B. .B.G.p U G.U +.+.+.8 4 i+i+i+",
"i+i+I.8 f q 8 f L U U U o o G.B.G. .B.B.o  .p G.B.B. .G.G.;. .G.B. .o p ;.p U B U U +.+.y+i+i+i+",
"i+{.X.M 8 8 8 q q q U p U G.U o  .U G.p G. .G. .K K  . .U  .G.G.;.;.G.p o B U +.q +.+.+.M i+i+i+",
"i+F+F+5 f f f q U q U q o U +. .G.p B. .B.o G. .G.G.B. .p K G.G.G.B.G.U U U p q +.f q +.$ i+i+i+",
"i+i+i+5 r f f q 8 U L L B.p o  .B.p G.B. .G. .G.B.B.o ;.p G.G.G.U U U G.U U +.q U +.f +.N i+i+i+",
"i+i+i+F+h M M h 8 L U U U p p o A U p U G.G.U G. . .G.U p G. .G.o p U U p U q +.8 7 +.8 i+i+i+i+",
"i+i+i+i+N q 8 M f f 8 q q U o o U G.o o p o  .p o o G.U U o G.p U U o U U U U +.f q L q i+i+i+i+",
"i+i+i+F+ +v f q f f q q q L U U o o o o U o o o U U +.G.U U o  .o G.U G.U U L 8 q +.+.h i+i+i+i+",
"i+i+i+i+ +v f M f f f q q q q p o U G.p 7 U o U  . .U U B  .p  .U U U o L L L U +.8 8 8 y+i+i+i+",
"i+i+i+* i+F+M M 5 5 4 f 8 f U U o p U U o o U q o o U q p o o U o U q f q L f q f f 8 i+i+i+i+i+",
"i+i+i+i+i+N i+q.M ~ M v f q q q U p U q p U o U U U U o 7 U U p U q 8 L L f f f f 8 f i+i+i+i+i+",
"i+i+i+i+i+i+i+i+~ ~ : v M M 8 q q U o U q U p q L L q U q U q q q q f L f f M ..f 7 i+i+i+i+i+i+",
"i+i+i+i+i+i+i+R F+: : : M v M f 8 q q U U U U U U U f L q L L f U f f L L : v M : J.i+i+i+i+i+i+",
"i+i+i+i+i+i+i+i+i+i+v ~ ~ v v f L f 8 q f L q q o o U U q L q L f f f f M M M 5 i+w+v i+i+i+i+i+",
"i+i+i+i+i+i+i+i+i+i+i+N ~ 5 M v 4 f L 8 f f f 8 L L L L 8 q M f f M M v v M M i i+i+i+i+i+i+i+i+",
"i+i+i+i+i+i+i+i+i+i+i+F+v ..~ : M v f f M f f M L L 8 f 8 f f f M ..M v M : ~ i+i+i+i+i+i+i+i+i+",
"i+i+i+i+i+i+i+i+i+i+i+i+i+x.A+: M M M M M M v f f f f M M M v M M 5 M : M A.i+i+i+i+i+i+i+i+i+i+",
"i+i+i+i+i+i+i+i+i+i+i+i+% t )+ +$ 5 ~ M : : v 5 f f v v M v M M : ~ M ' i+i+i+i+i+i+i+i+i+i+i+i+",
"i+i+i+i+i+i+i+i+i+i+i+i+i+i+= 5.i+i+l L M ..~ M M M M M : ~ r...D+i+i+i+i+i+i+i+i+i+i+i+i+i+i+i+",
"i+i+i+i+i+i+i+i+i+i+i+i+i+i+i+i+i+i+2 i+i+i+i+i+T T T x x F+i+i+i+i+i+i+i+i+i+i+i+i+i+i+i+i+i+i+",
"i+i+i+i+i+i+i+i+i+i+i+i+i+i+i+i+i+i+i+i+i+i+i+i+ + + + +Z._.i+i+i+i+i+i+i+i+i+i+i+i+i+i+i+i+i+i+"};
