/* XPM */
static const char * const mandolin_xpm[] = {
"48 48 664 2",
"  	c #969696",
". 	c #CACACA",
"+ 	c #E5E5E5",
"@ 	c #E1E1E1",
"# 	c #D6D6D6",
"$ 	c #ECECEC",
"% 	c #F9F9F9",
"& 	c #F4F4F4",
"* 	c #EEEEEE",
"= 	c #F3F3F3",
"- 	c #DCDCDC",
"; 	c #C0C0C0",
"> 	c #C6C6C6",
", 	c #E7E7E7",
"' 	c #D9D9D9",
") 	c #CBCBCB",
"! 	c #A9A9A9",
"~ 	c #A5A5A5",
"{ 	c #B7B7B7",
"] 	c #BFBFBF",
"^ 	c #C3C3C3",
"/ 	c #D0D0D0",
"( 	c #DEDEDE",
"_ 	c #B4B4B4",
": 	c #9F9F9F",
"< 	c #909090",
"[ 	c #838383",
"} 	c #7F7F7F",
"| 	c #ABABAB",
"1 	c #DFDFDF",
"2 	c #D1D1D1",
"3 	c #CCCCCC",
"4 	c #E0E0E0",
"5 	c #A8A9A8",
"6 	c #8F8D8D",
"7 	c #7F7D7E",
"8 	c #686768",
"9 	c #6F6862",
"0 	c #646563",
"a 	c #9D9D9D",
"b 	c #D2D2D2",
"c 	c #A6A7A7",
"d 	c #888888",
"e 	c #757273",
"f 	c #DAD3CC",
"g 	c #615952",
"h 	c #453C31",
"i 	c #40403C",
"j 	c #525250",
"k 	c #CECECE",
"l 	c #AAABAA",
"m 	c #898788",
"n 	c #96938E",
"o 	c #BEB9B0",
"p 	c #645D57",
"q 	c #594B3D",
"r 	c #27241D",
"s 	c #666763",
"t 	c #5C5D58",
"u 	c #BCBDBC",
"v 	c #E3E3E3",
"w 	c #BEBEBE",
"x 	c #939494",
"y 	c #A5A19C",
"z 	c #7C736B",
"A 	c #5A4F45",
"B 	c #4A453E",
"C 	c #776C5B",
"D 	c #444542",
"E 	c #3A3C37",
"F 	c #9A9A9A",
"G 	c #B8B8B8",
"H 	c #ADABA8",
"I 	c #908C89",
"J 	c #857F78",
"K 	c #554F46",
"L 	c #685F52",
"M 	c #766859",
"N 	c #15130F",
"O 	c #867E6C",
"P 	c #7B7979",
"Q 	c #E5E6E6",
"R 	c #B6B6B6",
"S 	c #BFBAB4",
"T 	c #89827B",
"U 	c #4D463D",
"V 	c #786D5B",
"W 	c #5B5247",
"X 	c #1E1D17",
"Y 	c #60594F",
"Z 	c #63605B",
"` 	c #DBD8D2",
" .	c #DADADA",
"..	c #AEAEAE",
"+.	c #7A7976",
"@.	c #403C32",
"#.	c #756B5D",
"$.	c #50473E",
"%.	c #292620",
"&.	c #2D2E2A",
"*.	c #827A6D",
"=.	c #CECBC6",
"-.	c #E8E7E5",
";.	c #9E9E9E",
">.	c #757370",
",.	c #1A1711",
"'.	c #776859",
").	c #39322A",
"!.	c #353431",
"~.	c #8B8271",
"{.	c #B1AEA9",
"].	c #E9E6E2",
"^.	c #D3D3D3",
"/.	c #898889",
"(.	c #76736F",
"_.	c #514842",
":.	c #564C43",
"<.	c #31322E",
"[.	c #726D5F",
"}.	c #82817C",
"|.	c #E5E1DD",
"1.	c #D4D4D4",
"2.	c #B1B0B1",
"3.	c #8F8E8E",
"4.	c #7D7B7B",
"5.	c #7F766E",
"6.	c #746A63",
"7.	c #504D47",
"8.	c #343530",
"9.	c #716C60",
"0.	c #D8D6D0",
"a.	c #AFAFAF",
"b.	c #8E8D8E",
"c.	c #7C7A7B",
"d.	c #948D80",
"e.	c #897969",
"f.	c #57534E",
"g.	c #7C7D7A",
"h.	c #BABAB8",
"i.	c #CFD0CE",
"j.	c #CCCCCA",
"k.	c #CFCFCF",
"l.	c #ADADAD",
"m.	c #8C8A8B",
"n.	c #7A7879",
"o.	c #6F6A64",
"p.	c #5F5448",
"q.	c #A59885",
"r.	c #A19E98",
"s.	c #B4B4B3",
"t.	c #E6E6E6",
"u.	c #AAAAAA",
"v.	c #8A8989",
"w.	c #777677",
"x.	c #6B6661",
"y.	c #665A51",
"z.	c #5E534B",
"A.	c #767471",
"B.	c #CCCBCA",
"C.	c #A7A6A7",
"D.	c #868686",
"E.	c #757474",
"F.	c #6B635D",
"G.	c #6B5C54",
"H.	c #61554F",
"I.	c #827E7A",
"J.	c #E5E4E4",
"K.	c #C7C7C7",
"L.	c #A4A4A4",
"M.	c #848283",
"N.	c #727072",
"O.	c #66615B",
"P.	c #6D5E53",
"Q.	c #6F6259",
"R.	c #E5E4E1",
"S.	c #B3B3B3",
"T.	c #C4C4C4",
"U.	c #A1A0A1",
"V.	c #818080",
"W.	c #706E6F",
"X.	c #655F59",
"Y.	c #695B51",
"Z.	c #5A4D45",
"`.	c #7B756C",
" +	c #E2E1E0",
".+	c #7D7C7C",
"++	c #6D6B6B",
"@+	c #625A54",
"#+	c #63564E",
"$+	c #6E665B",
"%+	c #756F68",
"&+	c #DFDFDE",
"*+	c #E4E4E4",
"=+	c #DDDDDD",
"-+	c #B0B0B0",
";+	c #A09FA0",
">+	c #767475",
",+	c #696767",
"'+	c #655B53",
")+	c #6D5D54",
"!+	c #64584F",
"~+	c #706963",
"{+	c #DCDCD9",
"]+	c #C8C9C8",
"^+	c #BABABA",
"/+	c #B2B2B2",
"(+	c #ACACAC",
"_+	c #A5A4A4",
":+	c #989898",
"<+	c #8B8A8B",
"[+	c #717071",
"}+	c #666566",
"|+	c #666360",
"1+	c #645950",
"2+	c #615446",
"3+	c #696054",
"4+	c #665F58",
"5+	c #DCDAD8",
"6+	c #DBDBDB",
"7+	c #A2A2A2",
"8+	c #959495",
"9+	c #858484",
"0+	c #80817E",
"a+	c #7E7E7E",
"b+	c #7B7B7B",
"c+	c #787778",
"d+	c #727272",
"e+	c #6B696A",
"f+	c #615F5F",
"g+	c #645953",
"h+	c #63564C",
"i+	c #6A5948",
"j+	c #6B5D4F",
"k+	c #675B4F",
"l+	c #5B4F45",
"m+	c #676059",
"n+	c #DAD9D7",
"o+	c #979797",
"p+	c #818180",
"q+	c #727171",
"r+	c #676665",
"s+	c #655F5B",
"t+	c #6A625A",
"u+	c #6D6358",
"v+	c #6F6458",
"w+	c #716358",
"x+	c #6C5D51",
"y+	c #6B594A",
"z+	c #7A5B44",
"A+	c #865A38",
"B+	c #70431F",
"C+	c #5A3922",
"D+	c #766657",
"E+	c #6E6359",
"F+	c #6C625C",
"G+	c #D5D4D3",
"H+	c #C9C9C9",
"I+	c #A7A6A6",
"J+	c #868585",
"K+	c #6C6B6B",
"L+	c #65615E",
"M+	c #81705E",
"N+	c #94795E",
"O+	c #89664A",
"P+	c #966E49",
"Q+	c #916B45",
"R+	c #8E6944",
"S+	c #8C6743",
"T+	c #8D6742",
"U+	c #8B5F35",
"V+	c #855427",
"W+	c #794B28",
"X+	c #51311C",
"Y+	c #3E2F27",
"Z+	c #66574F",
"`+	c #66584C",
" @	c #696157",
".@	c #665D54",
"+@	c #D6D3D2",
"@@	c #646262",
"#@	c #988C80",
"$@	c #A89177",
"%@	c #926D4C",
"&@	c #865336",
"*@	c #854820",
"=@	c #944E21",
"-@	c #934E22",
";@	c #85421E",
">@	c #83411E",
",@	c #84431D",
"'@	c #83421D",
")@	c #733717",
"!@	c #5E2E17",
"~@	c #45332C",
"{@	c #66584D",
"]@	c #695C53",
"^@	c #645A50",
"/@	c #6B635B",
"(@	c #CDCCCB",
"_@	c #D5D5D5",
":@	c #818182",
"<@	c #696561",
"[@	c #B3A397",
"}@	c #A38572",
"|@	c #8C4C23",
"1@	c #984C1F",
"2@	c #93491B",
"3@	c #984D1E",
"4@	c #92471E",
"5@	c #89461C",
"6@	c #8B431E",
"7@	c #89421C",
"8@	c #8A441D",
"9@	c #7F3D18",
"0@	c #723918",
"a@	c #473127",
"b@	c #6C5F50",
"c@	c #6A5B50",
"d@	c #70655D",
"e@	c #61564C",
"f@	c #908F8F",
"g@	c #6D6A69",
"h@	c #948072",
"i@	c #835D43",
"j@	c #823E1C",
"k@	c #8B421B",
"l@	c #97481E",
"m@	c #9C4F20",
"n@	c #7B3F1D",
"o@	c #582E18",
"p@	c #6A371F",
"q@	c #8D431D",
"r@	c #8E461F",
"s@	c #8C431D",
"t@	c #813D1B",
"u@	c #653C28",
"v@	c #6D5E52",
"w@	c #68594F",
"x@	c #6A5F56",
"y@	c #665B50",
"z@	c #E3E4E3",
"A@	c #A8A7A8",
"B@	c #797677",
"C@	c #8C7F75",
"D@	c #714431",
"E@	c #753417",
"F@	c #763417",
"G@	c #91441C",
"H@	c #8C481C",
"I@	c #583016",
"J@	c #703B1B",
"K@	c #914D24",
"L@	c #763F20",
"M@	c #8E4722",
"N@	c #8C461F",
"O@	c #7F3D1A",
"P@	c #8A4A29",
"Q@	c #91583C",
"R@	c #634A3C",
"S@	c #696156",
"T@	c #695E53",
"U@	c #654736",
"V@	c #A59C98",
"W@	c #E6E6E5",
"X@	c #949393",
"Y@	c #7E7A78",
"Z@	c #745243",
"`@	c #662D13",
" #	c #7A3718",
".#	c #8E441C",
"+#	c #87481E",
"@#	c #25150A",
"##	c #713A1C",
"$#	c #954820",
"%#	c #974A23",
"&#	c #944A23",
"*#	c #8F4620",
"=#	c #7D3E1D",
"-#	c #80472A",
";#	c #9A5A39",
">#	c #955533",
",#	c #87543A",
"'#	c #664E42",
")#	c #6E4C39",
"!#	c #753B18",
"~#	c #BCB3AD",
"{#	c #CACBCB",
"]#	c #E2E2E2",
"^#	c #858485",
"/#	c #6F5C55",
"(#	c #6A3016",
"_#	c #542714",
":#	c #6D3417",
"<#	c #793C19",
"[#	c #4D2710",
"}#	c #6C3719",
"|#	c #864620",
"1#	c #90461F",
"2#	c #934920",
"3#	c #915434",
"4#	c #945938",
"5#	c #935433",
"6#	c #91543A",
"7#	c #8D5133",
"8#	c #8C4C2A",
"9#	c #8B461D",
"0#	c #954D1D",
"a#	c #C1BAB6",
"b#	c #B4B3B3",
"c#	c #7A7776",
"d#	c #773F26",
"e#	c #6F3216",
"f#	c #3B1D0F",
"g#	c #30180C",
"h#	c #683517",
"i#	c #8E481A",
"j#	c #351D0E",
"k#	c #68371C",
"l#	c #86421D",
"m#	c #86421E",
"n#	c #965534",
"o#	c #965735",
"p#	c #8A5136",
"q#	c #8E5232",
"r#	c #9B562A",
"s#	c #974B1D",
"t#	c #9A4E1E",
"u#	c #AA5D24",
"v#	c #C8C2BE",
"w#	c #D7D7D7",
"x#	c #A7A7A5",
"y#	c #756966",
"z#	c #803A18",
"A#	c #7F3A19",
"B#	c #823D1A",
"C#	c #803E1B",
"D#	c #863F1A",
"E#	c #833E1A",
"F#	c #86411C",
"G#	c #6E381A",
"H#	c #32231E",
"I#	c #5B2F1A",
"J#	c #8F5436",
"K#	c #995935",
"L#	c #A25F35",
"M#	c #9D5D39",
"N#	c #9A5933",
"O#	c #934D27",
"P#	c #9D4F1C",
"Q#	c #9D4F1D",
"R#	c #A4541F",
"S#	c #A55B24",
"T#	c #D3CFCD",
"U#	c #A6A6A5",
"V#	c #796158",
"W#	c #7C3A16",
"X#	c #874119",
"Y#	c #894019",
"Z#	c #8B431A",
"`#	c #86411A",
" $	c #85411C",
".$	c #803F1B",
"+$	c #803F1D",
"@$	c #5C311A",
"#$	c #4C3F39",
"$$	c #6F4634",
"%$	c #975B38",
"&$	c #A1633C",
"*$	c #A46133",
"=$	c #A35B2C",
"-$	c #A5571F",
";$	c #A6561F",
">$	c #A3531E",
",$	c #A1521F",
"'$	c #9A5223",
")$	c #DBD9D7",
"!$	c #7D615B",
"~$	c #793717",
"{$	c #853D19",
"]$	c #8B431B",
"^$	c #8A451C",
"/$	c #83411B",
"($	c #7E3C1A",
"_$	c #7C3D19",
":$	c #73391B",
"<$	c #8A563B",
"[$	c #744A34",
"}$	c #4E3F37",
"|$	c #714935",
"1$	c #985831",
"2$	c #A05C2B",
"3$	c #A75921",
"4$	c #A9591E",
"5$	c #80441B",
"6$	c #7A411F",
"7$	c #8F471B",
"8$	c #945F47",
"9$	c #E5E3E3",
"0$	c #B9B9B9",
"a$	c #7A6864",
"b$	c #7A3A18",
"c$	c #803D1A",
"d$	c #8A441C",
"e$	c #88451D",
"f$	c #7E3D19",
"g$	c #7E3E1B",
"h$	c #73381A",
"i$	c #8E593F",
"j$	c #925738",
"k$	c #905737",
"l$	c #73482E",
"m$	c #342921",
"n$	c #673E28",
"o$	c #99521F",
"p$	c #A4561E",
"q$	c #A45520",
"r$	c #894920",
"s$	c #6A381D",
"t$	c #844019",
"u$	c #AB887B",
"v$	c #CACACB",
"w$	c #86817F",
"x$	c #813F19",
"y$	c #85441D",
"z$	c #803F1C",
"A$	c #84431F",
"B$	c #773C1A",
"C$	c #8D563B",
"D$	c #90583B",
"E$	c #915536",
"F$	c #864E2C",
"G$	c #854A28",
"H$	c #794424",
"I$	c #392619",
"J$	c #592D15",
"K$	c #964A1F",
"L$	c #8B481F",
"M$	c #61361D",
"N$	c #8E4920",
"O$	c #8B451C",
"P$	c #BFB2AD",
"Q$	c #ABA7A7",
"R$	c #71391A",
"S$	c #6E3618",
"T$	c #773B19",
"U$	c #633016",
"V$	c #87573F",
"W$	c #8F5B3D",
"X$	c #935735",
"Y$	c #8A4F2D",
"Z$	c #824828",
"`$	c #83431E",
" %	c #914A1E",
".%	c #84441C",
"+%	c #6D3716",
"@%	c #6F3A1D",
"#%	c #3D210F",
"$%	c #904C24",
"%%	c #954A20",
"&%	c #8A4B29",
"*%	c #E1DFDF",
"=%	c #CCCCCB",
"-%	c #82675C",
";%	c #6F3518",
">%	c #673016",
",%	c #7B6355",
"'%	c #B4A591",
")%	c #958173",
"!%	c #794C35",
"~%	c #834A2B",
"{%	c #864927",
"]%	c #87451C",
"^%	c #944C1D",
"/%	c #944B1D",
"(%	c #8D4721",
"_%	c #7C3E1E",
":%	c #4B2C17",
"<%	c #7D431F",
"[%	c #85421C",
"}%	c #89411C",
"|%	c #B09D95",
"1%	c #B9B7B4",
"2%	c #653A29",
"3%	c #867362",
"4%	c #C9BAA0",
"5%	c #CBBCA4",
"6%	c #CEC1A8",
"7%	c #7D6555",
"8%	c #7F431F",
"9%	c #86451B",
"0%	c #904B1C",
"a%	c #924A1E",
"b%	c #8C4720",
"c%	c #7F3E1E",
"d%	c #5C341A",
"e%	c #874520",
"f%	c #833E1B",
"g%	c #783718",
"h%	c #855F52",
"i%	c #E9E8E7",
"j%	c #DFDFE0",
"k%	c #B8B2AD",
"l%	c #C6B79B",
"m%	c #C8BAA0",
"n%	c #C9BBA3",
"o%	c #C9BAA1",
"p%	c #947C66",
"q%	c #7D401A",
"r%	c #8B471E",
"s%	c #8A451D",
"t%	c #8A471F",
"u%	c #7E3F19",
"v%	c #532B14",
"w%	c #4E2812",
"x%	c #7A3B1A",
"y%	c #763717",
"z%	c #774E3F",
"A%	c #DDDAD7",
"B%	c #E2E2E3",
"C%	c #CEC6BC",
"D%	c #C8BBA4",
"E%	c #C3B397",
"F%	c #886A55",
"G%	c #723818",
"H%	c #7D3E1A",
"I%	c #85421D",
"J%	c #8B4620",
"K%	c #83411C",
"L%	c #7D3D1C",
"M%	c #68351A",
"N%	c #5C331B",
"O%	c #773919",
"P%	c #8A6E65",
"Q%	c #E1E0DD",
"R%	c #DDD9D4",
"S%	c #9F8B81",
"T%	c #80411E",
"U%	c #7E3E1A",
"V%	c #793918",
"W%	c #7E3D1B",
"X%	c #7F3E19",
"Y%	c #7E3D1A",
"Z%	c #7D3C19",
"`%	c #783818",
" &	c #7C5447",
".&	c #BEB4B2",
"+&	c #A6A6A6",
"@&	c #D4D0CF",
"#&	c #B1A4A2",
"$&	c #917C79",
"%&	c #7C5F58",
"&&	c #8C685A",
"*&	c #A08174",
"=&	c #B4A49D",
"-&	c #D1CBC8",
";&	c #949494",
">&	c #A1A1A3",
",&	c #9B9B9B",
"'&	c #79797B",
")&	c #89898B",
"!&	c #848486",
"~&	c #808080",
"{&	c #898989",
"]&	c #A0A0A0",
"                                                                              . + @ # $ % & * = ",
"- ; >                                                                     , ' ) ; ! ~ { * ] ^ , ",
"  / (                                                                   @ ) _ : < [ } | 1 2 3   ",
"                                                                      4 > 5 6 7 8 9 0 a b       ",
"                                                                    @ > c d e f g h i j ) ]     ",
"                                                                  + k l m n o p q r s t u       ",
"                                                                  v w x y n z A B C D E F       ",
"                                                                  4 G H I J K L M N O P Q       ",
"                                                                  4 R S T U V W X Y Z `         ",
"                                                                   ...+.@.#.$.%.&.*.=.-.        ",
"                                                                + . ;.>.,.'.).!.~.{.].          ",
"                                                              . ^.../.(._.:.<.[.}.|.            ",
"                                                            1.^.2.3.4.5.6.7.8.9.0.              ",
"                                                          + 2 a.b.c.d.e.f.g.h.i.j.              ",
"                                                        + k.l.m.n.o.p.q.r.s.                    ",
"                                                      t.3 u.v.w.x.y.z.A.B.                      ",
"                                                    + . C.D.E.F.G.H.I.J.                        ",
"                                                  v K.L.M.N.O.P.Q.J R.                          ",
"                                              S.( T.U.V.W.X.Y.Z.`. +                            ",
"                                        ] + - k.G F .+++@+#+$+%+&+                              ",
"                      . , *+@ 1 ( =+ .1.) ] -+;+m.>+,+'+)+!+~+{+                                ",
"                - ( b ]+; ^+R _ /+-+(+_+:+<+.+[+}+|+1+2+3+4+5+                                  ",
"            1.6+> S.7+8+<+9+0+a+.+b+c+d+e+f+g+h+i+j+k+l+m+n+                                    ",
"          t.k./+o+p+q+r+f+s+t+u+v+w+x+y+z+A+B+C+D+2+E+F+G+                                      ",
"        + H+I+J+K+L+M+N+O+P+Q+R+S+T+U+V+W+X+Y+Z+`+ @.@+@                                        ",
"      + 3 ~ 7 @@#@$@%@&@*@=@-@;@>@,@'@)@!@~@{@]@^@/@(@                                          ",
"      _@l.:@<@[@}@|@1@2@3@4@5@6@7@8@9@0@a@b@c@d@e@o.                                            ",
"    *+] f@g@h@i@j@k@l@m@n@o@p@q@r@s@t@u@v@w@x@y@I.z@                                            ",
"    _@A@B@C@D@E@F@G@H@I@J@K@L@M@N@O@P@Q@R@S@T@U@V@W@                                            ",
"  - > X@Y@Z@`@ #.#+#@###$#%#&#*#=#-#;#>#,#'#)#!#~#{#                                            ",
"S.]#G ^#/#(#_#:#<#[#}#|#1#2#r@8@3#4#5#6#7#8#9#0#a#b#                                            ",
"1.6+l.c#d#e#f#g#h#i#9#j#k#l#m#n#o#>#p#q#r#s#t#u#v#                                              ",
"- w#x#y#z#A#B#C#D#E#F#G#H#I#J#K#L#M#N#O#P#Q#R#S#T#                                              ",
"- w#U#V#W#X#Y#Z#`# $.$+$@$#$$$%$&$*$=$-$;$>$,$'$)$                                              ",
"1.6+l.!$~${$]$^$/$($_$:$<$[$}$|$1$2$3$4$5$6$7$8$9$                                              ",
"S.]#0$a$b$c$d$e$f$g$h$i$j$k$l$m$n$o$p$q$r$s$t$u$v$                                              ",
"  . . w$O@x$y$z$A$B$C$D$E$F$G$H$I$J$K$L$M$N$O$P$                                                ",
"    6+Q$R$)@S$T$U$V$W$X$Y$Z$`$ %.%+%@%#%$%%%&%*%                                                ",
"    1.=%-%;%>%,%'%)%!%~%{%]%^%/%(%_%:%<%[%}%|%                                                  ",
"      v 1%2%3%4%5%6%7%8%9%0%a%b%c%d%e%f%g%h%i%                                                  ",
"        j%k%l%m%n%o%p%q%r%s%t%u%v%w%x%y%z%A%                                                    ",
"          B%C%D%E%F%G%H%I%J%K%L%M%N%O%P%Q%                                                      ",
"            . R%S%T%U%V%W%X%Y%Z%`% &.&                                                          ",
"                +&@&#&$&%&&&*&=&-&                                                              ",
"                                                                                                ",
"                                                                                                ",
";&u.>&,&| 0$                                                                                    ",
"'&)&!&~&{&]&1.. . . . . . . . . . . . . . . . . . . . . . . . . . . . . . . . . . . . . . . . @ "};
