/* XPM */
static char * mandolin_48x48_xpm[] = {
"48 48 708 2",
"  	c #F4F4F4",
". 	c #EFEFEF",
"+ 	c #F6F6F6",
"@ 	c #FFFFFF",
"# 	c #FEFEFE",
"$ 	c #FCFCFC",
"% 	c #F7F7F7",
"& 	c #F2F2F2",
"* 	c #ECECEC",
"= 	c #E5E5E5",
"- 	c #E1E1E1",
"; 	c #D6D6D6",
"> 	c #F9F9F9",
", 	c #EEEEEE",
"' 	c #F3F3F3",
") 	c #EAEAEA",
"! 	c #C0C0C0",
"~ 	c #C6C6C6",
"{ 	c #FBFBFB",
"] 	c #E7E7E7",
"^ 	c #D9D9D9",
"/ 	c #CBCBCB",
"( 	c #A9A9A9",
"_ 	c #A5A5A5",
": 	c #B7B7B7",
"< 	c #BFBFBF",
"[ 	c #C3C3C3",
"} 	c #F1F1F1",
"| 	c #D0D0D0",
"1 	c #DEDEDE",
"2 	c #B4B4B4",
"3 	c #9F9F9F",
"4 	c #909090",
"5 	c #838383",
"6 	c #7F7F7F",
"7 	c #ABABAB",
"8 	c #DFDFDF",
"9 	c #D1D1D1",
"0 	c #CCCCCC",
"a 	c #E0E0E0",
"b 	c #A8A9A8",
"c 	c #8F8D8D",
"d 	c #7F7D7E",
"e 	c #686768",
"f 	c #6F6862",
"g 	c #646563",
"h 	c #9D9D9D",
"i 	c #D2D2D2",
"j 	c #A6A7A7",
"k 	c #888888",
"l 	c #757273",
"m 	c #DAD3CC",
"n 	c #615952",
"o 	c #453C31",
"p 	c #40403C",
"q 	c #525250",
"r 	c #EDEDED",
"s 	c #FDFDFD",
"t 	c #E9E9E9",
"u 	c #CECECE",
"v 	c #AAABAA",
"w 	c #898788",
"x 	c #96938E",
"y 	c #BEB9B0",
"z 	c #645D57",
"A 	c #594B3D",
"B 	c #27241D",
"C 	c #666763",
"D 	c #5C5D58",
"E 	c #BCBDBC",
"F 	c #E3E3E3",
"G 	c #BEBEBE",
"H 	c #939494",
"I 	c #A5A19C",
"J 	c #7C736B",
"K 	c #5A4F45",
"L 	c #4A453E",
"M 	c #776C5B",
"N 	c #444542",
"O 	c #3A3C37",
"P 	c #9A9A9A",
"Q 	c #B8B8B8",
"R 	c #ADABA8",
"S 	c #908C89",
"T 	c #857F78",
"U 	c #554F46",
"V 	c #685F52",
"W 	c #766859",
"X 	c #15130F",
"Y 	c #867E6C",
"Z 	c #7B7979",
"` 	c #E5E6E6",
" .	c #F8F8F8",
"..	c #B6B6B6",
"+.	c #BFBAB4",
"@.	c #89827B",
"#.	c #4D463D",
"$.	c #786D5B",
"%.	c #5B5247",
"&.	c #1E1D17",
"*.	c #60594F",
"=.	c #63605B",
"-.	c #DBD8D2",
";.	c #F5F5F5",
">.	c #DADADA",
",.	c #AEAEAE",
"'.	c #7A7976",
").	c #403C32",
"!.	c #756B5D",
"~.	c #50473E",
"{.	c #292620",
"].	c #2D2E2A",
"^.	c #827A6D",
"/.	c #CECBC6",
"(.	c #ECEBE9",
"_.	c #FAFAFA",
":.	c #CACACA",
"<.	c #9E9E9E",
"[.	c #757370",
"}.	c #1A1711",
"|.	c #776859",
"1.	c #39322A",
"2.	c #353431",
"3.	c #8B8271",
"4.	c #B1AEA9",
"5.	c #E9E6E2",
"6.	c #D3D3D3",
"7.	c #898889",
"8.	c #76736F",
"9.	c #514842",
"0.	c #564C43",
"a.	c #31322E",
"b.	c #726D5F",
"c.	c #82817C",
"d.	c #E5E1DD",
"e.	c #F4F3F3",
"f.	c #EBEBEB",
"g.	c #B1B0B1",
"h.	c #8F8E8E",
"i.	c #7D7B7B",
"j.	c #7F766E",
"k.	c #746A63",
"l.	c #504D47",
"m.	c #343530",
"n.	c #716C60",
"o.	c #D8D6D0",
"p.	c #F0F1F0",
"q.	c #AFAFAF",
"r.	c #8E8D8E",
"s.	c #7C7A7B",
"t.	c #948D80",
"u.	c #897969",
"v.	c #57534E",
"w.	c #7C7D7A",
"x.	c #BABAB8",
"y.	c #CFD0CE",
"z.	c #F0F0EC",
"A.	c #FBFBFC",
"B.	c #CFCFCF",
"C.	c #ADADAD",
"D.	c #8C8A8B",
"E.	c #7A7879",
"F.	c #6F6A64",
"G.	c #5F5448",
"H.	c #A59885",
"I.	c #A19E98",
"J.	c #EFEFEE",
"K.	c #FAFAF9",
"L.	c #E6E6E6",
"M.	c #AAAAAA",
"N.	c #8A8989",
"O.	c #777677",
"P.	c #6B6661",
"Q.	c #665A51",
"R.	c #5E534B",
"S.	c #767471",
"T.	c #EFEEEC",
"U.	c #A7A6A7",
"V.	c #868686",
"W.	c #757474",
"X.	c #6B635D",
"Y.	c #6B5C54",
"Z.	c #61554F",
"`.	c #827E7A",
" +	c #E5E4E4",
".+	c #FBFBFA",
"++	c #C7C7C7",
"@+	c #A4A4A4",
"#+	c #848283",
"$+	c #727072",
"%+	c #66615B",
"&+	c #6D5E53",
"*+	c #6F6259",
"=+	c #E5E4E1",
"-+	c #FAFBFB",
";+	c #C4C4C4",
">+	c #A1A0A1",
",+	c #818080",
"'+	c #706E6F",
")+	c #655F59",
"!+	c #695B51",
"~+	c #5A4D45",
"{+	c #7B756C",
"]+	c #E2E1E0",
"^+	c #DCDCDC",
"/+	c #7D7C7C",
"(+	c #6D6B6B",
"_+	c #625A54",
":+	c #63564E",
"<+	c #6E665B",
"[+	c #756F68",
"}+	c #DFDFDE",
"|+	c #FAFBFA",
"1+	c #E4E4E4",
"2+	c #DDDDDD",
"3+	c #D4D4D4",
"4+	c #B0B0B0",
"5+	c #A09FA0",
"6+	c #767475",
"7+	c #696767",
"8+	c #655B53",
"9+	c #6D5D54",
"0+	c #64584F",
"a+	c #706963",
"b+	c #DCDCD9",
"c+	c #C8C9C8",
"d+	c #BABABA",
"e+	c #B2B2B2",
"f+	c #ACACAC",
"g+	c #A5A4A4",
"h+	c #989898",
"i+	c #8B8A8B",
"j+	c #717071",
"k+	c #666566",
"l+	c #666360",
"m+	c #645950",
"n+	c #615446",
"o+	c #696054",
"p+	c #665F58",
"q+	c #DCDAD8",
"r+	c #DBDBDB",
"s+	c #B3B3B3",
"t+	c #A2A2A2",
"u+	c #959495",
"v+	c #858484",
"w+	c #80817E",
"x+	c #7E7E7E",
"y+	c #7B7B7B",
"z+	c #787778",
"A+	c #727272",
"B+	c #6B696A",
"C+	c #615F5F",
"D+	c #645953",
"E+	c #63564C",
"F+	c #6A5948",
"G+	c #6B5D4F",
"H+	c #675B4F",
"I+	c #5B4F45",
"J+	c #676059",
"K+	c #DAD9D7",
"L+	c #F9F9FA",
"M+	c #979797",
"N+	c #818180",
"O+	c #727171",
"P+	c #676665",
"Q+	c #655F5B",
"R+	c #6A625A",
"S+	c #6D6358",
"T+	c #6F6458",
"U+	c #716358",
"V+	c #6C5D51",
"W+	c #6B594A",
"X+	c #7A5B44",
"Y+	c #865A38",
"Z+	c #70431F",
"`+	c #5A3922",
" @	c #766657",
".@	c #6E6359",
"+@	c #6C625C",
"@@	c #D5D4D3",
"#@	c #C9C9C9",
"$@	c #A7A6A6",
"%@	c #868585",
"&@	c #6C6B6B",
"*@	c #65615E",
"=@	c #81705E",
"-@	c #94795E",
";@	c #89664A",
">@	c #966E49",
",@	c #916B45",
"'@	c #8E6944",
")@	c #8C6743",
"!@	c #8D6742",
"~@	c #8B5F35",
"{@	c #855427",
"]@	c #794B28",
"^@	c #51311C",
"/@	c #3E2F27",
"(@	c #66574F",
"_@	c #66584C",
":@	c #696157",
"<@	c #665D54",
"[@	c #D6D3D2",
"}@	c #646262",
"|@	c #988C80",
"1@	c #A89177",
"2@	c #926D4C",
"3@	c #865336",
"4@	c #854820",
"5@	c #944E21",
"6@	c #934E22",
"7@	c #85421E",
"8@	c #83411E",
"9@	c #84431D",
"0@	c #83421D",
"a@	c #733717",
"b@	c #5E2E17",
"c@	c #45332C",
"d@	c #66584D",
"e@	c #695C53",
"f@	c #645A50",
"g@	c #6B635B",
"h@	c #CDCCCB",
"i@	c #F8F8F9",
"j@	c #F0F0F0",
"k@	c #D5D5D5",
"l@	c #818182",
"m@	c #696561",
"n@	c #B3A397",
"o@	c #A38572",
"p@	c #8C4C23",
"q@	c #984C1F",
"r@	c #93491B",
"s@	c #984D1E",
"t@	c #92471E",
"u@	c #89461C",
"v@	c #8B431E",
"w@	c #89421C",
"x@	c #8A441D",
"y@	c #7F3D18",
"z@	c #723918",
"A@	c #473127",
"B@	c #6C5F50",
"C@	c #6A5B50",
"D@	c #70655D",
"E@	c #61564C",
"F@	c #BAB7B6",
"G@	c #908F8F",
"H@	c #6D6A69",
"I@	c #948072",
"J@	c #835D43",
"K@	c #823E1C",
"L@	c #8B421B",
"M@	c #97481E",
"N@	c #9C4F20",
"O@	c #7B3F1D",
"P@	c #582E18",
"Q@	c #6A371F",
"R@	c #8D431D",
"S@	c #8E461F",
"T@	c #8C431D",
"U@	c #813D1B",
"V@	c #653C28",
"W@	c #6D5E52",
"X@	c #68594F",
"Y@	c #6A5F56",
"Z@	c #665B50",
"`@	c #746459",
" #	c #E3E4E3",
".#	c #A8A7A8",
"+#	c #797677",
"@#	c #8C7F75",
"##	c #714431",
"$#	c #753417",
"%#	c #763417",
"&#	c #91441C",
"*#	c #8C481C",
"=#	c #583016",
"-#	c #703B1B",
";#	c #914D24",
">#	c #763F20",
",#	c #8E4722",
"'#	c #8C461F",
")#	c #7F3D1A",
"!#	c #8A4A29",
"~#	c #91583C",
"{#	c #634A3C",
"]#	c #696156",
"^#	c #695E53",
"/#	c #654736",
"(#	c #A59C98",
"_#	c #EAEAE9",
":#	c #949393",
"<#	c #7E7A78",
"[#	c #745243",
"}#	c #662D13",
"|#	c #7A3718",
"1#	c #8E441C",
"2#	c #87481E",
"3#	c #25150A",
"4#	c #713A1C",
"5#	c #954820",
"6#	c #974A23",
"7#	c #944A23",
"8#	c #8F4620",
"9#	c #7D3E1D",
"0#	c #80472A",
"a#	c #9A5A39",
"b#	c #955533",
"c#	c #87543A",
"d#	c #664E42",
"e#	c #6E4C39",
"f#	c #753B18",
"g#	c #BCB3AD",
"h#	c #ECEDED",
"i#	c #E2E2E2",
"j#	c #858485",
"k#	c #6F5C55",
"l#	c #6A3016",
"m#	c #542714",
"n#	c #6D3417",
"o#	c #793C19",
"p#	c #4D2710",
"q#	c #6C3719",
"r#	c #864620",
"s#	c #90461F",
"t#	c #934920",
"u#	c #915434",
"v#	c #945938",
"w#	c #935433",
"x#	c #91543A",
"y#	c #8D5133",
"z#	c #8C4C2A",
"A#	c #8B461D",
"B#	c #954D1D",
"C#	c #C1BAB6",
"D#	c #EFEEEE",
"E#	c #7A7776",
"F#	c #773F26",
"G#	c #6F3216",
"H#	c #3B1D0F",
"I#	c #30180C",
"J#	c #683517",
"K#	c #8E481A",
"L#	c #351D0E",
"M#	c #68371C",
"N#	c #86421D",
"O#	c #86421E",
"P#	c #965534",
"Q#	c #965735",
"R#	c #8A5136",
"S#	c #8E5232",
"T#	c #9B562A",
"U#	c #974B1D",
"V#	c #9A4E1E",
"W#	c #AA5D24",
"X#	c #C8C2BE",
"Y#	c #F1F0F1",
"Z#	c #D7D7D7",
"`#	c #A7A7A5",
" $	c #756966",
".$	c #803A18",
"+$	c #7F3A19",
"@$	c #823D1A",
"#$	c #803E1B",
"$$	c #863F1A",
"%$	c #833E1A",
"&$	c #86411C",
"*$	c #6E381A",
"=$	c #32231E",
"-$	c #5B2F1A",
";$	c #8F5436",
">$	c #995935",
",$	c #A25F35",
"'$	c #9D5D39",
")$	c #9A5933",
"!$	c #934D27",
"~$	c #9D4F1C",
"{$	c #9D4F1D",
"]$	c #A4541F",
"^$	c #A55B24",
"/$	c #D3CFCD",
"($	c #F3F4F4",
"_$	c #A6A6A5",
":$	c #796158",
"<$	c #7C3A16",
"[$	c #874119",
"}$	c #894019",
"|$	c #8B431A",
"1$	c #86411A",
"2$	c #85411C",
"3$	c #803F1B",
"4$	c #803F1D",
"5$	c #5C311A",
"6$	c #4C3F39",
"7$	c #6F4634",
"8$	c #975B38",
"9$	c #A1633C",
"0$	c #A46133",
"a$	c #A35B2C",
"b$	c #A5571F",
"c$	c #A6561F",
"d$	c #A3531E",
"e$	c #A1521F",
"f$	c #9A5223",
"g$	c #DBD9D7",
"h$	c #F7F7F5",
"i$	c #7D615B",
"j$	c #793717",
"k$	c #853D19",
"l$	c #8B431B",
"m$	c #8A451C",
"n$	c #83411B",
"o$	c #7E3C1A",
"p$	c #7C3D19",
"q$	c #73391B",
"r$	c #8A563B",
"s$	c #744A34",
"t$	c #4E3F37",
"u$	c #714935",
"v$	c #985831",
"w$	c #A05C2B",
"x$	c #A75921",
"y$	c #A9591E",
"z$	c #80441B",
"A$	c #7A411F",
"B$	c #8F471B",
"C$	c #945F47",
"D$	c #E5E3E3",
"E$	c #B9B9B9",
"F$	c #7A6864",
"G$	c #7A3A18",
"H$	c #803D1A",
"I$	c #8A441C",
"J$	c #88451D",
"K$	c #7E3D19",
"L$	c #7E3E1B",
"M$	c #73381A",
"N$	c #8E593F",
"O$	c #925738",
"P$	c #905737",
"Q$	c #73482E",
"R$	c #342921",
"S$	c #673E28",
"T$	c #99521F",
"U$	c #A4561E",
"V$	c #A45520",
"W$	c #894920",
"X$	c #6A381D",
"Y$	c #844019",
"Z$	c #AB887B",
"`$	c #ECECED",
" %	c #86817F",
".%	c #813F19",
"+%	c #85441D",
"@%	c #803F1C",
"#%	c #84431F",
"$%	c #773C1A",
"%%	c #8D563B",
"&%	c #90583B",
"*%	c #915536",
"=%	c #864E2C",
"-%	c #854A28",
";%	c #794424",
">%	c #392619",
",%	c #592D15",
"'%	c #964A1F",
")%	c #8B481F",
"!%	c #61361D",
"~%	c #8E4920",
"{%	c #8B451C",
"]%	c #BFB2AD",
"^%	c #ABA7A7",
"/%	c #71391A",
"(%	c #6E3618",
"_%	c #773B19",
":%	c #633016",
"<%	c #87573F",
"[%	c #8F5B3D",
"}%	c #935735",
"|%	c #8A4F2D",
"1%	c #824828",
"2%	c #83431E",
"3%	c #914A1E",
"4%	c #84441C",
"5%	c #6D3716",
"6%	c #6F3A1D",
"7%	c #3D210F",
"8%	c #904C24",
"9%	c #954A20",
"0%	c #8A4B29",
"a%	c #E1DFDF",
"b%	c #CCCCCB",
"c%	c #82675C",
"d%	c #6F3518",
"e%	c #673016",
"f%	c #7B6355",
"g%	c #B4A591",
"h%	c #958173",
"i%	c #794C35",
"j%	c #834A2B",
"k%	c #864927",
"l%	c #87451C",
"m%	c #944C1D",
"n%	c #944B1D",
"o%	c #8D4721",
"p%	c #7C3E1E",
"q%	c #4B2C17",
"r%	c #7D431F",
"s%	c #85421C",
"t%	c #89411C",
"u%	c #B09D95",
"v%	c #F4F5F3",
"w%	c #FDFDFE",
"x%	c #B9B7B4",
"y%	c #653A29",
"z%	c #867362",
"A%	c #C9BAA0",
"B%	c #CBBCA4",
"C%	c #CEC1A8",
"D%	c #7D6555",
"E%	c #7F431F",
"F%	c #86451B",
"G%	c #904B1C",
"H%	c #924A1E",
"I%	c #8C4720",
"J%	c #7F3E1E",
"K%	c #5C341A",
"L%	c #874520",
"M%	c #833E1B",
"N%	c #783718",
"O%	c #855F52",
"P%	c #E9E8E7",
"Q%	c #DFDFE0",
"R%	c #B8B2AD",
"S%	c #C6B79B",
"T%	c #C8BAA0",
"U%	c #C9BBA3",
"V%	c #C9BAA1",
"W%	c #947C66",
"X%	c #7D401A",
"Y%	c #8B471E",
"Z%	c #8A451D",
"`%	c #8A471F",
" &	c #7E3F19",
".&	c #532B14",
"+&	c #4E2812",
"@&	c #7A3B1A",
"#&	c #763717",
"$&	c #774E3F",
"%&	c #DDDAD7",
"&&	c #FAFAFB",
"*&	c #E2E2E3",
"=&	c #CEC6BC",
"-&	c #C8BBA4",
";&	c #C3B397",
">&	c #886A55",
",&	c #723818",
"'&	c #7D3E1A",
")&	c #85421D",
"!&	c #8B4620",
"~&	c #83411C",
"{&	c #7D3D1C",
"]&	c #68351A",
"^&	c #5C331B",
"/&	c #773919",
"(&	c #8A6E65",
"_&	c #E1E0DD",
":&	c #FEFEFF",
"<&	c #DDD9D4",
"[&	c #9F8B81",
"}&	c #80411E",
"|&	c #7E3E1A",
"1&	c #793918",
"2&	c #7E3D1B",
"3&	c #7F3E19",
"4&	c #7E3D1A",
"5&	c #7D3C19",
"6&	c #783818",
"7&	c #7C5447",
"8&	c #BEB4B2",
"9&	c #F1F2F1",
"0&	c #FCFCFB",
"a&	c #FFFFFE",
"b&	c #F0EFEF",
"c&	c #D4D0CF",
"d&	c #B1A4A2",
"e&	c #917C79",
"f&	c #7C5F58",
"g&	c #8C685A",
"h&	c #A08174",
"i&	c #B4A49D",
"j&	c #D1CBC8",
"k&	c #F3F2F0",
"l&	c #FCFBFB",
"m&	c #F6F6F5",
"n&	c #F9F8F9",
"o&	c #FCFBFC",
"p&	c #FEFEFD",
"q&	c #949494",
"r&	c #A1A1A3",
"s&	c #9B9B9B",
"t&	c #79797B",
"u&	c #89898B",
"v&	c #848486",
"w&	c #808080",
"x&	c #898989",
"y&	c #A0A0A0",
"  . + @ @ @ @ @ @ @ @ @ @ @ @ @ @ @ @ @ @ @ @ @ @ @ @ @ @ @ @ @ @ @ @ # $ % & * = - ; * >   , ' ",
") ! ~ @ @ @ @ @ @ @ @ @ @ @ @ @ @ @ @ @ @ @ @ @ @ @ @ @ @ @ @ @ @ @ # { ' ] ^ / ! ( _ : , < [ ] ",
"} | 1 @ @ @ @ @ @ @ @ @ @ @ @ @ @ @ @ @ @ @ @ @ @ @ @ @ @ @ @ @ @ # { & - / 2 3 4 5 6 7 8 9 0 . ",
"  @ @ @ @ @ @ @ @ @ @ @ @ @ @ @ @ @ @ @ @ @ @ @ @ @ @ @ @ @ @ @ # { } a ~ b c d e f g h i . $   ",
"  @ @ @ @ @ @ @ @ @ @ @ @ @ @ @ @ @ @ @ @ @ @ @ @ @ @ @ @ @ @ @ $ ' - ~ j k l m n o p q / r s   ",
"  @ @ @ @ @ @ @ @ @ @ @ @ @ @ @ @ @ @ @ @ @ @ @ @ @ @ @ @ @ @ @ > t u v w x y z A B C D E . s   ",
"  @ @ @ @ @ @ @ @ @ @ @ @ @ @ @ @ @ @ @ @ @ @ @ @ @ @ @ @ @ @ # % F G H I x J K L M N O P   #   ",
"  @ @ @ @ @ @ @ @ @ @ @ @ @ @ @ @ @ @ @ @ @ @ @ @ @ @ @ @ @ @ @ % a Q R S T U V W X Y Z ` > @   ",
"  @ @ @ @ @ @ @ @ @ @ @ @ @ @ @ @ @ @ @ @ @ @ @ @ @ @ @ @ @ @ @  .a ..+.@.#.$.%.&.*.=.-.' s @   ",
"  @ @ @ @ @ @ @ @ @ @ @ @ @ @ @ @ @ @ @ @ @ @ @ @ @ @ @ @ @ @ # ;.>.,.'.).!.~.{.].^./.(._.# @   ",
"  @ @ @ @ @ @ @ @ @ @ @ @ @ @ @ @ @ @ @ @ @ @ @ @ @ @ @ @ @ # > t :.<.[.}.|.1.2.3.4.5.% # @ @   ",
"  @ @ @ @ @ @ @ @ @ @ @ @ @ @ @ @ @ @ @ @ @ @ @ @ @ @ @ @ # > * 6.,.7.8.9.0.a.b.c.d.e.s @ @ @   ",
"  @ @ @ @ @ @ @ @ @ @ @ @ @ @ @ @ @ @ @ @ @ @ @ @ @ @ @ #  .f.6.g.h.i.j.k.l.m.n.o.p.{ # @ @ @   ",
"  @ @ @ @ @ @ @ @ @ @ @ @ @ @ @ @ @ @ @ @ @ @ @ @ @ @ s % t 9 q.r.s.t.u.v.w.x.y.z.A.# @ @ @ @   ",
"  @ @ @ @ @ @ @ @ @ @ @ @ @ @ @ @ @ @ @ @ @ @ @ @ @ s % t B.C.D.E.F.G.H.I.J.K.s # # @ @ @ @ @   ",
"  @ @ @ @ @ @ @ @ @ @ @ @ @ @ @ @ @ @ @ @ @ @ @ @ s + L.0 M.N.O.P.Q.R.S.T.{ # @ @ @ @ @ @ @ @   ",
"  @ @ @ @ @ @ @ @ @ @ @ @ @ @ @ @ @ @ @ @ @ @ @ s ;.= :.U.V.W.X.Y.Z.`. +.+# @ @ @ @ @ @ @ @ @   ",
"  @ @ @ @ @ @ @ @ @ @ @ @ @ @ @ @ @ @ @ @ @ # $   F ++@+#+$+%+&+*+T =+-+# @ @ @ @ @ @ @ @ @ @   ",
"  @ @ @ @ @ @ @ @ @ @ @ @ @ @ @ @ @ @ # $ _.+ , 1 ;+>+,+'+)+!+~+{+]+-+# @ @ @ @ @ @ @ @ @ @ @   ",
"  @ @ @ @ @ @ @ @ # # $ { _.>  .% % + & r = ^+B.Q P /+(+_+:+<+[+}+|+@ @ @ @ @ @ @ @ @ @ @ @ @   ",
"  @ @ @ @ @ @ s _.+ } * ] 1+- 8 1 2+>.3+/ < 4+5+D.6+7+8+9+0+a+b+_.@ @ @ @ @ @ @ @ @ @ @ @ @ @   ",
"  @ @ @ @ s _.  ) 1 i c+! d+..2 e+4+f+g+h+i+/+j+k+l+m+n+o+p+q+_.# @ @ @ @ @ @ @ @ @ @ @ @ @ @   ",
"  @ @ @ s % f.r+~ s+t+u+i+v+w+x+/+y+z+A+B+C+D+E+F+G+H+I+J+K+L+# @ @ @ @ @ @ @ @ @ @ @ @ @ @ @   ",
"  @ @ $ ;.L.B.e+M+N+O+P+C+Q+R+S+T+U+V+W+X+Y+Z+`+ @n+.@+@@@> # @ @ @ @ @ @ @ @ @ @ @ @ @ @ @ @   ",
"  @ s + = #@$@%@&@*@=@-@;@>@,@'@)@!@~@{@]@^@/@(@_@:@<@[@> # @ @ @ @ @ @ @ @ @ @ @ @ @ @ @ @ @   ",
"  # > t 0 _ d }@|@1@2@3@4@5@6@7@8@9@0@a@b@c@d@e@f@g@h@i@# @ @ @ @ @ @ @ @ @ @ @ @ @ @ @ @ @ @   ",
"  $ j@k@C.l@m@n@o@p@q@r@s@t@u@v@w@x@y@z@A@B@C@D@E@F@  s @ @ @ @ @ @ @ @ @ @ @ @ @ @ @ @ @ @ @   ",
"'  .1+< G@H@I@J@K@L@M@N@O@P@Q@R@S@T@U@V@W@X@Y@Z@`@ #_.@ @ @ @ @ @ @ @ @ @ @ @ @ @ @ @ @ @ @ @   ",
"& & k@.#+#@###$#%#&#*#=#-#;#>#,#'#)#!#~#{#]#^#/#(#_#$ @ @ @ @ @ @ @ @ @ @ @ @ @ @ @ @ @ @ @ @   ",
"j@) ~ :#<#[#}#|#1#2#3#4#5#6#7#8#9#0#a#b#c#d#e#f#g#h#s @ @ @ @ @ @ @ @ @ @ @ @ @ @ @ @ @ @ @ @   ",
", i#Q j#k#l#m#n#o#p#q#r#s#t#S@x@u#v#w#x#y#z#A#B#C#D## @ @ @ @ @ @ @ @ @ @ @ @ @ @ @ @ @ @ @ @   ",
"f.r+C.E#F#G#H#I#J#K#A#L#M#N#O#P#Q#b#R#S#T#U#V#W#X#Y## @ @ @ @ @ @ @ @ @ @ @ @ @ @ @ @ @ @ @ @   ",
") Z#`# $.$+$@$#$$$%$&$*$=$-$;$>$,$'$)$!$~${$]$^$/$($# @ @ @ @ @ @ @ @ @ @ @ @ @ @ @ @ @ @ @ @   ",
") Z#_$:$<$[$}$|$1$2$3$4$5$6$7$8$9$0$a$b$c$d$e$f$g$h$@ @ @ @ @ @ @ @ @ @ @ @ @ @ @ @ @ @ @ @ @   ",
"f.r+C.i$j$k$l$m$n$o$p$q$r$s$t$u$v$w$x$y$z$A$B$C$D$> @ @ @ @ @ @ @ @ @ @ @ @ @ @ @ @ @ @ @ @ @   ",
", i#E$F$G$H$I$J$K$L$M$N$O$P$Q$R$S$T$U$V$W$X$Y$Z$`$$ @ @ @ @ @ @ @ @ @ @ @ @ @ @ @ @ @ @ @ @ @   ",
"j@* :. %)#.%+%@%#%$%%%&%*%=%-%;%>%,%'%)%!%~%{%]%  # @ @ @ @ @ @ @ @ @ @ @ @ @ @ @ @ @ @ @ @ @   ",
"&   r+^%/%a@(%_%:%<%[%}%|%1%2%3%4%5%6%7%8%9%0%a%K.@ @ @ @ @ @ @ @ @ @ @ @ @ @ @ @ @ @ @ @ @ @   ",
"' _.f.b%c%d%e%f%g%h%i%j%k%l%m%n%o%p%q%r%s%t%u%v%w%@ @ @ @ @ @ @ @ @ @ @ @ @ @ @ @ @ @ @ @ @ @   ",
"  s + F x%y%z%A%B%C%D%E%F%G%H%I%J%K%L%M%N%O%P%{ @ @ @ @ @ @ @ @ @ @ @ @ @ @ @ @ @ @ @ @ @ @ @   ",
"  @ $ & Q%R%S%T%U%V%W%X%Y%Z%`% &.&+&@&#&$&%&&&# @ @ @ @ @ @ @ @ @ @ @ @ @ @ @ @ @ @ @ @ @ @ @   ",
"  @ # { ' *&=&-&;&>&,&'&)&!&~&{&]&^&/&(&_&_.:&@ @ @ @ @ @ @ @ @ @ @ @ @ @ @ @ @ @ @ @ @ @ @ @   ",
"  @ @ # $ + * <&[&}&|&1&2&3&4&5&6&7&8&9&0&a&@ @ @ @ @ @ @ @ @ @ @ @ @ @ @ @ @ @ @ @ @ @ @ @ @   ",
"  @ @ @ @ # { + b&c&d&e&f&g&h&i&j&k&{ # @ @ @ @ @ @ @ @ @ @ @ @ @ @ @ @ @ @ @ @ @ @ @ @ @ @ @   ",
"  @ @ @ @ @ @ # s l&> % m&h$n&o&s p&@ @ @ @ @ @ @ @ @ @ @ @ @ @ @ @ @ @ @ @ @ @ @ @ @ @ @ @ @   ",
"' @ @ @ @ @ @ @ @ @ @ @ @ @ @ @ @ @ @ @ @ @ @ @ @ @ @ @ @ @ @ @ @ @ @ @ @ @ @ @ @ @ @ @ @ @ @   ",
"q&M.r&s&7 E$# @ @ @ @ @ @ @ @ @ @ @ @ @ @ @ @ @ @ @ @ @ @ @ @ @ @ @ @ @ @ @ @ @ @ @ @ @ @ @ @   ",
"t&u&v&w&x&y&f.* * * * * * * * * * * * * * * * * * * * * * * * * * * * * * * * * * * * * * * * - "};
