/* XPM */
static const char  * organ_org_xpm[] = {
"48 48 862 2",
"  	c None",
". 	c #969696",
"+ 	c #4C5068",
"@ 	c #57577F",
"# 	c #4D4F77",
"$ 	c #474870",
"% 	c #45456B",
"& 	c #47476E",
"* 	c #46486A",
"= 	c #53526C",
"- 	c #434265",
"; 	c #434365",
"> 	c #464665",
", 	c #484567",
"' 	c #444366",
") 	c #424365",
"! 	c #454667",
"~ 	c #444566",
"{ 	c #464D67",
"] 	c #535579",
"^ 	c #5A5A91",
"/ 	c #505083",
"( 	c #434572",
"_ 	c #40416A",
": 	c #3F3F6C",
"< 	c #3C3F67",
"[ 	c #44466D",
"} 	c #44466E",
"| 	c #43456E",
"1 	c #46476F",
"2 	c #3F4067",
"3 	c #43426D",
"4 	c #42416C",
"5 	c #45456F",
"6 	c #484775",
"7 	c #4B4C7E",
"8 	c #4C517D",
"9 	c #52537D",
"0 	c #4C4D82",
"a 	c #464573",
"b 	c #2A283D",
"c 	c #1F1F31",
"d 	c #202135",
"e 	c #161828",
"f 	c #2C314E",
"g 	c #313654",
"h 	c #303453",
"i 	c #353758",
"j 	c #161723",
"k 	c #2B2E49",
"l 	c #303152",
"m 	c #37385A",
"n 	c #3E406A",
"o 	c #494B7C",
"p 	c #4C5180",
"q 	c #51507E",
"r 	c #4C4A7E",
"s 	c #444473",
"t 	c #252435",
"u 	c #1A1A29",
"v 	c #212337",
"w 	c #141420",
"x 	c #0A0A10",
"y 	c #13141F",
"z 	c #151520",
"A 	c #101015",
"B 	c #13141C",
"C 	c #0D0E14",
"D 	c #1E1F33",
"E 	c #212135",
"F 	c #323456",
"G 	c #4A5082",
"H 	c #4E5182",
"I 	c #69686D",
"J 	c #51464C",
"K 	c #55393E",
"L 	c #56393D",
"M 	c #5B3A3D",
"N 	c #5C3B3E",
"O 	c #5E3B3E",
"P 	c #5F3B3E",
"Q 	c #603A3C",
"R 	c #5D414A",
"S 	c #50507F",
"T 	c #4B4878",
"U 	c #43446D",
"V 	c #2E2F48",
"W 	c #2A2C46",
"X 	c #202137",
"Y 	c #22243B",
"Z 	c #1F1F33",
"` 	c #24233A",
" .	c #26263D",
"..	c #25253A",
"+.	c #1F2032",
"@.	c #202034",
"#.	c #2C2F4B",
"$.	c #323254",
"%.	c #3A3B61",
"&.	c #4D5082",
"*.	c #525890",
"=.	c #4A4A65",
"-.	c #5B5055",
";.	c #503C45",
">.	c #4D3D45",
",.	c #696166",
"'.	c #787376",
").	c #594F55",
"!.	c #473B44",
"~.	c #4B3D44",
"{.	c #502E33",
"].	c #761F1E",
"^.	c #6C1C1D",
"/.	c #671819",
"(.	c #711A1A",
"_.	c #771B1A",
":.	c #801C1B",
"<.	c #861D1B",
"[.	c #8A1F1C",
"}.	c #8E1C18",
"|.	c #6F394B",
"1.	c #484B79",
"2.	c #484570",
"3.	c #44456D",
"4.	c #42446C",
"5.	c #3E416A",
"6.	c #3C406A",
"7.	c #3F426A",
"8.	c #41466D",
"9.	c #3F446B",
"0.	c #3F4066",
"a.	c #3E4066",
"b.	c #404168",
"c.	c #40426A",
"d.	c #41436A",
"e.	c #40416C",
"f.	c #454675",
"g.	c #4A5289",
"h.	c #675480",
"i.	c #902221",
"j.	c #8E1F1B",
"k.	c #831D1A",
"l.	c #841D1B",
"m.	c #7E1C1B",
"n.	c #731A19",
"o.	c #681616",
"p.	c #681716",
"q.	c #6F1F1E",
"r.	c #592526",
"s.	c #34333C",
"t.	c #1D0C11",
"u.	c #32151C",
"v.	c #361A20",
"w.	c #37181D",
"x.	c #38161B",
"y.	c #38171A",
"z.	c #3D1619",
"A.	c #3F1619",
"B.	c #3E161A",
"C.	c #3D1414",
"D.	c #403148",
"E.	c #494775",
"F.	c #47426A",
"G.	c #43436A",
"H.	c #3F4269",
"I.	c #3E3F67",
"J.	c #3A3E64",
"K.	c #3C3E64",
"L.	c #3E4166",
"M.	c #3E4367",
"N.	c #3C3D62",
"O.	c #3D3F64",
"P.	c #404269",
"Q.	c #44446F",
"R.	c #41436B",
"S.	c #464874",
"T.	c #4C5385",
"U.	c #555786",
"V.	c #571E22",
"W.	c #541B1A",
"X.	c #581F21",
"Y.	c #4F1A1D",
"Z.	c #511F22",
"`.	c #471A1D",
" +	c #481C20",
".+	c #411A1E",
"++	c #441C21",
"@+	c #391619",
"#+	c #261D21",
"$+	c #1E1B22",
"%+	c #03060A",
"&+	c #000002",
"*+	c #000103",
"=+	c #000000",
"-+	c #22253A",
";+	c #4C4B75",
">+	c #454267",
",+	c #423F64",
"'+	c #3D3D61",
")+	c #3A3B5E",
"!+	c #3A3C5F",
"~+	c #3B3C60",
"{+	c #393C5E",
"]+	c #383C5E",
"^+	c #3A3C61",
"/+	c #393C61",
"(+	c #393E62",
"_+	c #393F65",
":+	c #3A3E65",
"<+	c #3E4064",
"[+	c #3E426B",
"}+	c #40426D",
"|+	c #434778",
"1+	c #424D7A",
"2+	c #00050A",
"3+	c #000102",
"4+	c #000101",
"5+	c #000203",
"6+	c #000303",
"7+	c #000204",
"8+	c #05090A",
"9+	c #101114",
"0+	c #313840",
"a+	c #1F141B",
"b+	c #151317",
"c+	c #18181E",
"d+	c #18191D",
"e+	c #17191B",
"f+	c #18191B",
"g+	c #17171B",
"h+	c #161619",
"i+	c #171619",
"j+	c #37374A",
"k+	c #565778",
"l+	c #52506E",
"m+	c #4F4B6A",
"n+	c #4C4865",
"o+	c #474361",
"p+	c #474564",
"q+	c #494562",
"r+	c #48445D",
"s+	c #474460",
"t+	c #494865",
"u+	c #454764",
"v+	c #444763",
"w+	c #464A68",
"x+	c #474867",
"y+	c #484667",
"z+	c #494769",
"A+	c #49486F",
"B+	c #494975",
"C+	c #494A70",
"D+	c #0F0E10",
"E+	c #080808",
"F+	c #090909",
"G+	c #090809",
"H+	c #070607",
"I+	c #070506",
"J+	c #060505",
"K+	c #050505",
"L+	c #050405",
"M+	c #020303",
"N+	c #2F373F",
"O+	c #757376",
"P+	c #4D5567",
"Q+	c #505A6E",
"R+	c #5D6679",
"S+	c #5B677A",
"T+	c #5C687B",
"U+	c #616A7D",
"V+	c #626B7D",
"W+	c #505969",
"X+	c #4F5A6A",
"Y+	c #4F5A69",
"Z+	c #575E72",
"`+	c #60677D",
" @	c #5F687B",
".@	c #63697E",
"+@	c #666D82",
"@@	c #5F647C",
"#@	c #666B84",
"$@	c #677088",
"%@	c #6C758C",
"&@	c #6C748A",
"*@	c #687487",
"=@	c #697A8D",
"-@	c #6C7A8D",
";@	c #6F7C8E",
">@	c #6D798B",
",@	c #6E7A8D",
"'@	c #69788C",
")@	c #6A758B",
"!@	c #717A90",
"~@	c #728291",
"{@	c #718A96",
"]@	c #708B97",
"^@	c #6E8694",
"/@	c #69798A",
"(@	c #667186",
"_@	c #647082",
":@	c #5B657B",
"<@	c #4F5970",
"[@	c #414A5E",
"}@	c #545867",
"|@	c #383B44",
"1@	c #0E0E11",
"2@	c #0B0F14",
"3@	c #46434A",
"4@	c #47484E",
"5@	c #404248",
"6@	c #272D30",
"7@	c #272A31",
"8@	c #11171A",
"9@	c #16181A",
"0@	c #06090B",
"a@	c #1D1F22",
"b@	c #191C21",
"c@	c #4C4C51",
"d@	c #545057",
"e@	c #4A4B51",
"f@	c #4E4D54",
"g@	c #57565B",
"h@	c #282C32",
"i@	c #0F1821",
"j@	c #222530",
"k@	c #29262E",
"l@	c #26252E",
"m@	c #272A34",
"n@	c #202D38",
"o@	c #1E2C39",
"p@	c #202A36",
"q@	c #202937",
"r@	c #1E2735",
"s@	c #1F2935",
"t@	c #222B37",
"u@	c #242D39",
"v@	c #27323E",
"w@	c #293740",
"x@	c #25343D",
"y@	c #24303B",
"z@	c #222C38",
"A@	c #1D2732",
"B@	c #2F3B48",
"C@	c #303C49",
"D@	c #3B4854",
"E@	c #262D36",
"F@	c #292B30",
"G@	c #241F23",
"H@	c #373233",
"I@	c #504A4C",
"J@	c #797275",
"K@	c #817B7E",
"L@	c #767074",
"M@	c #5E5559",
"N@	c #4A4148",
"O@	c #2F242A",
"P@	c #3A3037",
"Q@	c #372C31",
"R@	c #362E34",
"S@	c #3C3339",
"T@	c #635E66",
"U@	c #74717A",
"V@	c #615D67",
"W@	c #605D66",
"X@	c #716D73",
"Y@	c #413D47",
"Z@	c #4B444E",
"`@	c #493F49",
" #	c #453D48",
".#	c #49404C",
"+#	c #43404A",
"@#	c #403E48",
"##	c #3B3A43",
"$#	c #3B3941",
"%#	c #39373F",
"&#	c #37363D",
"*#	c #37353E",
"=#	c #36353F",
"-#	c #35353E",
";#	c #33353D",
">#	c #31323A",
",#	c #2D2E37",
"'#	c #2D2E36",
")#	c #494B55",
"!#	c #5D5D66",
"~#	c #575660",
"{#	c #585760",
"]#	c #332E37",
"^#	c #18171B",
"/#	c #606166",
"(#	c #190F0F",
"_#	c #98A0A1",
":#	c #DDDCDC",
"<#	c #E1DCDB",
"[#	c #B8C2C7",
"}#	c #BFC9CD",
"|#	c #D5D5D6",
"1#	c #D8D6D8",
"2#	c #CBCCCF",
"3#	c #DCD4D5",
"4#	c #C6C7CC",
"5#	c #BAC0C4",
"6#	c #C7C9CD",
"7#	c #DAD2D3",
"8#	c #C1C3C6",
"9#	c #D2CED0",
"0#	c #D4CED0",
"a#	c #BFC1C5",
"b#	c #CCCDD1",
"c#	c #E1DEDE",
"d#	c #E1DEDF",
"e#	c #DDDEDF",
"f#	c #E9E5E4",
"g#	c #D5DBDC",
"h#	c #D7DCDE",
"i#	c #DDDEE0",
"j#	c #E4E2E2",
"k#	c #D7D9DA",
"l#	c #E6E3E2",
"m#	c #E4E2E3",
"n#	c #DCDCDF",
"o#	c #DBDBDD",
"p#	c #E6E2E2",
"q#	c #DDDEDD",
"r#	c #E1E2E1",
"s#	c #E9E4E3",
"t#	c #DEE0E0",
"u#	c #D2D7D8",
"v#	c #D7D8D8",
"w#	c #DCDBDC",
"x#	c #CDD0D3",
"y#	c #C6CECF",
"z#	c #DAE1E2",
"A#	c #5C5A5D",
"B#	c #1F252A",
"C#	c #312C30",
"D#	c #250A09",
"E#	c #3C3A3E",
"F#	c #D2D0D5",
"G#	c #E1D9DB",
"H#	c #A8A5AA",
"I#	c #AEA9AE",
"J#	c #D0C7C9",
"K#	c #CEC1C4",
"L#	c #C1B3B6",
"M#	c #D7C8CE",
"N#	c #9A93A0",
"O#	c #958D94",
"P#	c #A399A0",
"Q#	c #CBBBC0",
"R#	c #968D93",
"S#	c #C5B7BC",
"T#	c #BAABAF",
"U#	c #8E8488",
"V#	c #94878D",
"W#	c #C5B4B9",
"X#	c #AE9EA2",
"Y#	c #9C8F95",
"Z#	c #D7C6C7",
"`#	c #92898B",
" $	c #9A8D91",
".$	c #A09598",
"+$	c #C8B7B8",
"@$	c #96888D",
"#$	c #B9AAAB",
"$$	c #C0ADB2",
"%$	c #988A91",
"&$	c #998991",
"*$	c #C4B0B3",
"=$	c #AD9CA0",
"-$	c #9E9197",
";$	c #D3BCC0",
">$	c #AA9FA5",
",$	c #97909A",
"'$	c #95919E",
")$	c #CEBFC1",
"!$	c #9F9DA5",
"~$	c #8C8A97",
"{$	c #565C69",
"]$	c #261718",
"^$	c #241D1D",
"/$	c #131415",
"($	c #040303",
"_$	c #666B69",
":$	c #DCE9E4",
"<$	c #D4E4DE",
"[$	c #D4E2DC",
"}$	c #D8E3DE",
"|$	c #D7E4DF",
"1$	c #D7E3DD",
"2$	c #D8E4E0",
"3$	c #DAE5E0",
"4$	c #D8E4E1",
"5$	c #D9E4E2",
"6$	c #D9E5E2",
"7$	c #D8E2E0",
"8$	c #DBE4E4",
"9$	c #D8E1E1",
"0$	c #DAE4E4",
"a$	c #DDE8E9",
"b$	c #DAE5E5",
"c$	c #D9E4E5",
"d$	c #DFEAEA",
"e$	c #DDE7E7",
"f$	c #E2EBEA",
"g$	c #E5EDEB",
"h$	c #E6F0EF",
"i$	c #E5EBEB",
"j$	c #EBF0EE",
"k$	c #EBEFEE",
"l$	c #E4E9E6",
"m$	c #E6EBEB",
"n$	c #EBF1EF",
"o$	c #EAF0EF",
"p$	c #E7EDEB",
"q$	c #ECF4F3",
"r$	c #EDF3F2",
"s$	c #EEF2F1",
"t$	c #EDF2F3",
"u$	c #F4FAF8",
"v$	c #F1F8F6",
"w$	c #F7FAFA",
"x$	c #9B989D",
"y$	c #020000",
"z$	c #121111",
"A$	c #121213",
"B$	c #070808",
"C$	c #0D0F0F",
"D$	c #141B18",
"E$	c #131C19",
"F$	c #121917",
"G$	c #141A18",
"H$	c #131817",
"I$	c #131818",
"J$	c #141919",
"K$	c #14191A",
"L$	c #161C1C",
"M$	c #161B1B",
"N$	c #161A1A",
"O$	c #171B1B",
"P$	c #141718",
"Q$	c #141818",
"R$	c #141A1B",
"S$	c #151A1C",
"T$	c #151B1C",
"U$	c #15191C",
"V$	c #161B1D",
"W$	c #14191B",
"X$	c #161C1D",
"Y$	c #191F1E",
"Z$	c #1B2121",
"`$	c #1A2021",
" %	c #1D2424",
".%	c #202828",
"+%	c #1E2728",
"@%	c #1D2626",
"#%	c #1F2929",
"$%	c #212C2D",
"%%	c #222D2F",
"&%	c #243031",
"*%	c #253131",
"=%	c #293537",
"-%	c #2B383A",
";%	c #313D3D",
">%	c #354041",
",%	c #384243",
"'%	c #3D4749",
")%	c #2B3134",
"!%	c #030506",
"~%	c #0B0E0D",
"{%	c #1B1416",
"]%	c #020200",
"^%	c #0D0F11",
"/%	c #3F292E",
"(%	c #282026",
"_%	c #2B232B",
":%	c #2A282F",
"<%	c #1E1D21",
"[%	c #1A1619",
"}%	c #301B1F",
"|%	c #331D21",
"1%	c #282730",
"2%	c #29252E",
"3%	c #29232D",
"4%	c #28232B",
"5%	c #28232D",
"6%	c #28242E",
"7%	c #27222B",
"8%	c #25212A",
"9%	c #24212A",
"0%	c #20222B",
"a%	c #331A1F",
"b%	c #1D1A1E",
"c%	c #181C21",
"d%	c #1A1D23",
"e%	c #1C1B20",
"f%	c #1F161C",
"g%	c #241216",
"h%	c #181217",
"i%	c #171319",
"j%	c #171218",
"k%	c #171318",
"l%	c #161317",
"m%	c #141217",
"n%	c #141318",
"o%	c #151419",
"p%	c #16151B",
"q%	c #16171B",
"r%	c #231213",
"s%	c #191013",
"t%	c #0F0A0C",
"u%	c #1A171D",
"v%	c #19181D",
"w%	c #18171D",
"x%	c #2A1F24",
"y%	c #86888B",
"z%	c #33363F",
"A%	c #6A4347",
"B%	c #623F45",
"C%	c #62464E",
"D%	c #664249",
"E%	c #787377",
"F%	c #4B323A",
"G%	c #50404B",
"H%	c #55363D",
"I%	c #743C3E",
"J%	c #4A363B",
"K%	c #31232A",
"L%	c #28272D",
"M%	c #373F47",
"N%	c #744042",
"O%	c #533D43",
"P%	c #67454A",
"Q%	c #694248",
"R%	c #656066",
"S%	c #4E444D",
"T%	c #58383E",
"U%	c #623B40",
"V%	c #58383B",
"W%	c #362A33",
"X%	c #2E262C",
"Y%	c #38444E",
"Z%	c #7C3C3D",
"`%	c #534249",
" &	c #6A4449",
".&	c #6F4448",
"+&	c #69656B",
"@&	c #553A42",
"#&	c #4F3A41",
"$&	c #673A3E",
"%&	c #3B2F37",
"&&	c #33282E",
"*&	c #404752",
"=&	c #873837",
"-&	c #51484F",
";&	c #6A434A",
">&	c #6A4349",
",&	c #878689",
"'&	c #69646A",
")&	c #878688",
"!&	c #563941",
"~&	c #4F3F49",
"{&	c #6A3A3A",
"]&	c #40333B",
"^&	c #4D3F46",
"/&	c #5E6066",
"(&	c #382C33",
"_&	c #474B55",
":&	c #943D38",
"<&	c #6E4549",
"[&	c #714248",
"}&	c #4D4650",
"|&	c #4F454E",
"1&	c #5C383E",
"2&	c #4E4750",
"3&	c #713735",
"4&	c #463741",
"5&	c #3C3036",
"6&	c #33333B",
"7&	c #41343A",
"8&	c #4D4B54",
"9&	c #9C3D37",
"0&	c #784346",
"a&	c #6F4247",
"b&	c #4F464F",
"c&	c #50474E",
"d&	c #5D393F",
"e&	c #868586",
"f&	c #7C3837",
"g&	c #4A3E47",
"h&	c #3D272B",
"i&	c #322B2F",
"j&	c #443B43",
"k&	c #5D4850",
"l&	c #A23F38",
"m&	c #744346",
"n&	c #754146",
"o&	c #52464E",
"p&	c #5F393E",
"q&	c #853A38",
"r&	c #51454C",
"s&	c #422529",
"t&	c #422C31",
"u&	c #6C4549",
"v&	c #9C423D",
"w&	c #6F4145",
"x&	c #6C4248",
"y&	c #53464F",
"z&	c #4E464F",
"A&	c #5C383F",
"B&	c #4D3F47",
"C&	c #893E3E",
"D&	c #60454A",
"E&	c #3F282D",
"F&	c #848586",
"G&	c #4A2F34",
"H&	c #7B4544",
"I&	c #8D4240",
"J&	c #703E42",
"K&	c #6B4147",
"L&	c #55474F",
"M&	c #4D4851",
"N&	c #5D3A41",
"O&	c #543D42",
"P&	c #824342",
"Q&	c #684349",
"R&	c #3C2E34",
"S&	c #3A373C",
"T&	c #482F35",
"U&	c #874442",
"V&	c #7E3F40",
"W&	c #6C3E43",
"X&	c #684147",
"Y&	c #58474F",
"Z&	c #5B5860",
"`&	c #5D3940",
" *	c #543C41",
".*	c #704345",
"+*	c #6F4346",
"@*	c #40333A",
"#*	c #372F32",
"$*	c #858586",
"%*	c #463339",
"&*	c #94433E",
"**	c #6E4042",
"=*	c #764042",
"-*	c #614148",
";*	c #5A474E",
">*	c #4D4952",
",*	c #593C44",
"'*	c #5A3B3F",
")*	c #594047",
"!*	c #794241",
"~*	c #443C44",
"{*	c #2F272A",
"]*	c #3A373F",
"^*	c #4E3B40",
"/*	c #94403A",
"(*	c #6A4446",
"_*	c #714045",
":*	c #5B464E",
"<*	c #5B5960",
"[*	c #593B42",
"}*	c #5E3D40",
"|*	c #4E454D",
"1*	c #7D3C3B",
"2*	c #42434D",
"3*	c #3B2524",
"4*	c #413338",
"5*	c #814846",
"6*	c #764547",
"7*	c #60424A",
"8*	c #5C474E",
"9*	c #69686E",
"0*	c #563F46",
"a*	c #574347",
"b*	c #704042",
"c*	c #464650",
"d*	c #402424",
"e*	c #573132",
"f*	c #878687",
"g*	c #814746",
"h*	c #614A4F",
"i*	c #69696E",
"j*	c #763C3B",
"k*	c #4F4952",
"l*	c #41282A",
"m*	c #393D43",
"n*	c #653635",
"o*	c #924841",
"p*	c #2E2629",
"q*	c #2F2D31",
"r*	c #833B38",
"s*	c #524B52",
"t*	c #493033",
"u*	c #3B3438",
"v*	c #683835",
"w*	c #613A3A",
"x*	c #31373F",
"y*	c #0C0A0B",
"z*	c #5E3738",
"A*	c #878587",
"B*	c #54383C",
"C*	c #3A2E30",
"D*	c #45393C",
"E*	c #6E3B3A",
"F*	c #26292E",
"G*	c #020101",
"H*	c #080809",
"I*	c #494F55",
"J*	c #573F44",
"K*	c #3C2929",
"L*	c #503637",
"M*	c #6D4344",
"N*	c #212328",
"O*	c #060507",
"P*	c #323941",
"Q*	c #4D464E",
"R*	c #572A28",
"S*	c #683530",
"T*	c #5E474A",
"U*	c #202125",
"V*	c #1C1515",
"W*	c #0E0C0D",
"X*	c #333B43",
"Y*	c #4D4A53",
"Z*	c #5F2A27",
"`*	c #7C342A",
" =	c #544C52",
".=	c #202024",
"+=	c #543D3C",
"@=	c #211A1B",
"#=	c #484E55",
"$=	c #66302D",
"%=	c #626266",
"&=	c #7C3C36",
"*=	c #2F2E35",
"==	c #4A434B",
"-=	c #322A2E",
";=	c #763834",
">=	c #44363A",
",=	c #505055",
"'=	c #7E574F",
")=	c #9D5449",
"!=	c #804C48",
"~=	c #7C5C57",
"{=	c #695554",
"]=	c #504C51",
"^=	c #7D544D",
"/=	c #4F4D54",
"(=	c #504952",
"_=	c #696462",
":=	c #81645A",
"<=	c #664B4B",
"[=	c #6B4949",
"}=	c #78777A",
"|=	c #75443F",
"1=	c #553D3C",
"2=	c #4D484E",
"3=	c #80473D",
"4=	c #2E3037",
"5=	c #373032",
". . . . . . . . . . . . . . . . . . . . . . . . . . . . . . . . . . . . . . . . . . . . . . . . ",
". . . . . . . . . . . . . . . . . . . . . . . . . . . . . . . . . . . . . . . . . . . . . . . . ",
". . . . . . . . . . . . . . . . . . . . . . . . . . . . . . . . . . . . . . . . . . . . . . . . ",
". . . . . . . . . . . . . . . + @ # $ % & * = - ; > , ' ) ! ~ * { . . . . . . . . . . . . . . . ",
". . . . . . . . . . . . . . . ] ^ / ( _ : < [ } | 1 2 3 4 5 6 7 8 . . . . . . . . . . . . . . . ",
". . . . . . . . . . . . . . . 9 0 a b c d e f g h i j k l m n o p . . . . . . . . . . . . . . . ",
". . . . . . . . . . . . . . . q r s t u v w x y z A B C D E F G H . . . . . . . . . . . . . . . ",
". . . . . I J K L M N O P Q R S T U V W X Y Z `  ...+.@.#.$.%.&.*.=.-.;.>.,.'.).!.~.. . . . . . ",
". . . . {.].^./.(._.:.<.[.}.|.1.2.3.4.5.6.7.8.9.0.a.b.c.d.5 e.f.g.h.i.j.k.l.m.n.o.p.q.r.. . . . ",
". . . s.t.u.v.w.x.y.z.A.B.C.D.E.F.G.H.I.J.K.L.M.N.O.P.0.H.Q.R.S.T.U.V.W.X.Y.Z.`. +.+++@+#+. . . ",
". . . $+%+&+*+=+=+=+=+=+=+=+-+;+>+,+'+)+!+~+{+]+^+/+(+_+:+<+[+}+|+1+2+=+3+4+5+4+6+5+7+8+9+0+. . ",
". . . a+b+c+d+e+f+g+f+h+i+b+j+k+l+m+n+o+p+q+r+s+t+u+v+w+x+y+z+A+B+C+D+E+F+G+H+I+I+J+K+L+M+N+. . ",
". . . O+P+Q+R+S+T+U+V+W+X+Y+Z+`+ @.@+@@@#@$@%@$@&@*@=@-@;@>@,@'@)@!@~@{@]@^@/@(@_@:@<@[@}@. . . ",
". . |@1@2@3@4@5@6@7@8@9@0@a@b@c@d@e@f@g@h@i@j@k@l@m@n@o@p@q@r@s@t@u@v@w@x@y@z@A@B@C@v@D@E@F@. . ",
". . G@H@I@J@K@L@M@N@O@P@Q@R@S@T@U@V@W@X@3@Y@Z@`@ #.#+#@###$#%#&#*#=#-#;#>#,#,#'#)#!#~#{#]#^#. . ",
". /#(#_#:#<#[#}#|#1#2#3#4#5#6#7#8#9#0#a#b#c#d#e#f#g#h#i#j#k#l#m#n#o#p#q#r#s#t#u#v#w#x#y#z#A#B#. ",
". C#D#E#F#G#H#I#J#K#L#M#N#O#P#Q#R#S#T#U#V#W#X#Y#Z#`# $.$+$@$#$$$%$&$*$=$-$;$>$,$'$)$!$~${$]$^$. ",
". /$($_$:$<$[$}$|$1$2$3$}$4$5$6$7$8$9$0$0$a$b$c$d$e$f$g$h$i$j$k$l$m$n$o$p$q$r$s$t$u$v$w$x$y$z$. ",
". A$B$C$D$E$F$G$H$I$J$K$L$M$N$N$O$P$Q$R$S$T$U$V$W$X$Y$Z$`$ %.%+%@%#%$%%%&%*%=%-%;%>%,%'%)%!%~%. ",
". {%]%=+=+=+=+=+=+=+=+=+=+=+=+=+=+=+=+=+=+=+=+=+=+=+=+=+=+=+=+=+=+=+=+=+=+=+=+=+=+=+=+=+=+=+^%. ",
". /%(%_%:%<%[%}%|%1%2%3%4%5%6%5%7%8%9%0%a%b%c%b@d%e%f%g%h%i%j%k%l%m%m%n%o%p%p%q%r%s%t%u%v%w%x%. ",
". . . . y%>#z%A%B%. . . . . . . . . . C%D%. . . . E%F%G%H%. . . . . . . . . . . I%J%K%. . . . . ",
". . . . . L%M%N%O%. . . . . . . . . P%Q%. . . . . . R%. S%T%. . . . . . . . . . U%V%W%. . . . . ",
". . . . . X%Y%Z%`%. . . . . . . .  &.&. . . . . . . . . . +&@&. . . . . . . . . #&$&%&. . . . . ",
". . . . . &&*&=&-&. . . . . . . ;&>&. . . . . . . ,&'&. . . )&!&. . . . . . . . ~&{&]&^&. . . . ",
". . . . /&(&_&:&. . . . . . . <&[&. . . . . . . . }&|&. . . . . 1&. . . . . . . 2&3&4&5&. . . . ",
". . . . 6&7&8&9&. . . . . . 0&a&. . . . . . . . . b&c&. . . . . . d&e&. . . . . . f&g&h&. . . . ",
". . . . i&j&k&l&. . . . . m&n&. . . . . . . . . . o&c&. . . . . . . p&e&. . . . . q&r&s&. . . . ",
". . . . t&. u&v&. . . . w&x&. . . . . . . . . . . y&z&. . . . . . . . A&B&. . . . C&D&E&F&. . . ",
". . . . G&. H&I&. . . J&K&. . . . . . . . . . . . L&M&. . . . . . . . . N&O&. . . P&Q&R&S&. . . ",
". . . . T&. U&V&. . W&X&. . . . . . . . . . . . . Y&Z&. . . . . . . . . . `& *. . .*+*@*#*. . . ",
". . . $*%*. &***. =*-*. . . . . . . . . . . . . . ;*>*. . . . . . . . . . . ,*'*. )*!*~*{*. . . ",
". . . ]*^*. /*(*_*D%. . . . . . . . . . . . . . . :*<*. . . . . . . . . . . . [*}*|*1*2*3*. . . ",
". . . 4*^&. 5*6*7*. . . . . . . . . . . . . . . . 8*9*. . . . . . . . . . . . . 0*a*b*c*d*. . . ",
". . . e*f*. g*. . . . . . . . . . . . . . . . . . h*i*. . . . . . . . . . . . . . . j*k*l*m*. . ",
". . . n*I . o*. . . . . . . . . . . . . . . . . . p*q*. . . . . . . . . . . . . . . r*s*t*u*. . ",
". . . v*. . w*. . . . . . . . . . . . . . . . . x*($y*. . . . . . . . . . . . . . . z*A*B*C*. . ",
". . D*E*. . . . . . . . . . . . . . . . . . . . F*G*H*I*. . . . . . . . . . . . . . . . J*K*. . ",
". . L*M*. . . . . . . . . . . . . . . . . . . . N*=+O*P*. . . . . . . . . . . . . . . . Q*R*. . ",
". . S*T*. . . . . . . . . . . . . . . . . . . . U*V*W*X*. . . . . . . . . . . . . . . . Y*Z*. . ",
". . `* =. . . . . . . . . . . . . . . . . . . . .=+=@=#=. . . . . . . . . . . . . . . . . $=%=. ",
". . &=. . . . . . . . . . . . . . . . . . . . . *===-=. . . . . . . . . . . . . . . . . . ;=>=. ",
". ,='=. . . . . . . . . . . . . . . . . . . . . . )=!=. . . . . . . . . . . . . . . . . . ~={=. ",
". ]=^=. . . . . . . . . . . . . . . . . . . . . . /=(=. . . . . . . . . . . . . . . . . . _=:=. ",
". <=[=. . . . . . . . . . . . . . . . . . . . . . . . . . . . . . . . . . . . . . . . . . }=|=. ",
". 1=2=. . . . . . . . . . . . . . . . . . . . . . . . . . . . . . . . . . . . . . . . . . . 3=. ",
". 4=. . . . . . . . . . . . . . . . . . . . . . . . . . . . . . . . . . . . . . . . . . . . 5=. ",
". . . . . . . . . . . . . . . . . . . . . . . . . . . . . . . . . . . . . . . . . . . . . . . . "};
