/* XPM */
static const char  * sax_xpm[] = {
"48 48 459 2",
"  	c #969696",
". 	c #75797D",
"+ 	c #6D6B58",
"@ 	c #797344",
"# 	c #6F683E",
"$ 	c #606770",
"% 	c #706A47",
"& 	c #927D1E",
"* 	c #D4BD46",
"= 	c #CBAE36",
"- 	c #967E1C",
"; 	c #606156",
"> 	c #5C6266",
", 	c #80794D",
"' 	c #A88C1C",
") 	c #72725E",
"! 	c #5C6364",
"~ 	c #606665",
"{ 	c #8E8652",
"] 	c #978228",
"^ 	c #596066",
"/ 	c #7B6E36",
"( 	c #9B8014",
"_ 	c #9D8938",
": 	c #5A6166",
"< 	c #5D6365",
"[ 	c #85793D",
"} 	c #646454",
"| 	c #5C6265",
"1 	c #C1A63B",
"2 	c #9F892B",
"3 	c #565544",
"4 	c #525B64",
"5 	c #7C7859",
"6 	c #A79856",
"7 	c #787352",
"8 	c #937E27",
"9 	c #948540",
"0 	c #5D6263",
"a 	c #656A66",
"b 	c #827C52",
"c 	c #565D62",
"d 	c #807D60",
"e 	c #CEAE2D",
"f 	c #7E6F2B",
"g 	c #808285",
"h 	c #717263",
"i 	c #737056",
"j 	c #535B63",
"k 	c #686C66",
"l 	c #AA9639",
"m 	c #D2B843",
"n 	c #585647",
"o 	c #585F68",
"p 	c #575A53",
"q 	c #1E1E18",
"r 	c #575E66",
"s 	c #545C62",
"t 	c #9D8A3D",
"u 	c #D7B730",
"v 	c #73662C",
"w 	c #6A6E72",
"x 	c #60676F",
"y 	c #2A2D32",
"z 	c #08090A",
"A 	c #53595F",
"B 	c #8A7F50",
"C 	c #E0BA27",
"D 	c #A18C32",
"E 	c #60676E",
"F 	c #212326",
"G 	c #0B0C0E",
"H 	c #585F66",
"I 	c #737363",
"J 	c #D9B524",
"K 	c #CBAF3F",
"L 	c #646452",
"M 	c #555D65",
"N 	c #2D2F32",
"O 	c #313337",
"P 	c #817131",
"Q 	c #DEBE3A",
"R 	c #706A3F",
"S 	c #60676D",
"T 	c #575F65",
"U 	c #565138",
"V 	c #877421",
"W 	c #8A7727",
"X 	c #626764",
"Y 	c #5E6465",
"Z 	c #787249",
"` 	c #7B6A22",
" .	c #907E29",
"..	c #615E4A",
"+.	c #606566",
"@.	c #7A785F",
"#.	c #807C5C",
"$.	c #8A8254",
"%.	c #857F58",
"&.	c #6C6E66",
"*.	c #6B6D64",
"=.	c #978643",
"-.	c #8D7E3B",
";.	c #705E0F",
">.	c #616666",
",.	c #676B66",
"'.	c #827F5E",
").	c #F0E6A9",
"!.	c #E8D478",
"~.	c #CDA721",
"{.	c #C49C13",
"].	c #BF950B",
"^.	c #C89F07",
"/.	c #BFA124",
"(.	c #626666",
"_.	c #887C43",
":.	c #BDA43F",
"<.	c #837228",
"[.	c #5E5A3E",
"}.	c #7A785D",
"|.	c #CCAC25",
"1.	c #CFAE35",
"2.	c #AA8216",
"3.	c #8C5E01",
"4.	c #794C00",
"5.	c #7F5302",
"6.	c #9F7901",
"7.	c #857A43",
"8.	c #7A7656",
"9.	c #C7AF49",
"0.	c #C2A837",
"a.	c #756F4D",
"b.	c #6A6F75",
"c.	c #555D63",
"d.	c #847B47",
"e.	c #9C7800",
"f.	c #866103",
"g.	c #78560F",
"h.	c #7E632A",
"i.	c #9A7F36",
"j.	c #AA8E1D",
"k.	c #6F7063",
"l.	c #6C6E62",
"m.	c #A99540",
"n.	c #C0A949",
"o.	c #95802A",
"p.	c #5E6466",
"q.	c #666A66",
"r.	c #B18F0D",
"s.	c #D2B028",
"t.	c #CCAF3A",
"u.	c #E4D281",
"v.	c #EFDC85",
"w.	c #A19141",
"x.	c #596064",
"y.	c #6C6A53",
"z.	c #A49246",
"A.	c #BEA541",
"B.	c #BCA233",
"C.	c #615B39",
"D.	c #525A61",
"E.	c #AF8E0E",
"F.	c #EBC933",
"G.	c #E7C847",
"H.	c #F0DE88",
"I.	c #EDD983",
"J.	c #978943",
"K.	c #646350",
"L.	c #8A7730",
"M.	c #897A39",
"N.	c #897A3C",
"O.	c #746627",
"P.	c #5D6265",
"Q.	c #535B62",
"R.	c #987A0A",
"S.	c #E4C232",
"T.	c #E2C446",
"U.	c #EEDC8F",
"V.	c #E8CF60",
"W.	c #898253",
"X.	c #646864",
"Y.	c #B2A04E",
"Z.	c #A99543",
"`.	c #C6AF4D",
" +	c #776929",
".+	c #686B60",
"++	c #646766",
"@+	c #A58713",
"#+	c #E2C131",
"$+	c #E2C549",
"%+	c #F0E0A0",
"&+	c #E0C139",
"*+	c #707164",
"=+	c #545C64",
"-+	c #6D6849",
";+	c #B09E50",
">+	c #BAAA59",
",+	c #AF982F",
"'+	c #797555",
")+	c #6F6950",
"!+	c #C1A223",
"~+	c #DFBD2B",
"{+	c #E6CE66",
"]+	c #F8E79A",
"^+	c #C3A522",
"/+	c #5D5F5D",
"(+	c #575F66",
"_+	c #64645A",
":+	c #9C852F",
"<+	c #C2AB48",
"[+	c #B39C3F",
"}+	c #817331",
"|+	c #7B6D39",
"1+	c #D1B026",
"2+	c #DEBC26",
"3+	c #ECDC93",
"4+	c #F4DB6E",
"5+	c #C0AA52",
"6+	c #737275",
"7+	c #655E40",
"8+	c #A79854",
"9+	c #AF9943",
"0+	c #C4AF4E",
"a+	c #9A8018",
"b+	c #6C6E64",
"c+	c #646764",
"d+	c #AD9121",
"e+	c #E9C526",
"f+	c #ECCE47",
"g+	c #FAEA9E",
"h+	c #DAC04F",
"i+	c #D9CFA4",
"j+	c #A2A2A4",
"k+	c #877A43",
"l+	c #B6A356",
"m+	c #AC9D62",
"n+	c #9A842A",
"o+	c #7D764C",
"p+	c #776F49",
"q+	c #CAA91F",
"r+	c #D2B123",
"s+	c #D6C167",
"t+	c #ECD672",
"u+	c #D2BD64",
"v+	c #ADA796",
"w+	c #8E866B",
"x+	c #A48D34",
"y+	c #B59D39",
"z+	c #A69340",
"A+	c #7F7332",
"B+	c #696B62",
"C+	c #B29516",
"D+	c #C6A829",
"E+	c #7E6D27",
"F+	c #8D8046",
"G+	c #C1AB50",
"H+	c #9A8E5C",
"I+	c #7A7457",
"J+	c #B19F4D",
"K+	c #C7B35B",
"L+	c #AC9845",
"M+	c #A68D20",
"N+	c #747460",
"O+	c #525A62",
"P+	c #6A6133",
"Q+	c #B5981C",
"R+	c #8F7C2A",
"S+	c #4A421F",
"T+	c #98873C",
"U+	c #BBAB60",
"V+	c #75725F",
"W+	c #655926",
"X+	c #AB9948",
"Y+	c #ACA476",
"Z+	c #857B43",
"`+	c #6F684B",
" @	c #75610F",
".@	c #897A31",
"+@	c #574D23",
"@@	c #726942",
"#@	c #DBC360",
"$@	c #AD9C50",
"%@	c #A59753",
"&@	c #B49E46",
"*@	c #8F7D33",
"=@	c #AE9C4A",
"-@	c #897B33",
";@	c #606666",
">@	c #696A62",
",@	c #A9890D",
"'@	c #B59B2B",
")@	c #6E622D",
"!@	c #87783D",
"~@	c #B6A661",
"{@	c #A5985F",
"]@	c #6E6644",
"^@	c #B3A055",
"/@	c #C5B674",
"(@	c #B5A25B",
"_@	c #E1C033",
":@	c #7F7C5C",
"<@	c #565D64",
"[@	c #7D6921",
"}@	c #C5A622",
"|@	c #9A872F",
"1@	c #71642E",
"2@	c #CBB458",
"3@	c #BAA95F",
"4@	c #797251",
"5@	c #5B5438",
"6@	c #7F6F28",
"7@	c #A7954C",
"8@	c #E1C450",
"9@	c #968741",
"0@	c #766C45",
"a@	c #C2A11D",
"b@	c #9A8529",
"c@	c #4A4321",
"d@	c #9D8C42",
"e@	c #BFAB57",
"f@	c #868062",
"g@	c #918451",
"h@	c #9B8B47",
"i@	c #A18E39",
"j@	c #E6C84E",
"k@	c #AE972D",
"l@	c #646966",
"m@	c #5E6366",
"n@	c #84752F",
"o@	c #ECC72D",
"p@	c #7F6D1E",
"q@	c #453D20",
"r@	c #C7B24E",
"s@	c #AB9C5D",
"t@	c #857E64",
"u@	c #A3924C",
"v@	c #988C5B",
"w@	c #AB9F66",
"x@	c #CFB02A",
"y@	c #827D57",
"z@	c #575E64",
"A@	c #716A47",
"B@	c #A99234",
"C@	c #E8C738",
"D@	c #A48F31",
"E@	c #90834D",
"F@	c #AB9C53",
"G@	c #8C8053",
"H@	c #948038",
"I@	c #998327",
"J@	c #9E9160",
"K@	c #B09B47",
"L@	c #8D7F38",
"M@	c #777256",
"N@	c #A88A13",
"O@	c #A68F2C",
"P@	c #B39F46",
"Q@	c #D2BB56",
"R@	c #BEAF6C",
"S@	c #93885D",
"T@	c #AA9A55",
"U@	c #A48E36",
"V@	c #978840",
"W@	c #BBA853",
"X@	c #B19623",
"Y@	c #6F7164",
"Z@	c #596065",
"`@	c #857433",
" #	c #B8991B",
".#	c #BFA63F",
"+#	c #B4A04B",
"@#	c #A5954F",
"##	c #847E5E",
"$#	c #9D9059",
"%#	c #E0CC6C",
"&#	c #BCB17D",
"*#	c #AEA36E",
"=#	c #BAA02C",
"-#	c #847B4E",
";#	c #686D6A",
">#	c #9F8418",
",#	c #BBA239",
"'#	c #DBC876",
")#	c #BCA855",
"!#	c #787251",
"~#	c #676760",
"{#	c #9A873D",
"]#	c #C1AD5A",
"^#	c #B9B38F",
"/#	c #BFAA53",
"(#	c #93822E",
"_#	c #5F6566",
":#	c #606771",
"<#	c #BEB495",
"[#	c #AA901F",
"}#	c #C5AA34",
"|#	c #CCB869",
"1#	c #A5975C",
"2#	c #8C897F",
"3#	c #8F8462",
"4#	c #A08829",
"5#	c #BEAB56",
"6#	c #D0BC66",
"7#	c #B99C1F",
"8#	c #75755F",
"9#	c #535C65",
"0#	c #C1B797",
"a#	c #AB9125",
"b#	c #DFC03F",
"c#	c #DEC55E",
"d#	c #AB922F",
"e#	c #B39842",
"f#	c #B99B31",
"g#	c #B7A346",
"h#	c #CBBA6B",
"i#	c #CAAD35",
"j#	c #8B7F42",
"k#	c #C9C2AD",
"l#	c #AA9231",
"m#	c #DBBD3B",
"n#	c #D4C060",
"o#	c #B69D39",
"p#	c #BD9A18",
"q#	c #DCBD3A",
"r#	c #D9C56A",
"s#	c #B4A14C",
"t#	c #917C21",
"u#	c #626766",
"v#	c #AE9B4E",
"w#	c #B5971D",
"x#	c #B4A046",
"y#	c #C4B36B",
"z#	c #C5B570",
"A#	c #E2CD71",
"B#	c #E5CA52",
"C#	c #A48811",
"D#	c #645F3B",
"E#	c #666E77",
"F#	c #666A68",
"G#	c #7D7132",
"H#	c #7D6916",
"I#	c #7C7042",
"J#	c #9C905B",
"K#	c #BDA53E",
"L#	c #BA9D1D",
"M#	c #8E7610",
"N#	c #646762",
"O#	c #646C75",
"P#	c #5D6466",
"Q#	c #565546",
"R#	c #464023",
"S#	c #907F37",
"T#	c #8A804D",
"U#	c #777661",
"V#	c #626768",
"W#	c #5E6770",
"X#	c #545D67",
"Y#	c #A7A8A5",
"Z#	c #596168",
"                                                                                                ",
"                                                                                                ",
"                                                                                                ",
"                                                                    . + @ #   $                 ",
"                                                                    % & * = - ;                 ",
"                                                                > , ' ) ! ~ { ] ^               ",
"                                                                / ( _ :     < [ }               ",
"                                                              | 1 2 3 4       5 6               ",
"                                                              7 8 9 0         a b c             ",
"                                                            d e f   g           h i j           ",
"                                                          k l m n o               p q r         ",
"                                                        s t u v w                 x y z A       ",
"                                                        B C D   .                   E F G H     ",
"                                                      I J K L                         M N O     ",
"                                                    ^ P Q R S                                   ",
"                                                  T U V W X                                     ",
"                                                Y Z `  ...                                      ",
"                        +.@.#.$.%.&.            *.=.-.;.>.                                      ",
"                  ,.'.).!.~.{.].^./.|         (._.:.<.[.                                        ",
"                  }.|.1.2.3.4.5.6.7.        . 8.9.0.a.b.                                        ",
"                  c.d.e.f.g.h.i.j.k.        l.m.n.o.p.                                          ",
"                    q.r.s.t.u.v.w.x.    . y.z.A.B.C.                                            ",
"                    D.E.F.G.H.I.J.      K.L.M.N.O.P.                                            ",
"                    Q.R.S.T.U.V.W.    X.Y.Z.`. +.+                                              ",
"                    ++@+#+$+%+&+*+  =+-+;+>+,+'+                                                ",
"                    )+!+~+{+]+^+/+(+_+:+<+[+}+g                                                 ",
"                    |+1+2+3+4+5+6+7+8+9+0+a+b+                                                  ",
"                  c+d+e+f+g+h+i+j+k+l+m+n+o+                                                    ",
"                  p+q+r+s+t+u+v+w+x+y+z+A+x.                                                    ",
"                B+C+D+E+F+G+H+I+J+K+L+M+N+                                                      ",
"              O+P+Q+R+S+T+U+V+W+X+Y+P Z+                                                        ",
"              `+ @.@+@@@#@$@%@&@*@=@-@;@                                                        ",
"            >@,@'@)@!@~@{@]@^@/@(@_@:@                                                          ",
"          <@[@}@|@1@2@3@4@5@6@7@8@9@                                                            ",
"          0@a@b@c@d@e@f@g@h@i@j@k@l@                                                            ",
"        m@n@o@p@q@r@s@t@u@v@w@x@y@                                                              ",
"      z@A@B@C@D@E@F@G@H@I@J@K@L@s                                                               ",
"      M@N@O@P@Q@R@S@T@U@V@W@X@Y@                                                                ",
"    Z@`@ #.#+#@###$#%#&#*#=#-#                                                                  ",
"    ;#>#,#'#)#!#~#{#]#^#/#(#_#                                                                  ",
"  :#<#[#}#|#1#2#3#4#5#6#7#8#                                                                    ",
"  9#0#a#b#c#d#e#f#g#h#i#j#                                                                      ",
"    k#l#m#n#o#p#q#r#s#t#u#                                                                      ",
"      v#w#x#y#z#A#B#C#D#                                                                        ",
"    E#F#G#H#I#J#K#L#M#N#                                                                        ",
"    O#  P#Q#R#S#T#U#V#                                                                          ",
"    W#    X#Y#  Z#                                                                              ",
"                                                                                                "};
