/* XPM */
static const char  * synth_xpm[] = {
"48 48 363 2",
"  	c None",
". 	c #969696",
"+ 	c #727272",
"@ 	c #787878",
"# 	c #7D7B7F",
"$ 	c #7A797E",
"% 	c #7C7B7F",
"& 	c #7B7B7C",
"* 	c #767675",
"= 	c #737373",
"- 	c #747474",
"; 	c #797979",
"> 	c #919191",
", 	c #848583",
"' 	c #666275",
") 	c #676183",
"! 	c #676181",
"~ 	c #676185",
"{ 	c #67607D",
"] 	c #6B6A6E",
"^ 	c #898A85",
"/ 	c #8F8F91",
"( 	c #8B8B8A",
"_ 	c #8B8B8B",
": 	c #8D8D8D",
"< 	c #8F8F8F",
"[ 	c #999999",
"} 	c #8A8A8A",
"| 	c #949494",
"1 	c #9A9A9A",
"2 	c #8E8E8E",
"3 	c #8C8C8C",
"4 	c #898989",
"5 	c #979797",
"6 	c #E6E5E8",
"7 	c #756E7E",
"8 	c #2A1800",
"9 	c #4D730C",
"0 	c #42630D",
"a 	c #43610D",
"b 	c #4A6C0C",
"c 	c #2D4700",
"d 	c #2C2E2A",
"e 	c #B8B3C4",
"f 	c #DDDDDB",
"g 	c #C6C6C6",
"h 	c #C8C8C8",
"i 	c #CACACA",
"j 	c #C9C9C9",
"k 	c #B8B8B8",
"l 	c #B4B4B4",
"m 	c #CCCCCC",
"n 	c #CDCDCD",
"o 	c #CBCBCB",
"p 	c #BABABA",
"q 	c #D9D9D9",
"r 	c #CECECE",
"s 	c #2E353E",
"t 	c #444B54",
"u 	c #FFFFFF",
"v 	c #8E7EA8",
"w 	c #4E8A00",
"x 	c #C3FF0D",
"y 	c #ADFF11",
"z 	c #ACFF11",
"A 	c #AFFF12",
"B 	c #ACFF06",
"C 	c #87F900",
"D 	c #C6CFBA",
"E 	c #FFF7FF",
"F 	c #F3F7F0",
"G 	c #F0F1F0",
"H 	c #F1F1F1",
"I 	c #F3F3F3",
"J 	c #F8F8F8",
"K 	c #BDBDBD",
"L 	c #6F6F6F",
"M 	c #C0C0C0",
"N 	c #FBFBFB",
"O 	c #F9F9F9",
"P 	c #BFBFBF",
"Q 	c #989898",
"R 	c #6C6C6C",
"S 	c #C4C4C4",
"T 	c #6D6D6D",
"U 	c #FDFDFD",
"V 	c #FCFCFC",
"W 	c #FAFAFA",
"X 	c #1A1E23",
"Y 	c #2C333B",
"Z 	c #8A77A3",
"` 	c #587A00",
" .	c #B8FF08",
"..	c #9FFF0C",
"+.	c #9DFF0C",
"@.	c #9FFF0D",
"#.	c #97FF00",
"$.	c #80EA00",
"%.	c #E6E9D2",
"&.	c #FFF9FF",
"*.	c #F0F2F0",
"=.	c #F2F2F2",
"-.	c #F5F5F5",
";.	c #7F7F7F",
">.	c #2A2A2A",
",.	c #151515",
"'.	c #838383",
").	c #888888",
"!.	c #2D2D2D",
"~.	c #7B7B7B",
"{.	c #303030",
"].	c #1B1B1B",
"^.	c #F7F7F7",
"/.	c #15181C",
"(.	c #282F36",
"_.	c #8F7EA5",
":.	c #236200",
"<.	c #8CFF00",
"[.	c #84EA00",
"}.	c #7FE900",
"|.	c #7EE900",
"1.	c #7DE900",
"2.	c #80E900",
"3.	c #82EA00",
"4.	c #71E700",
"5.	c #5AD300",
"6.	c #D5E2C0",
"7.	c #EEEFEE",
"8.	c #EFEFEF",
"9.	c #F0F0F0",
"0.	c #ADADAD",
"a.	c #343434",
"b.	c #383838",
"c.	c #9C9C9C",
"d.	c #F6F6F6",
"e.	c #B3B3B3",
"f.	c #3A3A3A",
"g.	c #353535",
"h.	c #939393",
"i.	c #424242",
"j.	c #2F2F2F",
"k.	c #EEEEEE",
"l.	c #161A1E",
"m.	c #293037",
"n.	c #F0F0F1",
"o.	c #D0CBD6",
"p.	c #C4CDB3",
"q.	c #E8F7C5",
"r.	c #DEEFC3",
"s.	c #E2EFC3",
"t.	c #E8F4CB",
"u.	c #F0F9D5",
"v.	c #E9F4CC",
"w.	c #E2F0C5",
"x.	c #E2EEC5",
"y.	c #E0EFC3",
"z.	c #EAF4CF",
"A.	c #EDF5C9",
"B.	c #E3EEC2",
"C.	c #FCFCFF",
"D.	c #FAF9FA",
"E.	c #FEFEFE",
"F.	c #DCDCDC",
"G.	c #EBEBEB",
"H.	c #EAEAEA",
"I.	c #E3E3E2",
"J.	c #EAEAEC",
"K.	c #EDECF0",
"L.	c #D8CEDC",
"M.	c #ECE1E4",
"N.	c #FFF3FC",
"O.	c #F4E7FF",
"P.	c #E3D4F5",
"Q.	c #E7DBFA",
"R.	c #E0D3E1",
"S.	c #E6DEE2",
"T.	c #FFF2FB",
"U.	c #F5E9FF",
"V.	c #E6D7FA",
"W.	c #E9DCFA",
"X.	c #D5D2DA",
"Y.	c #BFC0BD",
"Z.	c #B5B5B5",
"`.	c #C2C2C2",
" +	c #D3D3D3",
".+	c #D0D0D0",
"++	c #DADADA",
"@+	c #D1D1D1",
"#+	c #C7C7C7",
"$+	c #DBDBDB",
"%+	c #D4D4D4",
"&+	c #E5E5E5",
"*+	c #E8E8E8",
"=+	c #DDDDDD",
"-+	c #E3E3E1",
";+	c #92948F",
">+	c #A1A39D",
",+	c #A5A6A4",
"'+	c #626360",
")+	c #343532",
"!+	c #000000",
"~+	c #585956",
"{+	c #ADAEAA",
"]+	c #A4A5A2",
"^+	c #656764",
"/+	c #323330",
"(+	c #464745",
"_+	c #B6B6B5",
":+	c #A6A6A6",
"<+	c #A2A2A2",
"[+	c #B2B2B2",
"}+	c #AAAAAA",
"|+	c #373737",
"1+	c #3B3B3B",
"2+	c #BCBCBC",
"3+	c #ABABAB",
"4+	c #3F3F3F",
"5+	c #393939",
"6+	c #AEAEAE",
"7+	c #D2D2D2",
"8+	c #A1A1A1",
"9+	c #EDEDED",
"0+	c #E9E9E9",
"a+	c #414141",
"b+	c #212121",
"c+	c #757575",
"d+	c #4A4A4A",
"e+	c #050505",
"f+	c #5B5B5B",
"g+	c #E0E0E0",
"h+	c #585858",
"i+	c #1C1C1C",
"j+	c #0C0C0C",
"k+	c #454545",
"l+	c #606060",
"m+	c #262626",
"n+	c #0D0D0D",
"o+	c #464646",
"p+	c #656565",
"q+	c #272727",
"r+	c #131313",
"s+	c #404040",
"t+	c #C3C3C3",
"u+	c #DFDFDF",
"v+	c #9B9B9B",
"w+	c #F4F4F4",
"x+	c #ECECEC",
"y+	c #494949",
"z+	c #010101",
"A+	c #505050",
"B+	c #2B2B2B",
"C+	c #0B0B0B",
"D+	c #636363",
"E+	c #E2E2E2",
"F+	c #5E5E5E",
"G+	c #4C4C4C",
"H+	c #666666",
"I+	c #111111",
"J+	c #515151",
"K+	c #6A6A6A",
"L+	c #191919",
"M+	c #4D4D4D",
"N+	c #DEDEDE",
"O+	c #A8A8A8",
"P+	c #BBBBBB",
"Q+	c #E7E7E7",
"R+	c #4B4B4B",
"S+	c #2E2E2E",
"T+	c #777777",
"U+	c #525252",
"V+	c #292929",
"W+	c #626262",
"X+	c #D6D6D6",
"Y+	c #282828",
"Z+	c #121212",
"`+	c #686868",
" @	c #313131",
".@	c #101010",
"+@	c #4E4E4E",
"@@	c #474747",
"#@	c #A7A7A7",
"$@	c #C1C1C1",
"%@	c #9D9D9D",
"&@	c #E3E3E3",
"*@	c #767676",
"=@	c #535353",
"-@	c #616161",
";@	c #5F5F5F",
">@	c #141414",
",@	c #333333",
"'@	c #484848",
")@	c #E4E4E4",
"!@	c #E6E6E6",
"~@	c #565656",
"{@	c #323232",
"]@	c #020202",
"^@	c #2C2C2C",
"/@	c #0F0F0F",
"(@	c #D5D5D5",
"_@	c #171717",
":@	c #4F4F4F",
"<@	c #E1E1E1",
"[@	c #D8D8D8",
"}@	c #363636",
"|@	c #242424",
"1@	c #3D3D3D",
"2@	c #202020",
"3@	c #595959",
"4@	c #1E1E1E",
"5@	c #080808",
"6@	c #252525",
"7@	c #090909",
"8@	c #444444",
"9@	c #0A0A0A",
"0@	c #D7D7D7",
"a@	c #9E9E9E",
"b@	c #878787",
"c@	c #9F9F9F",
"d@	c #ACACAC",
"e@	c #707070",
"f@	c #858585",
"g@	c #868686",
"h@	c #C5C5C5",
"i@	c #CFCFCF",
"j@	c #B6B6B6",
"k@	c #B9B9B9",
"l@	c #BEBEBE",
"m@	c #A9A9A9",
"n@	c #B1B1B1",
"o@	c #909090",
"p@	c #A0A0A0",
"q@	c #7A7A7A",
"r@	c #A5A5A5",
"s@	c #B0B0B0",
"t@	c #828282",
"u@	c #6E6E6E",
"v@	c #6B6B6B",
"w@	c #717171",
"x@	c #16191D",
"y@	c #2A3138",
"z@	c #404141",
"A@	c #3D3D3E",
"B@	c #3B3B3C",
"C@	c #3C3C3C",
"D@	c #15181B",
"E@	c #292F37",
"F@	c #313841",
"G@	c #181B20",
"H@	c #111316",
"I@	c #121518",
"J@	c #121519",
"K@	c #131619",
"L@	c #2D353D",
"M@	c #1F2429",
"N@	c #1B1F24",
"O@	c #1C2025",
"P@	c #1C2126",
"Q@	c #1B2024",
"R@	c #2E363E",
"S@	c #343C45",
"T@	c #323A43",
"U@	c #333B44",
"V@	c #343C46",
". . . . . . . . . . . . . . . . . . . . . . . . . . . . . . . . . . . . . . . . . . . . . . . . ",
". . . . . . . . . . . . . . . . . . . . . . . . . . . . . . . . . . . . . . . . . . . . . . . . ",
". . . . . . . . . . . . . . . . . . . . . . . . . . . . . . . . . . . . . . . . . . . . . . . . ",
". . . . . . . . . . . . . . . . . . . . . . . . . . . . . . . . . . . . . . . . . . . . . . . . ",
". . . . . . . . . . . . . . . . . . . . . . . . . . . . . . . . . . . . . . . . . . . . . . . . ",
". . . . . . . . . . . . . . . . . . . . . . . . . . . . . . . . . . . . . . . . . . . . . . . . ",
". . . . . . . . . . . . . . . . . . . . . . . . . . . . . . . . . . . . . . . . . . . . . . . . ",
". . . . . . . . . . . . . . . . . . . . . . . . . . . . . . . . . . . . . . . . . . . . . . . . ",
". . . . . . . . . . . . . . . . . . . . . . . . . . . . . . . . . . . . . . . . . . . . . . . . ",
". . . . . . . . . . . . . . . . . . . . . . . . . . . . . . . . . . . . . . . . . . . . . . . . ",
". . . . . . . . . . . . . . . . . . . . . . . . . . . . . . . . . . . . . . . . . . . . . . . . ",
". . . . . . . . . . . . . . . . . . . . . . . . . . . . . . . . . . . . . . . . . . . . . . . . ",
". . . . . . . . . . . . . . . . . . . . . . . . . . . . . . . . . . . . . . . . . . . . . . . . ",
". . + @ # $ $ $ $ $ $ $ $ $ $ $ % & * = = = = = = = = = = = = - = = = = = - = = = ; + . . . . . ",
". . > , ' ) ! ! ! ! ! ! ! ! ! ~ { ] ^ / ( _ _ : < . [ < } _ < | 1 2 3 } < | [ > 4 5 < . . . . . ",
". . 6 7 8 9 0 a a a a a a a a b c d e f g h h i j k l m n j o p l m m o o p l i o q r s t . . . ",
". . u v w x y z z z z z z z A B C D E F G H I J K > L M N O P Q R P N O S . T l U V W X Y . . . ",
". . u Z `  ...+.+.+.+.+.+.+.@.#.$.%.&.*.=.=.-.u ;.>.,.'.u u ).!.,.~.V U . {.].L =.u ^./.(.. . . ",
". . u _.:.<.[.}.|.1.|.2.2.2.3.4.5.6.&.7.8.8.9.V 0.a.b.c.d.V e.f.g.h.H N K i.j.2 k.V d.l.m.. . . ",
". . n.o.p.q.r.s.t.u.v.w.x.y.z.A.B.C.u D.W O W V U E.q =.J V E.u q 9.J V U u F.G.H.d.=.l.m.. . . ",
". . I.J.K.L.M.N.O.P.Q.R.S.T.U.V.W.X.Y.K Z.`.q  +h .+i i ++ +j @+n #+$+%+i n @+q &+k.*+l.m.. . . ",
". . =+-+;+>+,+'+)+!+~+{+]+^+/+!+(+_+:+<+[+}+L |+!+1+2+3+- 4+!+5+6+e.@ i.!+{.c.< q G.F.l.m.. . . ",
". . 7+n 8+9+0+a+b+!+c+u H d+].e+f+u %+g+u ^.h+i+j+k+u u l+m+n+o+O u p+q+r+s+$+<+t+u+.+l.m.. . . ",
". . i S v+w+x+y+{.z+; u ^.A+B+C+D+u ++E+u ^.F+q+,.G+u u H+j.I+J+O u K+{.L+M+N+O+P+ +i l.m.. . . ",
". . S 2+1 9+Q+R+S+!+T+u =.U+V+C+W+u X+=+u w+l+Y+Z+G+u V `+ @.@+@-.u K+ @].@@$+#@Z.o S l.m.. . . ",
". . $@p %@G.&@R+S+!+*@u H =@Y+C+-@u X+++u 9.;@Y+>@M+u W p+{.I+M+=.u K+,@].'@q }+l j $@l.m.. . . ",
". . m #+}+)@!@~@{@]@T+u I F+^@/@l+u (@$+u =.K+B+_@G+u E.+ a.r+:@8.u c+|+i+'@(@l $@q r l.m.. . . ",
". . &@<@$@&+[@}@|@!+L u G.1@2@z+3@u (@++u G.y+4@5@i.u J J+6@7@8@H u ~@6@I+f.%+S =+-.!@l.m.. . . ",
". . =.I %+Q+3+!+Z+!+H+u j !+n+!+A+E. +q E..+5@9@!+|+u F./@9@!+1+k.V n+.@!+!.h  +H V ^.l.m.. . . ",
". . =.H 0@=+H.a@T+b@#@x+w+a@L 3 c@&+@+q ^.H #@T 3 [ &+N d@e@f@v+q u 6+= g@c.K 0@H V ^.l.m.. . . ",
". . &+)@ +0@d.U m W H Q+O d.`.u H H.r q 9.J U P u 9.&+^.u h@J W !@w+u t+=.U %+7+<@w+0+l.m.. . . ",
". . @+i@j q 9+&+%+9+H 9+8.u+m w+=.=.o [@H 8.&@i I k.9+k.)@m x+I 9+9+!@o Q+H N+i n u+0@l.m.. . . ",
". . j@[+k@q G.E+.+Q+x+0+x+$+#+x+x+9+o X+k.x+E+g G.0+0+x+g+j !@9+0+G.&@h E+x+N+l@[+`.P+l.m.. . . ",
". . 5 > m@[@x+N+.+G.H.)@0+$+i 9.Q+G.i F.8.Q+<@#+9.!@!@*+u+j G.x+)@H.<@#+u+9+F.n@o@p@%@l.m.. . . ",
". . q@c+r@h S M P #+S $@t+`.l@j M g l@g S t+S 2+h $@$@t+`.l@g S $@t+S K `.t+j s@T+;.t@l.m.. . . ",
". . u@R + e@v@R u@K+v@v@v@T e@K+v@K+e@T v@v@v@w@K+v@v@v@T e@K+v@v@v@v@e@T K+L + v@- w@x@y@. . . ",
". . z@z@A@f.B@1+1+1+1+1+1+1+f.1+1+1+f.1+1+1+1+f.1+1+1+1+1+f.1+1+1+1+1+f.1+1+f.C@s+k+i.D@E@. . . ",
". . . F@G@H@I@J@J@J@J@J@J@J@J@J@J@J@J@J@J@J@J@J@J@J@J@J@J@J@J@J@J@J@J@J@J@J@J@J@J@I@H@K@(.. . . ",
". . . L@M@N@O@P@P@P@P@P@P@P@P@P@P@P@P@P@P@P@P@P@P@P@P@P@P@P@P@P@P@P@P@P@P@P@P@P@P@P@Q@M@R@. . . ",
". . . . S@T@U@U@U@U@U@U@U@U@U@U@U@U@U@U@U@U@U@U@U@U@U@U@U@U@U@U@U@U@U@U@U@U@U@U@U@U@T@V@. . . . ",
". . . . . . . . . . . . . . . . . . . . . . . . . . . . . . . . . . . . . . . . . . . . . . . . ",
". . . . . . . . . . . . . . . . . . . . . . . . . . . . . . . . . . . . . . . . . . . . . . . . ",
". . . . . . . . . . . . . . . . . . . . . . . . . . . . . . . . . . . . . . . . . . . . . . . . ",
". . . . . . . . . . . . . . . . . . . . . . . . . . . . . . . . . . . . . . . . . . . . . . . . ",
". . . . . . . . . . . . . . . . . . . . . . . . . . . . . . . . . . . . . . . . . . . . . . . . ",
". . . . . . . . . . . . . . . . . . . . . . . . . . . . . . . . . . . . . . . . . . . . . . . . ",
". . . . . . . . . . . . . . . . . . . . . . . . . . . . . . . . . . . . . . . . . . . . . . . . ",
". . . . . . . . . . . . . . . . . . . . . . . . . . . . . . . . . . . . . . . . . . . . . . . . "};
