/* XPM */
static char * audacity_xpm[] = {
"48 48 474 2",
"  	c None",
". 	c #0000B7",
"+ 	c #0000C1",
"@ 	c #0000C3",
"# 	c #0000C4",
"$ 	c #0000C2",
"% 	c #0000C0",
"& 	c #0000A8",
"* 	c #0000C6",
"= 	c #0000C7",
"- 	c #0000C8",
"; 	c #0000C9",
"> 	c #0000CA",
", 	c #0000CB",
"' 	c #0000AA",
") 	c #0000CC",
"! 	c #0000D2",
"~ 	c #0000DA",
"{ 	c #0000E2",
"] 	c #0000E9",
"^ 	c #0000ED",
"/ 	c #0000EF",
"( 	c #0000B6",
"_ 	c #0000D1",
": 	c #0000DF",
"< 	c #0000F9",
"[ 	c #0000FD",
"} 	c #0000FF",
"| 	c #0000B9",
"1 	c #0000D0",
"2 	c #0000E3",
"3 	c #0000F6",
"4 	c #0000FE",
"5 	c #0000FC",
"6 	c #0000FB",
"7 	c #0000F7",
"8 	c #0000BD",
"9 	c #0000F4",
"0 	c #0000FA",
"a 	c #0000E5",
"b 	c #0000BB",
"c 	c #0000CD",
"d 	c #00009B",
"e 	c #0000C5",
"f 	c #0000E0",
"g 	c #0000D6",
"h 	c #0000EC",
"i 	c #0000AE",
"j 	c #0000D7",
"k 	c #0000F2",
"l 	c #D9D800",
"m 	c #0000AD",
"n 	c #0000E1",
"o 	c #0000DE",
"p 	c #EDDB0B",
"q 	c #E9DA0A",
"r 	c #EBDC0B",
"s 	c #C3C300",
"t 	c #B6B600",
"u 	c #0000CE",
"v 	c #0000DC",
"w 	c #EFE10E",
"x 	c #EEE20F",
"y 	c #EEE110",
"z 	c #EDE612",
"A 	c #F3C00C",
"B 	c #F3BE0B",
"C 	c #EAFF16",
"D 	c #E1D804",
"E 	c #DAD501",
"F 	c #000093",
"G 	c #F1E211",
"H 	c #EEDF12",
"I 	c #F0D611",
"J 	c #F0E013",
"K 	c #F2E414",
"L 	c #EFE915",
"M 	c #F7AE0A",
"N 	c #F6B60C",
"O 	c #EFEC15",
"P 	c #EFE110",
"Q 	c #EDDE0F",
"R 	c #ECDB0D",
"S 	c #EEDC0C",
"T 	c #000094",
"U 	c #0000D4",
"V 	c #0000DB",
"W 	c #F0E214",
"X 	c #F1DD13",
"Y 	c #F8B00B",
"Z 	c #F2DA13",
"` 	c #F1E415",
" .	c #F0E816",
"..	c #F9A70A",
"+.	c #F7B70D",
"@.	c #F1E315",
"#.	c #EFEA14",
"$.	c #F4C10D",
"%.	c #F4B90B",
"&.	c #EBF213",
"*.	c #0000D3",
"=.	c #0000D9",
"-.	c #F1E414",
";.	c #F2DC14",
">.	c #FA9F08",
",.	c #F3D713",
"'.	c #F2E416",
").	c #F1E716",
"!.	c #FAA209",
"~.	c #F7BB0E",
"{.	c #F2E415",
"].	c #F0EA16",
"^.	c #F8AE0B",
"/.	c #F8A709",
"(.	c #ECFC17",
"_.	c #0000B8",
":.	c #F1E314",
"<.	c #F2E014",
"[.	c #F1E215",
"}.	c #F3DB14",
"|.	c #FB9607",
"1.	c #F4D112",
"2.	c #F2E516",
"3.	c #FB9D08",
"4.	c #F6BF0F",
"5.	c #F2E716",
"6.	c #F2DF15",
"7.	c #F2E316",
"8.	c #F1E917",
"9.	c #F9A60A",
"0.	c #EEF618",
"a.	c #F2E314",
"b.	c #F1E515",
"c.	c #F3DA14",
"d.	c #FC8F05",
"e.	c #F5CA11",
"f.	c #F2E617",
"g.	c #F3E216",
"h.	c #FB9707",
"i.	c #F6C20F",
"j.	c #F2E616",
"k.	c #F6C10F",
"l.	c #F3DD15",
"m.	c #F1E817",
"n.	c #FAA109",
"o.	c #F0EE17",
"p.	c #F4E514",
"q.	c #0000EB",
"r.	c #F5E612",
"s.	c #F1E616",
"t.	c #F6C510",
"u.	c #F4D212",
"v.	c #F4D814",
"w.	c #FD8904",
"x.	c #F2E717",
"y.	c #FC9106",
"z.	c #F3E316",
"A.	c #FAA70A",
"B.	c #F4D613",
"C.	c #FB9C08",
"D.	c #F3E413",
"E.	c #0000E6",
"F.	c #F7BE0F",
"G.	c #F5CC11",
"H.	c #F4D513",
"I.	c #FE8403",
"J.	c #F8B80E",
"K.	c #F4D714",
"L.	c #FD8A04",
"M.	c #F6C711",
"N.	c #F3DE15",
"O.	c #FC9507",
"P.	c #F5CF12",
"Q.	c #FB9807",
"R.	c #F2DD14",
"S.	c #F2E315",
"T.	c #FFF407",
"U.	c #FFF705",
"V.	c #F2E215",
"W.	c #F7BC0E",
"X.	c #F2E115",
"Y.	c #F7BA0E",
"Z.	c #F6C610",
"`.	c #F5D112",
" +	c #FE8002",
".+	c #F9AD0B",
"++	c #F2E817",
"@+	c #F5D012",
"#+	c #F6C811",
"$+	c #FD8704",
"%+	c #FC9506",
"&+	c #F3D814",
"*+	c #F7B90D",
"=+	c #F1E516",
"-+	c #F5E713",
";+	c #0707C7",
">+	c #0000EA",
",+	c #F6E812",
"'+	c #F9AB0B",
")+	c #F8B60D",
"!+	c #F7C00F",
"~+	c #F5CC12",
"{+	c #FF7D02",
"]+	c #FE7F02",
"^+	c #F5C911",
"/+	c #F3E015",
"(+	c #FD8B05",
"_+	c #FC9006",
":+	c #FAA309",
"<+	c #F4DF13",
"[+	c #1E1DB5",
"}+	c #100FC0",
"|+	c #F4E614",
"1+	c #F4D914",
"2+	c #F8B30D",
"3+	c #F6C210",
"4+	c #FF7601",
"5+	c #FC9707",
"6+	c #FF7C02",
"7+	c #F6C611",
"8+	c #F8BB0E",
"9+	c #FF7801",
"0+	c #F9B00C",
"a+	c #F4DA14",
"b+	c #FE8603",
"c+	c #FD8C05",
"d+	c #F8B10C",
"e+	c #FB9907",
"f+	c #F3D914",
"g+	c #F7C30E",
"h+	c #2625AF",
"i+	c #0000E8",
"j+	c #2826AE",
"k+	c #F3E715",
"l+	c #FC9607",
"m+	c #F8B00C",
"n+	c #F8B40C",
"o+	c #F79D0F",
"p+	c #FF5A01",
"q+	c #FD8E05",
"r+	c #F4DF15",
"s+	c #F9B20C",
"t+	c #FF7201",
"u+	c #F7B510",
"v+	c #F9A30B",
"w+	c #FF7400",
"x+	c #FA9309",
"y+	c #F5C913",
"z+	c #FE7C02",
"A+	c #F5CB11",
"B+	c #F9B20B",
"C+	c #2C2BAB",
"D+	c #0000D8",
"E+	c #2E2CAA",
"F+	c #F4DB13",
"G+	c #FD8005",
"H+	c #F5C512",
"I+	c #F9AF0C",
"J+	c #F9AE0B",
"K+	c #F8830D",
"L+	c #FF4301",
"M+	c #FE6E03",
"N+	c #F5CE13",
"O+	c #FAA50A",
"P+	c #FF5F01",
"Q+	c #F7990F",
"R+	c #FB6C08",
"S+	c #FF6000",
"T+	c #FC5307",
"U+	c #F7960E",
"V+	c #FF6201",
"W+	c #FE6803",
"X+	c #F6B811",
"Y+	c #FD8905",
"Z+	c #FC9306",
"`+	c #F7B70E",
" @	c #3130A8",
".@	c #3530A4",
"+@	c #F8BA0D",
"@@	c #FAA80A",
"#@	c #FD5604",
"$@	c #F5AD11",
"%@	c #F9A30A",
"&@	c #FA8A09",
"*@	c #F96F0C",
"=@	c #FF2F01",
"-@	c #FF3502",
";@	c #F6A711",
">@	c #FB7808",
",@	c #FF4201",
"'@	c #F97B0D",
")@	c #FD3505",
"!@	c #FF2901",
"~@	c #FD2804",
"{@	c #FB5508",
"]@	c #FF3C01",
"^@	c #FE2C02",
"/@	c #F9770C",
"(@	c #FE5D02",
"_@	c #FE5A03",
":@	c #FB5C08",
"<@	c #FB6908",
"[@	c #3636A4",
"}@	c #4D1E90",
"|@	c #FA9E0A",
"1@	c #FE7902",
"2@	c #FE2B02",
"3@	c #F78E0E",
"4@	c #FC4306",
"5@	c #FE2604",
"6@	c #FC3E07",
"7@	c #FF1501",
"8@	c #FF1301",
"9@	c #F8840E",
"0@	c #FC3F06",
"a@	c #FF1A01",
"b@	c #FB4808",
"c@	c #FE0B02",
"d@	c #FF0201",
"e@	c #FE0C02",
"f@	c #FE1703",
"g@	c #FF0B01",
"h@	c #FF0601",
"i@	c #FD2304",
"j@	c #FF0A01",
"k@	c #FF0B02",
"l@	c #FC3E06",
"m@	c #4C2391",
"n@	c #0000CF",
"o@	c #5D0A83",
"p@	c #FB5B08",
"q@	c #FF0E01",
"r@	c #FB4908",
"s@	c #FE0A02",
"t@	c #FF0101",
"u@	c #FF0401",
"v@	c #FA5C09",
"w@	c #FD2004",
"x@	c #FE0F02",
"y@	c #FF0001",
"z@	c #FF1602",
"A@	c #5F0780",
"B@	c #0000F3",
"C@	c #62027E",
"D@	c #FD2F05",
"E@	c #FF0501",
"F@	c #FF0902",
"G@	c #FF0701",
"H@	c #FD2C05",
"I@	c #63007D",
"J@	c #FF0D01",
"K@	c #FF0301",
"L@	c #FD1D04",
"M@	c #FE3F02",
"N@	c #FF2401",
"O@	c #F96B0B",
"P@	c #FE1A03",
"Q@	c #FF0C01",
"R@	c #FE0D02",
"S@	c #FF1401",
"T@	c #FF0801",
"U@	c #FD2404",
"V@	c #FD3104",
"W@	c #FE1C02",
"X@	c #FF0A02",
"Y@	c #63027D",
"Z@	c #FF0000",
"`@	c #FC3806",
" #	c #FE2B03",
".#	c #F9660A",
"+#	c #FB9407",
"@#	c #FF6202",
"##	c #F7AB10",
"$#	c #FC7706",
"%#	c #FF3601",
"&#	c #FB4807",
"*#	c #FC3906",
"=#	c #FE3A02",
"-#	c #F96E0B",
";#	c #FE2302",
">#	c #FE4802",
",#	c #F8970D",
"'#	c #FE7503",
")#	c #FD5F04",
"!#	c #FC5007",
"~#	c #FE3B04",
"{#	c #572387",
"]#	c #0000F0",
"^#	c #551789",
"/#	c #FF4501",
"(#	c #FE2F02",
"_#	c #FB5D08",
":#	c #FB8D08",
"<#	c #F9890B",
"[#	c #FE8203",
"}#	c #F5D513",
"|#	c #FAA90A",
"1#	c #F88F0E",
"2#	c #FD3204",
"3#	c #FF5101",
"4#	c #F9880B",
"5#	c #FD8204",
"6#	c #FD7F04",
"7#	c #F6B511",
"8#	c #FE5B03",
"9#	c #FC8D06",
"0#	c #F5CE12",
"a#	c #FE8303",
"b#	c #3731A3",
"c#	c #0000E7",
"d#	c #3730A2",
"e#	c #FE8D04",
"f#	c #FC8406",
"g#	c #FA9609",
"h#	c #F8B30C",
"i#	c #F9AC0B",
"j#	c #F7BD0E",
"k#	c #F6B111",
"l#	c #FD5A05",
"m#	c #FC8E06",
"n#	c #F9A80A",
"o#	c #F8BD0D",
"p#	c #2B2BAC",
"q#	c #FC9D07",
"r#	c #F9A90A",
"s#	c #F6C310",
"t#	c #FD8804",
"u#	c #F5C611",
"v#	c #FC8706",
"w#	c #F9AA0B",
"x#	c #FB9B08",
"y#	c #F4E114",
"z#	c #2725AE",
"A#	c #2524B0",
"B#	c #F8BA0C",
"C#	c #F8B70D",
"D#	c #F5D213",
"E#	c #FB9E08",
"F#	c #F2E917",
"G#	c #FC9005",
"H#	c #F3E614",
"I#	c #1C1AB7",
"J#	c #1D1BB6",
"K#	c #F4DD12",
"L#	c #F6C00F",
"M#	c #FB9A08",
"N#	c #F5CD12",
"O#	c #FAA409",
"P#	c #F7E911",
"Q#	c #0202CA",
"R#	c #0505C8",
"S#	c #F5E812",
"T#	c #F2E216",
"U#	c #F3DC14",
"V#	c #F4D313",
"W#	c #F7BD0F",
"X#	c #F8AF0B",
"Y#	c #FFFF00",
"Z#	c #F1E416",
"`#	c #F8AF0C",
" $	c #F3DF15",
".$	c #F6C410",
"+$	c #F4CE11",
"@$	c #F2E413",
"#$	c #F1E115",
"$$	c #F0E314",
"%$	c #F2E412",
"&$	c #F0E414",
"*$	c #F1E212",
"=$	c #F1E111",
"-$	c #F1E313",
";$	c #F0E313",
">$	c #F0E011",
",$	c #F1E011",
"                                                                                                ",
"                                      . + @ # $ $ # @ % .                                       ",
"                              & + * = - ; > , , , , > ; - = * + '                               ",
"                          . # - ; ) ! ~ { ] ^ / / ^ ] { ~ ! ) ; - # (                           ",
"                        @ - > _ : / < [ } } } } } } } } [ < / : _ > - @                         ",
"                    | * > 1 2 3 4 } 4 [ 5 6 < 7 7 < 6 5 [ 4 } 4 3 2 1 > * |                     ",
"                  8 = , ~ 9 4 4 [ 0 ]                     a 0 5 4 4 9 ~ , = 8                   ",
"                b - c { 6 } 5 7                                 7 5 } 6 { c - b                 ",
"              d = ) a [ 4 0                                         0 4 [ a ) = d               ",
"              e , f [ 5 9                                             9 5 [ f , *               ",
"            8 ; g < [ 9                                                 9 [ < g ; 8             ",
"            * c h 4 3                                                     3 4 h c *             ",
"          i - j 3 k                           l                             k 3 j - m           ",
"          $ > n h o                         p q r         s t               o h n > $           ",
"          e u 2 v ;                 w x y   z A B C       D E               ; v 2 u e           ",
"          e _ : _ F               G H I J K L M N O     P Q R S             T _ : _ e           ",
"          ; U V u                 W X Y Z `  ...+. .@.  #.$.%.&.              u V U ;           ",
"          > *.=.u ) ) )         -.@.;.>.,.'.).!.~.).'.{.].^./.(.        ) ) ) u =.*.>           ",
"      _.= > U ~ c ) ) )       :.<.[.}.|.1.2.2.3.4.5.6.7.8.9.!.0.        ) ) ) c ~ U > = .       ",
"    . = , _ n V c ) ) )     a.b.1.c.c.d.e.f.g.h.i.j.k.l.m.n.>.o.p.      ) ) ) c V n _ , = .     ",
"    = , U a q.V c ) ) )   r.` s.t.u.v.w.i.x.l.y.t.z.A.B.x.C.C.8.{.` D.  ) ) ) c V q.a U , =     ",
"  @ > ! E.q.q.V c ) ) )   @.,.2.F.G.H.I.J.x.K.L.M.N.O.P.f.h.Q.j.7.R.S.T.) ) ) c V q.q.E.! > @   ",
"  - u n q.q.q.V c ) ) c U.V.W.X.Y.Z.`. +.+++@+I.#+H.$+Z.z.y.%+2.&+*+=+-+;+) ) c V q.q.q.n u -   ",
"$ > j >+q.q.q.V c ) ) c ,+X.'+l.)+!+~+{+!.x.M.]+#+^+{+~./+(+_+z.Z.:+'.<+[+c ) c V q.q.q.>+j > $ ",
"* c n q.q.q.q.V c ) ) }+|+N.>.1+2+Y.3+4+5+z.W.6+7+8+9+0+a+b+c+/+d+e+f+g+h+c ) c V q.q.q.q.n c * ",
"- ! i+q.q.q.q.V c ) c j+k+c.l+B.m+n+o+p+q+r+s+t+u+v+w+x+y+z+$+v.3.%+A+B+C+c ) c V q.q.q.q.i+! - ",
"; D+>+q.q.q.q.V c ) c E+F+`.G+H+I+J+K+L+M+N+O+P+Q+R+S+T+U+V+W+X+Y+Z+`+:+ @c ) c V q.q.q.q.>+D+; ",
") : q.q.q.q.q.V c ) c .@+@@@#@$@%@&@*@=@-@;@>@,@'@)@!@~@{@]@^@/@(@_@:@<@[@u ) c V q.q.q.q.q.: ) ",
"U E.q.q.q.q.q.V c ) u }@|@1@2@3@4@5@6@7@8@9@0@a@b@c@d@e@f@g@h@i@7@j@k@l@m@u ) c V q.q.q.q.q.E.U ",
"/ ^ q.q.q.q.q.V c ) n@o@p@!@q@r@s@t@h@u@t@v@w@t@x@d@t@t@t@t@t@t@y@t@y@z@A@n@) c V q.q.q.q.q.^ k ",
"6 B@q.q.q.q.q.V c ) 1 C@D@E@t@F@t@G@u@~@u@H@x@y@t@t@y@t@t@t@t@t@t@t@t@t@I@1 ) c V q.q.q.q.q.B@[ ",
"4 3 q.q.q.q.q.V c ) 1 I@J@K@c@K@L@M@N@O@P@Q@R@h@y@F@S@T@U@h@Q@V@W@G@X@K@Y@1 ) c V q.q.q.q.q.3 4 ",
"0 3 ^ q.q.q.q.V c ) 1 I@Z@y@`@ #.#+#@###$#%#&#P@g@*#_@=#-#;#>#,#'#)#!#~#{#n@) c V q.q.q.q.^ 3 0 ",
"/ 9 ]#q.q.q.q.V c ) n@^#/#(#_#:#<#.+[#}#|#p+1#2#3#4#5#6#7#8#9#0#a#e+2+3.b#c ) c V q.q.q.q.]#9 / ",
"c#k 3 q.q.q.q.V c ) u d#e#f#g#h#i#Y.(+N.j#'#k#l#z+M._+Q.l.m#e+B.I.n#H.o#C+c ) c V q.q.q.q.3 k c#",
"g k 5 ]#q.q.q.V c ) c p#q#:+r#s#0+M.Q.g.P.t#u#v#L.1+l+w#x.n.x#v.t#Y.j.y#z#c ) c V q.q.q.]#5 k j ",
"  9 4 < ^ q.q.V c ) c A#B#C#d+`.C#D#@@z.l.h.0#l+e+z.E#W.F#d+E#1+G#A+j.H#I#c ) c V q.q.^ < 4 9   ",
"  i+6 } 7 ^ q.V c ) c J#K#,.L#}.t.}.F.'.'.w#P.M#'+x.i#N#++k.O#f+x#f+` P#Q#) ) c V q.^ 7 } 6 i+  ",
"    3 4 } < / V c ) ) R#S#` f+T#U#T#c.'.f.k.V#!.W#x.i.c.j.P.X#f+.+V.`   ) ) ) c V / < } 4 3     ",
"      5 4 } [ >+*., ) ) Y#:.` Z#'.'.'.'.2.c.N.`#0#2. $7.'.U#.$6.+$@.@$  ) ) , *.>+[ } 4 5       ",
"        < 5 4 [ B@, ) )   @$:.@.@.@.@.'.'.'.'.A+R.'.'.'.{.@.#$@.$$W %$  ) ) , B@[ 4 5 <         ",
"            < 5 6 ) ) )       $$$$@.@.{.S.@.@.@.@.@.@.@.  -.&$W *$=$    ) ) ) 6 5 <             ",
"                                          -$$$$$$$a.$$;$                                        ",
"                                            >$,$                                                ",
"                                                                                                ",
"                                                                                                ",
"                                                                                                ",
"                                                                                                "};
