/* XPM */
static const char * const audacity[] = {
/* columns rows colors chars-per-pixel */
"48 48 201 2 ",
"   c None",
".  c #5C121A",
"X  c #57131A",
"o  c #5F0A12",
"O  c #670406",
"+  c #7B090A",
"@  c #760506",
"#  c #7B0D17",
"$  c #66151C",
"%  c #731519",
"&  c #630E16",
"*  c #6B1421",
"=  c #672824",
"-  c #097A0F",
";  c #177919",
":  c #097D10",
">  c #2F4C24",
",  c #246425",
"<  c #3C733B",
"1  c #377237",
"2  c #3F6436",
"3  c #495436",
"4  c #75453D",
"5  c #740B4D",
"6  c #580779",
"7  c #780566",
"8  c #66077B",
"9  c #467A49",
"0  c #457745",
"q  c #596850",
"w  c #6C755D",
"e  c #6A624E",
"r  c #707760",
"t  c #830709",
"y  c #940406",
"u  c #9C0405",
"i  c #9C0509",
"p  c #95090C",
"a  c #99080C",
"s  c #850D16",
"d  c #8A0C15",
"f  c #890718",
"g  c #970A11",
"h  c #9B0911",
"j  c #9D1215",
"k  c #A40406",
"l  c #AA0306",
"z  c #A4050B",
"x  c #AD060B",
"c  c #A5090B",
"v  c #B30405",
"b  c #BB0406",
"n  c #B3050A",
"m  c #BC050A",
"M  c #B40809",
"N  c #BB180B",
"B  c #AE0510",
"V  c #BA0712",
"C  c #B71C1A",
"Z  c #A51B10",
"A  c #AE2A0F",
"S  c #99072E",
"D  c #BB0427",
"F  c #A6052A",
"G  c #9B3634",
"H  c #8C3D37",
"J  c #A92726",
"K  c #B52D29",
"L  c #B12D31",
"P  c #A83734",
"I  c #C40306",
"U  c #CC0305",
"Y  c #C5040A",
"T  c #CB0209",
"R  c #C30E06",
"E  c #D50103",
"W  c #D90000",
"Q  c #CE1203",
"!  c #CA1D05",
"~  c #C60614",
"^  c #D11104",
"/  c #FF0301",
"(  c #FF0B01",
")  c #FF1201",
"_  c #FF1B01",
"`  c #C62B07",
"'  c #FF2402",
"]  c #FF2D02",
"[  c #FE3602",
"{  c #FE3C02",
"}  c #ED0837",
"|  c #E71B3F",
" . c #EE2E36",
".. c #BE4A09",
"X. c #B4620A",
"o. c #BE7B09",
"O. c #8A4138",
"+. c #FF4402",
"@. c #FE4B03",
"#. c #FD5504",
"$. c #FD5C04",
"%. c #C26508",
"&. c #D57D09",
"*. c #FE6404",
"=. c #FD6B05",
"-. c #FD7504",
";. c #FE7D04",
":. c #FB7809",
">. c #EC513C",
",. c #880449",
"<. c #98035F",
"1. c #86046D",
"2. c #E93642",
"3. c #85574C",
"4. c #896859",
"5. c #86766A",
"6. c #957C71",
"7. c #82776E",
"8. c #E44041",
"9. c #DE7F47",
"0. c #E7744C",
"q. c #038404",
"w. c #008801",
"e. c #058209",
"r. c #518153",
"t. c #638261",
"y. c #BE850C",
"u. c #C28F0B",
"i. c #FD8405",
"p. c #FD8B05",
"a. c #FA860A",
"s. c #FC9406",
"d. c #FB9907",
"f. c #FA960B",
"g. c #FB9D09",
"h. c #DAB110",
"j. c #C9A80F",
"k. c #FAA409",
"l. c #F9AC0B",
"z. c #F5A90E",
"x. c #EEB60E",
"c. c #F9B40D",
"v. c #F7BD0E",
"b. c #F9BC0F",
"n. c #F7B70E",
"m. c #F7BB10",
"M. c #D7C312",
"N. c #F7C10F",
"B. c #F8C10F",
"V. c #F6C310",
"C. c #F5CC12",
"Z. c #F8C210",
"A. c #ECD814",
"S. c #F5D413",
"D. c #F4DC15",
"F. c #F3E316",
"G. c #878478",
"H. c #95867B",
"J. c #E98542",
"K. c #E4954F",
"L. c #D8AB54",
"P. c #E4A74E",
"I. c #D0BF63",
"U. c #D5A562",
"Y. c #D9C558",
"T. c #00009A",
"R. c #000093",
"E. c #0000A4",
"W. c #0000AE",
"Q. c #0000B4",
"!. c #0000B9",
"~. c #1302BF",
"^. c #1716BE",
"/. c #1600A9",
"(. c #2F02A2",
"). c #2F01BA",
"_. c #3627AB",
"`. c #2523B5",
"'. c #2C25B1",
"]. c #2120B8",
"[. c #460587",
"{. c #530586",
"}. c #4A0998",
"|. c #50099C",
" X c #540A96",
".X c #4F1999",
"XX c #431CA4",
"oX c #4224A3",
"OX c #0000C3",
"+X c #0000CC",
"@X c #0901C7",
"#X c #1E02C3",
"$X c #1111C1",
"%X c #0000D4",
"&X c #0000DB",
"*X c #0000E4",
"=X c #0000EB",
"-X c #0000F3",
";X c #0000FE",
":X c #8A8B81",
">X c #8E9083",
/* pixels */
"                                                                                                ",
"                                                                                                ",
"                                                                                                ",
"                                        . . . & o .                                             ",
"                                % d h x v v b v n x c g s # *                                   ",
"                            % g M I E W W W U N C K J J J Z j s X                               ",
"                        X s n b v U W W W U P 4.6.H.G.5.G.5.3.O.%                               ",
"                      + c Y W U u v W W W K 6.w 9 < 1 1 0 r.t.r 4 .                             ",
"                    p b E W W W v k U W E P r , : q.q.q.q.e.; < e =                             ",
"                $ h U W W W W W U k I W E J r , e.w.w.w.w.w.q.; 3 = o                           ",
"              $ c U W W W W W W W l v E W C 3.2 : q.q.q.q.q.q.- > = #                           ",
"              g U W W W W W W W W l l E W Y H w 0 0 9 9 9 r.9 < q 4 t                           ",
"            * m W W W W W W W W W v l E W U J 5.G.G.:X7.:X>X:XG.6.G a                           ",
"            # T W W W W W W W W W b l U E E Y J G G J J J P P P L ~ n O                         ",
"            d U W W W W W W W W W I v U E E U I b v n n n l l n n b x O                         ",
"            d U W W W W W W W W E U b b v l u y y y y u i z k k k k i t @                       ",
"            s U W W W W W W U I v u y y u k x n b Y T U U T U E E E E U I m F ,.7               ",
"            # Y W W W W U b k y u l b I U E W E W W W W W E E E W W E U U U U ~ D x             ",
"            5 b W W E I l t + x I E W W W W W W W W W W E E E I v M k i u u u k v b n i         ",
"            6 V E U n           b U E W W W W W W E E U R N Z i       p m b v k u y z x a       ",
"            6 B D S               X...` ! Q ^ Q Q ! N A X.o.          f V Y ~ ~ Y b c i h t     ",
"            {.S 7 [.@X+X            h.&.y.o.%.%.o.u.j.M.x.c.          }.8 ,.1.1.<.F x z p +     ",
"        E.@X[.8 (.  +X+X            S.d.A.A.x.z.A.C.S.F.c.l.          +X@X  /.#X).).{.          ",
"        +X+X~.#XQ.  +X+X        N.D.S.s.S.F.Z.l.D.v.C.F.l.k.          +X+X  Q.%X+X+X+X          ",
"      OX+X+X%X%X!.  +X+X        v.S.S.p.V.F.v.k.D.c.N.F.l.g.D.        +X+X  Q.%X%X+X+XOX        ",
"    T.+X+X%X&X&X!.  +X+X    v.F.v.C.C.i.v.F.c.k.S.l.c.D.k.s.D.F.c.    +X+X  Q.&X&X%X+X+XE.      ",
"    OX+X%X*X*X&X!.  +X+X    l.F.v.N.N.i.c.D.l.k.C.g.k.D.g.p.D.C.g.    ^.+X  Q.&X*X*X%X+XOX      ",
"    +X+X&X*X*X&X!.  +X^.    d.F.c.n.l.-.l.S.k.k.v.s.d.C.s.i.D.l.g.D.P.`.+X  Q.&X*X*X&X%X+X      ",
"  R.+X%X*X=X*X&X!.  +X`.I.F.p.D.c.l.;.$.k.S.d.p.f.;.-.z.i.-.S.s.s.S.K.'.+X  Q.&X*X=X*X%X+XT.    ",
"  W.%X&X*X=X*X&X!.  +X_.L.S.=.Z.l.f.*.+.i.m.;.-.=.#.+.=.*.@.l.-.;.g.J.'.+X  Q.&X*X=X*X&X%XQ.    ",
"  OX&X*X=X=X*X&X!.  +XXXL.k.@.z.i.$.@.' $.a.+.#.@._ _ [ [ _ $.+.[ +.>.oX+X  Q.&X*X=X=X*X&XOX    ",
"  +X=X=X=X=X*X&X!.  +X|.9.*.' :._ ( ' ) { $.) ' _ / / ( ( / ( ( / (  ..X+X  Q.&X*X=X=X=X=X*X    ",
"  OX;X-X=X=X*X&X!.  +X|.8.' ( ] / / ( ) ' [ / / / / / / / / / / / / }  X+X  Q.&X*X=X=X-X-X;X    ",
"  !.;X-X=X=X*X&X!.  +X|.| ( ( / ) ] ' @.( ) ( / / ( ( ( ( ( _ ( / ( }  X+X  Q.&X*X=X=X;X;X;X    ",
"  E.;X;X-X=X*X&X!.  +X|.} / ' ) @.;.*.f.@.[ ] ( ' [ ] #.] [ a.*.+.{  ..X+X  Q.&X*X=X-X;X;X=X    ",
"    ;X;X;X=X*X&X!.  +XXX2.] { i.=.g.p.C.p.=.-.{ *.=.*.c.=.-.C.;.p.k.J._.+X  Q.&X*X=X;X;X;X      ",
"    ;X;X;X-X*X&X!.  +X'.0.;.i.l.k.c.s.D.l.p.f.$.k.k.p.C.g.s.D.;.l.S.P.'.+X  Q.&X*X-X;X;X;X      ",
"    -X;X;X;X=X&X!.  +X`.K.l.g.C.l.V.g.F.B.g.c.;.b.c.k.S.l.g.D.i.N.F.Y.`.+X  Q.&X=X;X;X;X*X      ",
"      ;X;X;X-X&X!.  +X].U.v.l.F.l.D.k.F.C.l.Z.s.Z.b.c.D.v.k.D.i.D.    ^.+X  Q.&X-X;X;X;X        ",
"      %X;X;X;X-XOX  +X$X    Z.F.N.F.v.F.S.c.V.k.C.v.C.F.S.k.D.d.      +X+X  !.=X;X;X;X%X        ",
"        -X;X;X;X&X  +X+X        D.F.D.F.D.C.V.c.D.C.S.F.F.c.D.c.      +X+X  %X;X;X;X;X          ",
"          -X;X;X&X  +X+X              F.F.D.C.V.F.F.F.    C.          +X+X  &X;X;X-X            ",
"              ;X*X  +X                                                  +X  *X;X                ",
"                                                                                                ",
"                                                                                                ",
"                                                                                                ",
"                                                                                                ",
"                                                                                                "
};
