/* XPM */
static const char * const AudacityLogo48x48_xpm[] = {
"48 48 389 2",
"  	c None",
". 	c #000092",
"+ 	c #0000BD",
"@ 	c #0000CC",
"# 	c #0000BC",
"$ 	c #0000B4",
"% 	c #0000DB",
"& 	c #0000EF",
"* 	c #0000FF",
"= 	c #0000B9",
"- 	c #00006D",
"; 	c #000073",
"> 	c #0000C7",
", 	c #0000CE",
"' 	c #0000FA",
") 	c #0000F7",
"! 	c #000071",
"~ 	c #0000B2",
"{ 	c #0000D3",
"] 	c #0000DC",
"^ 	c #0000DE",
"/ 	c #0000D5",
"( 	c #0000CB",
"_ 	c #00006F",
": 	c #0000D2",
"< 	c #0000D6",
"[ 	c #0000F2",
"} 	c #0000F0",
"| 	c #0000D7",
"1 	c #0000C8",
"2 	c #0000D1",
"3 	c #0000D9",
"4 	c #0000A1",
"5 	c #0000EB",
"6 	c #00009F",
"7 	c #0000E7",
"8 	c #0000E9",
"9 	c #00008D",
"0 	c #0000D0",
"a 	c #000096",
"b 	c #00009B",
"c 	c #00008B",
"d 	c #0000C5",
"e 	c #0000F9",
"f 	c #0000FB",
"g 	c #0000E1",
"h 	c #0000C4",
"i 	c #0000CF",
"j 	c #0000A9",
"k 	c #00009D",
"l 	c #0000EA",
"m 	c #0000DF",
"n 	c #F8A90A",
"o 	c #000088",
"p 	c #0000CD",
"q 	c #0000D4",
"r 	c #000085",
"s 	c #FAA008",
"t 	c #FBA208",
"u 	c #F3D212",
"v 	c #000084",
"w 	c #0000BA",
"x 	c #FD9106",
"y 	c #F2E517",
"z 	c #F2E416",
"A 	c #F3E517",
"B 	c #FB9A09",
"C 	c #F4D213",
"D 	c #F4E215",
"E 	c #F8B00B",
"F 	c #F9B20C",
"G 	c #000082",
"H 	c #FE8703",
"I 	c #F2DD14",
"J 	c #F3E516",
"K 	c #F3E417",
"L 	c #FC9106",
"M 	c #F5D012",
"N 	c #F7BD0E",
"O 	c #F3E316",
"P 	c #F2E516",
"Q 	c #FBA80A",
"R 	c #F9A90B",
"S 	c #F7C00F",
"T 	c #F3DF15",
"U 	c #F2E317",
"V 	c #FE8002",
"W 	c #F4CA11",
"X 	c #F3E416",
"Y 	c #F2E417",
"Z 	c #FD8704",
"` 	c #FA9E09",
" .	c #FBA009",
"..	c #FAA408",
"+.	c #0000BB",
"@.	c #0000D8",
"#.	c #F6BD0E",
"$.	c #F5D413",
"%.	c #F2E216",
"&.	c #FF7B01",
"*.	c #F7BB0E",
"=.	c #F3E317",
"-.	c #FF7D02",
";.	c #F6CE12",
">.	c #FE8504",
",.	c #F2DE15",
"'.	c #FC9708",
").	c #FA9D09",
"!.	c #F2E316",
"~.	c #00006C",
"{.	c #F7BA0E",
"].	c #F6CA11",
"^.	c #F3DB15",
"/.	c #FF7901",
"(.	c #F8AD0B",
"_.	c #F4D914",
":.	c #F5CD12",
"<.	c #F4E016",
"[.	c #FF7A01",
"}.	c #FC8F05",
"|.	c #FC9607",
"1.	c #F8B70B",
"2.	c #0000BE",
"3.	c #0000E4",
"4.	c #F9A80A",
"5.	c #F7B80D",
"6.	c #F7C10F",
"7.	c #F4D112",
"8.	c #F4CB11",
"9.	c #F5CB11",
"0.	c #F7BE0E",
"a.	c #FD8604",
"b.	c #FC9005",
"c.	c #F3D314",
"d.	c #FA9E08",
"e.	c #1818BA",
"f.	c #0000DA",
"g.	c #1716BB",
"h.	c #F1E316",
"i.	c #FB9707",
"j.	c #F8B70D",
"k.	c #F7B90E",
"l.	c #F6C711",
"m.	c #FF7601",
"n.	c #FC9206",
"o.	c #F6C910",
"p.	c #F8BA0E",
"q.	c #F8AE0B",
"r.	c #FF7B02",
"s.	c #FE8804",
"t.	c #F8B40D",
"u.	c #FB9A08",
"v.	c #F8BF0F",
"w.	c #2A28AC",
"x.	c #000076",
"y.	c #2C2AAA",
"z.	c #FD8904",
"A.	c #F8B20C",
"B.	c #F8B10C",
"C.	c #F98C0A",
"D.	c #FF5A01",
"E.	c #FE8403",
"F.	c #F9B00B",
"G.	c #F8AC0E",
"H.	c #F99E0A",
"I.	c #FB8B08",
"J.	c #F3CE13",
"K.	c #FF7801",
"L.	c #FE7F02",
"M.	c #F3DC14",
"N.	c #F9AC0A",
"O.	c #302CA8",
"P.	c #000074",
"Q.	c #00009C",
"R.	c #0000E8",
"S.	c #362EA3",
"T.	c #F4DA13",
"U.	c #FE7102",
"V.	c #F4CF13",
"W.	c #F9A90C",
"X.	c #FB6D08",
"Y.	c #FF4601",
"Z.	c #FF5E01",
"`.	c #F4E015",
" +	c #FAA20A",
".+	c #FF6A01",
"++	c #FA8A0A",
"@+	c #FE4D04",
"#+	c #FF7401",
"$+	c #FE2E03",
"%+	c #F98B0B",
"&+	c #FF6401",
"*+	c #FF5701",
"=+	c #F2D314",
"-+	c #FD8003",
";+	c #FD9107",
">+	c #F5C210",
",+	c #FAA60A",
"'+	c #332FA6",
")+	c #0000E3",
"!+	c #00009A",
"~+	c #0000B8",
"{+	c #0000E6",
"]+	c #463097",
"^+	c #F8B80C",
"/+	c #F6B210",
"(+	c #FAA90B",
"_+	c #FB7F07",
":+	c #FC5A06",
"<+	c #FF3301",
"[+	c #FF2601",
"}+	c #F7AE0F",
"|+	c #FD5F04",
"1+	c #FF4A01",
"2+	c #FA800A",
"3+	c #FF0D01",
"4+	c #FF3901",
"5+	c #FF0B01",
"6+	c #FC4F06",
"7+	c #FF4701",
"8+	c #FF1601",
"9+	c #F97E0B",
"0+	c #FF5401",
"a+	c #FF4C01",
"b+	c #FB6305",
"c+	c #3F319B",
"d+	c #0000B7",
"e+	c #0000DD",
"f+	c #5A1585",
"g+	c #F8BB0F",
"h+	c #FF8002",
"i+	c #FF1E01",
"j+	c #F7960D",
"k+	c #FF2A02",
"l+	c #FF0A01",
"m+	c #FD3A04",
"n+	c #FF1D01",
"o+	c #FF0901",
"p+	c #FA830A",
"q+	c #FF1802",
"r+	c #FF2001",
"s+	c #FD4105",
"t+	c #FF0101",
"u+	c #FF1402",
"v+	c #FF1A02",
"w+	c #FF1201",
"x+	c #FE4204",
"y+	c #562189",
"z+	c #0000EE",
"A+	c #5E0C82",
"B+	c #FB6106",
"C+	c #FF2901",
"D+	c #FF0201",
"E+	c #FD4505",
"F+	c #FF0301",
"G+	c #FC5C06",
"H+	c #0000EC",
"I+	c #0000F5",
"J+	c #FE3003",
"K+	c #FF0501",
"L+	c #FE1E02",
"M+	c #FE2803",
"N+	c #0000F6",
"O+	c #0000AA",
"P+	c #0000FC",
"Q+	c #FF0801",
"R+	c #FE1402",
"S+	c #FF3D01",
"T+	c #FB6C08",
"U+	c #FF0701",
"V+	c #FF1001",
"W+	c #FE1A02",
"X+	c #FF0C01",
"Y+	c #FE0A01",
"Z+	c #FE3203",
"`+	c #FF1901",
" @	c #FD5305",
".@	c #FC8F07",
"+@	c #FF6001",
"@@	c #F6B00F",
"#@	c #FE6703",
"$@	c #FC4805",
"%@	c #FD3704",
"&@	c #FF2701",
"*@	c #FA7108",
"=@	c #FF0E01",
"-@	c #FF4501",
";@	c #F7A10D",
">@	c #FF7301",
",@	c #FF5402",
"'@	c #FE4B04",
")@	c #FE3904",
"!@	c #562988",
"~@	c #4A2492",
"{@	c #FF4301",
"]@	c #FF2F02",
"^@	c #FE4404",
"/@	c #FB9409",
"(@	c #FB6D06",
"_@	c #F4E116",
":@	c #FBA40A",
"<@	c #FF5501",
"[@	c #FF6601",
"}@	c #FA7E09",
"|@	c #FF7202",
"1@	c #FF7302",
"2@	c #FD8A06",
"3@	c #F2E117",
"4@	c #FC9507",
"5@	c #FAA409",
"6@	c #422F99",
"7@	c #0000ED",
"8@	c #322FA6",
"9@	c #FD8804",
"0@	c #FB8907",
"a@	c #FB9108",
"b@	c #F7B50D",
"c@	c #FAA90A",
"d@	c #F7BB0D",
"e@	c #FE8103",
"f@	c #F7BE0F",
"g@	c #FF6E01",
"h@	c #F6C012",
"i@	c #FF4002",
"j@	c #F3D313",
"k@	c #FD8A04",
"l@	c #FC8B05",
"m@	c #FC9707",
"n@	c #F9AB0A",
"o@	c #F3E016",
"p@	c #302CA7",
"q@	c #2F2CA8",
"r@	c #FB9E08",
"s@	c #F8B30B",
"t@	c #FB9908",
"u@	c #F6CD11",
"v@	c #F9A809",
"w@	c #FD8D05",
"x@	c #F4DA14",
"y@	c #F5D714",
"z@	c #FE8005",
"A@	c #FE8303",
"B@	c #FC9306",
"C@	c #F9AA0B",
"D@	c #FAA00A",
"E@	c #FC9B08",
"F@	c #FF7E02",
"G@	c #F6C40F",
"H@	c #F2E415",
"I@	c #2928AD",
"J@	c #F5C10F",
"K@	c #FAAA0B",
"L@	c #F8AC0B",
"M@	c #F3E117",
"N@	c #F4DF15",
"O@	c #FB9807",
"P@	c #FC9A08",
"Q@	c #F6C20F",
"R@	c #F8B50D",
"S@	c #FC9E09",
"T@	c #F2E116",
"U@	c #1A18BA",
"V@	c #0000E0",
"W@	c #1817BA",
"X@	c #F5BE0F",
"Y@	c #F3E415",
"Z@	c #F8B70E",
"`@	c #FB9F09",
" #	c #F9B00C",
".#	c #FAA209",
"+#	c #F3DD14",
"@#	c #F4CC12",
"##	c #FB9606",
"$#	c #0000B3",
"%#	c #F2DC16",
"&#	c #F4DC13",
"*#	c #F7C810",
"=#	c #F8BE0D",
"-#	c #F2E515",
";#	c #FAA70A",
">#	c #F9AC0B",
",#	c #0000F4",
"'#	c #0000A0",
")#	c #F1E416",
"!#	c #F5D813",
"~#	c #FAA80B",
"{#	c #F2E016",
"]#	c #F6C50F",
"^#	c #F6CE11",
"                                                                                                ",
"                                                                                                ",
"                                      . + @ @ @ @ @ @ # .                                       ",
"                                $ @ @ @ % & * * * * & % @ @ @ = -                               ",
"                          ; > @ , ' * * * * * * * * * * * * ) , @ > !                           ",
"                        ~ @ { * * * ]                     ^ * * * / @ ~                         ",
"                      ( @ * * *                                 * * * @ (                       ",
"                  _ @ : * *                                         * * { @ ;                   ",
"                  @ < * [                                             } * | @                   ",
"                1 2 * 3                                                 3 * 2 1                 ",
"              4 @ * 5                                                     5 * @ 6               ",
"              @ 7 *                                                         * 8 @               ",
"            9 0 * a                                                         b * 0 c             ",
"            d ^ e                                                             f g h             ",
"            i & i                                                             @ & i             ",
"            2 8 j                                                             k l 0             ",
"            , m c                             n                               o m p             ",
"            @ q r                     s       t u                             v q @             ",
"          w @ 0 v   @ @               x y z A B C z D     E F           @ @   v 0 @ w           ",
"        ( @ @ 0 G   @ @             y H I J K L M J N O P Q R           @ @   G 0 @ @ (         ",
"      ( @ @ 0 { G   @ @         S T U V W X Y Z M X ` z z  ...          @ @   G { i @ @ (       ",
"    +.@ @ i @.q v   @ @         #.$.%.&.*.X =.-.;.X >.,.Y '.).!.        @ @   v q < i @ @ w     ",
"  ~.@ @ , m ] / v   @ @     *.z {.].^./.(.y _./.:.<.[.;.Y }.|.Y z 1.    @ @   v / ] m i @ @ ~.  ",
"  2.@ p % 3.m / v   @ @     4.Y 5.6.7./. .y 8./.9.:./.0.z a.b.z c.d.    e.@   v / m 3.f.@ @ #   ",
"  @ @ q 3.8 m / v   @ g.  h.i.z j.k.l.m.n.P N /.o.p./.q.O r.s.Y t.u.Y v.w.@   v / m 8 3.{ @ @   ",
"x.@ i ^ 7 7 m / v   @ y.  z z.J A.B.C.D.E.K F./.G.H./.I.J.K.L.X u.|.M.N.O.@   v / m 7 7 m 0 @ P.",
"Q.@ @.3.l R.m / v   @ S.T.P U.V.E W.X.Y.Z.`. +.+++@+#+$+%+&+*+=+-+;+>+,+'+@   v / m R.l )+< , !+",
"~+0 g {+5 R.m / v   @ ]+*.^+Y./+(+_+:+<+[+}+|+1+2+3+4+5+6+7+8+9+0+a+:+b+c+@   v / m R.5 {+g / d+",
"d e+7 l 5 R.m / v   @ f+g+h+i+j+k+l+m+n+o+p+q+r+s+t+t+t+u+5+t+v+w+t+l+x+y+@   v / m R.5 l 7 g i ",
"> ' z+5 5 R.m / v   @ A+B+C+D+E+t+t+F+D+t+G+F+t+o+t+t+t+t+t+t+t+t+t+t+v+A+@   v / m R.5 H+& & } ",
"w * I+& 5 R.m / v   @ A+J+t+t+K+t+K+t+L+t+M+t+t+t+t+t+t+t+t+t+t+t+t+t+t+A+@   v / m R.5 & N+* * ",
"O+* P+} H+R.m / v   @ A+3+t+Q+t+R+S+8+T+t+Q+Q+t+t+U+V+t+W+t+X+k+l+t+Y+D+A+@   v / m R.H+} * * * ",
"G * * I+5 R.m / v   @ A+t+t+Z+`+ @.@+@@@#@S+$@t+5+%@1+&@*@=@-@;@>@,@'@)@!@@   v / m R.5 I+* * : ",
"  * * * & l m / v   @ ~@{@]@^@/@(@R [._@:@<@;@l+[@}@|@1@_.-@2@3@/.4@*.5@6@@   v / m l & * * *   ",
"  * * * e 7@m / v   @ 8@9@0@a@b@c@d@e@y f@g@h@i@/.j@k@|.X l@m@Y &.n@o@b@p@@   v / m 7@e * * *   ",
"  8 * * * I+g / v   @ q@r@s@t@u@v@;.w@y x@[.y@z@A@K B@C@z D@E@X F@G@H@  w.@   v / g I+* * * 0   ",
"    * * * * {+| v   @ I@J@S K@!.L@M@E@J X 9@N@B@O@K P@Q@z R@S@K A@T@    U@@   v | {+* * * *     ",
"    ~+* * * * V@r   @ W@    X@Y@S K Z@J K `@T t@ #K .#+#Y @#D@O ##      @ @   r V@* * * * $#    ",
"      z+* * * * 9   @ @         %#A &#z J j.O ` *#K =#z -#O ;#  >#      @ @   9 * * * * ,#      ",
"        7@* * * '#  @ @             )#y z !#A ~#=.Y@{#y )#  ]#          @ @   '#* * * R.        ",
"            * * +   @                         ^#                          @   + * *             ",
"                                                                                                ",
"                                                                                                ",
"                                                                                                ",
"                                                                                                ",
"                                                                                                ",
"                                                                                                ",
"                                                                                                "};
