/* XPM */
static const char  * DockUp[] = {
"15 55 6 1",
" 	c None",
".	c #E2E2DE",
"+	c #FFFFFF",
"@	c #D6D6D6",
"#	c #8E8E8E",
"$	c #868686",
".++++++++++++++",
".+@@@@@@@@@@@@#",
".+@@@@@@@@@@@@#",
".+@@@@@@@@@@@@#",
".+@@@++++++@@@#",
".+@@@######@@@#",
".+@@@@@@@@@@@@#",
".+@@@@@@@@@@@@#",
".+@@@++++++@@@#",
".+@@@######@@@#",
".+@@@@@@@@@@@@#",
".+@@@@@@@@@@@@#",
".+@@@++++++@@@#",
".+@@@######@@@#",
".+@@@@@@@@@@@@#",
".+@@@@@@@@@@@@#",
".+@@@++++++@@@#",
".+@@@######@@@#",
".+@@@@@@@@@@@@#",
".+@@@@@@@@@@@@#",
".+@@@++++++@@@#",
".+@@@######@@@#",
".+@@@@@@@@@@@@#",
".+@@@@@@@@@@@@#",
".+@@@++++++@@@#",
".+@@@######@@@#",
".+@@@@@@@@@@@@#",
".+@@@@@@@@@@@@#",
".+@@@++++++@@@#",
".+@@@######@@@#",
".+@@@@@@@@@@@@#",
".+@@@@@@@@@@@@#",
".+@@@++++++@@@#",
".+@@@######@@@#",
".+@@@@@@@@@@@@#",
".+@@@@@@@@@@@@#",
".+@@@++++++@@@#",
".+@@@######@@@#",
".+@@@@@@@@@@@@#",
".+@@@@@@@@@@@@#",
".+@@@++++++@@@#",
".+@@@######@@@#",
".+@@@@@@@@@@@@#",
".+@@@@@@@@@@@@#",
".+@@@++++++@@@#",
".+@@@######@@@#",
".+@@@@@@@@@@@@#",
".+@@@@@@@@@@@@#",
".+@@@++++++@@@#",
".+@@@######@@@#",
".+@@@@@@@@@@@@#",
".+@@@@@@@@@@@@#",
".+@@@@@@@@@@@@#",
".+@@@@@@@@@@@@#",
".######$$$$$$$#"};
