/* XPM */
static const char  * DockDownShort[] = {
"15 27 6 1",
" 	c None",
".	c #8E8E8E",
"+	c #868686",
"@	c #E2E2DE",
"#	c #D6D6D6",
"$	c #FFFFFF",
".+++++++......@",
".############$@",
".############$@",
".############$@",
".############$@",
".###......###$@",
".###$$$$$$###$@",
".############$@",
".############$@",
".###......###$@",
".###$$$$$$###$@",
".############$@",
".############$@",
".###......###$@",
".###$$$$$$###$@",
".############$@",
".############$@",
".###......###$@",
".###$$$$$$###$@",
".############$@",
".############$@",
".###......###$@",
".###$$$$$$###$@",
".############$@",
".############$@",
".############$@",
"$$$$$$$$$$$$$$@"};
