/* XPM */
static const char * Copy[] = {
"26 24 11 1",
" 	c None",
".	c #CCCCCC",
"+	c #222222",
"@	c #060606",
"#	c #000000",
"$	c #808080",
"%	c #0000BF",
"&	c #2222C1",
"*	c #0606BF",
"=	c #FFFFFF",
"-	c #151515",
"                          ",
"                          ",
"                          ",
"   ....................   ",
"   ....................   ",
"   .++@@@+++...........   ",
"   .+......++..........   ",
"   .+......#.+.........   ",
"   .+....$.#%&&***&&...   ",
"   .+..$.$..%======&&..   ",
"   $-$.$.$.$%======%.&.   ",
"   .+.$.$.$.%====$=%%&&   ",
"   .+...$.$.%==$=$====&   ",
"   .+.....$.%$=$=$=$$$&   ",
"   .+.......%=$=$=$===&   ",
"   .++@@@+++&===$=$===&   ",
"   .........&=====$===&   ",
"   .........&=========&   ",
"   .........&&&******&&   ",
"   ....................   ",
"   ....................   ",
"                          ",
"                          ",
"                          "};
