/* XPM */
static const char * const CopyAlpha[] = {
"26 24 3 1",
" 	c None",
".	c #000000",
"+	c #FFFFFF",
"..........................",
"..........................",
"..........................",
"..........................",
"..........................",
"....++++++++..............",
"....+++++++++.............",
"....++++++++++............",
"....++++++++++++++++......",
"....++++++++++++++++......",
"...+++++++++++++++++......",
"....+++++++++++++++++++...",
"....+++++++++++++++++++...",
"....+++++++++++++++++++...",
"....+++++++++++++++++++...",
"....+++++++++++++++++++...",
"............+++++++++++...",
"............+++++++++++...",
".............++++++++++...",
"..........................",
"..........................",
"..........................",
"..........................",
".........................."};
