/* XPM */
static const char * CutAlpha[] = {
"26 24 3 1",
" 	c None",
".	c #000000",
"+	c #FFFFFF",
"..........................",
"..........................",
"..........................",
"..........................",
"..........................",
".......+......+...........",
".......+.+...++.+.........",
".......+.+.+.++.+.........",
"...++++.+.+.+++.+.++++....",
"........+.+.++.+.+........",
"........+..+++.+.+........",
"...........++....+........",
"..........+++.............",
".......++++++.............",
"......+..+..+.............",
"......+..+.+++............",
"......+..+.+..+...........",
".......++..+..+...........",
"...........+..+...........",
"............++............",
"..........................",
"..........................",
"..........................",
".........................."};
