/* XPM */
static const char * CutDisabled[] = {
"26 24 6 1",
" 	c None",
".	c #919191",
"+	c #6B6B6B",
"@	c #757575",
"#	c #717171",
"$	c #7575A4",
"                          ",
"                          ",
"                          ",
"                          ",
"                          ",
"       .      +           ",
"       . .   @+ .         ",
"       . . . @+ .         ",
"   .... . . +@. . ....    ",
"        . . @# . .        ",
"        .  +@+ . .        ",
"           +@    .        ",
"          +++             ",
"       $$$$+$             ",
"      $  $  $             ",
"      $  $ $$$            ",
"      $  $ $  $           ",
"       $$  $  $           ",
"           $  $           ",
"            $$            ",
"                          ",
"                          ",
"                          ",
"                          "};
