/* XPM */
static const char *Disabled[] = {
"48 48 165 2",
"  	c None",
". 	c #CACACA",
"+ 	c #C8C8C8",
"@ 	c #C6C6C6",
"# 	c #C4C4C4",
"$ 	c #C2C2C2",
"% 	c #C1C1C1",
"& 	c #BFBFBF",
"* 	c #BDBDBD",
"= 	c #BBBBBB",
"- 	c #B9B9B9",
"; 	c #B7B7B7",
"> 	c #B5B5B5",
", 	c #B3B3B3",
"' 	c #B1B1B1",
") 	c #AFAFAF",
"! 	c #AEAEAE",
"~ 	c #ACACAC",
"{ 	c #AAAAAA",
"] 	c #A8A8A8",
"^ 	c #A6A6A6",
"/ 	c #A4A4A4",
"( 	c #A2A2A2",
"_ 	c #A0A0A0",
": 	c #9E9E9E",
"< 	c #9C9C9C",
"[ 	c #9B9B9B",
"} 	c #999999",
"| 	c #979797",
"1 	c #959595",
"2 	c #939393",
"3 	c #919191",
"4 	c #8F8F8F",
"5 	c #8D8D8D",
"6 	c #8B8B8B",
"7 	c #898989",
"8 	c #878787",
"9 	c #868686",
"0 	c #848484",
"a 	c #828282",
"b 	c #808080",
"c 	c #7E7E7E",
"d 	c #7C7C7C",
"e 	c #7A7A7A",
"f 	c #787878",
"g 	c #767676",
"h 	c #747474",
"i 	c #737373",
"j 	c #717171",
"k 	c #C3C3C3",
"l 	c #888888",
"m 	c #757575",
"n 	c #6F6F6F",
"o 	c #B0B0B0",
"p 	c #9D9D9D",
"q 	c #8A8A8A",
"r 	c #6D6D6D",
"s 	c #C5C5C5",
"t 	c #B2B2B2",
"u 	c #777777",
"v 	c #6B6B6B",
"w 	c #9F9F9F",
"x 	c #8C8C8C",
"y 	c #696969",
"z 	c #B4B4B4",
"A 	c #797979",
"B 	c #676767",
"C 	c #A1A1A1",
"D 	c #8E8E8E",
"E 	c #7B7B7B",
"F 	c #666666",
"G 	c #B6B6B6",
"H 	c #A3A3A3",
"I 	c #686868",
"J 	c #646464",
"K 	c #909090",
"L 	c #7D7D7D",
"M 	c #626262",
"N 	c #B8B8B8",
"O 	c #A5A5A5",
"P 	c #6A6A6A",
"Q 	c #606060",
"R 	c #929292",
"S 	c #7F7F7F",
"T 	c #6C6C6C",
"U 	c #5E5E5E",
"V 	c #A7A7A7",
"W 	c #949494",
"X 	c #5C5C5C",
"Y 	c #818181",
"Z 	c #6E6E6E",
"` 	c #5B5B5B",
" .	c #A9A9A9",
"..	c #969696",
"+.	c #838383",
"@.	c #595959",
"#.	c #ABABAB",
"$.	c #707070",
"%.	c #5D5D5D",
"&.	c #575757",
"*.	c #989898",
"=.	c #858585",
"-.	c #555555",
";.	c #ADADAD",
">.	c #727272",
",.	c #5F5F5F",
"'.	c #535353",
").	c #9A9A9A",
"!.	c #515151",
"~.	c #616161",
"{.	c #4F4F4F",
"].	c #4E4E4E",
"^.	c #636363",
"/.	c #505050",
"(.	c #4C4C4C",
"_.	c #656565",
":.	c #4A4A4A",
"<.	c #525252",
"[.	c #484848",
"}.	c #464646",
"|.	c #545454",
"1.	c #444444",
"2.	c #565656",
"3.	c #424242",
"4.	c #434343",
"5.	c #414141",
"6.	c #585858",
"7.	c #454545",
"8.	c #3F3F3F",
"9.	c #3D3D3D",
"0.	c #5A5A5A",
"a.	c #474747",
"b.	c #3B3B3B",
"c.	c #393939",
"d.	c #494949",
"e.	c #373737",
"f.	c #363636",
"g.	c #4B4B4B",
"h.	c #383838",
"i.	c #343434",
"j.	c #323232",
"k.	c #4D4D4D",
"l.	c #3A3A3A",
"m.	c #303030",
"n.	c #2E2E2E",
"o.	c #3C3C3C",
"p.	c #2C2C2C",
"q.	c #2A2A2A",
"r.	c #3E3E3E",
"s.	c #2B2B2B",
"t.	c #292929",
"u.	c #404040",
"v.	c #272727",
"w.	c #2D2D2D",
"x.	c #252525",
"y.	c #2F2F2F",
"z.	c #232323",
"A.	c #212121",
"B.	c #313131",
"C.	c #1F1F1F",
"D.	c #1E1E1E",
"E.	c #333333",
"F.	c #202020",
"G.	c #1C1C1C",
"H.	c #1A1A1A",
". + @ # $ % & * = - ; > , ' ) ! ~ { ] ^ / ( _ : < [ } | 1 2 3 4 5 6 7 8 9 0 a b c d e f g h i j ",
"+ @ # k % & * = - ; > , ' ) ! ~ { ] ^ / ( _ : < [ } | 1 2 3 4 5 6 7 l 9 0 a b c d e f g m i j n ",
"@ # k % & * = - ; > , ' o ! ~ { ] ^ / ( _ : p [ } | 1 2 3 4 5 6 q l 9 0 a b c d e f g m i j n r ",
"s k % & * = - ; > , t o ! ~ { ] ^ / ( _ : p [ } | 1 2 3 4 5 6 q l 9 0 a b c d e f u m i j n r v ",
"k % & * = - ; > , t o ! ~ { ] ^ / ( _ w p [ } | 1 2 3 4 5 x q l 9 0 a b c d e f u m i j n r v y ",
"% & * = - ; > z t o ! ~ { ] ^ / ( _ w p [ } | 1 2 3 4 5 x q l 9 0 a b c d e A u m i j n r v y B ",
"& * = - ; > z t o ! ~ { ] ^ / ( C w p [ } | 1 2 3 4 D x q l 9 0 a b c d E A u m i j n r v y B F ",
"* = - ; G z t o ! ~ { ] ^ / H C w p [ } | 1 2 3 4 D x q l 9 0 a b c d E A u m i j n r v y I F J ",
"= - ; G z t o ! ~ { ] ^ / H C w p [ } | 1 2 3 K D x q l 9 0 a b c L E A u m i j n r v y I F J M ",
"- N G z t o ! ~ { ] ^ O H C w p [ } | 1 2 3 K D x q l 9 0 a b c L E A u m i j n r v P I F J M Q ",
"N G z t o ! ~ { ] ^ O H C w p [ } | 1 2 R K D x q l 9 0 a b S L E A u m i j n r T P I F J M Q U ",
"G z t o ! ~ { ] V O H C w p [ } | 1 W R K D x q l 9 0 a b S L E A u m i j n r T P I F J M Q U X ",
"z t o ! ~ { ] V O H C w p [ } | 1 W R K D x q l 9 0 a Y S L E A u m i j n Z T P I F J M Q U X ` ",
"t o ! ~ {  .V O H C w p [ } | ..W R K D x q l 9 0 +.Y S L E A u m i j n Z T P I F J M Q U X ` @.",
"o ! ~ #. .V O H C w p [ } | ..W R K D x q l 9 0 +.Y S L E A u m i j $.Z T P I F J M Q U %.` @.&.",
"! ~ #. .V O H C w p [ } *...W R K D x q l 9 =.+.Y S L E A u m i j $.Z T P I F J M Q U %.` @.&.-.",
";.#. .V O H C w p [ } *...W R K D x q l 9 =.+.Y S L E A u m i >.$.Z T P I F J M Q ,.%.` @.&.-.'.",
"#. .V O H C w p [ ).*...W R K D x q l 8 =.+.Y S L E A u m h >.$.Z T P I F J M Q ,.%.` @.&.-.'.!.",
" .V O H C w p < ).*...W R K D x q l 8 =.+.Y S L E A u m h >.$.Z T P I F J M ~.,.%.` @.&.-.'.!.{.",
"V O H C w p < ).*...W R K D x q 7 8 =.+.Y S L E A u g h >.$.Z T P I F J M ~.,.%.` @.&.-.'.!.{.].",
"O H C w : < ).*...W R K D x q 7 8 =.+.Y S L E A u g h >.$.Z T P I F J ^.~.,.%.` @.&.-.'.!./.].(.",
"H C w : < ).*...W R K D x 6 7 8 =.+.Y S L E A f g h >.$.Z T P I F _.^.~.,.%.` @.&.-.'.!./.].(.:.",
"C _ : < ).*...W R K D 5 6 7 8 =.+.Y S L E A f g h >.$.Z T P I F _.^.~.,.%.` @.&.-.'.<./.].(.:.[.",
"_ : < ).*...W R K D 5 6 7 8 =.+.Y S L E e f g h >.$.Z T P I B _.^.~.,.%.` @.&.-.'.<./.].(.:.[.}.",
": < ).*...W R K 4 5 6 7 8 =.+.Y S L E e f g h >.$.Z T P I B _.^.~.,.%.` @.&.-.|.<./.].(.:.[.}.1.",
"< ).*...W R K 4 5 6 7 8 =.+.Y S L d e f g h >.$.Z T P y B _.^.~.,.%.` @.&.2.|.<./.].(.:.[.}.1.3.",
").*...W R 3 4 5 6 7 8 =.+.Y S c d e f g h >.$.Z T P y B _.^.~.,.%.` @.&.2.|.<./.].(.:.[.}.1.4.5.",
"*...W R 3 4 5 6 7 8 =.+.Y S c d e f g h >.$.Z T v y B _.^.~.,.%.` @.6.2.|.<./.].(.:.[.}.7.4.5.8.",
"..W 2 3 4 5 6 7 8 =.+.Y b c d e f g h >.$.Z r v y B _.^.~.,.%.` @.6.2.|.<./.].(.:.[.}.7.4.5.8.9.",
"1 2 3 4 5 6 7 8 =.+.Y b c d e f g h >.$.Z r v y B _.^.~.,.%.` 0.6.2.|.<./.].(.:.[.a.7.4.5.8.9.b.",
"2 3 4 5 6 7 8 =.+.a b c d e f g h >.$.n r v y B _.^.~.,.%.` 0.6.2.|.<./.].(.:.[.a.7.4.5.8.9.b.c.",
"3 4 5 6 7 8 =.+.a b c d e f g h >.$.n r v y B _.^.~.,.%.X 0.6.2.|.<./.].(.:.d.a.7.4.5.8.9.b.c.e.",
"4 5 6 7 8 =.0 a b c d e f g h >.j n r v y B _.^.~.,.U X 0.6.2.|.<./.].(.:.d.a.7.4.5.8.9.b.c.e.f.",
"5 6 7 8 9 0 a b c d e f g h >.j n r v y B _.^.~.,.U X 0.6.2.|.<./.].(.g.d.a.7.4.5.8.9.b.c.h.f.i.",
"6 7 8 9 0 a b c d e f g h i j n r v y B _.^.~.Q U X 0.6.2.|.<./.].(.g.d.a.7.4.5.8.9.b.c.h.f.i.j.",
"7 l 9 0 a b c d e f g h i j n r v y B _.^.~.Q U X 0.6.2.|.<./.].k.g.d.a.7.4.5.8.9.b.l.h.f.i.j.m.",
"l 9 0 a b c d e f g m i j n r v y B _.^.M Q U X 0.6.2.|.<./.{.k.g.d.a.7.4.5.8.9.b.l.h.f.i.j.m.n.",
"9 0 a b c d e f u m i j n r v y B _.^.M Q U X 0.6.2.|.<./.{.k.g.d.a.7.4.5.8.9.o.l.h.f.i.j.m.n.p.",
"0 a b c d e f u m i j n r v y B _.J M Q U X 0.6.2.|.<.!.{.k.g.d.a.7.4.5.8.9.o.l.h.f.i.j.m.n.p.q.",
"a b c d e A u m i j n r v y B F J M Q U X 0.6.2.|.<.!.{.k.g.d.a.7.4.5.8.r.o.l.h.f.i.j.m.n.p.s.t.",
"b c d e A u m i j n r v y B F J M Q U X 0.6.2.|.'.!.{.k.g.d.a.7.4.5.u.r.o.l.h.f.i.j.m.n.p.s.t.v.",
"c d E A u m i j n r v y I F J M Q U X 0.6.2.|.'.!.{.k.g.d.a.7.4.5.u.r.o.l.h.f.i.j.m.n.w.s.t.v.x.",
"d E A u m i j n r v y I F J M Q U X 0.6.2.-.'.!.{.k.g.d.a.7.4.3.u.r.o.l.h.f.i.j.m.y.w.s.t.v.x.z.",
"E A u m i j n r v P I F J M Q U X 0.6.&.-.'.!.{.k.g.d.a.7.4.3.u.r.o.l.h.f.i.j.m.y.w.s.t.v.x.z.A.",
"A u m i j n r v P I F J M Q U X 0.6.&.-.'.!.{.k.g.d.a.7.1.3.u.r.o.l.h.f.i.j.B.y.w.s.t.v.x.z.A.C.",
"u m i j n r T P I F J M Q U X 0.@.&.-.'.!.{.k.g.d.a.7.1.3.u.r.o.l.h.f.i.j.B.y.w.s.t.v.x.z.A.C.D.",
"m i j n r T P I F J M Q U X 0.@.&.-.'.!.{.k.g.d.a.}.1.3.u.r.o.l.h.f.i.E.B.y.w.s.t.v.x.z.A.F.D.G.",
"i j n Z T P I F J M Q U X ` @.&.-.'.!.{.k.g.d.[.}.1.3.u.r.o.l.h.f.i.E.B.y.w.s.t.v.x.z.A.F.D.G.H."};
