/* XPM */
static const char *Down[] = {
"27 27 27 1",
" 	c None",
".	c #3B3B3B",
"+	c #454545",
"@	c #424242",
"#	c #414141",
"$	c #3D3D3D",
"%	c #404040",
"&	c #3F3F3F",
"*	c #484848",
"=	c #545454",
"-	c #8F8F8F",
";	c #FAFAFA",
">	c #7C7C7C",
",	c #CCCCCC",
"'	c #F9F9F9",
")	c #797979",
"!	c #FBFBFB",
"~	c #757575",
"{	c #FEFEFE",
"]	c #646464",
"^	c #4B4B4B",
"/	c #FFFFFF",
"(	c #FDFDFD",
"_	c #FCFCFC",
":	c #6E6E6E",
"<	c #AFAFAF",
"[	c #F4F4F4",
".+@++@++@++@@#$$%&%++@+*=-;",
">,,,,,,,,,,,,,,,,,,,,,,,,,'",
">,,,,,,,,,,,,,,,,,,,,,,,,,'",
"),,,,,,,,,,,,,,,,,,,,,,,,,;",
">,,,,,,,,,,,,,,,,,,,,,,,,,'",
">,,,,,,,,,,,,,,,,,,,,,,,,,'",
"),,,,,,,,,,,,,,,,,,,,,,,,,;",
">,,,,,,,,,,,,,,,,,,,,,,,,,'",
">,,,,,,,,,,,,,,,,,,,,,,,,,'",
"),,,,,,,,,,,,,,,,,,,,,,,,,!",
"~,,,,,,,,,,,,,,,,,,,,,,,,,{",
"],,,,,,,,,,,,,,,,,,,,,,,,,{",
"^,,,,,,,,,,,,,,,,,,,,,,,,,/",
"@,,,,,,,,,,,,,,,,,,,,,,,,,{",
"+,,,,,,,,,,,,,,,,,,,,,,,,,(",
"+,,,,,,,,,,,,,,,,,,,,,,,,,_",
"@,,,,,,,,,,,,,,,,,,,,,,,,,!",
"+,,,,,,,,,,,,,,,,,,,,,,,,,;",
"+,,,,,,,,,,,,,,,,,,,,,,,,,'",
"@,,,,,,,,,,,,,,,,,,,,,,,,,'",
"+,,,,,,,,,,,,,,,,,,,,,,,,,;",
"+,,,,,,,,,,,,,,,,,,,,,,,,,;",
"@,,,,,,,,,,,,,,,,,,,,,,,,,'",
"^,,,,,,,,,,,,,,,,,,,,,,,,,!",
":,,,,,,,,,,,,,,,,,,,,,,,,,'",
"<,,,,,,,,,,,,,,,,,,,,,,,,,[",
";'!{{{{{{{{{{{(!;;'';'!((_!"};
