/* XPM */
static const char *Effects_xpm[] = {
"26 24 78 1",
" 	c None",
".	c #FFFFFF",
"+	c #F2F2F2",
"@	c #A1A1A1",
"#	c #555555",
"$	c #545454",
"%	c #9B9B9B",
"&	c #FDFDFD",
"*	c #BDBDBD",
"=	c #000000",
"-	c #353535",
";	c #515151",
">	c #9F9F9F",
",	c #FAFAFA",
"'	c #1E1E1E",
")	c #0D0D0D",
"!	c #D7D7D7",
"~	c #3C3C3C",
"{	c #E7E7E7",
"]	c #3F3F3F",
"^	c #262626",
"/	c #D0D0D0",
"(	c #363636",
"_	c #8B8B8B",
":	c #EBEBEB",
"<	c #090909",
"[	c #DEDEDE",
"}	c #5F5F5F",
"|	c #464646",
"1	c #494949",
"2	c #565656",
"3	c #E8E8E8",
"4	c #F8F8F8",
"5	c #5C5C5C",
"6	c #3A3A3A",
"7	c #080808",
"8	c #535353",
"9	c #F3F3F3",
"0	c #181818",
"a	c #FCFCFC",
"b	c #030303",
"c	c #E5E5E5",
"d	c #A0A0A0",
"e	c #848484",
"f	c #E6E6E6",
"g	c #2A2A2A",
"h	c #444444",
"i	c #878787",
"j	c #909090",
"k	c #505050",
"l	c #696969",
"m	c #B2B2B2",
"n	c #B5B5B5",
"o	c #D5D5D5",
"p	c #575757",
"q	c #E2E2E2",
"r	c #7E7E7E",
"s	c #5B5B5B",
"t	c #525252",
"u	c #101010",
"v	c #FEFEFE",
"w	c #292929",
"x	c #AFAFAF",
"y	c #A4A4A4",
"z	c #F5F5F5",
"A	c #F4F4F4",
"B	c #282828",
"C	c #F6F6F6",
"D	c #4F4F4F",
"E	c #A9A9A9",
"F	c #323232",
"G	c #ECECEC",
"H	c #CFCFCF",
"I	c #7D7D7D",
"J	c #727272",
"K	c #C9C9C9",
"L	c #C7C7C7",
"M	c #CECECE",
"                          ",
"                          ",
"             +@#$%        ",
"           &*=-===;       ",
"           >==,'==)       ",
"          !==~ {]^/       ",
"          (==_            ",
"         :<==[            ",
"       }#|===1#23         ",
"      45#6==78$59         ",
"         8==0a            ",
"         b==- cd)e fgh    ",
"        :===i   j= klm    ",
"        n===o    =pq      ",
"        r===     's       ",
"        t==k     u~       ",
"    cvv w==x v4 5y7z      ",
"   }==A ==Bv  =bC!=DE     ",
"   ===F>=',   G    H      ",
"   I====JA                ",
"    KLM                   ",
"                          ",
"                          ",
"                          "};
