/* XPM */
static const char * const RedoDisabled[] = {
"26 24 4 1",
" 	c None",
".	c #A8A8A8",
"+	c #757575",
"@	c #6B6B6B",
"                          ",
"                          ",
"                          ",
"                          ",
"                          ",
"                          ",
"                          ",
"                          ",
"         .+++             ",
"       .++  .++           ",
"      .+      .+  +       ",
"      +        .+++       ",
"      +         +@+       ",
"      +        ++++       ",
"      +                   ",
"      .+                  ",
"       .++                ",
"                          ",
"                          ",
"                          ",
"                          ",
"                          ",
"                          ",
"                          "};
