/* XPM */
static const char * const ZoomToggleAlpha[] = {
"27 27 4 1",
" 	c None",
".	c #000000",
"+	c #FFFFFF",
"@	c #808080",
"...........................",
"...........................",
"...........................",
"...........................",
"............++++...........",
"..........@+++@++@.........",
"..........++@+++++@........",
".........++@+++++++........",
".........+@++++++++@.......",
".........++++++++++@+@.....",
".........++++++++++@++@....",
"..........++++++++@@+++....",
".........++++++++@@++++@...",
"........+++@++++@@+++++@...",
".......+++@@.@@@@++++++@...",
"......+++@@...++++++++@@...",
".....+++@@...++++++++@@....",
"....+++@@...+++@++++@@.....",
"....@+@@...+++@@.@@@@......",
".....@@...+++@@............",
".........+++@@.............",
"........+++@@..............",
"........@+@@...............",
".........@@................",
"...........................",
"...........................",
"..........................."};

