/* XPM */
static const char * ZoomOutDisabled[] = {
"27 27 6 1",
" 	c None",
".	c #A8A8A8",
"+	c #737373",
"#	c #B7B7B7",
"$	c #CFCECC",
"*	c #404040",
"...........................",
"...........................",
"...........................",
"...........................",
"...........................",
"...........................",
"..............++++.........",
"............++###$++.......",
"............+##++##++......",
"...........+##+#####+......",
"...........+#******#++.....",
"...........+#******#++.....",
"...........+########++.....",
"............+######+++.....",
"...........+++####+++......",
"..........++++++++++.......",
".........+++++.++++........",
"........+++++..............",
".......+++++...............",
"......+++++................",
"......++++.................",
".......++..................",
"...........................",
"...........................",
"...........................",
"...........................",
"..........................."};
