/* XPM */
static const char * ZoomSel[] = {
"27 27 7 1",
" 	c None",
".	c #FFFFFF",
"+	c #1C1C1C",
"@	c #AEAEAE",
"#	c #F7F7F7",
"$	c #CFCECC",
"*	c #1C1CA0",
"...........................",
"...........................",
"...........................",
"...........................",
"............++++...........",
"..........@+#..$+@.........",
"..........+..@@..+@........",
".........+#.@....#+........",
".........+.@......+@.......",
".........+........+@.......",
".........+#......#+@.......",
"..........+......+@@.......",
".........+++#..#+@@........",
"........+++@++++@@.........",
".......+++@@.@@@@..........",
"......+++@@................",
".....+++@@.................",
"....+++@@..................",
"....@+@@......*...*........",
".....@@......**...**.......",
"..........*************....",
".............**...**.......",
"..............*...*........",
"...........................",
"...........................",
"...........................",
"..........................."};
