/* XPM */
static const char * MicAlpha[] = {
"25 25 2 1",
".	c #000000",
"#	c #FFFFFF",
".........................",
".........................",
".........................",
".........................",
"...............####......",
"..............######.....",
".............########....",
"............##########...",
"............##########...",
"............##########...",
"............##########...",
"............#########....",
"...........#########.....",
"..........#########......",
".........#####...........",
"........#####............",
".......#####.............",
"......#####..............",
"......####...............",
".....####................",
".....##..................",
"....#....................",
"...#.....................",
".........................",
"........................."};
