/* XPM */
static const char * audacity32_xpm[] = {
"32 32 309 2",
"  	c None",
". 	c #0000B4",
"+ 	c #0000B6",
"@ 	c #0000BF",
"# 	c #0000C4",
"$ 	c #0000C7",
"% 	c #0000C9",
"& 	c #0000CC",
"* 	c #0000C2",
"= 	c #0000D5",
"- 	c #0000E0",
"; 	c #0000E9",
"> 	c #0000EF",
", 	c #0000F1",
"' 	c #0000C6",
") 	c #0000C5",
"! 	c #0000CB",
"~ 	c #0000DA",
"{ 	c #0000ED",
"] 	c #0000F9",
"^ 	c #0000FE",
"/ 	c #0000FF",
"( 	c #0000D0",
"_ 	c #0000E8",
": 	c #0000FB",
"< 	c #0000FA",
"[ 	c #0000F8",
"} 	c #0000FD",
"| 	c #0000D1",
"1 	c #0000C3",
"2 	c #0000CD",
"3 	c #0000EC",
"4 	c #0000CE",
"5 	c #0000C8",
"6 	c #0000DF",
"7 	c #0000C0",
"8 	c #0000EB",
"9 	c #0000F2",
"0 	c #E1DB05",
"a 	c #E1E106",
"b 	c #0000D4",
"c 	c #0000E3",
"d 	c #0000D7",
"e 	c #EDE410",
"f 	c #EDE511",
"g 	c #EBF414",
"h 	c #F1C80D",
"i 	c #F3C20C",
"j 	c #DFDA05",
"k 	c #D7D602",
"l 	c #0000D6",
"m 	c #EEEF15",
"n 	c #F2D010",
"o 	c #F3CE10",
"p 	c #EFF017",
"q 	c #F6B90D",
"r 	c #F5BD0D",
"s 	c #EFF317",
"t 	c #F0D30E",
"u 	c #EFCE0C",
"v 	c #0000CA",
"w 	c #0000D3",
"x 	c #F1E814",
"y 	c #F0EB16",
"z 	c #F6BD0E",
"A 	c #F1EB17",
"B 	c #F7B40C",
"C 	c #F6C10F",
"D 	c #F1E916",
"E 	c #F6BB0D",
"F 	c #F7AF0A",
"G 	c #CAFF3C",
"H 	c #0000D9",
"I 	c #FFFF00",
"J 	c #F2DF14",
"K 	c #F2E215",
"L 	c #F7B80D",
"M 	c #F8B50D",
"N 	c #F1E917",
"O 	c #F8B00C",
"P 	c #F6C510",
"Q 	c #F3DD15",
"R 	c #F2E316",
"S 	c #F7B50D",
"T 	c #F9A90A",
"U 	c #E8FF21",
"V 	c #0000DC",
"W 	c #0000E5",
"X 	c #F4E913",
"Y 	c #F3DA14",
"Z 	c #F4D212",
"` 	c #F9AC0B",
" .	c #F2E817",
"..	c #F9AA0B",
"+.	c #F6C911",
"@.	c #F7C10F",
"#.	c #F4D814",
"$.	c #F0EE17",
"%.	c #F5EA12",
"&.	c #3330A5",
"*.	c #0000C1",
"=.	c #0000DB",
"-.	c #0000E7",
";.	c #9D9655",
">.	c #F5D512",
",.	c #F4D413",
"'.	c #F6C710",
").	c #F8B30C",
"!.	c #FAA309",
"~.	c #F2E416",
"{.	c #FAA209",
"].	c #F6CA11",
"^.	c #F9AB0B",
"/.	c #F5CF12",
"(.	c #F9A80A",
"_.	c #F4D712",
":.	c #C9BF34",
"<.	c #0101CC",
"[.	c #0000D2",
"}.	c #0000E6",
"|.	c #D4CB2C",
"1.	c #F7BE0E",
"2.	c #F5CD12",
"3.	c #F7BE0F",
"4.	c #F9AF0C",
"5.	c #FB9807",
"6.	c #F3DE15",
"7.	c #FB9907",
"8.	c #F6C711",
"9.	c #F6C610",
"0.	c #FAA50A",
"a.	c #F4D112",
"b.	c #F8B80D",
"c.	c #E0D322",
"d.	c #100FBF",
"e.	c #100FC0",
"f.	c #E2D722",
"g.	c #F9B00B",
"h.	c #F6C811",
"i.	c #F8B60D",
"j.	c #F99C0B",
"k.	c #FD8C05",
"l.	c #F5D513",
"m.	c #FC8F06",
"n.	c #F7BD0F",
"o.	c #FD8B05",
"p.	c #F7B80E",
"q.	c #FB9D08",
"r.	c #FAA109",
"s.	c #F7BC0E",
"t.	c #FAA90A",
"u.	c #EABF19",
"v.	c #1D1AB6",
"w.	c #0000E4",
"x.	c #1E1DB5",
"y.	c #E8D31D",
"z.	c #FA9D09",
"A.	c #F6BD10",
"B.	c #F9AE0B",
"C.	c #FA7109",
"D.	c #FE6E03",
"E.	c #F6C210",
"F.	c #FD7B04",
"G.	c #F9930C",
"H.	c #FE6502",
"I.	c #FA7F0A",
"J.	c #FC7906",
"K.	c #FB8808",
"L.	c #FAA00A",
"M.	c #FB9E08",
"N.	c #F0A612",
"O.	c #2320B2",
"P.	c #291EAD",
"Q.	c #F1A611",
"R.	c #FD6A05",
"S.	c #F8970D",
"T.	c #FB7408",
"U.	c #FC4B07",
"V.	c #FE3502",
"W.	c #F9880D",
"X.	c #FE4A03",
"Y.	c #FB5509",
"Z.	c #FF1D01",
"`.	c #FD3105",
" +	c #FE3103",
".+	c #FD3804",
"++	c #FD5105",
"@+	c #FE4303",
"#+	c #F4520D",
"$+	c #2B20AB",
"%+	c #0000CF",
"&+	c #3D0F9C",
"*+	c #F5560B",
"=+	c #FF2902",
"-+	c #FC3F07",
";+	c #FF0C02",
">+	c #FE0F02",
",+	c #FF0E02",
"'+	c #FB4E08",
")+	c #FF1002",
"!+	c #FE1403",
"~+	c #FF0001",
"{+	c #FF0401",
"]+	c #FF0301",
"^+	c #FF0501",
"/+	c #FF0101",
"(+	c #F81407",
"_+	c #410B99",
":+	c #0000EA",
"<+	c #460494",
"[+	c #F81808",
"}+	c #FF0701",
"|+	c #FF0E01",
"1+	c #FE1C03",
"2+	c #FE1903",
"3+	c #FF0801",
"4+	c #F90105",
"5+	c #480093",
"6+	c #480193",
"7+	c #F90306",
"8+	c #FE1B03",
"9+	c #FD2F05",
"0+	c #FC6E07",
"a+	c #FC6C06",
"b+	c #FB7208",
"c+	c #FE2D02",
"d+	c #FD2204",
"e+	c #FE1202",
"f+	c #FE3D03",
"g+	c #FD4004",
"h+	c #FD3304",
"i+	c #FD4905",
"j+	c #FC6705",
"k+	c #FE4404",
"l+	c #F72E09",
"m+	c #411099",
"n+	c #3A159F",
"o+	c #F84F07",
"p+	c #FC6107",
"q+	c #FA8E09",
"r+	c #F9A70B",
"s+	c #F8BA0E",
"t+	c #FC7606",
"u+	c #FB5F08",
"v+	c #FD6805",
"w+	c #FB8E08",
"x+	c #FA9909",
"y+	c #FB8609",
"z+	c #FAA10A",
"A+	c #F0A212",
"B+	c #2620AF",
"C+	c #0000EE",
"D+	c #231EB1",
"E+	c #F3970D",
"F+	c #FAA70A",
"G+	c #F7BA0E",
"H+	c #F9B00C",
"I+	c #F5CE12",
"J+	c #FA9C09",
"K+	c #FA9309",
"L+	c #FB9E09",
"M+	c #F8B80E",
"N+	c #F8B40D",
"O+	c #F9AE0C",
"P+	c #F8BB0D",
"Q+	c #E7D01D",
"R+	c #1C1AB7",
"S+	c #0000FC",
"T+	c #1817BA",
"U+	c #EBB517",
"V+	c #F3DC15",
"W+	c #F8B20C",
"X+	c #F7B90E",
"Y+	c #F6C310",
"Z+	c #F6CB10",
"`+	c #DED524",
" @	c #0E0DC1",
".@	c #0908C5",
"+@	c #DBCD26",
"@@	c #F4D813",
"#@	c #F3D914",
"$@	c #F4D914",
"%@	c #F2E216",
"&@	c #F6C410",
"*@	c #F8B10C",
"=@	c #F5CC11",
"-@	c #F5D012",
";@	c #F7B90D",
">@	c #F4D812",
",@	c #B0A846",
"'@	c #AEA448",
")@	c #F2E514",
"!@	c #F1E416",
"~@	c #F6C30F",
"{@	c #F4D313",
"]@	c #F3DD14",
"^@	c #F3D713",
"/@	c #F3E213",
"(@	c #2927AD",
"_@	c #F1E414",
":@	c #F1E315",
"<@	c #F2E415",
"[@	c #F1E415",
"}@	c #F1E515",
"|@	c #F0E515",
"1@	c #F0E414",
"2@	c #F1E312",
"3@	c #F1E314",
"4@	c #F0E314",
"                            . + + .                             ",
"                    @ # $ % & & & & % $ # @                     ",
"                * $ & = - ; > , , > ; - = & ' *                 ",
"              ) ! ~ { ] ^ / / / / / / ^ ] { ~ ! )               ",
"            ' ( _ : / ^ <             [ } / : _ ( '             ",
"          ' | > ^ }                         } ^ > | '           ",
"        1 2 3 ^ [                             [ ^ 3 4 1         ",
"        5 6 : ]                                 ] : 6 5         ",
"      7 4 8 9                 0 a                 9 8 4 7       ",
"      # b c d           e f g h i     j k         d c b #       ",
"      $ l d @         m n o p q r s   t u         @ d l $       ",
"      v l w ! &     x y z z A B C D A E F G     & ! w l v       ",
"    $ & H w & & w I J K L M N O P Q R S T U   & & & w H & '     ",
"  ' & V W w & & = X Y Z M `  ...+.@.#.O T $.%.&.& & w W V 2 '   ",
"*.v =.8 -.w & 2 ;.>.,.'.).!.~.{.].^./.` (.~._.:.<.& w -.8 =.v *.",
"$ [._ 3 }.w & & |.1.2.3.4.5.6.7.8.7.9.0.0.a.b.c.d.2 w }.3 _ [.$ ",
"v V 8 8 }.w 2 e.f.g.h.i.j.k.l.m.n.o.p.q.r.s.t.u.v.2 w }.8 8 V v ",
"4 w.8 8 }.w 4 x.y.z.A.B.C.D.E.F.G.H.I.J.K.L.M.N.O.4 w }.8 8 w.4 ",
"b ; 8 8 }.w 4 P.Q.R.S.T.U.V.W.X.Y.Z.`. +.+++@+#+$+%+w }.8 8 ; b ",
"; 8 8 8 }.w ( &+*+=+-+;+>+,+'+)+!+~+{+]+{+^+/+(+_+| w }.8 8 8 :+",
"] { 8 8 }.w [.<+[+]+}+|+1+1+2+]+/+]+^+{+^+3+/+4+5+[.w }.8 8 { < ",
"< > 8 8 }.w [.6+7+8+9+0+a+b+c+d+e+f+g+h+i+j+k+l+m+| w }.8 8 > ] ",
", 9 8 8 }.w ( n+o+p+q+r+r.s+t+u+v+w+x+y+z+q.!.A+B+4 w }.8 8 9 , ",
"{ [ C+8 }.w 4 D+E+F+M G+H+I+J+K+L+` M+N+O+r.P+Q+R+2 w }.8 C+[ { ",
":+S+[ 3 }.w 2 T+U+s.P 8.C V+H+..W+X++.Y+)...Z+`+ @2 w }.3 [ S+:+",
"  < ^ [ ; [.& .@+@@@#@Y $@%@&@*@Y+=@$@-@s.;@>@,@& & [.; [ ^ :   ",
"    } ^ ] W & & '@)@!@~.~.~.6.~@{@%@R ]@Z ^@/@(@& & W ] ^ }     ",
"      : ^ : 4 &   _@:@:@:@<@[@J K [@[@}@|@1@2@  & 4 : ^ :       ",
"                            3@4@1@3@4@                          ",
"                                                                ",
"                                                                ",
"                                                                "};
