/* XPM */
static const char * const audacity32_xpm[] = {
"32 32 244 2",
"  	c None",
". 	c #000082",
"+ 	c #0000A1",
"@ 	c #0000B9",
"# 	c #000081",
"$ 	c #000096",
"% 	c #0000CC",
"& 	c #0000E1",
"* 	c #0000FF",
"= 	c #000093",
"- 	c #0000CE",
"; 	c #0000F7",
"> 	c #0000E4",
", 	c #0000BD",
"' 	c #0000E2",
") 	c #0000C1",
"! 	c #0000EF",
"~ 	c #0000D3",
"{ 	c #0000A8",
"] 	c #0000E6",
"^ 	c #0000BB",
"/ 	c #0000A7",
"( 	c #0000D6",
"_ 	c #0000E3",
": 	c #0000D5",
"< 	c #0000E8",
"[ 	c #0000E9",
"} 	c #0000BA",
"| 	c #0000A3",
"1 	c #F8AE0B",
"2 	c #0000AE",
"3 	c #00009F",
"4 	c #0000CB",
"5 	c #F7BF0E",
"6 	c #F8B20B",
"7 	c #F9A50A",
"8 	c #F4D613",
"9 	c #0000BE",
"0 	c #0000CD",
"a 	c #F3C812",
"b 	c #F6B90D",
"c 	c #FAA709",
"d 	c #F2E317",
"e 	c #FAA00A",
"f 	c #F4D514",
"g 	c #F8B50C",
"h 	c #F2E316",
"i 	c #F9AF0B",
"j 	c #FAB00B",
"k 	c #00009A",
"l 	c #0000D2",
"m 	c #F7BA0E",
"n 	c #F8B40C",
"o 	c #FA9D08",
"p 	c #F3E516",
"q 	c #FC9708",
"r 	c #F5D313",
"s 	c #FC9C08",
"t 	c #F5DC15",
"u 	c #F9A809",
"v 	c #F8AA0A",
"w 	c #000092",
"x 	c #0000D8",
"y 	c #0000A0",
"z 	c #F6B60C",
"A 	c #F2E516",
"B 	c #F9B00C",
"C 	c #FC9306",
"D 	c #F3E417",
"E 	c #FC8C05",
"F 	c #F5D213",
"G 	c #FD8D05",
"H 	c #F5CA11",
"I 	c #FA9F09",
"J 	c #FAA509",
"K 	c #F2DC14",
"L 	c #F7AD0A",
"M 	c #0505C8",
"N 	c #0000D4",
"O 	c #000070",
"P 	c #0000E0",
"Q 	c #0000D9",
"R 	c #0808C5",
"S 	c #100FC0",
"T 	c #F9A408",
"U 	c #F2E417",
"V 	c #FAA50A",
"W 	c #FA950A",
"X 	c #FE8704",
"Y 	c #F3E416",
"Z 	c #FE8103",
"` 	c #F5CD12",
" .	c #FF7E02",
"..	c #F7BA0D",
"+.	c #FB9708",
"@.	c #FA9E09",
"#.	c #F8BA0E",
"$.	c #F8A70A",
"%.	c #F7C110",
"&.	c #1514BD",
"*.	c #0404C8",
"=.	c #0000DF",
"-.	c #00006F",
";.	c #0000DA",
">.	c #0000DC",
",.	c #0000A2",
"'.	c #0D0BC1",
").	c #1A17B9",
"!.	c #FB8E07",
"~.	c #F2D915",
"{.	c #FB9B09",
"].	c #FD4F05",
"^.	c #FE6E01",
"/.	c #F3DC15",
"(.	c #FF7201",
"_.	c #FA860A",
":.	c #FF6801",
"<.	c #FB6D07",
"[.	c #FE6903",
"}.	c #FC8006",
"|.	c #F99F09",
"1.	c #FAA209",
"2.	c #F9A409",
"3.	c #1918BA",
"4.	c #0B0AC2",
"5.	c #0000D0",
"6.	c #0000B7",
"7.	c #0D0DBF",
"8.	c #2918AB",
"9.	c #FBA70A",
"0.	c #FE5903",
"a.	c #F6A50F",
"b.	c #FD5C03",
"c.	c #FE3404",
"d.	c #FF3201",
"e.	c #FA830A",
"f.	c #FF4101",
"g.	c #FD4906",
"h.	c #FF1B01",
"i.	c #FE2B03",
"j.	c #FF2601",
"k.	c #FF2302",
"l.	c #FE4B02",
"m.	c #FE4103",
"n.	c #FD4003",
"o.	c #231AB1",
"p.	c #0F0DBF",
"q.	c #0000C7",
"r.	c #0000EB",
"s.	c #0000E7",
"t.	c #0F0FBE",
"u.	c #370FA0",
"v.	c #FE5C05",
"w.	c #FF1F01",
"x.	c #FE3804",
"y.	c #FF0101",
"z.	c #FF0901",
"A.	c #FF0701",
"B.	c #FD4305",
"C.	c #FF0401",
"D.	c #FF0D01",
"E.	c #FF0201",
"F.	c #FE1802",
"G.	c #370FA1",
"H.	c #0000E5",
"I.	c #0000C0",
"J.	c #0000F5",
"K.	c #110FBE",
"L.	c #380D9F",
"M.	c #FF0E01",
"N.	c #FF0A01",
"O.	c #FF1302",
"P.	c #FF1202",
"Q.	c #FF0301",
"R.	c #380E9F",
"S.	c #0000FA",
"T.	c #FF1702",
"U.	c #FF0C01",
"V.	c #FB8408",
"W.	c #FE5803",
"X.	c #FC6A06",
"Y.	c #FF2001",
"Z.	c #FE1E02",
"`.	c #FF0601",
" +	c #FE4503",
".+	c #FE2D03",
"++	c #FF1D02",
"@+	c #FE3C03",
"#+	c #FD6F05",
"$+	c #FE4403",
"%+	c #FF1E02",
"&+	c #3216A4",
"*+	c #000075",
"=+	c #0000F4",
"-+	c #2317B1",
";+	c #FF5701",
">+	c #FE4803",
",+	c #FD7705",
"'+	c #F8BC0E",
")+	c #FC9907",
"!+	c #F7BB0E",
"~+	c #FE6704",
"{+	c #FE4705",
"]+	c #FE6902",
"^+	c #FC9A09",
"/+	c #FB9909",
"(+	c #FB7906",
"_+	c #FC9407",
":+	c #F8AB0B",
"<+	c #FBA509",
"[+	c #1E19B5",
"}+	c #0A0AC4",
"|+	c #1716BB",
"1+	c #FC9307",
"2+	c #FAA309",
"3+	c #F4CF13",
"4+	c #FBA30A",
"5+	c #FD8E06",
"6+	c #FB8E0A",
"7+	c #FAA90B",
"8+	c #F8B80D",
"9+	c #F8AF0C",
"0+	c #FB9407",
"a+	c #F7C40F",
"b+	c #0000AA",
"c+	c #1010C0",
"d+	c #F6B70E",
"e+	c #F9B30B",
"f+	c #F9AA0A",
"g+	c #F9B20C",
"h+	c #F4D112",
"i+	c #F7C50F",
"j+	c #FB9C08",
"k+	c #0101CB",
"l+	c #F5D413",
"m+	c #F3E316",
"n+	c #FAAF0C",
"o+	c #F6CB12",
"p+	c #F6C10E",
"q+	c #F3E517",
"r+	c #F4DF16",
"s+	c #F9B20B",
"t+	c #FAB20D",
"u+	c #F7BC0D",
"                                                                ",
"                          . + @ @ + #                           ",
"                    $ % & * * * * * * & % $                     ",
"                = - ; * >             > * ; - =                 ",
"              , ' *                         * ' ,               ",
"            ) ! ~                             ~ ! )             ",
"          { ] ^                                 , ] /           ",
"          ( &                                     _ (           ",
"        { !                                         ! /         ",
"        : <                                         [ :         ",
"        ~ }                                         ^ ~         ",
"        - |                   1                     | -         ",
"      2 % 3 4 %         5 6   7 8               % 4 3 % 2       ",
"    9 % 0 3 4 %       a b c d e f g h i j       % 4 3 - % ,     ",
"  k % % l 3 4 %       m n o p q r s t u v       % 4 3 l % % w   ",
"  % % : x y 4 %   z A B i C D E F G H I J K L   M 4 y x N % %   ",
"O % ~ P Q y R S   T U V W X Y Z `  ...+.@.#.$.%.&.*.y Q =.l % -.",
"+ % ;.> >.,.'.).  !.~.{.].^./.(._.:.<.[.}.|.1.2.3.4.,.>.> ;.5.3 ",
"6.Q ' > >.,.7.8.9.0.a.b.c.d.e.f.g.h.i.j.k.l.m.n.o.p.,.>.> > ;.6.",
"q.r.r.s.>.,.t.u.v.w.x.y.z.A.B.C.D.y.E.y.E.E.y.F.G.t.,.>.s.r.s.H.",
"I.* J.r.>.,.K.L.F.y.E.M.N.O.P.y.y.y.E.E.y.Q.y.y.R.t.,.>.r.J.S.* ",
"| * * r.>.,.t.R.E.T.U.V.W.X.Y.Z.`. +.+++@+#+$+%+&+p.,.>.r.* * * ",
"*+* * =+=.,.p.-+;+>+,+'+)+!+~+{+]+^+/+(+7 _+:+<+[+7.,.=.=+* * I.",
"  * * * > | }+|+1+2+J 3+4+8 5+6+{.7+8+9+:+0+a+  &.R | > * * *   ",
"  =+* * * b+4 c+  d+!+d e+U 1.f+g+i h+i+1 j+    M 4 b+* * * x   ",
"    * * * 9 4 k+        l+m+!+n+o+p+q+r+s+t+    % 4 9 * * *     ",
"      * * ' 4 0               u+                0 4 ' * *       ",
"                                                                ",
"                                                                ",
"                                                                ",
"                                                                ",
"                                                                "};
