/* XPM */
static const char * const sneedacity32[] = {
/* columns rows colors chars-per-pixel */
"32 32 165 2 ",
"   c None",
".  c #5A171C",
"X  c #660406",
"o  c #7E0808",
"O  c #681F1D",
"+  c #75131B",
"@  c #7E2C28",
"#  c #6F332E",
"$  c #097D0B",
"%  c #33652E",
"&  c #3A7938",
"*  c #43502F",
"=  c #74046F",
"-  c #6D0773",
";  c #7A0473",
":  c #3E7740",
">  c #6A5E4C",
",  c #57634B",
"<  c #417B44",
"1  c #6B6E59",
"2  c #7C6652",
"3  c #707A5F",
"4  c #72775D",
"5  c #797C63",
"6  c #880A0E",
"7  c #9D0507",
"8  c #9B080D",
"9  c #970508",
"0  c #820F1A",
"q  c #950E14",
"w  c #9C0A10",
"e  c #910714",
"r  c #851017",
"t  c #A40406",
"y  c #AC0406",
"u  c #A5050B",
"i  c #AC040A",
"p  c #B40406",
"a  c #BC0305",
"s  c #B5050B",
"d  c #BD040A",
"f  c #BF100E",
"g  c #A40911",
"h  c #A50812",
"j  c #BF0F10",
"k  c #B40F13",
"l  c #A91818",
"z  c #B31315",
"x  c #B83907",
"c  c #A60431",
"v  c #B3043E",
"b  c #A52423",
"n  c #AD2826",
"m  c #B42624",
"M  c #C30305",
"N  c #CC0204",
"B  c #C0040E",
"V  c #CF0806",
"C  c #D40103",
"Z  c #D90000",
"A  c #D20B03",
"S  c #CF1304",
"D  c #C31407",
"F  c #C1031D",
"G  c #C11112",
"H  c #FF0201",
"J  c #FF0D01",
"K  c #FF1401",
"L  c #FF1D01",
"P  c #C82E06",
"I  c #FE2202",
"U  c #FF2C02",
"Y  c #FE3302",
"T  c #FF3C03",
"R  c #C20320",
"E  c #F50F28",
"W  c #F51F29",
"Q  c #F11030",
"!  c #F23133",
"~  c #BD4407",
"^  c #B65F08",
"/  c #9D473D",
"(  c #B3463F",
")  c #FE4A02",
"_  c #FE4002",
"`  c #FE5203",
"'  c #FD5C04",
"]  c #C86D08",
"[  c #FD6505",
"{  c #FE6B04",
"}  c #FC7306",
"|  c #FD7B05",
" . c #F4412C",
".. c #EF4232",
"X. c #970844",
"o. c #A10443",
"O. c #81066F",
"+. c #8A0377",
"@. c #9B584E",
"#. c #816E5A",
"$. c #97635C",
"%. c #9C6761",
"&. c #8D756D",
"*. c #92736B",
"=. c #987C71",
"-. c #028702",
";. c #0C840D",
":. c #048408",
">. c #158118",
",. c #458147",
"<. c #C6880B",
"1. c #C5920D",
"2. c #DD9B0C",
"3. c #FD8605",
"4. c #FC8A07",
"5. c #FB8909",
"6. c #FC9307",
"7. c #FB9C09",
"8. c #FB9708",
"9. c #CFAF10",
"0. c #FAA50A",
"q. c #FAAB0B",
"w. c #F7A80B",
"e. c #E6BC0F",
"r. c #F7B60D",
"t. c #F9B30D",
"y. c #F7BD0F",
"u. c #F8BB0E",
"i. c #ED873F",
"p. c #F08D32",
"a. c #EC9539",
"s. c #F7C30F",
"d. c #F7C310",
"f. c #F5CB11",
"g. c #F8C510",
"h. c #F4D313",
"j. c #F4DC15",
"k. c #F3E116",
"l. c #E7B647",
"z. c #E5C345",
"x. c #0000BB",
"c. c #0B00B5",
"v. c #1D1BBD",
"b. c #2602AF",
"n. c #3702A8",
"m. c #3C24A9",
"M. c #2621B6",
"N. c #2D25B4",
"B. c #4A079C",
"V. c #4D129E",
"C. c #4C09A2",
"Z. c #431BA6",
"A. c #4016A8",
"S. c #0000C2",
"D. c #0808C7",
"F. c #0000CC",
"G. c #1300C9",
"H. c #1312C2",
"J. c #0000D5",
"K. c #0000DD",
"L. c #2101C3",
"P. c #0000E2",
"I. c #0000EB",
"U. c #0000F4",
"Y. c #0000FD",
/* pixels */
"                                                                ",
"                                                                ",
"                        q w w 8 w q 0                           ",
"                  + g M C Z C f m n b l q .                     ",
"                q d p M Z Z ( #.5 3 3 4 2 #                     ",
"            6 p C Z N t C C @.% >.;.;.>.& > .                   ",
"          r d Z Z Z Z y M C / % :.-.-.-.$ * O                   ",
"        + d Z Z Z Z Z p a Z n 1 : < < ,.& , @                   ",
"        q C Z Z Z Z Z a a Z G $.&.*.*.=.*.%.b                   ",
"        g Z Z Z Z Z Z M a C N j z k z l l z s X                 ",
"        h Z Z Z Z Z N M p y t 7 t t y i y p y 7 9               ",
"        g Z Z Z N p t t p M N N C C C C C Z C N N R v u         ",
"        X.C C M t o p N Z Z Z Z Z Z C V M p y 9 t t y s u       ",
"        O.F c         ~ P S A A S D x ^       e B B d i u 8     ",
"        - ; n.F.        2.1.<.] 1.9.e.t.      B.= ; +.o.g 6     ",
"      F.n.b.x.F.      j.t.h.h.w.f.f.f.0.      F.x.c.G.L.n.      ",
"    F.F.J.x.x.F.    h.h.t.s.h.0.d.y.d.7.k.    F.x.x.J.F.F.      ",
"  x.F.K.K.S.x.F.  t.h.s.0.t.f.0.u.q.u.6.h.0.  H.x.x.K.K.F.x.    ",
"  F.J.P.P.S.x.v.  7.f.r.4.0.y.7.0.6.q.3.y.7.l.M.x.x.P.P.J.F.    ",
"  F.K.I.P.S.x.N.z.| y.7.' 4.0.| { ` } ' 8.3.a.N.x.x.P.I.K.F.    ",
"  K.I.I.P.S.x.Z.a.) 5.` Y ` [ ) Y K U L _ U  .Z.x.x.P.I.I.K.    ",
"  I.I.I.P.S.x.C...K U H J I U J H H H H H H E B.x.x.P.I.U.U.    ",
"  U.U.I.P.S.x.C.Q K I ` ' Y I H L L U U ) U W V.x.x.P.I.U.Y.    ",
"  U.Y.I.P.x.x.A.! T } 7.0.4.{ T [ { 4.| 7.4.p.m.x.x.P.I.Y.U.    ",
"  U.Y.U.P.S.x.M.i.6.t.u.u.t.7.{ q.8.u.7.0.r.z.M.x.x.P.U.Y.U.    ",
"    Y.Y.I.S.x.v.l.q.f.h.g.f.t.6.y.t.f.0.q.k.  H.x.x.I.Y.Y.      ",
"    I.Y.Y.J.x.D.    j.k.j.h.d.q.f.h.j.q.y.    F.x.J.Y.Y.I.      ",
"      U.Y.P.S.F.          k.h.g.k.k.          F.S.P.Y.U.        ",
"                                                                ",
"                                                                ",
"                                                                ",
"                                                                "
};
