/* XPM */
static const char *edit_clear_small[] = {
/* columns rows colors chars-per-pixel */
"16 16 108 2",
"   c #7B4A00",
".  c #7C4B00",
"X  c #AB1B0D",
"o  c #A12400",
"O  c #A03600",
"+  c #B8381D",
"@  c #804E01",
"#  c #845201",
"$  c #865203",
"%  c #AD4213",
"&  c #876400",
"*  c #A6690A",
"=  c #A96B0A",
"-  c #AB6D0B",
";  c #B2760B",
":  c #B2720C",
">  c #BC7A0F",
",  c #B06917",
"<  c #BB4A28",
"1  c #C17D10",
"2  c #C86D33",
"3  c #9A8500",
"4  c #9C8800",
"5  c #9C8B00",
"6  c #9D8C00",
"7  c #9E8D00",
"8  c #9F8D00",
"9  c #9E8D01",
"0  c #9F8D01",
"q  c #9F8E00",
"w  c #9F8E01",
"e  c #9F8E04",
"r  c #9F8F05",
"t  c #A18801",
"y  c #A08E01",
"u  c #A08F01",
"i  c #A08F05",
"p  c #A19008",
"a  c #A29009",
"s  c #A59411",
"d  c #AB9B1A",
"f  c #AE9E1B",
"g  c #B1A01D",
"h  c #BBA529",
"j  c #BEAE32",
"k  c #C0B02F",
"l  c #C6B530",
"z  c #C5B432",
"x  c #C6B633",
"c  c #C5B536",
"v  c #DAC203",
"b  c #DBC304",
"n  c #DCC407",
"m  c #DCC510",
"M  c #DCC610",
"N  c #DCC615",
"B  c #E3CB11",
"V  c #E5CD14",
"C  c #E7D018",
"Z  c #DFCA26",
"A  c #EED723",
"S  c #F3DB2A",
"D  c #F6DE2F",
"F  c #FBE437",
"G  c #FCE53C",
"H  c #FDE63C",
"J  c #CDBD41",
"K  c #CCBD43",
"L  c #CDBE45",
"P  c #D7B162",
"I  c #CFC149",
"U  c #D2C34F",
"Y  c #D8C84F",
"T  c #D6C856",
"R  c #DCCD58",
"E  c #DDCF5E",
"W  c #EDDA46",
"Q  c #E4D249",
"!  c #E4D34C",
"~  c #E5D44E",
"^  c #E6D656",
"/  c #E1D35B",
"(  c #E7D75B",
")  c #E7D85F",
"_  c #FBE544",
"`  c #FDE952",
"'  c #FDEA5F",
"]  c #E2D467",
"[  c #E7D96D",
"{  c #ECDC68",
"}  c #E8DA6C",
"|  c #F6D861",
" . c #EADC72",
".. c #EBDD77",
"X. c #EBDE77",
"o. c #F3E365",
"O. c #FDEB61",
"+. c #FDEA63",
"@. c #FDEC6B",
"#. c #FDEB6C",
"$. c #FDEC6D",
"%. c #FDEE7D",
"&. c #FBEA84",
"*. c #FDEF84",
"=. c #F8EA88",
"-. c #FBED8B",
";. c #FDEF8A",
":. c None",
/* pixels */
":..   :.:.:.:.:.:.:.:.:.:.:.:.:.",
"  * -   :.:.:.:.:.:.:.:.:.:.:.:.",
"  : 1 =   :.4 :.:.:.:.:.:.:.:.:.",
":.$ > 1 # 3 9 :.:.:.:.:.:.:.:.:.",
":.  @ ; t j g :.:.:.:.:.:.:.:.:.",
":.:.& 4 J X., O u :.:.:.:.:.:.:.",
":.:.9 Y { 2 X P  .J a 9 :.:.:.:.",
":.:.9 h < + | +.$.%.=.L i 9 :.:.",
":.:.:.o % &.@.*.$.` _ o.X.I f 9 ",
":.:.:.:.j ;.' +.` H S C M Q ] 9 ",
":.:.:.:.a ;.H F D A V b v ^ x 9 ",
":.:.:.:.u E W C B n b v ! R e :.",
":.:.:.:.:.d } M v v N ( T i :.:.",
":.:.:.:.:.u c ) Z ! [ x 9 :.:.:.",
":.:.:.:.:.:.9 U / x a 9 :.:.:.:.",
":.:.:.:.:.:.:.4 9 9 :.:.:.:.:.:."
};
