/* XPM */
static const char * arrow15x15_xpm[] = {
"15 15 24 1",
" 	c None",
".	c #FFFFFF",
"+	c #929292",
"@	c #000000",
"#	c #9F9F9F",
"$	c #262626",
"%	c #D8D8D8",
"&	c #5F5F5F",
"*	c #FEFEFE",
"=	c #4F4F4F",
"-	c #888888",
";	c #808080",
">	c #828282",
",	c #2A2A2A",
"'	c #7F7F7F",
")	c #D5D5D5",
"!	c #111111",
"~	c #646464",
"{	c #B8B8B8",
"]	c #989898",
"^	c #3A3A3A",
"/	c #9B9B9B",
"(	c #EDEDED",
"_	c #C9C9C9",
"...............",
"...............",
"...............",
"......+@+......",
"......#@@$%....",
"......#@@@@&*..",
"@@@@@@@@@@@@@#.",
"@@@@@@@@@@@@@@@",
"@@@@@@@@@@@@@=-",
";;;;>-=@@@@,').",
"......#@@!~{*..",
"......]@^/(....",
"......_;_......",
"...............",
"..............."};
