/* XPM */
static const char * arrow_xpm[] = {
"9 16 3 1",
"# c #000000", 
"+ c #808080",
". c #FFFFFF", 
".........",
".........",
".........",
".........",
"....#....",
"....##...",
"....###..",
"########.",
"#########",
"########+",
"++++###+.",
"....##+..",
"....#+...",
"....+....",
".........",
"........."};

static const char * empty_9x16_xpm[] = {
"9 16 2 1",
"# c #000000", 
". c #FFFFFF", 
".........",
".........",
".........",
".........",
".........",
".........",
".........",
".........",
".........",
".........",
".........",
".........",
".........",
".........",
".........",
"........."};

/* XPM */
static char * unchecked_xpm[] = {
"15 15 56 1",
" 	c None",
".	c #FFFFFF",
"+	c #8E8F8F",
"@	c #F4F4F4",
"#	c #AEB3B9",
"$	c #AFB4BA",
"%	c #B4B9BD",
"&	c #BBBEC1",
"*	c #CBCFD5",
"=	c #D0D3D8",
"-	c #D5D8DC",
";	c #DBDDDF",
">	c #C1C3C5",
",	c #CDD1D6",
"'	c #D2D5DA",
")	c #D8DBDE",
"!	c #DDDFE1",
"~	c #E2E3E4",
"{	c #C6C7C8",
"]	c #CDD1D7",
"^	c #D0D4D9",
"/	c #D4D7DB",
"(	c #E1E2E3",
"_	c #E5E6E6",
":	c #E8E8E8",
"<	c #CCCDCD",
"[	c #B2B7BC",
"}	c #DADCDF",
"|	c #E0E1E3",
"1	c #ECECEC",
"2	c #EDEDED",
"3	c #D4D5D6",
"4	c #B8BBBF",
"5	c #E4E5E5",
"6	c #EAEAEA",
"7	c #EFEFEF",
"8	c #F2F2F2",
"9	c #DCDDDE",
"0	c #BCBFC2",
"a	c #E3E4E5",
"b	c #E9E9E9",
"c	c #F5F5F5",
"d	c #E1E2E2",
"e	c #C2C4C6",
"f	c #F0F0F0",
"g	c #F6F6F6",
"h	c #E6E6E6",
"i	c #CACBCC",
"j	c #D4D4D5",
"k	c #DBDBDC",
"l	c #E0E1E1",
"m	c #E6E7E7",
"n	c #EAEBEB",
"o	c #EBECEC",
"p	c #EBEBEC",
"q	c #E9E9EA",
"...............",
".+++++++++++++.",
".+@@@@@@@@@@@+.",
".+@######$%&@+.",
".+@#****=-;>@+.",
".+@#**,')!~{@+.",
".+@#]^/;(_:<@+.",
".+@[-}|:1223@+.",
".+@4!5678889@+.",
".+@0ab28@c@d@+.",
".+@eb2f@gggh@+.",
".+@ijklmnopq@+.",
".+@@@@@@@@@@@+.",
".+++++++++++++.",
"..............."};

/* XPM */
static char * checked_xpm[] = {
"15 15 70 1",
" 	c #FFFFFF",
".	c #8E8F8F",
"+	c #F4F4F4",
"@	c #F8F8F8",
"#	c #F9F9F9",
"$	c #F6F6F6",
"%	c #AEB3B9",
"&	c #C9CCD0",
"*	c #76DB7E",
"=	c #45CE4F",
"-	c #DCDFE4",
";	c #F5F5F5",
">	c #CBCFD5",
",	c #C9D3D2",
"'	c #EBEFEF",
")	c #2EAF37",
"!	c #289730",
"~	c #9CE5A2",
"{	c #CDD1D6",
"]	c #E0E2E6",
"^	c #90E196",
"/	c #3DB351",
"(	c #E4EAE5",
"_	c #ADB5B7",
":	c #D5D9DD",
"<	c #DFE2E5",
"[	c #D5D8DC",
"}	c #EFF5F1",
"|	c #30B93A",
"1	c #289B31",
"2	c #A1E6A6",
"3	c #DBDCDC",
"4	c #C5C9CD",
"5	c #B3EAB7",
"6	c #87D693",
"7	c #E9F1EA",
"8	c #A0E5A5",
"9	c #299E32",
"0	c #33C23D",
"a	c #D5D5D6",
"b	c #CDF2D0",
"c	c #3ACB45",
"d	c #299A33",
"e	c #BFE9C6",
"f	c #33C43E",
"g	c #2A9F32",
"h	c #9BE4A0",
"i	c #F5F7F5",
"j	c #DCDDDE",
"k	c #C8D4CC",
"l	c #D0EFD5",
"m	c #299C31",
"n	c #32BD3C",
"o	c #F7FAF9",
"p	c #DFE4E0",
"q	c #C6C8CA",
"r	c #E5F0E9",
"s	c #62D56A",
"t	c #2BA233",
"u	c #93E299",
"v	c #F7F9F8",
"w	c #E5E7E5",
"x	c #CACBCC",
"y	c #D9DBDA",
"z	c #DEE3E8",
"A	c #76C38B",
"B	c #F2F3F6",
"C	c #ECEDED",
"D	c #EBEBEC",
"E	c #E9E9EA",
"               ",
" ............. ",
" .+++++++@#$+. ",
" .+%%%%%&*=-;. ",
" .+%>>>,')!~$. ",
" .+%>>{]^!/(+. ",
" .+_:<[}|123+. ",
" .+4567890@a+. ",
" .+bcdefghij+. ",
" .+klm9gno+p+. ",
" .+qrs9tuv$w+. ",
" .+xyzsABCDE+. ",
" .+++;#@;++++. ",
" ............. ",
"               "};
