/* XPM */
static const char * const AudacityLogo48x48_xpm[] = {
"48 48 665 2",
"  	c #FFFFFF",
". 	c #FBFBFD",
"+ 	c #F2F2F8",
"@ 	c #E4E4EF",
"# 	c #9191C0",
"$ 	c #4848B1",
"% 	c #1313C2",
"& 	c #0000CC",
"* 	c #1414C1",
"= 	c #4949B1",
"- 	c #9393C1",
"; 	c #9696C2",
"> 	c #1E1EBD",
", 	c #0000DB",
"' 	c #0000EF",
") 	c #0000FF",
"! 	c #1818C0",
"~ 	c #7777B1",
"{ 	c #F9F9FB",
"] 	c #FEFEFE",
"^ 	c #6F6FB0",
"/ 	c #0606C8",
"( 	c #0000CE",
"_ 	c #0000FA",
": 	c #0303FF",
"< 	c #1717FF",
"[ 	c #2A2AFF",
"} 	c #0000F7",
"| 	c #7171B0",
"1 	c #DBDBEA",
"2 	c #2020BC",
"3 	c #0000D3",
"4 	c #1919FF",
"5 	c #6464EA",
"6 	c #BFBFF0",
"7 	c #F7F7FD",
"8 	c #BEBEF1",
"9 	c #6464EB",
"0 	c #0000D5",
"a 	c #2121BC",
"b 	c #8888BB",
"c 	c #0101CB",
"d 	c #3B3BFF",
"e 	c #C7C7F1",
"f 	c #C6C6F0",
"g 	c #3A3AFF",
"h 	c #8C8CBD",
"i 	c #7575B1",
"j 	c #0000D2",
"k 	c #1111FF",
"l 	c #B2B2E9",
"m 	c #CACAF0",
"n 	c #1515FF",
"o 	c #A1A1C9",
"p 	c #0000D6",
"q 	c #3F3FF5",
"r 	c #FCFCFE",
"s 	c #3F3FF4",
"t 	c #0000D7",
"u 	c #A6A6CC",
"v 	c #ECECF4",
"w 	c #0505C9",
"x 	c #0000D1",
"y 	c #4B4BE4",
"z 	c #4A4AE4",
"A 	c #EDEDF4",
"B 	c #3636B5",
"C 	c #3030EF",
"D 	c #2F2FEF",
"E 	c #3737B4",
"F 	c #D7D7E8",
"G 	c #0000E7",
"H 	c #0707FF",
"I 	c #F0F0F9",
"J 	c #F2F2FA",
"K 	c #0909FF",
"L 	c #0000E9",
"M 	c #DADAEA",
"N 	c #4F4FB0",
"O 	c #0000D0",
"P 	c #6B6BC2",
"Q 	c #FEFEF7",
"R 	c #6969C4",
"S 	c #5252B0",
"T 	c #0909C7",
"U 	c #0000DE",
"V 	c #0000F9",
"W 	c #EFEFF7",
"X 	c #FFFFFD",
"Y 	c #FDFBDF",
"Z 	c #FEFEF4",
"` 	c #FFFFFC",
" .	c #FFFFF9",
"..	c #EEEEF7",
"+.	c #0000FB",
"@.	c #0000E1",
"#.	c #0A0AC6",
"$.	c #0000CF",
"%.	c #2020D5",
"&.	c #FFFFFE",
"*.	c #FDFCE7",
"=.	c #FEFDEC",
"-.	c #FCF3C4",
";.	c #FDFAD5",
">.	c #FEFEFD",
",.	c #FEFDEF",
"'.	c #2424D3",
").	c #CFCFE4",
"!.	c #4141BF",
"~.	c #FEFCE1",
"{.	c #FCF7C6",
"].	c #FEFCEB",
"^.	c #FDF9CA",
"/.	c #FCE09A",
"(.	c #FCF3B7",
"_.	c #FDFBDD",
":.	c #FFFEFC",
"<.	c #FDFBD8",
"[.	c #4E4EBB",
"}.	c #0000EA",
"|.	c #D0D0E4",
"1.	c #BEBEDA",
"2.	c #0000DF",
"3.	c #5C5CB5",
"4.	c #FEFDF0",
"5.	c #FCF8BE",
"6.	c #FCDF96",
"7.	c #FCF9C7",
"8.	c #FEFDE7",
"9.	c #FAF5A7",
"0.	c #FBCE73",
"a.	c #FBEE9F",
"b.	c #FBF6AE",
"c.	c #FEFDF3",
"d.	c #FCF2BE",
"e.	c #FCF4C7",
"f.	c #FFFEF7",
"g.	c #5E5EB4",
"h.	c #0000CD",
"i.	c #BBBBD8",
"j.	c #0000D4",
"k.	c #6060B3",
"l.	c #E7E7FA",
"m.	c #C3C3F3",
"n.	c #FEFEFF",
"o.	c #FBF7BB",
"p.	c #FAF5AB",
"q.	c #FCC260",
"r.	c #F9F39A",
"s.	c #F9F394",
"t.	c #F9F290",
"u.	c #FCBD50",
"v.	c #F9E886",
"w.	c #F9F396",
"x.	c #FAF5AA",
"y.	c #FEFCE3",
"z.	c #FCF8BF",
"A.	c #FBE197",
"B.	c #FCE5A4",
"C.	c #FEFDED",
"D.	c #6060B2",
"E.	c #CACAE1",
"F.	c #1717C0",
"G.	c #BFBFF2",
"H.	c #7777E4",
"I.	c #FFFEF6",
"J.	c #FBF6B9",
"K.	c #FAF4A3",
"L.	c #F9F397",
"M.	c #FDA635",
"N.	c #F8F184",
"O.	c #F8F07D",
"P.	c #F8F07A",
"Q.	c #FCAD36",
"R.	c #F8E36E",
"S.	c #F8F07F",
"T.	c #F9F084",
"U.	c #F9F28E",
"V.	c #FBD274",
"W.	c #FCD884",
"X.	c #FDFBE0",
"Y.	c #CCCCE1",
"Z.	c #9F9FC8",
"`.	c #6060B1",
" +	c #6060DF",
".+	c #FFFEF8",
"++	c #FBF7B7",
"@+	c #FAE88F",
"#+	c #F8F183",
"$+	c #FE9017",
"%+	c #F7E969",
"&+	c #F7EE67",
"*+	c #F7ED64",
"=+	c #FC9C1E",
"-+	c #F8DE58",
";+	c #F7EE69",
">+	c #F9D053",
",+	c #F8EF78",
"'+	c #F8F182",
")+	c #FCC356",
"!+	c #FBC966",
"~+	c #FCF8C4",
"{+	c #A2A2CA",
"]+	c #FCF8C3",
"^+	c #FAF49E",
"/+	c #FADA72",
"(+	c #F8ED7A",
"_+	c #F7EE70",
":+	c #FE840A",
"<+	c #F7D74A",
"[+	c #F6EB53",
"}+	c #F5EB50",
"|+	c #FD8C0E",
"1+	c #F7DA44",
"2+	c #F6EB54",
"3+	c #FBAA28",
"4+	c #F6ED63",
"5+	c #F7EE6D",
"6+	c #FCB43C",
"7+	c #FBBC4A",
"8+	c #F9F395",
"9+	c #FCF8C1",
"0+	c #FDFAD2",
"a+	c #FFFFFA",
"b+	c #D1D1E5",
"c+	c #FDFDFE",
"d+	c #1515C1",
"e+	c #0000D8",
"f+	c #FAEF9A",
"g+	c #F9D35E",
"h+	c #F8E260",
"i+	c #F6EB5D",
"j+	c #FF7C03",
"k+	c #F8C531",
"l+	c #F5E942",
"m+	c #F5E83F",
"n+	c #FF7E04",
"o+	c #F7D534",
"p+	c #F5E943",
"q+	c #FE890C",
"r+	c #F5E64C",
"s+	c #F6EC5A",
"t+	c #FCA427",
"u+	c #FBAF35",
"v+	c #F8F081",
"w+	c #FAF29F",
"x+	c #FCF8BC",
"y+	c #FFFEF9",
"z+	c #1616C0",
"A+	c #7979B2",
"B+	c #0000DC",
"C+	c #FBF6AD",
"D+	c #FAD770",
"E+	c #F8F07E",
"F+	c #F9CC4D",
"G+	c #F8D74B",
"H+	c #F6E349",
"I+	c #FF7901",
"J+	c #F9B41F",
"K+	c #F4E835",
"L+	c #F5DD2C",
"M+	c #F6D228",
"N+	c #F5E433",
"O+	c #FF7A01",
"P+	c #F7D535",
"Q+	c #F5EA49",
"R+	c #FC9616",
"S+	c #FCA223",
"T+	c #F7EE6F",
"U+	c #FBD36A",
"V+	c #FAF4A2",
"W+	c #FCF9C4",
"X+	c #7D7DB4",
"Y+	c #1212C3",
"Z+	c #0000E4",
"`+	c #FDFBDC",
" @	c #FBC04D",
".@	c #F9C73F",
"+@	c #F8CC38",
"@@	c #F6D836",
"#@	c #FBA413",
"$@	c #F3E72A",
"%@	c #F5CE1D",
"&@	c #F6CE1E",
"*@	c #F6D021",
"=@	c #F8C322",
"-@	c #F4E83A",
";@	c #FD890B",
">@	c #FC9715",
",@	c #F6EC5D",
"'@	c #F7E264",
")@	c #FBB440",
"!@	c #F9F292",
"~@	c #FAF2A2",
"{@	c #5F5FCF",
"]@	c #0000DA",
"^@	c #D3D3E6",
"/@	c #5F5ED0",
"(@	c #F8F189",
"_@	c #FCA82F",
":@	c #F6ED61",
"<@	c #F9C233",
"[@	c #F8C12A",
"}@	c #F7CD29",
"|@	c #FF7601",
"1@	c #FC940A",
"2@	c #F3E621",
"3@	c #F7BF14",
"4@	c #F6CA17",
"5@	c #F8BC15",
"6@	c #F8B115",
"7@	c #F4E62E",
"8@	c #FE8C0C",
"9@	c #F9C33D",
"0@	c #FCAB32",
"a@	c #F8F185",
"b@	c #FBDC7C",
"c@	c #5E5CC0",
"d@	c #6C6CB0",
"e@	c #5E5CBE",
"f@	c #FD9217",
"g@	c #F6EC55",
"h@	c #F9BB29",
"i@	c #F9B71F",
"j@	c #F99116",
"k@	c #FF5A01",
"l@	c #FE8404",
"m@	c #F3E51C",
"n@	c #F9B10D",
"o@	c #F8AD11",
"p@	c #F99F0C",
"q@	c #FB8C0B",
"r@	c #F4D120",
"s@	c #FF7801",
"t@	c #FE8004",
"u@	c #FBA420",
"v@	c #FCA325",
"w@	c #F8EA72",
"x@	c #FBC75A",
"y@	c #5F5CBC",
"z@	c #6E6EB0",
"A@	c #3C3CB3",
"B@	c #0000E8",
"C@	c #5F59B6",
"D@	c #F9EB81",
"E@	c #F7EF72",
"F@	c #FE7407",
"G@	c #F6D944",
"H@	c #F9B721",
"I@	c #F9AD18",
"J@	c #FB700E",
"K@	c #FF4601",
"L@	c #FF5E01",
"M@	c #F4E018",
"N@	c #FAA20A",
"O@	c #FF6A01",
"P@	c #FA8A0B",
"Q@	c #FE4E05",
"R@	c #FF7401",
"S@	c #FE2E03",
"T@	c #F98D10",
"U@	c #FF6401",
"V@	c #FF5701",
"W@	c #F4D934",
"X@	c #FD8309",
"Y@	c #FD9A1B",
"Z@	c #F8D457",
"`@	c #FBBE4C",
" #	c #5E5BB9",
".#	c #0000E3",
"+#	c #3F3FB3",
"@#	c #1919BF",
"##	c #0000E6",
"$#	c #0000EB",
"%#	c #5F4CA5",
"&#	c #FAD25F",
"*#	c #FAC947",
"=#	c #F7BD33",
"-#	c #FAAF1B",
";#	c #FB820D",
">#	c #FC5C09",
",#	c #FF3301",
"'#	c #FF2601",
")#	c #F7AE10",
"!#	c #FD5F04",
"~#	c #FF4A01",
"{#	c #FA800A",
"]#	c #FF0D01",
"^#	c #FF3901",
"/#	c #FF0B01",
"(#	c #FC5007",
"_#	c #FF4701",
":#	c #FF1601",
"<#	c #F98518",
"[#	c #FF5401",
"}#	c #FF4D03",
"|#	c #FC6D22",
"1#	c #FC7A2A",
"2#	c #5E52AB",
"3#	c #1A1ABE",
"4#	c #0000DD",
"5#	c #601D89",
"6#	c #FAD05A",
"7#	c #FF8309",
"8#	c #FF1E01",
"9#	c #F8A126",
"0#	c #FF2C04",
"a#	c #FF0A01",
"b#	c #FD3B05",
"c#	c #FF1D01",
"d#	c #FF0901",
"e#	c #FA830B",
"f#	c #FF1802",
"g#	c #FF2001",
"h#	c #FD4105",
"i#	c #FF0101",
"j#	c #FF1402",
"k#	c #FF1B03",
"l#	c #FF1201",
"m#	c #FE531B",
"n#	c #602E90",
"o#	c #0B0BD1",
"p#	c #0000EE",
"q#	c #600F83",
"r#	c #FC7A2D",
"s#	c #FF2901",
"t#	c #FF0201",
"u#	c #FD4A0C",
"v#	c #FF0301",
"w#	c #FC5C06",
"x#	c #FF1E06",
"y#	c #0000EC",
"z#	c #0606F0",
"A#	c #0000F5",
"B#	c #FE3B10",
"C#	c #FF0501",
"D#	c #FE1E02",
"E#	c #FE2803",
"F#	c #0000F6",
"G#	c #2B2BB8",
"H#	c #0000FC",
"I#	c #0000F0",
"J#	c #FF0E02",
"K#	c #FF0801",
"L#	c #FE1402",
"M#	c #FF3D01",
"N#	c #FB6D09",
"O#	c #FF0701",
"P#	c #FF1001",
"Q#	c #FE1A02",
"R#	c #FF0C01",
"S#	c #FE0A01",
"T#	c #2D2DFF",
"U#	c #5C5CAF",
"V#	c #FE380A",
"W#	c #FF1A02",
"X#	c #FD580C",
"Y#	c #FC910C",
"Z#	c #FF6001",
"`#	c #F6B112",
" $	c #FE6804",
".$	c #FC4805",
"+$	c #FD3704",
"@$	c #FF2701",
"#$	c #FA720A",
"$$	c #FF0E01",
"%$	c #FF4501",
"&$	c #F8A820",
"*$	c #FF7301",
"=$	c #FF5707",
"-$	c #FE5918",
";$	c #FE4615",
">$	c #5F348E",
",$	c #5F5FE3",
"'$	c #A9A9CD",
")$	c #5F3D9E",
"!$	c #FF4402",
"~$	c #FF3307",
"{$	c #FE4D10",
"]$	c #FB9C1A",
"^$	c #FB7311",
"/$	c #F9AD16",
"($	c #F4E220",
"_$	c #FBA50E",
":$	c #FF5501",
"<$	c #F7A312",
"[$	c #FF6601",
"}$	c #FA800C",
"|$	c #FF7303",
"1$	c #FF7403",
"2$	c #F5DB21",
"3$	c #FF4602",
"4$	c #FD8D0D",
"5$	c #F4E63B",
"6$	c #FC9F1F",
"7$	c #F9CE50",
"8$	c #5E4EA8",
"9$	c #ACACE7",
"0$	c #0000ED",
"a$	c #5E5CB9",
"b$	c #FD9520",
"c$	c #FC9B2D",
"d$	c #FB9D23",
"e$	c #F8C030",
"f$	c #FAB120",
"g$	c #F8C122",
"h$	c #FE8205",
"i$	c #F3E729",
"j$	c #F7C11A",
"k$	c #FF6E01",
"l$	c #F6C31E",
"m$	c #FF4103",
"n$	c #F4D520",
"o$	c #FD8B07",
"p$	c #FC980D",
"q$	c #F4E72D",
"r$	c #FC8E0B",
"s$	c #FC9C14",
"t$	c #F5EA47",
"u$	c #FABB39",
"v$	c #F8ED76",
"w$	c #FAD066",
"x$	c #5E5BBB",
"y$	c #F9F9FD",
"z$	c #4848EF",
"A$	c #5E5CBC",
"B$	c #FCB94D",
"C$	c #FACA55",
"D$	c #FCA82C",
"E$	c #F8D94C",
"F$	c #FAB226",
"G$	c #F7D637",
"H$	c #FD910E",
"I$	c #F5DE2D",
"J$	c #F6DB2C",
"K$	c #FE820A",
"L$	c #FE8406",
"M$	c #F4E731",
"N$	c #FC960E",
"O$	c #F9B01B",
"P$	c #F4E839",
"Q$	c #FAA71C",
"R$	c #FCA31C",
"S$	c #FF8108",
"T$	c #F9D75B",
"U$	c #F9F298",
"V$	c #4B4BDE",
"W$	c #E7E7F7",
"X$	c #0101FF",
"Y$	c #5E5DC1",
"Z$	c #FADF83",
"`$	c #FAD96F",
" %	c #FBBF47",
".%	c #F7ED6A",
"+%	c #F9BA34",
"@%	c #F6E952",
"#%	c #FCA41D",
"$%	c #F5EA44",
"%%	c #F5E941",
"&%	c #FD8B0B",
"*%	c #F6E43B",
"=%	c #FC9812",
"-%	c #FB9E15",
";%	c #F5E93F",
">%	c #FCA118",
",%	c #F7CB32",
"'%	c #F9C133",
")%	c #FCAA28",
"!%	c #F7ED66",
"~%	c #FE8A12",
"{%	c #F8EF81",
"]%	c #FAF5A5",
"^%	c #605FCF",
"/%	c #0202FF",
"(%	c #EAEAF7",
"_%	c #6262D3",
":%	c #0000E0",
"<%	c #5F5ECF",
"[%	c #F9EE94",
"}%	c #F9D76C",
"|%	c #F8F07B",
"1%	c #F9D255",
"2%	c #F7ED65",
"3%	c #F9C53E",
"4%	c #F6EC56",
"5%	c #FBA923",
"6%	c #F6E74D",
"7%	c #FBA21D",
"8%	c #FABB2E",
"9%	c #F6EB51",
"0%	c #FBAD27",
"a%	c #F6E652",
"b%	c #F7DA53",
"c%	c #FBB135",
"d%	c #FCAA36",
"e%	c #FAF5A6",
"f%	c #6464D1",
"g%	c #3939F2",
"h%	c #6060B8",
"i%	c #FDFAD1",
"j%	c #F9EF97",
"k%	c #F9F28F",
"l%	c #F8EC7F",
"m%	c #F8E96B",
"n%	c #F7EE6C",
"o%	c #F7EE68",
"p%	c #FAC845",
"q%	c #F7EC63",
"r%	c #FBAC2D",
"s%	c #F9D751",
"t%	c #FACF4C",
"u%	c #F7EF71",
"v%	c #FBBF4C",
"w%	c #F9F28C",
"x%	c #FBCB67",
"y%	c #FDFBDB",
"z%	c #3636F6",
"A%	c #4848F2",
"B%	c #6060C4",
"C%	c #FAF6AE",
"D%	c #F9F399",
"E%	c #F8F188",
"F%	c #F9E874",
"G%	c #FBBE48",
"H%	c #F8EF7A",
"I%	c #F8F07C",
"J%	c #F8EE7D",
"K%	c #FAE07F",
"L%	c #FAF4A1",
"M%	c #FAEC9F",
"N%	c #FBF6B7",
"O%	c #4B4BEF",
"P%	c #BABAEE",
"Q%	c #2F2FFF",
"R%	c #6060D6",
"S%	c #0808CE",
"T%	c #B0B0EF",
"U%	c #FEFCE2",
"V%	c #FBF7B9",
"W%	c #FAF5AD",
"X%	c #FAF49F",
"Y%	c #F9F293",
"Z%	c #F9F291",
"`%	c #FAE581",
" &	c #FAF4A0",
".&	c #FEFCE6",
"+&	c #FCF8BB",
"@&	c #FAF5AC",
"#&	c #FBF6B4",
"$&	c #FBF7BD",
"%&	c #AFAFEF",
"&&	c #3030FF",
"*&	c #BCBCEE",
"=&	c #FAFAFE",
"-&	c #F3F3FD",
";&	c #F4F4FD",
">&	c #FDFCE2",
",&	c #FDFCE3",
"'&	c #FCF9C6",
")&	c #FAF6AD",
"!&	c #FDFCE4",
"~&	c #FEFEF5",
"{&	c #FEFDE8",
"]&	c #FEFDEB",
"^&	c #FBF8C0",
"                                                                                                ",
"                                            . + + .                                             ",
"                                  @ # $ % & & & & & & * = - @                                   ",
"                            . ; > & & & , ' ) ) ) ) ' , & & & ! ~ {                             ",
"                        ] ^ / & ( _ ) ) ) : < [ [ < : ) ) ) } ( & / | ]                         ",
"                      1 2 & 3 ) ) 4 5 6 7             7 8 9 4 ) ) 0 & a 1                       ",
"                    b c & ) ) d e                             f g ) ) & c h                     ",
"                  i & j ) k l                                     m n ) 3 & ^                   ",
"                o & p ) q r                                         r s ) t & u                 ",
"              v w x ) y ]                                             ] z ) x w A               ",
"              B & ) C                                                     D ) & E               ",
"            F & G H I                                                     J K L & M             ",
"            N O ) P                           Q                             R ) O S             ",
"            T U V W                         X Y Z         `  .              ..+.@.#.            ",
"          v $.' %.                  &.*.&.  =.-.;.>.      =.,.                '.' $.A           ",
"          ).x L !.                  ~.{.].  ^./.(._.    :.<.~.                [.}.O |.          ",
"          1.( 2.3.                4.5.6.7.8.9.0.a.b.c.  ].d.e.f.              g.2.h.1.          ",
"          i.& j.k.l.m.n.        Q o.p.q.r.s.t.u.v.w.x.y.z.A.B.C.        n.m.l.D.j.& i.          ",
"        E.F.& O D.G.& H.      I.J.K.L.M.N.O.P.Q.R.S.T.U.L.V.W.X.        H.& G.D.O & F.Y.        ",
"      Z.c & & O `.G.&  +    .+++@+t.#+$+%+&+*+=+-+;+>+,+'+)+!+~+         +& G.`.O & & c {+      ",
"    |.c & & O 3 `.G.&  +    ]+^+/+(+_+:+<+[+}+|+1+2+3+4+5+6+7+8+9+0+a+   +& G.`.3 $.& & c b+    ",
"  c+d+& & $.e+j.D.G.&  +  Y f+U.g+h+i+j+k+l+m+n+o+p+q+r+s+t+u+v+t.w+x+y+ +& G.D.j.p $.& & z+c+  ",
"  A+& & ( 2.B+0 D.G.&  +` C+D+E+F+G+H+I+J+K+L+I+M+N+O+P+Q+R+S+T+S.U+V+W+ +& G.D.0 B+2.$.& & X+  ",
"] Y+& h., Z+2.0 D.G.&  +`+w. @T+.@+@@@I+#@$@%@I+&@*@I+=@-@;@>@,@'@)@!@~@{@& G.D.0 2.Z+]@& & *   ",
"^@& & j.Z+L 2.0 D.G.& /@b.(@_@:@<@[@}@|@1@2@3@I+4@5@I+6@7@j+8@}+9@0@a@b@c@& G.D.0 2.L Z+3 & & F ",
"d@& $.U G G 2.0 D.G.& e@!@O.f@g@h@i@j@k@l@m@n@I+o@p@I+q@r@s@t@p+u@v@w@x@y@& G.D.0 2.G G 2.O & z@",
"A@& e+Z+}.B@2.0 D.G.& C@D@E@F@G@H@I@J@K@L@M@N@O@P@Q@R@S@T@U@V@W@X@Y@Z@`@ #& G.D.0 2.B@}..#p ( +#",
"@#O @.##$#B@2.0 D.G.& %#&#*#K@=#-#;#>#,#'#)#!#~#{#]#^#/#(#_#:#<#[#}#|#1#2#& G.D.0 2.B@$###@.0 3#",
"T 4#G }.$#B@2.0 D.G.& 5#6#7#8#9#0#a#b#c#d#e#f#g#h#i#i#i#j#/#i#k#l#i#a#m#n#& G.D.0 2.B@$#}.G @.o#",
"/ _ p#$#$#B@2.0 D.G.& q#r#s#t#u#i#i#v#t#i#w#v#i#d#i#i#i#i#i#i#i#i#i#i#x#q#& G.D.0 2.B@$#y#' ' z#",
"F.) A#' $#B@2.0 D.G.& q#B#i#i#C#i#C#i#D#i#E#i#i#i#i#i#i#i#i#i#i#i#i#i#i#q#& G.D.0 2.B@$#' F#) 4 ",
"G#) H#I#y#B@2.0 D.G.& q#J#i#K#i#L#M#:#N#i#K#K#i#i#O#P#i#Q#i#R#0#a#i#S#t#q#& G.D.0 2.B@y#I#) ) T#",
"U#) ) A#$#B@2.0 D.G.& q#i#i#V#W#X#Y#Z#`# $M#.$i#/#+$~#@$#$$$%$&$*$=$-$;$>$& G.D.0 2.B@$#A#) ) ,$",
"'$) ) ) ' }.2.0 D.G.& )$!$~${$]$^$/$O+($_$:$<$a#[$}$|$1$2$3$4$5$I+6$7$7+8$& G.D.0 2.}.' ) ) ) 9$",
"{ : ) ) V 0$2.0 D.G.& a$b$c$d$e$f$g$h$i$j$k$l$m$I+n$o$p$q$r$s$t$j+u$v$w$x$& G.D.0 2.0$V ) ) : y$",
"  z$) ) ) A#@.0 D.G.& A$B$C$D$E$F$G$H$K+I$O+J$K$L$M$N$O$P$Q$R$2+S$T$a@U$c@& G.D.0 @.A#) ) ) V$  ",
"  W$X$) ) ) ##t D.G.& Y$Z$`$ %.%+%@%#%$%%%&%*%=%-%;%>%,%Q+'%)%!%~%{%s.]%^%& G.D.t ##) ) ) /%(%  ",
"    _%) ) ) ) :%k.G.& <%x.[%}%|%1%2%3%4%[+5%6%7%8%9%0%a%,@b%c%,+d%s.e%y. +& G.k.:%) ) ) ) f%    ",
"    ] g%) ) ) ) h%G.&  +i%x.j%k%l%P.m%n%o%p%q%r%s%!%t%n%u%,+v%w%x%]%y%   +& G.h%) ) ) ) z%]     ",
"      r A%) ) ) B%G.&  +  0+C%K.D%t.E%#+S.F%|%G%H%I%J%#+E%k%K%L%M%N%Q    +& G.B%) ) ) O%c+      ",
"          P%Q%) R%G.S%T%    U%V%W%]%X%++++Y%Z%`%Z%Y%w. &.&+&@&#&$&;.    %&S%G.R%) &&*&          ",
"              c+=&-&;&        X C.>&,&    ]+9.e%9.'&)&!&    ~&{&]&X       ;&-&=&c+              ",
"                                          X 0+^&U%  X                                           ",
"                                                                                                ",
"                                                                                                ",
"                                                                                                ",
"                                                                                                ",
"                                                                                                "};
