/* XPM */
static char *c8169b2d50cb41cad76e1f4043ed12c9jKCdMBOhG5jkkdto[] = {
/* columns rows colors chars-per-pixel */
"48 48 183 2 ",
"   c None",
".  c #F83A29",
"X  c #F83B29",
"o  c #F8382A",
"O  c #F8392A",
"+  c #F83C29",
"@  c #F83E28",
"#  c #FA671D",
"$  c #FB6B1D",
"%  c #FA681E",
"&  c #FB6A1E",
"*  c #FB6F1C",
"=  c #FB711B",
"-  c #FB751A",
";  c #FB7B18",
":  c #FB7C18",
">  c #FC7F18",
",  c #F84027",
"<  c #F84127",
"1  c #F84227",
"2  c #F94726",
"3  c #F94627",
"4  c #F94A26",
"5  c #F95123",
"6  c #F95323",
"7  c #F95422",
"8  c #F95522",
"9  c #F95423",
"0  c #FA5722",
"q  c #FA5623",
"w  c #FA5822",
"e  c #FA5922",
"r  c #D39F05",
"t  c #FD9F0F",
"y  c #FC8516",
"u  c #FC8616",
"i  c #FC8F13",
"p  c #FC8915",
"a  c #FC8A15",
"s  c #FC8D14",
"d  c #FC8018",
"f  c #FC9013",
"g  c #FD9513",
"h  c #FD9D10",
"j  c #D6A107",
"k  c #D5A207",
"l  c #D9A307",
"z  c #D8A407",
"x  c #DAA507",
"c  c #FDA10F",
"v  c #FDA30E",
"b  c #FEAC0C",
"n  c #FEAE0C",
"m  c #FEAF0C",
"M  c #F2B606",
"N  c #F3B807",
"B  c #F4B907",
"V  c #F6BA07",
"C  c #F8BC07",
"Z  c #FBBD06",
"A  c #FABD07",
"S  c #FBBE06",
"D  c #FFBF07",
"F  c #FEB30A",
"G  c #FEB609",
"H  c #FFBA09",
"J  c #FFBB09",
"K  c #FFC107",
"L  c #FFC109",
"P  c #FFC20A",
"I  c #FFC20B",
"U  c #FFC20C",
"Y  c #FFC20D",
"T  c #FFC30E",
"R  c #FFC413",
"E  c #FFC619",
"W  c #F9C21E",
"Q  c #FDC51C",
"!  c #FEC51D",
"~  c #FDC51E",
"^  c #FCC51F",
"/  c #FFC71E",
"(  c #FFC71F",
")  c #FFC822",
"_  c #FFCA33",
"`  c #FFCD33",
"'  c #FFCB34",
"]  c #FFCB36",
"[  c #FFCC34",
"{  c #FFCC35",
"}  c #FFCD37",
"|  c #FFCE37",
" . c #FFCD38",
".. c #FFCE38",
"X. c #2F3D89",
"o. c #2F3D8A",
"O. c #313F8E",
"+. c #32408D",
"@. c #36469B",
"#. c #37469D",
"$. c #36479D",
"%. c #37479D",
"&. c #37469E",
"*. c #3847A1",
"=. c #3848A0",
"-. c #3948A2",
";. c #3849A2",
":. c #3949A2",
">. c #3849A3",
",. c #394BA6",
"<. c #3A4AA6",
"1. c #3A4BA6",
"2. c #3C4DAD",
"3. c #3D4FB0",
"4. c #3D4FB1",
"5. c #3E4EB0",
"6. c #3E4FB0",
"7. c #3E4EB1",
"8. c #3E50B2",
"9. c #3E50B3",
"0. c #3F51B4",
"q. c #3F51B5",
"w. c #3F52B4",
"e. c #4153B1",
"r. c #4253B1",
"t. c #4152B3",
"y. c #4253B3",
"u. c #4354B0",
"i. c #4254B3",
"p. c #4455B0",
"a. c #4455B2",
"s. c #4556B3",
"d. c #4053B4",
"f. c #4052B5",
"g. c #4152B5",
"h. c #4153B5",
"j. c #4152B6",
"k. c #4153B6",
"l. c #4254B6",
"z. c #4354B6",
"x. c #4657B7",
"c. c #495AB7",
"v. c #4C5DB7",
"b. c #4657B8",
"n. c #4758B8",
"m. c #4759B8",
"M. c #4959B8",
"N. c #4B5CBA",
"B. c #4C5EB8",
"V. c #4D5EBB",
"C. c #4E5EBA",
"Z. c #4E5FBA",
"A. c #4F5FBA",
"S. c #4E5EBB",
"D. c #4F5EBB",
"F. c #4F5FBB",
"G. c #505FBA",
"H. c #505FBB",
"J. c #4F60BD",
"K. c #5161BA",
"L. c #5061BB",
"P. c #5261BB",
"I. c #5262BB",
"U. c #5061BC",
"Y. c #5161BC",
"T. c #5261BC",
"R. c #5162BC",
"E. c #5062BD",
"W. c #5163BD",
"Q. c #5262BC",
"!. c #5262BD",
"~. c #5362BD",
"^. c #1C7FCE",
"/. c #1C80CE",
"(. c #2195F2",
"). c #2196F2",
"_. c #2196F3",
"`. c #2296F3",
"'. c #359FF3",
"]. c #359FF4",
"[. c #49AAF5",
"{. c #49A9F6",
"}. c #4EAAF6",
/* pixels */
"                                                                                                ",
"                                                                                                ",
"                                                                                                ",
"                                                                                                ",
"                                                                                                ",
"                                                                                                ",
"                                        !.!.K.!.~.!.!.K.                                        ",
"                                  K.!.N.x.l.j.j.j.j.j.b.Z.!.K.                                  ",
"                              !.H.b.q.q.q.q.q.q.q.q.q.q.q.q.m.G.!.                              ",
"                            !.m.q.q.q.j.q.q.q.j.q.q.q.q.q.q.q.q.m.!.                            ",
"                          Z.l.q.q.q.q.3.%.            %.3.q.q.q.q.l.H.                          ",
"                        Z.j.q.q.q.3.o.                    o.3.q.q.q.j.S.                        ",
"                      Z.j.q.q.q.,.                            ,.q.q.q.j.Z.                      ",
"                    G.l.q.q.q.%.                                %.q.q.q.x.J.                    ",
"                    m.q.q.q.,.                                    <.q.q.4.m.                    ",
"                  v.q.q.q.3.                                        3.q.q.j.Z.                  ",
"                  x.q.q.j.                                          +.q.q.q.x.                  ",
"                  j.q.q.3.                                            3.q.q.j.                  ",
"                u.q.q.q.*.                                            >.q.q.q.u.                ",
"                r.q.q.j.                                                q.q.q.r.                ",
"                j.q.q.q.                                                q.q.q.r.                ",
"                q.q.q.q.                                                q.q.q.q.                ",
"                j.q.q.q.                                                q.q.q.j.                ",
"                w.q.q.q.                    ' ....'                     q.q.q.q.                ",
"              !.q.q.q.q.[.}.}.[.    ' ..} ` ) I Y ( _           [.}.}.[.j.q.q.q.!.              ",
"          K.Z.b.q.q.q.q.]._.).].  } ( Y Y E K w w K ( ..} }     ]._.`.].q.q.q.q.b.Z.K.          ",
"        J.m.q.q.q.q.q.q._._._._.  ( D w w K n o o G I Y I ( }   _._._._.q.q.q.q.q.q.m.!.        ",
"        b.q.q.q.q.q.q.q._._._._.  I h o o H a o o v K 0 0 K (   _._._._.q.q.q.q.q.q.q.b.        ",
"      c.q.q.q.q.q.q.q.q._._._._.W K & o o n # o o i F o o n I   _._._._.q.q.q.q.q.q.q.q.N.      ",
"      j.q.q.q.q.q.q.q.q._._._._.R H @ o o c 3 o o ; h o o i K   _._._._.q.q.q.q.q.q.q.q.j.      ",
"    u.q.q.q.q.q.q.q.q.q._._.)._.K s o o o > o o o # y o o = K ( _._._._.q.q.q.q.q.q.q.q.w.a.    ",
"    l.q.q.q.q.q.q.q.q.q._._.).).K w o 1 o 6 o 4 o 6 * o o 6 K Y _._._.).q.q.q.q.q.q.q.q.j.j.    ",
"    j.q.q.q.q.q.q.q.q.q.)._._._.v o , - o o o > o 1 0 o o o D H )._._._.q.q.q.q.q.q.q.q.q.j.    ",
"    w.q.q.q.q.q.q.q.q.q._._._._.o o & a o o o b @ o X o 2 o t & ).)._._.q.q.q.q.q.q.q.q.q.q.    ",
"    2.j.q.q.q.q.q.q.q.q._._._._.o o h g o o 3 K 0 o o 1 = o 0 o _._._._.q.q.q.q.q.q.q.q.j.3.    ",
"    ,.q.q.q.q.q.q.q.q.q._._._._.6 9 D v o o & I # o o 0 f o o o _._._._.q.q.q.q.q.q.q.q.q.,.    ",
"      q.q.q.q.q.q.q.q.q._._._._.K K K n o o a K ; o o * n o o & _._._._.q.q.q.q.q.q.q.q.q.      ",
"      w.q.q.q.q.q.q.q.q._._._._.V V K H o o n K i o o y K 0 0 H _._._._.q.q.q.q.q.q.q.q.3.      ",
"      +.q.q.q.q.q.q.q.q._._._._.    S K 0 0 K K v o o t K K K K _._._._.q.q.q.q.q.q.q.q.        ",
"        >.q.q.q.q.q.q.q._._._._.    z K K K K K G o o F K M M k _._._._.q.q.q.q.q.q.j.>.        ",
"          %.q.j.q.q.q.q.).)._.).      k D V   S K 0 0 K S       )._.).).q.q.q.q.q.q.@.          ",
"              >.3.q.q.2.^.).).^.              l K K K I z       ^.).)./.2.q.q.3.>.              ",
"                                                k S S r                                         ",
"                                                                                                ",
"                                                                                                ",
"                                                                                                ",
"                                                                                                ",
"                                                                                                "
};
