/* XPM */
static const char * AudacityLogoAlpha_xpm[] = {
"48 48 201 2",
"  	c None",
". 	c #0000A6",
"+ 	c #0000CC",
"@ 	c #0000B0",
"# 	c #0000C6",
"$ 	c #0000D3",
"% 	c #0000F9",
"& 	c #0000FF",
"* 	c #0000D4",
"= 	c #0000C5",
"- 	c #0000BF",
"; 	c #0000CE",
"> 	c #0000C1",
", 	c #0000DA",
"' 	c #0000FC",
") 	c #0000B2",
"! 	c #0000B3",
"~ 	c #0000BA",
"{ 	c #0000D9",
"] 	c #0000BB",
"^ 	c #000086",
"/ 	c #0000E2",
"( 	c #00008A",
"_ 	c #0000D1",
": 	c #0000FB",
"< 	c #0000B8",
"[ 	c #C4C400",
"} 	c #0000E9",
"| 	c #E7CE00",
"1 	c #DDDD00",
"2 	c #0000E8",
"3 	c #0000F0",
"4 	c #EFDF0F",
"5 	c #EEEE00",
"6 	c #E8DC0D",
"7 	c #F1DB0C",
"8 	c #DFDF00",
"9 	c #D5D500",
"0 	c #0000E5",
"a 	c #0000D2",
"b 	c #ECDF14",
"c 	c #EDDE11",
"d 	c #F2E414",
"e 	c #F2E013",
"f 	c #F1E314",
"g 	c #F3E211",
"h 	c #EFE00F",
"i 	c #EAD514",
"j 	c #0000DC",
"k 	c #F0E012",
"l 	c #FE7C01",
"m 	c #F0E214",
"n 	c #F2E115",
"o 	c #F1E415",
"p 	c #EDE111",
"q 	c #E9DD11",
"r 	c #0000CD",
"s 	c #F0E113",
"t 	c #F2E313",
"u 	c #FF7901",
"v 	c #F2E315",
"w 	c #F1E216",
"x 	c #F1E315",
"y 	c #F4C810",
"z 	c #F2E415",
"A 	c #F2E215",
"B 	c #EFE314",
"C 	c #F1E316",
"D 	c #F0E316",
"E 	c #F2E316",
"F 	c #F2E416",
"G 	c #F1E416",
"H 	c #F0E215",
"I 	c #F1E40D",
"J 	c #0000A1",
"K 	c #0000E3",
"L 	c #F3E416",
"M 	c #FA9A08",
"N 	c #F3DB14",
"O 	c #EFE316",
"P 	c #0000A5",
"Q 	c #0000EA",
"R 	c #0000EB",
"S 	c #F2E216",
"T 	c #F2E516",
"U 	c #F2E417",
"V 	c #FA9B07",
"W 	c #F4CA10",
"X 	c #E7DB0C",
"Y 	c #FD8503",
"Z 	c #F1E414",
"` 	c #0000E6",
" .	c #FA9E07",
"..	c #F6C30F",
"+.	c #F5CC11",
"@.	c #0000B9",
"#.	c #F1E30E",
"$.	c #FE7B01",
"%.	c #FA9E08",
"&.	c #F3E417",
"*.	c #F5C410",
"=.	c #0000C4",
"-.	c #F2E016",
";.	c #F3E516",
">.	c #F7BC0E",
",.	c #FC8204",
"'.	c #FF6101",
").	c #0000D5",
"!.	c #F5C810",
"~.	c #FC9005",
"{.	c #FF6E01",
"].	c #FF6A01",
"^.	c #F3E517",
"/.	c #FF0101",
"(.	c #F2E517",
"_.	c #F8B00C",
":.	c #FE1C01",
"<.	c #FA7209",
"[.	c #FF0401",
"}.	c #FF6C01",
"|.	c #FF6701",
"1.	c #FD3504",
"2.	c #FF7401",
"3.	c #F99F09",
"4.	c #0000D0",
"5.	c #FE1402",
"6.	c #F4C212",
"7.	c #FF0501",
"8.	c #FD1402",
"9.	c #0000F8",
"0.	c #F5B812",
"a.	c #FE0901",
"b.	c #FE0601",
"c.	c #0000EC",
"d.	c #0000EF",
"e.	c #F3D214",
"f.	c #F5BC11",
"g.	c #0000F5",
"h.	c #FD2903",
"i.	c #FF5701",
"j.	c #FF0201",
"k.	c #F5C912",
"l.	c #FF2401",
"m.	c #0000F4",
"n.	c #F86D0B",
"o.	c #FF3D01",
"p.	c #FC4005",
"q.	c #FE1501",
"r.	c #FE1002",
"s.	c #0000F7",
"t.	c #000074",
"u.	c #0000F1",
"v.	c #FF6901",
"w.	c #F9860C",
"x.	c #FE7E02",
"y.	c #F96B0A",
"z.	c #FB9C08",
"A.	c #F3E315",
"B.	c #FF5401",
"C.	c #F3DD15",
"D.	c #0000F2",
"E.	c #000076",
"F.	c #F9AA0A",
"G.	c #F4D313",
"H.	c #0000ED",
"I.	c #F7B40C",
"J.	c #F9A80A",
"K.	c #F8B30C",
"L.	c #0000FE",
"M.	c #F9A409",
"N.	c #0000FA",
"O.	c #F9A008",
"P.	c #FA9A07",
"Q.	c #FE7F02",
"R.	c #F4D713",
"S.	c #FE8202",
"T.	c #FA9607",
"U.	c #F1E313",
"V.	c #F2D914",
"W.	c #F4CE11",
"X.	c #F2DF15",
"Y.	c #FF7A01",
"Z.	c #F4CD11",
"`.	c #F5C50F",
" +	c #FD8302",
".+	c #EFDF10",
"++	c #0000E7",
"@+	c #F0E414",
"#+	c #F8B40D",
"$+	c #F3D313",
"%+	c #EFE116",
"&+	c #F3D612",
"*+	c #F0E115",
"=+	c #EEE316",
"-+	c #FFDF00",
";+	c #F2E214",
">+	c #EFE214",
",+	c #F1E513",
"'+	c #FFFF00",
")+	c #F2E413",
"!+	c #F8DE0F",
"                                    . + + + + + + + + + + @                                     ",
"                              # + + + + $ % & & & & % * + + + + =                               ",
"                          - + + ; & & & & & & & & & & & & & & ; + + >                           ",
"                        + + , & & & '                     ' & & & , + +                         ",
"                    ) + + & & &                                 & & & + + !                     ",
"                  ~ + { & &                                         & & { + ]                   ",
"                ^ + / & &                                             & & / + (                 ",
"                + _ & &                                                 & & _ +                 ",
"              + + & &                                                     & & + +               ",
"              + : &                                                         & : +               ",
"            + + & <                           [                             ~ & + +             ",
"            + / }                             |             1                 2 / +             ",
"            + 3 ,                     4     5 6 7         8 9                 { 3 +             ",
"            + 0 a                   b c     d e f g       h i                 a 0 +             ",
"            ; j ;                   k l f   m m n o       p q                 ; j ;             ",
"            + , r                 s t u v w x y w z d   A B t                 r { +             ",
"          + + , r   + +         C f D u C E F u E G x z x H n I         + +   r { + +           ",
"      J + + K , r   + +       n E E v u L z F u F G M G G N v O         + +   r { K + + P       ",
"      + r Q R , r   + +     n S L E F u F T L u L U u F L V W x f C     + +   r { R Q r +       ",
"    + + Q R R , r   + +   X N E F G F u F L U u L F u L F u Y v x Z x   + +   r { R R Q + +     ",
"  < + ` R R R , r   + +   H  .F C F F u ..L L u L U u L F u u L F +.E w + +   r { R R R ` + @.  ",
"  + _ R R R R , r   + + #.x u F F F U u $.F T u T F u L F u u F G %.E Z + +   r { R R R R _ +   ",
"  + ` R R R R , r   + + S x u F L L U u u &.L u &.&.u *.T u u F F u v C + +   r { R R R R ` +   ",
"=.+ R R R R R , r   + + o F u F E -.U u u ;.>.u ;.,.u '.T u u L u u E x + +   r { R R R R R + = ",
"+ ).R R R R R , r   + + C z u F !.~.T {.].;.u u ^./.u /.&.u u (.u u F F + +   r { R R R R R ).+ ",
"+ / R R R R R , r   + + L F {.L _.:.<.[./.^./.}.^./.|./.1.u /.;.u 2.L 3.+ +   r { R R R R R / + ",
"4.} R R R R R , r   + + F u /.F /./.5././.^././.^././././././.6././.7.8.+ +   r { R R R R R } 4.",
"9.R R R R R R , r   + + z /./.(./././././.0././.a././././././././././.b.+ +   r { R R R R R c.9.",
"& d.R R R R R , r   + + e././././././.f././././././././././././././././.+ +   r { R R R R R d.& ",
"& g.R R R R R , r   + + /./././.h.i./.;././././././.j./.k./.j.l././././.+ +   r { R R R R R m.& ",
"& 9.R R R R R , r   + + /./././.n.u u ;.u o.p./././.u /.;./.u L u u q.r.+ +   r { R R R R R s.& ",
"t.u.c.R R R R , r   + + v.w./.x.y.z.u &.u u ;./.u A.u u &.B.u F u u F C.+ +   r { R R R R c.D.E.",
"  d.% R R R R , r   + + u F u U F.L u F T u T /.u T u u U u u L u G.E x + +   r { R R R R % d.  ",
"  D.& H.R R R , r   + + I.F u F J.(.u L L u ;.u u L u K.F u u L u F v C + +   r { R R R H.& u.  ",
"    & L.R R R , r   + + C v u F M.F u L L u F u u U u L F E u F u L E Z + +   r { R R R L.&     ",
"    & & N.R R , r   + + H o u F O.F P.U F Q.L u R.L S.F F F T.F u E E   + +   r { R R N.& &     ",
"      & & L.R , r   + + U.H V.x W.G X.E G E F Y.F F Z.L E x `.o  +Z .+  + +   r { R L.& &       ",
"        & & & ++r   + +   s @+S x E x E v F E #+E F v G o E $+S D U.    + +   r ++& & &         ",
"          ; & & u.  +       %+f U.H v v w w C &+C w @+v   *+m x =+H       +   u.& & 4.          ",
"                                    -+    n ;+>+>+,+w           '+                              ",
"                                            t )+!+                                              ",
"                                                                                                ",
"                                                                                                ",
"                                                                                                ",
"                                                                                                ",
"                                                                                                ",
"                                                                                                ",
"                                                                                                "};
