<svg xmlns="http://www.w3.org/2000/svg" width="64" height="64" version="1">
 <path style="opacity:0.2" d="M 32,8 A 23,23 0 0 0 9,31 v 3.498047 C 4.9544412,35.967443 2,40.55732 2,46 c 0,6.627414 4.3765594,12 9.775391,12 h 2.138671 C 13.914062,58 15,57.99935 15,56.666016 V 46 35.333984 31 A 17,17 0 0 1 32,14 17,17 0 0 1 49,31 V 35.333984 46 56.666016 C 49,57.99935 50.085937,58 50.085938,58 h 2.138671 C 57.623437,58 62,52.627414 62,46 62,40.55732 59.045558,35.967443 55,34.498047 V 31 A 23,23 0 0 0 32,8 Z"/>
 <path style="opacity:0.2" d="m 32.111328,32.001762 c -1.404062,-0.03516 -2.680147,0.634583 -3.542969,1.671875 -0.413088,-0.207698 -0.774032,-0.567148 -1.208984,-0.628906 -1.822325,-0.258748 -4.034109,0.818031 -4.818359,2.802734 l -1.960938,4.962891 c -0.336529,-0.03996 -0.675491,-0.141069 -0.998047,-0.09961 -1.194226,0.153499 -2.155763,0.751332 -2.839843,1.537109 -0.684081,0.785777 -1.145241,1.821404 -1.132813,3.025391 0.01243,1.203986 0.627363,2.503308 1.570313,3.324218 a 3.0003,3.0003 0 0 0 0.002,0.002 l 2.636718,2.294922 c 1.063434,0.925459 2.44798,1.164205 3.738282,0.925781 l 0.0098,0.101563 a 3.0003,3.0003 0 0 0 0,0.0039 c 0.211488,2.216567 2.213582,3.90049 4.111328,4.056641 0.846964,0.06969 1.742108,-0.248465 2.548828,-0.712891 0.388871,2.171359 2.477623,3.713027 4.369141,3.730469 1.929273,0.01779 4.115406,-1.535579 4.482422,-3.769531 l 0.05664,-0.34375 c 1.541939,0.26454 3.332356,-0.289548 4.380859,-1.695313 l 3.955078,-5.294922 c 0.747979,-1.001538 1.07443,-2.40063 0.832031,-3.580078 -0.242398,-1.179448 -0.911242,-2.095494 -1.746093,-2.71875 -0.834852,-0.623256 -1.902078,-1.003033 -3.101563,-0.90039 -0.345846,0.0296 -0.678594,0.205001 -1.019531,0.328125 L 41.66805,37.533052 c -0.473869,-2.154994 -2.623895,-3.58138 -4.513672,-3.53125 -0.40372,0.01071 -0.766085,0.326509 -1.167969,0.464844 -0.738625,-1.429672 -2.203513,-2.423029 -3.873047,-2.464844 z"/>
 <path style="fill:#ffc107" d="m 32.111328,31.001953 c -1.404062,-0.03516 -2.680147,0.634583 -3.542969,1.671875 -0.413088,-0.207698 -0.774032,-0.567148 -1.208984,-0.628906 -1.822325,-0.258748 -4.034109,0.818031 -4.818359,2.802734 l -1.960938,4.962891 c -0.336529,-0.03996 -0.675491,-0.141069 -0.998047,-0.09961 -1.194226,0.153499 -2.155763,0.751332 -2.839843,1.537109 -0.684081,0.785777 -1.145241,1.821404 -1.132813,3.025391 0.01243,1.203986 0.627363,2.503308 1.570313,3.324218 a 3.0003,3.0003 0 0 0 0.002,0.002 l 2.636718,2.294922 c 1.063434,0.925459 2.44798,1.164205 3.738282,0.925781 l 0.0098,0.101563 a 3.0003,3.0003 0 0 0 0,0.0039 c 0.211488,2.216567 2.213582,3.90049 4.111328,4.056641 0.846964,0.06969 1.742108,-0.248465 2.548828,-0.712891 0.388871,2.171359 2.477623,3.713027 4.369141,3.730469 1.929273,0.01779 4.115406,-1.535579 4.482422,-3.769531 l 0.05664,-0.34375 c 1.541939,0.26454 3.332356,-0.289548 4.380859,-1.695313 l 3.955078,-5.294922 c 0.747979,-1.001538 1.07443,-2.40063 0.832031,-3.580078 -0.242398,-1.179448 -0.911242,-2.095494 -1.746093,-2.71875 -0.834852,-0.623256 -1.902078,-1.003033 -3.101563,-0.90039 -0.345846,0.0296 -0.678594,0.205001 -1.019531,0.328125 l -0.767578,-3.492188 c -0.473869,-2.154994 -2.623895,-3.58138 -4.513672,-3.53125 -0.40372,0.01071 -0.766085,0.326509 -1.167969,0.464844 -0.738625,-1.429672 -2.203513,-2.423029 -3.873047,-2.464844 z"/>
 <path style="opacity:0.2;fill:#ffffff" d="M 32.111328 31.001953 C 30.707266 30.966793 29.431181 31.636536 28.568359 32.673828 C 28.155271 32.46613 27.794327 32.10668 27.359375 32.044922 C 25.53705 31.786174 23.325266 32.862953 22.541016 34.847656 L 20.580078 39.810547 C 20.243549 39.770587 19.904587 39.669478 19.582031 39.710938 C 18.387805 39.864436 17.426268 40.46227 16.742188 41.248047 C 16.058107 42.033824 15.596947 43.069451 15.609375 44.273438 C 15.611108 44.441305 15.62793 44.611231 15.652344 44.78125 C 15.75227 43.789572 16.154736 42.92283 16.742188 42.248047 C 17.426268 41.46227 18.387805 40.864436 19.582031 40.710938 C 19.904587 40.669478 20.243549 40.770587 20.580078 40.810547 L 22.541016 35.847656 C 23.325266 33.862953 25.53705 32.786174 27.359375 33.044922 C 27.794327 33.10668 28.155271 33.46613 28.568359 33.673828 C 29.431181 32.636536 30.707266 31.966793 32.111328 32.001953 L 32.113281 32.001953 C 33.782815 32.043768 35.247703 33.037125 35.986328 34.466797 C 36.388212 34.328462 36.750577 34.012663 37.154297 34.001953 C 39.044074 33.951823 41.1941 35.378209 41.667969 37.533203 L 42.435547 41.025391 C 42.776484 40.902267 43.109232 40.726866 43.455078 40.697266 C 44.654563 40.594623 45.721789 40.9744 46.556641 41.597656 C 47.391492 42.220912 48.060336 43.136958 48.302734 44.316406 C 48.319262 44.396823 48.326606 44.480237 48.337891 44.5625 C 48.38008 44.137936 48.38458 43.714646 48.302734 43.316406 C 48.060336 42.136958 47.391492 41.220912 46.556641 40.597656 C 45.721789 39.9744 44.654563 39.594623 43.455078 39.697266 C 43.109232 39.726866 42.776484 39.902267 42.435547 40.025391 L 41.667969 36.533203 C 41.1941 34.378209 39.044074 32.951823 37.154297 33.001953 C 36.750577 33.012663 36.388212 33.328462 35.986328 33.466797 C 35.247703 32.037125 33.782815 31.043768 32.113281 31.001953 L 32.111328 31.001953 z"/>
 <path style="opacity:0.2" d="M 17.25,34 C 16.0035,34 15,34.892 15,36 v 20 c 0,1.108 1.0035,2 2.25,2 h 1.5 C 19.9965,58 21,57.108 21,56 V 36 c 0,-1.108 -1.0035,-2 -2.25,-2 z m 28,0 C 44.0035,34 43,34.892 43,36 v 20 c 0,1.108 1.0035,2 2.25,2 h 1.5 C 47.9965,58 49,57.108 49,56 V 36 c 0,-1.108 -1.0035,-2 -2.25,-2 z"/>
 <path style="fill:#3f51b5" d="M 11.775455,33 C 6.3766238,33 2,38.372588 2,45 c 0,6.627414 4.3766238,12 9.775455,12 h 2.138382 v 0 C 13.913837,57 15,57 15,55.666666 V 34.333332 C 15,33.166666 13.94778,33 13.94778,33 Z"/>
 <path style="fill:#3f51b5" d="M 52.224546,33 C 57.623374,33 62,38.372588 62,45 c 0,6.627414 -4.376626,12 -9.775454,12 h -2.138383 v 0 C 50.086163,57 49,57 49,55.666666 V 34.333332 C 49,33.166666 50.05222,33 50.05222,33 Z"/>
 <path style="fill:none;stroke:#f8382a;stroke-width:3;stroke-linecap:round;stroke-linejoin:round" d="M 20.136364,44.204374 22.772728,46.5 l 3.954544,-10 1.318182,14 L 32,35.5 l 2.636364,18 2.636364,-16 2.636362,12 3.954546,-5.295626"/>
 <rect style="fill:#2196f3" width="6" height="24" x="15" y="33" rx="2.25" ry="2"/>
 <rect style="fill:#2196f3" width="6" height="24" x="43" y="33" rx="2.25" ry="2"/>
 <path style="fill:#3f51b5" d="M 32,7 A 23,23 0 0 0 9,30 v 15 h 6 V 30 A 17,17 0 0 1 32,13 17,17 0 0 1 49,30 v 15 h 6 V 30 A 23,23 0 0 0 32,7 Z"/>
 <path style="opacity:0.2;fill:#ffffff" d="M 17.25 33 C 16.0035 33 15 33.892 15 35 L 15 36 C 15 34.892 16.0035 34 17.25 34 L 18.75 34 C 19.9965 34 21 34.892 21 36 L 21 35 C 21 33.892 19.9965 33 18.75 33 L 17.25 33 z"/>
 <path style="opacity:0.2;fill:#ffffff" d="M 45.25 33 C 44.0035 33 43 33.892 43 35 L 43 36 C 43 34.892 44.0035 34 45.25 34 L 46.75 34 C 47.9965 34 49 34.892 49 36 L 49 35 C 49 33.892 47.9965 33 46.75 33 L 45.25 33 z"/>
 <path style="fill:#ffffff;opacity:0.1" d="M 32 7 A 23 23 0 0 0 9 30 L 9 31 A 23 23 0 0 1 32 8 A 23 23 0 0 1 55 31 L 55 30 A 23 23 0 0 0 32 7 z M 9 33.498047 C 4.9544412 34.967443 2 39.55732 2 45 C 2 45.149713 2.01315 45.294975 2.0175781 45.443359 C 2.2120026 40.247527 5.0938192 35.916819 9 34.498047 L 9 33.498047 z M 55 33.498047 L 55 34.498047 C 58.90618 35.916819 61.787997 40.247527 61.982422 45.443359 C 61.98685 45.294975 62 45.149713 62 45 C 62 39.55732 59.045558 34.967443 55 33.498047 z"/>
</svg>
