/* XPM */
static char * audacity32_xpm[] = {
"32 32 350 2",
"  	c None",
". 	c #000090",
"+ 	c #000086",
"@ 	c #000081",
"# 	c #000082",
"$ 	c #000083",
"% 	c #00008A",
"& 	c #000093",
"* 	c #0000A2",
"= 	c #00006B",
"- 	c #000058",
"; 	c #00004B",
"> 	c #000043",
", 	c #000052",
"' 	c #000054",
") 	c #000060",
"! 	c #000074",
"~ 	c #000087",
"{ 	c #00008D",
"] 	c #0B0B8F",
"^ 	c #020267",
"/ 	c #000070",
"( 	c #00008B",
"_ 	c #222297",
": 	c #0D0D5E",
"< 	c #000089",
"[ 	c #4D4DAF",
"} 	c #0D0D62",
"| 	c #00008E",
"1 	c #24249F",
"2 	c #242477",
"3 	c #0000AF",
"4 	c #17177C",
"5 	c #0000A4",
"6 	c #00009A",
"7 	c #000045",
"8 	c #000092",
"9 	c #00004E",
"0 	c #000078",
"a 	c #000050",
"b 	c #F3DB15",
"c 	c #F2E216",
"d 	c #0000A1",
"e 	c #00005F",
"f 	c #000063",
"g 	c #000051",
"h 	c #F3DF16",
"i 	c #F4DC15",
"j 	c #F4E616",
"k 	c #F6CD12",
"l 	c #F3E015",
"m 	c #F3E617",
"n 	c #F4E016",
"o 	c #F3E017",
"p 	c #050582",
"q 	c #0000C5",
"r 	c #00009C",
"s 	c #00004F",
"t 	c #F2E517",
"u 	c #F4D614",
"v 	c #F5CE12",
"w 	c #F3E517",
"x 	c #F7C00F",
"y 	c #F5DE16",
"z 	c #F2E617",
"A 	c #F6D413",
"B 	c #F4D213",
"C 	c #000094",
"D 	c #0000BB",
"E 	c #4040BE",
"F 	c #04047A",
"G 	c #0E0EC7",
"H 	c #5858BA",
"I 	c #00007C",
"J 	c #F2E616",
"K 	c #F3DD15",
"L 	c #F6CE12",
"M 	c #F7BE0F",
"N 	c #F9B30C",
"O 	c #F4DB15",
"P 	c #F5D413",
"Q 	c #F4E517",
"R 	c #F6C811",
"S 	c #F5C811",
"T 	c #010196",
"U 	c #0000C1",
"V 	c #1919C7",
"W 	c #1515AF",
"X 	c #00006C",
"Y 	c #0000CB",
"Z 	c #8686E3",
"` 	c #17179E",
" .	c #000040",
"..	c #02027D",
"+.	c #F3E217",
"@.	c #F5D113",
"#.	c #F6C610",
"$.	c #F9AF0C",
"%.	c #FAA50A",
"&.	c #F4D914",
"*.	c #F9B10C",
"=.	c #F3E417",
"-.	c #F7BD0E",
";.	c #F6C00F",
">.	c #F4E617",
",.	c #F2E618",
"'.	c #070792",
").	c #0000C8",
"!.	c #0000BF",
"~.	c #00008F",
"{.	c #000041",
"].	c #0303CD",
"^.	c #5D5DDA",
"/.	c #010147",
"(.	c #0C0C79",
"_.	c #F7C310",
":.	c #F8BD0E",
"<.	c #FBA009",
"[.	c #FC9707",
"}.	c #F5D614",
"|.	c #FB9B08",
"1.	c #F4D814",
"2.	c #F9B00C",
"3.	c #F8B70D",
"4.	c #F4D113",
"5.	c #F2E416",
"6.	c #1A1988",
"7.	c #0000CA",
"8.	c #0000C6",
"9.	c #0000A0",
"0.	c #0E0ECF",
"a.	c #0303C5",
"b.	c #030348",
"c.	c #242271",
"d.	c #F3E618",
"e.	c #F8B50D",
"f.	c #F9B40C",
"g.	c #FC8F06",
"h.	c #FD8904",
"i.	c #F5CF13",
"j.	c #FD8804",
"k.	c #F6C411",
"l.	c #FA9F0A",
"m.	c #F9AD0C",
"n.	c #F5D714",
"o.	c #F4DE15",
"p.	c #322F7C",
"q.	c #2A289C",
"r.	c #0101C0",
"s.	c #0000AA",
"t.	c #000062",
"u.	c #000029",
"v.	c #0000CC",
"w.	c #0000C4",
"x.	c #08084A",
"y.	c #4B4673",
"z.	c #3E3A66",
"A.	c #FAA90B",
"B.	c #F9920C",
"C.	c #FE8003",
"D.	c #FF7A02",
"E.	c #F6B712",
"F.	c #FF7501",
"G.	c #F89A0D",
"H.	c #FC7D07",
"I.	c #FB950A",
"J.	c #F8B50E",
"K.	c #F6C711",
"L.	c #3E3A76",
"M.	c #3C398F",
"N.	c #0303BF",
"O.	c #0000C9",
"P.	c #0000B0",
"Q.	c #00006F",
"R.	c #00002B",
"S.	c #0A094B",
"T.	c #544F6F",
"U.	c #473E62",
"V.	c #F5D213",
"W.	c #FB9209",
"X.	c #F4DC16",
"Y.	c #FB8B08",
"Z.	c #FB5A0A",
"`.	c #FF5001",
" +	c #F5CB13",
".+	c #FF5E01",
"++	c #F8860D",
"@+	c #FF4601",
"#+	c #FA640B",
"$+	c #FE4503",
"%+	c #FC5A07",
"&+	c #FB7B09",
"*+	c #FA960B",
"=+	c #F9A20C",
"-+	c #413C74",
";+	c #423E8C",
">+	c #0404BE",
",+	c #0000B2",
"'+	c #000072",
")+	c #09094E",
"!+	c #524D70",
"~+	c #4B2E60",
"{+	c #FAA00C",
"]+	c #FE4C03",
"^+	c #F7940F",
"/+	c #FE2002",
"(+	c #FC3506",
"_+	c #FF1A01",
":+	c #F8820D",
"<+	c #FF1901",
"[+	c #FC3E07",
"}+	c #FF0501",
"|+	c #FE1A04",
"1+	c #FF0C01",
"2+	c #FE1103",
"3+	c #FE2003",
"4+	c #FE1302",
"5+	c #FB4E08",
"6+	c #463170",
"7+	c #44408A",
"8+	c #0000AE",
"9+	c #000025",
"0+	c #000044",
"a+	c #080750",
"b+	c #504B73",
"c+	c #4D255F",
"d+	c #FB4E09",
"e+	c #FF0801",
"f+	c #FD2104",
"g+	c #FF0101",
"h+	c #FF0802",
"i+	c #FC3F07",
"j+	c #FF0301",
"k+	c #FE0D02",
"l+	c #48286E",
"m+	c #45428A",
"n+	c #0000A5",
"o+	c #00005C",
"p+	c #000021",
"q+	c #000095",
"r+	c #000046",
"s+	c #070754",
"t+	c #4D4874",
"u+	c #4C255F",
"v+	c #FE1203",
"w+	c #FE0C02",
"x+	c #FF0201",
"y+	c #FE3D04",
"z+	c #FD2E04",
"A+	c #FC3C07",
"B+	c #FF0F02",
"C+	c #FF1602",
"D+	c #FE1002",
"E+	c #FE0E02",
"F+	c #FF0F01",
"G+	c #FD3A04",
"H+	c #FF0701",
"I+	c #474388",
"J+	c #0505BD",
"K+	c #0000C0",
"L+	c #000047",
"M+	c #060657",
"N+	c #4A4678",
"O+	c #492C61",
"P+	c #FF1701",
"Q+	c #FC4607",
"R+	c #FD4904",
"S+	c #F8A20E",
"T+	c #FC8307",
"U+	c #F9A80C",
"V+	c #FE4203",
"W+	c #FB4A08",
"X+	c #FF2902",
"Y+	c #FB6E08",
"Z+	c #FC6607",
"`+	c #FC4E07",
" @	c #FB7D09",
".@	c #FB9808",
"+@	c #F99F0C",
"@@	c #FB870A",
"#@	c #463470",
"$@	c #484488",
"%@	c #0505BE",
"&@	c #000073",
"*@	c #0000AB",
"=@	c #060558",
"-@	c #47437A",
";@	c #444064",
">@	c #FC9106",
",@	c #FA9D0B",
"'@	c #FAA30A",
")@	c #F6C812",
"!@	c #FAA40A",
"~@	c #F6CC12",
"{@	c #FC7207",
"]@	c #FA6F0A",
"^@	c #FC8B06",
"/@	c #FA9B0B",
"(@	c #F99B0C",
"_@	c #F9AB0C",
":@	c #FB9F09",
"<@	c #F7C610",
"[@	c #F6CF13",
"}@	c #3F3B75",
"|@	c #433F8A",
"1@	c #0504B9",
"2@	c #0000B4",
"3@	c #000017",
"4@	c #00006E",
"5@	c #000035",
"6@	c #040351",
"7@	c #423E73",
"8@	c #433F57",
"9@	c #F7BB0E",
"0@	c #F7BF0F",
"a@	c #F4DF16",
"b@	c #F3E317",
"c@	c #FB8C09",
"d@	c #F9960C",
"e@	c #F9AC0C",
"f@	c #F6C911",
"g@	c #F7C210",
"h@	c #F8BA0E",
"i@	c #F5DE15",
"j@	c #333173",
"k@	c #312E90",
"l@	c #0202A4",
"m@	c #000085",
"n@	c #00001F",
"o@	c #000024",
"p@	c #000019",
"q@	c #010135",
"r@	c #363338",
"s@	c #F4DF17",
"t@	c #F5D313",
"u@	c #F8B80E",
"v@	c #F8B40D",
"w@	c #F8B90E",
"x@	c #1C1A5F",
"y@	c #01016C",
"z@	c #00003E",
"A@	c #00001C",
"B@	c #F2E317",
"C@	c #F3E418",
"D@	c #F7C10F",
"E@	c #F5DF16",
"F@	c #F4DA15",
"G@	c #F6CF12",
"H@	c #F4E416",
"I@	c #F1E417",
"                                                                ",
"                                                                ",
"                        . + @ @ # $ % &                         ",
"                  * # = - ; > ; , ' ) ! ~ {                     ",
"                ] ^ >                     / ( (                 ",
"              _ :                             < ~               ",
"            [ }                                 | @             ",
"          1 2                                     & =           ",
"        3 4                                       5 #           ",
"        6 ,                                         { 7         ",
"        < 7                                         8 9         ",
"        0 a                   b c                   d e         ",
"        f g             h i j k l m   n o           3 p         ",
"    q r s ;   0       t u v w x y m z A B       C   D E F       ",
"    G H > 7   I     J K L M w N O P Q R S       T   U V W X     ",
"  Y Z `  .7   ..  +.t @.#.$.w %.&.*.=.-.;.>.,.  '.  U ).!.~.{.  ",
"  ].^.C  ./.  (.  B Q _.:.<.w [.}.|.1.2.3.Q 4.5.6.  U 7.8.9.,   ",
"Y 0.a.C  .b.  c.d.x w e.f.g.w h.i.j.k.l.m.n.M o.p.q.r.7.).s.t.u.",
"v.].w.C  .x.y.z.w m.w A.B.C.=.D.E.F.G.H.I.J.3.K.L.M.N.7.O.P.Q.R.",
"v.v.w.C {.S.T.U.V.W.X.Y.Z.`. +.+++@+#+$+%+&+*+=+-+;+>+7.O.,+'+u.",
"Y v.w.C > )+!+~+{+]+^+/+(+_+:+<+[+}+|+1+2+3+4+5+6+7+>+7.).8+= 9+",
"7.v.w.C 0+a+b+c+d+e+f+g+}+h+i+g+j+g+g+g+g+g+g+k+l+m+>+7.8.n+o+p+",
"q 7.w.q+r+s+t+u+v+w+x+y+z+A+B+k+g+C+D+E+F+G+D+H+l+I+J+O.K+& 7   ",
"  U U C L+M+N+O+P+Q+R+S+T+U+V+W+X+Y+Z+`+ @.@+@@@#@$@%@q 3 &@R.  ",
"  9.*@< 7 =@-@;@>@,@'@)@!@~@{@]@^@/@m.(@_@:@<@[@}@|@1@2@< L+3@  ",
"    4@) 5@6@7@8@9@0@-.a@*.b@c@d@e@N f@g@h@!@i@w j@k@l@m@a n@    ",
"      o@p@q@  r@s@A t@w k w u@v@#.0@n &.x w@>.w x@  y@z@A@      ",
"                  B@C@C@=.t n.D@E@F@m w G@u w                   ",
"                    m m j w w O m w w H@B@w                     ",
"                              I@=.                              ",
"                                                                ",
"                                                                "};
