<?xml version="1.0" encoding="UTF-8" standalone="no"?>
<svg
   xmlns:dc="http://purl.org/dc/elements/1.1/"
   xmlns:cc="http://creativecommons.org/ns#"
   xmlns:rdf="http://www.w3.org/1999/02/22-rdf-syntax-ns#"
   xmlns:svg="http://www.w3.org/2000/svg"
   xmlns="http://www.w3.org/2000/svg"
   style="display:inline"
   id="svg2"
   height="128"
   width="128"
   version="1.0">
  <metadata
     id="metadata7">
    <rdf:RDF>
      <cc:Work
         rdf:about="">
        <dc:format>image/svg+xml</dc:format>
        <dc:type
           rdf:resource="http://purl.org/dc/dcmitype/StillImage" />
        <cc:license
           rdf:resource="GPL v2 or later" />
        <dc:title></dc:title>
        <dc:rights>
          <cc:Agent>
            <dc:title>Audacity development team</dc:title>
          </cc:Agent>
        </dc:rights>
        <dc:creator>
          <cc:Agent>
            <dc:title>Aaron Spike</dc:title>
          </cc:Agent>
        </dc:creator>
        <dc:date>2009-06-14</dc:date>
      </cc:Work>
    </rdf:RDF>
  </metadata>
  <defs
     id="defs5">
    <clipPath
       id="clipPath3126">
      <path
         style="fill:none;stroke:#000000;stroke-width:1px;stroke-linecap:butt;stroke-linejoin:miter;stroke-opacity:1"
         id="path3128"
         d="m 30,94 2,2 3,10 1,-12 3,15 0,-19 2,5 3,14 0,-19 2,2 3,17 3,-23 6.615678,25.91971 L 59,96 l 2,-6 2,25 6,-25 2,21 5,-22 5,24 1,-18 3,-6 1,23 5,-22 3,10 1,-9 3,6 0,-19 -3,8 L 94,69 92,82 90,78 89,64 84,83 83,79 80,49 77,75 75,83 71,56 67,79 65,85 64,43.695313 58,90 52,48 49,84 47,80 45,56 44,80 41,87 39,63 37,82 34,77 34,91 30,76 30,94 Z" />
    </clipPath>
    <clipPath
       id="clipPath2798">
      <path
         style="display:inline;overflow:visible;visibility:visible;fill:#000000;fill-opacity:1;fill-rule:nonzero;stroke:none;stroke-width:18.98999977;marker:none;enable-background:accumulate"
         id="path2800"
         d="M 64,6.875 C 50.736931,6.8749995 38.641338,11.015795 29.71875,17.96875 20.796162,24.921705 15.000001,34.870138 15,45.9375 l 0,4 C 6.141206,54.425978 -2.65625e-7,66.200002 0,80 c 3.5e-7,17.663999 10.049452,32 23,32 l 0,-66.0625 c 1e-6,-8.28809 4.289844,-15.915956 11.65625,-21.65625 C 42.022656,18.540956 52.424603,14.875 64,14.875 c 11.575394,0 21.977345,3.665955 29.34375,9.40625 C 100.71016,30.021545 105,37.649411 105,45.9375 L 105,112 c 12.95055,0 23,-14.336001 23,-32 0,-13.799998 -6.14121,-25.574022 -15,-30.0625 l 0,-4 C 113,34.870138 107.20384,24.921705 98.28125,17.96875 89.358662,11.015795 77.263067,6.8750003 64,6.875 Z M 26,49 l 0,63 c 2,0 4,-1 5,-3 l 0,-58 c -1,-1 -3,-2 -5,-2 z m 76,0 c -2,0 -4,1 -5,2 l 0,58 c 1,2 3,3 5,3 l 0,-63 z" />
    </clipPath>
    <filter
       id="filter10749"
       style="color-interpolation-filters:sRGB">
      <feMorphology
         id="feMorphology10751"
         result="result0"
         in="SourceGraphic"
         radius="4" />
      <feGaussianBlur
         id="feGaussianBlur10753"
         result="result91"
         stdDeviation="8"
         in="result0" />
      <feComposite
         id="feComposite10755"
         in2="result91"
         in="SourceGraphic"
         operator="in" />
    </filter>
    <filter
       id="filter10809"
       style="color-interpolation-filters:sRGB">
      <feGaussianBlur
         id="feGaussianBlur10811"
         result="blur"
         stdDeviation="1.5"
         in="SourceGraphic" />
      <feDiffuseLighting
         id="feDiffuseLighting10813"
         result="diffuse"
         lighting-color="#ffffff"
         surfaceScale="10"
         diffuseConstant="1">
        <feDistantLight
           id="feDistantLight10815"
           azimuth="90"
           elevation="25" />
      </feDiffuseLighting>
      <feComposite
         k4="0"
         k3="0"
         k2="0"
         id="feComposite10817"
         result="composite1"
         k1="1"
         operator="arithmetic"
         in2="diffuse"
         in="diffuse" />
      <feComposite
         k4="0"
         k2="0"
         id="feComposite10819"
         result="composite2"
         k3="1"
         operator="arithmetic"
         k1="0.886275"
         in2="SourceGraphic"
         in="composite1" />
    </filter>
  </defs>
  <g
     transform="matrix(1.0015376,0,0,1.0015492,0.24999999,-0.4336234)"
     id="g8117">
    <path
       d="m 61.15625,38.521869 c -2.294445,5.742238 -4.504421,15.244785 -7.173423,4.312915 -2.001608,-7.764637 -6.278699,4.865707 -9.389077,7.030835 -6.273228,4.768656 -9.745087,11.488411 -12.53125,18.6875 -7.377751,-6.273358 -4.610431,3.794884 -5.0625,8.71875 0.402184,7.380888 -0.800512,15.452086 0.59375,22.406251 5.854747,5.10155 10.089878,13.15352 18.802059,13.04976 5.959442,2.07139 5.213051,-6.94006 10.616691,0.53774 4.972912,6.81603 8.043984,2.83082 11.290095,-0.52223 4.743263,7.26056 6.196016,-8.68733 10.197405,-1.53402 6.184179,2.40622 11.729123,3.55166 12.743737,-4.61035 1.269961,-6.4463 12.353043,-6.57697 9.756263,-14.327151 -0.36218,-8.040994 0.71936,-16.655977 -0.53125,-24.34375 -4.197507,-3.276078 -7.436068,-10.841229 -12.21875,-11.5 -5.917514,2.871708 -3.637455,-9.789656 -6.072621,-13.516435 -0.796195,-9.785915 -2.892314,-5.361098 -5.171116,1.34977 -1.260879,9.661168 -6.561377,5.05567 -9.268858,-1.267371 -2.408512,-2.024864 -5.152997,-12.723556 -6.581155,-4.472214 z"
       id="path3178"
       style="fill:#f3e517;fill-opacity:1;fill-rule:evenodd;stroke:none;filter:url(#filter10749)" />
    <g
       transform="translate(0,-3.7281309)"
       id="g3305">
      <g
         clip-path="url(#clipPath3126)"
         id="g3122">
        <path
           d="m 28,116 0,-73 72,0 0,73 -72,0 z"
           id="path3120"
           style="fill:#ff7901;fill-opacity:1;fill-rule:evenodd;stroke:none" />
        <path
           d="m 29,80 8,5 3,-9 5,6 6,-10 2,12 2,-8 3,6 1,-6 c 0,0 3,8 3,7 0,-1 4,-15 4,-15 l 4,13 6,-12 3,13 5,-9 3,9 5,-5 6,6 0,8 -4,3 -6,-2 -4,-2 -1,10 -2,-10 -4,9 -6,-9 -2,9 -4,-6 -5,13 -3,-15 -6,3 -4,-6 -2,10 -4,-5 -4,5 -2,-3 -6,1 0,-16 z"
           id="path3118"
           style="fill:#ff0101;fill-opacity:1;fill-rule:evenodd;stroke:none" />
      </g>
    </g>
    <g
       transform="translate(0,0.2718691)"
       clip-path="url(#clipPath2798)"
       id="g2792"
       style="fill:#0000cc;fill-opacity:1">
      <path
         style="display:inline;overflow:visible;visibility:visible;fill:#0000cc;fill-opacity:1;fill-rule:nonzero;stroke:none;stroke-width:18.98999977;marker:none;filter:url(#filter10809);enable-background:accumulate"
         d="M 64,6.875 C 50.736931,6.8749995 38.641338,11.015795 29.71875,17.96875 20.796162,24.921705 15.000001,34.870138 15,45.9375 l 0,4 C 6.141206,54.425978 -2.65625e-7,66.200002 0,80 c 3.5e-7,17.663999 10.049452,32 23,32 l 0,-66.0625 c 1e-6,-8.28809 4.289844,-15.915956 11.65625,-21.65625 C 42.022656,18.540956 52.424603,14.875 64,14.875 c 11.575394,0 21.977345,3.665955 29.34375,9.40625 C 100.71016,30.021545 105,37.649411 105,45.9375 L 105,112 c 12.95055,0 23,-14.336001 23,-32 0,-13.799998 -6.14121,-25.574022 -15,-30.0625 l 0,-4 C 113,34.870138 107.20384,24.921705 98.28125,17.96875 89.358662,11.015795 77.263067,6.8750003 64,6.875 Z"
         id="path4161" />
      <path
         style="display:inline;overflow:visible;visibility:visible;fill:#0000cc;fill-opacity:1;fill-rule:nonzero;stroke:none;stroke-width:18.98999977;marker:none;enable-background:accumulate"
         d="m 26,49 0,63 c 2,0 4,-1 5,-3 l 0,-58 c -1,-1 -3,-2 -5,-2 z"
         id="path4159" />
      <path
         style="display:inline;overflow:visible;visibility:visible;fill:#0000cc;fill-opacity:1;fill-rule:nonzero;stroke:none;stroke-width:18.98999977;marker:none;enable-background:accumulate"
         d="m 102,49 c -2,0 -4,1 -5,2 l 0,58 c 1,2 3,3 5,3 l 0,-63 z"
         id="path2127" />
    </g>
  </g>
</svg>
