/* XPM */
static const char * AudacityLogo48x48_xpm[] = {
"48 48 273 2",
"  	c #FFFFFF",
". 	c #0000CC",
"+ 	c #9E9ED5",
"@ 	c #0000FD",
"# 	c #0000FF",
"$ 	c #8989C9",
"% 	c #0000F0",
"& 	c #3B3BF8",
"* 	c #1818C3",
"= 	c #0000D8",
"- 	c #B5B5FC",
"; 	c #B4B4FC",
"> 	c #9E9EFA",
", 	c #A2A2FB",
"' 	c #1111C8",
") 	c #1111C9",
"! 	c #0000D5",
"~ 	c #1414F6",
"{ 	c #1515F6",
"] 	c #0000D0",
"^ 	c #0000EE",
"/ 	c #FDFDF7",
"( 	c #FEFEFE",
"_ 	c #0000D1",
": 	c #0000ED",
"< 	c #0000DC",
"[ 	c #FEFDED",
"} 	c #FEFDEE",
"| 	c #FEFEFA",
"1 	c #0000E9",
"2 	c #0000D2",
"3 	c #FDFBE7",
"4 	c #FDFBE2",
"5 	c #FDFBE4",
"6 	c #FDFADB",
"7 	c #FDFBDD",
"8 	c #FEFDF3",
"9 	c #0000CD",
"0 	c #0000DF",
"a 	c #0000CE",
"b 	c #FDFCEE",
"c 	c #FBF9D4",
"d 	c #FCF9CD",
"e 	c #FAF7C4",
"f 	c #FAF7C3",
"g 	c #FBF7C5",
"h 	c #FCF8CA",
"i 	c #FDFAE0",
"j 	c #0000E0",
"k 	c #0000DD",
"l 	c #E2E2F9",
"m 	c #FBF8C8",
"n 	c #FAF6BB",
"o 	c #FAF6B1",
"p 	c #F9F5A8",
"q 	c #F9F4A4",
"r 	c #F9F3A3",
"s 	c #FAF4A6",
"t 	c #FAF5AD",
"u 	c #FAF5B5",
"v 	c #FBF8CB",
"w 	c #FBF9D6",
"x 	c #FEFEFC",
"y 	c #E1E1F9",
"z 	c #FAF7C2",
"A 	c #F9F5AF",
"B 	c #FAF39F",
"C 	c #F9E27E",
"D 	c #F7F087",
"E 	c #F8F082",
"F 	c #FD9722",
"G 	c #F7F085",
"H 	c #F8F18B",
"I 	c #F8F296",
"J 	c #F9F3A2",
"K 	c #FAF5AF",
"L 	c #FCC16D",
"M 	c #FCF9D0",
"N 	c #0000EA",
"O 	c #FBF7C0",
"P 	c #F9F4A9",
"Q 	c #F9F293",
"R 	c #F7EF80",
"S 	c #FF7901",
"T 	c #F7ED67",
"U 	c #F6EC61",
"V 	c #F7ED65",
"W 	c #F6ED6A",
"X 	c #F6E66C",
"Y 	c #F8F191",
"Z 	c #0000CF",
"` 	c #0000EB",
" .	c #F9F4AA",
"..	c #F8F190",
"+.	c #F7EF79",
"@.	c #F6ED64",
"#.	c #F4EA4A",
"$.	c #F5E944",
"%.	c #F4E948",
"&.	c #F5EA4C",
"*.	c #F6ED63",
"=.	c #F7EE73",
"-.	c #F8F29A",
";.	c #FCFBE0",
">.	c #F7EF78",
",.	c #F6EC60",
"'.	c #F5EA4B",
").	c #F3E835",
"!.	c #F4E62F",
"~.	c #F4E731",
"{.	c #F3E735",
"].	c #F5EC56",
"^.	c #F7F07D",
"/.	c #F9F294",
"(.	c #FAF5AB",
"_.	c #0000E3",
":.	c #FAF6B6",
"<.	c #F9F39A",
"[.	c #F6E960",
"}.	c #F9AB1A",
"|.	c #F2E525",
"1.	c #F2E622",
"2.	c #F2E523",
"3.	c #F2E527",
"4.	c #F3E734",
"5.	c #F8BE28",
"6.	c #F9F5AD",
"7.	c #FBF7C4",
"8.	c #FBAE3C",
"9.	c #F6D844",
"0.	c #F4E83B",
"a.	c #FE7E02",
"b.	c #F3E41E",
"c.	c #F3E41A",
"d.	c #F3E41B",
"e.	c #FE7C01",
"f.	c #F6E45C",
"g.	c #F7EF7C",
"h.	c #F8F298",
"i.	c #FAF6B4",
"j.	c #0000D4",
"k.	c #FE7A02",
"l.	c #F5EB58",
"m.	c #F7C12A",
"n.	c #F4E62E",
"o.	c #FF0101",
"p.	c #F3E518",
"q.	c #F3E516",
"r.	c #F3E517",
"s.	c #F3E41F",
"t.	c #F7E863",
"u.	c #F9DF72",
"v.	c #F9F3A1",
"w.	c #F8EF81",
"x.	c #F4E949",
"y.	c #FC980F",
"z.	c #F3E416",
"A.	c #F4CD13",
"B.	c #FF4801",
"C.	c #F3E519",
"D.	c #FC8E10",
"E.	c #FF7401",
"F.	c #F8F297",
"G.	c #0000E8",
"H.	c #F9F295",
"I.	c #F4E83F",
"J.	c #FF7001",
"K.	c #FD2904",
"L.	c #FE0101",
"M.	c #FF4701",
"N.	c #FB5106",
"O.	c #F2E528",
"P.	c #FF7601",
"Q.	c #F9F18D",
"R.	c #0000E5",
"S.	c #FD4621",
"T.	c #FF3901",
"U.	c #FF0501",
"V.	c #FD2E04",
"W.	c #FE1B08",
"X.	c #0000EC",
"Y.	c #FD2A05",
"Z.	c #0000EF",
"`.	c #FF0401",
" +	c #FF0201",
".+	c #0000F5",
"++	c #FF0601",
"@+	c #F2E526",
"#+	c #FF3B01",
"$+	c #F3D915",
"%+	c #F4E72B",
"&+	c #FF7701",
"*+	c #FBAF41",
"=+	c #C8C8E3",
"-+	c #0000F4",
";+	c #FBAD40",
">+	c #F7D031",
",+	c #F4E62D",
"'+	c #F3E41C",
")+	c #F3E41D",
"!+	c #F2E621",
"~+	c #FE8710",
"{+	c #F9F39C",
"]+	c #CCCCE5",
"^+	c #0000F1",
"/+	c #F8B31A",
"(+	c #F8B116",
"_+	c #F2E524",
":+	c #FF0E01",
"<+	c #F3E72A",
"[+	c #F4E947",
"}+	c #F6EE71",
"|+	c #F8F18F",
"1+	c #FAF5AC",
"2+	c #0000F6",
"3+	c #F5EA4F",
"4+	c #F5E943",
"5+	c #F4E93C",
"6+	c #F3E736",
"7+	c #F3E834",
"8+	c #F4E93D",
"9+	c #F5EC5D",
"0+	c #F7F088",
"a+	c #F9F4A3",
"b+	c #FBF7BC",
"c+	c #0000FE",
"d+	c #FCB756",
"e+	c #F9E783",
"f+	c #F8EF7A",
"g+	c #F6EB55",
"h+	c #F5EA50",
"i+	c #F6D43C",
"j+	c #F6EB56",
"k+	c #F6EC5E",
"l+	c #F9F3A0",
"m+	c #FBF6B7",
"n+	c #F9F9FC",
"o+	c #FAF6BE",
"p+	c #F8F398",
"q+	c #F6EF75",
"r+	c #F6ED6F",
"s+	c #F7ED69",
"t+	c #FAB233",
"u+	c #F7ED68",
"v+	c #FAAB31",
"w+	c #F7EF7D",
"x+	c #F9F296",
"y+	c #FCB652",
"z+	c #FAF6B8",
"A+	c #E0E0FB",
"B+	c #FFFEFA",
"C+	c #F9F4A7",
"D+	c #F8F18D",
"E+	c #F8F18A",
"F+	c #F7E77D",
"G+	c #FD9627",
"H+	c #FAF5B3",
"I+	c #FBF8CE",
"J+	c #DFDFFC",
"K+	c #0000F2",
"L+	c #FAF6BD",
"M+	c #FBF6B8",
"N+	c #FAF5AE",
"O+	c #FAF4AB",
"P+	c #FAF5B2",
"Q+	c #FCFAD2",
"R+	c #FBF8CD",
"S+	c #FCF9D6",
"T+	c #FDFBE5",
"U+	c #FBF9CB",
"V+	c #FBF8CA",
"W+	c #FCF9CF",
"X+	c #FCFAE0",
"                                                                                                ",
"                                                                                                ",
"                                                                                                ",
"                                                                                                ",
"                                                                                                ",
"                                                                                                ",
"                                    . . . . . . . . . . . .                                     ",
"                              + . . . @ # # # # # # # # @ . . . $                               ",
"                            . . % # # # &             & # # # % . .                             ",
"                        * . = # # -                         ; # # = . *                         ",
"                      . . # # >                                 , # # . .                       ",
"                    ' . # #                                         # # . )                     ",
"                    . # #                                             # # .                     ",
"                  . ! #                                                 # ! .                   ",
"                  . # ~                                                 { # .                   ",
"                . ] ^                         /           (               ^ _ .                 ",
"                . : <                         [ }         |               < : .                 ",
"                . 1 2                 3 4   5 6 7       } 8               2 1 .                 ",
"                9 0 a               b c d   e f g h     i 3               a j 9                 ",
"                . k 9 l             m n o p q r s t u 4 v w x           y 9 k .                 ",
"              . . k 9 l .       ( z A B C D E F G H I J K L M         . y 9 k . .               ",
"            . a N k 9 l .       O P Q R S T U S V W X E Y S u         . y 9 k N Z .             ",
"          . ] ` ` k 9 l .     z  ...+.@.S #.$.S %.&.S *.=.S -.A z     . y 9 k ` ` ] .           ",
"        . . ` ` ` k 9 l .   ;.A Q >.,.'.S ).!.S ~.{.S %.].S ^./.(.z   . y 9 k ` ` ` . .         ",
"        . _.` ` ` k 9 l .   :.<.^.[.#.}.S |.1.S 2.3.S 4.5.S *.+.Q 6.7.. y 9 k ` ` ` _..         ",
"      ( . ` ` ` ` k 9 l .   q 8.W 9.0.a.S b.c.S d.e.S 3.S S &.f.g.h.i.. y 9 k ` ` ` ` . (       ",
"      . j.` ` ` ` k 9 l . A Y k.l.m.n.o.S p.q.S r.S S s.S S 0.S t.u.q . y 9 k ` ` ` ` j..       ",
"      . _.` ` ` ` k 9 l . v.w.S x.y.3.o.S z.A.S r.o.B.C.o.S n.S D.E.F.. y 9 k ` ` ` ` _..       ",
"      . G.` ` ` ` k 9 l . H.S S I.J.K.o.S L.o.M.r.o.o.N.o.o.O.P.o.o.Q.. y 9 k ` ` ` ` G..       ",
"      R.N ` ` ` ` k 9 l . S.T.o.{.o.o.o.U.o.o.o.V.o.o.o.o.o.o.o.o.o.W.. y 9 k ` ` ` ` N R.      ",
"      # X.` ` ` ` k 9 l . o.o.o.Y.o.o.o.o.o.o.o.o.o.o.o.o.o.o.o.o.o.o.. y 9 k ` ` ` ` X.#       ",
"      # Z.` ` ` ` k 9 l . o.o.o.o.`.S o.o.o.o.o.o.o.o.o.o. +o.o.o.o.o.. y 9 k ` ` ` ` Z.#       ",
"      # .+` ` ` ` k 9 l . o.o.o.++@+S #+r.S o.o.o.$+S o.o.S %+S &+o.*+. y 9 k ` ` ` ` .+#       ",
"      =+-+` ` ` ` k 9 l . ;+S o.>+,+S S b.S '+o.S )+S !+o.S {.S ,.~+{+. y 9 k ` ` ` ` -+]+      ",
"        ^+% ` ` ` k 9 l . B S S &.0./+(+3.S _+:+S |.S <+!.S [+S }+|+1+. y 9 k ` ` ` % ^+        ",
"        2+# ` ` ` k 9 l . K S S ,.3+4+5+6+S 7+S S {.S 8+4+S 9+S 0+a+b+. y 9 k ` ` ` # .+        ",
"          # c+` ` k 9 l . O d+e+f+W 9+g+h+&.#.S i+&.S j+k+S >.S l+m+  . y 9 k ` ` c+#           ",
"          n+# c+` k 9 l . ( o+ .p+0+^.q+r+W s+t+u+W v+q+w+S x+y+z+    . y 9 k ` c+# n+          ",
"            A+# # N 9 l .   B+e u C+B F.Y D+E+F+E+D+Y F.B G+H+O I+    . y 9 N # # J+            ",
"                # # K+l .       I+g L+M+  N+1+O+1+N+P+Q+  g R+S+T+    . y K+# #                 ",
"                                            U+V+V+  W+                                          ",
"                                              X+                                                ",
"                                                                                                ",
"                                                                                                ",
"                                                                                                ",
"                                                                                                ",
"                                                                                                ",
"                                                                                                "};
