/* XPM */
static char * const gnome_mime_application_x_audacity_project_xpm[] = {
"48 48 476 2",
"  	c None",
". 	c #9D9D9D",
"+ 	c #9E9E9E",
"@ 	c #A0A0A0",
"# 	c #A3A3A3",
"$ 	c #A5A5A5",
"% 	c #A4A4A4",
"& 	c #9F9F9F",
"* 	c #9C9C9C",
"= 	c #999999",
"- 	c #979797",
"; 	c #959595",
"> 	c #929292",
", 	c #909090",
"' 	c #8F8F8F",
") 	c #8C8C8C",
"! 	c #898989",
"~ 	c #888888",
"{ 	c #858585",
"] 	c #838383",
"^ 	c #818181",
"/ 	c #7E7E7E",
"( 	c #7C7C7C",
"_ 	c #7A7A7A",
": 	c #787878",
"< 	c #757575",
"[ 	c #727272",
"} 	c #717171",
"| 	c #6E6E6E",
"1 	c #6C6C6C",
"2 	c #6B6B6B",
"3 	c #676767",
"4 	c #666666",
"5 	c #9A9A9A",
"6 	c #E6E6E6",
"7 	c #FBFBFB",
"8 	c #FAFAFA",
"9 	c #F9F9F9",
"0 	c #F8F8F8",
"a 	c #F7F7F7",
"b 	c #E7E7E7",
"c 	c #626262",
"d 	c #E4E4E4",
"e 	c #E0E0E0",
"f 	c #DEDEDE",
"g 	c #E2E2E2",
"h 	c #E3E3E3",
"i 	c #E5E5E5",
"j 	c #5D5D5D",
"k 	c #DFDFDF",
"l 	c #DBDBDB",
"m 	c #E1E1E1",
"n 	c #DCDCDC",
"o 	c #969696",
"p 	c #DDDDDD",
"q 	c #949494",
"r 	c #E8E8E8",
"s 	c #5C5C5C",
"t 	c #919191",
"u 	c #E9E9E9",
"v 	c #5B5B5B",
"w 	c #CBCBD9",
"x 	c #7272A9",
"y 	c #3D3DAC",
"z 	c #2828B4",
"A 	c #1F1FB8",
"B 	c #2929B3",
"C 	c #4040AB",
"D 	c #7A7AAD",
"E 	c #D1D1DC",
"F 	c #EAEAEA",
"G 	c #8D8D8D",
"H 	c #ADADC9",
"I 	c #2323B7",
"J 	c #0000DA",
"K 	c #0000F7",
"L 	c #0808FE",
"M 	c #2222F5",
"N 	c #2F2FE9",
"O 	c #2020F8",
"P 	c #0606FE",
"Q 	c #0000F0",
"R 	c #0000D6",
"S 	c #BEBED3",
"T 	c #5A5A5A",
"U 	c #8B8B8B",
"V 	c #E5E5E6",
"W 	c #4242AA",
"X 	c #0000D9",
"Y 	c #1010F8",
"Z 	c #6A6AC5",
"` 	c #D6D6E4",
" .	c #EBEBEB",
"..	c #D3D3E4",
"+.	c #6262CA",
"@.	c #0C0CF8",
"#.	c #0000D5",
"$.	c #5050A8",
"%.	c #595959",
"&.	c #E7E7E8",
"*.	c #2E2EB0",
"=.	c #0000EA",
"-.	c #5454CC",
";.	c #E7E7EA",
">.	c #4848D2",
",.	c #0000E2",
"'.	c #3C3CAD",
").	c #ECECEC",
"!.	c #D3D3D3",
"~.	c #5757A6",
"{.	c #0000E5",
"].	c #7575C0",
"^.	c #5F5FC3",
"/.	c #0000E1",
"(.	c #6C6CA8",
"_.	c #585858",
":.	c #C6C6C6",
"<.	c #D9D9E0",
"[.	c #4343C8",
"}.	c #EDEDED",
"|.	c #3232D4",
"1.	c #0303D4",
"2.	c #575757",
"3.	c #6666A7",
"4.	c #0000EB",
"5.	c #D7D7E2",
"6.	c #ECECE7",
"7.	c #EFECCE",
"8.	c #EDEDE5",
"9.	c #EEEEEC",
"0.	c #EEEEEE",
"a.	c #C6C6DD",
"b.	c #0000E7",
"c.	c #8787B7",
"d.	c #565656",
"e.	c #3C3CAF",
"f.	c #0F0FDA",
"g.	c #EDEBCB",
"h.	c #EEECD4",
"i.	c #EFECC2",
"j.	c #F1E286",
"k.	c #EEEDDE",
"l.	c #F0EDC0",
"m.	c #EFEEDE",
"n.	c #0202E3",
"o.	c #5050AC",
"p.	c #555555",
"q.	c #7F7F7F",
"r.	c #2626B6",
"s.	c #2525C2",
"t.	c #EDECDC",
"u.	c #F1DD7B",
"v.	c #F0E78F",
"w.	c #F1EA81",
"x.	c #F3CE56",
"y.	c #F0EA91",
"z.	c #F0EFE8",
"A.	c #F2E287",
"B.	c #EFEDC5",
"C.	c #EFEFEF",
"D.	c #1313CA",
"E.	c #3838B0",
"F.	c #545454",
"G.	c #F6F6F6",
"H.	c #B6B6CE",
"I.	c #0808C6",
"J.	c #2727BB",
"K.	c #7070DA",
"L.	c #8C8CDF",
"M.	c #EDEDDE",
"N.	c #EFE788",
"O.	c #F3D357",
"P.	c #F3D54F",
"Q.	c #F1E755",
"R.	c #F6BC33",
"S.	c #F1E456",
"T.	c #F1E864",
"U.	c #F4C74F",
"V.	c #F1EDA9",
"W.	c #F0F0F0",
"X.	c #7D7DDF",
"Y.	c #8585E0",
"Z.	c #1515C4",
"`.	c #0E0EC3",
" +	c #CACADB",
".+	c #535353",
"++	c #ABABC8",
"@+	c #0000CC",
"#+	c #2727B9",
"$+	c #6E6EDB",
"%+	c #7272DC",
"&+	c #EDEDE7",
"*+	c #EFE98B",
"=+	c #F3DB5B",
"-+	c #F5C83C",
";+	c #F5C530",
">+	c #F2E43C",
",+	c #F9AD1E",
"'+	c #F5CE31",
")+	c #F3E144",
"!+	c #F8B630",
"~+	c #F3E36C",
"{+	c #F1EEBD",
"]+	c #EFEFE8",
"^+	c #6161DB",
"/+	c #8282E0",
"(+	c #1515C5",
"_+	c #0202CA",
":+	c #C7C7D9",
"<+	c #525252",
"[+	c #E4E4E6",
"}+	c #0D0DC3",
"|+	c #0000D0",
"1+	c #2727BC",
"2+	c #EFEBB6",
"3+	c #F1DE60",
"4+	c #F4CD3E",
"5+	c #F7BF29",
"6+	c #F8B51C",
"7+	c #F4D927",
"8+	c #FAA813",
"9+	c #F7BA1B",
"0+	c #F5CE2A",
"a+	c #F9A91E",
"b+	c #F4D647",
"c+	c #F3E063",
"d+	c #F2EC98",
"e+	c #6161D9",
"f+	c #1515C7",
"g+	c #1717BF",
"h+	c #F0F0F1",
"i+	c #515151",
"j+	c #767676",
"k+	c #8D8DB8",
"l+	c #0000CF",
"m+	c #2727BD",
"n+	c #6F6ED8",
"o+	c #7272D2",
"p+	c #F1E97A",
"q+	c #F5C940",
"r+	c #F7C02A",
"s+	c #F8B51B",
"t+	c #FAA510",
"u+	c #F5CA18",
"v+	c #FAA40E",
"w+	c #F9A80F",
"x+	c #F7BE19",
"y+	c #FB9C11",
"z+	c #F5CA31",
"A+	c #F7BA35",
"B+	c #F3E56E",
"C+	c #6260BF",
"D+	c #8383E0",
"E+	c #1515C8",
"F+	c #0000CE",
"G+	c #B4B4D0",
"H+	c #4F4F4F",
"I+	c #3636AF",
"J+	c #0000DE",
"K+	c #2727BE",
"L+	c #6F6ECF",
"M+	c #7470A8",
"N+	c #F2E25E",
"O+	c #F7B92B",
"P+	c #F8B11B",
"Q+	c #FB770D",
"R+	c #FC9409",
"S+	c #F8BC10",
"T+	c #FB910A",
"U+	c #FC8707",
"V+	c #FA950E",
"W+	c #FC8208",
"X+	c #F7B821",
"Y+	c #FC9614",
"Z+	c #F6CD4C",
"`+	c #625FAF",
" @	c #8483DA",
".@	c #1515CA",
"+@	c #0000DF",
"@@	c #4D4DAC",
"#@	c #4E4E4E",
"$@	c #737373",
"%@	c #1717C2",
"&@	c #0000D7",
"*@	c #0000E4",
"=@	c #0000E0",
"-@	c #6F6ECE",
";@	c #756296",
">@	c #F7B631",
",@	c #FA7B17",
"'@	c #FC810D",
")@	c #FD4406",
"!@	c #FE4702",
"~@	c #FA8D0A",
"{@	c #FD5E05",
"]@	c #FF2D02",
"^@	c #FE3104",
"/@	c #FF3501",
"(@	c #FD4609",
"_@	c #FF5402",
":@	c #FC6117",
"<@	c #635AA6",
"[@	c #8483D8",
"}@	c #1515C9",
"|@	c #0000E3",
"1@	c #2D2DB8",
"2@	c #0505D5",
"3@	c #79307A",
"4@	c #FE4B07",
"5@	c #FE3007",
"6@	c #FF0301",
"7@	c #FF0A01",
"8@	c #FF0801",
"9@	c #FE3704",
"0@	c #FF0F01",
"a@	c #FF0101",
"b@	c #FF0601",
"c@	c #662988",
"d@	c #8483D5",
"e@	c #1818C8",
"f@	c #6F6F6F",
"g@	c #BDBDBD",
"h@	c #D9D9D9",
"i@	c #1010D4",
"j@	c #0000F4",
"k@	c #706FCD",
"l@	c #7A1A70",
"m@	c #FF0F02",
"n@	c #FF1301",
"o@	c #FF1F02",
"p@	c #FF0D01",
"q@	c #FF0501",
"r@	c #FF0201",
"s@	c #661A82",
"t@	c #8484D6",
"u@	c #0000F3",
"v@	c #2424C8",
"w@	c #6D6D6D",
"x@	c #3636C3",
"y@	c #0000FA",
"z@	c #0000FF",
"A@	c #6F6ECD",
"B@	c #7A2374",
"C@	c #FD480A",
"D@	c #FB7D10",
"E@	c #FC8209",
"F@	c #FB8D0A",
"G@	c #FD4005",
"H@	c #FF1901",
"I@	c #FE4A05",
"J@	c #FD6105",
"K@	c #FE4404",
"L@	c #FA8913",
"M@	c #FE6B03",
"N@	c #FC6C1A",
"O@	c #644897",
"P@	c #8584D7",
"Q@	c #4E4EBB",
"R@	c #8484BE",
"S@	c #0000EF",
"T@	c #2727C0",
"U@	c #706FD0",
"V@	c #756A9E",
"W@	c #FC8717",
"X@	c #F8B529",
"Y@	c #F6BF23",
"Z@	c #FAA512",
"`@	c #F7B916",
" #	c #F99E11",
".#	c #FF5C01",
"+#	c #F7B615",
"@#	c #F9AA13",
"##	c #FA9F12",
"$#	c #F6CC2D",
"%#	c #FC9515",
"&#	c #F6DA5A",
"*#	c #635FB0",
"=#	c #8585D8",
"-#	c #1515CC",
";#	c #ACACD4",
">#	c #696969",
",#	c #E7E7E9",
"'#	c #0C0CFE",
")#	c #2727C8",
"!#	c #706FD7",
"~#	c #7471AE",
"{#	c #F5C951",
"]#	c #F5D046",
"^#	c #F5CE37",
"/#	c #F8BD26",
"(#	c #F4D62D",
"_#	c #F7BE21",
":#	c #FD8F0B",
"<#	c #F6CE28",
"[#	c #F6C427",
"}#	c #F8BC27",
"|#	c #F6D844",
"1#	c #FAB231",
"2#	c #F4EC7B",
"3#	c #6362C6",
"4#	c #8585E3",
"5#	c #1515D8",
"6#	c #1717FA",
"7#	c #F4F4F5",
"8#	c #F5F5F5",
"9#	c #AAAAD6",
"0#	c #2727E1",
"a#	c #7070DD",
"b#	c #7473D2",
"c#	c #F1E986",
"d#	c #F2E36A",
"e#	c #F4E25B",
"f#	c #F4DF4E",
"g#	c #F2E84D",
"h#	c #F5CD38",
"i#	c #F9B226",
"j#	c #F5DB42",
"k#	c #F5DF4A",
"l#	c #F5D449",
"m#	c #F5E05E",
"n#	c #F7D15D",
"o#	c #F7F3C5",
"p#	c #6464DE",
"q#	c #8686E4",
"r#	c #1515F7",
"s#	c #0303FF",
"t#	c #CBCBE6",
"u#	c #646464",
"v#	c #B2B2DF",
"w#	c #1515FD",
"x#	c #2727FC",
"y#	c #8787E1",
"z#	c #F1F0D9",
"A#	c #F2EC94",
"B#	c #F2EB7D",
"C#	c #F3EB74",
"D#	c #F3E765",
"E#	c #F5D755",
"F#	c #F4EA6A",
"G#	c #F5ED7A",
"H#	c #F6ED89",
"I#	c #F5EA82",
"J#	c #F6ED97",
"K#	c #F7F7F3",
"L#	c #7878E2",
"M#	c #1515FE",
"N#	c #1D1DFE",
"O#	c #CCCCEB",
"P#	c #636363",
"Q#	c #E6E6EC",
"R#	c #DCDCEC",
"S#	c #EEEEF0",
"T#	c #F1F1F1",
"U#	c #F0F0EC",
"V#	c #F2F1D9",
"W#	c #F3F2DF",
"X#	c #F4F3E9",
"Y#	c #F3EE9B",
"Z#	c #F5EE8F",
"`#	c #F5F2BC",
" $	c #F7F6E1",
".$	c #F7F7F4",
"+$	c #F8F6E1",
"@$	c #F8F7EC",
"#$	c #F6F6F8",
"$$	c #E6E6F5",
"%$	c #EFEFF5",
"&$	c #616161",
"*$	c #F2F2F2",
"=$	c #F3F3F3",
"-$	c #F4F4F4",
";$	c #F4F4F1",
">$	c #F5F5F0",
",$	c #5E5E5E",
"'$	c #505050",
")$	c #656565",
"                                                                                                ",
"                                                                                                ",
"                                                                                                ",
"              . + @ # $ % # & . * = - ; > , ' ) ! ~ { ] ^ / ( _ : < [ } | 1 2 3 4               ",
"            5 6 7 7 7 7 7 7 7 7 7 7 8 8 8 8 8 8 9 9 9 9 9 0 0 0 0 0 0 a a a a a b c             ",
"            5 a d e e f b g g g h h h d d d i i i i i 6 6 6 6 6 6 6 6 6 6 6 i i a j             ",
"            = a h f k l 6 e m m m g g g h h h h d d d d d d i i i i i d d d d 6 a j             ",
"            = a h k k n 6 m m g g g h h h d d d d i i i i i i i i i i i i i i b a j             ",
"            o a d k e n b m g g h h h d d d i i i i i 6 6 6 6 6 6 6 6 6 6 6 i b a j             ",
"            ; 0 d e e p b g g h h d d d i i i i 6 6 6 6 6 b b b b b b b 6 6 6 b a j             ",
"            q 0 i e m p r g h h d d i i i 6 6 6 6 b b b b b b b b b b b b b b r a s             ",
"            > 0 i m m f r h h d d i i i 6 6 6 b b b b r r r r r r r r r r r r r a s             ",
"            t 0 6 m g f u h d d i i 6 6 6 b b b r r r r r u u u u u u u u r r u a v             ",
"            ' 0 6 g g k u d i i i 6 6 b b b w x y z A B C D E u u u u u u u u F a v             ",
"            G 0 b g h k u i i 6 6 6 b b H I J K L M N O P Q R B S F F F F F F F 0 T             ",
"            U 0 b h h e F i 6 6 b b V W X Y Z ` F F F F  ...+.@.#.$.F  . .F F  .0 %.            ",
"            ! a r h d e F 6 6 b b &.*.=.-.&.F F F  . . . . . .;.>.,.'. . . . .).0 %.            ",
"            ~ a r !.f m F 6 b b r ~.{.].u F F  . . . .).).).).).).^./.(.).).).).0 _.            ",
"            { a r :.g m  .b b r <.X [.F F F  . .).).).).}.}.}.}.}.}.|.1.;.).).}.0 2.            ",
"            ] a r h  .m  .b r r 3.4.5.F  . . .).).6.7.}.}.8.9.0.0.0.a.b.c.}.}.0.0 d.            ",
"            ^ a r i 6 m ).b r u e.f.F  . .).).g.h.i.j.k.0.l.m.0.0.0.0.n.o.0.0.0.0 p.            ",
"            q.a u i 6 g ).r r u r.s. . .).).t.u.v.w.x.y.z.A.B.C.C.C.C.D.E.0.0.C.0 F.            ",
"            / G.u 6 6 g }.r u H.I.J.K.L.).M.N.O.P.Q.R.S.T.U.V.W.W.X.Y.Z.`. +C.W.0 .+            ",
"            ( G.u 6 b g }.u ++@+@+#+$+%+&+*+=+-+;+>+,+'+)+!+~+{+]+^+/+(+@+_+:+W.0 <+            ",
"            _ G.F 6 b h }.[+}+@+|+1+$+%+2+3+4+5+6+7+8+9+0+a+b+c+d+e+/+f+|+@+g+h+0 i+            ",
"            j+G.F b b h }.k+@+l+J m+n+o+p+q+r+s+t+u+v+w+x+y+z+A+B+C+D+E+J F+@+G+0 H+            ",
"            < G.F b r h }.I+F+J J+K+L+M+N+O+P+Q+R+S+T+U+V+W+X+Y+Z+`+ @.@+@J l+@@0 #@            ",
"            $@G. .b r d }.%@&@*@=@K+-@;@>@,@'@)@!@~@{@]@^@/@(@_@:@<@[@}@+@|@R 1@a #@            ",
"            } G.F b r d 0.2@=@4.=@K+-@3@4@5@6@7@8@9@0@a@6@a@6@a@b@c@d@}@/.4.+@e@a #@            ",
"            f@G.F g@h@d 0.i@4.j@=@K+k@l@m@6@n@o@p@p@a@q@b@6@p@r@6@s@t@.@,.u@=.v@a #@            ",
"            w@G.F h@0.d 0.x@y@z@*@K+A@B@p@C@D@E@F@G@H@I@J@K@L@M@N@O@P@.@b.z@K Q@a #@            ",
"            2 G.F r u i 0.R@z@z@S@T@U@V@W@X@Y@Z@`@ #.#+#@###$#%#&#*#=#-#u@z@z@;#a #@            ",
"            >#G.F r u i 0.,#'#z@z@)#!#~#{#]#^#/#(#_#:#<#[#}#|#1#2#3#4#5#z@z@6#7#a #@            ",
"            4 8# .r u i C. .9#z@z@0#a#b#c#d#e#f#g#h#i#j#k#l#m#n#o#p#q#r#z@s#t#8#a #@            ",
"            u#8# .r u i C. .).v#w#x#a#y#z#A#B#C#C#D#E#F#G#H#I#J#K#L#q#M#N#O#8#8#a #@            ",
"            P#8# .r u i C. .).}.0.Q#R#S#T#U#V#W#X#Y#Z#`# $.$+$@$9 #$$$%$a G.8#G.a #@            ",
"            &$8# .r u i C.).).}.0.C.C.W.T#*$*$=$-$;$>$G.a 0 0 9 9 9 9 0 a G.G.G.a #@            ",
"            ,$8# .r u i C.).).}.0.C.C.W.T#*$*$=$-$8#8#G.a 0 0 9 8 9 9 0 a G.G.G.a #@            ",
"            s 8# .r u i C. .).}.0.C.C.W.T#*$*$=$-$8#8#G.a a 0 9 9 9 0 0 a G.8#G.a #@            ",
"            T -$ .r u i C. .).}.0.0.C.W.T#T#*$=$-$-$8#G.G.a 0 0 0 0 0 a a G.8#G.a #@            ",
"            %.-$ .r u i C. .).}.0.0.C.W.T#T#*$=$=$-$8#8#G.a a 0 0 0 a a G.G.8#8#a #@            ",
"            d.-$F r u i 0. .).}.}.0.C.W.W.T#*$*$=$-$-$8#G.G.a a a a a G.G.8#8#8#a #@            ",
"            .+-$F r u i 0. .).}.}.0.C.C.W.T#T#*$=$=$-$8#8#G.G.G.G.G.G.G.8#8#-$8#a #@            ",
"            F.}.0 a 0 G.0 0 0 0 0 0 0 0 a a a a a a a a a a a a a a a a a a a a -$'$            ",
"              d.4 4 4 4 )$)$)$)$)$)$)$)$u#u#u#u#u#)$)$)$)$4 4 4 4 4 4 4 3 3 3 3 2.d.            ",
"                                                                                                ",
"                                                                                                ",
"                                                                                                "};
