/* XPM */
static const char * const Help_xpm[] = {
"21 21 31 1",
" 	c None",
".	c #6699FF",
"+	c #8CB2FE",
"@	c #CDDDFE",
"#	c #F0F5FE",
"$	c #F9FAFE",
"%	c #E4ECFE",
"&	c #A4C2FE",
"*	c #6698FE",
"=	c #FFFFFF",
"-	c #A9C5FE",
";	c #DAE6FE",
">	c #95B8FE",
",	c #6D9DFE",
"'	c #71A0FE",
")	c #BFD4FE",
"!	c #E9F0FE",
"~	c #F7F9FE",
"{	c #90B4FE",
"]	c #C8DAFE",
"^	c #78A5FE",
"/	c #EEF3FE",
"(	c #E3ECFE",
"_	c #6F9FFE",
":	c #7CA7FE",
"<	c #EDF2FE",
"[	c #E6EEFE",
"}	c #DBE7FE",
"|	c #87AEFE",
"1	c #FBFCFE",
"2	c #6799FE",
"        .....        ",
"      .........      ",
"    .............    ",
"   ...............   ",
"  .....+@#$%&*.....  ",
"  .....======-.....  ",
" ......;>,')=!...... ",
" ..........,=~...... ",
"...........{=].......",
"..........^/(_.......",
".........:<['........",
".........}=|.........",
".........1=2.........",
" ........==......... ",
" ................... ",
"  .......==........  ",
"  .......==........  ",
"   ...............   ",
"    .............    ",
"      .........      ",
"        .....        "};
