/* XPM */
static const char * SliderThumbDisabled[] = {
"11 14 7 1",
" 	c None",
".	c #DEDEDE",
"+	c #888888",
"@	c #EEEEEE",
"#	c #C8C8C8",
"$	c #999999",
"%	c #F2F2F2",
"..+++++++..",
".+@@@@@@@+.",
"+@@#@#@#@$+",
"+@#@#@#@##+",
"+@@#@#@#@$+",
"+@#@#@#@##+",
"+@@#@#@#@$+",
"+@#@#@#@##+",
"+@@#@#@#@$+",
".+@@#@#@$+.",
"..+%@#@$+..",
"...+%@$+...",
"....+%+....",
".....+....."};
