/* XPM */
static const char * SliderThumb[] = {
"11 14 7 1",
" 	c None",
".	c #DEDEDE",
"+	c #000000",
"@	c #FFFFFF",
"#	c #C0C0D8",
"$	c #8D8DB2",
"%	c #F2F2F2",
"..+++++++..",
".+@@@@@@@+.",
"+@#######$+",
"+@#######$+",
"+@##@@@##$+",
"+@##$$$##$+",
"+@#######$+",
"+@##@@@##$+",
"+@##$$$##$+",
".+@#####$+.",
"..+%###$+..",
"...+%#$+...",
"....+%+....",
".....+....."};
