/* XPM */
static const char  *SliderThumbAlpha[] = {
"11 14 2 1",
".  c #000000",
"#  c #ffffff",
"..#######..",
".#########.",
"###########",
"###########",
"###########",
"###########",
"###########",
"###########",
"###########",
".#########.",
"..#######..",
"...#####...",
"....###....",
".....#....."
};
