/* XPM */
static const char * const SliderThumb_VerticalAlpha[] = {
"14 11 3 1",
" 	c None",
".	c #000000",
"+	c #FFFFFF",
"..+++++++.....",
".+++++++++....",
"+++++++++++...",
"++++++++++++..",
"+++++++++++++.",
"++++++++++++++",
"+++++++++++++.",
"++++++++++++..",
"+++++++++++...",
".+++++++++....",
"..+++++++....."};
