/* XPM */
static const char  * SliderThumb_Vertical[] = {
"14 11 7 1",
" 	c None",
".	c #DEDEDE",
"+	c #000000",
"@	c #FFFFFF",
"#	c #C0C0D8",
"$	c #F2F2F2",
"%	c #8D8DB2",
"..+++++++.....",
".+@@@@@@@+....",
"+@#######@+...",
"+@########$+..",
"+@##@%#@%##$+.",
"+@##@%#@%###$+",
"+@##@%#@%##%+.",
"+@########%+..",
"+@#######%+...",
".+%%%%%%%+....",
"..+++++++....."};
