/* XPM */
static const char * const SneedacityLogoAlpha_xpm[] = {
"48 48 928 2",
"  	c None",
". 	c #B36263",
"+ 	c #B25B5C",
"@ 	c #B25B5D",
"# 	c #B15E5F",
"$ 	c #B16163",
"% 	c #B82323",
"& 	c #C61717",
"* 	c #CE1111",
"= 	c #D00D0D",
"- 	c #CE0C0C",
"; 	c #C71817",
"> 	c #BE2622",
", 	c #B82C29",
"' 	c #B52D2A",
") 	c #AD2D2A",
"! 	c #A2302C",
"~ 	c #9A322F",
"{ 	c #963737",
"] 	c #AF1A1A",
"^ 	c #BD0708",
"/ 	c #D20102",
"( 	c #D90000",
"_ 	c #D60202",
": 	c #C71C19",
"< 	c #B04139",
"[ 	c #A25C50",
"} 	c #9D685C",
"| 	c #99685B",
"1 	c #946457",
"2 	c #936558",
"3 	c #956557",
"4 	c #965B4F",
"5 	c #91463D",
"6 	c #BA2121",
"7 	c #C90606",
"8 	c #BD0202",
"9 	c #AD0203",
"0 	c #C60103",
"a 	c #D70001",
"b 	c #D80000",
"c 	c #CF0F0D",
"d 	c #B3463F",
"e 	c #8A6556",
"f 	c #6A6F53",
"g 	c #617653",
"h 	c #5C7751",
"i 	c #57764D",
"j 	c #59764D",
"k 	c #5B764F",
"l 	c #617452",
"m 	c #707056",
"n 	c #796253",
"o 	c #B53131",
"p 	c #C90E0E",
"q 	c #D50102",
"r 	c #D70100",
"s 	c #C90201",
"t 	c #AC0302",
"u 	c #B50103",
"v 	c #D60101",
"w 	c #C81512",
"x 	c #A3534A",
"y 	c #6D6A53",
"z 	c #306D2E",
"A 	c #117913",
"B 	c #0C7C0B",
"C 	c #0B7D09",
"D 	c #0B7C0A",
"E 	c #0F7B13",
"F 	c #247D28",
"G 	c #427C40",
"H 	c #5C6D4B",
"I 	c #C22323",
"J 	c #D30202",
"K 	c #DA0000",
"L 	c #D30101",
"M 	c #BA0302",
"N 	c #AC0204",
"O 	c #C90305",
"P 	c #C7110E",
"Q 	c #9F493F",
"R 	c #616143",
"S 	c #1F721D",
"T 	c #038407",
"U 	c #008701",
"V 	c #008800",
"W 	c #008801",
"X 	c #028503",
"Y 	c #0E7E0D",
"Z 	c #366728",
"` 	c #5C4833",
" .	c #C51A1B",
"..	c #D70102",
"+.	c #C30203",
"@.	c #A90305",
"#.	c #BE0406",
"$.	c #CB0A08",
"%.	c #A6372F",
"&.	c #68563C",
"*.	c #307027",
"=.	c #058008",
"-.	c #008400",
";.	c #008200",
">.	c #028003",
",.	c #1D6715",
"'.	c #514427",
").	c #C61617",
"!.	c #D50101",
"~.	c #D90101",
"{.	c #C90203",
"].	c #A90406",
"^.	c #B50405",
"/.	c #D00102",
"(.	c #D00304",
"_.	c #AF201D",
":.	c #7C4F40",
"<.	c #516942",
"[.	c #327331",
"}.	c #2F7630",
"|.	c #2E742F",
"1.	c #2F7530",
"2.	c #337733",
"3.	c #337933",
"4.	c #2F792F",
"5.	c #376932",
"6.	c #5F513B",
"7.	c #8D423F",
"8.	c #BE2C2E",
"9.	c #D40303",
"0.	c #CB0203",
"a.	c #AC0305",
"b.	c #B20304",
"c.	c #D00203",
"d.	c #D20103",
"e.	c #BE1412",
"f.	c #9B524A",
"g.	c #827667",
"h.	c #787F6D",
"i.	c #7A816F",
"j.	c #7A7D6D",
"k.	c #7B7E6E",
"l.	c #828774",
"m.	c #838975",
"n.	c #7A826B",
"o.	c #7B7865",
"p.	c #865B51",
"q.	c #A23837",
"r.	c #C91A1C",
"s.	c #D70101",
"t.	c #CE0203",
"u.	c #B10205",
"v.	c #B10204",
"w.	c #CF0203",
"x.	c #D30103",
"y.	c #CB080A",
"z.	c #B5302C",
"A.	c #9D4A44",
"B.	c #96524B",
"C.	c #9C514D",
"D.	c #9F4E4B",
"E.	c #A14F4B",
"F.	c #A25650",
"G.	c #A05750",
"H.	c #9D514A",
"I.	c #A24C46",
"J.	c #AE3736",
"K.	c #BA1E22",
"L.	c #CE1013",
"M.	c #D80001",
"N.	c #B80304",
"O.	c #CE0104",
"P.	c #D20004",
"Q.	c #CF0106",
"R.	c #C60407",
"S.	c #BA090A",
"T.	c #B40A0C",
"U.	c #B4090C",
"V.	c #B20A0B",
"W.	c #B00B0B",
"X.	c #AE0C0C",
"Y.	c #AF0A0D",
"Z.	c #B40B10",
"`.	c #BB070F",
" +	c #BD080F",
".+	c #CF1112",
"++	c #D70002",
"@+	c #D60003",
"#+	c #C00303",
"$+	c #B90205",
"%+	c #BF0206",
"&+	c #BD0206",
"*+	c #B60206",
"=+	c #AD0306",
"-+	c #A40306",
";+	c #9F0306",
">+	c #9E0305",
",+	c #A00305",
"'+	c #A10306",
")+	c #A20206",
"!+	c #A20306",
"~+	c #A60306",
"{+	c #A80306",
"]+	c #A50408",
"^+	c #952425",
"/+	c #CC1719",
"(+	c #D40103",
"_+	c #CD0104",
":+	c #C40205",
"<+	c #B70305",
"[+	c #A70305",
"}+	c #9D0205",
"|+	c #9C0205",
"1+	c #A50306",
"2+	c #AA0307",
"3+	c #AF0309",
"4+	c #B60308",
"5+	c #BC0307",
"6+	c #C00306",
"7+	c #C40306",
"8+	c #C50107",
"9+	c #C60207",
"0+	c #C70206",
"a+	c #C70205",
"b+	c #C3090B",
"c+	c #BF2B2B",
"d+	c #CA2224",
"e+	c #D70103",
"f+	c #D4080A",
"g+	c #CF2122",
"h+	c #C22D2E",
"i+	c #AB1214",
"j+	c #9B0406",
"k+	c #9E0204",
"l+	c #A90306",
"m+	c #B40308",
"n+	c #BE0206",
"o+	c #C50205",
"p+	c #CB0104",
"q+	c #D00103",
"r+	c #D20104",
"s+	c #D40104",
"t+	c #D50103",
"u+	c #D50104",
"v+	c #D40204",
"w+	c #D40506",
"x+	c #D3090A",
"y+	c #CF0507",
"z+	c #CC0305",
"A+	c #CA0B0B",
"B+	c #C71314",
"C+	c #C42A2B",
"D+	c #C82D2E",
"E+	c #D60304",
"F+	c #D50506",
"G+	c #D12525",
"H+	c #CA5151",
"I+	c #C27A7A",
"J+	c #B78B8B",
"K+	c #A16262",
"L+	c #AE3636",
"M+	c #BF0E0E",
"N+	c #CB0204",
"O+	c #D10104",
"P+	c #D30003",
"Q+	c #D50003",
"R+	c #D60102",
"S+	c #D60103",
"T+	c #D40306",
"U+	c #D10A0B",
"V+	c #CF2121",
"W+	c #CC4041",
"X+	c #C95959",
"Y+	c #C56464",
"Z+	c #B03F42",
"`+	c #A91519",
" @	c #A80406",
".@	c #B00406",
"+@	c #B60B0B",
"@@	c #BC1E20",
"#@	c #C43335",
"$@	c #D20E10",
"%@	c #CB3637",
"&@	c #C77776",
"*@	c #D8B8B7",
"=@	c #CB928F",
"-@	c #C9564B",
";@	c #CE291B",
">@	c #D20C05",
",@	c #D60203",
"'@	c #D50405",
")@	c #D20907",
"!@	c #CD1F19",
"~@	c #C83F3C",
"{@	c #C35C5B",
"]@	c #C27C7C",
"^@	c #CDA6A5",
"/@	c #AD8F93",
"(@	c #A7383E",
"_@	c #B3090F",
":@	c #B10406",
"<@	c #A80405",
"[@	c #9D0305",
"}@	c #A5090E",
"|@	c #AF2225",
"1@	c #BA3539",
"2@	c #C13C3D",
"3@	c #C18687",
"4@	c #DBB997",
"5@	c #C87E4A",
"6@	c #C95726",
"7@	c #CD3F1A",
"8@	c #CF260B",
"9@	c #D11A05",
"0@	c #D21806",
"a@	c #D11D0E",
"b@	c #D02D1A",
"c@	c #CB401F",
"d@	c #C35528",
"e@	c #BE7555",
"f@	c #C9A295",
"g@	c #B5A7B2",
"h@	c #AB4754",
"i@	c #BE111C",
"j@	c #C41B1E",
"k@	c #C41D1E",
"l@	c #C21618",
"m@	c #BB1013",
"n@	c #AB0E11",
"o@	c #9E0D11",
"p@	c #9D2021",
"q@	c #A13A40",
"r@	c #A57478",
"s@	c #F5EA9C",
"t@	c #EAD463",
"u@	c #DDB94C",
"v@	c #CC9C3E",
"w@	c #C37922",
"x@	c #C36A13",
"y@	c #C36C1F",
"z@	c #C37538",
"A@	c #C7874D",
"B@	c #CC9E4D",
"C@	c #D7B855",
"D@	c #E9D891",
"E@	c #A7A3BF",
"F@	c #784975",
"G@	c #83254C",
"H@	c #9F555D",
"I@	c #B75959",
"J@	c #AB5758",
"K@	c #6E3645",
"L@	c #8E858F",
"M@	c #9595B2",
"N@	c #FAF5AD",
"O@	c #F7EB72",
"P@	c #F5DC44",
"Q@	c #F2D73C",
"R@	c #EFDE3E",
"S@	c #EDCF2D",
"T@	c #ECC521",
"U@	c #EBD038",
"V@	c #ECDA5E",
"W@	c #F0E171",
"X@	c #F1E160",
"Y@	c #F2DB53",
"Z@	c #F7E98D",
"`@	c #9B9BBD",
" #	c #9999CA",
".#	c #514BA9",
"+#	c #4C3E8F",
"@#	c #8B829A",
"##	c #3B3178",
"$#	c #413450",
"%#	c #878791",
"&#	c #C2C2CF",
"*#	c #7C7CA1",
"=#	c #FAF5B1",
"-#	c #F7ED79",
";#	c #F5E545",
">#	c #F6D324",
",#	c #F5D020",
"'#	c #F3E325",
")#	c #F5D61D",
"!#	c #F6CC18",
"~#	c #F4DD26",
"{#	c #F4E43C",
"]#	c #F5E647",
"^#	c #F5E33D",
"/#	c #F6D53D",
"(#	c #F8E47B",
"_#	c #8686B3",
":#	c #B2B2D1",
"<#	c #9697D0",
"[#	c #4E4EBF",
"}#	c #4D4DB7",
"|#	c #4A4993",
"1#	c #7474C4",
"2#	c #4C4C8D",
"3#	c #383757",
"4#	c #7A7AA0",
"5#	c #FBF6B7",
"6#	c #F7EC7C",
"7#	c #F5E346",
"8#	c #F5DE25",
"9#	c #F7C915",
"0#	c #F7C614",
"a#	c #F4E219",
"b#	c #F6D014",
"c#	c #F8C613",
"d#	c #F5DB19",
"e#	c #F5DA1D",
"f#	c #F4DC21",
"g#	c #F4DB1F",
"h#	c #F6C92A",
"i#	c #F7DD60",
"j#	c #F9F29E",
"k#	c #8585B1",
"l#	c #9697D2",
"m#	c #494AC7",
"n#	c #3E3EC4",
"o#	c #2323A6",
"p#	c #797AD6",
"q#	c #8383C7",
"r#	c #3A3A7E",
"s#	c #333353",
"t#	c #7A7A9E",
"u#	c #CACAC3",
"v#	c #F8F4C3",
"w#	c #F9EF8A",
"x#	c #F5E54D",
"y#	c #F4DB26",
"z#	c #F5D718",
"A#	c #F8C010",
"B#	c #F8BE10",
"C#	c #F5E018",
"D#	c #F6CB12",
"E#	c #F6D615",
"F#	c #F6CB13",
"G#	c #F5D215",
"H#	c #F5D516",
"I#	c #F8BD1A",
"J#	c #F6D63B",
"K#	c #F6EB65",
"L#	c #F9F18E",
"M#	c #8584AB",
"N#	c #B2B2D0",
"O#	c #4646C9",
"P#	c #1616C5",
"Q#	c #0505B6",
"R#	c #161694",
"S#	c #8080D8",
"T#	c #4E4EB1",
"U#	c #191974",
"V#	c #313152",
"W#	c #C1C2CE",
"X#	c #7A799A",
"Y#	c #C9C6AE",
"Z#	c #F6EE9E",
"`#	c #F6E65F",
" $	c #F4DD2C",
".$	c #F5D518",
"+$	c #F5D114",
"@$	c #F9B80E",
"#$	c #F9B60E",
"$$	c #F5DD17",
"%$	c #F7C511",
"&$	c #F9B70E",
"*$	c #F7CF14",
"=$	c #F8BD0F",
"-$	c #F6CA13",
";$	c #F6CF13",
">$	c #F9B30F",
",$	c #F6CF1F",
"'$	c #F5E332",
")$	c #F6E54E",
"!$	c #F5EA7A",
"~$	c #D9D39F",
"{$	c #8381A0",
"]$	c #9797D3",
"^$	c #4646CB",
"/$	c #0C0CC8",
"($	c #0100BF",
"_$	c #0505A4",
":$	c #36367D",
"<$	c #4B4AC8",
"[$	c #5453CB",
"}$	c #2222A7",
"|$	c #070772",
"1$	c #86878F",
"2$	c #C1C1CB",
"3$	c #787791",
"4$	c #C7C291",
"5$	c #F3E675",
"6$	c #F6DB3D",
"7$	c #F5D61B",
"8$	c #F5D013",
"9$	c #F6CA12",
"0$	c #FAAF0C",
"a$	c #FAAE0C",
"b$	c #F6D815",
"c$	c #F9B00D",
"d$	c #F7C512",
"e$	c #F9AD0B",
"f$	c #F7C211",
"g$	c #F7C812",
"h$	c #FAA80B",
"i$	c #F7C914",
"j$	c #F6D719",
"k$	c #F6D525",
"l$	c #F3E048",
"m$	c #D6CC75",
"n$	c #827E94",
"o$	c #B2B1CC",
"p$	c #4546CB",
"q$	c #0B0BCA",
"r$	c #0100C4",
"s$	c #0101AD",
"t$	c #181882",
"u$	c #2F2FC4",
"v$	c #1F1FC2",
"w$	c #0606A4",
"x$	c #040471",
"y$	c #313151",
"z$	c #86868B",
"A$	c #C0BFC1",
"B$	c #777487",
"C$	c #C4BC6D",
"D$	c #F2E04C",
"E$	c #F6D125",
"F$	c #F6CF15",
"G$	c #F7C110",
"H$	c #FAA50A",
"I$	c #FBA50A",
"J$	c #F7CF13",
"K$	c #FAA80D",
"L$	c #F8B810",
"M$	c #FB9B09",
"N$	c #F9B80F",
"O$	c #F8BC10",
"P$	c #FB9A08",
"Q$	c #F8C311",
"R$	c #F7C712",
"S$	c #F7C715",
"T$	c #F3D328",
"U$	c #D4C557",
"V$	c #817C8C",
"W$	c #B2B1C4",
"X$	c #9696CF",
"Y$	c #4545CB",
"Z$	c #0B0BCB",
"`$	c #0000C6",
" %	c #0000B3",
".%	c #0D0D88",
"+%	c #1515BF",
"@%	c #0403C0",
"#%	c #0000A4",
"$%	c #313150",
"%%	c #868584",
"&%	c #C0BEB5",
"*%	c #767280",
"=%	c #C3B853",
"-%	c #F2D82C",
";%	c #F7C617",
">%	c #F7C713",
",%	c #F7C411",
"'%	c #F7B40F",
")%	c #FB9409",
"!%	c #FB9709",
"~%	c #F8C212",
"{%	c #FAAB0D",
"]%	c #FA9D0C",
"^%	c #F9A50E",
"/%	c #FC8007",
"(%	c #FAA50E",
"_%	c #F9A50F",
":%	c #FC8506",
"<%	c #F9B810",
"[%	c #F9B30E",
"}%	c #F8B80F",
"|%	c #F5C21B",
"1%	c #D5BB4B",
"2%	c #817988",
"3%	c #B1B0BB",
"4%	c #9695CB",
"5%	c #0B0BCC",
"6%	c #0100C7",
"7%	c #0000B5",
"8%	c #09098B",
"9%	c #47476B",
"0%	c #4E4EA7",
"a%	c #0C0CBE",
"b%	c #0100C0",
"c%	c #040472",
"d%	c #868583",
"e%	c #C0BEB2",
"f%	c #766F7F",
"g%	c #C2B04A",
"h%	c #F2C81E",
"i%	c #F8B411",
"j%	c #F8B912",
"k%	c #F8B710",
"l%	c #F8A10E",
"m%	c #FB7D09",
"n%	c #FC7F07",
"o%	c #F9AD10",
"p%	c #FB990C",
"q%	c #FB8C0B",
"r%	c #FA8B0C",
"s%	c #FC5A04",
"t%	c #FB850C",
"u%	c #FA810B",
"v%	c #FC6104",
"w%	c #FA9E0E",
"x%	c #FB930A",
"y%	c #FA9D0B",
"z%	c #F6A516",
"A%	c #D6AF46",
"B%	c #817686",
"C%	c #B1AFB6",
"D%	c #9695C9",
"E%	c #4545CA",
"F%	c #07078B",
"G%	c #3F3F66",
"H%	c #4D4DA6",
"I%	c #0B0BBE",
"J%	c #C0BDB2",
"K%	c #766880",
"L%	c #C49A48",
"M%	c #F5A518",
"N%	c #FA940C",
"O%	c #F8A010",
"P%	c #F9970D",
"Q%	c #FA7D0B",
"R%	c #FB5F08",
"S%	c #FD5F06",
"T%	c #FA8D0D",
"U%	c #FB7F0A",
"V%	c #FB6C09",
"W%	c #FB6709",
"X%	c #FD2E02",
"Y%	c #FB5407",
"Z%	c #FB4D06",
"`%	c #FD3202",
" &	c #FB6A09",
".&	c #FC6006",
"+&	c #FB6206",
"@&	c #F76F11",
"#&	c #D79343",
"$&	c #816C86",
"%&	c #B1AFB5",
"&&	c #060688",
"*&	c #3D3D62",
"=&	c #5050A7",
"-&	c #313153",
";&	c #858585",
">&	c #C0BDB4",
",&	c #765880",
"'&	c #C47447",
")&	c #F77F15",
"!&	c #FC6106",
"~&	c #FA720A",
"{&	c #FB5405",
"]&	c #FC3A04",
"^&	c #FD3505",
"/&	c #FD4004",
"(&	c #FB6A0A",
"_&	c #FC6008",
":&	c #FC3B05",
"<&	c #FC3404",
"[&	c #FE0E01",
"}&	c #FD1802",
"|&	c #FD1602",
"1&	c #FE0A01",
"2&	c #FD2302",
"3&	c #FD1D01",
"4&	c #FD1801",
"5&	c #FA300C",
"6&	c #D85E41",
"7&	c #825386",
"8&	c #B1AEB5",
"9&	c #9595C9",
"0&	c #0000C4",
"a&	c #0000AE",
"b&	c #080880",
"c&	c #41415F",
"d&	c #0F0FBD",
"e&	c #764881",
"f&	c #C54546",
"g&	c #F75714",
"h&	c #FD2F03",
"i&	c #FC3704",
"j&	c #FD2102",
"k&	c #FE1C01",
"l&	c #FD3304",
"m&	c #FC4106",
"n&	c #FB4506",
"o&	c #FD3E05",
"p&	c #FE1301",
"q&	c #FE0A00",
"r&	c #FE0800",
"s&	c #FE0E00",
"t&	c #FE1801",
"u&	c #FE1200",
"v&	c #FA110A",
"w&	c #D91F3F",
"x&	c #823E86",
"y&	c #B1AEB6",
"z&	c #0100C1",
"A&	c #0000A5",
"B&	c #0A0A74",
"C&	c #4A4A5F",
"D&	c #1818BD",
"E&	c #313154",
"F&	c #C0BDB3",
"G&	c #774481",
"H&	c #C61E46",
"I&	c #F72D11",
"J&	c #FC2903",
"K&	c #FC4304",
"L&	c #FC4F05",
"M&	c #FD4E03",
"N&	c #FB6808",
"O&	c #FB6F0B",
"P&	c #FC3304",
"Q&	c #FD2002",
"R&	c #FD2A02",
"S&	c #FE3002",
"T&	c #FD3C04",
"U&	c #FC3D04",
"V&	c #FD2F02",
"W&	c #FD5806",
"X&	c #FD5004",
"Y&	c #FD4804",
"Z&	c #F93D0C",
"`&	c #D83C40",
" *	c #824486",
".*	c #B1AFB7",
"+*	c #4545C9",
"@*	c #0B0BC7",
"#*	c #0000BA",
"$*	c #000097",
"%*	c #100F65",
"&*	c #2E2EBD",
"**	c #0403BD",
"=*	c #0000A2",
"-*	c #774983",
";*	c #C83347",
">*	c #F8360F",
",*	c #FB5A06",
"'*	c #FA800C",
")*	c #FA860C",
"!*	c #FB8608",
"~*	c #FA990C",
"{*	c #FC6807",
"]*	c #FA6208",
"^*	c #FC4605",
"/*	c #FC5F07",
"(*	c #FC6607",
"_*	c #FC7308",
":*	c #FA770A",
"<*	c #FC6305",
"[*	c #FA960D",
"}*	c #FC8809",
"|*	c #FB890A",
"1*	c #F78211",
"2*	c #D78042",
"3*	c #825E86",
"4*	c #9595C8",
"5*	c #4545C7",
"6*	c #0B0BC1",
"7*	c #0000AC",
"8*	c #010183",
"9*	c #212055",
"0*	c #0E0EB3",
"a*	c #00009C",
"b*	c #04046E",
"c*	c #858586",
"d*	c #775A83",
"e*	c #C86D48",
"f*	c #F86E12",
"g*	c #F98F0C",
"h*	c #F9AE10",
"i*	c #F9A60D",
"j*	c #F9AA0C",
"k*	c #F8B70F",
"l*	c #F8BA10",
"m*	c #FA920B",
"n*	c #F98C0C",
"o*	c #FC6C06",
"p*	c #FB900B",
"q*	c #FB950B",
"r*	c #FA9E0C",
"s*	c #F8A70F",
"t*	c #FA900A",
"u*	c #F9B811",
"v*	c #FAA60B",
"w*	c #F9B40F",
"x*	c #F5BB18",
"y*	c #D5B346",
"z*	c #817585",
"A*	c #9695C7",
"B*	c #4545C2",
"C*	c #0B0BB4",
"D*	c #000095",
"E*	c #070767",
"F*	c #2D2D9B",
"G*	c #030387",
"H*	c #040461",
"I*	c #858588",
"J*	c #C0BFB6",
"K*	c #766B80",
"L*	c #C69948",
"M*	c #F6A017",
"N*	c #F8B610",
"O*	c #F7C613",
"P*	c #F7B90F",
"Q*	c #F6C813",
"R*	c #F9AA0E",
"S*	c #F9A20E",
"T*	c #FB8D09",
"U*	c #F9B10F",
"V*	c #F9AC0D",
"W*	c #F8C312",
"X*	c #F7C514",
"Y*	c #F3D724",
"Z*	c #D4C44F",
"`*	c #817B86",
" =	c #B1B0BA",
".=	c #9695C4",
"+=	c #4545B3",
"@=	c #0B0B9A",
"#=	c #010174",
"$=	c #20204E",
"%=	c #232366",
"&=	c #040447",
"*=	c #303047",
"==	c #868689",
"-=	c #C0C0BB",
";=	c #767074",
">=	c #C4AB47",
",=	c #F3C223",
"'=	c #F6CC16",
")=	c #F6D114",
"!=	c #F6C912",
"~=	c #F6CC13",
"{=	c #F6CD13",
"]=	c #F6D315",
"^=	c #F8BD11",
"/=	c #F9B110",
"(=	c #FAA70C",
"_=	c #F8C411",
":=	c #F8BF10",
"<=	c #F7C611",
"[=	c #F5D715",
"}=	c #F8BB0F",
"|=	c #F8BB12",
"1=	c #F6D021",
"2=	c #F2E441",
"3=	c #D5CD67",
"4=	c #817D85",
"5=	c #B2B1BF",
"6=	c #9796BA",
"7=	c #454595",
"8=	c #0B0A71",
"9=	c #18184F",
"0=	c #383841",
"a=	c #373740",
"b=	c #C1C1BF",
"c=	c #797668",
"d=	c #C6BB5B",
"e=	c #F2DB44",
"f=	c #F4DB25",
"g=	c #F5DB18",
"h=	c #F5D915",
"i=	c #F5D816",
"j=	c #F7CD14",
"k=	c #F6CD14",
"l=	c #F5D216",
"m=	c #F4DF18",
"n=	c #F6CF14",
"o=	c #F7CA1A",
"p=	c #F5DB3B",
"q=	c #F4EB6E",
"r=	c #DAD491",
"s=	c #868385",
"t=	c #B2B2BE",
"u=	c #9797AB",
"v=	c #494870",
"w=	c #333350",
"x=	c #D9D495",
"y=	c #F5EB78",
"z=	c #F5E64A",
"A=	c #F3E42C",
"B=	c #F3E21F",
"C=	c #F4E31F",
"D=	c #F3E223",
"E=	c #F4E323",
"F=	c #F4DB1D",
"G=	c #F6CC14",
"H=	c #F7CB13",
"I=	c #F5DB17",
"J=	c #F5DB1C",
"K=	c #F4DE24",
"L=	c #F4E42A",
"M=	c #F5D625",
"N=	c #F5D920",
"O=	c #F5D92C",
"P=	c #F6E55C",
"Q=	c #F6EB5F",
"R=	c #F5E94A",
"S=	c #F5E948",
"T=	c #F5EA50",
"U=	c #F5E94F",
"V=	c #F5E53D",
"W=	c #F5DA1F",
"X=	c #F4E328",
"Y=	c #F4E638",
"Z=	c #F5E84F",
"`=	c #F6EA5E",
" -	c #F6E558",
".-	c #F6E54C",
"+-	c #F6E755",
"@-	c #F7EE73",
"#-	c #F6E851",
"$-	c #F5E748",
"%-	c #F6EA59",
"&-	c #F7ED71",
"                                                                                                ",
"                                                                                                ",
"                                                                                                ",
"                                                                                                ",
"                                                                                                ",
"                                            . + @ # $                                           ",
"                                      % & * = - ; > , ' ) ! ~ {                                 ",
"                                  ] ^ / ( ( _ : < [ } | 1 2 3 4 5                               ",
"                              6 7 8 9 0 a b c d e f g h i j k l m n                             ",
"                          o p q r s t u / v w x y z A B C D E F G H                             ",
"                        I J b K K L M N O q P Q R S T U V W U X Y Z `                           ",
"                       .v K K K K ..+.@.#./ $.%.&.*.=.-.-.-.-.;.>.,.'.                          ",
"                    ).!.K K K K K ~.{.].^./.(._.:.<.[.}.|.1.2.3.4.5.6.7.                        ",
"                  8.9.( K K K K K ( 0.a.b.c.d.e.f.g.h.i.j.k.l.m.n.o.p.q.                        ",
"                  r.s.K K K K K K ( t.u.v.w.x.y.z.A.B.C.D.E.F.G.H.I.J.K.                        ",
"                  L.M.K K ( K ( ( M.c.N.u O.P.Q.R.S.T.T.U.V.W.X.Y.Z.`. +                        ",
"                  .+M.K ( M.M.a ++@+w.#+$+%+&+*+=+-+;+>+,+'+)+)+!+~+{+]+^+                      ",
"                  /+..( M.M.a (+_+:+<+[+}+|+,+1+2+3+4+5+6+7+8+9+0+a+a+a+b+c+                    ",
"                  d+e+M...f+g+h+i+j+k+l+m+n+o+p+_+O.q+r+s+t+u+u+t+v+w+x+y+z+A+B+C+              ",
"                  D+E+F+G+H+I+J+K+L+M+N+O+P+Q+a a s.!.q R+S+T+U+V+W+X+Y+Z+`+ @a..@+@@@          ",
"                  #@$@%@&@*@      =@-@;@>@9.R+a M.s.,@'@)@!@~@{@]@^@    /@(@_@:@<@,+[@}@|@      ",
"                  1@2@3@            4@5@6@7@8@9@0@a@b@c@d@e@f@          g@h@i@j@k@l@m@n@o@p@    ",
"                  q@r@              s@t@u@v@w@x@y@z@A@B@C@D@            E@F@G@H@        I@J@    ",
"                  K@L@  M@        N@O@P@Q@R@S@T@U@V@W@X@Y@Z@        `@   #.#+#@#                ",
"                ##$#%#&#*#      =#-#;#>#,#'#)#!#~#{#]#^#/#(#        _#:#<#[#}#|#                ",
"              1#2#3#%#&#4#    5#6#7#8#9#0#a#b#c#d#e#f#g#h#i#j#      k#:#l#m#n#o#                ",
"            p#q#r#s#%#&#t#u#v#w#x#y#z#A#B#C#D#B#E#F#G#H#I#J#K#L#    M#N#l#O#P#Q#R#              ",
"            S#T#U#V#%#W#X#Y#Z#`# $.$+$@$#$$$%$&$*$=$-$;$>$,$'$)$!$~${$N#]$^$/$($_$:$            ",
"          <$[$}$|$V#1$2$3$4$5$6$7$8$9$0$a$b$B#c$d$e$f$g$h$i$j$k$l$m$n$o$l#p$q$r$s$t$            ",
"          u$v$w$x$y$z$A$B$C$D$E$F$9$G$H$I$J$#$K$L$M$N$O$P$Q$R$S$T$U$V$W$X$Y$Z$`$ %.%            ",
"          +%@%#%x$$%%%&%*%=%-%;%>%,%'%)%!%~%{%]%^%/%(%_%:%<%[%}%|%1%2%3%4%Y$5%6%7%8%9%          ",
"        0%a%b%#%c%y$d%e%f%g%h%i%j%k%l%m%n%o%p%q%r%s%t%u%v%w%x%y%z%A%B%C%D%E%5%6%7%F%G%          ",
"        H%I%b%#%c%V#%%J%K%L%M%N%O%P%Q%R%S%T%U%V%W%X%Y%Z%`% &.&+&@&#&$&%&D%E%Z$6% %&&*&          ",
"        =&a%b%#%c%-&;&>&,&'&)&!&~&{&]&^&/&(&_&:&<&[&}&|&1&2&3&4&5&6&7&8&9&E%Z$0&a&b&c&          ",
"          d&b%#%c%-&;&>&e&f&g&h&i&j&k&l&m&n&o&p&q&r&s&s&r&k&t&u&v&w&x&y&D%E%q$z&A&B&C&          ",
"          D&($#%c%E&;&F&G&H&I&J&K&L&M&N&O&]&P&Q&R&S&T&U&V&W&X&Y&Z&`& *.*D%+*@*#*$*%*            ",
"          &***=*x$E&;&J%-*;*>*,*'*)*!*~*w%{*]*^*/*(*_*:*<*[*}*|*1*2*3*C%4*5*6*7*8*9*            ",
"            0*a*b*-&c*F&d*e*f*g*h*i*j*k*l*m*n*o*p*q*r*s*t*u*v*w*x*y*z*C%A*B*C*D*E*              ",
"            F*G*H*$%I*J*K*L*M*N*O*P*B#,%Q*R*S*T*U*c$&$R$V*W*c$X*Y*Z*`* =.=+=@=#=$=              ",
"              %=&=*===-=;=>=,='=)=!=~={=]=^=/=(=_=:=<=[=}=g$|=1=2=3=4=5=6=7=8=9=                ",
"                0=a===b=c=d=e=f=g=[=h=i=$$j=B#}=)=k=l=m=Q*n=o=p=q=r=s=t=u=v=w=                  ",
"                          x=y=z=A=B=C=D=E=F=G=H=I=J=K=L=M=N=O=P=                                ",
"                                Q=R=S=T=U=V=y#W=X=Y=Z=`= -.-+-                                  ",
"                                          @-#-$-%-&-                                            ",
"                                                                                                ",
"                                                                                                ",
"                                                                                                ",
"                                                                                                "};
