/* XPM */
static const char * Disabled[] = {
"27 27 52 1",
" 	c None",
".	c #AAAAAA",
"+	c #A9A9A9",
"@	c #A8A8A8",
"#	c #A7A7A7",
"$	c #A6A6A6",
"%	c #A5A5A5",
"&	c #A4A4A4",
"*	c #A3A3A3",
"=	c #A2A2A2",
"-	c #A1A1A1",
";	c #A0A0A0",
">	c #9F9F9F",
",	c #9E9E9E",
"'	c #9D9D9D",
")	c #9C9C9C",
"!	c #9B9B9B",
"~	c #9A9A9A",
"{	c #999999",
"]	c #989898",
"^	c #979797",
"/	c #969696",
"(	c #959595",
"_	c #949494",
":	c #939393",
"<	c #929292",
"[	c #919191",
"}	c #909090",
"|	c #8F8F8F",
"1	c #8E8E8E",
"2	c #8D8D8D",
"3	c #8C8C8C",
"4	c #8B8B8B",
"5	c #8A8A8A",
"6	c #898989",
"7	c #888888",
"8	c #878787",
"9	c #868686",
"0	c #858585",
"a	c #848484",
"b	c #838383",
"c	c #828282",
"d	c #818181",
"e	c #808080",
"f	c #7F7F7F",
"g	c #7E7E7E",
"h	c #7D7D7D",
"i	c #7C7C7C",
"j	c #7B7B7B",
"k	c #7A7A7A",
"l	c #797979",
"m	c #787878",
".+@#$%&*=-;>,')!~{]^/(_:<[}",
"+@#$%&*=-;>,')!~{]^/(_:<[}|",
"@#$%&*=-;>,')!~{]^/(_:<[}||",
"#$%&*=-;>,')!~{]^/(_:<<[}|1",
"$%&*=-;>,')!~{]^/((_:<[}|12",
"%&*=-;>,')!~{]]^/(_:<[}|123",
"&*=-;>,')!!~{]^/(_:<[}|1234",
"*=-;>,,')!~{]^/(_:<[}|12345",
"=--;>,')!~{]^/(_:<[}|123456",
"=-;>,')!~{]^/(_:<[}|1234567",
"-;>,')!~{]^/(_:<[}|12345678",
";>,')!~{]^/(_:<[}|123456789",
">,')!~{]^/(_:<[}|1234567890",
",')!~{]^/(_:<[}|1234567890a",
"')!~{]^/(_:<[}|1234567890ab",
")!~{]^/(_:<[}|1234567890abc",
"!~{]^/(_:<[}|1234567890abcd",
"~{]^/(_:<[}|1234567890abcde",
"{]^/(_:<[}|1234567890abcdef",
"]^/(_:<[}|1234567890abcdefg",
"^/(_:<[}|1234567890abcdefgh",
"/(_:<[}|1234567890abcdefghi",
"(_:<[}|1234567890abcdefghij",
"_:<[}|1234567890abcdefgghij",
":<[}|1234567890abcdeefghijk",
"<[}|1234567890abbcdefghijkl",
"[}|12345678990abcdefghijklm"};
