/* XPM */
static const char * DownButton[] = {
"48 48 108 2",
"  	c None",
". 	c #CCCCCC",
"+ 	c #C9C9C9",
"@ 	c #CBCBCB",
"# 	c #C8C8C8",
"$ 	c #C6C6C6",
"% 	c #C5C5C5",
"& 	c #C2C2C2",
"* 	c #BFBFBF",
"= 	c #BDBDBD",
"- 	c #BCBCBC",
"; 	c #BABABA",
"> 	c #BBBBBB",
", 	c #C0C0C0",
"' 	c #C1C1C1",
") 	c #C3C3C3",
"! 	c #C7C7C7",
"~ 	c #CACACA",
"{ 	c #BEBEBE",
"] 	c #B4B4B4",
"^ 	c #B1B1B1",
"/ 	c #ADADAD",
"( 	c #AAAAAA",
"_ 	c #A7A7A7",
": 	c #A8A8A8",
"< 	c #A9A9A9",
"[ 	c #ABABAB",
"} 	c #B0B0B0",
"| 	c #B9B9B9",
"1 	c #B7B7B7",
"2 	c #A4A4A4",
"3 	c #9F9F9F",
"4 	c #9C9C9C",
"5 	c #9A9A9A",
"6 	c #9B9B9B",
"7 	c #9E9E9E",
"8 	c #A0A0A0",
"9 	c #A2A2A2",
"0 	c #A5A5A5",
"a 	c #ACACAC",
"b 	c #B6B6B6",
"c 	c #C4C4C4",
"d 	c #B8B8B8",
"e 	c #999999",
"f 	c #969696",
"g 	c #949494",
"h 	c #939393",
"i 	c #989898",
"j 	c #AFAFAF",
"k 	c #B3B3B3",
"l 	c #919191",
"m 	c #929292",
"n 	c #959595",
"o 	c #A6A6A6",
"p 	c #AEAEAE",
"q 	c #B2B2B2",
"r 	c #A3A3A3",
"s 	c #8F8F8F",
"t 	c #B5B5B5",
"u 	c #8E8E8E",
"v 	c #CECECE",
"w 	c #CFCFCF",
"x 	c #CDCDCD",
"y 	c #9D9D9D",
"z 	c #8D8D8D",
"A 	c #D0D0D0",
"B 	c #D2D2D2",
"C 	c #D1D1D1",
"D 	c #909090",
"E 	c #D3D3D3",
"F 	c #D4D4D4",
"G 	c #D5D5D5",
"H 	c #979797",
"I 	c #D6D6D6",
"J 	c #D7D7D7",
"K 	c #D8D8D8",
"L 	c #DADADA",
"M 	c #DBDBDB",
"N 	c #DDDDDD",
"O 	c #D9D9D9",
"P 	c #DEDEDE",
"Q 	c #E0E0E0",
"R 	c #DFDFDF",
"S 	c #E1E1E1",
"T 	c #E3E3E3",
"U 	c #E5E5E5",
"V 	c #E6E6E6",
"W 	c #E2E2E2",
"X 	c #E8E8E8",
"Y 	c #E9E9E9",
"Z 	c #E4E4E4",
"` 	c #A1A1A1",
" .	c #EAEAEA",
"..	c #DCDCDC",
"+.	c #EDEDED",
"@.	c #ECECEC",
"#.	c #EBEBEB",
"$.	c #EEEEEE",
"%.	c #F0F0F0",
"&.	c #F2F2F2",
"*.	c #F4F4F4",
"=.	c #F5F5F5",
"-.	c #F1F1F1",
";.	c #F6F6F6",
">.	c #F3F3F3",
",.	c #E7E7E7",
"'.	c #EFEFEF",
").	c #F7F7F7",
". . . . . + + . . . . @ + # $ % & * = - ; ; ; ; ; > = , ' ) % ! # ~ @ ~ . . . . . @ @ . . . . . ",
". . . @ + ~ . . . . ~ # $ & { ; ] ^ / ( _ _ : : < [ / } ] | - , ) $ # ~ ~ @ . . . . @ @ . . . . ",
". . ~ + @ . . . ~ # $ & - 1 } < 2 3 4 5 5 6 6 4 7 8 9 0 : a } b > * c ! # ~ ~ @ . . . . @ @ . . ",
". @ + . . . . ~ # c { d } _ 7 e f g h f i e 4 7 3 8 9 2 0 _ [ j k d = & $ # ~ @ @ . . . . . . . ",
". + @ . . . ~ $ & > ] < 3 f h l m n e 7 9 o : ( a a / a a a a a p q b - ' ! + + @ @ . . . . . . ",
"+ ~ . . . ~ $ & ; j r e l s s g 6 9 < j ] 1 ; = = - - > | d b ] q k t d { ' $ + @ @ @ . . . @ . ",
"+ . . . ~ $ ' d / 8 g s u m 5 2 p t - , ) % $ $ $ # # $ % ) ' { > d b 1 > { c # ~ @ @ @ . . . @ ",
". . . ~ ! & | a 7 m u s n 8 a 1 { c + @ v v w w w w x x @ ~ + $ c & { = - { ' % + . . . @ . . . ",
". . . # & | a y m z s i 0 k - c ~ v A A B B C C C C C A v v . . ~ # % ) , * ' c # ~ . . . . . . ",
". . + c > p 3 m u D 5 : b ' # v A B B E E B B B B B A C w v v x . @ # # $ c c c # ~ . . x . . . ",
". ~ $ { k 2 g u s 5 < d ) . A B E F F F E B E B B B A A w v v x x x . @ ~ # ! ! # ~ x v x . @ . ",
". # & 1 < e s D i ( d c x C E E G G F F E E E B B A C w w w v v v x x x . . @ ~ + ~ v v v v x . ",
"~ $ = } 3 m u f 0 b c x B E F F F F F F F F B B C A C A v v x x x x . @ @ . . x v x w A A v x . ",
"# & b _ H s g 8 q & @ C B F G F G G F G E B B B B C A w v v v x x . . @ @ . x v w w A B B A v . ",
"$ { ^ 8 m D 5 a - ~ v E F F G G G F G F F F E B B A C w v v v x . . @ ~ @ ~ . v A B E F F E A . ",
"c ; ( e l n 2 b $ x B F F G F G G F F F F F B B C A A w v x x x @ @ ~ ~ ~ ~ @ v A E I I J G B v ",
"& t r f m 6 p * @ A F F F F F G G F G G F E E B C C w v v x x . @ @ ~ + + + ~ . w F I J K K F w ",
", } 8 n n r b c v B F F G F F G G F G F F F E B B A w v x . . @ @ ~ ~ + + + + @ v B J L L L I A ",
"= a y g 5 ( - ~ A B F F F F F F G F G F F F E B C C v v x . @ ~ ~ + # # # # # + . B K M N N O C ",
"- ( 6 f 7 j , . C F F F F G F G F G G G F F E B B A v x . @ @ ~ + # # # # # # # . B K P Q R M E ",
"; : 6 i 9 ] c v C E E E F F F F F F F G F E F B C A x . @ ~ ~ + # # # # # # # # ~ A K P S Q P G ",
"; : 6 5 o d $ v C B E F E E F F F F F F F F E C A v x . ~ + # # # # # # ! # ! # ~ w K R T T Q I ",
"> _ 4 y ( > # v B E B E B E E E E F F F E E B C v x @ + + # # # # $ $ ! $ $ ! ! + w K Q U V W K ",
"> : 7 7 a - # w C B B B B B F B B E B B B B C A x @ + # # ! ! $ $ $ $ c $ ! c $ # w J S U U W O ",
"> : 7 8 a - # w C B B B B B B C B B B B B C A x . + # $ $ % $ ) c c ) ) $ c ) $ # w K W X Y Z O ",
"- [ 8 ` a = # w C B B C B B B C B C C C A v x @ ~ ! $ $ c ) % ) c c ) ) c ) ) $ # w O T  .Y Z O ",
"{ p 9 r a = # v A C A C C A A A A w v v x x @ ~ ! $ c ) ) ) ) ) ) ) ) ) ) ) ) % # C ..V  . .U L ",
", j 0 2 / - $ x A C A A A A w w v v v v . @ ~ # $ % & & ) ) ) ) ) ) & ) & ) ) $ ~ B P X +.@.U O ",
"& ] < o p ; % . v A w A w w w v v v x x @ ~ # ! % c & & & & & ) & & ) ) & ) ) $ @ G S #.$.@.Z K ",
"c d / : / d c ~ v w w v w v v v v x . @ ~ # # ! c ) ) & & & & & & & ) & ) ) c # v K U $.%.@.T K ",
"% - q [ p b ' # x x v v v v x x . @ @ @ + # ! $ c ) ) & & & & & & ' & & & ) c + A N Y %.%.#.S G ",
"! * b p p ] { # @ x v v v x x . . @ @ ~ # # ! ! c ) ) ) & & & & & & & & & ) % . I T $.&.%.Y P F ",
"+ ) > q j k - c + x x x x . . . . ~ ~ # # # ! c c ) ) ) & ' & & & & & ' & c + B N  .%.&.$.V M B ",
"~ % * d q ] | & # . x x x x . @ @ ~ + + # # $ ! c ) ) & & & & & & & & & c $ v K Z $.*.&.@.W J A ",
"~ # c { 1 t | * % ~ . . x . @ @ ~ + + # # ! $ $ ) ) ) ) & & & & & & & ) $ ~ F R @.&.=.%.X N F v ",
"@ + ! & = d | = ) + @ . x @ @ ~ ~ + # # # ! $ c ) ) ) ) ) & & & ' & ) % + B ..Y -.;.>.@.W K C . ",
". ~ # ! ' - > = , $ + . @ ~ + + + # # # # # $ $ $ ) ) ) & ) & ' ) ) $ ~ B M V %.;.=.%.,...F v . ",
". @ ~ # % & * { , % + . . . @ @ + + # # ! $ $ $ ) ) ) & ) ) & & c $ @ B M U '.*.;.&. .Q I C . . ",
". . @ ~ + ! ) ' & c ! @ x x . @ ~ + # # # $ $ c ) ) ) ) ) ) c $ + v F ..V '.;.).*.+.T L E x . . ",
". . . ~ ~ ~ # % c % ! ~ x x v . . ~ # # # # ! c c c $ % $ $ + . A J Q X %.=.;.*.+.Z M F v . . . ",
". . . @ ~ ~ ~ # # # ! ~ . A A A A v . @ ~ ~ # # # # # + @ v A I N Z  .-.;.;.>.+.U ..F w x . . . ",
"@ . . . @ @ @ @ ~ ~ ~ @ v A B E E E E B A w w w w w A B F K ..Z X $.&.;.=.&.+.Z ..F A x . . . x ",
"@ @ . . . @ @ . . x x . w C E G I J K J J J I J J K M N Q Z Y @.%.>.*.>.'. .T L F A x . . . x x ",
". @ . . . . @ . x x v w C B F I J L ....P R R Q S T Z ,. .@.%.-.>.&.%.@.V Q L F A x . . . . x . ",
". . @ . . . . @ @ . x v v C F I K M N Q Q W Z V X X #.+.$.'.%.'.$.@.,.W M I B v x . . . . x . . ",
". . @ . . . . . @ x x v v C F G J L ..R Q T U V X Y  .#.@.#.#.X U S N K F C v x . . . . x x . . ",
". . . . . @ . . . . . . x v w B F I O M P Q S W W Z Z Z Z W S N L J F A w x . . . . x x . . . . ",
". . . . . . @ . . . . . . . . v w A C B E I J K K K K K K J G F C A v x . . . . . x x . . . . . "};
