/* XPM */
static const char * Draw[] = {
"27 27 6 1",
" 	c None",
".	c #D6D6D6",
"+	c #000000",
"@	c #DBDBDB",
"#	c #929292",
"$	c #FFFFFF",
"...........................",
"...........................",
"...........................",
"...........................",
"...........................",
"...........................",
".............++++..........",
".............+@@@+.........",
"............+@@@@+.........",
"............++@@+#.........",
"...........+$$+++#.........",
"...........+$@@+##.........",
"..........+$$@@+#..........",
"..........+$@@+##..........",
".........+$$@@+#...........",
".........+$@@+##...........",
".........++@@+#............",
".........++++##............",
".........+++##.............",
".........++##..............",
".........+##...............",
"..........#................",
"...........................",
"...........................",
"...........................",
"...........................",
"..........................."};
