/* XPM */
static const char * FFwd[] = {
"16 16 79 1",
" 	c None",
".	c #000000",
"+	c #100D14",
"@	c #624D77",
"#	c #6E5780",
"$	c #4E3D60",
"%	c #B48DDC",
"&	c #6D5680",
"*	c #BA93E6",
"=	c #3A2D47",
"-	c #BC94E8",
";	c #40324E",
">	c #A884CF",
",	c #6A5380",
"'	c #C198ED",
")	c #9978BC",
"!	c #292032",
"~	c #6B5480",
"{	c #C298EE",
"]	c #A380C8",
"^	c #3F314E",
"/	c #A884CE",
"(	c #695380",
"_	c #C198EE",
":	c #AB87D3",
"<	c #9A79BD",
"[	c #2D2337",
"}	c #6D5580",
"|	c #AC88D4",
"1	c #A27FC7",
"2	c #AD88D5",
"3	c #AA86D2",
"4	c #A17FC7",
"5	c #8C6EA9",
"6	c #BD95E9",
"7	c #413350",
"8	c #AE89D6",
"9	c #B08AD9",
"0	c #BA92E4",
"a	c #B28CDB",
"b	c #9C7AC0",
"c	c #AE89D7",
"d	c #9F7DC4",
"e	c #7F649C",
"f	c #9E7CC2",
"g	c #A582CB",
"h	c #A985D1",
"i	c #9878BB",
"j	c #6E5687",
"k	c #31263C",
"l	c #80649E",
"m	c #A985D0",
"n	c #8D6FAE",
"o	c #67517F",
"p	c #9474B6",
"q	c #604B76",
"r	c #1F1826",
"s	c #9C7BC0",
"t	c #504064",
"u	c #0D0A0F",
"v	c #624D79",
"w	c #B991E4",
"x	c #9374B5",
"y	c #5B4770",
"z	c #130F17",
"A	c #A683CD",
"B	c #67517E",
"C	c #A380C9",
"D	c #514064",
"E	c #0B080D",
"F	c #66507E",
"G	c #A481CA",
"H	c #57446B",
"I	c #120E17",
"J	c #5C4972",
"K	c #6A5382",
"L	c #0B080E",
"M	c #3D304C",
"N	c #110E15",
"................",
"..+....+......@.",
"..#$...#$.....%.",
"..&*=..&-;....>.",
"..,')!.~{]^.../.",
"..(_:<[}_|1^../.",
"..(_234562:17./.",
"..(_8|90a8|:>$b.",
"..(_c||228|3d4e.",
"..(_2/fg||hijkl.",
"..('mnoja3pqr.s.",
"..(-ntuvwxyz..A.",
"..BCDE.FGHI.../.",
"..JKL..JKL....G.",
"..MN...MN.....n.",
"................"};
