/* XPM */
static const char * const IBeamAlpha[] = {
"27 27 3 1",
" 	c None",
".	c #000000",
"+	c #FFFFFF",
"...........................",
"...........................",
"...........................",
"...........................",
"...........................",
"..........++++++++.........",
".............++............",
".............++............",
".............++............",
".............++............",
".............++............",
".............++............",
".............++............",
".............++............",
".............++............",
".............++............",
".............++............",
".............++............",
".............++............",
".............++............",
"..........++++++++.........",
"...........................",
"...........................",
"...........................",
"...........................",
"...........................",
"..........................."};
