/* XPM */
static const char  * Loop[] = {
"16 16 6 1",
" 	c None",
".	c #1B1B1B",
"+	c #7EE478",
"@	c #75D570",
"#	c #62B25D",
"> c #42793F",
"......>...>.....",
"....>+>...>+>...",
"...>++@>.>+@@>..",
"..>+@@#>..>@@@>.",
".>+@@@#>...>@@>.",
".>+@@@#>....>@@>",
">+@>>>>>.....>@>",
">@>..........>@>",
">@>..........>@>",
">@>.....>>>>>+@>",
">@@>....>+++@@>.",
".>@@>...>+@@@#>.",
".>@@@>..>+@@#>..",
"..>@@@>.>@@#>...",
"...>#>...>#>....",
".....>...>......"};
