/* XPM */
static const char  * LoopAlpha[] = {
"16 16 11 1",
" 	c None",
".	c #000000",
"+	c #CECECE",
"@	c #4A4A4A",
"#	c #898989",
"$	c #DEDEDE",
"%	c #FFFFFF",
"&	c #D8D8D8",
"*	c #6E6E6E",
"=	c #5A5A5A",
"-	c #B0B0B0",
"......+...@.....",
"....#$%...$&*...",
"...&%%%+.@%%%#..",
"..&%%%$+..*%%%=.",
".#%%%%$+...=%%-.",
".$%%%%$+....#%%-",
"$%%+#&++.....+%%",
"%%+..........+%%",
"%%+..........+%%",
"%%+.....++&#+%%$",
"-%%#....+$%%%%$.",
".-%%=...+$%%%%#.",
".=%%%*..+$%%%&..",
"..#%%%@.+%%%&...",
"...*&$...%$#....",
".....@...+......"};
