/* XPM */
static const char * const MultiAlpha[] = {
/* columns rows colors chars-per-pixel */
"27 27 2 1",
". c #000000",
"+ c #FFFFFF",
/* pixels */
"...........................",
"...........................",
"...........................",
"...........................",
"...........................",
"...........................",
"...........................",
"............+++............",
"............+++............",
"............+++............",
".......+++..+++..+++.......",
"........+++.+++.+++........",
".........+++++++++.........",
"..........+++++++..........",
"..........+++++++..........",
".........+++++++++.........",
"........+++.+++.+++........",
".......+++..+++..+++.......",
"............+++............",
"............+++............",
"............+++............",
"...........................",
"...........................",
"...........................",
"...........................",
"...........................",
"..........................."
};
