/* XPM */
static const char *Multi[] = {
/* columns rows colors chars-per-pixel */
"27 27 3 1",
". c #FFFFFF",
"+ c #000000",
"@ c #7F7F7F",
/* pixels */
"...........................",
"...........................",
"...........................",
"...........................",
"...........................",
"...........................",
"...........................",
"............++@............",
"............++@............",
"............++@............",
".......++@..++@..++@.......",
"........++@.++@.++@........",
".........++@++@++@.........",
"..........++++++@..........",
"..........++++++@..........",
".........++@+++++@.........",
"........++@.++@.++@........",
".......++@..++@..++@.......",
"............++@............",
"............++@............",
"............++@............",
"...........................",
"...........................",
"...........................",
"...........................",
"...........................",
"..........................."
};
