/* XPM */
static const char * Record[] = {
"16 16 82 1",
" 	c None",
".	c #000000",
"+	c #0B0707",
"@	c #462F2F",
"#	c #6B4848",
"$	c #6F4B4B",
"%	c #563A3A",
"&	c #221717",
"*	c #0B0808",
"=	c #805656",
"-	c #E29A9A",
";	c #E69C9C",
">	c #DC9696",
",	c #D79292",
"'	c #D38F8F",
")	c #CF8D8D",
"!	c #9B6969",
"~	c #2B1E1E",
"{	c #1B1212",
"]	c #D18E8E",
"^	c #E89E9E",
"/	c #D59191",
"(	c #C98989",
"_	c #C48585",
":	c #C28484",
"<	c #BC8080",
"[	c #503636",
"}	c #E49B9B",
"|	c #CB8A8A",
"1	c #C18383",
"2	c #BE8282",
"3	c #BE8181",
"4	c #BD8080",
"5	c #B07777",
"6	c #3E2A2A",
"7	c #E99E9E",
"8	c #BF8282",
"9	c #BD8181",
"0	c #B67C7C",
"a	c #926363",
"b	c #0C0808",
"c	c #C08383",
"d	c #BA7E7E",
"e	c #A36F6F",
"f	c #432D2D",
"g	c #C88888",
"h	c #AB7474",
"i	c #6A4848",
"j	c #DD9696",
"k	c #C38585",
"l	c #AE7676",
"m	c #7B5454",
"n	c #D69292",
"o	c #C18484",
"p	c #AD7676",
"q	c #7A5353",
"r	c #553A3A",
"s	c #D39090",
"t	c #A57070",
"u	c #654545",
"v	c #B87D7D",
"w	c #946464",
"x	c #AA7474",
"y	c #795252",
"z	c #1A1212",
"A	c #2C1E1E",
"B	c #B07878",
"C	c #8A5E5E",
"D	c #483030",
"E	c #B67B7B",
"F	c #BA7F7F",
"G	c #BB7F7F",
"H	c #573B3B",
"I	c #080505",
"J	c #936363",
"K	c #A46F6F",
"L	c #AC7474",
"M	c #AF7676",
"N	c #A67070",
"O	c #946565",
"P	c #7A5252",
"Q	c #664545",
".....+@#$%&.....",
"...*=-;>,')!~...",
"..{]^/(_::__<[..",
".*]}|1233332456.",
".=7|8333333990ab",
"+-/c333333399def",
"@;g2333333339<hi",
"#jk3333333333<lm",
"$no3333333333<pq",
"rs:3333333339<tu",
"&)_3333333339vw@",
".!_299333339<xyz",
".A<<9993399<BCD.",
"..[5EF<<<GvxCHI.",
"...6JKLMpNOPDI..",
"....bfimqQ@z...."};
