/* XPM */
static const char * RecordAlpha[] = {
"16 16 28 1",
" 	c None",
".	c #000000",
"+	c #0C0C0C",
"@	c #4B4B4B",
"#	c #757575",
"$	c #7D7D7D",
"%	c #646464",
"&	c #2A2A2A",
"*	c #848484",
"=	c #F0F0F0",
"-	c #FFFFFF",
";	c #C6C6C6",
">	c #3B3B3B",
",	c #1C1C1C",
"'	c #D7D7D7",
")	c #747474",
"!	c #EEEEEE",
"~	c #161616",
"{	c #7C7C7C",
"]	c #CACACA",
"^	c #F4F4F4",
"/	c #FDFDFD",
"(	c #E4E4E4",
"_	c #AAAAAA",
":	c #474747",
"<	c #BABABA",
"[	c #DCDCDC",
"}	c #181818",
".....+@#$%&.....",
"...+*=-----;>...",
"..,'---------)..",
".+'-----------%.",
".*------------!~",
"+=-------------{",
"@--------------]",
"#--------------^",
"$--------------/",
"%--------------(",
"&--------------_",
".;-------------:",
".>------------<.",
"..)----------[}.",
"...%!-------<}..",
"....~{]^/(_:...."};
