/* XPM */
static const char *Slider[] = {
/* columns rows colors chars-per-pixel */
"100 28 60 1",
"  c #9d9c9a",
". c #9f9e9c",
"X c #a09f9d",
"o c #a1a09e",
"O c #a2a19f",
"+ c #a3a2a0",
"@ c #a4a3a1",
"# c #a5a5a3",
"$ c #a7a7a5",
"% c #aaaaa8",
"& c #acacaa",
"* c #adadab",
"= c #aeaeac",
"- c #b0b0ae",
"; c #b1b1af",
": c #b3b3b1",
"> c #b5b5b3",
", c #b6b5b4",
"< c #b9b8b7",
"1 c #bab9b8",
"2 c #bbbab9",
"3 c #bdbcbb",
"4 c #bfbebd",
"5 c #c0bfbe",
"6 c #c2c1bf",
"7 c #c3c2c0",
"8 c #c5c4c2",
"9 c #c8c7c5",
"0 c #c9c8c6",
"q c #cac9c7",
"w c #cbcac8",
"e c #cccbc9",
"r c #cdccca",
"t c #cecdcb",
"y c #cfcecc",
"u c #d0cfcd",
"i c #d1d0ce",
"p c #d4d3d1",
"a c #d5d4d2",
"s c #d6d5d3",
"d c #d7d6d4",
"f c #d8d7d5",
"g c #d9d8d6",
"h c #dad9d7",
"j c #dbdad8",
"k c #dcdbd9",
"l c #dedddb",
"z c #e1e0de",
"x c #e2e1df",
"c c #e3e2e0",
"v c #e4e3e1",
"b c #e5e4e2",
"n c #e6e5e3",
"m c #e7e6e4",
"M c #e8e7e5",
"N c #e9e8e6",
"B c #ebeae8",
"V c #edece9",
"C c #efeeeb",
"Z c #f7f6f3",
/* pixels */
"tttttttttttttttttttttttttttttttttttttttttttttttttttttttttttttttttttttttttttttttttttttttttttttttttttt",
"tttttttttttttttttttttttttttttttttttttttttttttttttttttttttttttttttttttttttttttttttttttttttttttttttttt",
"tttttttttttttttttttttttttttttttttttttttttttttttttttttttttttttttttttttttttttttttttttttttttttttttttttt",
"ttttttttttttttttttttttttttttttttttttttttttttttttttttttttttttttttttttttttttttttttttttttt965<:;%@3ettt",
"tttttttttttttttttttttttttttttttttttttttttttttttttttttttttttttttttttttttttttttt965<:;%@O. X. X. 8attt",
"ttttttttttttttttttttttttttttttttttttttttttttttttttttttttttttttttttttt855,;;$+O. X. X. XO#*;>357NBttt",
"tttttttttttttttttttttttttttttttttttttttttttttttttttttttttttq755,;;$+O  O  O  OO#*;>357wttttttttBBttt",
"ttttttttttttttttttttttttttttttttttttttttttttttttttq753>;*#OX .O  O  O+$;;,558ttttttttttttttttttBBttt",
"ttttttttttttttttttttttttttttttttttttttttt965<:;%@OX .X .X .O@%;;,558tttttttttttttttttttttttttttBBttt",
"tttttttttttttttttttttttttttttttt965<:;%@O. X. X. XO@%;:2569ttttttttttttttttttttttttttttttttttttBBttt",
"ttttttttttttttttttttttt855,;;%@O. X. X. XO#*;>357wtttttttttttttttttttttttttttttttttttttttttttttBBttt",
"tttttttttttttq755,;;$+O  O  O. XO#*;>357wttttttttttttttttttttttttttttttttttttttttttttttttttttttBBttt",
"ttttq753>;*#OX .O  O  O+$;;,557wtttttttttttttttttttttttttttttttttttttttttttttttttttttttttttttttBBttt",
"ttttq432;=*O.O@%;;,558tttttttttttttttttttttttttttttttttttttttttttttttttttttttttttttttttttttttttBBttt",
"tttteqifakxlvNcxxjhduttttttttttttttttttttttttttttttttttttttttttttttttttttttttttttttttttttttttttBBttt",
"tttttyphhlccmNmMNmMNmMBvxckhhitttttttttttttttttttttttttttttttttttttttttttttttttttttttttttttttttBBttt",
"ttttttttttttttyphhlccmBmmBmmBmmBvxckhhpytttttttttttttttttttttttttttttttttttttttttttttttttttttttBBttt",
"ttttttttttttttttttttttttihhkcxvBmmBmmBMmNncclhhpyttttttttttttttttttttttttttttttttttttttttttttttBBttt",
"tttttttttttttttttttttttttttttttttihhkcxcNMmNMmNMmNNcxxjhdutttttttttttttttttttttttttttttttttttttBBttt",
"ttttttttttttttttttttttttttttttttttttttttttudhjxxcNNmMNmMNmMNcxxjhduttttttttttttttttttttttttttttBBttt",
"tttttttttttttttttttttttttttttttttttttttttttttttttttyphhlccmNmMNmMNmMNcxckhhitttttttttttttttttttBBttt",
"ttttttttttttttttttttttttttttttttttttttttttttttttttttttttttttyphhlccmNmMBmmBmmBvxckhhpytttttttttBBttt",
"tttttttttttttttttttttttttttttttttttttttttttttttttttttttttttttttttttttyphhkcxvBmmBmmBMmNncclhhpyBBttt",
"tttttttttttttttttttttttttttttttttttttttttttttttttttttttttttttttttttttttttttttttihhkcxcNMmNMmNMmZVttt",
"ttttttttttttttttttttttttttttttttttttttttttttttttttttttttttttttttttttttttttttttttttttttttudhjxxcVnttt",
"tttttttttttttttttttttttttttttttttttttttttttttttttttttttttttttttttttttttttttttttttttttttttttttttttttt",
"tttttttttttttttttttttttttttttttttttttttttttttttttttttttttttttttttttttttttttttttttttttttttttttttttttt",
"tttttttttttttttttttttttttttttttttttttttttttttttttttttttttttttttttttttttttttttttttttttttttttttttttttt"
};
