/* XPM */
static const char * Stop[] = {
"16 16 31 1",
" 	c None",
".	c #000000",
"+	c #FFED71",
"@	c #FFE06B",
"#	c #FFDA68",
"$	c #FFD666",
"%	c #F0C05C",
"&	c #634E25",
"*	c #FCCC62",
"=	c #F5C25D",
"-	c #F4C15C",
";	c #F0BE5A",
">	c #CAA04C",
",	c #4B3B1C",
"'	c #E8B858",
")	c #E2B356",
"!	c #BD9647",
"~	c #44361A",
"{	c #E7B757",
"]	c #E2B255",
"^	c #BC9547",
"/	c #443619",
"(	c #DDAF53",
"_	c #B89245",
":	c #B89246",
"<	c #9E7D3C",
"[	c #403218",
"}	c #624E25",
"|	c #4A3B1C",
"1	c #3F3218",
"2	c #1E180B",
"................",
"................",
"..+@########$%&.",
"..@*=-------;>,.",
"..#='''''''')!~.",
"..#-'{{{{{{{]^/.",
"..#-'{{{{{{{]^/.",
"..#-'{{{{{{{]^/.",
"..#-'{{{{{{{]^/.",
"..#-'{{{{{{{]^/.",
"..#-'{{{{{{{]^/.",
"..#-'{{{{{{{]^/.",
"..$;)]]]]]]](_/.",
"..%>!^^^^^^^:<[.",
"..}|~////////12.",
"................"};
