/* XPM */
static const char * StopDisabled[] = {
"16 16 26 1",
" 	c None",
".	c #737373",
"+	c #BFBA95",
"@	c #BFB693",
"#	c #BFB492",
"$	c #BFB392",
"%	c #BBAD8F",
"&	c #918B7E",
"*	c #BEB091",
"=	c #BCAD8F",
"-	c #BBAC8E",
";	c #B0A38A",
">	c #8A857C",
",	c #B8AA8E",
"'	c #B7A98D",
")	c #ACA088",
"!	c #88837B",
"~	c #B8AA8D",
"{	c #B7A88D",
"]	c #ABA088",
"^	c #B5A78C",
"/	c #AA9F88",
"(	c #A29985",
"_	c #86827A",
":	c #89857C",
"<	c #7C7A77",
"................",
"................",
"..+@########$%&.",
"..@*========-;>.",
"..#=,,,,,,,,')!.",
"..#=,~~~~~~~{]!.",
"..#=,~~~~~~~{]!.",
"..#=,~~~~~~~{]!.",
"..#=,~~~~~~~{]!.",
"..#=,~~~~~~~{]!.",
"..#=,~~~~~~~{]!.",
"..#=,~~~~~~~{]!.",
"..$-'{{{{{{{^/!.",
"..%;)]]]]]]]/(_.",
"..&:!!!!!!!!!_<.",
"................"};
