<svg width="196" height="88" viewBox="0 0 196 88" fill="none" xmlns="http://www.w3.org/2000/svg">
<g clip-path="url(#clip0_2236_6199)">
<g opacity="0.9" clip-path="url(#clip1_2236_6199)">
<rect width="196" height="16" fill="#C8CDF0"/>
</g>
<g clip-path="url(#clip2_2236_6199)">
<rect width="196" height="72" transform="translate(0 16)" fill="white"/>
<rect opacity="0.75" y="16" width="196" height="72" fill="#7EB1FF"/>
<rect width="194" height="72" transform="translate(1 16)" fill="#E5E8F8"/>
<path d="M32.0181 33H30.1492V49.7943H28.2803V51H-39L-38.9999 52H28.2803V53.2057H30.1492V70H32.0181V68.1631H33.887V66.0638H35.7559V68.1631H37.6248V66.3262H39.4937V64.7518H41.3626V63.1773H43.2315V63.7021H45.1004V62.9149H46.9693V60.2908H48.8382V63.7021H50.7071V60.5532H52.576V61.078H58.1827V60.5532H60.0516V59.5035H61.9205V58.9787H63.7894V58.7163H65.6582V59.2411H67.5271V58.4539H71.2649V57.6667H73.1338V57.1418H75.0027V57.6667H76.8716V57.9291H78.7405V57.1418H80.6094V56.3546H82.4783V57.6667H84.3472V56.617H86.2161V56.3546H89.9539V56.617H93.6917V57.9291H97.4295V57.6667H99.2984V57.1418H101.167V56.8794H104.905V56.617H106.774V56.3546H108.643V56.0922H110.512V56.8794H112.381V56.3546H114.25V56.0922H116.118V55.8298H117.987V56.617H121.725V56.3546H123.594V56.0922H125.463V55.8298H127.332V56.617H129.201V56.3546H131.07V55.5674H132.938V56.617H134.807V55.8298H138.545V54.7801H140.414V55.8298H142.283V54.7801H146.021V54.5177H147.89V53.7305H149.759V53.4681H151.627V53.2057H155.365V52.6809H157.234V53.9929H159.103V53.4681H162.841V53.2057H166.579V52.6809H168.447V52.4184H170.316V52.156H172.185V52H215V51H172.185V50.844H170.316V50.3191H168.447V50.0567H166.579V49.7943H164.71V49.5319H160.972V49.2695H159.103V48.7447H157.234V50.0567H155.365V49.5319H149.759V49.0071H147.89V48.4823H146.021V47.9574H142.283V47.1702H140.414V47.9574H138.545V47.1702H134.807V45.8582H132.938V47.4326H131.07V46.6454H129.201V46.1206H127.332V46.9078H123.594V46.6454H121.725V46.1505H117.987V46.9078H114.25V46.383H112.381V45.8582H110.512V46.9078H108.643V46.6454H106.774V46.1206H103.036V45.8582H99.2984V45.0709H97.4295H95.5606V45.3333H93.6917V45.5957H91.8228V45.8582H88.085V46.9078H86.2161V46.1505H84.3472V45.0709H82.4783V46.383H80.6094V45.8582H78.7405V45.3333H75.0027V45.8582H73.1338V45.3333H71.2649V44.5461H67.5271V43.4965H65.6582V44.2837H63.7894V43.7589H61.9205V43.234H60.0516V42.1844H58.1827V41.6596H52.576V42.1844H50.7071V39.0355H48.8382V42.7092H46.9693V40.0851H45.1004V39.0355H43.2315V39.5603H41.3626V38.2482H39.4937V36.4113H37.6248V34.8369H35.7559V36.9362H33.887V34.8369H32.0181V33Z" fill="#6372D5"/>
</g>
</g>
<rect x="0.5" y="0.5" width="195" height="87" rx="3.5" stroke="black"/>
<defs>
<clipPath id="clip0_2236_6199">
<rect width="196" height="88" rx="4" fill="white"/>
</clipPath>
<clipPath id="clip1_2236_6199">
<rect width="196" height="16" fill="white"/>
</clipPath>
<clipPath id="clip2_2236_6199">
<rect width="196" height="72" fill="white" transform="translate(0 16)"/>
</clipPath>
</defs>
</svg>
