<svg width="196" height="88" viewBox="0 0 196 88" fill="none" xmlns="http://www.w3.org/2000/svg">
<g clip-path="url(#clip0_2230_7442)">
<g opacity="0.9" clip-path="url(#clip1_2230_7442)">
<rect width="196" height="16" fill="#7EB1FF"/>
</g>
<g clip-path="url(#clip2_2230_7442)">
<rect width="196" height="72" transform="translate(0 16)" fill="white"/>
<rect opacity="0.75" y="16" width="196" height="72" fill="#7EB1FF"/>
<g opacity="0.6">
<path d="M29.7813 32H27.9713V48.7943H26.1613V50H-39L-38.9999 51H26.1613V52.2057H27.9713V69H29.7813V67.1631H31.5914V65.0638H33.4014V67.1631H35.2114V65.3262H37.0215V63.7518H38.8315V62.1773H40.6415V62.7021H42.4516V61.9149H44.2616V59.2908H46.0716V62.7021H47.8817V59.5532H49.6917V60.078H55.1218V59.5532H56.9318V58.5035H58.7419V57.9787H60.5519V57.7163H62.3619V58.2411H64.172V57.4539H67.792V56.6667H69.6021V56.1418H71.4121V56.6667H73.2221V56.9291H75.0322V56.1418H76.8422V55.3546H78.6522V56.6667H80.4622V55.617H82.2723V55.3546H85.8923V55.617H89.5124V56.9291H93.1325V56.6667H94.9425V56.1418H96.7525V55.8794H100.373V55.617H102.183V55.3546H103.993V55.0922H105.803V55.8794H107.613V55.3546H109.423V55.0922H111.233V54.8298H113.043V55.617H116.663V55.3546H118.473V55.0922H120.283V54.8298H122.093V55.617H123.903V55.3546H125.713V54.5674H127.523V55.617H129.333V54.8298H132.953V53.7801H134.763V54.8298H136.573V53.7801H140.193V53.5177H142.003V52.7305H143.813V52.4681H145.623V52.2057H149.243V51.6809H151.054V52.9929H152.864V52.4681H156.484V52.2057H160.104V51.6809H161.914V51.4184H163.724V51.156H165.534V51H207V50H165.534V49.844H163.724V49.3191H161.914V49.0567H160.104V48.7943H158.294V48.5319H154.674V48.2695H152.864V47.7447H151.054V49.0567H149.243V48.5319H143.813V48.0071H142.003V47.4823H140.193V46.9574H136.573V46.1702H134.763V46.9574H132.953V46.1702H129.333V44.8582H127.523V46.4326H125.713V45.6454H123.903V45.1206H122.093V45.9078H118.473V45.6454H116.663V45.1505H113.043V45.9078H109.423V45.383H107.613V44.8582H105.803V45.9078H103.993V45.6454H102.183V45.1206H98.5626V44.8582H94.9425V44.0709H93.1325H91.3224V44.3333H89.5124V44.5957H87.7024V44.8582H84.0823V45.9078H82.2723V45.1505H80.4622V44.0709H78.6522V45.383H76.8422V44.8582H75.0322V44.3333H71.4121V44.8582H69.6021V44.3333H67.792V43.5461H64.172V42.4965H62.3619V43.2837H60.5519V42.7589H58.7419V42.234H56.9318V41.1844H55.1218V40.6596H49.6917V41.1844H47.8817V38.0355H46.0716V41.7092H44.2616V39.0851H42.4516V38.0355H40.6415V38.5603H38.8315V37.2482H37.0215V35.4113H35.2114V33.8369H33.4014V35.9362H31.5914V33.8369H29.7813V32Z" fill="black"/>
</g>
</g>
</g>
<rect x="0.5" y="0.5" width="195" height="87" rx="3.5" stroke="black"/>
<defs>
<clipPath id="clip0_2230_7442">
<rect width="196" height="88" rx="4" fill="white"/>
</clipPath>
<clipPath id="clip1_2230_7442">
<rect width="196" height="16" fill="white"/>
</clipPath>
<clipPath id="clip2_2230_7442">
<rect width="196" height="72" fill="white" transform="translate(0 16)"/>
</clipPath>
</defs>
</svg>
