<svg width="800" height="380" viewBox="0 0 800 380" fill="none" xmlns="http://www.w3.org/2000/svg">
<g clip-path="url(#clip0_3151_3563)">
<rect width="800" height="380" fill="#00081C"/>
<path d="M603.652 30.2066L721.223 150.662L635.603 37.8223L603.652 30.2066Z" fill="#46013A"/>
<path d="M616.434 35.8404L733.208 172.025L654.886 46.5256L616.434 35.8404Z" fill="#60083D"/>
<path d="M632.488 43.1311L744.029 195.194L677.112 57.2139L632.488 43.1311Z" fill="#841243"/>
<path d="M650.879 52.0664L752.985 220.117L701.246 69.8629L650.879 52.0664Z" fill="#991846"/>
<path d="M670.693 62.6155L759.494 246.665L726.327 84.4205L670.693 62.6155Z" fill="#AE1D49"/>
<path d="M691.076 74.6957L763.097 274.611L751.463 100.788L691.076 74.6957Z" fill="#B8204B"/>
<path d="M711.256 88.1777L763.542 303.63L775.885 118.798L711.256 88.1777Z" fill="#CA244C"/>
<path d="M338.142 308.333L451.856 452.684L381.907 303.764L338.142 308.333Z" fill="#F57349"/>
<path d="M372.956 290.147L481.072 457.178L422.712 289.663L372.956 290.147Z" fill="#F0684C"/>
<path d="M306.435 329.977L421.139 451.293L343.644 322.035L306.435 329.977Z" fill="#F87A47"/>
<path d="M409.829 275.411L508.204 464.495L464.967 279.565L409.829 275.411Z" fill="#ED604F"/>
<path d="M730.554 102.873L760.753 333.317L798.903 138.206L730.554 102.873Z" fill="#D3274E"/>
<path d="M278.896 354.916L389.584 453.217L309.118 344.5L278.896 354.916Z" fill="#FC8445"/>
<path d="M447.817 263.996L532.776 474.251L507.736 273.213L447.817 263.996Z" fill="#EA5A50"/>
<path d="M486.062 255.662L554.411 485.983L550.185 270.269L486.062 255.662Z" fill="#E75253"/>
<path d="M256.502 382.783L357.923 458.582L279.551 371.004L256.502 382.783Z" fill="#FF8B43"/>
<path d="M748.38 118.53L754.865 363.199L819.948 158.685L748.38 118.53Z" fill="#DD294F"/>
<path d="M523.823 250.101L572.888 499.136L591.624 270.341L523.823 250.101Z" fill="#E44B54"/>
<path d="M764.269 134.82L746.207 392.753L838.552 179.814L764.269 134.82Z" fill="#E82C51"/>
<path d="M560.478 246.94L588.137 513.087L631.462 272.966L560.478 246.94Z" fill="#DF4056"/>
<path d="M595.509 245.744L600.265 527.151L669.221 277.631L595.509 245.744Z" fill="#DC3759"/>
<path d="M777.826 151.377L735.288 421.47L854.362 201.09L777.826 151.377Z" fill="#F22F52"/>
<path d="M628.491 246.036L609.541 540.627L704.498 283.756L628.491 246.036Z" fill="#DA325A"/>
<path d="M788.777 167.791L722.732 448.83L867.125 221.963L788.777 167.791Z" fill="#FE3154"/>
<path d="M659.085 247.309L616.419 552.826L736.994 290.705L659.085 247.309Z" fill="#D72D5B"/>
<path d="M796.923 183.626L709.242 474.389L876.691 241.855L796.923 183.626Z" fill="#F32957"/>
<path d="M687.043 249.02L621.471 563.129L766.469 297.816L687.043 249.02Z" fill="#D62A5C"/>
<path d="M802.132 198.459L695.525 497.736L882.968 260.187L802.132 198.459Z" fill="#EA235A"/>
<path d="M712.166 250.636L625.356 570.999L792.779 304.403L712.166 250.636Z" fill="#D4255D"/>
<path d="M804.331 211.893L682.256 518.533L885.952 276.423L804.331 211.893Z" fill="#E51F5C"/>
<path d="M734.344 251.628L628.78 576.009L815.833 309.799L734.344 251.628Z" fill="#D2215E"/>
<path d="M803.492 223.61L669.998 536.499L885.654 290.103L803.492 223.61Z" fill="#DF1B5E"/>
<path d="M753.511 251.521L632.425 577.862L835.602 313.383L753.511 251.521Z" fill="#D01A60"/>
<path d="M799.605 233.351L659.176 551.417L882.101 300.889L799.605 233.351Z" fill="#D51360"/>
<path d="M769.619 249.909L636.889 576.366L852.092 314.627L769.619 249.909Z" fill="#CE1762"/>
<path d="M792.666 240.974L650.041 563.107L875.323 308.575L792.666 240.974Z" fill="#D00F62"/>
<path d="M782.67 246.463L642.656 571.447L865.324 313.119L782.67 246.463Z" fill="#CE1762"/>
<path d="M84.4292 176.386C84.4292 182.126 79.7147 186.78 73.8991 186.78C68.0834 186.78 63.3689 182.126 63.3689 176.386C63.3689 170.645 68.0834 165.991 73.8991 165.991C79.7147 165.991 84.4292 170.645 84.4292 176.386Z" fill="#FF3254"/>
<path d="M61.4177 140.997C51.8776 140.997 44.1438 148.882 44.1437 158.609C44.1438 160.037 44.3106 161.916 44.6249 163.245H45.365C45.2305 162.423 45.1599 161.085 45.1599 160.219C45.1599 152.59 50.6191 146.405 57.3533 146.405C64.0875 146.405 69.5466 152.59 69.5466 160.219C69.5466 160.944 69.4972 162.393 69.4022 163.088H78.301C78.5568 161.882 78.6917 159.893 78.6917 158.609C78.6917 148.882 70.9578 140.997 61.4177 140.997Z" fill="#FF3254"/>
<path d="M38.1816 176.386C38.1816 182.202 42.7937 186.917 48.4829 186.917V165.854C42.7937 165.854 38.1816 170.569 38.1816 176.386Z" fill="#FF3254"/>
<path d="M57.9694 163.913L61.7981 176.386L57.9694 188.797L54.3663 176.386L57.9694 163.913Z" fill="#FF3254"/>
<path d="M52.5524 169.704L54.5856 176.386L52.5524 183.158L50.0803 176.386L52.5524 169.704Z" fill="#FF3254"/>
<path d="M98.93 179.835C97.1832 179.835 95.7825 179.274 94.7279 178.152C93.7062 176.997 93.1953 175.297 93.1953 173.053V169.292C93.1953 167.147 93.7721 165.53 94.9256 164.441C96.0791 163.352 97.5457 162.807 99.3255 162.807H99.5232C100.479 162.807 101.336 162.989 102.094 163.352C102.885 163.715 103.462 164.21 103.824 164.837V159.59C103.824 157.61 103.066 156.62 101.55 156.62H101.352C100.594 156.62 100.018 156.884 99.6221 157.412C99.2596 157.94 99.0783 158.666 99.0783 159.59V160.778H93.4919V158.748C93.4919 156.702 94.1511 155.053 95.4694 153.799C96.8207 152.512 98.7322 151.868 101.204 151.868H101.698C104.368 151.868 106.329 152.479 107.581 153.7C108.834 154.888 109.46 156.686 109.46 159.095V179.587H104.121V177.112C102.901 178.927 101.27 179.835 99.2266 179.835H98.93ZM98.6334 172.41C98.6334 173.301 98.8476 174.027 99.276 174.588C99.7045 175.116 100.314 175.38 101.105 175.38H101.352C102.143 175.38 102.753 175.116 103.182 174.588C103.61 174.027 103.824 173.301 103.824 172.41V169.935C103.824 169.044 103.61 168.335 103.182 167.807C102.753 167.246 102.143 166.965 101.352 166.965H101.105C100.281 166.965 99.655 167.229 99.2266 167.757C98.8311 168.285 98.6334 169.011 98.6334 169.935V172.41Z" fill="#FF3254"/>
<path d="M119.554 180.082C116.786 180.082 114.743 179.389 113.424 178.003C112.106 176.617 111.447 174.522 111.447 171.717V152.363H117.083V171.915C117.083 172.905 117.297 173.697 117.725 174.291C118.154 174.852 118.78 175.132 119.604 175.132H119.9C120.724 175.132 121.351 174.852 121.779 174.291C122.207 173.697 122.422 172.905 122.422 171.915V152.363H128.057V171.717C128.057 174.522 127.398 176.617 126.08 178.003C124.762 179.389 122.718 180.082 119.95 180.082H119.554Z" fill="#FF3254"/>
<path d="M136.164 180.082C134.285 180.082 132.769 179.472 131.616 178.251C130.495 176.997 129.935 175.132 129.935 172.657V159.293C129.935 156.818 130.495 154.97 131.616 153.749C132.769 152.495 134.285 151.868 136.164 151.868H136.411C137.433 151.868 138.339 152.132 139.13 152.66C139.921 153.155 140.514 153.815 140.91 154.64V145.928H146.546V179.587H141.009V177.508C140.481 178.3 139.822 178.927 139.031 179.389C138.273 179.851 137.4 180.082 136.411 180.082H136.164ZM135.571 171.915C135.571 172.905 135.785 173.697 136.213 174.291C136.642 174.852 137.268 175.132 138.092 175.132H138.339C139.163 175.132 139.789 174.852 140.218 174.291C140.646 173.697 140.86 172.905 140.86 171.915V160.035C140.86 159.045 140.646 158.27 140.218 157.709C139.789 157.115 139.163 156.818 138.339 156.818H138.092C137.268 156.818 136.642 157.115 136.213 157.709C135.785 158.27 135.571 159.045 135.571 160.035V171.915Z" fill="#FF3254"/>
<path d="M154.257 179.835C152.51 179.835 151.109 179.274 150.055 178.152C149.033 176.997 148.522 175.297 148.522 173.053V169.292C148.522 167.147 149.099 165.53 150.252 164.441C151.406 163.352 152.872 162.807 154.652 162.807H154.85C155.806 162.807 156.663 162.989 157.421 163.352C158.212 163.715 158.788 164.21 159.151 164.837V159.59C159.151 157.61 158.393 156.62 156.877 156.62H156.679C155.921 156.62 155.344 156.884 154.949 157.412C154.586 157.94 154.405 158.666 154.405 159.59V160.778H148.819V158.748C148.819 156.702 149.478 155.053 150.796 153.799C152.147 152.512 154.059 151.868 156.531 151.868H157.025C159.695 151.868 161.656 152.479 162.908 153.7C164.16 154.888 164.787 156.686 164.787 159.095V179.587H159.447V177.112C158.228 178.927 156.597 179.835 154.553 179.835H154.257ZM153.96 172.41C153.96 173.301 154.174 174.027 154.603 174.588C155.031 175.116 155.641 175.38 156.432 175.38H156.679C157.47 175.38 158.08 175.116 158.508 174.588C158.937 174.027 159.151 173.301 159.151 172.41V169.935C159.151 169.044 158.937 168.335 158.508 167.807C158.08 167.246 157.47 166.965 156.679 166.965H156.432C155.608 166.965 154.982 167.229 154.553 167.757C154.158 168.285 153.96 169.011 153.96 169.935V172.41Z" fill="#FF3254"/>
<path d="M174.881 180.082C172.178 180.082 170.135 179.373 168.751 177.954C167.367 176.535 166.675 174.505 166.675 171.866V160.085C166.675 157.445 167.367 155.416 168.751 153.997C170.135 152.578 172.178 151.868 174.881 151.868H175.227C180.401 151.868 182.989 154.607 182.989 160.085V161.223H177.501V160.035C177.501 159.012 177.287 158.22 176.858 157.659C176.463 157.098 175.853 156.818 175.029 156.818H174.832C174.008 156.818 173.381 157.115 172.953 157.709C172.525 158.27 172.31 159.045 172.31 160.035V171.915C172.31 172.905 172.525 173.697 172.953 174.291C173.381 174.852 174.008 175.132 174.832 175.132H175.029C175.853 175.132 176.463 174.852 176.858 174.291C177.287 173.697 177.501 172.905 177.501 171.915V170.777H182.989V171.866C182.989 177.343 180.401 180.082 175.227 180.082H174.881Z" fill="#FF3254"/>
<path d="M185.075 152.363H190.711V179.587H185.075V152.363ZM184.63 148.106C184.63 147.149 184.927 146.374 185.52 145.78C186.147 145.153 186.938 144.839 187.893 144.839C188.849 144.839 189.624 145.153 190.217 145.78C190.843 146.374 191.156 147.149 191.156 148.106C191.156 149.063 190.843 149.855 190.217 150.482C189.624 151.076 188.849 151.373 187.893 151.373C186.938 151.373 186.147 151.076 185.52 150.482C184.927 149.855 184.63 149.063 184.63 148.106Z" fill="#FF3254"/>
<path d="M201.741 179.587C199.335 179.587 197.572 179.059 196.451 178.003C195.364 176.914 194.82 175.066 194.82 172.459V157.115H192.348V152.363H194.82V147.512H200.456V152.363H204.163V157.115H200.456V172.113C200.456 173.07 200.62 173.746 200.95 174.142C201.28 174.505 201.856 174.687 202.68 174.687H204.163V179.587H201.741Z" fill="#FF3254"/>
<path d="M213.797 186.121C211.358 186.121 209.479 185.643 208.161 184.686C206.875 183.729 206.15 182.409 205.986 180.726L205.936 180.181H211.325L211.374 180.478C211.572 181.666 212.379 182.26 213.797 182.26H213.945C215.659 182.26 216.516 181.204 216.516 179.092V176.37C215.56 177.822 214.143 178.548 212.264 178.548H211.967C209.957 178.548 208.392 177.97 207.271 176.815C206.15 175.66 205.59 173.928 205.59 171.618V152.363H211.226V171.074C211.226 172.063 211.44 172.839 211.869 173.4C212.33 173.961 212.956 174.241 213.747 174.241H213.994C214.785 174.241 215.395 173.961 215.824 173.4C216.285 172.839 216.516 172.063 216.516 171.074V152.363H222.151V178.003C222.151 180.709 221.443 182.739 220.026 184.092C218.641 185.445 216.664 186.121 214.093 186.121H213.797Z" fill="#FF3254"/>
</g>
<defs>
<clipPath id="clip0_3151_3563">
<rect width="800" height="380" fill="white"/>
</clipPath>
</defs>
</svg>
