<svg width="800" height="380" viewBox="0 0 800 380" fill="none" xmlns="http://www.w3.org/2000/svg">
<g clip-path="url(#clip0_633_8854)">
<rect width="800" height="380" fill="#00081C"/>
<path d="M603.653 30.2064L721.224 150.662L635.604 37.8222L603.653 30.2064Z" fill="#46013A"/>
<path d="M616.434 35.8407L733.208 172.025L654.886 46.5259L616.434 35.8407Z" fill="#60083D"/>
<path d="M632.488 43.1309L744.029 195.193L677.112 57.2137L632.488 43.1309Z" fill="#841243"/>
<path d="M650.879 52.0664L752.985 220.117L701.246 69.8629L650.879 52.0664Z" fill="#991846"/>
<path d="M670.692 62.6154L759.493 246.664L726.326 84.4204L670.692 62.6154Z" fill="#AE1D49"/>
<path d="M691.077 74.6954L763.098 274.611L751.464 100.787L691.077 74.6954Z" fill="#B8204B"/>
<path d="M711.256 88.1776L763.542 303.629L775.885 118.798L711.256 88.1776Z" fill="#CA244C"/>
<path d="M338.142 308.333L451.856 452.684L381.907 303.764L338.142 308.333Z" fill="#F57349"/>
<path d="M372.956 290.147L481.072 457.178L422.712 289.663L372.956 290.147Z" fill="#F0684C"/>
<path d="M306.435 329.977L421.139 451.293L343.644 322.035L306.435 329.977Z" fill="#F87A47"/>
<path d="M409.829 275.411L508.204 464.495L464.967 279.565L409.829 275.411Z" fill="#ED604F"/>
<path d="M730.555 102.873L760.754 333.317L798.904 138.206L730.555 102.873Z" fill="#D3274E"/>
<path d="M278.895 354.916L389.583 453.217L309.117 344.5L278.895 354.916Z" fill="#FC8445"/>
<path d="M447.817 263.996L532.776 474.252L507.736 273.213L447.817 263.996Z" fill="#EA5A50"/>
<path d="M486.062 255.663L554.411 485.983L550.185 270.269L486.062 255.663Z" fill="#E75253"/>
<path d="M256.502 382.783L357.923 458.582L279.551 371.004L256.502 382.783Z" fill="#FF8B43"/>
<path d="M748.38 118.529L754.865 363.199L819.948 158.685L748.38 118.529Z" fill="#DD294F"/>
<path d="M523.824 250.101L572.889 499.136L591.625 270.34L523.824 250.101Z" fill="#E44B54"/>
<path d="M764.27 134.82L746.208 392.753L838.553 179.813L764.27 134.82Z" fill="#E82C51"/>
<path d="M560.479 246.94L588.138 513.087L631.463 272.966L560.479 246.94Z" fill="#DF4056"/>
<path d="M595.508 245.744L600.264 527.151L669.22 277.63L595.508 245.744Z" fill="#DC3759"/>
<path d="M777.826 151.377L735.288 421.47L854.362 201.09L777.826 151.377Z" fill="#F22F52"/>
<path d="M628.492 246.036L609.542 540.626L704.499 283.756L628.492 246.036Z" fill="#DA325A"/>
<path d="M788.776 167.791L722.731 448.83L867.124 221.963L788.776 167.791Z" fill="#FE3154"/>
<path d="M659.086 247.309L616.42 552.826L736.995 290.705L659.086 247.309Z" fill="#D72D5B"/>
<path d="M796.922 183.626L709.241 474.389L876.69 241.855L796.922 183.626Z" fill="#F32957"/>
<path d="M687.043 249.02L621.471 563.129L766.469 297.816L687.043 249.02Z" fill="#D62A5C"/>
<path d="M802.132 198.459L695.525 497.736L882.968 260.187L802.132 198.459Z" fill="#EA235A"/>
<path d="M712.165 250.636L625.355 570.999L792.778 304.403L712.165 250.636Z" fill="#D4255D"/>
<path d="M804.331 211.893L682.256 518.533L885.952 276.423L804.331 211.893Z" fill="#E51F5C"/>
<path d="M734.345 251.627L628.781 576.008L815.834 309.798L734.345 251.627Z" fill="#D2215E"/>
<path d="M803.492 223.61L669.998 536.499L885.654 290.103L803.492 223.61Z" fill="#DF1B5E"/>
<path d="M753.512 251.521L632.426 577.862L835.603 313.382L753.512 251.521Z" fill="#D01A60"/>
<path d="M799.605 233.35L659.176 551.417L882.101 300.889L799.605 233.35Z" fill="#D51360"/>
<path d="M769.62 249.909L636.89 576.366L852.093 314.627L769.62 249.909Z" fill="#CE1762"/>
<path d="M792.667 240.974L650.042 563.107L875.324 308.575L792.667 240.974Z" fill="#D00F62"/>
<path d="M782.67 246.463L642.656 571.447L865.324 313.119L782.67 246.463Z" fill="#CE1762"/>
<path d="M138.726 174.902C136.72 174.902 135.111 174.259 133.899 172.971C132.726 171.646 132.139 169.696 132.139 167.122V162.806C132.139 160.345 132.801 158.49 134.126 157.24C135.452 155.991 137.136 155.366 139.181 155.366H139.408C140.506 155.366 141.49 155.574 142.361 155.991C143.27 156.407 143.932 156.975 144.349 157.695V151.675C144.349 149.403 143.478 148.267 141.736 148.267H141.509C140.638 148.267 139.976 148.57 139.522 149.176C139.105 149.782 138.897 150.615 138.897 151.675V153.038H132.479V150.709C132.479 148.362 133.237 146.469 134.751 145.03C136.303 143.553 138.499 142.815 141.339 142.815H141.907C144.974 142.815 147.226 143.516 148.665 144.916C150.104 146.279 150.823 148.343 150.823 151.107V174.618H144.69V171.779C143.289 173.861 141.415 174.902 139.067 174.902H138.726ZM138.386 166.384C138.386 167.406 138.632 168.239 139.124 168.882C139.616 169.488 140.317 169.791 141.225 169.791H141.509C142.418 169.791 143.118 169.488 143.611 168.882C144.103 168.239 144.349 167.406 144.349 166.384V163.544C144.349 162.522 144.103 161.708 143.611 161.102C143.118 160.458 142.418 160.137 141.509 160.137H141.225C140.279 160.137 139.559 160.439 139.067 161.045C138.613 161.651 138.386 162.484 138.386 163.544V166.384Z" fill="#FF3254"/>
<path d="M162.419 175.186C159.239 175.186 156.892 174.391 155.377 172.801C153.863 171.211 153.105 168.807 153.105 165.589V143.383H159.58V165.816C159.58 166.952 159.826 167.86 160.318 168.542C160.81 169.185 161.53 169.507 162.476 169.507H162.817C163.763 169.507 164.483 169.185 164.975 168.542C165.467 167.86 165.713 166.952 165.713 165.816V143.383H172.187V165.589C172.187 168.807 171.43 171.211 169.916 172.801C168.401 174.391 166.054 175.186 162.874 175.186H162.419Z" fill="#FF3254"/>
<path d="M181.5 175.186C179.342 175.186 177.6 174.486 176.275 173.085C174.988 171.646 174.344 169.507 174.344 166.668V151.334C174.344 148.494 174.988 146.374 176.275 144.973C177.6 143.535 179.342 142.815 181.5 142.815H181.784C182.958 142.815 183.999 143.118 184.907 143.724C185.816 144.292 186.498 145.049 186.952 145.995V136H193.426V174.618H187.065V172.233C186.46 173.142 185.702 173.861 184.794 174.391C183.923 174.921 182.92 175.186 181.784 175.186H181.5ZM180.818 165.816C180.818 166.952 181.064 167.86 181.557 168.542C182.049 169.185 182.768 169.507 183.715 169.507H183.999C184.945 169.507 185.665 169.185 186.157 168.542C186.649 167.86 186.895 166.952 186.895 165.816V152.186C186.895 151.05 186.649 150.16 186.157 149.517C185.665 148.835 184.945 148.494 183.999 148.494H183.715C182.768 148.494 182.049 148.835 181.557 149.517C181.064 150.16 180.818 151.05 180.818 152.186V165.816Z" fill="#FF3254"/>
<path d="M202.284 174.902C200.278 174.902 198.669 174.259 197.457 172.971C196.283 171.646 195.696 169.696 195.696 167.122V162.806C195.696 160.345 196.359 158.49 197.684 157.24C199.009 155.991 200.694 155.366 202.739 155.366H202.966C204.064 155.366 205.048 155.574 205.919 155.991C206.828 156.407 207.49 156.975 207.907 157.695V151.675C207.907 149.403 207.036 148.267 205.294 148.267H205.067C204.196 148.267 203.534 148.57 203.079 149.176C202.663 149.782 202.455 150.615 202.455 151.675V153.038H196.037V150.709C196.037 148.362 196.794 146.469 198.309 145.03C199.861 143.553 202.057 142.815 204.897 142.815H205.465C208.531 142.815 210.784 143.516 212.223 144.916C213.662 146.279 214.381 148.343 214.381 151.107V174.618H208.247V171.779C206.847 173.861 204.972 174.902 202.625 174.902H202.284ZM201.944 166.384C201.944 167.406 202.19 168.239 202.682 168.882C203.174 169.488 203.874 169.791 204.783 169.791H205.067C205.976 169.791 206.676 169.488 207.168 168.882C207.661 168.239 207.907 167.406 207.907 166.384V163.544C207.907 162.522 207.661 161.708 207.168 161.102C206.676 160.458 205.976 160.137 205.067 160.137H204.783C203.837 160.137 203.117 160.439 202.625 161.045C202.171 161.651 201.944 162.484 201.944 163.544V166.384Z" fill="#FF3254"/>
<path d="M225.977 175.186C222.872 175.186 220.525 174.372 218.935 172.744C217.345 171.116 216.55 168.788 216.55 165.759V152.243C216.55 149.214 217.345 146.885 218.935 145.257C220.525 143.629 222.872 142.815 225.977 142.815H226.375C232.319 142.815 235.291 145.958 235.291 152.243V153.549H228.987V152.186C228.987 151.012 228.741 150.103 228.249 149.46C227.794 148.816 227.094 148.494 226.147 148.494H225.92C224.974 148.494 224.254 148.835 223.762 149.517C223.27 150.16 223.024 151.05 223.024 152.186V165.816C223.024 166.952 223.27 167.86 223.762 168.542C224.254 169.185 224.974 169.507 225.92 169.507H226.147C227.094 169.507 227.794 169.185 228.249 168.542C228.741 167.86 228.987 166.952 228.987 165.816V164.51H235.291V165.759C235.291 172.044 232.319 175.186 226.375 175.186H225.977Z" fill="#FF3254"/>
<path d="M237.688 143.383H244.162V174.618H237.688V143.383ZM237.177 138.499C237.177 137.401 237.518 136.511 238.199 135.83C238.919 135.11 239.827 134.751 240.925 134.751C242.023 134.751 242.913 135.11 243.594 135.83C244.314 136.511 244.673 137.401 244.673 138.499C244.673 139.597 244.314 140.506 243.594 141.225C242.913 141.906 242.023 142.247 240.925 142.247C239.827 142.247 238.919 141.906 238.199 141.225C237.518 140.506 237.177 139.597 237.177 138.499Z" fill="#FF3254"/>
<path d="M256.833 174.618C254.069 174.618 252.044 174.013 250.756 172.801C249.507 171.552 248.882 169.431 248.882 166.44V148.835H246.043V143.383H248.882V137.817H255.357V143.383H259.616V148.835H255.357V166.043C255.357 167.141 255.546 167.917 255.924 168.371C256.303 168.788 256.966 168.996 257.912 168.996H259.616V174.618H256.833Z" fill="#FF3254"/>
<path d="M270.682 182.115C267.881 182.115 265.722 181.566 264.208 180.468C262.731 179.37 261.898 177.856 261.709 175.925L261.652 175.3H267.843L267.899 175.641C268.127 177.004 269.054 177.685 270.682 177.685H270.853C272.821 177.685 273.806 176.474 273.806 174.051V170.927C272.708 172.593 271.08 173.426 268.922 173.426H268.581C266.271 173.426 264.473 172.763 263.186 171.438C261.898 170.113 261.255 168.125 261.255 165.475V143.383H267.729V164.85C267.729 165.986 267.975 166.876 268.467 167.519C268.997 168.163 269.717 168.485 270.625 168.485H270.909C271.818 168.485 272.519 168.163 273.011 167.519C273.541 166.876 273.806 165.986 273.806 164.85V143.383H280.28V172.801C280.28 175.906 279.466 178.234 277.838 179.786C276.248 181.339 273.976 182.115 271.023 182.115H270.682Z" fill="#FF3254"/>
<path d="M86.2119 180C79.5017 180 74.0615 174.627 74.0615 168C74.0615 161.373 79.5017 156 86.2119 156V180ZM95.1768 132C106.735 132 114.23 139.818 114.371 149.78C114.437 152.936 113.933 156.215 112.982 158.967C115.528 161.166 117.139 164.397 117.139 168C117.139 174.627 111.698 180 104.988 180C98.2782 180 92.8389 174.627 92.8389 168C92.8389 161.571 97.9571 156.323 104.389 156.014C105.259 154.28 105.754 152.2 105.754 150.059C105.754 142.38 100.08 136.845 92.0244 136.845C83.969 136.845 78.295 143.001 78.2949 150.682C78.2949 152.613 78.5028 154.75 79.0596 156.546H78.9121C77.6589 154.745 76.8232 151.78 76.8232 149.159C76.8232 139.543 83.6183 132 95.1768 132Z" fill="#FF3254"/>
</g>
<defs>
<clipPath id="clip0_633_8854">
<rect width="800" height="380" fill="white"/>
</clipPath>
</defs>
</svg>
