/* XPM */
static const char * Hilite[] = {
"27 27 55 1",
" 	c None",
".	c #ADADAD",
"+	c #EBEBEB",
"@	c #FCFCFC",
"#	c #FDFDFD",
"$	c #F0F0F0",
"%	c #DEDEDE",
"&	c #EDEDED",
"*	c #EEEEEE",
"=	c #EFEFEF",
"-	c #ECECEC",
";	c #E1E1E1",
">	c #CBCBCB",
",	c #D7D7D7",
"'	c #DADADA",
")	c #DCDCDC",
"!	c #DDDDDD",
"~	c #DBDBDB",
"{	c #DFDFDF",
"]	c #DDDDDA",
"^	c #D6D6D6",
"/	c #CECECE",
"(	c #D0D0D0",
"_	c #E4E4E4",
":	c #E0E0E0",
"<	c #E3E3E3",
"[	c #E2E2E2",
"}	c #DEDEE1",
"|	c #D4D4D4",
"1	c #E6E6E6",
"2	c #E5E5E5",
"3	c #E7E7E7",
"4	c #E5E5E2",
"5	c #D2D2D2",
"6	c #E9E9E9",
"7	c #E8E8E8",
"8	c #D5D5D5",
"9	c #EAEAEA",
"0	c #D9D9D9",
"a	c #D8D8D8",
"b	c #F1F1F1",
"c	c #F2F2F2",
"d	c #EEEEEF",
"e	c #F0F0F1",
"f	c #F3F3F3",
"g	c #F4F4F4",
"h	c #F5F5F5",
"i	c #F6F6F6",
"j	c #F7F7F7",
"k	c #F8F8F8",
"l	c #F9F9F9",
"m	c #FAFAFA",
"n	c #FBFBFB",
"o	c #FEFEFE",
"p	c #FFFFFF",
"...........................",
".+@##@#@#@#@#@#@@@#####@@$.",
".%&**=$==$$$=$$==$$==**=-;.",
".>,')!)!~~~'!{!)!'))]')!^/.",
".(~;_:<[:[<;;[;;[[[[};_:)/.",
".|)[1<12_1211231222_4[1<%5.",
".|[333666677737677777332_,.",
".8[666699966699966666673_0.",
".,<99+++99+++-+++9++9++62'.",
".02**-&*-&***&&*=&=***++3a.",
".01-*&&*===*=$$==*=*===&7a.",
".'6==$==$$===$$===$$$$==9).",
".'9=$$$$$b$$$$$$$$b$$$$=9!.",
".)9=$bbcbc$$bcc$ccbcccbd+).",
".)9$ccccccbbcccbbcccccce+).",
".!9bffffffccffffbfcccffc9).",
".%+$gggghggggghggfgggggc-:.",
".%-bgggghggggghggggggggf+:.",
".%*gghhihiihihhiiiiihhhh+!.",
".!-gjkkkkkkkkkkkkjkkkkji={.",
".!*ilmmlmmmlmllllmmnmllhb{.",
".%$k@@n@@nnmnnmnn@@nnn@kb{.",
".{bl#@###@@@##@####@@@#nc:.",
".:hoppppppppppppppppooppi_.",
".:f@oooo#o##oo###ooo@@ooh;.",
".!7=bbbbb$bbbbbbbb$b==bb9~.",
"..........................."};
