/* XPM */
static const char *SliderThumb[] = {
/* columns rows colors chars-per-pixel */
"17 28 117 2",
"   c #000063",
".  c #101063",
"X  c #082163",
"o  c #29397b",
"O  c #39397b",
"+  c Gray26",
"@  c Gray29",
"#  c Gray32",
"$  c #5a5a5a",
"%  c #4a637b",
"&  c Gray42",
"*  c #6b7373",
"=  c #6b737b",
"-  c #7b7b7b",
";  c #003184",
":  c #18399c",
">  c #293184",
",  c #393984",
"<  c #313194",
"1  c #393994",
"2  c #18429c",
"3  c #084aa5",
"4  c #1052a5",
"5  c #105aad",
"6  c #1852a5",
"7  c #185aad",
"8  c #29429c",
"9  c #215a9c",
"0  c #315a8c",
"q  c #2152a5",
"w  c #314aa5",
"e  c #296bb5",
"r  c #3173bd",
"t  c #3973bd",
"y  c #397bbd",
"u  c #424aa5",
"i  c #4a5aad",
"p  c #427bbd",
"a  c #5a7bbd",
"s  c #6b6b94",
"d  c #6b7384",
"f  c #6b7b84",
"g  c #6b7b8c",
"h  c #737394",
"j  c #636bb5",
"k  c #6b6bb5",
"l  c #427bc6",
"z  c #5a84ad",
"x  c #4a84c6",
"c  c #528cc6",
"v  c #528cce",
"b  c #5a8cc6",
"n  c #5a94ce",
"m  c #6384c6",
"M  c #6394ce",
"N  c #6b9cce",
"B  c #6394d6",
"V  c #639cd6",
"C  c #639cde",
"Z  c #6b9cd6",
"A  c #6b9cde",
"S  c #7394c6",
"D  c #73a5d6",
"F  c #73a5de",
"G  c #7ba5d6",
"H  c #7ba5de",
"J  c #7badde",
"K  c #7bade7",
"L  c #848484",
"P  c Gray58",
"I  c Gray61",
"U  c #8c8ca5",
"Y  c #8cadad",
"T  c #84a5bd",
"R  c #a5a5a5",
"E  c Gray68",
"W  c #a5a5bd",
"Q  c #b5b5bd",
"!  c Gray74",
"~  c #848cc6",
"^  c #949cce",
"/  c #84add6",
"(  c #8cadd6",
")  c #94a5d6",
"_  c #94b5de",
"`  c #9cb5de",
"'  c #9cbdde",
"]  c #84b5e7",
"[  c #8cb5e7",
"{  c #8cbde7",
"}  c #8cbdef",
"|  c #94bdef",
" . c #a5b5de",
".. c #a5bdde",
"X. c #adbdde",
"o. c #9cc6f7",
"O. c #a5c6de",
"+. c #b5dede",
"@. c #a5c6e7",
"#. c #a5ceff",
"$. c #a5d6ff",
"%. c #add6ff",
"&. c #addeff",
"*. c #b5deff",
"=. c #bde7ff",
"-. c #c6c6c6",
";. c Gray84",
":. c Gray87",
">. c #c6efff",
",. c #c6f7ff",
"<. c #ceffff",
"1. c #d6ffff",
"2. c #deffff",
"3. c #e7e7e7",
"4. c #efefef",
"5. c Gray97",
"6. c Gray100",
/* pixels */
"6.6.6.6.6.6.6.6.6.6.6.6.6.6.6.6.6.",
"4.4.4.4.4.4.4.4.4.4.4.4.4.4.4.4.4.",
"3.3.3.3.3.:.:.;.;.;.:.:.3.3.3.3.3.",
"4.4.4.3.-.h O .   . O h -.3.4.4.4.",
"6.6.5.W , 1 k ~ ^ ~ j < , W 5.6.6.",
"4.3.U > i )  .X... . .^ u > U 3.4.",
":.Q o w m ` ..O.@.O...` a 8 o Q :.",
":.s 2 q x / _ ' ' ' _ ( b 6 : s :.",
"+ X 3 7 r c N D G D N n t 7 3 X + ",
"$ ; 5 e y c M Z D Z M c p e 5 ; $ ",
"& 4 e l v B Z F J F Z V v l e 4 & ",
"- 9 l n Z H ] [ | [ ] H Z n l 9 - ",
"L 0 v A K { | o.o.o.| { K A v 0 L ",
"I % C K } o.#.$.%.$.#.o.} K C % I ",
"E = z } o.#.&.*.=.*.&.#.o.} z = E ",
":.E d S $.&.=.>.,.>.=.&.$.S d E :.",
"5.:.R g T =.,.<.1.<.,.=.T g R :.5.",
"4.3.-.P * f Y +.2.+.Y f * P -.3.4.",
"3.3.:.-.R L & # @ # & L R -.:.3.3.",
"4.4.4.3.:.-.! E R E ! -.:.3.4.4.4.",
"6.6.6.6.6.5.5.4.4.4.5.5.6.6.6.6.6.",
"4.4.4.4.4.4.4.4.4.4.4.4.4.4.4.4.4.",
"3.3.3.3.3.3.3.3.3.3.3.3.3.3.3.3.3.",
"4.4.4.4.4.4.4.4.4.4.4.4.4.4.4.4.4.",
"6.6.6.6.6.6.6.6.6.6.6.6.6.6.6.6.6.",
"4.4.4.4.4.4.4.4.4.4.4.4.4.4.4.4.4.",
"3.3.3.3.3.3.3.3.3.3.3.3.3.3.3.3.3.",
"4.4.4.4.4.4.4.4.4.4.4.4.4.4.4.4.4."
};
