/* XPM */
static char * audacity16_xpm[] = {
"16 16 206 2",
"  	c None",
". 	c #0000A1",
"+ 	c #0000C6",
"@ 	c #0000D0",
"# 	c #0000D4",
"$ 	c #0000D4",
"% 	c #0000D0",
"& 	c #0000C6",
"* 	c #0000A1",
"= 	c #0000C5",
"- 	c #0000D7",
"; 	c #0000E3",
"> 	c #0000EB",
", 	c #0000EE",
"' 	c #0000EE",
") 	c #0000EB",
"! 	c #0000E3",
"~ 	c #0000D7",
"{ 	c #0000C5",
"] 	c #0000C7",
"^ 	c #0000DD",
"/ 	c #0000EF",
"( 	c #0000FC",
"_ 	c #0000FF",
": 	c #0000FF",
"< 	c #0000FF",
"[ 	c #0000FF",
"} 	c #0000FC",
"| 	c #0000EF",
"1 	c #0000DD",
"2 	c #0000C7",
"3 	c #000086",
"4 	c #0000D9",
"5 	c #0000EF",
"6 	c #0000FF",
"7 	c #0000FF",
"8 	c #0000EF",
"9 	c #0000D9",
"0 	c #000086",
"a 	c #0000C8",
"b 	c #0000DC",
"c 	c #0000EE",
"d 	c #ECE311",
"e 	c #EAF015",
"f 	c #F1C90D",
"g 	c #F2C30C",
"h 	c #C5F408",
"i 	c #CFDC06",
"j 	c #0000EE",
"k 	c #0000DC",
"l 	c #0000C8",
"m 	c #0000CD",
"n 	c #0000D5",
"o 	c #0000CF",
"p 	c #0000FF",
"q 	c #F3DF12",
"r 	c #F5C50F",
"s 	c #F5C610",
"t 	c #F5CA10",
"u 	c #F3CE10",
"v 	c #F7B90A",
"w 	c #0000FF",
"x 	c #0000CF",
"y 	c #0000D5",
"z 	c #0000CD",
"A 	c #0000C6",
"B 	c #0000D5",
"C 	c #0000D9",
"D 	c #0000CD",
"E 	c #5F5A84",
"F 	c #F6D611",
"G 	c #F7BA0E",
"H 	c #F6C510",
"I 	c #F6C610",
"J 	c #F6C30F",
"K 	c #FAB80A",
"L 	c #3F489D",
"M 	c #0000CC",
"N 	c #0000D9",
"O 	c #0000D5",
"P 	c #0000C6",
"Q 	c #0000D1",
"R 	c #0000DF",
"S 	c #0001CB",
"T 	c #BDA03C",
"U 	c #F7C70F",
"V 	c #F9AF0C",
"W 	c #F7BD0F",
"X 	c #F8B50D",
"Y 	c #F8B50D",
"Z 	c #F9B90C",
"` 	c #C4A837",
" .	c #0909C5",
"..	c #0000E0",
"+.	c #0000D1",
"@.	c #0000DA",
"#.	c #0000E0",
"$.	c #1515BC",
"%.	c #D9A526",
"&.	c #F9B20C",
"*.	c #FB8C09",
"=.	c #F9A30B",
"-.	c #FB8B08",
";.	c #FB8A08",
">.	c #FB9A08",
",.	c #DE9720",
"'.	c #1F1AB4",
").	c #0000E0",
"!.	c #0000DA",
"~.	c #0000E6",
"{.	c #0000E1",
"].	c #2E16A7",
"^.	c #E65717",
"/.	c #FD4D06",
"(.	c #FD3204",
"_.	c #FE2303",
":.	c #FE1C02",
"<.	c #FF2702",
"[.	c #E92A14",
"}.	c #340FA3",
"|.	c #0000E1",
"1.	c #0000E6",
"2.	c #0000F2",
"3.	c #0000E2",
"4.	c #3E059A",
"5.	c #EB1412",
"6.	c #FE3003",
"7.	c #FD4605",
"8.	c #FE2203",
"9.	c #FE1A02",
"0.	c #FE2503",
"a.	c #FF2F02",
"b.	c #EA2212",
"c.	c #3C089C",
"d.	c #0000E2",
"e.	c #0000F2",
"f.	c #0000F3",
"g.	c #0000E1",
"h.	c #3015A6",
"i.	c #E56C18",
"j.	c #FAA10A",
"k.	c #F8B00D",
"l.	c #FB8309",
"m.	c #FB8A08",
"n.	c #F99E0B",
"o.	c #FBA009",
"p.	c #DE9620",
"q.	c #2119B3",
"r.	c #0000E0",
"s.	c #0000F3",
"t.	c #0000FB",
"u.	c #0000F5",
"v.	c #0000E2",
"w.	c #1110BE",
"x.	c #CFAA2E",
"y.	c #F7CE10",
"z.	c #F5D213",
"A.	c #F8B80D",
"B.	c #F7BE0F",
"C.	c #F5CA11",
"D.	c #F9B90C",
"E.	c #C2A538",
"F.	c #0607C7",
"G.	c #0000E2",
"H.	c #0000F5",
"I.	c #0000FB",
"J.	c #0000FF",
"K.	c #0000FD",
"L.	c #0000F0",
"M.	c #0000CF",
"N.	c #9C9556",
"O.	c #F4E614",
"P.	c #F2E416",
"Q.	c #F4D413",
"R.	c #F3D914",
"S.	c #F2DF15",
"T.	c #F5D711",
"U.	c #8C8060",
"V.	c #0000D0",
"W.	c #0000F0",
"X.	c #0000FD",
"Y.	c #0000FF",
"Z.	c #0000FF",
"`.	c #0000FA",
" +	c #0000D9",
".+	c #EEE313",
"++	c #EFE715",
"@+	c #EFE916",
"#+	c #F0E916",
"$+	c #EFE815",
"%+	c #ECDE0F",
"&+	c #F3E700",
"*+	c #0000DA",
"=+	c #0000FA",
"-+	c #0000E4",
";+	c #0000E4",
">+	c #0000EA",
",+	c #0000EA",
"'+	c #0000EB",
")+	c #FC4706",
"!+	c #0000EB",
"~+	c #0000EB",
"{+	c #0000EB",
"]+	c #0000ED",
"^+	c #0000ED",
"/+	c #FFFFFF",
"        . + @ # $ % & *         ",
"      = - ; > , ' ) ! ~ {       ",
"    ] ^ / ( _     [ } | 1 2     ",
"  3 4 5 6             7 8 9 0   ",
"  a b c     e f g   i   j k l   ",
"  m n o p q r s t u v   x y z   ",
"A B C D E F G H I J K L M N O P ",
"Q -+R S T U V W X Y Z `  ...;++.",
"@.>+#.$.%.&.*.=.-.;.>.,.'.).,+!.",
"~.'+{.].^./.(.)+_.:.<.[.}.|.!+1.",
"2.~+3.4.5.6.7.8.9.0.a.b.c.d.{+e.",
"f.]+g.h.i.j.k.l.m.n.o.p.q.r.^+s.",
"t.u.v.w.x.y.z.A.B.C.D.E.F.G.H.I.",
"J.K.L.M.N.O.P.Q.R.S.T.U.V.W.X.Y.",
"    `. +  .+++@+#+$+    *+=+    ",
"                                "};
