/* XPM */
static const char * const audacity16_xpm[] = {
"16 16 95 2",
"  	c None",
". 	c #0000EB",
"+ 	c #0000D5",
"@ 	c #0000B0",
"# 	c #0000AB",
"$ 	c #0000A7",
"% 	c #0000AA",
"& 	c #00007B",
"* 	c #000097",
"= 	c #000099",
"- 	c #00007A",
"; 	c #0000D0",
"> 	c #0000C2",
", 	c #000093",
"' 	c #0000BA",
") 	c #0000CC",
"! 	c #F8BA0E",
"~ 	c #F6C30E",
"{ 	c #F4D212",
"] 	c #F5CE12",
"^ 	c #000092",
"/ 	c #F5CD11",
"( 	c #F9A70A",
"_ 	c #F8B80D",
": 	c #F8B30C",
"< 	c #F7BC0E",
"[ 	c #F7C40F",
"} 	c #0503C8",
"| 	c #0000BC",
"1 	c #0000CD",
"2 	c #0000AE",
"3 	c #0000CE",
"4 	c #0000BF",
"5 	c #1E1CB6",
"6 	c #F8B80E",
"7 	c #F7BC0F",
"8 	c #FC7805",
"9 	c #F9AA0B",
"0 	c #FA8D08",
"a 	c #FB8808",
"b 	c #F99D0A",
"c 	c #F8B20B",
"d 	c #0000CA",
"e 	c #0000DE",
"f 	c #0000C4",
"g 	c #3B1F9E",
"h 	c #FE5A03",
"i 	c #FD4604",
"j 	c #FE1C02",
"k 	c #FE3D04",
"l 	c #FE1A02",
"m 	c #FF1401",
"n 	c #FF1B02",
"o 	c #FE2602",
"p 	c #381EA0",
"q 	c #0000E3",
"r 	c #0000DB",
"s 	c #0000BB",
"t 	c #0000F9",
"u 	c #431B98",
"v 	c #FF0D01",
"w 	c #FF2302",
"x 	c #FE3503",
"y 	c #FF1201",
"z 	c #FF2902",
"A 	c #FF1802",
"B 	c #3F1E9A",
"C 	c #0000FC",
"D 	c #0000FF",
"E 	c #00008D",
"F 	c #0000DC",
"G 	c #241DB1",
"H 	c #FD7206",
"I 	c #F9A70B",
"J 	c #F8B20C",
"K 	c #FC9107",
"L 	c #FB9D0A",
"M 	c #FA9E09",
"N 	c #F8BC0F",
"O 	c #211DB3",
"P 	c #0000F6",
"Q 	c #0C0BC3",
"R 	c #F6CC11",
"S 	c #F4D514",
"T 	c #F4D313",
"U 	c #F9B00C",
"V 	c #F8BD0F",
"W 	c #F4D613",
"X 	c #F8B00B",
"Y 	c #0303C9",
"Z 	c #0000F5",
"` 	c #000075",
" .	c #F5D914",
"..	c #F4E417",
"+.	c #000076",
"                                ",
"          . + @ @ + .           ",
"      # $             $ %       ",
"    & *                 = -     ",
"    ;                     ;     ",
"    >                     >     ",
"  , ' )     ! ~ { ]     ) ' ^   ",
"  ) ' )   / ( _ : < [   } | 1   ",
"2 3 4 5 6 7 8 9 0 a b c 5 4 + % ",
"d e f g h i j k l m n o p f q r ",
"s t ) u v w x m y y z A B 1 C D ",
"E D F G H I J H K L M N O F D e ",
"  D P Q R S T U V W X   Y Z D   ",
"    `          ...        +.    ",
"                                ",
"                                "};
