/* XPM */
static const char * const sneedacity16[] = {
/* columns rows colors chars-per-pixel */
"16 16 138 2 ",
"   c None",
".  c #693529",
"X  c #287D27",
"o  c #297A28",
"O  c #726549",
"+  c #6D744B",
"@  c #77734E",
"#  c #A8050C",
"$  c #B20306",
"%  c #B90204",
"&  c #B80205",
"*  c #BC0206",
"=  c #B9060F",
"-  c #AD0511",
";  c #B90311",
":  c #B40810",
">  c #B60318",
",  c #B2041B",
"<  c #B92806",
"1  c #BD3507",
"2  c #AF0825",
"3  c #BA032B",
"4  c #A00B3B",
"5  c #A72928",
"6  c #C00204",
"7  c #C20305",
"8  c #C30206",
"9  c #C50304",
"0  c #C50206",
"q  c #CE0102",
"w  c #CF0103",
"e  c #CA0306",
"r  c #D30102",
"t  c #D40101",
"y  c #D90000",
"u  c #D80001",
"i  c #DA0000",
"p  c #D31402",
"a  c #D11803",
"s  c #CE2604",
"d  c #C72B06",
"f  c #C3201F",
"g  c #FF2001",
"h  c #FF2902",
"j  c #FF2F02",
"k  c #FE3302",
"l  c #FE3402",
"z  c #FE3B02",
"x  c #F31D2E",
"c  c #F63329",
"v  c #9D4637",
"b  c #B0493E",
"n  c #FE4803",
"m  c #FE4903",
"M  c #FD5104",
"N  c #FE5B03",
"B  c #FD6B05",
"V  c #FC6806",
"C  c #F54528",
"Z  c #EF7133",
"A  c #861643",
"S  c #961154",
"D  c #A1084F",
"F  c #A10556",
"G  c #9A0373",
"H  c #9D584F",
"J  c #9D594F",
"K  c #9E5850",
"L  c #238325",
"P  c #FC8507",
"I  c #FC8A07",
"U  c #FB8E08",
"Y  c #FB9B09",
"T  c #FAA10A",
"R  c #FAA30A",
"E  c #FBA40A",
"W  c #F9AD0C",
"Q  c #E5B70F",
"!  c #EEB40E",
"~  c #F9B10D",
"^  c #F9B20C",
"/  c #F8B20D",
"(  c #F8B80E",
")  c #F8B90E",
"_  c #F9BA0E",
"`  c #E8BA10",
"'  c #F7BE10",
"]  c #EF883B",
"[  c #F0A237",
"{  c #EBBC3D",
"}  c #F7C00F",
"|  c #F2C410",
" . c #F7C610",
".. c #F7C711",
"X. c #F6C911",
"o. c #F5CF12",
"O. c #F4D613",
"+. c #F5D613",
"@. c #F4DA14",
"#. c #E7B546",
"$. c #0101BF",
"%. c #0505BE",
"&. c #1700BB",
"*. c #1812B7",
"=. c #1410B8",
"-. c #1612B9",
";. c #1714B9",
":. c #3005AF",
">. c #2D0AB0",
",. c #2E0DB1",
"<. c #310CB0",
"1. c #6F0391",
"2. c #4A04A0",
"3. c #4402A9",
"4. c #4F01AF",
"5. c #0000C0",
"6. c #0000C1",
"7. c #0200C0",
"8. c #0101C2",
"9. c #0404C0",
"0. c #0000CF",
"q. c #0000D2",
"w. c #0000D3",
"e. c #0000D7",
"r. c #0000D8",
"t. c #0000DA",
"y. c #0000DB",
"u. c #0000DF",
"i. c #0000E3",
"p. c #0000E6",
"a. c #0000EA",
"s. c #0000EF",
"d. c #0000F1",
"f. c #0000F3",
"g. c #0000F7",
"h. c #0000F8",
"j. c #0000FA",
"k. c #0000FC",
/* pixels */
"                                ",
"            4 D S A             ",
"        2 ; t b @ + O           ",
"      e y q 9 v X L o .         ",
"    : y y r 6 f H K H 5         ",
"    = y q % $ % * 6 9 6 > G     ",
"    F 3   < s p a d 1   - , #   ",
"  7.2.&.    ! Q ` |     3.4.1.  ",
"  0.w.$.  o./  ._ _ X.  9.w.0.  ",
"7.u.r.=.#.' P W I U T [ ;.e.u.7.",
"r.a.r.>.Z B k M h g j c ,.e.a.i.",
"p.f.r.:.x n B z l n N C <.e.f.h.",
"  k.r.*.] / _ Y T / E { =.r.k.  ",
"  g.f.%.  @.+.}  .+._   7.s.h.  ",
"                                ",
"                                "
};
