/* XPM */
static const char *edit_select_all_small[] = {
/* columns rows colors chars-per-pixel */
"16 16 37 1",
"  c black",
". c #888A85",
"X c #8B8D88",
"o c #8B8D89",
"O c #8C8E89",
"+ c #8D8F8A",
"@ c #8197AF",
"# c #8298B0",
"$ c #A8BED6",
"% c #A9BFD7",
"& c #AAC0D8",
"* c #ABC1D9",
"= c #ACC2DA",
"- c #ADC3DB",
"; c #AEC4DC",
": c #AFC5DD",
"> c #B0C6DE",
", c #B1C7DF",
"< c #B2C8E0",
"1 c #B3C9E1",
"2 c gray92",
"3 c #ECECEC",
"4 c #EEEEEE",
"5 c gray94",
"6 c gray95",
"7 c #F4F4F4",
"8 c gray96",
"9 c #F6F6F6",
"0 c gray97",
"q c #F8F8F8",
"w c #F9F9F9",
"e c gray98",
"r c #FBFBFB",
"t c gray99",
"y c #FDFDFD",
"u c #FEFEFE",
"i c None",
/* pixels */
"io............Xi",
"i.uuuuurrrrrrroi",
"i.u$$*$******qXi",
"i.u$@@#@*@@@-qoi",
"i.u$@@@@-----qXi",
"i.u*@@@@-;;;20oi",
"i.u*@@@#;@@;3qXi",
"i.r**-;;>>>>4qoi",
"i.u*-;>;>>>,50oi",
"i.r-@@@#@@@<5roi",
"i.r-;;>> < >70Xi",
"i.r-;>>>< 0000oi",
"i.r-####< 0000Xi",
"i.r--->>< 0r00oi",
"i.000r00 r q0rXi",
"io............+i"
};
