/* XPM */
static const char *edit_delete_small[] = {
/* columns rows colors chars-per-pixel */
"16 16 83 1",
"  c #4E5B6A",
". c #686965",
"X c #6D6E6A",
"o c #6D6E6B",
"O c #6E6F6C",
"+ c #6F706C",
"@ c #71726E",
"# c #757672",
"$ c #787976",
"% c #7A7C77",
"& c #7B7E79",
"* c #7D7E7B",
"= c #7F807C",
"- c #204987",
"; c #204A87",
": c #2B5186",
"> c #2C5286",
", c #588ACA",
"< c #729FCF",
"1 c #858883",
"2 c #888985",
"3 c #888A85",
"4 c #8D8E8B",
"5 c #8C8D8C",
"6 c #8F8F8E",
"7 c #8F908C",
"8 c #91938F",
"9 c #92938F",
"0 c #929490",
"q c #939491",
"w c #979894",
"e c #979994",
"r c #989996",
"t c #989A96",
"y c #9A9B98",
"u c #9B9B9B",
"i c #9A9C98",
"p c #9B9C99",
"a c #9C9D9B",
"s c #9D9E9B",
"d c gray61",
"f c #9E9F9C",
"g c #9E9F9E",
"h c #9FA09D",
"j c #ABACAA",
"k c #ACADAB",
"l c #ADAEAD",
"z c #AEAFAE",
"x c #AFB0AD",
"c c #AFB0AE",
"v c #B1B2B0",
"b c #B3B3B2",
"n c #B7B8B7",
"m c #BCBCBC",
"M c gray74",
"N c gray75",
"B c #9CBBDD",
"V c #C0C0C0",
"C c gray77",
"Z c #C8C9C7",
"A c gray79",
"S c #CACBC9",
"D c #CBCCCA",
"F c #CDCDCC",
"G c #CDCECC",
"H c #D5D5D5",
"J c gray84",
"K c #D7D7D7",
"L c gray85",
"P c #DADADA",
"I c gainsboro",
"U c #DEDFDE",
"Y c #E3E3E2",
"T c #E7E7E7",
"R c #E9E9E9",
"E c #EAEAEA",
"W c gray92",
"Q c #EEEEED",
"! c #F1F1F1",
"~ c #F6F6F6",
"^ c gray98",
"/ c gray100",
"( c None",
/* pixels */
"((833333332228((",
"((3!WWWWWWWWW1((",
"(;3TJJJJJJHLI3;(",
";B%LMMMMmmmMV%B;",
";B Addduuuuuu B;",
";B>:::::>>>>>>B;",
";B,,,,,,,,,,,,B;",
";BBBBBBBBBBBBBB;",
";B<<<<<<<<<<<<B;",
";;;;;;;;;;;;;;;;",
"((oG.jolov@v@(((",
"((#Z=d8l5c=n$(((",
"((3A1C1GsV=Y5(((",
"(73~ij1IsGiEr(((",
"(5^rssiWesu5/8((",
"(8ql((8hi(((*u(("
};
