/* XPM */
static const char *edit_redo_large[] = {
/* columns rows colors chars-per-pixel */
"32 32 174 2",
"   c #4C9605",
".  c #4E9A06",
"X  c #4E9B06",
"o  c #4F9B06",
"O  c #4F9A07",
"+  c #4F9C06",
"@  c #4F9C07",
"#  c #4F9C08",
"$  c #509D06",
"%  c #519D06",
"&  c #509D07",
"*  c #509E07",
"=  c #509B08",
"-  c #509B09",
";  c #519B0A",
":  c #509C08",
">  c #519C0A",
",  c #519D0A",
"<  c #539F0B",
"1  c #55A00E",
"2  c #59A311",
"3  c #5AA013",
"4  c #5BA414",
"5  c #5CA417",
"6  c #5EA917",
"7  c #5CA21A",
"8  c #5FA61D",
"9  c #5FA51E",
"0  c #68A50B",
"q  c #69A710",
"w  c #6BA71C",
"e  c #66B11F",
"r  c #69AF25",
"t  c #6BAD2D",
"y  c #6CAF2D",
"u  c #6BB623",
"i  c #6CB725",
"p  c #74BD2C",
"a  c #71B531",
"s  c #73D216",
"d  c #74D217",
"f  c #75D219",
"g  c #79C52F",
"h  c #79D420",
"j  c #7AD422",
"k  c #7CD526",
"l  c #7DD528",
"z  c #7CC336",
"x  c #7DBD40",
"c  c #7FBE44",
"v  c #81C532",
"b  c #82C934",
"n  c #86CA36",
"m  c #83C43B",
"M  c #80C83A",
"N  c #84CC3F",
"B  c #85D835",
"V  c #87D838",
"C  c #88D93A",
"Z  c #8AD93C",
"A  c #80BD43",
"S  c #84CA41",
"D  c #88CF42",
"F  c #87C54B",
"G  c #87C14E",
"H  c #88C74B",
"J  c #8AD242",
"K  c #8BD246",
"L  c #8FD445",
"P  c #8CDA40",
"I  c #8DDA42",
"U  c #8FDB45",
"Y  c #8ED549",
"T  c #90DB46",
"R  c #90D74C",
"E  c #91DB48",
"W  c #91DB49",
"Q  c #92D84B",
"!  c #93DB4D",
"~  c #94DB4F",
"^  c #93DC4C",
"/  c #90CE55",
"(  c #92CE56",
")  c #93CD5B",
"_  c #95DC50",
"`  c #97DD53",
"'  c #97DC55",
"]  c #99DE55",
"[  c #95D45A",
"{  c #9AD55F",
"}  c #9BDE58",
"|  c #9BDF59",
" . c #9CDF5A",
".. c #9CDF5B",
"X. c #9DDF5C",
"o. c #9DDF5D",
"O. c #9FDF5F",
"+. c #9EE05F",
"@. c #98CF63",
"#. c #9FDE60",
"$. c #9CD169",
"%. c #A0DA67",
"&. c #A1D76C",
"*. c #A2DF68",
"=. c #A3DF69",
"-. c #A3DB6C",
";. c #A5DD6C",
":. c #A5DA71",
">. c #A6DE70",
",. c #A5D874",
"<. c #AADD79",
"1. c #9FE060",
"2. c #A0E060",
"3. c #A0E061",
"4. c #A1E062",
"5. c #A1E063",
"6. c #A1E163",
"7. c #A1E064",
"8. c #A2E064",
"9. c #A2E164",
"0. c #A2E165",
"q. c #A2E166",
"w. c #A3E167",
"e. c #A4E168",
"r. c #A4E269",
"t. c #A5E26A",
"y. c #A6E26A",
"u. c #A7E26C",
"i. c #A7E36D",
"p. c #A8E36F",
"a. c #A8E370",
"s. c #A9E370",
"d. c #AAE372",
"f. c #ABE474",
"g. c #ACE475",
"h. c #ADE476",
"j. c #ADE478",
"k. c #AEE478",
"l. c #AEE578",
"z. c #AEE579",
"x. c #AFE47A",
"c. c #AFE57A",
"v. c #AFE57B",
"b. c #AEE17D",
"n. c #AFE27D",
"m. c #B0E57C",
"M. c #B2E57F",
"N. c #B1E67E",
"B. c #B2E67F",
"V. c #AFDE82",
"C. c #B2E680",
"Z. c #B2E582",
"A. c #B4E782",
"S. c #B4E783",
"D. c #B4E685",
"F. c #B5E785",
"G. c #B7E787",
"H. c #B6E689",
"J. c #B8E78B",
"K. c #B9E78D",
"L. c #B9E88B",
"P. c #BAE98D",
"I. c #BBE88E",
"U. c #BAE88F",
"Y. c #BBE98F",
"T. c #BCE990",
"R. c #BCE991",
"E. c #BDE992",
"W. c #BDE993",
"Q. c #C0E898",
"!. c #C0E999",
"~. c #C2EB9A",
"^. c #C4EC9E",
"/. c None",
/* pixels */
"/./././././././././././././././././././././././././././././././.",
"/./././././././././././././././.o /././././././././././././././.",
"/./././././././././././././././.o $ /./././././././././././././.",
"/./././././././././././././././.o x $ /././././././././././././.",
"/./././././././././././././././.o Z.F o /./././././././././././.",
"/./././././././././././././././.o D.x.( # /././././././././././.",
"/./././././././././././././././.. H...g.@., /./././././././././.",
"/./././././././././././././././.. K.o.} p.*.1 /././././././././.",
"/././././././././././././.o $ + ; K.1. .] y.;.4 + /././././././.",
"/././././././././././.+ u ( -.b.K.P.6.o.} _ #.=.6 + /./././././.",
"/././././././././.+ 9 :.^.Y.S.m.d.y.6.+.} ^ h l ~ e + /././././.",
"/./././././././.+ G !.E.S.C.g.g.i.y.6.+.+.k s s j _ i + /./././.",
"/././././././.$ F !.F.L.S.m.m.f.d.y.0.1.U s s s B R 2 + /./././.",
"/././././././.t E.C.C.F.F.m.l.g.i.y.0.1.h s s V Y 1 /./././././.",
"/./././././.+ V.C.l.m.m.C.L.Y.E.P.E.6.E s s Z K , /././././././.",
"/./././././.a P.s.g.l.P.!.$.A y 7 K.6.k s P J , /./././././././.",
"/././././.+ ) l.p.s.P.&.5 ; /./.; K.V f P S , /././././././././.",
"/././././.$ ,.p.e.H.@.+ /./././.; *.f U M + /./././././././././.",
"/././././., <.e.p.x.; /././././.o ' E z # /././././././././././.",
"/././././.+ ;.6.x.c /./././././.o ^ p + /./././././././././././.",
"/././././.$ [ *.g.9 /./././././.o u + /././././././././././././.",
"/./././././.m 0.p.3 /./././././.o o /./././././././././././././.",
"/./././././.q #.0.w /./././././.  /././././././././././././././.",
"/././././././.n o.v /./././././././././././././././././././././.",
"/./././././././.L E 0 /././././././././././././././././././././.",
"/././././././././.J b /././././././././././././././././././././.",
"/./././././././././.S g /./././././././././././././././././././.",
"/./././././././././././././././././././././././././././././././.",
"/./././././././././././././././././././././././././././././././.",
"/./././././././././././././././././././././././././././././././.",
"/./././././././././././././././././././././././././././././././.",
"/./././././././././././././././././././././././././././././././."
};
