/* XPM */
static const char *edit_paste_large[] = {
/* columns rows colors chars-per-pixel */
"32 32 166 2",
"   c #604113",
".  c #694614",
"X  c #704B16",
"o  c #714C15",
"O  c #724C15",
"+  c #724D15",
"@  c #714C16",
"#  c #714D16",
"$  c #724D16",
"%  c #754D16",
"&  c #774F16",
"*  c gray36",
"=  c #5D5D5C",
"-  c gray37",
";  c #5F5F5F",
":  c #60605E",
">  c #7F7F71",
",  c #89601F",
"<  c #8B611F",
"1  c #8D621F",
"2  c #8E631F",
"3  c #906520",
"4  c #926620",
"5  c #936720",
"6  c #956820",
"7  c #976920",
"8  c #986A21",
"9  c #9A6B21",
"0  c #9C6C21",
"q  c #9D6D21",
"w  c #9F6E21",
"e  c #A16F22",
"r  c #A27122",
"t  c #A37122",
"y  c #A47222",
"u  c #A67322",
"i  c #A87423",
"p  c #A97523",
"a  c #AB7623",
"s  c #AD7723",
"d  c #AE7823",
"f  c #B07924",
"g  c #B27B24",
"h  c #B37C24",
"j  c #B57D24",
"k  c #B77E25",
"l  c #B87F25",
"z  c #BA8025",
"x  c #BC8125",
"c  c #BD8225",
"v  c #BD8226",
"b  c #BF8326",
"n  c #C18426",
"m  c #C28526",
"M  c #C48726",
"N  c #C58727",
"B  c #C68827",
"V  c #80807D",
"C  c #81837E",
"Z  c #81837F",
"A  c #8C8678",
"S  c #8A8A7D",
"D  c #908979",
"F  c #918A79",
"G  c #968D7A",
"H  c #828480",
"J  c #828580",
"K  c #878984",
"L  c #868A84",
"P  c #878A84",
"I  c #878A85",
"U  c #878B85",
"Y  c #878B86",
"T  c #888A84",
"R  c #888A85",
"E  c #8B8E89",
"W  c #8C8F8A",
"Q  c #8E8E8B",
"!  c #8D918B",
"~  c #8E918C",
"^  c #97978A",
"/  c #91918D",
"(  c #99998D",
")  c #9B9B8E",
"_  c #989897",
"`  c #A1A195",
"'  c #A4A499",
"]  c #A4A49A",
"[  c #A8A89D",
"{  c #A3A3A0",
"}  c #A3A3A2",
"|  c #AAAAA0",
" . c #ABABA0",
".. c #AAAAA1",
"X. c #ABABA2",
"o. c #ACACA1",
"O. c #ACACA2",
"+. c #ADADA2",
"@. c #AEAEA3",
"#. c #A9ABA9",
"$. c #B6B6AC",
"%. c #B6B6AD",
"&. c #B7B7AD",
"*. c #B7B7AE",
"=. c #B8B8AE",
"-. c #B8B8AF",
";. c #B9B9AF",
":. c #B9B9B0",
">. c #BABAB1",
",. c #BCBCB3",
"<. c #C6C6BE",
"1. c #C3C3C3",
"2. c #C4C4C3",
"3. c gray77",
"4. c #C4C5C4",
"5. c #C5C5C4",
"6. c #C5C5C5",
"7. c #C6C6C5",
"8. c #C6C6C6",
"9. c #C7C7C6",
"0. c #C9C9C2",
"q. c #C8C8C7",
"w. c #D0D0CF",
"e. c #D0D0D0",
"r. c gray83",
"t. c #D5D5D5",
"y. c #D5D6D4",
"u. c gray84",
"i. c #D8D8D8",
"p. c #D9DBD9",
"a. c #DCDCDB",
"s. c gray87",
"d. c #E3E3E2",
"f. c #E6E6E5",
"g. c gray91",
"h. c #E9E9E8",
"j. c #E9E9E9",
"k. c #EAEAE9",
"l. c #EAEAEA",
"z. c #EBEBEA",
"x. c gray92",
"c. c #ECECEB",
"v. c #ECECEC",
"b. c #EDEDEC",
"n. c gray93",
"m. c #EEEEED",
"M. c #EEEEEE",
"N. c #EFEFEE",
"B. c #EFEFEF",
"V. c #F0F0EF",
"C. c gray94",
"Z. c #F1F1F1",
"A. c gray95",
"S. c #F3F3F3",
"D. c #F4F4F4",
"F. c #F6F6F6",
"G. c gray97",
"H. c #F8F8F8",
"J. c #F9F9F8",
"K. c #F9F9F9",
"L. c gray98",
"P. c #FBFBFB",
"I. c #FDFDFD",
"U. c #FEFEFE",
"Y. c gray100",
"T. c None",
/* pixels */
"T.T.T.T.T.T.T.T.T.T.T.T.- * = * * - * * T.T.T.T.T.T.T.T.T.T.T.T.",
"T.T.T.T.T.T.T.T.T.T.T.T.* ( ) ( ( ) ( * T.T.T.T.T.T.T.T.T.T.T.T.",
"T.T.T.T.T.T.T.T.T.: * * * S > > > > S * * * : T.T.T.T.T.T.T.T.T.",
"T.T.& + + + X + X = ` ' ' ' ^ ^ ^ ^ ' ' ' ` - X + X + X + & T.T.",
"T.T.+ N N B B B M - :.X.o.o.o.o.+.+.o.+.+.,.* v B B B B n @ T.T.",
"T.T.+ B B G R R K - 0.:.;.=.=.=.&.&.&.$.&.<.* C R R F y N + T.T.",
"T.T.X B B R Y.Y.Y.- [ o.o.X.X.X.X.X.[ X.X.' - A.Y.Y.R r B @ T.T.",
"T.T.+ B B R Y.V.C.} - * * * * * * * * * * - _ f.V.Y.R e B @ T.T.",
"T.T.@ B M R Y.V.V.V.d.i.i.i.i.i.i.i.i.i.i.i.i.z.V.Y.R e M X T.T.",
"T.T.@ B m R Y.V.V.V.V.V.V.V.V.V.V.V.V.V.V.V.A.N.N.Y.R q B + T.T.",
"T.T.@ B m R Y.V.V.V.V.V.V.V.V.V.V.V.V.V.V.N.N.N.N.Y.K 9 B X T.T.",
"T.T.@ B v R Y.V.V.q.q.q.q.q.q.q.q.q.q.9.9.9.9.N.N.Y.K 9 B + T.T.",
"T.T.@ B v R Y.V.V.V.V.V.V.V.V.V.V.V.N.N.N.z.N.N.N.Y.R 9 B @ T.T.",
"T.T.@ B v R Y.V.V.V.V.V.V.V.V.V.N.N.N.N.N.N.z.v.z.Y.R 6 B + T.T.",
"T.T.@ B l R Y.V.V.q.q.q.q.q.9.9.9.9.9.1.9.1.s.v.z.Y.R 6 B @ T.T.",
"T.T.@ B l R Y.V.V.V.V.V.V.N.N.N.N.N.z.N.v.v.z.z.z.Y.R 5 B @ T.T.",
"T.T.+ B k R Y.N.B.N.N.N.N.N.N.N.z.N.z.z.v.v.g.v.g.Y.R 5 B + T.T.",
"T.T.@ B k K Y.N.B.9.9.9.9.9.1.1.1.1.1.1.1.v.z.g.g.I.Y 2 B + T.T.",
"T.T.+ N f R Y.N.N.N.N.v.v.v.v.v.z.z.z.z.v.g.g.g.g.I.K 2 B @ T.T.",
"T.T.+ B h R Y.N.N.N.N.z.N.v.v.v.v.z.z.z.g.l.g.g.g.L.K 1 B @ T.T.",
"T.T.@ B f R Y.N.N.9.1.1.1.1.1.1.1.e.z.g.g.g.g.g.v.K.K 1 B @ T.T.",
"T.T.@ B d R Y.N.z.v.c.c.v.v.z.g.z.g.g.g.g.g.v.M.C.L.Y , B @ T.T.",
"T.T.@ B s R Y.N.v.z.z.z.z.g.z.z.g.g.g.g.z.v.C.D.C.p.K , B @ T.T.",
"T.T.@ B a K L.z.v.v.z.z.z.g.g.g.g.g.z.v.K K K L ! K K 1 B @ T.T.",
"T.T.@ B a R Y.z.z.z.z.g.z.g.g.g.g.v.B.A.K t.u.u.e.! K , B @ T.T.",
"T.T.@ B y R F.z.g.z.g.g.g.g.g.v.B.C.D.G.K u.u.9.W H K , B X T.T.",
"T.T.@ B y R F.z.g.z.g.g.g.v.v.A.D.K.L.D.! t.#.K Z Q K , B @ T.T.",
"T.T.@ B y R D.A.A.A.A.A.A.A.F.F.K.I.I.t.L E H C ~ } K 1 B @ T.T.",
"T.T.@ N y F R R R R R R R R R R Y K Y K K Y R R K K A 1 B @ T.T.",
"T.T.@ n N B B N B B B B B B B B B B B B B B B B B B B B v @ T.T.",
"T.T.. + @ @ @ @ @ @ @ @ @ @ @ @ + + + # @ @ @ @ X X @ @ @   T.T.",
"T.T.T.T.T.T.T.T.T.T.T.T.T.T.T.T.T.T.T.T.T.T.T.T.T.T.T.T.T.T.T.T."
};
