/* XPM */
static const char *go_previous_large[] = {
/* columns rows colors chars-per-pixel */
"32 32 239 2",
"   c #326304",
".  c #376D03",
"X  c #376F04",
"o  c #397403",
"O  c #3A7304",
"+  c #3B7304",
"@  c #3A7205",
"#  c #3A7404",
"$  c #3B7404",
"%  c #3B7504",
"&  c #3B7405",
"*  c #3B7505",
"=  c #3B7604",
"-  c #3B7605",
";  c #3B7705",
":  c #3C7604",
">  c #3C7605",
",  c #3F7709",
"<  c #3F770B",
"1  c #3F790A",
"2  c #42790D",
"3  c #427A0E",
"4  c #437A10",
"5  c #447A10",
"6  c #467D13",
"7  c #4F9B05",
"8  c #509D06",
"9  c #519E06",
"0  c #549D0E",
"q  c #488014",
"w  c #4E831B",
"e  c #4E841C",
"r  c #50831E",
"t  c #52A007",
"y  c #53A007",
"u  c #53A107",
"i  c #54A307",
"p  c #55A408",
"a  c #56A508",
"s  c #57A709",
"d  c #57A809",
"f  c #58A809",
"g  c #59AA09",
"h  c #59AA0A",
"j  c #5AAC0A",
"k  c #5BAD0A",
"l  c #5BAE0B",
"z  c #5CAE0B",
"x  c #5CAF0B",
"c  c #5DAF0B",
"v  c #5BAB0D",
"b  c #5DB00B",
"n  c #5EB10B",
"m  c #5EB10C",
"M  c #5EB20C",
"N  c #5FB20C",
"B  c #5FB30C",
"V  c #59A410",
"C  c #59A016",
"Z  c #5FAA14",
"A  c #60B40C",
"S  c #60B50D",
"D  c #61B50D",
"F  c #61B60D",
"G  c #61B70D",
"H  c #62B70D",
"J  c #63B80E",
"K  c #63B90E",
"L  c #63BA0E",
"P  c #64BB0E",
"I  c #65BB0E",
"U  c #65BC0F",
"Y  c #60A61B",
"T  c #62AA1B",
"R  c #66AF1D",
"E  c #61B014",
"W  c #67BF10",
"Q  c #548920",
"!  c #5B8C2C",
"~  c #5C8D2E",
"^  c #5C902C",
"/  c #60972D",
"(  c #649731",
")  c #629135",
"_  c #67AD22",
"`  c #68AC25",
"'  c #6AAB2A",
"]  c #6BAA2E",
"[  c #69B023",
"{  c #6DB32A",
"}  c #6EB528",
"|  c #75BB2E",
" . c #6DAB30",
".. c #6DAB31",
"X. c #70AD35",
"o. c #71AD36",
"O. c #71AD37",
"+. c #73AE39",
"@. c #73AF3A",
"#. c #75AF3C",
"$. c #75B734",
"%. c #76B03E",
"&. c #7BBB3D",
"*. c #68C010",
"=. c #6AC411",
"-. c #6CC712",
";. c #6BC415",
":. c #75CC1E",
">. c #739E48",
",. c #76AA42",
"<. c #76A847",
"1. c #77A24D",
"2. c #78B141",
"3. c #78B340",
"4. c #7AB243",
"5. c #7CB346",
"6. c #7DB744",
"7. c #7DB547",
"8. c #7FBD43",
"9. c #7FB54A",
"0. c #7FB54B",
"q. c #81B74C",
"w. c #82B74F",
"e. c #80BA48",
"r. c #81B84B",
"t. c #83BC4B",
"y. c #84BA4D",
"u. c #84BB4F",
"i. c #86BF4D",
"p. c #85BD4E",
"a. c #83B850",
"s. c #84B851",
"d. c #85B952",
"f. c #86B953",
"g. c #87BB53",
"h. c #86BE50",
"j. c #88BD53",
"k. c #88BF53",
"l. c #89BB57",
"z. c #88BD54",
"x. c #89BF54",
"c. c #8ABE57",
"v. c #87B459",
"b. c #8ABB59",
"n. c #8ABC58",
"m. c #8ABC5A",
"M. c #8BBD5A",
"N. c #8BBC5B",
"B. c #8CBD5B",
"V. c #8CBF5A",
"C. c #8EBF5E",
"Z. c #8EBE5F",
"A. c #8FBF60",
"S. c #8FBF61",
"D. c #8EB568",
"F. c #8EB46A",
"G. c #90BF62",
"H. c #93BE69",
"J. c #84C643",
"K. c #88C150",
"L. c #89C152",
"P. c #8AC154",
"I. c #8AC055",
"U. c #8CC058",
"Y. c #8CC05A",
"T. c #8EC05D",
"R. c #8FC05F",
"E. c #95D159",
"W. c #91C064",
"Q. c #92C065",
"!. c #93C167",
"~. c #94C168",
"^. c #94C268",
"/. c #95C26A",
"(. c #96C36B",
"). c #97C36C",
"_. c #98C46E",
"`. c #98C969",
"'. c #9CC96F",
"]. c #9AC570",
"[. c #9BC571",
"{. c #9BC673",
"}. c #9EC776",
"|. c #9FC27D",
" X c #9FC878",
".X c #A2DA6B",
"XX c #A0CE73",
"oX c #A2CE77",
"OX c #A3CA7E",
"+X c #A4CB7E",
"@X c #A4CC7E",
"#X c #A6CF7F",
"$X c #AADF77",
"%X c #A9CD86",
"&X c #AACE87",
"*X c #A6C788",
"=X c #ABCB8C",
"-X c #A8D180",
";X c #AAD580",
":X c #ACD781",
">X c #ADD982",
",X c #AFDB82",
"<X c #ADD08C",
"1X c #AFD08F",
"2X c #B0DD83",
"3X c #B1DE83",
"4X c #B1DF83",
"5X c #B1D290",
"6X c #B2D292",
"7X c #B2D294",
"8X c #B3D395",
"9X c #B4D495",
"0X c #B4D496",
"qX c #B7D699",
"wX c #B9D69B",
"eX c #B9D39E",
"rX c #B9D79C",
"tX c #BAD89E",
"yX c #B2E184",
"uX c #B4E485",
"iX c #B5E585",
"pX c #B5E685",
"aX c #BAD6A0",
"sX c #BCD8A1",
"dX c #BCD9A1",
"fX c #BEDAA3",
"gX c #C0DBA5",
"hX c #C1DBA7",
"jX c #C1DBA8",
"kX c #C2DAAA",
"lX c #C2DCA9",
"zX c #C3DCAA",
"xX c #C3DDAB",
"cX c #C4DDAB",
"vX c #C3DCAC",
"bX c #C5DDAC",
"nX c #C4DDAD",
"mX c #C6DEAF",
"MX c None",
/* pixels */
"MXMXMXMXMXMXMXMXMXMXMXMXMXMXMXMXMXMXMXMXMXMXMXMXMXMXMXMXMXMXMXMX",
"MXMXMXMXMXMXMXMXMXMXMXMXMXMXMXMXMXMXMXMXMXMXMXMXMXMXMXMXMXMXMXMX",
"MXMXMXMXMXMXMXMXMXMXMXMXMXMXMXMXMXMXMXMXMXMXMXMXMXMXMXMXMXMXMXMX",
"MXMXMXMXMXMXMXMXMXMXMXMXMXMXMXMXMXMXMXMXMXMXMXMXMXMXMXMXMXMXMXMX",
"MXMXMXMXMXMXMXMXMXMXMXMXMXMXMXMXMX+ MXMXMXMXMXMXMXMXMXMXMXMXMXMX",
"MXMXMXMXMXMXMXMXMXMXMXMXMXMXMX: ~ < MXMXMXMXMXMXMXMXMXMXMXMXMXMX",
"MXMXMXMXMXMXMXMXMXMXMXMXMXMX: >.vX4 MXMXMXMXMXMXMXMXMXMXMXMXMXMX",
"MXMXMXMXMXMXMXMXMXMXMXMXMX: F.kXmX4 MXMXMXMXMXMXMXMXMXMXMXMXMXMX",
"MXMXMXMXMXMXMXMXMXMXMXMX3 *XhX[.nX4 MXMXMXMXMXMXMXMXMXMXMXMXMXMX",
"MXMXMXMXMXMXMXMXMXMXMXr eXsX[.(.lX5 MXMXMXMXMXMXMXMXMXMXMXMXMXMX",
"MXMXMXMXMXMXMXMXMX- ) kX9X_.).^.vX4 + + + + + + + + + MXMXMXMXMX",
"MXMXMXMXMXMXMXMX- 1.nX%X_.(.^.W.nXlXlXfXfXdXaXrXqX0X- MXMXMXMXMX",
"MXMXMXMXMXMXMX- D.lX}.^.!.G.W.C.B.l.s.s.9.5.3.#.o.8X- MXMXMXMXMX",
"MXMXMXMXMXMX2 |.wX^.C.W.G.C.Y.N.c.k.u.q.9.3.#.+.o.7X+ MXMXMXMXMX",
"MXMXMXMXMXw =X<XN.N.N.B.B.Y.U.P.k.h.t.e.6.3.@.o. .7X- MXMXMXMXMX",
"MXMXMX- ! aX Xa.s.s.s.k.P.P.P.K.e.$.{ [ _ ` ' ] ] 5X+ MXMXMXMXMX",
"MXMXMXo ^ <XW.9.q.q.u.s.i.&.} E b k k g g p u 7 0 &X+ MXMXMXMXMX",
"MXMXMXMX- q H.w.C Y T E v g B B b B b b k p p u 7 -X+ MXMXMXMXMX",
"MXMXMXMXMXMX2 v.C.V p g x B A A H H F b x k d i 7 OXX MXMXMXMXMX",
"MXMXMXMXMXMXMX: <.'.R g B B K P U U K K B x g p 9 -X+ MXMXMXMXMX",
"MXMXMXMXMXMXMXMX+ ( oX| A K U U yX3X,X,X>X:X;X-X-X@X+ MXMXMXMXMX",
"MXMXMXMXMXMXMXMXMX. r XXJ.P *.-.yX+ + + + - + + o + + MXMXMXMXMX",
"MXMXMXMXMXMXMXMXMXMX  q `.E.;.-.uX+ MXMXMXMXMXMXMXMXMXMXMXMXMXMX",
"MXMXMXMXMXMXMXMXMXMXMXMX, b..X:.pX+ MXMXMXMXMXMXMXMXMXMXMXMXMXMX",
"MXMXMXMXMXMXMXMXMXMXMXMXMX- ,.$XuX+ MXMXMXMXMXMXMXMXMXMXMXMXMXMX",
"MXMXMXMXMXMXMXMXMXMXMXMXMXMX+ / yX+ MXMXMXMXMXMXMXMXMXMXMXMXMXMX",
"MXMXMXMXMXMXMXMXMXMXMXMXMXMXMXX e + MXMXMXMXMXMXMXMXMXMXMXMXMXMX",
"MXMXMXMXMXMXMXMXMXMXMXMXMXMXMXMXMX+ MXMXMXMXMXMXMXMXMXMXMXMXMXMX",
"MXMXMXMXMXMXMXMXMXMXMXMXMXMXMXMXMXMXMXMXMXMXMXMXMXMXMXMXMXMXMXMX",
"MXMXMXMXMXMXMXMXMXMXMXMXMXMXMXMXMXMXMXMXMXMXMXMXMXMXMXMXMXMXMXMX",
"MXMXMXMXMXMXMXMXMXMXMXMXMXMXMXMXMXMXMXMXMXMXMXMXMXMXMXMXMXMXMXMX",
"MXMXMXMXMXMXMXMXMXMXMXMXMXMXMXMXMXMXMXMXMXMXMXMXMXMXMXMXMXMXMXMX"
};
