/* XPM */
static const char *go_top_small[] = {
/* columns rows colors chars-per-pixel */
"16 16 104 2",
"   c #3A7304",
".  c #3A7404",
"X  c #3B7404",
"o  c #3B7504",
"O  c #3B7604",
"+  c #3C7704",
"@  c #3E7A05",
"#  c #3E770A",
"$  c #40780D",
"%  c #41790E",
"&  c #41790F",
"*  c #4D8419",
"=  c #4F841D",
"-  c #53A108",
";  c #58AA0A",
":  c #59AB0B",
">  c #5CB00C",
",  c #5EB30D",
"<  c #5FB40D",
"1  c #5CA21A",
"2  c #60B50D",
"3  c #60B40F",
"4  c #61B80E",
"5  c #62B90E",
"6  c #63BA0F",
"7  c #63BB0F",
"8  c #64BB0F",
"9  c #63AE1C",
"0  c #61B114",
"q  c #66BE10",
"w  c #66BF10",
"e  c #65B618",
"r  c #68B61B",
"t  c #588B28",
"y  c #588B29",
"u  c #689D35",
"i  c #6A9C3B",
"p  c #6CAF2C",
"a  c #74BD2E",
"s  c #73B137",
"d  c #67C010",
"f  c #68C111",
"g  c #69C311",
"h  c #6BC612",
"j  c #6CC813",
"k  c #79A64F",
"l  c #79B242",
"z  c #7BB345",
"x  c #7EBE41",
"c  c #7FB64B",
"v  c #7FA957",
"b  c #82B74F",
"n  c #84B555",
"m  c #85BB53",
"M  c #86B35C",
"N  c #8BBD5C",
"B  c #8FBE62",
"V  c #97BD73",
"C  c #84C347",
"Z  c #86C24D",
"A  c #8AC156",
"S  c #8FC15F",
"D  c #92C95F",
"F  c #92C660",
"G  c #95C369",
"H  c #96C26B",
"J  c #97C66A",
"K  c #96C36C",
"L  c #97C36E",
"P  c #9BCF6A",
"I  c #9AC471",
"U  c #9CC674",
"Y  c #9DC775",
"T  c #A2CA7C",
"R  c #A2C87F",
"E  c #A8D57C",
"W  c #A3C583",
"Q  c #A9CC89",
"!  c #A9D381",
"~  c #AAD581",
"^  c #ACD781",
"/  c #ADD982",
"(  c #ADDA82",
")  c #AEDB82",
"_  c #AFDC83",
"`  c #B0DE83",
"'  c #B2D393",
"]  c #B6D599",
"[  c #B8D49E",
"{  c #B2E184",
"}  c #B3E384",
"|  c #B5E685",
" . c #BCD8A2",
".. c #BEDCA1",
"X. c #C1DEA5",
"o. c #C7DFB0",
"O. c #C9DFB3",
"+. c #C5E1A9",
"@. c #C7E2AD",
"#. c #C8E3AF",
"$. c #C9E2B1",
"%. c #CBE2B5",
"&. c #CDE2B9",
"*. c None",
/* pixels */
"                                ",
"        . .           .         ",
"*.*.*.*.*.*.$ Q W $ *.*.*.*.*.*.",
"*.*.*.*.*.. V I J M . *.*.*.*.*.",
"*.*.*.*.. k ' b l G i . *.*.*.*.",
"*.*.*.*.y  .B b z 1 I = *.*.*.*.",
"*.*.*.$ [ T N m s - p L # *.*.*.",
"*.*.. W ] G S A 9 : : Z n . *.*.",
"*.. v o.Y J F x : 2 < 0 P u O *.",
"*.y O.&.%.$.F e 2 q _ _ ) E * *.",
". .     @ @.C 5 q g { @ . . . . ",
"*.*.*.*.. @.a 5 g j |   *.*.*.*.",
"*.*.*.*.  +.r 5 d h {   *.*.*.*.",
"*.*.*.*.  X.0 2 7 d `   *.*.*.*.",
"*.*.*.*.  ..! ~ ) ^ )   *.*.*.*.",
"*.*.*.*.            . . *.*.*.*."
};
