/* XPM */
static const char *media_playback_pause_large[] = {
/* columns rows colors chars-per-pixel */
"32 32 42 1",
"  c #545753",
". c #5A5D59",
"X c #626661",
"o c #6B6F6A",
"O c #747873",
"+ c #7D807B",
"@ c #868984",
"# c #8F928D",
"$ c #989B95",
"% c #D9DBD6",
"& c #DADCD6",
"* c #DEE0DB",
"= c #DEE0DC",
"- c #E2E3DF",
"; c #E2E4E0",
": c #E3E4E1",
"> c #E3E5E1",
", c #E4E5E2",
"< c #E5E6E3",
"1 c #E6E7E4",
"2 c #E7E8E5",
"3 c #E9EAE8",
"4 c #EBECE9",
"5 c #EDEDEB",
"6 c #F4F4F3",
"7 c #F4F5F3",
"8 c #F5F5F4",
"9 c #F5F6F4",
"0 c #F6F6F5",
"q c #F7F7F6",
"w c #F7F8F6",
"e c #F7F8F7",
"r c #F8F8F7",
"t c #F8F9F8",
"y c #F9F9F8",
"u c #FAFAF9",
"i c gray98",
"p c #FAFBFA",
"a c gray99",
"s c #FDFDFD",
"d c #FEFEFE",
"f c None",
/* pixels */
"ffffffffffffffffffffffffffffffff",
"ffffffffffffffffffffffffffffffff",
"ffffffffffffffffffffffffffffffff",
"ffffffffffffffffffffffffffffffff",
"ffffffffffffffffffffffffffffffff",
"ffffffffffffffffffffffffffffffff",
"ffffffffffffffffffffffffffffffff",
"ffffffffffffffffffffffffffffffff",
"ffffffffffffffffffffffffffffffff",
"fffffffff      fff      ffffffff",
"fffffffff dttd fff dttd ffffffff",
"fffffffff d<1d fff d<2d ffffffff",
"fffffffff d-;t fff d-<t ffffffff",
"fffffffff t-<t fff t;;t ffffffff",
"fffffffff t<<q fff t;<r ffffffff",
"fffffffff t2<0 fff t1<0 ffffffff",
"fffffffff.t&&7.fff.t%&0.ffffffff",
"fffffffffXt&=0XfffXr-&0Xffffffff",
"fffffffffoq<;0offfor<-0offffffff",
"fffffffffOt117OfffOr117Offffffff",
"fffffffff+t537+fff+t437+ffffffff",
"fffffffff@e546@fff@t546@ffffffff",
"fffffffff#e006#fff#e006#ffffffff",
"fffffffff$$$$$$fff$$$$$$ffffffff",
"ffffffffffffffffffffffffffffffff",
"ffffffffffffffffffffffffffffffff",
"ffffffffffffffffffffffffffffffff",
"ffffffffffffffffffffffffffffffff",
"ffffffffffffffffffffffffffffffff",
"ffffffffffffffffffffffffffffffff",
"ffffffffffffffffffffffffffffffff",
"ffffffffffffffffffffffffffffffff"
};
