/* XPM */
static const char *system_search_small[] = {
/* columns rows colors chars-per-pixel */
"16 16 127 2",
"   c #646662",
".  c #666864",
"X  c #676965",
"o  c #686966",
"O  c #696B66",
"+  c #6A6B68",
"@  c gray42",
"#  c #6A6C68",
"$  c #6B6D69",
"%  c #6C6E69",
"&  c #6C6D6A",
"*  c #6C6E6A",
"=  c #6D6F6A",
"-  c #6C6E6B",
";  c #6D6E6B",
":  c #6D6F6C",
">  c #6E706B",
",  c #6F706C",
"<  c #6F716C",
"1  c #70716D",
"2  c #747672",
"3  c #767875",
"4  c #7A7C78",
"5  c #7F807D",
"6  c #5980AD",
"7  c #5C85B3",
"8  c #618AB9",
"9  c #6690BF",
"0  c #6893C2",
"q  c #6994C5",
"w  c #6D97C5",
"e  c #6E9AC9",
"r  c #6F9BCA",
"t  c #6F9CCD",
"y  c #729DCF",
"u  c #719ECE",
"i  c #729ECE",
"p  c #729FCE",
"a  c #739FCE",
"s  c #729ECF",
"d  c #729FCF",
"f  c #739FCF",
"g  c #76A0CD",
"h  c #75A1CF",
"j  c #78A1CD",
"k  c #838580",
"l  c #828481",
"z  c #848682",
"x  c #858784",
"c  c #868785",
"v  c #888A85",
"b  c #898B88",
"n  c #898A89",
"m  c #8F908F",
"M  c #919291",
"N  c #939592",
"B  c #A3A4A1",
"V  c #A7A8A6",
"C  c #A8A9A8",
"Z  c #B7B7B5",
"A  c #B8B8B7",
"S  c #8AA6C5",
"D  c #8EA8C5",
"F  c #81A3CA",
"G  c #85A6CA",
"H  c #89A9CB",
"J  c #96A9C1",
"K  c #9BADC2",
"L  c #9EAFC4",
"P  c #80A7D4",
"I  c #8FB1D9",
"U  c #96B3D2",
"Y  c #97B4D3",
"T  c #97B8DB",
"R  c #ADBACA",
"E  c #A2BEDF",
"W  c #B9CADC",
"Q  c #ACC6E2",
"!  c #AEC8E3",
"~  c #B4CCE6",
"^  c #B6CDE6",
"/  c gray76",
"(  c gray77",
")  c gray78",
"_  c #C9C9C8",
"`  c #CACAC9",
"'  c #CBCBCA",
"]  c #CBCCCA",
"[  c #C5CCD2",
"{  c gray84",
"}  c #D1D5D9",
"|  c #D4D6D9",
" . c #D7D8DA",
".. c #D9D9D8",
"X. c #DADAD9",
"o. c #D8DADB",
"O. c #DADADA",
"+. c #DADBDB",
"@. c gray86",
"#. c #DADBDC",
"$. c gray87",
"%. c #DFDFDF",
"&. c #C0D3E9",
"*. c #C7D8EB",
"=. c #C7D9EC",
"-. c #CBDBEC",
";. c #CEDDED",
":. c #D1D9E1",
">. c #D2D9E0",
",. c #D5DCE4",
"<. c #DBE2E9",
"1. c #D1E0F0",
"2. c #D3E1F0",
"3. c #D5E2F0",
"4. c #D6E2F1",
"5. c #D7E4F1",
"6. c #D9E4F1",
"7. c #DFE9F3",
"8. c #E2E2E2",
"9. c #E0E9F3",
"0. c #E0E9F4",
"q. c #E3EBF4",
"w. c #E2EBF5",
"e. c #E3EBF5",
"r. c #E7EEF7",
"t. c #ECF2F8",
"y. c None",
/* pixels */
"y.y.y.y.3 < 1 < % 4 y.y.y.y.y.y.",
"y.y.y.: ] #.| }  .` % y.y.y.y.y.",
"y.y.< +.J w g u 0 K %.> y.y.y.y.",
"y.% +.S d =.0.q.! u D +.% y.y.y.",
"y.V L u 4.r.t.0.1.T u R B y.y.y.",
"O +.9 Q 6.0.q.7.;.P d F +.O y.y.",
"% +.u ~ -.2.5.4.y.y.u u 8.> y.y.",
"% %.g I ~ -.^ Q y.y.f e +.% y.y.",
"k ( G q u y.y.y.y.y.8 H ` z y.y.",
"y.l >.u u y.y.u y.y.u >.O y.y.y.",
"y.$ C W u 7 y.u 6 f [ N c O y.y.",
"y.y.% M <.U j u Y ,.+ A c 2 . y.",
"y.y.y.$ 5 m / %.n   y.: Z n ) % ",
"y.y.y.y.y.v % % v y.y.@ $ ` { % ",
"y.y.y.y.y.y.y.y.y.y.y.y.y.: % y.",
"y.y.y.y.y.y.y.y.y.y.y.y.y.y.y.y."
};
