/* XPM */
static char *PauseDown_xpm[] = {
/* columns rows colors chars-per-pixel */
"28 25 257 2",
"   c black",
".  c #000101",
"X  c #010101",
"o  c #040708",
"O  c #060708",
"+  c #171C23",
"@  c #141E24",
"#  c #191F26",
"$  c #142027",
"%  c #17232B",
"&  c #15222C",
"*  c #16232D",
"=  c #17242D",
"-  c #1B2229",
";  c #1E252C",
":  c #1E252D",
">  c #1E262D",
",  c #1F272D",
"<  c #293E4B",
"1  c #2F3B48",
"2  c #626262",
"3  c gray40",
"4  c #6C6B6C",
"5  c #727272",
"6  c gray45",
"7  c #73777D",
"8  c #74787E",
"9  c #7C7C7C",
"0  c #537FA4",
"q  c #5180A6",
"w  c #5585A7",
"e  c #5686A7",
"r  c #7E8588",
"t  c #6C87A5",
"y  c #6F8AA7",
"u  c #6E8CA8",
"i  c #6195B5",
"p  c #7085A4",
"a  c #708AA7",
"s  c #728CA8",
"d  c #7B8CA6",
"f  c #7C8DA6",
"g  c #728EB0",
"h  c #7BA0B0",
"j  c #7CA1B0",
"k  c #518DDB",
"l  c #5592DD",
"z  c #5997DF",
"x  c #5D93DC",
"c  c #5D9CE1",
"v  c #6B93CB",
"b  c #659CE0",
"n  c #65A0CF",
"m  c #69A5D1",
"M  c #6DAAD4",
"N  c #70ADD4",
"B  c #76B6DB",
"V  c #62A2E3",
"C  c #66A7E5",
"Z  c #67A7E5",
"A  c #66A8E5",
"S  c #67A8E5",
"D  c #67A8E6",
"F  c #6BADE7",
"G  c #6BAEE7",
"H  c #6CADE7",
"J  c #6CAEE7",
"K  c #74A8E3",
"L  c #7BA8E3",
"P  c #7BAFE6",
"I  c #72B2E1",
"U  c #76B0E7",
"Y  c #74B7E3",
"T  c #72B3E9",
"R  c #71B4EA",
"E  c #71B5EA",
"W  c #72B4EA",
"Q  c #74B0E8",
"!  c #74B1E8",
"~  c #76B3E8",
"^  c #74B8EB",
"/  c #75B8EB",
"(  c #77B9EB",
")  c #74B8EC",
"_  c #76BAEC",
"`  c #76BBEC",
"'  c #77BBED",
"]  c #7CB1E8",
"[  c #79BBE5",
"{  c #79BDED",
"}  c #79BDEE",
"|  c #79BEEE",
" . c #7ABFEE",
".. c #7BBFEF",
"X. c #7CBCEC",
"o. c #7CBCED",
"O. c #7AC0EE",
"+. c #7BC0EE",
"@. c #7BC0EF",
"#. c #7FC1E9",
"$. c #7CC1EE",
"%. c #7DC1EF",
"&. c #7EC4F0",
"*. c #7EC4F1",
"=. c #7FC4F0",
"-. c #7FC4F1",
";. c #7FC5F0",
":. c gray53",
">. c #8E8E8E",
",. c #909090",
"<. c #939393",
"1. c #949394",
"2. c gray58",
"3. c #959595",
"4. c #979797",
"5. c #999799",
"6. c #9A999A",
"7. c #87A4B0",
"8. c gray67",
"9. c #B2B2B2",
"0. c #88A5D1",
"q. c #89AAD0",
"w. c #8BA9D2",
"e. c #89ABD4",
"r. c #8CAED2",
"t. c #8EAFD3",
"y. c #90B3D3",
"u. c #90B5D6",
"i. c #81B5E1",
"p. c #8FB2E6",
"a. c #8EB6E8",
"s. c #88BAEB",
"d. c #8EBEEC",
"f. c #91B3E6",
"g. c #93B7E2",
"h. c #90B5E7",
"j. c #91B4E6",
"k. c #92B6E7",
"l. c #92B6E8",
"z. c #94B8E0",
"x. c #96BAE1",
"c. c #94B8E8",
"v. c #95B8E8",
"b. c #96BBE9",
"n. c #97BBE9",
"m. c #98BDE2",
"M. c #98BDEB",
"N. c #99BDEB",
"B. c #98BEEA",
"V. c #98BEEB",
"C. c #99BEEA",
"Z. c #99BEEB",
"A. c #99BFEB",
"S. c #87C4DF",
"D. c #8BC4EF",
"F. c #8BC9E2",
"G. c #82C3F0",
"H. c #80C5F0",
"J. c #80C7F2",
"K. c #81C8F2",
"L. c #82C9F2",
"P. c #82C9F3",
"I. c #83C8F2",
"U. c #83C9F2",
"Y. c #83C9F3",
"T. c #83CAF2",
"R. c #84C9F2",
"E. c #84C9F3",
"W. c #85CBF2",
"Q. c #84CCF4",
"!. c #86CDF4",
"~. c #86CEF4",
"^. c #87CEF4",
"/. c #87CEF5",
"(. c #87CFF5",
"). c #87CFF6",
"_. c #88CEF5",
"`. c #88CFF4",
"'. c #88CFF5",
"]. c #89CFF5",
"[. c #89D0F4",
"{. c #89D2F6",
"}. c #8AD2F6",
"|. c #8AD3F6",
" X c #8BD2F6",
".X c #8BD2F7",
"XX c #8BD3F6",
"oX c #8FD1F6",
"OX c #8DD6F7",
"+X c #8DD7F7",
"@X c #8ED6F7",
"#X c #8DD6F8",
"$X c #8ED6F8",
"%X c #8FD9F9",
"&X c #8FDAF9",
"*X c #92C5EE",
"=X c #95C3ED",
"-X c #97C1EC",
";X c #9AC0E4",
":X c #9CC1E5",
">X c #9BC1EB",
",X c #9BC1EC",
"<X c #9CC3ED",
"1X c #9DC3ED",
"2X c #9CC4ED",
"3X c #9EC4EC",
"4X c #9EC4ED",
"5X c #9FC5ED",
"6X c #9FC5EE",
"7X c #9FC7EE",
"8X c #99CDF2",
"9X c #9FCEF3",
"0X c #90D7F8",
"qX c #90D9F9",
"wX c #91D9F8",
"eX c #91D9F9",
"rX c #90DAF9",
"tX c #91DAF9",
"yX c #92DCFA",
"uX c #93DCFA",
"iX c #99D0F3",
"pX c #9CDAF7",
"aX c #A0C6EE",
"sX c #A0C7EE",
"dX c #A1C7EE",
"fX c #A5CEE2",
"gX c #A1C8EE",
"hX c #A2C9EF",
"jX c #A3CBEF",
"kX c #A4CAEF",
"lX c #A4CBEF",
"zX c #A2CCF1",
"xX c #A4CBF0",
"cX c #A5CEF1",
"vX c #A6CDF0",
"bX c #A6CEF1",
"nX c #A7CEF1",
"mX c #A0D6F6",
"MX c #A9D1F2",
"NX c #AAD1F2",
"BX c #ACD5F4",
"VX c #ADD5F4",
"CX c #ACD6F4",
"ZX c #ABDDF7",
"AX c #AFD8F5",
"SX c #AFD9F5",
"DX c #B2DCF6",
"FX c #B2DCF7",
"GX c #B4DFF8",
"HX c #B5DFF8",
"JX c #B6E2F8",
"KX c #B9E4FA",
"LX c #C6C6C6",
"PX c #C8C8C8",
"IX c gray79",
"UX c gray100",
"YX c None",
/* pixels */
"YXYX:.5.6.3.<.<.<.<.1.1.1.1.1.1.2.2.1.1.1.1.1.6.5.:.YXYX",
"YX5.9 4 3 3 3 3 3 3 3 3 3 3 3 3 3 3 3 3 3 3 3 3 4 9 5.YX",
"3.8 d 0.p.p.p.p.f.f.p.p.p.p.p.p.p.p.p.p.p.p.p.p.0.d 7 3.",
"3.f j.j.j.p.j.j.f.f.f.l.j.j.j.p.j.j.j.j.j.j.j.j.j.j.p 3.",
"6 w.l.l.l.j.l.l.c.j.c.j.l.l.j.l.j.c.l.j.j.l.l.l.l.l.v 6 ",
"3 v.v.v.v.v.v.v.c.c.c.v.v.v.v.v.v.v.c.c.v.c.v.v.c.l.x 3 ",
"3 n.n.v.n.n.n.n.n.n.n.n.n.n.n.n.n.n.n.v.n.n.v.n.n.L k 3 ",
"3 A.A.A.>XV.V.V.-Xn.g.- @ e.n.1 @ g V.>Xn.>XV.V.a.b l 3 ",
"3 A.4XA.-X>X4X>X>X-Xm.X X w.-X# X t >X>X>X>X>XV.K z z 3 ",
"3 4X4XaX4X4X4X5X3XaXu.O X t.4X: X y 4X>X5X5X5XP c c c 3 ",
"3 aXdXdXaXaXgXaXaXaXm.O X t.aX: X y 5X5X5X-X] V V V V 3 ",
"3 lXlXlXlXlXlXgXgXaX;XO X y.xX: X s 7X5Xd.Q C C C C C 3 ",
"3 nXnXxXxXMXxXnXjXjX;XO X u.mX, X y *Xs.Q H G G G H H 3 ",
"3 NXMXNXMXMXMXNXzX*Xi.o X v E & X 0 Q Q T E E E E E E 3 ",
"3 BXBXBXBXBX9XD.X.X.I o X m ` & X 0 ) ) ( ( ' ( ' ( ( 3 ",
"3 AXAXDXAX8XG.....O.Y o X M O.= X w ' } ( ....O.O.O...3 ",
"3 FXFXFX8X%.;.%.&.&.[ X X N %.& X e O.%.%.T.%.T.&.G.;.3 ",
"3 HXHXmXT.T.T.Q.T.Y.X.% @ B E.< @ i T.E.E.^.T.T.E.E.Y.3 ",
"3 JXZXoX|.Q.(.Q.Q.|.`.`.Q.`.`.Q.`.Q.|.(.(.(.(.Q.Q.Q.`.3 ",
"3 KXpX|.|.XXXXXX(.oX|.oXXXXXoX|.|.oX|.oXXXXXXXXX.X.X.X3 ",
"6 fX$XOXOXOXOXOXOX$X$X$X0X0X0X$X$X$XOXOXOXOXOXOXOXOXF.6 ",
"5.7.&X%X%X%X&X&X&X&X&X$X&X&XwX&XuX$X&X%X&X&X&XuX&X&Xh <.",
"<.r h F.uXuXuXuXuXuXuX&XuXuX&XuXuXuXuXuXuXuXuXuXF.h r <.",
"YX3.,.5 3 3 3 3 3 3 3 3 3 3 3 3 3 3 3 3 3 3 3 3 5 ,.<.YX",
"YXYX2 8.LXIXIXIXIXIXIXIXIXIXIXIXIXIXIXIXIXIX9.<.>.2 YXYX"
};
