/* XPM */
static char *Pause_xpm[] = {
/* columns rows colors chars-per-pixel */
"28 25 166 2",
"   c black",
".  c #010101",
"X  c gray3",
"o  c #090909",
"O  c #222222",
"+  c #232323",
"@  c #252525",
"#  c gray15",
"$  c gray16",
"%  c #2A2A2A",
"&  c gray17",
"*  c #2C2C2C",
"=  c #2D2D2D",
"-  c gray18",
";  c #484848",
":  c gray29",
">  c #626262",
",  c gray40",
"<  c #6C6B6C",
"1  c #727272",
"2  c gray45",
"3  c #7C7C7C",
"4  c gray49",
"5  c #7E7E7E",
"6  c gray53",
"7  c #8E8E8E",
"8  c #909090",
"9  c #939393",
"0  c #949394",
"q  c gray58",
"w  c #959595",
"e  c #979797",
"r  c #999799",
"t  c #9A999A",
"y  c #9B9B9B",
"u  c gray62",
"i  c gray63",
"p  c #A2A2A2",
"a  c #A7A7A7",
"s  c #A8A7A8",
"d  c gray66",
"f  c #A9A9A9",
"g  c #AAAAAA",
"h  c #ACABAB",
"j  c #ACACAC",
"k  c gray68",
"l  c #AEAEAE",
"z  c #B2B2B2",
"x  c #C1C1C1",
"c  c #C2C2C3",
"v  c #C5C5C5",
"b  c #C6C6C6",
"n  c #C7C6C7",
"m  c gray78",
"M  c #C8C9C8",
"N  c #C9C8C9",
"B  c gray79",
"V  c #CACACA",
"C  c #CBCCCC",
"Z  c #CCCBCC",
"A  c gray80",
"S  c gray81",
"D  c #D0CFD0",
"F  c #D0D0D0",
"G  c #D1D0D1",
"H  c #D2D2D2",
"J  c #D2D2D3",
"K  c #D3D2D2",
"L  c #D3D2D3",
"P  c LightGray",
"I  c #D4D3D4",
"U  c gray83",
"Y  c #D5D5D5",
"T  c #D5D5D6",
"R  c gray84",
"E  c #D6D7D6",
"W  c #D7D6D7",
"Q  c #D7D7D7",
"!  c #D8D8D8",
"~  c gray85",
"^  c #DADADA",
"/  c #DADBDB",
"(  c #DBDBDA",
")  c gray86",
"_  c gainsboro",
"`  c #DDDDDC",
"'  c #DDDDDD",
"]  c #DEDDDE",
"[  c #DEDEDD",
"{  c gray87",
"}  c #DFDFDF",
"|  c #DFDFE0",
" . c #DFE0E0",
".. c gray88",
"X. c #E0E0E1",
"o. c #E1E1E1",
"O. c #E2E1E1",
"+. c #E2E2E2",
"@. c #E3E2E3",
"#. c gray89",
"$. c #E3E3E4",
"%. c #E3E4E4",
"&. c #E4E3E3",
"*. c #E4E3E4",
"=. c #E4E4E3",
"-. c #E4E4E4",
";. c gray90",
":. c #E5E6E6",
">. c #E6E6E5",
",. c #E6E6E6",
"<. c #E6E6E7",
"1. c #E6E7E6",
"2. c #E6E7E7",
"3. c #E7E6E6",
"4. c #E7E7E6",
"5. c #E7E7E7",
"6. c #E7E7E8",
"7. c gray91",
"8. c #E9E9E9",
"9. c #E9E9EA",
"0. c #E9EAE9",
"q. c #E9EAEA",
"w. c #EAE9E9",
"e. c #EAE9EA",
"r. c #EAEAE9",
"t. c #EAEAEA",
"y. c gray92",
"u. c #EBEBEC",
"i. c #EBECEB",
"p. c #EBECEC",
"a. c #ECEBEB",
"s. c #ECEBEC",
"d. c #ECECEB",
"f. c #ECECEC",
"g. c #ECECED",
"h. c #ECEDEC",
"j. c gray93",
"k. c #EDEDEE",
"l. c #EEEEEE",
"z. c #EEEEEF",
"x. c #EEEFEE",
"c. c #EEEFEF",
"v. c #EFEEEE",
"b. c #EFEEEF",
"n. c #EFEFEE",
"m. c #EFEFEF",
"M. c #EFEFF0",
"N. c gray94",
"B. c #F0F0F1",
"V. c #F0F1F0",
"C. c #F0F1F1",
"Z. c #F1F0F0",
"A. c #F1F0F1",
"S. c #F1F1F0",
"D. c #F1F1F1",
"F. c gray95",
"G. c #F3F3F3",
"H. c #F4F4F4",
"J. c gray96",
"K. c #F6F6F6",
"L. c gray97",
"P. c #F8F8F8",
"I. c #F9F8F8",
"U. c #F9F9F9",
"Y. c gray100",
"T. c None",
/* pixels */
"T.T.6 r e 9 9 0 0 0 9 9 9 9 0 0 9 9 0 0 0 0 9 r r 6 T.T.",
"T.r 3 < , , , , , , , , , , , , , , , , , , , , < 3 r T.",
"e 3 d U y.y.y.y.y.y.y.y.y.7.y.y.y.4.y.y.y.y.y.y.U d 3 e ",
"e d y.y.y.y.y.d.a.y.y.y.y.y.y.y.y.y.y.y.a.y.y.y.y.a.u e ",
"2 U d.a.d.k.d.d.a.y.a.k.a.y.u.a.d.d.k.k.a.i.i.d.u.i.c 2 ",
", k.k.d.d.d.k.d.d.k.d.d.a.a.k.a.d.d.d.d.k.d.k.k.k.y.M , ",
", k.k.k.k.k.k.d.k.k.k.d.k.k.k.k.d.k.k.k.k.k.k.k.k._ c , ",
", k.k.n.k.k.k.k.k.k.>.% + Q k.; + z k.4.k.k.k.k.>.S b , ",
", m.m.m.m.m.m.m.n.n.>.    U m.#   d S.m.m.m.m.m.~ M M , ",
", m.S.m.m.S.S.S.S.S.>.o   U S.=   d S.S.S.m.m._ Z Z Z , ",
", F.F.S.S.S.S.S.S.S.<.o   U S.=   d S.S.S.u._ D S S S , ",
", F.F.F.F.F.G.G.S.F.<.o   W F.=   s A.y.| W I J P D K , ",
", F.H.F.G.G.G.G.G.G.y.o   D m.*   i _ W U Q Q Q U U ~ , ",
", H.H.J.G.G.L.G.y.$.D X   N | %   y _ _ } | _ ~ _ _ ~ , ",
", J.J.J.L.G.k.y.| } U X   m | %   u | o.>.>.=.| } | _ , ",
", J.J.J.G.k.=.| | | E X   M #.*   i 7.>.>.>.4.| | | | , ",
", U.J.P.m.#.#.#.o.o.^     M $.#   i <.<.2.7.>.o.o.$.$., ",
", U.P.S.<.<.2.2.<.>.| $ + D <.; O l <.>.7.>.2.<.>.>.5., ",
", U.J.u.y.y.y.y.y.y.y.u.u.y.7.u.y.y.7.u.>.y.u.u.y.y.y., ",
", U.F.u.i.u.u.i.a.a.u.a.a.k.a.a.y.a.a.a.k.k.y.k.i.k.k., ",
"2 | S.k.k.c.c.k.m.m.k.k.k.k.m.m.m.m.m.S.k.k.k.A.m.A.~ 2 ",
"e l S.S.n.S.S.S.S.S.A.A.S.A.S.A.m.S.m.S.S.A.m.S.S.S.d r ",
"9 6 d _ F.F.S.F.F.F.F.F.F.F.F.F.F.F.F.F.F.F.S.S.~ d 6 9 ",
"T.q 9 2 , , , , , , , , , , , , , , , , , , , , 2 9 0 T.",
"T.T.> 7 9 e c M M M M V M V M V M M V M V M n y 7 > T.T."
};
