/* XPM */
static char *PlayDown_xpm[] = {
/* columns rows colors chars-per-pixel */
"28 25 253 2",
"   c black",
".  c #010101",
"X  c #020304",
"o  c #030304",
"O  c #030405",
"+  c #040607",
"@  c #050607",
"#  c #050608",
"$  c #0B1115",
"%  c #0E171D",
"&  c #10191E",
"*  c #161C21",
"=  c #4C5F74",
"-  c #54687D",
";  c #626262",
":  c gray40",
">  c #6C6B6C",
",  c #727272",
"<  c gray45",
"1  c #73777D",
"2  c #74787E",
"3  c #7C7C7C",
"4  c #536880",
"5  c #566A80",
"6  c #576C81",
"7  c #5E91BB",
"8  c #5F96BF",
"9  c #7E8588",
"0  c #7F8588",
"q  c #6196B8",
"w  c #6097BB",
"e  c #7085A4",
"r  c #7B8CA6",
"t  c #7C8DA6",
"y  c #7BA0B0",
"u  c #7CA1B0",
"i  c #518DDB",
"p  c #5592DD",
"a  c #5997DF",
"s  c #5D93DC",
"d  c #5D9CE1",
"f  c #629AC4",
"g  c #669AC2",
"h  c #669DC1",
"j  c #669EC5",
"k  c #6B93CB",
"l  c #7D9CC0",
"z  c #7E9DC0",
"x  c #659CE0",
"c  c #69A2C3",
"v  c #73B0D4",
"b  c #62A2E3",
"n  c #66A7E5",
"m  c #67A7E5",
"M  c #66A8E5",
"N  c #67A8E5",
"B  c #67A8E6",
"V  c #6BADE7",
"C  c #6BAEE7",
"Z  c #6CADE7",
"A  c #6CAEE7",
"S  c #74A8E3",
"D  c #7BA8E3",
"F  c #7BAFE6",
"G  c #76B0E7",
"H  c #72B3E9",
"J  c #71B4EA",
"K  c #71B5EA",
"L  c #72B4EA",
"P  c #73B6EB",
"I  c #74B0E8",
"U  c #74B1E8",
"Y  c #76B3E8",
"T  c #76B4E9",
"R  c #74B8EB",
"E  c #75B8EB",
"W  c #77B9EB",
"Q  c #74B8EC",
"!  c #75B9EC",
"~  c #76BAEC",
"^  c #76BBEC",
"/  c #77BBED",
"(  c #7CB1E8",
")  c #78BBEC",
"_  c #78BCED",
"`  c #79BDED",
"'  c #79BDEE",
"]  c #79BEEE",
"[  c #7ABFEE",
"{  c #7BBFEE",
"}  c #7BBFEF",
"|  c #7CBCEC",
" . c #7CBCED",
".. c #7AC0EE",
"X. c #7BC0EE",
"o. c #7BC0EF",
"O. c #7CC1EE",
"+. c #7DC1EF",
"@. c #7EC2EF",
"#. c #7EC4F0",
"$. c #7EC4F1",
"%. c #7FC4F0",
"&. c #7FC4F1",
"*. c #7FC5F0",
"=. c gray53",
"-. c #8E8E8E",
";. c #909090",
":. c #939393",
">. c #949394",
",. c gray58",
"<. c #959595",
"1. c #979797",
"2. c #999799",
"3. c #9A999A",
"4. c #87A4B0",
"5. c gray67",
"6. c #B2B2B2",
"7. c #82A1C3",
"8. c #84A5C5",
"9. c #88A8C6",
"0. c #89A9C7",
"q. c #88A5D1",
"w. c #8BA9D2",
"e. c #87BEEC",
"r. c #8FB2E6",
"t. c #8EB6E8",
"y. c #88BAEB",
"u. c #8EBEEC",
"i. c #91B3E6",
"p. c #90B5E7",
"a. c #91B4E6",
"s. c #93B7E4",
"d. c #92B6E7",
"f. c #92B6E8",
"g. c #93BAE0",
"h. c #94B8E8",
"j. c #95B8E8",
"k. c #96BBE9",
"l. c #97BBE9",
"z. c #98BDEB",
"x. c #99BDEB",
"c. c #98BEEA",
"v. c #98BEEB",
"b. c #99BEEA",
"n. c #99BEEB",
"m. c #99BFEB",
"M. c #87C4DF",
"N. c #8BC4EF",
"B. c #8BC9E2",
"V. c #82C3F0",
"C. c #80C5F0",
"Z. c #81C7F1",
"A. c #80C7F2",
"S. c #81C8F2",
"D. c #83C8F1",
"F. c #82C9F2",
"G. c #82C9F3",
"H. c #83C8F2",
"J. c #83C9F2",
"K. c #83C9F3",
"L. c #83CAF2",
"P. c #83CAF3",
"I. c #84C9F2",
"U. c #84C9F3",
"Y. c #85CBF2",
"T. c #84CCF4",
"R. c #86CDF4",
"E. c #86CEF4",
"W. c #87CEF4",
"Q. c #87CEF5",
"!. c #87CFF5",
"~. c #87CFF6",
"^. c #88CEF5",
"/. c #88CFF4",
"(. c #88CFF5",
"). c #89CFF5",
"_. c #89D0F4",
"`. c #89D2F6",
"'. c #8AD2F6",
"]. c #8AD3F6",
"[. c #8BD2F6",
"{. c #8BD2F7",
"}. c #8BD3F6",
"|. c #8FD1F6",
" X c #8DD6F7",
".X c #8DD7F7",
"XX c #8ED6F7",
"oX c #8DD6F8",
"OX c #8ED6F8",
"+X c #8FD9F9",
"@X c #8FDAF9",
"#X c #92C5EE",
"$X c #95C3ED",
"%X c #97C1EC",
"&X c #9BC1EB",
"*X c #9BC1EC",
"=X c #9CC3ED",
"-X c #9DC3EC",
";X c #9DC3ED",
":X c #9CC4ED",
">X c #9EC4EC",
",X c #9EC4ED",
"<X c #9EC5ED",
"1X c #9FC5ED",
"2X c #9FC5EE",
"3X c #9FC6ED",
"4X c #9FC7EE",
"5X c #99CDF2",
"6X c #9FCEF3",
"7X c #90D7F8",
"8X c #90D9F9",
"9X c #91D9F8",
"0X c #91D9F9",
"qX c #90DAF9",
"wX c #91DAF9",
"eX c #92DCFA",
"rX c #93DCFA",
"tX c #99D0F3",
"yX c #9CDAF7",
"uX c #A0C6EE",
"iX c #A0C7EE",
"pX c #A1C7EE",
"aX c #A5CEE2",
"sX c #A1C8EE",
"dX c #A2C9EF",
"fX c #A3CBEF",
"gX c #A4CAEF",
"hX c #A4CBEF",
"jX c #A2CCF1",
"kX c #A4CBF0",
"lX c #A6CDF0",
"zX c #A6CEF1",
"xX c #A7CEF1",
"cX c #A0D6F6",
"vX c #A9D1F2",
"bX c #AAD1F2",
"nX c #ACD5F4",
"mX c #ADD5F4",
"MX c #ACD6F4",
"NX c #ABDDF7",
"BX c #AFD8F5",
"VX c #AFD9F5",
"CX c #B2DCF6",
"ZX c #B2DCF7",
"AX c #B4DFF8",
"SX c #B5DFF8",
"DX c #B6E2F8",
"FX c #B9E4FA",
"GX c #C6C6C6",
"HX c #C8C8C8",
"JX c gray79",
"KX c gray100",
"LX c None",
/* pixels */
"LXLX=.2.3.<.:.:.:.:.>.>.>.>.>.>.<.>.>.>.>.>.>.3.2.=.LXLX",
"LX2.3 > : : : : : : : : : : : : : : : : : : : : > 3 2.LX",
"<.2 r q.r.r.r.r.i.i.r.r.r.r.r.r.r.r.r.r.r.r.r.r.q.t 1 <.",
"<.t a.a.a.r.a.a.i.i.i.f.a.a.a.r.a.a.a.a.a.a.a.a.a.a.e <.",
"< w.f.f.f.a.f.f.s.f.f.f.f.f.a.f.a.f.a.f.f.f.f.f.f.f.k < ",
": j.j.j.j.j.j.j.j.f.j.j.j.j.j.j.j.s.j.j.j.j.j.j.j.a.s : ",
": l.l.j.l.l.l.l.l.l.j.s.l.l.l.l.j.b.l.v.l.l.l.j.l.D i : ",
": m.m.m.&Xv.v.v.m.%Xm.l - v.%Xl.b.v.v.v.v.v.v.v.t.x p : ",
": *X*X%X*X*X*X%X%X*X-Xy # = m.m.%X*X*X*X*X-X%Xm.S a a : ",
": 1X1X>X>X>X>X>X>X1X*X7.# X - 2X2X>X*X1X*X1X>XF d d d : ",
": 1X1XdXpXpXdX>X1X1X1X8.+ . . 5 >X>X1XuXdX$XF b b b b : ",
": gXgXgXgXxXdXdXdX1XgX0.+ . . X 6 pXuX%Xu.F n m m m m : ",
": xXxXxXxXxXxXxXfXhXhX0.# . . . * g.$Xy.I A A A C A A : ",
": bXbXbXbXbXbXbXjX#Xe.g + . . % 7 T T I L L K K K K L : ",
": nXnXnXnXnX6XN.| | ^ f O . % 8 ~ P P ~ P W ^ ~ ^ ~ ~ : ",
": BXBXBXBX5XV.[ [ } [ j . $ 8 [ [ W [ ] W [ o.[ [ [ [ : ",
": ZXZXZX5XV.$.$.$.$.$.h & q $.V.O.[ O.O.O.V.F.$.V.$.$.: ",
": DXSXyXU.U.F.F.K.K.U.v c F.U.U.F.F.Z.U.Y.^.Q.F.K.A.K.: ",
": DXNX|.Q.Q.E.E.Q.Q.^.^.Q.^.^.^.^.^.^.].Q.Q.Q.Q.Q.Q.~.: ",
": FXyX`.].].].].`.|.`.`.].[.].].].[.[.[.].].].].`.`.`.: ",
"< aX7X XXXXX X X X7X X7X X7X X X7X7X X7XXX X X X XoXB., ",
"2.4.@X@X+X+X@X+X@X@X7X7X@XrX@X@X@X7X@X@X@X@X@X@X+X+Xy <.",
";.=.u B.eXeXeXeXrXrXrX@XrXrXeXeXrXrXrXrXeXeXrXrXB.y =.;.",
"LX,.;., : : : : : : : : : : : : : : : : : : : : , -.>.LX",
"LXLX; 5.GXHXHXJXJXJXJXJXJXJXJXJXJXJXJXJXJXJX6.>.-.; LXLX"
};
