/* XPM */
static char *Play_xpm[] = {
/* columns rows colors chars-per-pixel */
"28 25 161 2",
"   c black",
".  c #010101",
"X  c #040404",
"o  c gray2",
"O  c #070707",
"+  c gray3",
"@  c #131413",
"#  c #1B1B1B",
"$  c gray11",
"%  c #1D1D1D",
"&  c #1F201F",
"*  c #626262",
"=  c gray40",
"-  c #6C6B6C",
";  c #727272",
":  c gray45",
">  c gray46",
",  c #7C7C7C",
"<  c gray49",
"1  c #7E7E7E",
"2  c gray50",
"3  c #818181",
"4  c gray51",
"5  c gray53",
"6  c #8E8E8E",
"7  c #909090",
"8  c #939393",
"9  c #949394",
"0  c gray58",
"q  c #959595",
"w  c #979797",
"e  c #999799",
"r  c #9A999A",
"t  c gray63",
"y  c gray66",
"u  c #A9A9A9",
"i  c #ACABAB",
"p  c #ACACAC",
"a  c #AEAEAE",
"s  c #B2B2B2",
"d  c gray71",
"f  c #B6B6B6",
"g  c #B7B7B7",
"h  c #B9B9B9",
"j  c gray73",
"k  c #C1C1C1",
"l  c gray76",
"z  c #C2C2C3",
"x  c #C3C3C3",
"c  c #C6C6C6",
"v  c gray78",
"b  c #C8C8C8",
"n  c #C8C9C8",
"m  c #C9C8C9",
"M  c gray79",
"N  c #CACACA",
"B  c #CBCCCC",
"V  c #CCCBCC",
"C  c gray80",
"Z  c gray81",
"A  c #D0CFD0",
"S  c #D2D2D2",
"D  c #D2D2D3",
"F  c #D3D2D2",
"G  c #D3D2D3",
"H  c LightGray",
"J  c gray83",
"K  c #D5D5D6",
"L  c gray84",
"P  c #D7D6D7",
"I  c #D7D7D7",
"U  c #D8D8D8",
"Y  c #DADADA",
"T  c #DADBDB",
"R  c #DBDBDA",
"E  c gray86",
"W  c gainsboro",
"Q  c #DDDDDC",
"!  c #DDDDDD",
"~  c #DEDDDE",
"^  c #DEDEDD",
"/  c gray87",
"(  c #DFDFDF",
")  c #DFDFE0",
"_  c #DFE0E0",
"`  c gray88",
"'  c #E0E0E1",
"]  c #E1E1E1",
"[  c #E1E2E1",
"{  c #E2E1E1",
"}  c #E2E2E2",
"|  c #E3E2E3",
" . c gray89",
".. c #E3E3E4",
"X. c #E3E4E3",
"o. c #E3E4E4",
"O. c #E4E3E3",
"+. c #E4E3E4",
"@. c #E4E4E3",
"#. c #E4E4E4",
"$. c gray90",
"%. c #E5E6E6",
"&. c #E6E6E5",
"*. c #E6E6E6",
"=. c #E6E6E7",
"-. c #E6E7E6",
";. c #E6E7E7",
":. c #E7E6E6",
">. c #E7E7E6",
",. c #E7E7E7",
"<. c #E7E7E8",
"1. c gray91",
"2. c #E9E9E9",
"3. c #E9E9EA",
"4. c #E9EAE9",
"5. c #E9EAEA",
"6. c #EAE9E9",
"7. c #EAE9EA",
"8. c #EAEAE9",
"9. c #EAEAEA",
"0. c gray92",
"q. c #EBEBEC",
"w. c #EBECEB",
"e. c #EBECEC",
"r. c #ECEBEB",
"t. c #ECEBEC",
"y. c #ECECEB",
"u. c #ECECEC",
"i. c #ECECED",
"p. c #ECEDEC",
"a. c gray93",
"s. c #EDEDEE",
"d. c #EEEDEE",
"f. c #EEEEEE",
"g. c #EEEEEF",
"h. c #EEEFEE",
"j. c #EEEFEF",
"k. c #EFEEEE",
"l. c #EFEEEF",
"z. c #EFEFEE",
"x. c #EFEFEF",
"c. c #EFEFF0",
"v. c gray94",
"b. c #F0F0F1",
"n. c #F0F1F0",
"m. c #F0F1F1",
"M. c #F1F0F0",
"N. c #F1F0F1",
"B. c #F1F1F0",
"V. c #F1F1F1",
"C. c gray95",
"Z. c #F3F3F3",
"A. c #F4F4F4",
"S. c gray96",
"D. c #F6F6F6",
"F. c gray97",
"G. c #F8F8F8",
"H. c #F9F8F8",
"J. c #F9F9F9",
"K. c gray100",
"L. c None",
/* pixels */
"L.L.5 e w 8 8 9 9 9 8 8 8 8 9 9 8 8 8 9 9 9 9 w w 5 L.L.",
"L.e , - = = = = = = = = = = = = = = = = = = = * - , e L.",
"w , y J 0.0.0.0.0.0.0.0.0.1.0.0.0.1.0.0.0.0.0.0.J y , w ",
"w y 0.0.0.0.0.y.r.0.0.0.0.0.0.0.0.0.0.r.r.0.0.0.0.0.t w ",
": J y.r.y.s.y.y.s.0.r.y.r.0.q.r.y.y.s.s.r.0.r.r.q.w.z : ",
"= s.s.y.y.y.s.y.r.y.s.y.r.r.s.r.y.y.y.y.s.s.y.s.r.0.m = ",
"= s.s.s.s.s.s.y.s.s.s.1.y.s.s.s.y.s.s.s.s.y.s.s.s.! z = ",
"= s.s.z.s.s.s.s.s.s.z.x 4 s.s.s.s.h.s.1.s.s.z.s.0.N v = ",
"= c.c.c.s.c.c.c.z.z.c.z X > c.s.c.c.z.c.z.c.z.s.Y m m = ",
"= B.c.c.B.B.B.B.B.z.B.v X . 2 B.B.c.c.B.B.c.c.! N N N = ",
"= B.B.B.B.B.B.B.B.B.B.v O . . 3 B.Z.B.B.B.r.! Z S Z Z = ",
"= B.Z.Z.B.Z.Z.Z.B.Z.Z.m O . . X 3 s.c.r.( U G G S S F = ",
"= A.Z.Z.Z.Z.Z.Z.Z.Z.Z.m O . . . & P ! J J J U J J J I = ",
"= Z.Z.Z.Z.Z.Z.F.0. .! d O . . # s R R ! ( } ! Y Q E Y = ",
"= Z.D.D.Z.F.c.%.} ! ! h O . # d } ( }  . .%.} ! ! ! ! = ",
"= D.D.D.Z.s. .} ! } } h . @ s } | %.%.>.%.%.%.} } } } = ",
"= F.D.F.c.%.}  .| | %.d % a  . .%.>.%.1.=.1. . .| | | = ",
"= F.D.B.=.%.=.>.%. .%.m h 0.%.%.>.1.=.=.>.>.=.1.%.%.>.= ",
"= J.D.q.1.0.0.0.0.0.0.0.0.0.0.0.1.r.q.q.0.q.q.0.0.0.0.= ",
"= J.Z.s.w.s.w.w.r.0.0.s.r.r.q.q.r.r.r.r.0.r.r.q.y.s.s.= ",
": ) c.s.s.c.h.s.c.s.s.c.s.h.h.h.c.s.c.c.s.c.s.c.s.c.Y : ",
"w a B.B.z.B.B.B.c.c.B.B.B.B.B.c.B.B.c.c.c.c.B.B.B.B.y w ",
"8 5 y ! Z.B.B.Z.Z.Z.B.Z.A.B.Z.Z.B.B.B.Z.Z.Z.B.B.Y i 5 8 ",
"L.0 8 : = = = = = = = = = = = = = = = = = = = = : 6 w L.",
"L.L.* 6 8 w y v m m m m m m n n m m m n n N m w 6 * L.L."
};
