<svg width="512" height="513" viewBox="0 0 512 513" fill="none" xmlns="http://www.w3.org/2000/svg">
<path d="M439.864 502.198H72.1367V10.5811H337.513L340.501 13.6738L437.017 113.534L439.864 116.48V502.198Z" fill="#0F004D" stroke="#FF3254" stroke-width="20.2729"/>
<g clip-path="url(#clip0_1969_10972)">
<path d="M374.285 324.443C374.285 353.726 350.186 377.466 320.46 377.466C290.733 377.466 266.634 353.726 266.634 324.443C266.634 295.159 290.733 271.42 320.46 271.42C350.186 271.42 374.285 295.159 374.285 324.443Z" fill="#FF3254"/>
<path d="M256.661 143.917C207.896 143.917 168.364 184.142 168.364 233.763C168.364 241.045 169.217 250.631 170.824 257.411H174.607C173.919 253.219 173.558 246.39 173.558 241.973C173.558 203.057 201.463 171.508 235.885 171.508C270.307 171.508 298.212 203.056 298.212 241.973C298.212 245.671 297.959 253.064 297.474 256.609H342.96C344.267 250.458 344.957 240.312 344.957 233.763C344.957 184.142 305.425 143.917 256.661 143.917Z" fill="#FF3254"/>
<path d="M137.889 324.443C137.889 354.113 161.463 378.165 190.544 378.165V270.72C161.463 270.72 137.889 294.772 137.889 324.443Z" fill="#FF3254"/>
<path d="M238.412 260.817L256.807 324.443L238.412 387.758L221.1 324.443L238.412 260.817Z" fill="#FF3254"/>
<path d="M212.384 290.358L222.153 324.443L212.384 358.989L200.506 324.443L212.384 290.358Z" fill="#FF3254"/>
</g>
<defs>
<clipPath id="clip0_1969_10972">
<rect width="236.3" height="243.369" fill="white" transform="translate(138.023 144.044)"/>
</clipPath>
</defs>
</svg>
