/* XPM */
static const char *ToolBarGrabber[] = {
/* columns rows colors chars-per-pixel */
"17 8 6 1",
"  c cyan",
". c gray60",
"X c #B9B9B9",
"o c #DDDDDD",
"O c gray91",
"+ c gray100",
/* pixels */
"                 ",
"oooooooo OOOOOOOO",
"o+.oo+.o O+XOO+XO",
"oooooooo OOOOOOOO",
"oooooooo OOOOOOOO",
"o+.oo+.o O+XOO+XO",
"oooooooo OOOOOOOO",
"                 "
};
