/* XPM */
static const char *ToolBarTarget[] = {
/* columns rows colors chars-per-pixel */
"17 26 3 1",
"  c cyan",
". c yellow",
"X c gray100",
/* pixels */
"XXXXX.......XXXXX",
"XXX...........XXX",
"XX.............XX",
"X...............X",
"X...............X",
".................",
".................",
".................",
"                 ",
".................",
".................",
".................",
".................",
".................",
".................",
".................",
".................",
"                 ",
".................",
".................",
".................",
"X...............X",
"X...............X",
"XX.............XX",
"XXX...........XXX",
"XXXXX.......XXXXX"
};
