/* XPM */
static const char  * AutomateSelectionAlpha[] = {
"27 27 3 1",
" 	c None",
".	c #000000",
"+	c #FFFFFF",
"...........................",
"...........................",
"...........................",
"..+++++++++++++++++++++++..",
"...+++++...+++++...+++++...",
"...+++++...+++++...+++++...",
"...+++++...+++++...+++++...",
"...+++++...+++++...+++++...",
"...+++++...+++++...+++++...",
"...+++++...+++++...+++++...",
"...+++++...+++++...+++++...",
"...+++++...+++++...+++++...",
"...+++++...+++++...+++++...",
".+.+++++.+.++++++.++++++.+.",
"..+++++++.++++++.+.++++++..",
"...+++++...+++++...+++++...",
"...+++++...+++++...+++++...",
"...+++++...+++++...+++++...",
"...+++++...+++++...+++++...",
"...+++++...+++++...+++++...",
"...+++++...+++++...+++++...",
"...+++++...+++++...+++++...",
"...+++++...+++++...+++++...",
"..+++++++++++++++++++++++..",
"...........................",
"...........................",
"..........................."};
