/* XPM */
static const char  * EndOn[] = {
"27 27 5 1",
" 	c None",
".	c #000000",
"+	c #9792A0",
"@	c #2830D3",
"#	c #6365DE",
"                           ",
"                           ",
"                           ",
"   ....................    ",
"   ++++++++++              ",
"   +++@+@+@++              ",
"   ++@@@@@@@@              ",
"   ++@######@              ",
"   +#########    ..        ",
"   +#########   ..         ",
"   +#########  ..          ",
"   +######### ..           ",
"   ##########.......####   ",
"   +######### ..           ",
"   +#########  ..          ",
"   +#########   ..         ",
"   +#########    ..        ",
"   ++@######@              ",
"   ++@@@@@@@@              ",
"   ++++@+@+@+              ",
"   ++++++++++              ",
"   ....................    ",
"                           ",
"                           ",
"                           ",
"                           ",
"                           "};
