/* XPM */
static const char  * SelectSound[] = {
"24 24 5 1",
" 	c None",
".	c #000000",
"+	c #9792A0",
"@	c #2830D3",
"#	c #6365DE",
"                        ",
"                        ",
"  ....................  ",
"           ++           ",
"           ++           ",
"     @ @ @ ++ @ @ @     ",
"    @@@@@@@++@@@@@@@    ",
"   @@####.#++#.####@@   ",
"   #####..#++#..#####   ",
"   ####..##++##..####   ",
"   ###..###++###..###   ",
" ####..............#### ",
"   ###..###++###..###   ",
"   ####..##++##..####   ",
"   #####..#++#..#####   ",
"   @@####.#++#.####@@   ",
"    @@@@@@@++@@@@@@@    ",
"     @ @ @ ++ @ @ @     ",
"           ++           ",
"           ++           ",
"  ....................  ",
"                        ",
"                        ",
"                        "};
