/* XPM */
static const char * const StartOffAlpha[] = {
"27 27 3 1",
" 	c None",
".	c #000000",
"+	c #FFFFFF",
"...........................",
"...........................",
"...........................",
"...++++++++++++++++++++....",
".............++++++++++....",
"......+.+.+..++++++++++....",
".....++++++++++++++++++....",
".....++++++++++++++++++....",
"....+++++++++++++++++++....",
"....+++++++++++++++++++....",
"....+++++++++++++++++++....",
"....+++++++++++++++++++....",
"...+++++++++++++++++++++...",
"....+++++++++++++++++++....",
"....+++++++++++++++++++....",
"....+++++++++++++++++++....",
"....+++++++++++++++++++....",
".....++++++++++++++++++....",
".....++++++++++++++++++....",
".......+.+.+.++++++++++....",
".............++++++++++....",
"...++++++++++++++++++++....",
"...........................",
"...........................",
"...........................",
"...........................",
"..........................."};
