<svg width="32" height="24" viewBox="0 0 32 24" fill="none" xmlns="http://www.w3.org/2000/svg">
<g filter="url(#filter0_d_1417_17991)">
<path fill-rule="evenodd" clip-rule="evenodd" d="M28 13.3349V13.4115C28 13.488 28 13.6411 27.925 13.7942V13.8708V14.1005C27.85 14.2536 27.85 14.3301 27.85 14.4832C27.85 14.5215 27.8313 14.5789 27.8125 14.6364C27.7938 14.6938 27.775 14.7512 27.775 14.7895V14.9426C27.55 15.8612 27.1001 16.7033 26.4251 17.3923C25.6185 18.2791 24.6578 18.7991 23.5006 18.9521V19H8.50182V18.9947C6.12155 18.8831 4.07473 17.0093 4.00202 14.5598C3.92702 11.9569 5.95185 9.81339 8.50164 9.81339C8.65163 9.81339 8.80161 9.81339 8.9516 9.88994C9.17658 6.0622 12.2513 3 16.076 3C19.3757 3 22.1505 5.29665 22.9754 8.35885H23.0504H23.5004H23.5754C23.7254 8.4354 23.8004 8.4354 23.9503 8.4354C23.9939 8.47982 24.0121 8.49847 24.0344 8.50629C24.0506 8.51196 24.0688 8.51196 24.1003 8.51196H24.1753C24.4753 8.58851 24.7003 8.66506 25.0003 8.81817C25.0003 8.89473 25.0752 8.89473 25.0752 8.89473C25.5252 9.1244 25.9002 9.35406 26.2751 9.66028L26.3501 9.73683C26.7251 10.0431 27.0251 10.4258 27.2501 10.8086C27.2501 10.8469 27.2688 10.866 27.2876 10.8852C27.3063 10.9043 27.3251 10.9234 27.3251 10.9617C27.475 11.1914 27.625 11.421 27.7 11.7273V11.8038C27.7 11.8421 27.7188 11.8995 27.7375 11.9569C27.7563 12.0143 27.775 12.0718 27.775 12.11C27.775 12.1866 27.7938 12.244 27.8125 12.3014C27.8313 12.3588 27.85 12.4163 27.85 12.4928C27.925 12.4928 27.925 12.5694 27.925 12.6459V12.7225C27.925 12.8373 27.9438 12.933 27.9625 13.0287C27.9813 13.1244 28 13.2201 28 13.3349ZM9.25767 17.4689L9.25158 17.4689H8.65163C7.07676 17.4689 5.65188 16.3206 5.50189 14.7129C5.3519 12.8756 6.77678 11.3445 8.50164 11.3445H8.80161L10.3765 11.4976L10.4515 10.1196C10.6015 7.36363 12.5513 4.91387 15.1761 4.5311C17.9508 4.07177 20.5756 5.83253 21.4006 8.51196C20.8006 8.66507 20.2007 8.97128 19.7507 9.35406C19.3757 9.66028 19.3757 10.1962 19.6757 10.5024C19.9757 10.8086 20.3506 10.8086 20.6506 10.5789C21.1756 10.0431 21.9255 9.81339 22.6754 9.81339C24.5503 9.88994 26.2751 11.2679 26.4251 13.2584V13.6411V13.7177V14.177V14.3301C26.4251 14.3684 26.4064 14.4258 26.3876 14.4832C26.3689 14.5407 26.3501 14.5981 26.3501 14.6363C26.3501 14.7129 26.3501 14.7129 26.2751 14.7895C26.2751 14.8277 26.2564 14.8852 26.2376 14.9426C26.2189 15 26.2002 15.0574 26.2002 15.0957C26.2002 15.1722 26.2002 15.1722 26.1252 15.2488C26.0877 15.2871 26.0689 15.3445 26.0502 15.4019C26.0314 15.4593 26.0127 15.5167 25.9752 15.555C25.9752 15.555 25.9752 15.6316 25.9002 15.6316C25.8627 15.7081 25.8252 15.7655 25.7877 15.8229C25.7502 15.8804 25.7127 15.9378 25.6752 16.0143L25.6002 16.0909L25.3752 16.3206C24.7753 17.0096 23.8004 17.4689 22.7504 17.4689L22.7444 17.4689H9.25767Z" fill="white"/>
<path d="M9.25767 17.4689L9.25158 17.4689H8.65163C7.07676 17.4689 5.65188 16.3206 5.50189 14.7129C5.3519 12.8756 6.77678 11.3445 8.50164 11.3445H8.80161L10.3765 11.4976L10.4515 10.1196C10.6015 7.36363 12.5513 4.91387 15.1761 4.5311C17.9508 4.07177 20.5756 5.83253 21.4006 8.51196C20.8006 8.66507 20.2007 8.97128 19.7507 9.35406C19.3757 9.66028 19.3757 10.1962 19.6757 10.5024C19.9757 10.8086 20.3506 10.8086 20.6506 10.5789C21.1756 10.0431 21.9255 9.81339 22.6754 9.81339C24.5503 9.88994 26.2751 11.2679 26.4251 13.2584V13.6411V13.7177V14.177V14.3301C26.4251 14.3684 26.4064 14.4258 26.3876 14.4832C26.3689 14.5407 26.3501 14.5981 26.3501 14.6363C26.3501 14.7129 26.3501 14.7129 26.2751 14.7895C26.2751 14.8277 26.2564 14.8852 26.2376 14.9426C26.2189 15 26.2002 15.0574 26.2002 15.0957C26.2002 15.1722 26.2002 15.1722 26.1252 15.2488C26.0877 15.2871 26.0689 15.3445 26.0502 15.4019C26.0314 15.4593 26.0127 15.5167 25.9752 15.555C25.9752 15.555 25.9752 15.6316 25.9002 15.6316C25.8627 15.7081 25.8252 15.7655 25.7877 15.8229C25.7502 15.8804 25.7127 15.9378 25.6752 16.0143L25.6002 16.0909L25.3752 16.3206C24.7753 17.0096 23.8004 17.4689 22.7504 17.4689L22.7444 17.4689H9.25767Z" fill="white"/>
</g>
<defs>
<filter id="filter0_d_1417_17991" x="0" y="0" width="32" height="24" filterUnits="userSpaceOnUse" color-interpolation-filters="sRGB">
<feFlood flood-opacity="0" result="BackgroundImageFix"/>
<feColorMatrix in="SourceAlpha" type="matrix" values="0 0 0 0 0 0 0 0 0 0 0 0 0 0 0 0 0 0 127 0" result="hardAlpha"/>
<feOffset dy="1"/>
<feGaussianBlur stdDeviation="2"/>
<feComposite in2="hardAlpha" operator="out"/>
<feColorMatrix type="matrix" values="0 0 0 0 0 0 0 0 0 0 0 0 0 0 0 0 0 0 0.25 0"/>
<feBlend mode="normal" in2="BackgroundImageFix" result="effect1_dropShadow_1417_17991"/>
<feBlend mode="normal" in="SourceGraphic" in2="effect1_dropShadow_1417_17991" result="shape"/>
</filter>
</defs>
</svg>