/* XPM */
static const char  * CalibrateDisabled[] = {
"27 27 13 1",
" 	c None",
".	c #FFFFFF",
"+	c #A5A5A5",
"@	c #7F7F7F",
"#	c #C0C2C0",
"$	c #8C8C8C",
"%	c #B3B5B3",
"&	c #DEDCDE",
"*	c #E9E6E9",
"=	c #D5D7D5",
"-	c #999899",
";	c #EAEDEA",
">	c #999B99",
"...........................",
"...........................",
"...........................",
"...........................",
"............++.............",
"............@@.............",
"...........@@@@............",
"..........@@..@@...........",
"..........#@..@#...........",
"...........$@@$............",
"............@@.............",
"...........%@@%............",
"..........&@@@@&...........",
"..........+@**@+...........",
".........=@....@=..........",
".........-@....@-..........",
"........;@......@;.........",
"........>&......&>.........",
".......*@........@*........",
".......-..........-........",
"...........................",
"...........................",
"...........................",
"...........................",
"...........................",
"...........................",
"..........................."};
