/* XPM */
static const char  * MakeTag[] = {
"27 27 4 1",
" 	c None",
".	c #000000",
"+	c #FFFFFF",
"@	c #BDBEF7",
"                           ",
"                           ",
"                           ",
"               ........    ",
"               .++++++.    ",
"        ...    .++++++.    ",
"        .@@.   .++++++.    ",
"        .@@.   .++++++.    ",
"        .@@@.  .++++++.    ",
"     .....@@.  .++++++.    ",
"    .@@@@@.@@. .++++++.    ",
"   .@@@@@@@.@. .++++++.    ",
"   .@@@@@@@.@@..++++++.    ",
"   .@@@@@@@.@@..++++++.    ",
"   .@@@@@@@.@@..++++++.    ",
"   .@@@@@@@.@. .++++++.    ",
"    .@@@@@.@@. .++++++.    ",
"     .....@@.  .++++++.    ",
"        .@@@.  .++++++.    ",
"        .@@.   .++++++.    ",
"        .@@.   .++++++.    ",
"        ...    .++++++.    ",
"               .++++++.    ",
"               ........    ",
"                           ",
"                           ",
"                           "};
