/* XPM */
static const char  * SelectSilenceDisabled[] = {
"24 24 6 1",
" 	c None",
".	c #FFFFFF",
"+	c #828282",
"@	c #CCC9D0",
"#	c #9599E9",
"$	c #B2B3EE",
"........................",
"........................",
"..++++++++++++++++++++..",
"...........@@...........",
"...........@@...........",
".#.........@@.........#.",
"###........@@.......####",
"$$#......+.@@.+.....#$$$",
"$$$$....++.@@.++....$$$$",
"$$$$...++..@@..++...$$$$",
"$$$$..++...@@...++..$$$$",
"$$$$$++++++$$+++++$$$$$$",
"$$$$..++...@@...++..$$$$",
"$$$$...++..@@..++...$$$$",
"$$$$....++.@@.++....$$$$",
"$$$#.....+.@@.+......#$$",
"####.......@@........###",
".#.........@@.........#.",
"...........@@...........",
"...........@@...........",
"..++++++++++++++++++++..",
"........................",
"........................",
"........................"};
