/* XPM */
static const char  * SelectSilenceAlpha[] = {
"24 24 3 1",
" 	c None",
".	c #000000",
"+	c #FFFFFF",
"........................",
"........................",
"..++++++++++++++++++++..",
"...........++...........",
"...........++...........",
".+.........++.........+.",
"+++........++.......++++",
"+++......+.++.+.....++++",
"++++....++.++.++....++++",
"++++...++..++..++...++++",
"++++..++...++...++..++++",
"++++++++++++++++++++++++",
"++++..++...++...++..++++",
"++++...++..++..++...++++",
"++++....++.++.++....++++",
"++++.....+.++.+......+++",
"++++.......++........+++",
".+.........++.........+.",
"...........++...........",
"...........++...........",
"..++++++++++++++++++++..",
"........................",
"........................",
"........................"};
